<?xml version="1.0" encoding="UTF-8" standalone="no"?>
<!DOCTYPE svg PUBLIC "-//W3C//DTD SVG 1.1//EN"
 "http://www.w3.org/Graphics/SVG/1.1/DTD/svg11.dtd">
<!-- Generated by graphviz version 10.0.1 (20240210.2158)
 -->
<!-- Title: Automaton Pages: 1 -->
<svg width="850pt" height="266pt"
 viewBox="0.00 0.00 850.00 266.00" xmlns="http://www.w3.org/2000/svg" xmlns:xlink="http://www.w3.org/1999/xlink">
<g id="graph0" class="graph" transform="scale(1 1) rotate(0) translate(4 262)">
<title>Automaton</title>
<polygon fill="white" stroke="none" points="-4,4 -4,-262 846,-262 846,4 -4,4"/>
<!-- filename -->
<g id="node1" class="node">
<title>filename</title>
<polygon fill="none" stroke="black" points="0,-191.25 0,-244.75 208,-244.75 208,-191.25 0,-191.25"/>
<polygon fill="none" stroke="black" points="11,-219 11,-237.75 197,-237.75 197,-219 11,-219"/>
<text text-anchor="start" x="14" y="-226.25" font-family="Courier New" font-weight="bold" font-size="10.00">BTN_CFGPLAYER_OK::M_BTN_2phase</text>
<polygon fill="none" stroke="black" points="11,-198.25 11,-217 197,-217 197,-198.25 11,-198.25"/>
<text text-anchor="start" x="59" y="-204.5" font-family="Courier New" font-size="10.00" fill="brown">start state = 0</text>
<polygon fill="none" stroke="black" points="8,-195.25 8,-240.75 200,-240.75 200,-195.25 8,-195.25"/>
</g>
<!-- 0 -->
<g id="node2" class="node">
<title>0</title>
<polyline fill="none" stroke="darkred" points="245.88,-206.75 260.12,-206.75"/>
<text text-anchor="start" x="248.88" y="-213.95" font-family="Courier New" font-weight="bold" font-size="14.00">0</text>
<path fill="none" stroke="darkred" d="M249.62,-203.75C249.62,-203.75 256.38,-203.75 256.38,-203.75 259.75,-203.75 263.12,-207.12 263.12,-210.5 263.12,-210.5 263.12,-225.5 263.12,-225.5 263.12,-228.88 259.75,-232.25 256.38,-232.25 256.38,-232.25 249.62,-232.25 249.62,-232.25 246.25,-232.25 242.88,-228.88 242.88,-225.5 242.88,-225.5 242.88,-210.5 242.88,-210.5 242.88,-207.12 246.25,-203.75 249.62,-203.75"/>
</g>
<!-- 1 -->
<g id="node3" class="node">
<title>1</title>
<polyline fill="none" stroke="darkred" stroke-width="3" points="244.38,-23.75 259.62,-23.75"/>
<text text-anchor="start" x="247.88" y="-31.45" font-family="Courier New" font-weight="bold" font-size="14.00">1</text>
<path fill="none" stroke="darkred" stroke-width="3" d="M247.79,-18.75C247.79,-18.75 256.21,-18.75 256.21,-18.75 260.42,-18.75 264.62,-22.96 264.62,-27.17 264.62,-27.17 264.62,-43.83 264.62,-43.83 264.62,-48.04 260.42,-52.25 256.21,-52.25 256.21,-52.25 247.79,-52.25 247.79,-52.25 243.58,-52.25 239.38,-48.04 239.38,-43.83 239.38,-43.83 239.38,-27.17 239.38,-27.17 239.38,-22.96 243.58,-18.75 247.79,-18.75"/>
</g>
<!-- 0&#45;&gt;1 -->
<g id="edge1" class="edge">
<title>0&#45;&gt;1</title>
<path fill="none" stroke="black" d="M239.44,-199.79C233.13,-192.49 225.21,-184.25 217,-178 203.08,-167.41 191.11,-174.93 182,-160 165.56,-133.06 167.89,-117.22 182,-89 189.2,-74.6 202.44,-63.12 215.48,-54.62"/>
<polygon fill="black" stroke="black" points="217.25,-57.64 224.01,-49.48 213.64,-51.64 217.25,-57.64"/>
<polygon fill="none" stroke="black" points="185,-131.88 185,-150.62 299,-150.62 299,-131.88 185,-131.88"/>
<text text-anchor="start" x="206" y="-139.12" font-family="Courier New" font-weight="bold" font-size="10.00" fill="blue">Z_EPSILON(,)</text>
<polygon fill="none" stroke="black" points="185,-98.38 185,-129.88 299,-129.88 299,-98.38 185,-98.38"/>
<text text-anchor="start" x="188" y="-117.38" font-family="Courier New" font-size="10.00" fill="blue"> &#160;&#160;&#160;WSPRITE=WIP3;</text>
<text text-anchor="start" x="188" y="-104.62" font-family="Courier New" font-size="10.00" fill="blue"> &#160;&#160;&#160;SHOW(WSPRITE);</text>
<polygon fill="none" stroke="black" points="182,-95.38 182,-153.62 302,-153.62 302,-95.38 182,-95.38"/>
</g>
<!-- 1&#45;&gt;0 -->
<g id="edge2" class="edge">
<title>1&#45;&gt;0</title>
<path fill="none" stroke="black" d="M278.81,-57.19C287.97,-65.9 297.14,-76.85 302,-89 313.72,-118.3 312.97,-130.41 302,-160 300.55,-163.91 288.3,-178.16 276.42,-191.43"/>
<polygon fill="black" stroke="black" points="273.9,-189 269.79,-198.76 279.09,-193.69 273.9,-189"/>
<polygon fill="none" stroke="black" points="313,-138.25 313,-157 469,-157 469,-138.25 313,-138.25"/>
<text text-anchor="start" x="367" y="-145.5" font-family="Courier New" font-weight="bold" font-size="10.00" fill="orange">CLICK(,)</text>
<polygon fill="none" stroke="black" points="313,-92 313,-136.25 469,-136.25 469,-92 313,-92"/>
<text text-anchor="start" x="316" y="-123.75" font-family="Courier New" font-size="10.00" fill="blue">PLAYWAVE(SOUND_BTNPRESS);</text>
<text text-anchor="start" x="316" y="-111" font-family="Courier New" font-size="10.00" fill="blue">LOADVIEW(WIP1);</text>
<text text-anchor="start" x="316" y="-98.25" font-family="Courier New" font-size="10.00" fill="blue">SHOW();</text>
<polygon fill="none" stroke="black" points="310,-89 310,-160 472,-160 472,-89 310,-89"/>
</g>
<!-- 1&#45;&gt;1 -->
<g id="edge3" class="edge">
<title>1&#45;&gt;1</title>
<path fill="none" stroke="black" d="M278.79,-43.83C288.78,-44.1 297,-41.32 297,-35.5 297,-32.13 294.25,-29.79 290.01,-28.46"/>
<polygon fill="black" stroke="black" points="290.63,-25.01 280.3,-27.35 289.84,-31.96 290.63,-25.01"/>
<polygon fill="none" stroke="black" points="300,-42.88 300,-61.62 414,-61.62 414,-42.88 300,-42.88"/>
<text text-anchor="start" x="303" y="-50.12" font-family="Courier New" font-weight="bold" font-size="10.00" fill="orange">DRAGFOCUS(0,FALSE)</text>
<polygon fill="none" stroke="black" points="300,-9.38 300,-40.88 414,-40.88 414,-9.38 300,-9.38"/>
<text text-anchor="start" x="315" y="-28.38" font-family="Courier New" font-size="10.00" fill="blue">WSPRITE=WIP3;</text>
<text text-anchor="start" x="315" y="-15.62" font-family="Courier New" font-size="10.00" fill="blue">SHOW(WSPRITE);</text>
<polygon fill="none" stroke="black" points="297,-6.38 297,-64.62 417,-64.62 417,-6.38 297,-6.38"/>
</g>
<!-- 1&#45;&gt;1 -->
<g id="edge4" class="edge">
<title>1&#45;&gt;1</title>
<path fill="none" stroke="black" d="M278.84,-46.53C326.9,-56.78 417,-53.1 417,-35.5 417,-19.17 339.45,-14.83 289.87,-22.46"/>
<polygon fill="black" stroke="black" points="289.55,-18.96 280.33,-24.2 290.8,-25.85 289.55,-18.96"/>
<polygon fill="none" stroke="black" points="420,-49.25 420,-68 570,-68 570,-49.25 420,-49.25"/>
<text text-anchor="start" x="444" y="-56.5" font-family="Courier New" font-weight="bold" font-size="10.00" fill="orange">DRAGFOCUS(0,TRUE)</text>
<polygon fill="none" stroke="black" points="420,-3 420,-47.25 570,-47.25 570,-3 420,-3"/>
<text text-anchor="start" x="423" y="-34.75" font-family="Courier New" font-size="10.00" fill="blue">WSPRITE=WIP2;</text>
<text text-anchor="start" x="423" y="-22" font-family="Courier New" font-size="10.00" fill="blue">SHOW(WSPRITE);</text>
<text text-anchor="start" x="423" y="-9.25" font-family="Courier New" font-size="10.00" fill="blue">PLAYWAVE(SOUND_BTNDRAG);</text>
<polygon fill="none" stroke="black" points="417,0 417,-71 573,-71 573,0 417,0"/>
</g>
<!-- status -->
<g id="node4" class="node">
<title>status</title>
<polygon fill="none" stroke="black" points="298,-178.5 298,-257.5 842,-257.5 842,-178.5 298,-178.5"/>
<polygon fill="none" stroke="black" points="309,-231.75 309,-250.5 831,-250.5 831,-231.75 309,-231.75"/>
<text text-anchor="start" x="522" y="-239" font-family="Courier New" font-weight="bold" font-size="10.00">BTN_CFGPLAYER_OK</text>
<polygon fill="none" stroke="black" points="309,-185.5 309,-229.75 831,-229.75 831,-185.5 309,-185.5"/>
<text text-anchor="start" x="312" y="-217.25" font-family="Courier New" font-size="10.00" fill="green">VIEW::IDV_CFGPLAYER @pos(x:300, y:260, h:50, w:40)</text>
<text text-anchor="start" x="312" y="-204.5" font-family="Courier New" font-size="10.00" fill="green">BTN_CFGPLAYER_OK::M_BTN_2phase(&#39;IDV_CFGCULTURE&#39;,&#39;IDS_BTN_OK_HI&#39;,&#39;IDS_BTN_OK&#39;,&#39;&#39;,&#39;&#39;,&#39;&#39;)</text>
<text text-anchor="start" x="312" y="-191.75" font-family="Courier New" font-size="10.00" fill="green">{state:&#39;1&#39;: wSprite:IDS_BTN_OK_HI Top:260 Left:300 Z:0</text>
<polygon fill="none" stroke="black" points="306,-182.5 306,-253.5 834,-253.5 834,-182.5 306,-182.5"/>
</g>
</g>
</svg>
