<?xml version="1.0" encoding="UTF-8" standalone="no"?>
<!DOCTYPE svg PUBLIC "-//W3C//DTD SVG 1.1//EN"
 "http://www.w3.org/Graphics/SVG/1.1/DTD/svg11.dtd">
<!-- Generated by graphviz version 10.0.1 (20240210.2158)
 -->
<!-- Title: Automaton Pages: 1 -->
<svg width="1252pt" height="88pt"
 viewBox="0.00 0.00 1252.00 88.00" xmlns="http://www.w3.org/2000/svg" xmlns:xlink="http://www.w3.org/1999/xlink">
<g id="graph0" class="graph" transform="scale(1 1) rotate(0) translate(4 84)">
<title>Automaton</title>
<polygon fill="white" stroke="none" points="-4,4 -4,-84 1248,-84 1248,4 -4,4"/>
<!-- filename -->
<g id="node1" class="node">
<title>filename</title>
<polygon fill="none" stroke="black" points="0,-13.25 0,-66.75 190,-66.75 190,-13.25 0,-13.25"/>
<polygon fill="none" stroke="black" points="11,-41 11,-59.75 179,-59.75 179,-41 11,-41"/>
<text text-anchor="start" x="14" y="-48.25" font-family="Courier New" font-weight="bold" font-size="10.00">BTN_CFGPLAYER::M_BTN_1phase</text>
<polygon fill="none" stroke="black" points="11,-20.25 11,-39 179,-39 179,-20.25 11,-20.25"/>
<text text-anchor="start" x="50" y="-26.5" font-family="Courier New" font-size="10.00" fill="brown">start state = 0</text>
<polygon fill="none" stroke="black" points="8,-17.25 8,-62.75 182,-62.75 182,-17.25 8,-17.25"/>
</g>
<!-- 0 -->
<g id="node2" class="node">
<title>0</title>
<polyline fill="none" stroke="darkred" stroke-width="3" points="227.38,-28.25 242.62,-28.25"/>
<text text-anchor="start" x="230.88" y="-35.95" font-family="Courier New" font-weight="bold" font-size="14.00">0</text>
<path fill="none" stroke="darkred" stroke-width="3" d="M230.79,-23.25C230.79,-23.25 239.21,-23.25 239.21,-23.25 243.42,-23.25 247.62,-27.46 247.62,-31.67 247.62,-31.67 247.62,-48.33 247.62,-48.33 247.62,-52.54 243.42,-56.75 239.21,-56.75 239.21,-56.75 230.79,-56.75 230.79,-56.75 226.58,-56.75 222.38,-52.54 222.38,-48.33 222.38,-48.33 222.38,-31.67 222.38,-31.67 222.38,-27.46 226.58,-23.25 230.79,-23.25"/>
</g>
<!-- 0&#45;&gt;0 -->
<g id="edge1" class="edge">
<title>0&#45;&gt;0</title>
<path fill="none" stroke="black" d="M261.79,-42.78C271.78,-42.87 280,-41.94 280,-40 280,-38.88 277.25,-38.1 273.01,-37.65"/>
<polygon fill="black" stroke="black" points="273.43,-34.17 263.31,-37.28 273.17,-41.16 273.43,-34.17"/>
<polygon fill="none" stroke="black" points="283,-53.75 283,-72.5 439,-72.5 439,-53.75 283,-53.75"/>
<text text-anchor="start" x="337" y="-61" font-family="Courier New" font-weight="bold" font-size="10.00" fill="orange">CLICK(,)</text>
<polygon fill="none" stroke="black" points="283,-7.5 283,-51.75 439,-51.75 439,-7.5 283,-7.5"/>
<text text-anchor="start" x="286" y="-39.25" font-family="Courier New" font-size="10.00" fill="blue">PLAYWAVE(SOUND_BTNPRESS);</text>
<text text-anchor="start" x="286" y="-26.5" font-family="Courier New" font-size="10.00" fill="blue">LOADVIEW(WIP1);</text>
<text text-anchor="start" x="286" y="-13.75" font-family="Courier New" font-size="10.00" fill="blue">SHOW();</text>
<polygon fill="none" stroke="black" points="280,-4.5 280,-75.5 442,-75.5 442,-4.5 280,-4.5"/>
</g>
<!-- 0&#45;&gt;0 -->
<g id="edge2" class="edge">
<title>0&#45;&gt;0</title>
<path fill="none" stroke="black" d="M261.9,-43.39C319.21,-47.16 442,-46.03 442,-40 442,-34.35 334.08,-33 273.37,-35.96"/>
<polygon fill="black" stroke="black" points="273.2,-32.47 263.41,-36.52 273.59,-39.45 273.2,-32.47"/>
<polygon fill="none" stroke="black" points="445,-41 445,-59.75 559,-59.75 559,-41 445,-41"/>
<text text-anchor="start" x="448" y="-48.25" font-family="Courier New" font-weight="bold" font-size="10.00" fill="orange">DRAGFOCUS(0,FALSE)</text>
<polygon fill="none" stroke="black" points="445,-20.25 445,-39 559,-39 559,-20.25 445,-20.25"/>
<text text-anchor="start" x="481" y="-26.5" font-family="Courier New" font-size="10.00" fill="blue">SHOW();</text>
<polygon fill="none" stroke="black" points="442,-17.25 442,-62.75 562,-62.75 562,-17.25 442,-17.25"/>
</g>
<!-- 0&#45;&gt;0 -->
<g id="edge3" class="edge">
<title>0&#45;&gt;0</title>
<path fill="none" stroke="black" d="M261.81,-44.1C341.95,-50.9 562,-49.53 562,-40 562,-30.89 360.87,-29.24 273.16,-35.05"/>
<polygon fill="black" stroke="black" points="273.03,-31.55 263.32,-35.78 273.55,-38.53 273.03,-31.55"/>
<polygon fill="none" stroke="black" points="565,-53.75 565,-72.5 715,-72.5 715,-53.75 565,-53.75"/>
<text text-anchor="start" x="589" y="-61" font-family="Courier New" font-weight="bold" font-size="10.00" fill="orange">DRAGFOCUS(0,TRUE)</text>
<polygon fill="none" stroke="black" points="565,-7.5 565,-51.75 715,-51.75 715,-7.5 565,-7.5"/>
<text text-anchor="start" x="568" y="-39.25" font-family="Courier New" font-size="10.00" fill="blue">WSPRITE=WIP2;</text>
<text text-anchor="start" x="568" y="-26.5" font-family="Courier New" font-size="10.00" fill="blue">SHOW(WSPRITE);</text>
<text text-anchor="start" x="568" y="-13.75" font-family="Courier New" font-size="10.00" fill="blue">PLAYWAVE(SOUND_BTNDRAG);</text>
<polygon fill="none" stroke="black" points="562,-4.5 562,-75.5 718,-75.5 718,-4.5 562,-4.5"/>
</g>
<!-- status -->
<g id="node3" class="node">
<title>status</title>
<polygon fill="none" stroke="black" points="772,-0.5 772,-79.5 1244,-79.5 1244,-0.5 772,-0.5"/>
<polygon fill="none" stroke="black" points="783,-53.75 783,-72.5 1233,-72.5 1233,-53.75 783,-53.75"/>
<text text-anchor="start" x="969" y="-61" font-family="Courier New" font-weight="bold" font-size="10.00">BTN_CFGPLAYER</text>
<polygon fill="none" stroke="black" points="783,-7.5 783,-51.75 1233,-51.75 1233,-7.5 783,-7.5"/>
<text text-anchor="start" x="786" y="-39.25" font-family="Courier New" font-size="10.00" fill="green">VIEW::IDV_TOPMENU @pos(x:1916, y:222, h:128, w:55)</text>
<text text-anchor="start" x="786" y="-26.5" font-family="Courier New" font-size="10.00" fill="green">BTN_CFGPLAYER::M_BTN_1phase(&#39;IDV_CFGPLAYER1&#39;,&#39;IDS_BTN_PLAYER&#39;,&#39;&#39;,&#39;&#39;,&#39;&#39;,&#39;&#39;)</text>
<text text-anchor="start" x="786" y="-13.75" font-family="Courier New" font-size="10.00" fill="green">{state:&#39;0&#39;: wSprite:IDS_BTN_PLAYER Top:222 Left:1916 Z:0</text>
<polygon fill="none" stroke="black" points="780,-4.5 780,-75.5 1236,-75.5 1236,-4.5 780,-4.5"/>
</g>
</g>
</svg>
