<?xml version="1.0" encoding="UTF-8" standalone="no"?>
<!DOCTYPE svg PUBLIC "-//W3C//DTD SVG 1.1//EN"
 "http://www.w3.org/Graphics/SVG/1.1/DTD/svg11.dtd">
<!-- Generated by graphviz version 10.0.1 (20240210.2158)
 -->
<!-- Title: Automaton Pages: 1 -->
<svg width="1271pt" height="499pt"
 viewBox="0.00 0.00 1271.00 498.81" xmlns="http://www.w3.org/2000/svg" xmlns:xlink="http://www.w3.org/1999/xlink">
<g id="graph0" class="graph" transform="scale(1 1) rotate(0) translate(4 494.81)">
<title>Automaton</title>
<polygon fill="white" stroke="none" points="-4,4 -4,-494.81 1267,-494.81 1267,4 -4,4"/>
<!-- filename -->
<g id="node1" class="node">
<title>filename</title>
<polygon fill="none" stroke="black" points="0,-424.06 0,-477.56 274,-477.56 274,-424.06 0,-424.06"/>
<polygon fill="none" stroke="black" points="11,-451.81 11,-470.56 263,-470.56 263,-451.81 11,-451.81"/>
<text text-anchor="start" x="14" y="-459.06" font-family="Courier New" font-weight="bold" font-size="10.00">BTN_CFGCULTURE_CREATE::M_BTN_PLAYERCREATE</text>
<polygon fill="none" stroke="black" points="11,-431.06 11,-449.81 263,-449.81 263,-431.06 11,-431.06"/>
<text text-anchor="start" x="92" y="-437.31" font-family="Courier New" font-size="10.00" fill="brown">start state = 0</text>
<polygon fill="none" stroke="black" points="8,-428.06 8,-473.56 266,-473.56 266,-428.06 8,-428.06"/>
</g>
<!-- 0 -->
<g id="node2" class="node">
<title>0</title>
<polyline fill="none" stroke="darkred" points="311.88,-439.56 326.12,-439.56"/>
<text text-anchor="start" x="314.88" y="-446.76" font-family="Courier New" font-weight="bold" font-size="14.00">0</text>
<path fill="none" stroke="darkred" d="M315.62,-436.56C315.62,-436.56 322.38,-436.56 322.38,-436.56 325.75,-436.56 329.12,-439.93 329.12,-443.31 329.12,-443.31 329.12,-458.31 329.12,-458.31 329.12,-461.68 325.75,-465.06 322.38,-465.06 322.38,-465.06 315.62,-465.06 315.62,-465.06 312.25,-465.06 308.88,-461.68 308.88,-458.31 308.88,-458.31 308.88,-443.31 308.88,-443.31 308.88,-439.93 312.25,-436.56 315.62,-436.56"/>
</g>
<!-- 1 -->
<g id="node3" class="node">
<title>1</title>
<polyline fill="none" stroke="darkred" stroke-width="3" points="310.38,-27.06 325.62,-27.06"/>
<text text-anchor="start" x="313.88" y="-34.76" font-family="Courier New" font-weight="bold" font-size="14.00">1</text>
<path fill="none" stroke="darkred" stroke-width="3" d="M313.79,-22.06C313.79,-22.06 322.21,-22.06 322.21,-22.06 326.42,-22.06 330.62,-26.27 330.62,-30.47 330.62,-30.47 330.62,-47.14 330.62,-47.14 330.62,-51.35 326.42,-55.56 322.21,-55.56 322.21,-55.56 313.79,-55.56 313.79,-55.56 309.58,-55.56 305.38,-51.35 305.38,-47.14 305.38,-47.14 305.38,-30.47 305.38,-30.47 305.38,-26.27 309.58,-22.06 313.79,-22.06"/>
</g>
<!-- 0&#45;&gt;1 -->
<g id="edge1" class="edge">
<title>0&#45;&gt;1</title>
<path fill="none" stroke="black" d="M307.17,-432.65C300.88,-424.81 292.49,-416.11 283,-410.81 246.62,-390.49 217.48,-424.97 191,-392.81 106.11,-289.7 116.76,-203.33 191,-92.31 210.67,-62.89 250.17,-49.94 279.93,-44.25"/>
<polygon fill="black" stroke="black" points="280.43,-47.71 289.7,-42.59 279.26,-40.81 280.43,-47.71"/>
<polygon fill="none" stroke="black" points="194,-256.31 194,-275.06 422,-275.06 422,-256.31 194,-256.31"/>
<text text-anchor="start" x="272" y="-263.56" font-family="Courier New" font-weight="bold" font-size="10.00" fill="blue">Z_EPSILON(,)</text>
<polygon fill="none" stroke="black" points="194,-210.06 194,-254.31 422,-254.31 422,-210.06 194,-210.06"/>
<text text-anchor="start" x="197" y="-241.81" font-family="Courier New" font-size="10.00" fill="blue"> &#160;&#160;&#160;WSPRITE=WIP3;</text>
<text text-anchor="start" x="197" y="-229.06" font-family="Courier New" font-size="10.00" fill="blue"> &#160;&#160;&#160;SHOW(WSPRITE);</text>
<text text-anchor="start" x="197" y="-216.31" font-family="Courier New" font-size="10.00" fill="blue"> &#160;&#160;&#160;REF_MACHINE(BTN_CFGPLAYERNEW_OK);</text>
<polygon fill="none" stroke="black" points="191,-207.06 191,-278.06 425,-278.06 425,-207.06 191,-207.06"/>
</g>
<!-- 1&#45;&gt;0 -->
<g id="edge2" class="edge">
<title>1&#45;&gt;0</title>
<path fill="none" stroke="black" d="M344.95,-44.68C370.54,-50.9 407.6,-64.39 425,-92.31 460.32,-148.98 465.92,-340.03 425,-392.81 405.32,-418.19 382.58,-394.33 355,-410.81 349.02,-414.38 343.43,-419.24 338.53,-424.32"/>
<polygon fill="black" stroke="black" points="335.96,-421.94 331.97,-431.75 341.21,-426.57 335.96,-421.94"/>
<polygon fill="none" stroke="black" points="456,-371.06 456,-389.81 1260,-389.81 1260,-371.06 456,-371.06"/>
<text text-anchor="start" x="834" y="-378.31" font-family="Courier New" font-weight="bold" font-size="10.00" fill="orange">CLICK(,)</text>
<polygon fill="none" stroke="black" points="456,-95.31 456,-369.06 1260,-369.06 1260,-95.31 456,-95.31"/>
<text text-anchor="start" x="459" y="-356.56" font-family="Courier New" font-size="10.00" fill="blue"> &#160;&#160;&#160;PLAYWAVE(SOUND_BTNPRESS);</text>
<text text-anchor="start" x="459" y="-343.81" font-family="Courier New" font-size="10.00" fill="blue"> &#160;&#160;&#160;//PROCESS PLAYER ATTRIBUTES</text>
<text text-anchor="start" x="459" y="-331.06" font-family="Courier New" font-size="10.00" fill="blue"> &#160;&#160;&#160;//check player_characters and if row 1 empty create the table</text>
<text text-anchor="start" x="459" y="-318.31" font-family="Courier New" font-size="10.00" fill="blue"> &#160;&#160;&#160;&#160;&#160;&#160;&#160;REF_MACHINE(BTN_CFGCULTURE_FEM);</text>
<text text-anchor="start" x="459" y="-305.56" font-family="Courier New" font-size="10.00" fill="blue"> &#160;&#160;&#160;&#160;&#160;&#160;&#160;&#160;&#160;&#160;&#160;WTEMP1 = 1;</text>
<text text-anchor="start" x="459" y="-292.81" font-family="Courier New" font-size="10.00" fill="blue"> &#160;&#160;&#160;&#160;&#160;&#160;&#160;&#160;&#160;&#160;&#160;if(R_WPARM == ACTIVE){WTEMP1=0}; &#160;&#160;&#160;&#160;&#160;&#160;</text>
<text text-anchor="start" x="459" y="-280.06" font-family="Courier New" font-size="10.00" fill="blue"> &#160;&#160;&#160;&#160;&#160;&#160;&#160;REF_MACHINE(BTN_CFGCULTURE_VIL);</text>
<text text-anchor="start" x="459" y="-267.31" font-family="Courier New" font-size="10.00" fill="blue"> &#160;&#160;&#160;&#160;&#160;&#160;&#160;&#160;&#160;&#160;&#160;WTEMP2=1;</text>
<text text-anchor="start" x="459" y="-254.56" font-family="Courier New" font-size="10.00" fill="blue"> &#160;&#160;&#160;&#160;&#160;&#160;&#160;&#160;&#160;&#160;&#160;if(R_WPARM == ACTIVE){WTEMP2 = 0};</text>
<text text-anchor="start" x="459" y="-241.81" font-family="Courier New" font-size="10.00" fill="blue"> &#160;&#160;&#160;predicate player_characters(name,viewname,wealth,karma,energy,strength,wisdom,gender,culture,knowsparent,knowsvillage,knowscity);</text>
<text text-anchor="start" x="459" y="-229.06" font-family="Courier New" font-size="10.00" fill="blue"> &#160;&#160;// player_characters(R_WPARM)~</text>
<text text-anchor="start" x="459" y="-216.31" font-family="Courier New" font-size="10.00" fill="blue"> &#160;&#160;&#160;&#160;&#160;&#160;&#160;MYWEALTH = 4;</text>
<text text-anchor="start" x="459" y="-203.56" font-family="Courier New" font-size="10.00" fill="blue"> &#160;&#160;&#160;&#160;&#160;&#160;&#160;MYENERGY = 4;</text>
<text text-anchor="start" x="459" y="-190.81" font-family="Courier New" font-size="10.00" fill="blue"> &#160;&#160;&#160;&#160;&#160;&#160;&#160;MYKARMA = 0;</text>
<text text-anchor="start" x="459" y="-178.06" font-family="Courier New" font-size="10.00" fill="blue"> &#160;&#160;&#160;&#160;&#160;&#160;&#160;MYWISDOM = 2;</text>
<text text-anchor="start" x="459" y="-165.31" font-family="Courier New" font-size="10.00" fill="blue"> &#160;&#160;&#160;player_characters(R_WPARM,LVIEW,MYWEALTH,MYKARMA,MYENERGY,10,MYWISDOM,WTEMP1,WTEMP2,0,0,0).</text>
<text text-anchor="start" x="459" y="-152.56" font-family="Courier New" font-size="10.00" fill="blue"> &#160;&#160;&#160;SIGNAL(SID_AURA, SIG_MYAURA);</text>
<text text-anchor="start" x="459" y="-139.81" font-family="Courier New" font-size="10.00" fill="blue"> &#160;&#160;&#160;SIGNAL(SID_HALO, SIG_MYHALO);</text>
<text text-anchor="start" x="459" y="-127.06" font-family="Courier New" font-size="10.00" fill="blue"> &#160;&#160;&#160;SIGNAL(SID_ID,SIG_MYID); //Present my id</text>
<text text-anchor="start" x="459" y="-114.31" font-family="Courier New" font-size="10.00" fill="blue"> &#160;&#160;&#160;LOADVIEW(WIP1);</text>
<text text-anchor="start" x="459" y="-101.56" font-family="Courier New" font-size="10.00" fill="blue"> &#160;&#160;&#160;SHOW();</text>
<polygon fill="none" stroke="black" points="453,-92.31 453,-392.81 1263,-392.81 1263,-92.31 453,-92.31"/>
</g>
<!-- 1&#45;&gt;1 -->
<g id="edge3" class="edge">
<title>1&#45;&gt;1</title>
<path fill="none" stroke="black" d="M344.79,-57.87C354.78,-58.49 363,-52.14 363,-38.81 363,-30.89 360.1,-25.44 355.66,-22.44"/>
<polygon fill="black" stroke="black" points="356.81,-19.12 346.26,-20.11 355.13,-25.92 356.81,-19.12"/>
<polygon fill="none" stroke="black" points="366,-46.18 366,-64.93 480,-64.93 480,-46.18 366,-46.18"/>
<text text-anchor="start" x="369" y="-53.43" font-family="Courier New" font-weight="bold" font-size="10.00" fill="orange">DRAGFOCUS(0,FALSE)</text>
<polygon fill="none" stroke="black" points="366,-12.68 366,-44.18 480,-44.18 480,-12.68 366,-12.68"/>
<text text-anchor="start" x="381" y="-31.68" font-family="Courier New" font-size="10.00" fill="blue">WSPRITE=WIP3;</text>
<text text-anchor="start" x="381" y="-18.93" font-family="Courier New" font-size="10.00" fill="blue">SHOW(WSPRITE);</text>
<polygon fill="none" stroke="black" points="363,-9.68 363,-67.93 483,-67.93 483,-9.68 363,-9.68"/>
</g>
<!-- 1&#45;&gt;1 -->
<g id="edge4" class="edge">
<title>1&#45;&gt;1</title>
<path fill="none" stroke="black" d="M339.03,-60.95C385.18,-88.17 483,-80.79 483,-38.81 483,0.31 398.09,9.39 349.17,-11.57"/>
<polygon fill="black" stroke="black" points="347.74,-8.37 340.38,-15.99 350.88,-14.62 347.74,-8.37"/>
<polygon fill="none" stroke="black" points="486,-52.56 486,-71.31 636,-71.31 636,-52.56 486,-52.56"/>
<text text-anchor="start" x="510" y="-59.81" font-family="Courier New" font-weight="bold" font-size="10.00" fill="orange">DRAGFOCUS(0,TRUE)</text>
<polygon fill="none" stroke="black" points="486,-6.31 486,-50.56 636,-50.56 636,-6.31 486,-6.31"/>
<text text-anchor="start" x="489" y="-38.06" font-family="Courier New" font-size="10.00" fill="blue">WSPRITE=WIP2;</text>
<text text-anchor="start" x="489" y="-25.31" font-family="Courier New" font-size="10.00" fill="blue">SHOW(WSPRITE);</text>
<text text-anchor="start" x="489" y="-12.56" font-family="Courier New" font-size="10.00" fill="blue">PLAYWAVE(SOUND_BTNDRAG);</text>
<polygon fill="none" stroke="black" points="483,-3.31 483,-74.31 639,-74.31 639,-3.31 483,-3.31"/>
</g>
<!-- status -->
<g id="node4" class="node">
<title>status</title>
<polygon fill="none" stroke="black" points="364,-411.31 364,-490.31 1004,-490.31 1004,-411.31 364,-411.31"/>
<polygon fill="none" stroke="black" points="375,-464.56 375,-483.31 993,-483.31 993,-464.56 375,-464.56"/>
<text text-anchor="start" x="621" y="-471.81" font-family="Courier New" font-weight="bold" font-size="10.00">BTN_CFGCULTURE_CREATE</text>
<polygon fill="none" stroke="black" points="375,-418.31 375,-462.56 993,-462.56 993,-418.31 375,-418.31"/>
<text text-anchor="start" x="378" y="-450.06" font-family="Courier New" font-size="10.00" fill="green">VIEW::IDV_CFGCULTURE @pos(x:536, y:247, h:64, w:53)</text>
<text text-anchor="start" x="378" y="-437.31" font-family="Courier New" font-size="10.00" fill="green">BTN_CFGCULTURE_CREATE::M_BTN_PLAYERCREATE(&#39;IDV_CFGPLAYER&#39;,&#39;IDS_BTN_CREATEH&#39;,&#39;IDS_BTN_CREATE&#39;,&#39;&#39;,&#39;&#39;,&#39;&#39;)</text>
<text text-anchor="start" x="378" y="-424.56" font-family="Courier New" font-size="10.00" fill="green">{state:&#39;1&#39;: wSprite:IDS_BTN_CREATE Top:247 Left:536 Z:0</text>
<polygon fill="none" stroke="black" points="372,-415.31 372,-486.31 996,-486.31 996,-415.31 372,-415.31"/>
</g>
</g>
</svg>
