<?xml version="1.0" encoding="UTF-8" standalone="no"?>
<!DOCTYPE svg PUBLIC "-//W3C//DTD SVG 1.1//EN"
 "http://www.w3.org/Graphics/SVG/1.1/DTD/svg11.dtd">
<!-- Generated by graphviz version 10.0.1 (20240210.2158)
 -->
<!-- Title: Automaton Pages: 1 -->
<svg width="1366pt" height="88pt"
 viewBox="0.00 0.00 1366.00 88.00" xmlns="http://www.w3.org/2000/svg" xmlns:xlink="http://www.w3.org/1999/xlink">
<g id="graph0" class="graph" transform="scale(1 1) rotate(0) translate(4 84)">
<title>Automaton</title>
<polygon fill="white" stroke="none" points="-4,4 -4,-84 1362,-84 1362,4 -4,4"/>
<!-- filename -->
<g id="node1" class="node">
<title>filename</title>
<polygon fill="none" stroke="black" points="0,-13.25 0,-66.75 220,-66.75 220,-13.25 0,-13.25"/>
<polygon fill="none" stroke="black" points="11,-41 11,-59.75 209,-59.75 209,-41 11,-41"/>
<text text-anchor="start" x="14" y="-48.25" font-family="Courier New" font-weight="bold" font-size="10.00">BTN_CFGPLAYER_NEXT::M_BTN_2phase</text>
<polygon fill="none" stroke="black" points="11,-20.25 11,-39 209,-39 209,-20.25 11,-20.25"/>
<text text-anchor="start" x="65" y="-26.5" font-family="Courier New" font-size="10.00" fill="brown">start state = 0</text>
<polygon fill="none" stroke="black" points="8,-17.25 8,-62.75 212,-62.75 212,-17.25 8,-17.25"/>
</g>
<!-- 0 -->
<g id="node2" class="node">
<title>0</title>
<polyline fill="none" stroke="darkred" stroke-width="3" points="257.38,-28.25 272.62,-28.25"/>
<text text-anchor="start" x="260.88" y="-35.95" font-family="Courier New" font-weight="bold" font-size="14.00">0</text>
<path fill="none" stroke="darkred" stroke-width="3" d="M260.79,-23.25C260.79,-23.25 269.21,-23.25 269.21,-23.25 273.42,-23.25 277.62,-27.46 277.62,-31.67 277.62,-31.67 277.62,-48.33 277.62,-48.33 277.62,-52.54 273.42,-56.75 269.21,-56.75 269.21,-56.75 260.79,-56.75 260.79,-56.75 256.58,-56.75 252.38,-52.54 252.38,-48.33 252.38,-48.33 252.38,-31.67 252.38,-31.67 252.38,-27.46 256.58,-23.25 260.79,-23.25"/>
</g>
<!-- 0&#45;&gt;0 -->
<g id="edge1" class="edge">
<title>0&#45;&gt;0</title>
<path fill="none" stroke="black" d="M291.79,-42.78C301.78,-42.87 310,-41.94 310,-40 310,-38.88 307.25,-38.1 303.01,-37.65"/>
<polygon fill="black" stroke="black" points="303.43,-34.17 293.31,-37.28 303.17,-41.16 303.43,-34.17"/>
<polygon fill="none" stroke="black" points="313,-53.75 313,-72.5 469,-72.5 469,-53.75 313,-53.75"/>
<text text-anchor="start" x="367" y="-61" font-family="Courier New" font-weight="bold" font-size="10.00" fill="orange">CLICK(,)</text>
<polygon fill="none" stroke="black" points="313,-7.5 313,-51.75 469,-51.75 469,-7.5 313,-7.5"/>
<text text-anchor="start" x="316" y="-39.25" font-family="Courier New" font-size="10.00" fill="blue">PLAYWAVE(SOUND_BTNPRESS);</text>
<text text-anchor="start" x="316" y="-26.5" font-family="Courier New" font-size="10.00" fill="blue">LOADVIEW(WIP1);</text>
<text text-anchor="start" x="316" y="-13.75" font-family="Courier New" font-size="10.00" fill="blue">SHOW();</text>
<polygon fill="none" stroke="black" points="310,-4.5 310,-75.5 472,-75.5 472,-4.5 310,-4.5"/>
</g>
<!-- 0&#45;&gt;0 -->
<g id="edge2" class="edge">
<title>0&#45;&gt;0</title>
<path fill="none" stroke="black" d="M291.9,-43.39C349.21,-47.16 472,-46.03 472,-40 472,-34.35 364.08,-33 303.37,-35.96"/>
<polygon fill="black" stroke="black" points="303.2,-32.47 293.41,-36.52 303.59,-39.45 303.2,-32.47"/>
<polygon fill="none" stroke="black" points="475,-47.38 475,-66.12 589,-66.12 589,-47.38 475,-47.38"/>
<text text-anchor="start" x="478" y="-54.62" font-family="Courier New" font-weight="bold" font-size="10.00" fill="orange">DRAGFOCUS(0,FALSE)</text>
<polygon fill="none" stroke="black" points="475,-13.88 475,-45.38 589,-45.38 589,-13.88 475,-13.88"/>
<text text-anchor="start" x="490" y="-32.88" font-family="Courier New" font-size="10.00" fill="blue">WSPRITE=WIP3;</text>
<text text-anchor="start" x="490" y="-20.12" font-family="Courier New" font-size="10.00" fill="blue">SHOW(WSPRITE);</text>
<polygon fill="none" stroke="black" points="472,-10.88 472,-69.12 592,-69.12 592,-10.88 472,-10.88"/>
</g>
<!-- 0&#45;&gt;0 -->
<g id="edge3" class="edge">
<title>0&#45;&gt;0</title>
<path fill="none" stroke="black" d="M291.81,-44.1C371.95,-50.9 592,-49.53 592,-40 592,-30.89 390.87,-29.24 303.16,-35.05"/>
<polygon fill="black" stroke="black" points="303.03,-31.55 293.32,-35.78 303.55,-38.53 303.03,-31.55"/>
<polygon fill="none" stroke="black" points="595,-53.75 595,-72.5 745,-72.5 745,-53.75 595,-53.75"/>
<text text-anchor="start" x="619" y="-61" font-family="Courier New" font-weight="bold" font-size="10.00" fill="orange">DRAGFOCUS(0,TRUE)</text>
<polygon fill="none" stroke="black" points="595,-7.5 595,-51.75 745,-51.75 745,-7.5 595,-7.5"/>
<text text-anchor="start" x="598" y="-39.25" font-family="Courier New" font-size="10.00" fill="blue">WSPRITE=WIP2;</text>
<text text-anchor="start" x="598" y="-26.5" font-family="Courier New" font-size="10.00" fill="blue">SHOW(WSPRITE);</text>
<text text-anchor="start" x="598" y="-13.75" font-family="Courier New" font-size="10.00" fill="blue">PLAYWAVE(SOUND_BTNDRAG);</text>
<polygon fill="none" stroke="black" points="592,-4.5 592,-75.5 748,-75.5 748,-4.5 592,-4.5"/>
</g>
<!-- status -->
<g id="node3" class="node">
<title>status</title>
<polygon fill="none" stroke="black" points="802,-0.5 802,-79.5 1358,-79.5 1358,-0.5 802,-0.5"/>
<polygon fill="none" stroke="black" points="813,-53.75 813,-72.5 1347,-72.5 1347,-53.75 813,-53.75"/>
<text text-anchor="start" x="1026" y="-61" font-family="Courier New" font-weight="bold" font-size="10.00">BTN_CFGPLAYER_NEXT</text>
<polygon fill="none" stroke="black" points="813,-7.5 813,-51.75 1347,-51.75 1347,-7.5 813,-7.5"/>
<text text-anchor="start" x="816" y="-39.25" font-family="Courier New" font-size="10.00" fill="green">VIEW::IDV_CFGPLAYER @pos(x:536, y:247, h:64, w:53)</text>
<text text-anchor="start" x="816" y="-26.5" font-family="Courier New" font-size="10.00" fill="green">BTN_CFGPLAYER_NEXT::M_BTN_2phase(&#39;IDV_CFGCULTURE&#39;,&#39;IDS_BTN_OK_HI&#39;,&#39;IDS_BTN_OK&#39;,&#39;&#39;,&#39;&#39;,&#39;&#39;)</text>
<text text-anchor="start" x="816" y="-13.75" font-family="Courier New" font-size="10.00" fill="green">{state:&#39;0&#39;: wSprite:IDS_BTN_OK_HI Top:247 Left:536 Z:0</text>
<polygon fill="none" stroke="black" points="810,-4.5 810,-75.5 1350,-75.5 1350,-4.5 810,-4.5"/>
</g>
</g>
</svg>
