<?xml version="1.0" encoding="UTF-8" standalone="no"?>
<!DOCTYPE svg PUBLIC "-//W3C//DTD SVG 1.1//EN"
 "http://www.w3.org/Graphics/SVG/1.1/DTD/svg11.dtd">
<!-- Generated by graphviz version 10.0.1 (20240210.2158)
 -->
<!-- Title: Automaton Pages: 1 -->
<svg width="490pt" height="88pt"
 viewBox="0.00 0.00 490.00 88.00" xmlns="http://www.w3.org/2000/svg" xmlns:xlink="http://www.w3.org/1999/xlink">
<g id="graph0" class="graph" transform="scale(1 1) rotate(0) translate(4 84)">
<title>Automaton</title>
<polygon fill="white" stroke="none" points="-4,4 -4,-84 486,-84 486,4 -4,4"/>
<!-- filename -->
<g id="node1" class="node">
<title>filename</title>
<polygon fill="none" stroke="black" points="0,-13.25 0,-66.75 130,-66.75 130,-13.25 0,-13.25"/>
<polygon fill="none" stroke="black" points="11,-41 11,-59.75 119,-59.75 119,-41 11,-41"/>
<text text-anchor="start" x="14" y="-48.25" font-family="Courier New" font-weight="bold" font-size="10.00">S00_CHESTWAITER::</text>
<polygon fill="none" stroke="black" points="11,-20.25 11,-39 119,-39 119,-20.25 11,-20.25"/>
<text text-anchor="start" x="20" y="-26.5" font-family="Courier New" font-size="10.00" fill="brown">start state = 0</text>
<polygon fill="none" stroke="black" points="8,-17.25 8,-62.75 122,-62.75 122,-17.25 8,-17.25"/>
</g>
<!-- status -->
<g id="node2" class="node">
<title>status</title>
<polygon fill="none" stroke="black" points="148,-0.5 148,-79.5 482,-79.5 482,-0.5 148,-0.5"/>
<polygon fill="none" stroke="black" points="159,-53.75 159,-72.5 471,-72.5 471,-53.75 159,-53.75"/>
<text text-anchor="start" x="270" y="-61" font-family="Courier New" font-weight="bold" font-size="10.00">S00_CHESTWAITER</text>
<polygon fill="none" stroke="black" points="159,-7.5 159,-51.75 471,-51.75 471,-7.5 159,-7.5"/>
<text text-anchor="start" x="162" y="-39.25" font-family="Courier New" font-size="10.00" fill="green">VIEW::IDV_CHESTVIEW @pos(x:134, y:60, h:160, w:102)</text>
<text text-anchor="start" x="162" y="-26.5" font-family="Courier New" font-size="10.00" fill="green">S00_CHESTWAITER::M_CHESTWAITER(&#39;&#39;,&#39;&#39;,&#39;&#39;,&#39;&#39;,&#39;&#39;,&#39;&#39;)</text>
<text text-anchor="start" x="162" y="-13.75" font-family="Courier New" font-size="10.00" fill="green">{state:&#39;0&#39;: Top:60 Left:134 Z:0</text>
<polygon fill="none" stroke="black" points="156,-4.5 156,-75.5 474,-75.5 474,-4.5 156,-4.5"/>
</g>
</g>
</svg>
