<?xml version="1.0" encoding="UTF-8" standalone="no"?>
<!DOCTYPE svg PUBLIC "-//W3C//DTD SVG 1.1//EN"
 "http://www.w3.org/Graphics/SVG/1.1/DTD/svg11.dtd">
<!-- Generated by graphviz version 10.0.1 (20240210.2158)
 -->
<!-- Title: Automaton Pages: 1 -->
<svg width="772pt" height="392pt"
 viewBox="0.00 0.00 772.00 392.00" xmlns="http://www.w3.org/2000/svg" xmlns:xlink="http://www.w3.org/1999/xlink">
<g id="graph0" class="graph" transform="scale(1 1) rotate(0) translate(4 388)">
<title>Automaton</title>
<polygon fill="white" stroke="none" points="-4,4 -4,-388 768,-388 768,4 -4,4"/>
<!-- filename -->
<g id="node1" class="node">
<title>filename</title>
<polygon fill="none" stroke="black" points="0,-317.25 0,-370.75 214,-370.75 214,-317.25 0,-317.25"/>
<polygon fill="none" stroke="black" points="11,-345 11,-363.75 203,-363.75 203,-345 11,-345"/>
<text text-anchor="start" x="14" y="-352.25" font-family="Courier New" font-weight="bold" font-size="10.00">S0_NW_INDC_GAME::M_NW_INDC_NAME</text>
<polygon fill="none" stroke="black" points="11,-324.25 11,-343 203,-343 203,-324.25 11,-324.25"/>
<text text-anchor="start" x="62" y="-330.5" font-family="Courier New" font-size="10.00" fill="brown">start state = 0</text>
<polygon fill="none" stroke="black" points="8,-321.25 8,-366.75 206,-366.75 206,-321.25 8,-321.25"/>
</g>
<!-- 0 -->
<g id="node2" class="node">
<title>0</title>
<polyline fill="none" stroke="darkred" points="251.88,-332.75 266.12,-332.75"/>
<text text-anchor="start" x="254.88" y="-339.95" font-family="Courier New" font-weight="bold" font-size="14.00">0</text>
<path fill="none" stroke="darkred" d="M255.62,-329.75C255.62,-329.75 262.38,-329.75 262.38,-329.75 265.75,-329.75 269.12,-333.12 269.12,-336.5 269.12,-336.5 269.12,-351.5 269.12,-351.5 269.12,-354.88 265.75,-358.25 262.38,-358.25 262.38,-358.25 255.62,-358.25 255.62,-358.25 252.25,-358.25 248.88,-354.88 248.88,-351.5 248.88,-351.5 248.88,-336.5 248.88,-336.5 248.88,-333.12 252.25,-329.75 255.62,-329.75"/>
</g>
<!-- 1 -->
<g id="node3" class="node">
<title>1</title>
<polyline fill="none" stroke="darkred" points="251.88,-217.75 266.12,-217.75"/>
<text text-anchor="start" x="254.88" y="-224.95" font-family="Courier New" font-weight="bold" font-size="14.00">1</text>
<path fill="none" stroke="darkred" d="M255.62,-214.75C255.62,-214.75 262.38,-214.75 262.38,-214.75 265.75,-214.75 269.12,-218.12 269.12,-221.5 269.12,-221.5 269.12,-236.5 269.12,-236.5 269.12,-239.88 265.75,-243.25 262.38,-243.25 262.38,-243.25 255.62,-243.25 255.62,-243.25 252.25,-243.25 248.88,-239.88 248.88,-236.5 248.88,-236.5 248.88,-221.5 248.88,-221.5 248.88,-218.12 252.25,-214.75 255.62,-214.75"/>
</g>
<!-- 0&#45;&gt;1 -->
<g id="edge1" class="edge">
<title>0&#45;&gt;1</title>
<path fill="none" stroke="black" d="M259,-325.84C259,-307.9 259,-279.45 259,-258.2"/>
<polygon fill="black" stroke="black" points="262.5,-258.47 259,-248.47 255.5,-258.47 262.5,-258.47"/>
<text text-anchor="start" x="263" y="-273.5" font-family="Courier New" font-weight="bold" font-size="10.00" fill="blue">MOV(BFRAME,0)</text>
</g>
<!-- 2 -->
<g id="node4" class="node">
<title>2</title>
<polyline fill="none" stroke="darkred" points="251.88,-124.5 266.12,-124.5"/>
<text text-anchor="start" x="254.88" y="-131.7" font-family="Courier New" font-weight="bold" font-size="14.00">2</text>
<path fill="none" stroke="darkred" d="M255.62,-121.5C255.62,-121.5 262.38,-121.5 262.38,-121.5 265.75,-121.5 269.12,-124.88 269.12,-128.25 269.12,-128.25 269.12,-143.25 269.12,-143.25 269.12,-146.62 265.75,-150 262.38,-150 262.38,-150 255.62,-150 255.62,-150 252.25,-150 248.88,-146.62 248.88,-143.25 248.88,-143.25 248.88,-128.25 248.88,-128.25 248.88,-124.88 252.25,-121.5 255.62,-121.5"/>
</g>
<!-- 1&#45;&gt;2 -->
<g id="edge2" class="edge">
<title>1&#45;&gt;2</title>
<path fill="none" stroke="black" d="M259,-210.84C259,-197.96 259,-180.06 259,-165.07"/>
<polygon fill="black" stroke="black" points="262.5,-165.35 259,-155.35 255.5,-165.35 262.5,-165.35"/>
<text text-anchor="start" x="263" y="-180.25" font-family="Courier New" font-weight="bold" font-size="10.00" fill="blue">SHOW(WIP1,)</text>
</g>
<!-- launch -->
<g id="node5" class="node">
<title>launch</title>
<ellipse fill="none" stroke="black" cx="259" cy="-18" rx="44.7" ry="18"/>
<text text-anchor="middle" x="259" y="-12.95" font-family="Courier New" font-size="14.00">launch</text>
</g>
<!-- 2&#45;&gt;launch -->
<g id="edge3" class="edge">
<title>2&#45;&gt;launch</title>
<path fill="none" stroke="black" d="M259,-117.67C259,-99.21 259,-69.47 259,-47.46"/>
<polygon fill="black" stroke="black" points="262.5,-47.66 259,-37.66 255.5,-47.66 262.5,-47.66"/>
<polygon fill="none" stroke="black" points="262,-77.75 262,-96.5 394,-96.5 394,-77.75 262,-77.75"/>
<text text-anchor="start" x="304" y="-85" font-family="Courier New" font-weight="bold" font-size="10.00" fill="orange">CLICK(,)</text>
<polygon fill="none" stroke="black" points="262,-57 262,-75.75 394,-75.75 394,-57 262,-57"/>
<text text-anchor="start" x="265" y="-63.25" font-family="Courier New" font-size="10.00" fill="blue">LOADVIEW(IDV_CFGNW1);</text>
<polygon fill="none" stroke="black" points="259,-54 259,-99.5 397,-99.5 397,-54 259,-54"/>
</g>
<!-- status -->
<g id="node6" class="node">
<title>status</title>
<polygon fill="none" stroke="black" points="304,-304.5 304,-383.5 764,-383.5 764,-304.5 304,-304.5"/>
<polygon fill="none" stroke="black" points="315,-357.75 315,-376.5 753,-376.5 753,-357.75 315,-357.75"/>
<text text-anchor="start" x="489" y="-365" font-family="Courier New" font-weight="bold" font-size="10.00">S0_NW_INDC_GAME</text>
<polygon fill="none" stroke="black" points="315,-311.5 315,-355.75 753,-355.75 753,-311.5 315,-311.5"/>
<text text-anchor="start" x="318" y="-343.25" font-family="Courier New" font-size="10.00" fill="green">VIEW::IDV_MAIN_PANEL @pos(x:890, y:215, h:115, w:44)</text>
<text text-anchor="start" x="318" y="-330.5" font-family="Courier New" font-size="10.00" fill="green">S0_NW_INDC_GAME::M_NW_INDC_NAME(&#39;IDS_INDC_NW_BLANK&#39;,&#39;&#39;,&#39;&#39;,&#39;&#39;,&#39;&#39;,&#39;&#39;)</text>
<text text-anchor="start" x="318" y="-317.75" font-family="Courier New" font-size="10.00" fill="green">{state:&#39;launch&#39;: wSprite:IDS_INDC_NW_BLANK bFrame:0 Top:215 Left:890 Z:0</text>
<polygon fill="none" stroke="black" points="312,-308.5 312,-379.5 756,-379.5 756,-308.5 312,-308.5"/>
</g>
</g>
</svg>
