<?xml version="1.0" encoding="UTF-8" standalone="no"?>
<!DOCTYPE svg PUBLIC "-//W3C//DTD SVG 1.1//EN"
 "http://www.w3.org/Graphics/SVG/1.1/DTD/svg11.dtd">
<!-- Generated by graphviz version 10.0.1 (20240210.2158)
 -->
<!-- Title: Automaton Pages: 1 -->
<svg width="910pt" height="1646pt"
 viewBox="0.00 0.00 910.38 1645.50" xmlns="http://www.w3.org/2000/svg" xmlns:xlink="http://www.w3.org/1999/xlink">
<g id="graph0" class="graph" transform="scale(1 1) rotate(0) translate(4 1641.5)">
<title>Automaton</title>
<polygon fill="white" stroke="none" points="-4,4 -4,-1641.5 906.38,-1641.5 906.38,4 -4,4"/>
<!-- filename -->
<g id="node1" class="node">
<title>filename</title>
<polygon fill="none" stroke="black" points="24.38,-1570.75 24.38,-1624.25 208.38,-1624.25 208.38,-1570.75 24.38,-1570.75"/>
<polygon fill="none" stroke="black" points="35.38,-1598.5 35.38,-1617.25 197.38,-1617.25 197.38,-1598.5 35.38,-1598.5"/>
<text text-anchor="start" x="38.38" y="-1605.75" font-family="Courier New" font-weight="bold" font-size="10.00">S21_HIDDEN_01::M_DIGDIRECT</text>
<polygon fill="none" stroke="black" points="35.38,-1577.75 35.38,-1596.5 197.38,-1596.5 197.38,-1577.75 35.38,-1577.75"/>
<text text-anchor="start" x="71.38" y="-1584" font-family="Courier New" font-size="10.00" fill="brown">start state = 0</text>
<polygon fill="none" stroke="black" points="32.38,-1574.75 32.38,-1620.25 200.38,-1620.25 200.38,-1574.75 32.38,-1574.75"/>
</g>
<!-- 0 -->
<g id="node2" class="node">
<title>0</title>
<polyline fill="none" stroke="darkred" points="246.25,-1586.25 260.5,-1586.25"/>
<text text-anchor="start" x="249.25" y="-1593.45" font-family="Courier New" font-weight="bold" font-size="14.00">0</text>
<path fill="none" stroke="darkred" d="M250,-1583.25C250,-1583.25 256.75,-1583.25 256.75,-1583.25 260.12,-1583.25 263.5,-1586.62 263.5,-1590 263.5,-1590 263.5,-1605 263.5,-1605 263.5,-1608.38 260.12,-1611.75 256.75,-1611.75 256.75,-1611.75 250,-1611.75 250,-1611.75 246.62,-1611.75 243.25,-1608.38 243.25,-1605 243.25,-1605 243.25,-1590 243.25,-1590 243.25,-1586.62 246.62,-1583.25 250,-1583.25"/>
</g>
<!-- determinedItem -->
<g id="node3" class="node">
<title>determinedItem</title>
<polyline fill="none" stroke="darkred" points="109.62,-1471.25 231.12,-1471.25"/>
<text text-anchor="start" x="112.62" y="-1478.45" font-family="Courier New" font-weight="bold" font-size="14.00">determinedItem</text>
<path fill="none" stroke="darkred" d="M116.12,-1468.25C116.12,-1468.25 224.62,-1468.25 224.62,-1468.25 229.38,-1468.25 234.12,-1473 234.12,-1477.75 234.12,-1477.75 234.12,-1487.25 234.12,-1487.25 234.12,-1492 229.38,-1496.75 224.62,-1496.75 224.62,-1496.75 116.12,-1496.75 116.12,-1496.75 111.38,-1496.75 106.62,-1492 106.62,-1487.25 106.62,-1487.25 106.62,-1477.75 106.62,-1477.75 106.62,-1473 111.38,-1468.25 116.12,-1468.25"/>
</g>
<!-- 0&#45;&gt;determinedItem -->
<g id="edge1" class="edge">
<title>0&#45;&gt;determinedItem</title>
<path fill="none" stroke="black" d="M238.37,-1579.39C232.07,-1572.43 224.54,-1564.41 217.38,-1557.5 208.52,-1548.97 203.8,-1549.3 196.38,-1539.5 189.95,-1531.03 184.61,-1520.71 180.46,-1511.26"/>
<polygon fill="black" stroke="black" points="183.75,-1510.05 176.73,-1502.11 177.27,-1512.69 183.75,-1510.05"/>
<text text-anchor="start" x="200.38" y="-1527" font-family="Courier New" font-weight="bold" font-size="10.00" fill="blue">MOV(WOBJECT,WIP1)</text>
</g>
<!-- coverActive -->
<g id="node4" class="node">
<title>coverActive</title>
<polyline fill="none" stroke="darkred" points="95,-1353.25 191.75,-1353.25"/>
<text text-anchor="start" x="98" y="-1360.45" font-family="Courier New" font-weight="bold" font-size="14.00">coverActive</text>
<path fill="none" stroke="darkred" d="M101.5,-1350.25C101.5,-1350.25 185.25,-1350.25 185.25,-1350.25 190,-1350.25 194.75,-1355 194.75,-1359.75 194.75,-1359.75 194.75,-1369.25 194.75,-1369.25 194.75,-1374 190,-1378.75 185.25,-1378.75 185.25,-1378.75 101.5,-1378.75 101.5,-1378.75 96.75,-1378.75 92,-1374 92,-1369.25 92,-1369.25 92,-1359.75 92,-1359.75 92,-1355 96.75,-1350.25 101.5,-1350.25"/>
</g>
<!-- determinedItem&#45;&gt;coverActive -->
<g id="edge3" class="edge">
<title>determinedItem&#45;&gt;coverActive</title>
<path fill="none" stroke="black" d="M166.39,-1464.38C162.06,-1445.79 155.08,-1415.8 149.94,-1393.72"/>
<polygon fill="black" stroke="black" points="153.39,-1393.11 147.72,-1384.16 146.58,-1394.69 153.39,-1393.11"/>
<polygon fill="none" stroke="black" points="165.38,-1424.5 165.38,-1443.25 303.38,-1443.25 303.38,-1424.5 165.38,-1424.5"/>
<text text-anchor="start" x="183.38" y="-1431.75" font-family="Courier New" font-weight="bold" font-size="10.00" fill="blue">MOV(WSPRITE,WIP2)</text>
<polygon fill="none" stroke="black" points="165.38,-1403.75 165.38,-1422.5 303.38,-1422.5 303.38,-1403.75 165.38,-1403.75"/>
<text text-anchor="start" x="168.38" y="-1410" font-family="Courier New" font-size="10.00" fill="blue"> &#160;&#160;&#160;&#160;&#160;&#160;&#160;SHOW(WSPRITE);</text>
<polygon fill="none" stroke="black" points="162.38,-1400.75 162.38,-1446.25 306.38,-1446.25 306.38,-1400.75 162.38,-1400.75"/>
</g>
<!-- firstWhack -->
<g id="node5" class="node">
<title>firstWhack</title>
<polyline fill="none" stroke="darkred" stroke-width="3" points="26.62,-1255.5 116.12,-1255.5"/>
<text text-anchor="start" x="30.12" y="-1263.2" font-family="Courier New" font-weight="bold" font-size="14.00">firstWhack</text>
<path fill="none" stroke="darkred" stroke-width="3" d="M32.79,-1250.5C32.79,-1250.5 109.96,-1250.5 109.96,-1250.5 115.54,-1250.5 121.12,-1256.08 121.12,-1261.67 121.12,-1261.67 121.12,-1272.83 121.12,-1272.83 121.12,-1278.42 115.54,-1284 109.96,-1284 109.96,-1284 32.79,-1284 32.79,-1284 27.21,-1284 21.62,-1278.42 21.62,-1272.83 21.62,-1272.83 21.62,-1261.67 21.62,-1261.67 21.62,-1256.08 27.21,-1250.5 32.79,-1250.5"/>
</g>
<!-- coverActive&#45;&gt;firstWhack -->
<g id="edge2" class="edge">
<title>coverActive&#45;&gt;firstWhack</title>
<path fill="none" stroke="black" d="M130.5,-1346.47C120.43,-1333.14 106.16,-1314.27 94.16,-1298.4"/>
<polygon fill="black" stroke="black" points="97.15,-1296.54 88.32,-1290.67 91.56,-1300.76 97.15,-1296.54"/>
<text text-anchor="start" x="120.38" y="-1315.75" font-family="Courier New" font-weight="bold" font-size="10.00" fill="blue">Z_EPSILON(,)</text>
</g>
<!-- secondWhack -->
<g id="node8" class="node">
<title>secondWhack</title>
<polyline fill="none" stroke="darkred" points="11,-955.5 107.75,-955.5"/>
<text text-anchor="start" x="14" y="-962.7" font-family="Courier New" font-weight="bold" font-size="14.00">secondWhack</text>
<path fill="none" stroke="darkred" d="M17.5,-952.5C17.5,-952.5 101.25,-952.5 101.25,-952.5 106,-952.5 110.75,-957.25 110.75,-962 110.75,-962 110.75,-971.5 110.75,-971.5 110.75,-976.25 106,-981 101.25,-981 101.25,-981 17.5,-981 17.5,-981 12.75,-981 8,-976.25 8,-971.5 8,-971.5 8,-962 8,-962 8,-957.25 12.75,-952.5 17.5,-952.5"/>
</g>
<!-- firstWhack&#45;&gt;secondWhack -->
<g id="edge5" class="edge">
<title>firstWhack&#45;&gt;secondWhack</title>
<path fill="none" stroke="black" d="M68.29,-1245.1C67.54,-1239.25 66.83,-1232.89 66.38,-1227 59.92,-1143.17 59.16,-1043.69 59.22,-996"/>
<polygon fill="black" stroke="black" points="62.72,-996.29 59.24,-986.28 55.72,-996.27 62.72,-996.29"/>
<polygon fill="none" stroke="black" points="69.38,-1205.25 69.38,-1224 303.38,-1224 303.38,-1205.25 69.38,-1205.25"/>
<text text-anchor="start" x="153.38" y="-1212.5" font-family="Courier New" font-weight="bold" font-size="10.00" fill="orange">DRAG(WIP3,)</text>
<polygon fill="none" stroke="black" points="69.38,-1006 69.38,-1203.25 303.38,-1203.25 303.38,-1006 69.38,-1006"/>
<text text-anchor="start" x="72.38" y="-1190.75" font-family="Courier New" font-size="10.00" fill="blue"> &#160;&#160;&#160;&#160;&#160;&#160;&#160;if(WIP3 == ISA_TOOL_DIGGER){</text>
<text text-anchor="start" x="72.38" y="-1178" font-family="Courier New" font-size="10.00" fill="blue"> &#160;&#160;&#160;&#160;&#160;&#160;&#160;&#160;&#160;&#160;&#160;SHOW(0,IDS_SANDPILE1);</text>
<text text-anchor="start" x="72.38" y="-1165.25" font-family="Courier New" font-size="10.00" fill="blue"> &#160;&#160;&#160;&#160;&#160;&#160;&#160;&#160;&#160;&#160;&#160;ANIMATE();</text>
<text text-anchor="start" x="72.38" y="-1152.5" font-family="Courier New" font-size="10.00" fill="blue"> &#160;&#160;&#160;&#160;&#160;&#160;&#160;&#160;&#160;&#160;&#160;PLAYWAVE(SOUND_DIG);</text>
<text text-anchor="start" x="72.38" y="-1139.75" font-family="Courier New" font-size="10.00" fill="blue"> &#160;&#160;&#160;&#160;&#160;&#160;&#160;&#160;} &#160;&#160;</text>
<text text-anchor="start" x="72.38" y="-1127" font-family="Courier New" font-size="10.00" fill="blue"> &#160;&#160;&#160;&#160;&#160;&#160;&#160;&#160;if(WIP3 == ISA_TOOL_STRIKER){</text>
<text text-anchor="start" x="72.38" y="-1114.25" font-family="Courier New" font-size="10.00" fill="blue"> &#160;&#160;&#160;&#160;&#160;&#160;&#160;&#160;&#160;&#160;&#160;SHOW(0,IDS_SANDSTRIKE);</text>
<text text-anchor="start" x="72.38" y="-1101.5" font-family="Courier New" font-size="10.00" fill="blue"> &#160;&#160;&#160;&#160;&#160;&#160;&#160;&#160;&#160;&#160;&#160;ANIMATE();</text>
<text text-anchor="start" x="72.38" y="-1088.75" font-family="Courier New" font-size="10.00" fill="blue"> &#160;&#160;&#160;&#160;&#160;&#160;&#160;&#160;&#160;&#160;&#160;PLAYWAVE(SOUND_DIG);</text>
<text text-anchor="start" x="72.38" y="-1076" font-family="Courier New" font-size="10.00" fill="blue"> &#160;&#160;&#160;&#160;&#160;&#160;&#160;&#160;} &#160;&#160;</text>
<text text-anchor="start" x="72.38" y="-1063.25" font-family="Courier New" font-size="10.00" fill="blue"> &#160;&#160;&#160;&#160;&#160;&#160;&#160;&#160;&#160;if(WIP3 == ISA_TOOL_PRYER){</text>
<text text-anchor="start" x="72.38" y="-1050.5" font-family="Courier New" font-size="10.00" fill="blue"> &#160;&#160;&#160;&#160;&#160;&#160;&#160;&#160;&#160;&#160;&#160;SHOW(0,IDS_SANDWOBBLE);</text>
<text text-anchor="start" x="72.38" y="-1037.75" font-family="Courier New" font-size="10.00" fill="blue"> &#160;&#160;&#160;&#160;&#160;&#160;&#160;&#160;&#160;&#160;&#160;ANIMATE();</text>
<text text-anchor="start" x="72.38" y="-1025" font-family="Courier New" font-size="10.00" fill="blue"> &#160;&#160;&#160;&#160;&#160;&#160;&#160;&#160;&#160;&#160;&#160;PLAYWAVE(SOUND_THUMP);</text>
<text text-anchor="start" x="72.38" y="-1012.25" font-family="Courier New" font-size="10.00" fill="blue"> &#160;&#160;&#160;&#160;&#160;&#160;&#160;&#160;} &#160;&#160;</text>
<polygon fill="none" stroke="black" points="66.38,-1003 66.38,-1227 306.38,-1227 306.38,-1003 66.38,-1003"/>
</g>
<!-- displayItem -->
<g id="node6" class="node">
<title>displayItem</title>
<polyline fill="none" stroke="darkred" points="120,-100.25 216.75,-100.25"/>
<text text-anchor="start" x="123" y="-107.45" font-family="Courier New" font-weight="bold" font-size="14.00">displayItem</text>
<path fill="none" stroke="darkred" d="M126.5,-97.25C126.5,-97.25 210.25,-97.25 210.25,-97.25 215,-97.25 219.75,-102 219.75,-106.75 219.75,-106.75 219.75,-116.25 219.75,-116.25 219.75,-121 215,-125.75 210.25,-125.75 210.25,-125.75 126.5,-125.75 126.5,-125.75 121.75,-125.75 117,-121 117,-116.25 117,-116.25 117,-106.75 117,-106.75 117,-102 121.75,-97.25 126.5,-97.25"/>
</g>
<!-- itemGrabbed -->
<g id="node7" class="node">
<title>itemGrabbed</title>
<polyline fill="none" stroke="darkred" points="196,-7 292.75,-7"/>
<text text-anchor="start" x="199" y="-14.2" font-family="Courier New" font-weight="bold" font-size="14.00">itemGrabbed</text>
<path fill="none" stroke="darkred" d="M202.5,-4C202.5,-4 286.25,-4 286.25,-4 291,-4 295.75,-8.75 295.75,-13.5 295.75,-13.5 295.75,-23 295.75,-23 295.75,-27.75 291,-32.5 286.25,-32.5 286.25,-32.5 202.5,-32.5 202.5,-32.5 197.75,-32.5 193,-27.75 193,-23 193,-23 193,-13.5 193,-13.5 193,-8.75 197.75,-4 202.5,-4"/>
</g>
<!-- displayItem&#45;&gt;itemGrabbed -->
<g id="edge4" class="edge">
<title>displayItem&#45;&gt;itemGrabbed</title>
<path fill="none" stroke="black" d="M182.67,-93.34C194.03,-79.7 210.09,-60.41 222.98,-44.94"/>
<polygon fill="black" stroke="black" points="225.47,-47.42 229.18,-37.5 220.09,-42.94 225.47,-47.42"/>
<text text-anchor="start" x="217.38" y="-62.75" font-family="Courier New" font-weight="bold" font-size="10.00" fill="orange">GRAB(,)</text>
</g>
<!-- itemGrabbed&#45;&gt;0 -->
<g id="edge7" class="edge">
<title>itemGrabbed&#45;&gt;0</title>
<path fill="none" stroke="black" d="M271.38,-36.36C293.23,-52.52 320.38,-78.96 320.38,-110.5 320.38,-1483.5 320.38,-1483.5 320.38,-1483.5 320.38,-1509.15 318.7,-1517 306.38,-1539.5 301.09,-1549.15 296.88,-1549.46 289.38,-1557.5 285.31,-1561.85 281.01,-1566.49 276.84,-1570.99"/>
<polygon fill="black" stroke="black" points="274.34,-1568.54 270.13,-1578.26 279.49,-1573.29 274.34,-1568.54"/>
<polygon fill="none" stroke="black" points="323.38,-819.5 323.38,-838.25 401.38,-838.25 401.38,-819.5 323.38,-819.5"/>
<text text-anchor="start" x="326.38" y="-826.75" font-family="Courier New" font-weight="bold" font-size="10.00" fill="blue">Z_EPSILON(,)</text>
<polygon fill="none" stroke="black" points="323.38,-798.75 323.38,-817.5 401.38,-817.5 401.38,-798.75 323.38,-798.75"/>
<text text-anchor="start" x="341.38" y="-805" font-family="Courier New" font-size="10.00" fill="blue">SHOW();</text>
<polygon fill="none" stroke="black" points="320.38,-795.75 320.38,-841.25 404.38,-841.25 404.38,-795.75 320.38,-795.75"/>
</g>
<!-- thirdWhack -->
<g id="node11" class="node">
<title>thirdWhack</title>
<polyline fill="none" stroke="darkred" points="17.12,-659 105.62,-659"/>
<text text-anchor="start" x="20.12" y="-666.2" font-family="Courier New" font-weight="bold" font-size="14.00">thirdWhack</text>
<path fill="none" stroke="darkred" d="M23.62,-656C23.62,-656 99.12,-656 99.12,-656 103.88,-656 108.62,-660.75 108.62,-665.5 108.62,-665.5 108.62,-675 108.62,-675 108.62,-679.75 103.88,-684.5 99.12,-684.5 99.12,-684.5 23.62,-684.5 23.62,-684.5 18.88,-684.5 14.12,-679.75 14.12,-675 14.12,-675 14.12,-665.5 14.12,-665.5 14.12,-660.75 18.88,-656 23.62,-656"/>
</g>
<!-- secondWhack&#45;&gt;thirdWhack -->
<g id="edge9" class="edge">
<title>secondWhack&#45;&gt;thirdWhack</title>
<path fill="none" stroke="black" d="M58.77,-948.75C57.4,-907.31 54.5,-797.79 58.38,-706.5 58.47,-704.29 58.6,-702.01 58.74,-699.71"/>
<polygon fill="black" stroke="black" points="62.22,-700.19 59.5,-689.95 55.24,-699.65 62.22,-700.19"/>
<polygon fill="none" stroke="black" points="61.38,-908.75 61.38,-927.5 295.38,-927.5 295.38,-908.75 61.38,-908.75"/>
<text text-anchor="start" x="157.38" y="-916" font-family="Courier New" font-weight="bold" font-size="10.00" fill="orange">DRAG(,)</text>
<polygon fill="none" stroke="black" points="61.38,-709.5 61.38,-906.75 295.38,-906.75 295.38,-709.5 61.38,-709.5"/>
<text text-anchor="start" x="64.38" y="-894.25" font-family="Courier New" font-size="10.00" fill="blue"> &#160;&#160;&#160;&#160;&#160;&#160;&#160;if(WIP3 == ISA_TOOL_DIGGER){</text>
<text text-anchor="start" x="64.38" y="-881.5" font-family="Courier New" font-size="10.00" fill="blue"> &#160;&#160;&#160;&#160;&#160;&#160;&#160;&#160;&#160;&#160;&#160;SHOW(0,IDS_SANDPILE2);</text>
<text text-anchor="start" x="64.38" y="-868.75" font-family="Courier New" font-size="10.00" fill="blue"> &#160;&#160;&#160;&#160;&#160;&#160;&#160;&#160;&#160;&#160;&#160;ANIMATE();</text>
<text text-anchor="start" x="64.38" y="-856" font-family="Courier New" font-size="10.00" fill="blue"> &#160;&#160;&#160;&#160;&#160;&#160;&#160;&#160;&#160;&#160;&#160;PLAYWAVE(SOUND_DIG);</text>
<text text-anchor="start" x="64.38" y="-843.25" font-family="Courier New" font-size="10.00" fill="blue"> &#160;&#160;&#160;&#160;&#160;&#160;&#160;&#160;} &#160;&#160;</text>
<text text-anchor="start" x="64.38" y="-830.5" font-family="Courier New" font-size="10.00" fill="blue"> &#160;&#160;&#160;&#160;&#160;&#160;&#160;&#160;if(WIP3 == ISA_TOOL_STRIKER){</text>
<text text-anchor="start" x="64.38" y="-817.75" font-family="Courier New" font-size="10.00" fill="blue"> &#160;&#160;&#160;&#160;&#160;&#160;&#160;&#160;&#160;&#160;&#160;SHOW(0,IDS_SANDSTRIKE);</text>
<text text-anchor="start" x="64.38" y="-805" font-family="Courier New" font-size="10.00" fill="blue"> &#160;&#160;&#160;&#160;&#160;&#160;&#160;&#160;&#160;&#160;&#160;ANIMATE();</text>
<text text-anchor="start" x="64.38" y="-792.25" font-family="Courier New" font-size="10.00" fill="blue"> &#160;&#160;&#160;&#160;&#160;&#160;&#160;&#160;&#160;&#160;&#160;PLAYWAVE(SOUND_DIG);</text>
<text text-anchor="start" x="64.38" y="-779.5" font-family="Courier New" font-size="10.00" fill="blue"> &#160;&#160;&#160;&#160;&#160;&#160;&#160;&#160;} &#160;&#160;</text>
<text text-anchor="start" x="64.38" y="-766.75" font-family="Courier New" font-size="10.00" fill="blue"> &#160;&#160;&#160;&#160;&#160;&#160;&#160;&#160;&#160;&#160;if(WIP3 == ISA_TOOL_PRYER){</text>
<text text-anchor="start" x="64.38" y="-754" font-family="Courier New" font-size="10.00" fill="blue"> &#160;&#160;&#160;&#160;&#160;&#160;&#160;&#160;&#160;&#160;&#160;SHOW(0,IDS_SANDFLIP);</text>
<text text-anchor="start" x="64.38" y="-741.25" font-family="Courier New" font-size="10.00" fill="blue"> &#160;&#160;&#160;&#160;&#160;&#160;&#160;&#160;&#160;&#160;&#160;ANIMATE();</text>
<text text-anchor="start" x="64.38" y="-728.5" font-family="Courier New" font-size="10.00" fill="blue"> &#160;&#160;&#160;&#160;&#160;&#160;&#160;&#160;&#160;&#160;&#160;PLAYWAVE(SOUND_THUMP);</text>
<text text-anchor="start" x="64.38" y="-715.75" font-family="Courier New" font-size="10.00" fill="blue"> &#160;&#160;&#160;&#160;&#160;&#160;&#160;&#160;} &#160;&#160;</text>
<polygon fill="none" stroke="black" points="58.38,-706.5 58.38,-930.5 298.38,-930.5 298.38,-706.5 58.38,-706.5"/>
</g>
<!-- fourthWhack -->
<g id="node9" class="node">
<title>fourthWhack</title>
<polyline fill="none" stroke="darkred" points="20,-362.5 116.75,-362.5"/>
<text text-anchor="start" x="23" y="-369.7" font-family="Courier New" font-weight="bold" font-size="14.00">fourthWhack</text>
<path fill="none" stroke="darkred" d="M26.5,-359.5C26.5,-359.5 110.25,-359.5 110.25,-359.5 115,-359.5 119.75,-364.25 119.75,-369 119.75,-369 119.75,-378.5 119.75,-378.5 119.75,-383.25 115,-388 110.25,-388 110.25,-388 26.5,-388 26.5,-388 21.75,-388 17,-383.25 17,-378.5 17,-378.5 17,-369 17,-369 17,-364.25 21.75,-359.5 26.5,-359.5"/>
</g>
<!-- moveMe -->
<g id="node10" class="node">
<title>moveMe</title>
<polyline fill="none" stroke="darkred" points="71.62,-269.25 127.12,-269.25"/>
<text text-anchor="start" x="74.62" y="-276.45" font-family="Courier New" font-weight="bold" font-size="14.00">moveMe</text>
<path fill="none" stroke="darkred" d="M78.12,-266.25C78.12,-266.25 120.62,-266.25 120.62,-266.25 125.38,-266.25 130.12,-271 130.12,-275.75 130.12,-275.75 130.12,-285.25 130.12,-285.25 130.12,-290 125.38,-294.75 120.62,-294.75 120.62,-294.75 78.12,-294.75 78.12,-294.75 73.38,-294.75 68.62,-290 68.62,-285.25 68.62,-285.25 68.62,-275.75 68.62,-275.75 68.62,-271 73.38,-266.25 78.12,-266.25"/>
</g>
<!-- fourthWhack&#45;&gt;moveMe -->
<g id="edge6" class="edge">
<title>fourthWhack&#45;&gt;moveMe</title>
<path fill="none" stroke="black" d="M74.21,-355.59C78.62,-342.59 84.78,-324.45 89.9,-309.38"/>
<polygon fill="black" stroke="black" points="93.18,-310.61 93.08,-300.02 86.55,-308.36 93.18,-310.61"/>
<text text-anchor="start" x="91.38" y="-325" font-family="Courier New" font-weight="bold" font-size="10.00" fill="orange">DRAG(,)</text>
</g>
<!-- moveMe&#45;&gt;displayItem -->
<g id="edge8" class="edge">
<title>moveMe&#45;&gt;displayItem</title>
<path fill="none" stroke="black" d="M95.84,-262.61C91.24,-235.99 86.18,-183.63 108.38,-147.75 110.91,-143.65 114.12,-139.97 117.72,-136.67"/>
<polygon fill="black" stroke="black" points="119.78,-139.51 125.53,-130.62 115.49,-133.98 119.78,-139.51"/>
<polygon fill="none" stroke="black" points="111.38,-222.5 111.38,-241.25 303.38,-241.25 303.38,-222.5 111.38,-222.5"/>
<text text-anchor="start" x="150.38" y="-229.75" font-family="Courier New" font-weight="bold" font-size="10.00" fill="blue">SET_YOFFSET(ADD,50)</text>
<polygon fill="none" stroke="black" points="111.38,-150.75 111.38,-220.5 303.38,-220.5 303.38,-150.75 111.38,-150.75"/>
<text text-anchor="start" x="114.38" y="-208" font-family="Courier New" font-size="10.00" fill="blue"> &#160;&#160;&#160;&#160;&#160;&#160;&#160;PLAYWAVE(SOUND_CHIMES);</text>
<text text-anchor="start" x="114.38" y="-195.25" font-family="Courier New" font-size="10.00" fill="blue"> &#160;&#160;&#160;&#160;&#160;&#160;&#160;SHOW(0,IDS_CHESTBAK);</text>
<text text-anchor="start" x="114.38" y="-182.5" font-family="Courier New" font-size="10.00" fill="blue"> &#160;&#160;&#160;&#160;&#160;</text>
<text text-anchor="start" x="114.38" y="-169.75" font-family="Courier New" font-size="10.00" fill="blue"> &#160;&#160;&#160;&#160;&#160;&#160;&#160;ADDI(LWISDOM,1); </text>
<text text-anchor="start" x="114.38" y="-157" font-family="Courier New" font-size="10.00" fill="blue"> &#160;&#160;&#160;&#160;&#160;&#160;&#160;SIGNALi(0,SID_ID);</text>
<polygon fill="none" stroke="black" points="108.38,-147.75 108.38,-244.25 306.38,-244.25 306.38,-147.75 108.38,-147.75"/>
</g>
<!-- thirdWhack&#45;&gt;fourthWhack -->
<g id="edge10" class="edge">
<title>thirdWhack&#45;&gt;fourthWhack</title>
<path fill="none" stroke="black" d="M61.48,-652.26C61.79,-610.83 62.91,-501.32 66.38,-410 66.46,-407.79 66.56,-405.51 66.67,-403.22"/>
<polygon fill="black" stroke="black" points="70.15,-403.64 67.19,-393.47 63.16,-403.27 70.15,-403.64"/>
<polygon fill="none" stroke="black" points="69.38,-612.25 69.38,-631 303.38,-631 303.38,-612.25 69.38,-612.25"/>
<text text-anchor="start" x="165.38" y="-619.5" font-family="Courier New" font-weight="bold" font-size="10.00" fill="orange">DRAG(,)</text>
<polygon fill="none" stroke="black" points="69.38,-413 69.38,-610.25 303.38,-610.25 303.38,-413 69.38,-413"/>
<text text-anchor="start" x="72.38" y="-597.75" font-family="Courier New" font-size="10.00" fill="blue"> &#160;&#160;&#160;&#160;&#160;&#160;&#160;if(WIP3 == ISA_TOOL_DIGGER){</text>
<text text-anchor="start" x="72.38" y="-585" font-family="Courier New" font-size="10.00" fill="blue"> &#160;&#160;&#160;&#160;&#160;&#160;&#160;&#160;&#160;&#160;&#160;SHOW(0,IDS_SANDPILE3);</text>
<text text-anchor="start" x="72.38" y="-572.25" font-family="Courier New" font-size="10.00" fill="blue"> &#160;&#160;&#160;&#160;&#160;&#160;&#160;&#160;&#160;&#160;&#160;ANIMATE();</text>
<text text-anchor="start" x="72.38" y="-559.5" font-family="Courier New" font-size="10.00" fill="blue"> &#160;&#160;&#160;&#160;&#160;&#160;&#160;&#160;&#160;&#160;&#160;PLAYWAVE(SOUND_DIG);</text>
<text text-anchor="start" x="72.38" y="-546.75" font-family="Courier New" font-size="10.00" fill="blue"> &#160;&#160;&#160;&#160;&#160;&#160;&#160;&#160;} &#160;&#160;</text>
<text text-anchor="start" x="72.38" y="-534" font-family="Courier New" font-size="10.00" fill="blue"> &#160;&#160;&#160;&#160;&#160;&#160;&#160;&#160;if(WIP3 == ISA_TOOL_STRIKER){</text>
<text text-anchor="start" x="72.38" y="-521.25" font-family="Courier New" font-size="10.00" fill="blue"> &#160;&#160;&#160;&#160;&#160;&#160;&#160;&#160;&#160;&#160;&#160;SHOW(0,IDS_SANDSTRIKE);</text>
<text text-anchor="start" x="72.38" y="-508.5" font-family="Courier New" font-size="10.00" fill="blue"> &#160;&#160;&#160;&#160;&#160;&#160;&#160;&#160;&#160;&#160;&#160;ANIMATE();</text>
<text text-anchor="start" x="72.38" y="-495.75" font-family="Courier New" font-size="10.00" fill="blue"> &#160;&#160;&#160;&#160;&#160;&#160;&#160;&#160;&#160;&#160;&#160;PLAYWAVE(SOUND_DIG);</text>
<text text-anchor="start" x="72.38" y="-483" font-family="Courier New" font-size="10.00" fill="blue"> &#160;&#160;&#160;&#160;&#160;&#160;&#160;&#160;} &#160;&#160;</text>
<text text-anchor="start" x="72.38" y="-470.25" font-family="Courier New" font-size="10.00" fill="blue"> &#160;&#160;&#160;&#160;&#160;&#160;&#160;&#160;&#160;&#160;if(WIP3 == ISA_TOOL_PRYER){</text>
<text text-anchor="start" x="72.38" y="-457.5" font-family="Courier New" font-size="10.00" fill="blue"> &#160;&#160;&#160;&#160;&#160;&#160;&#160;&#160;&#160;&#160;&#160;SHOW(0,IDS_SANDFLIP);</text>
<text text-anchor="start" x="72.38" y="-444.75" font-family="Courier New" font-size="10.00" fill="blue"> &#160;&#160;&#160;&#160;&#160;&#160;&#160;&#160;&#160;&#160;&#160;ANIMATE();</text>
<text text-anchor="start" x="72.38" y="-432" font-family="Courier New" font-size="10.00" fill="blue"> &#160;&#160;&#160;&#160;&#160;&#160;&#160;&#160;&#160;&#160;&#160;PLAYWAVE(SOUND_THUMP);</text>
<text text-anchor="start" x="72.38" y="-419.25" font-family="Courier New" font-size="10.00" fill="blue"> &#160;&#160;&#160;&#160;&#160;&#160;&#160;&#160;} &#160;&#160;</text>
<polygon fill="none" stroke="black" points="66.38,-410 66.38,-634 306.38,-634 306.38,-410 66.38,-410"/>
</g>
<!-- status -->
<g id="node12" class="node">
<title>status</title>
<polygon fill="none" stroke="black" points="298.38,-1558 298.38,-1637 902.38,-1637 902.38,-1558 298.38,-1558"/>
<polygon fill="none" stroke="black" points="309.38,-1611.25 309.38,-1630 891.38,-1630 891.38,-1611.25 309.38,-1611.25"/>
<text text-anchor="start" x="561.38" y="-1618.5" font-family="Courier New" font-weight="bold" font-size="10.00">S21_HIDDEN_01</text>
<polygon fill="none" stroke="black" points="309.38,-1565 309.38,-1609.25 891.38,-1609.25 891.38,-1565 309.38,-1565"/>
<text text-anchor="start" x="312.38" y="-1596.75" font-family="Courier New" font-size="10.00" fill="green">VIEW::IDV_N2D2 @pos(x:3097, y:193, h:97, w:37)</text>
<text text-anchor="start" x="312.38" y="-1584" font-family="Courier New" font-size="10.00" fill="green">S21_HIDDEN_01::M_DIGDIRECT(&#39;IDD_AMULET&#39;,&#39;IDS_SANDDIRTGRSDK&#39;,&#39;ISA_TOOL_DIGGER&#39;,&#39;&#39;,&#39;&#39;,&#39;&#39;)</text>
<text text-anchor="start" x="312.38" y="-1571.25" font-family="Courier New" font-size="10.00" fill="green">{state:&#39;firstWhack&#39;: wObject:IDD_AMULET wSprite:IDS_SANDDIRTGRSDK bFrame:3 Top:193 Left:3097 Z:0</text>
<polygon fill="none" stroke="black" points="306.38,-1562 306.38,-1633 894.38,-1633 894.38,-1562 306.38,-1562"/>
</g>
</g>
</svg>
