<?xml version="1.0" encoding="UTF-8" standalone="no"?>
<!DOCTYPE svg PUBLIC "-//W3C//DTD SVG 1.1//EN"
 "http://www.w3.org/Graphics/SVG/1.1/DTD/svg11.dtd">
<!-- Generated by graphviz version 10.0.1 (20240210.2158)
 -->
<!-- Title: Automaton Pages: 1 -->
<svg width="705pt" height="629pt"
 viewBox="0.00 0.00 705.18 629.25" xmlns="http://www.w3.org/2000/svg" xmlns:xlink="http://www.w3.org/1999/xlink">
<g id="graph0" class="graph" transform="scale(1 1) rotate(0) translate(4 625.25)">
<title>Automaton</title>
<polygon fill="white" stroke="none" points="-4,4 -4,-625.25 701.18,-625.25 701.18,4 -4,4"/>
<!-- filename -->
<g id="node1" class="node">
<title>filename</title>
<polygon fill="none" stroke="black" points="119.18,-554.5 119.18,-608 243.18,-608 243.18,-554.5 119.18,-554.5"/>
<polygon fill="none" stroke="black" points="130.18,-582.25 130.18,-601 232.18,-601 232.18,-582.25 130.18,-582.25"/>
<text text-anchor="start" x="133.18" y="-589.5" font-family="Courier New" font-weight="bold" font-size="10.00">SID_HALO::M_HALO</text>
<polygon fill="none" stroke="black" points="130.18,-561.5 130.18,-580.25 232.18,-580.25 232.18,-561.5 130.18,-561.5"/>
<text text-anchor="start" x="136.18" y="-567.75" font-family="Courier New" font-size="10.00" fill="brown">start state = 0</text>
<polygon fill="none" stroke="black" points="127.18,-558.5 127.18,-604 235.18,-604 235.18,-558.5 127.18,-558.5"/>
</g>
<!-- 0 -->
<g id="node2" class="node">
<title>0</title>
<polyline fill="none" stroke="darkred" points="281.05,-570 295.3,-570"/>
<text text-anchor="start" x="284.05" y="-577.2" font-family="Courier New" font-weight="bold" font-size="14.00">0</text>
<path fill="none" stroke="darkred" d="M284.8,-567C284.8,-567 291.55,-567 291.55,-567 294.93,-567 298.3,-570.38 298.3,-573.75 298.3,-573.75 298.3,-588.75 298.3,-588.75 298.3,-592.12 294.93,-595.5 291.55,-595.5 291.55,-595.5 284.8,-595.5 284.8,-595.5 281.43,-595.5 278.05,-592.12 278.05,-588.75 278.05,-588.75 278.05,-573.75 278.05,-573.75 278.05,-570.38 281.43,-567 284.8,-567"/>
</g>
<!-- karmaBoost -->
<g id="node3" class="node">
<title>karmaBoost</title>
<polyline fill="none" stroke="darkred" points="243.93,-455 332.43,-455"/>
<text text-anchor="start" x="246.93" y="-462.2" font-family="Courier New" font-weight="bold" font-size="14.00">karmaBoost</text>
<path fill="none" stroke="darkred" d="M250.43,-452C250.43,-452 325.93,-452 325.93,-452 330.68,-452 335.43,-456.75 335.43,-461.5 335.43,-461.5 335.43,-471 335.43,-471 335.43,-475.75 330.68,-480.5 325.93,-480.5 325.93,-480.5 250.43,-480.5 250.43,-480.5 245.68,-480.5 240.93,-475.75 240.93,-471 240.93,-471 240.93,-461.5 240.93,-461.5 240.93,-456.75 245.68,-452 250.43,-452"/>
</g>
<!-- 0&#45;&gt;karmaBoost -->
<g id="edge1" class="edge">
<title>0&#45;&gt;karmaBoost</title>
<path fill="none" stroke="black" d="M288.18,-563.09C288.18,-545.15 288.18,-516.7 288.18,-495.45"/>
<polygon fill="black" stroke="black" points="291.68,-495.72 288.18,-485.72 284.68,-495.72 291.68,-495.72"/>
<text text-anchor="start" x="292.18" y="-510.75" font-family="Courier New" font-weight="bold" font-size="10.00" fill="orange">WAIT(0,SIG_MYHALO)</text>
</g>
<!-- 1 -->
<g id="node4" class="node">
<title>1</title>
<polyline fill="none" stroke="darkred" stroke-width="3" points="280.55,-230.5 295.8,-230.5"/>
<text text-anchor="start" x="284.05" y="-238.2" font-family="Courier New" font-weight="bold" font-size="14.00">1</text>
<path fill="none" stroke="darkred" stroke-width="3" d="M283.97,-225.5C283.97,-225.5 292.39,-225.5 292.39,-225.5 296.59,-225.5 300.8,-229.71 300.8,-233.92 300.8,-233.92 300.8,-250.58 300.8,-250.58 300.8,-254.79 296.59,-259 292.39,-259 292.39,-259 283.97,-259 283.97,-259 279.76,-259 275.55,-254.79 275.55,-250.58 275.55,-250.58 275.55,-233.92 275.55,-233.92 275.55,-229.71 279.76,-225.5 283.97,-225.5"/>
</g>
<!-- karmaBoost&#45;&gt;1 -->
<g id="edge5" class="edge">
<title>karmaBoost&#45;&gt;1</title>
<path fill="none" stroke="black" d="M232.94,-465.76C165.62,-465.07 57.68,-459.25 32.18,-430 -10.9,-380.58 -10.52,-332.24 32.18,-282.5 59.82,-250.3 185.87,-244.25 250.18,-243.29"/>
<polygon fill="black" stroke="black" points="249.96,-246.79 259.92,-243.18 249.89,-239.79 249.96,-246.79"/>
<polygon fill="none" stroke="black" points="35.18,-408.25 35.18,-427 281.18,-427 281.18,-408.25 35.18,-408.25"/>
<text text-anchor="start" x="116.18" y="-415.5" font-family="Courier New" font-weight="bold" font-size="10.00" fill="blue">ASSIGN(WPARM,)</text>
<polygon fill="none" stroke="black" points="35.18,-285.5 35.18,-406.25 281.18,-406.25 281.18,-285.5 35.18,-285.5"/>
<text text-anchor="start" x="38.18" y="-393.75" font-family="Courier New" font-size="10.00" fill="blue"> &#160;&#160;&#160;&#160;&#160;&#160;if(LKARMA &gt; (MAX_KARMA &#45; 1)){</text>
<text text-anchor="start" x="38.18" y="-381" font-family="Courier New" font-size="10.00" fill="blue"> &#160;&#160;&#160;&#160;&#160;&#160;&#160;&#160;&#160;&#160;&#160;&#160;ASSIGN(LKARMA,(MAX_KARMA));</text>
<text text-anchor="start" x="38.18" y="-368.25" font-family="Courier New" font-size="10.00" fill="blue"> &#160;&#160;&#160;&#160;&#160;&#160;}</text>
<text text-anchor="start" x="38.18" y="-355.5" font-family="Courier New" font-size="10.00" fill="blue"> &#160;&#160;&#160;&#160;&#160;&#160;&#160;ASSIGN(BPARM,LKARMA);</text>
<text text-anchor="start" x="38.18" y="-342.75" font-family="Courier New" font-size="10.00" fill="blue"> &#160;&#160;&#160;&#160;&#160;&#160;&#160;MOV(WSPRITE,BPARM);</text>
<text text-anchor="start" x="38.18" y="-330" font-family="Courier New" font-size="10.00" fill="blue"> &#160;&#160;&#160;&#160;&#160;&#160;&#160;DIV(WSPRITE,2);</text>
<text text-anchor="start" x="38.18" y="-317.25" font-family="Courier New" font-size="10.00" fill="blue"> &#160;&#160;&#160;&#160;&#160;&#160;&#160;MAPi(WSPRITE,S00_KARMA_MAP);</text>
<text text-anchor="start" x="38.18" y="-304.5" font-family="Courier New" font-size="10.00" fill="blue"> &#160;&#160;&#160;&#160;&#160;&#160;&#160;ASHOW(WSPRITE);</text>
<text text-anchor="start" x="38.18" y="-291.75" font-family="Courier New" font-size="10.00" fill="blue"> &#160;&#160;&#160;&#160;&#160;&#160;&#160;SIGNALi(0,SID_ID);</text>
<polygon fill="none" stroke="black" points="32.18,-282.5 32.18,-430 284.18,-430 284.18,-282.5 32.18,-282.5"/>
</g>
<!-- 1&#45;&gt;karmaBoost -->
<g id="edge2" class="edge">
<title>1&#45;&gt;karmaBoost</title>
<path fill="none" stroke="black" d="M288.18,-264.18C288.18,-304.22 288.18,-391.66 288.18,-436.89"/>
<polygon fill="black" stroke="black" points="284.68,-436.69 288.18,-446.69 291.68,-436.69 284.68,-436.69"/>
<text text-anchor="start" x="292.18" y="-354.12" font-family="Courier New" font-weight="bold" font-size="10.00" fill="orange">WAIT(0,SIG_ADD)</text>
</g>
<!-- 1&#45;&gt;karmaBoost -->
<g id="edge4" class="edge">
<title>1&#45;&gt;karmaBoost</title>
<path fill="none" stroke="black" d="M314.73,-245.69C338.18,-249.41 371.07,-258.79 387.18,-282.5 424.01,-336.73 424.97,-376.43 387.18,-430 379.09,-441.47 366.92,-449.23 353.85,-454.47"/>
<polygon fill="black" stroke="black" points="352.97,-451.07 344.67,-457.66 355.27,-457.69 352.97,-451.07"/>
<text text-anchor="start" x="418.18" y="-354.12" font-family="Courier New" font-weight="bold" font-size="10.00" fill="orange">WAIT(0,0)</text>
</g>
<!-- karmaDrain -->
<g id="node5" class="node">
<title>karmaDrain</title>
<polyline fill="none" stroke="darkred" points="243.93,-7 332.43,-7"/>
<text text-anchor="start" x="246.93" y="-14.2" font-family="Courier New" font-weight="bold" font-size="14.00">karmaDrain</text>
<path fill="none" stroke="darkred" d="M250.43,-4C250.43,-4 325.93,-4 325.93,-4 330.68,-4 335.43,-8.75 335.43,-13.5 335.43,-13.5 335.43,-23 335.43,-23 335.43,-27.75 330.68,-32.5 325.93,-32.5 325.93,-32.5 250.43,-32.5 250.43,-32.5 245.68,-32.5 240.93,-27.75 240.93,-23 240.93,-23 240.93,-13.5 240.93,-13.5 240.93,-8.75 245.68,-4 250.43,-4"/>
</g>
<!-- 1&#45;&gt;karmaDrain -->
<g id="edge3" class="edge">
<title>1&#45;&gt;karmaDrain</title>
<path fill="none" stroke="black" d="M261.2,-230.48C249.1,-224.13 236.03,-214.8 229.18,-202 198.22,-144.22 196.83,-111.52 229.18,-54.5 231.53,-50.36 234.58,-46.65 238.06,-43.34"/>
<polygon fill="black" stroke="black" points="240.02,-46.25 245.64,-37.27 235.65,-40.79 240.02,-46.25"/>
<text text-anchor="start" x="233.18" y="-126.12" font-family="Courier New" font-weight="bold" font-size="10.00" fill="orange">WAIT(0,SIG_SUB)</text>
</g>
<!-- karmaDrain&#45;&gt;1 -->
<g id="edge6" class="edge">
<title>karmaDrain&#45;&gt;1</title>
<path fill="none" stroke="black" d="M313.53,-36.49C319.05,-41.59 324.14,-47.66 327.18,-54.5 353.78,-114.41 352.17,-141.39 327.18,-202 325.83,-205.27 324.06,-208.41 322.03,-211.39"/>
<polygon fill="black" stroke="black" points="319.31,-209.19 315.73,-219.16 324.75,-213.59 319.31,-209.19"/>
<polygon fill="none" stroke="black" points="349.18,-180.25 349.18,-199 571.18,-199 571.18,-180.25 349.18,-180.25"/>
<text text-anchor="start" x="418.18" y="-187.5" font-family="Courier New" font-weight="bold" font-size="10.00" fill="blue">ASSIGN(WPARM,)</text>
<polygon fill="none" stroke="black" points="349.18,-57.5 349.18,-178.25 571.18,-178.25 571.18,-57.5 349.18,-57.5"/>
<text text-anchor="start" x="352.18" y="-165.75" font-family="Courier New" font-size="10.00" fill="blue"> &#160;&#160;&#160;&#160;&#160;&#160;&#160;if(LKARMA &lt;= 0){</text>
<text text-anchor="start" x="352.18" y="-153" font-family="Courier New" font-size="10.00" fill="blue"> &#160;&#160;&#160;&#160;&#160;&#160;&#160;&#160;&#160;&#160;&#160;&#160;ASSIGN(LKARMA,1);</text>
<text text-anchor="start" x="352.18" y="-140.25" font-family="Courier New" font-size="10.00" fill="blue"> &#160;&#160;&#160;&#160;&#160;&#160;} &#160;&#160;&#160;&#160;&#160;</text>
<text text-anchor="start" x="352.18" y="-127.5" font-family="Courier New" font-size="10.00" fill="blue"> &#160;&#160;&#160;&#160;&#160;&#160;&#160;ASSIGN(BPARM,LKARMA);</text>
<text text-anchor="start" x="352.18" y="-114.75" font-family="Courier New" font-size="10.00" fill="blue"> &#160;&#160;&#160;&#160;&#160;&#160;&#160;MOV(WSPRITE,BPARM);</text>
<text text-anchor="start" x="352.18" y="-102" font-family="Courier New" font-size="10.00" fill="blue"> &#160;&#160;&#160;&#160;&#160;&#160;&#160;DIV(WSPRITE,2);</text>
<text text-anchor="start" x="352.18" y="-89.25" font-family="Courier New" font-size="10.00" fill="blue"> &#160;&#160;&#160;&#160;&#160;&#160;&#160;MAPi(WSPRITE,S00_KARMA_MAP);</text>
<text text-anchor="start" x="352.18" y="-76.5" font-family="Courier New" font-size="10.00" fill="blue"> &#160;&#160;&#160;&#160;&#160;&#160;&#160;ASHOW(WSPRITE);</text>
<text text-anchor="start" x="352.18" y="-63.75" font-family="Courier New" font-size="10.00" fill="blue"> &#160;&#160;&#160;&#160;&#160;&#160;&#160;SIGNALi(0,SID_ID);</text>
<polygon fill="none" stroke="black" points="346.18,-54.5 346.18,-202 574.18,-202 574.18,-54.5 346.18,-54.5"/>
</g>
<!-- status -->
<g id="node6" class="node">
<title>status</title>
<polygon fill="none" stroke="black" points="333.18,-541.75 333.18,-620.75 697.18,-620.75 697.18,-541.75 333.18,-541.75"/>
<polygon fill="none" stroke="black" points="344.18,-595 344.18,-613.75 686.18,-613.75 686.18,-595 344.18,-595"/>
<text text-anchor="start" x="491.18" y="-602.25" font-family="Courier New" font-weight="bold" font-size="10.00">SID_HALO</text>
<polygon fill="none" stroke="black" points="344.18,-548.75 344.18,-593 686.18,-593 686.18,-548.75 344.18,-548.75"/>
<text text-anchor="start" x="347.18" y="-580.5" font-family="Courier New" font-size="10.00" fill="green">VIEW::IDV_ID @pos(x:30, y:0, h:40, w:40)</text>
<text text-anchor="start" x="347.18" y="-567.75" font-family="Courier New" font-size="10.00" fill="green">SID_HALO::M_HALO(&#39;&#39;,&#39;&#39;,&#39;&#39;,&#39;&#39;,&#39;&#39;,&#39;&#39;)</text>
<text text-anchor="start" x="347.18" y="-555" font-family="Courier New" font-size="10.00" fill="green">{state:&#39;1&#39;: bParm:0 wSprite:IDS_HALO00 Top:0 Left:30 Z:0</text>
<polygon fill="none" stroke="black" points="341.18,-545.75 341.18,-616.75 689.18,-616.75 689.18,-545.75 341.18,-545.75"/>
</g>
</g>
</svg>
