<?xml version="1.0" encoding="UTF-8" standalone="no"?>
<!DOCTYPE svg PUBLIC "-//W3C//DTD SVG 1.1//EN"
 "http://www.w3.org/Graphics/SVG/1.1/DTD/svg11.dtd">
<!-- Generated by graphviz version 10.0.1 (20240210.2158)
 -->
<!-- Title: Automaton Pages: 1 -->
<svg width="2274pt" height="537pt"
 viewBox="0.00 0.00 2273.69 537.00" xmlns="http://www.w3.org/2000/svg" xmlns:xlink="http://www.w3.org/1999/xlink">
<g id="graph0" class="graph" transform="scale(1 1) rotate(0) translate(4 533)">
<title>Automaton</title>
<polygon fill="white" stroke="none" points="-4,4 -4,-533 2269.69,-533 2269.69,4 -4,4"/>
<!-- filename -->
<g id="node1" class="node">
<title>filename</title>
<polygon fill="none" stroke="black" points="408.69,-462.25 408.69,-515.75 556.69,-515.75 556.69,-462.25 408.69,-462.25"/>
<polygon fill="none" stroke="black" points="419.69,-490 419.69,-508.75 545.69,-508.75 545.69,-490 419.69,-490"/>
<text text-anchor="start" x="422.69" y="-497.25" font-family="Courier New" font-weight="bold" font-size="10.00">SID_SPELL::M_IDSPELL</text>
<polygon fill="none" stroke="black" points="419.69,-469.25 419.69,-488 545.69,-488 545.69,-469.25 419.69,-469.25"/>
<text text-anchor="start" x="437.69" y="-475.5" font-family="Courier New" font-size="10.00" fill="brown">start state = 0</text>
<polygon fill="none" stroke="black" points="416.69,-466.25 416.69,-511.75 548.69,-511.75 548.69,-466.25 416.69,-466.25"/>
</g>
<!-- 0 -->
<g id="node2" class="node">
<title>0</title>
<polyline fill="none" stroke="darkred" stroke-width="3" points="594.07,-477.25 609.32,-477.25"/>
<text text-anchor="start" x="597.57" y="-484.95" font-family="Courier New" font-weight="bold" font-size="14.00">0</text>
<path fill="none" stroke="darkred" stroke-width="3" d="M597.49,-472.25C597.49,-472.25 605.9,-472.25 605.9,-472.25 610.11,-472.25 614.32,-476.46 614.32,-480.67 614.32,-480.67 614.32,-497.33 614.32,-497.33 614.32,-501.54 610.11,-505.75 605.9,-505.75 605.9,-505.75 597.49,-505.75 597.49,-505.75 593.28,-505.75 589.07,-501.54 589.07,-497.33 589.07,-497.33 589.07,-480.67 589.07,-480.67 589.07,-476.46 593.28,-472.25 597.49,-472.25"/>
</g>
<!-- 0&#45;&gt;0 -->
<g id="edge2" class="edge">
<title>0&#45;&gt;0</title>
<path fill="none" stroke="black" d="M628.49,-505.3C638.47,-505.83 646.69,-500.4 646.69,-489 646.69,-482.41 643.95,-477.81 639.7,-475.21"/>
<polygon fill="black" stroke="black" points="640.49,-471.8 629.97,-473.03 638.96,-478.63 640.49,-471.8"/>
<polygon fill="none" stroke="black" points="649.69,-490 649.69,-508.75 757.69,-508.75 757.69,-490 649.69,-490"/>
<text text-anchor="start" x="652.69" y="-497.25" font-family="Courier New" font-weight="bold" font-size="10.00" fill="orange">WAIT(0,SIG_CLEAR)</text>
<polygon fill="none" stroke="black" points="649.69,-469.25 649.69,-488 757.69,-488 757.69,-469.25 649.69,-469.25"/>
<text text-anchor="start" x="670.69" y="-475.5" font-family="Courier New" font-size="10.00" fill="blue"> &#160;&#160;&#160;SHOW();</text>
<polygon fill="none" stroke="black" points="646.69,-466.25 646.69,-511.75 760.69,-511.75 760.69,-466.25 646.69,-466.25"/>
</g>
<!-- checkObject -->
<g id="node3" class="node">
<title>checkObject</title>
<polyline fill="none" stroke="darkred" points="697.32,-231.5 794.07,-231.5"/>
<text text-anchor="start" x="700.32" y="-238.7" font-family="Courier New" font-weight="bold" font-size="14.00">checkObject</text>
<path fill="none" stroke="darkred" d="M703.82,-228.5C703.82,-228.5 787.57,-228.5 787.57,-228.5 792.32,-228.5 797.07,-233.25 797.07,-238 797.07,-238 797.07,-247.5 797.07,-247.5 797.07,-252.25 792.32,-257 787.57,-257 787.57,-257 703.82,-257 703.82,-257 699.07,-257 694.32,-252.25 694.32,-247.5 694.32,-247.5 694.32,-238 694.32,-238 694.32,-233.25 699.07,-228.5 703.82,-228.5"/>
</g>
<!-- 0&#45;&gt;checkObject -->
<g id="edge1" class="edge">
<title>0&#45;&gt;checkObject</title>
<path fill="none" stroke="black" d="M614.22,-466.75C640.42,-422.31 700.97,-319.62 729.83,-270.66"/>
<polygon fill="black" stroke="black" points="732.82,-272.49 734.88,-262.09 726.79,-268.93 732.82,-272.49"/>
<polygon fill="none" stroke="black" points="671.69,-409.25 671.69,-428 869.69,-428 869.69,-409.25 671.69,-409.25"/>
<text text-anchor="start" x="749.69" y="-416.5" font-family="Courier New" font-weight="bold" font-size="10.00" fill="orange">DROP(,)</text>
<polygon fill="none" stroke="black" points="671.69,-375.75 671.69,-407.25 869.69,-407.25 869.69,-375.75 671.69,-375.75"/>
<text text-anchor="start" x="674.69" y="-394.75" font-family="Courier New" font-size="10.00" fill="blue"> &#160;&#160;&#160;CLEAR(WVIEWID);</text>
<text text-anchor="start" x="674.69" y="-382" font-family="Courier New" font-size="10.00" fill="blue"> &#160;&#160;&#160;WRITE(&quot;Item Dropped on ID&quot;);</text>
<polygon fill="none" stroke="black" points="668.69,-372.75 668.69,-431 872.69,-431 872.69,-372.75 668.69,-372.75"/>
</g>
<!-- itsAbomb -->
<g id="node4" class="node">
<title>itsAbomb</title>
<polyline fill="none" stroke="darkred" points="218.69,-7 290.69,-7"/>
<text text-anchor="start" x="221.69" y="-14.2" font-family="Courier New" font-weight="bold" font-size="14.00">itsAbomb</text>
<path fill="none" stroke="darkred" d="M225.19,-4C225.19,-4 284.19,-4 284.19,-4 288.94,-4 293.69,-8.75 293.69,-13.5 293.69,-13.5 293.69,-23 293.69,-23 293.69,-27.75 288.94,-32.5 284.19,-32.5 284.19,-32.5 225.19,-32.5 225.19,-32.5 220.44,-32.5 215.69,-27.75 215.69,-23 215.69,-23 215.69,-13.5 215.69,-13.5 215.69,-8.75 220.44,-4 225.19,-4"/>
</g>
<!-- checkObject&#45;&gt;itsAbomb -->
<g id="edge3" class="edge">
<title>checkObject&#45;&gt;itsAbomb</title>
<path fill="none" stroke="black" d="M739.54,-224.67C729.6,-199.72 707.53,-153.75 672.69,-130.75 635.01,-105.87 616.64,-123.13 572.69,-112.75 480.77,-91.03 375.99,-58.72 312.63,-38.34"/>
<polygon fill="black" stroke="black" points="313.71,-35.01 303.12,-35.26 311.56,-41.67 313.71,-35.01"/>
<text text-anchor="start" x="576.69" y="-81.5" font-family="Courier New" font-weight="bold" font-size="10.00" fill="blue">IS_A(WOBJECT,IDC_BOMB)</text>
</g>
<!-- itsAspell -->
<g id="node5" class="node">
<title>itsAspell</title>
<polyline fill="none" stroke="darkred" points="1432.57,-7 1512.82,-7"/>
<text text-anchor="start" x="1435.57" y="-14.2" font-family="Courier New" font-weight="bold" font-size="14.00">itsAspell</text>
<path fill="none" stroke="darkred" d="M1439.07,-4C1439.07,-4 1506.32,-4 1506.32,-4 1511.07,-4 1515.82,-8.75 1515.82,-13.5 1515.82,-13.5 1515.82,-23 1515.82,-23 1515.82,-27.75 1511.07,-32.5 1506.32,-32.5 1506.32,-32.5 1439.07,-32.5 1439.07,-32.5 1434.32,-32.5 1429.57,-27.75 1429.57,-23 1429.57,-23 1429.57,-13.5 1429.57,-13.5 1429.57,-8.75 1434.32,-4 1439.07,-4"/>
</g>
<!-- checkObject&#45;&gt;itsAspell -->
<g id="edge4" class="edge">
<title>checkObject&#45;&gt;itsAspell</title>
<path fill="none" stroke="black" d="M804.82,-240.58C899.45,-235.63 1085.84,-212.83 1199.69,-112.75 1220.85,-94.15 1202.32,-71.62 1224.69,-54.5 1253,-32.84 1346.72,-24.46 1410.49,-21.24"/>
<polygon fill="black" stroke="black" points="1410.3,-24.76 1420.12,-20.79 1409.97,-17.76 1410.3,-24.76"/>
<text text-anchor="start" x="1228.69" y="-81.5" font-family="Courier New" font-weight="bold" font-size="10.00" fill="blue">IS_A(WOBJECT,IDC_SPELL)</text>
</g>
<!-- checkObject&#45;&gt;itsAspell -->
<g id="edge5" class="edge">
<title>checkObject&#45;&gt;itsAspell</title>
<path fill="none" stroke="black" d="M804.92,-236.66C943.74,-223.64 1284.83,-184.94 1370.69,-112.75 1392,-94.84 1374.45,-74.61 1393.69,-54.5 1398.93,-49.03 1405.16,-44.35 1411.8,-40.36"/>
<polygon fill="black" stroke="black" points="1413.27,-43.54 1420.41,-35.71 1409.95,-37.38 1413.27,-43.54"/>
<text text-anchor="start" x="1397.69" y="-81.5" font-family="Courier New" font-weight="bold" font-size="10.00" fill="blue">IS_A(WOBJECT,IDD_GVIAL)</text>
</g>
<!-- regularObject -->
<g id="node6" class="node">
<title>regularObject</title>
<polyline fill="none" stroke="darkred" points="584.07,-7 697.32,-7"/>
<text text-anchor="start" x="587.07" y="-14.2" font-family="Courier New" font-weight="bold" font-size="14.00">regularObject</text>
<path fill="none" stroke="darkred" d="M590.57,-4C590.57,-4 690.82,-4 690.82,-4 695.57,-4 700.32,-8.75 700.32,-13.5 700.32,-13.5 700.32,-23 700.32,-23 700.32,-27.75 695.57,-32.5 690.82,-32.5 690.82,-32.5 590.57,-32.5 590.57,-32.5 585.82,-32.5 581.07,-27.75 581.07,-23 581.07,-23 581.07,-13.5 581.07,-13.5 581.07,-8.75 585.82,-4 590.57,-4"/>
</g>
<!-- checkObject&#45;&gt;regularObject -->
<g id="edge6" class="edge">
<title>checkObject&#45;&gt;regularObject</title>
<path fill="none" stroke="black" d="M745.07,-224.73C743.27,-183.79 736.82,-81.25 716.69,-54.5 713.37,-50.08 709.36,-46.2 704.94,-42.79"/>
<polygon fill="black" stroke="black" points="706.9,-39.9 696.64,-37.28 703.03,-45.73 706.9,-39.9"/>
<polygon fill="none" stroke="black" points="736.69,-91 736.69,-109.75 1192.69,-109.75 1192.69,-91 736.69,-91"/>
<text text-anchor="start" x="922.69" y="-98.25" font-family="Courier New" font-weight="bold" font-size="10.00" fill="blue">Z_EPSILON(0,0)</text>
<polygon fill="none" stroke="black" points="736.69,-57.5 736.69,-89 1192.69,-89 1192.69,-57.5 736.69,-57.5"/>
<text text-anchor="start" x="739.69" y="-76.5" font-family="Courier New" font-size="10.00" fill="blue"> &#160;&#160;&#160;WRITE(&quot;M_IDSPELL has detected a regular object drop from me or other&quot;);</text>
<text text-anchor="start" x="739.69" y="-63.75" font-family="Courier New" font-size="10.00" fill="blue"> &#160;&#160;&#160;SHOW(WOBJECT);</text>
<polygon fill="none" stroke="black" points="733.69,-54.5 733.69,-112.75 1195.69,-112.75 1195.69,-54.5 733.69,-54.5"/>
</g>
<!-- itsAbomb&#45;&gt;0 -->
<g id="edge7" class="edge">
<title>itsAbomb&#45;&gt;0</title>
<path fill="none" stroke="black" d="M207.78,-28.74C156.51,-41.88 76.87,-71.11 40.69,-130.75 -10.94,-215.87 -15.79,-272.77 40.69,-354.75 94.67,-433.09 147.65,-411.19 240.69,-431 311.44,-446.06 500.26,-418.17 565.69,-449 570.74,-451.38 575.42,-454.81 579.61,-458.67"/>
<polygon fill="black" stroke="black" points="577.05,-461.06 586.47,-465.89 582.12,-456.23 577.05,-461.06"/>
<polygon fill="none" stroke="black" points="43.69,-250.12 43.69,-268.88 229.69,-268.88 229.69,-250.12 43.69,-250.12"/>
<text text-anchor="start" x="46.69" y="-257.38" font-family="Courier New" font-weight="bold" font-size="10.00" fill="blue">IFSTATE(active,PROTECT_ACTIVE)</text>
<polygon fill="none" stroke="black" points="43.69,-216.62 43.69,-248.12 229.69,-248.12 229.69,-216.62 43.69,-216.62"/>
<text text-anchor="start" x="61.69" y="-235.62" font-family="Courier New" font-size="10.00" fill="blue"> </text>
<text text-anchor="start" x="61.69" y="-222.88" font-family="Courier New" font-size="10.00" fill="blue"> &#160;&#160;&#160;PLAYWAVE(SOUND_SUCK);</text>
<polygon fill="none" stroke="black" points="40.69,-213.62 40.69,-271.88 232.69,-271.88 232.69,-213.62 40.69,-213.62"/>
</g>
<!-- itsAbomb&#45;&gt;0 -->
<g id="edge8" class="edge">
<title>itsAbomb&#45;&gt;0</title>
<path fill="none" stroke="black" d="M252.48,-36.3C244.91,-97.34 222.63,-304.1 260.69,-354.75 345.93,-468.17 445.68,-373.33 565.69,-449 570.02,-451.73 574.16,-455.11 578,-458.72"/>
<polygon fill="black" stroke="black" points="575.34,-461.01 584.8,-465.78 580.38,-456.15 575.34,-461.01"/>
<polygon fill="none" stroke="black" points="263.69,-250.12 263.69,-268.88 509.69,-268.88 509.69,-250.12 263.69,-250.12"/>
<text text-anchor="start" x="308.69" y="-257.38" font-family="Courier New" font-weight="bold" font-size="10.00" fill="blue">SPELL_ME(WOBJECT,SIG_BOMB)</text>
<polygon fill="none" stroke="black" points="263.69,-216.62 263.69,-248.12 509.69,-248.12 509.69,-216.62 263.69,-216.62"/>
<text text-anchor="start" x="266.69" y="-235.62" font-family="Courier New" font-size="10.00" fill="blue"> &#160;&#160;&#160;&#160;WRITE(&quot;M_IDSPELL says ITS A BOMB&quot;);</text>
<text text-anchor="start" x="266.69" y="-222.88" font-family="Courier New" font-size="10.00" fill="blue"> &#160;&#160;&#160;&#160;SIGNAL(SID_ID, SIG_BOMB);</text>
<polygon fill="none" stroke="black" points="260.69,-213.62 260.69,-271.88 512.69,-271.88 512.69,-213.62 260.69,-213.62"/>
</g>
<!-- itsAspell&#45;&gt;0 -->
<g id="edge9" class="edge">
<title>itsAspell&#45;&gt;0</title>
<path fill="none" stroke="black" d="M1521.22,-36.41C1528.58,-41.13 1535.21,-47.07 1539.69,-54.5 1553.08,-76.66 1553.48,-90.84 1539.69,-112.75 1365.62,-389.4 1188.26,-332.19 876.69,-431 830.73,-445.58 816.98,-439.54 769.69,-449 724.72,-457.99 673.41,-470.19 639.46,-478.53"/>
<polygon fill="black" stroke="black" points="638.98,-475.05 630.11,-480.84 640.66,-481.84 638.98,-475.05"/>
<polygon fill="none" stroke="black" points="1524.69,-250.12 1524.69,-268.88 1710.69,-268.88 1710.69,-250.12 1524.69,-250.12"/>
<text text-anchor="start" x="1527.69" y="-257.38" font-family="Courier New" font-weight="bold" font-size="10.00" fill="blue">IFSTATE(active,PROTECT_ACTIVE)</text>
<polygon fill="none" stroke="black" points="1524.69,-216.62 1524.69,-248.12 1710.69,-248.12 1710.69,-216.62 1524.69,-216.62"/>
<text text-anchor="start" x="1548.69" y="-235.62" font-family="Courier New" font-size="10.00" fill="blue"> </text>
<text text-anchor="start" x="1548.69" y="-222.88" font-family="Courier New" font-size="10.00" fill="blue"> &#160;PLAYWAVE(SOUND_SUCK);</text>
<polygon fill="none" stroke="black" points="1521.69,-213.62 1521.69,-271.88 1713.69,-271.88 1713.69,-213.62 1521.69,-213.62"/>
</g>
<!-- itsAspell&#45;&gt;0 -->
<g id="edge10" class="edge">
<title>itsAspell&#45;&gt;0</title>
<path fill="none" stroke="black" d="M1523.77,-25.97C1582.32,-36.73 1675.62,-63.91 1717.69,-130.75 1770.73,-215 1784.24,-280.7 1717.69,-354.75 1576.19,-512.22 978.95,-416.92 769.69,-449 724.36,-455.95 673.12,-468.55 639.28,-477.54"/>
<polygon fill="black" stroke="black" points="638.72,-474.07 629.97,-480.05 640.54,-480.83 638.72,-474.07"/>
<polygon fill="none" stroke="black" points="1764.69,-333 1764.69,-351.75 2262.69,-351.75 2262.69,-333 1764.69,-333"/>
<text text-anchor="start" x="1977.69" y="-340.25" font-family="Courier New" font-weight="bold" font-size="10.00" fill="blue">Z_EPSILON(,)</text>
<polygon fill="none" stroke="black" points="1764.69,-133.75 1764.69,-331 2262.69,-331 2262.69,-133.75 1764.69,-133.75"/>
<text text-anchor="start" x="1767.69" y="-318.5" font-family="Courier New" font-size="10.00" fill="blue"> &#160;&#160;&#160;if(WOBJECT == IDD_PROTECT){SHOW();SIGNAL(PROTECT_ACTIVE,SIG_SPELLME);}</text>
<text text-anchor="start" x="1767.69" y="-305.75" font-family="Courier New" font-size="10.00" fill="blue"> &#160;&#160;&#160;if(WOBJECT == IDD_NYBREATH){SHOW();SIGNAL(NYBREATH_ACTIVE,SIG_SPELLME);}</text>
<text text-anchor="start" x="1767.69" y="-293" font-family="Courier New" font-size="10.00" fill="blue"> &#160;&#160;&#160;if(WOBJECT == IDD_WETBREATH){SHOW();SIGNAL(WETBREATH_ACTIVE,SIG_SPELLME);}</text>
<text text-anchor="start" x="1767.69" y="-280.25" font-family="Courier New" font-size="10.00" fill="blue"> &#160;&#160;&#160;if(WOBJECT == IDD_TELEKINESIS){SHOW();SIGNAL(TELEKINESIS_ACTIVE,SIG_SPELLME);}</text>
<text text-anchor="start" x="1767.69" y="-267.5" font-family="Courier New" font-size="10.00" fill="blue"> &#160;&#160;&#160;if(WOBJECT == IDD_INVISIBLE){SHOW();SIGNAL(INVISIBLE_ACTIVE,SIG_SPELLME);}</text>
<text text-anchor="start" x="1767.69" y="-254.75" font-family="Courier New" font-size="10.00" fill="blue"> &#160;&#160;&#160;if(WOBJECT == IDD_ENCHANT){SHOW(WOBJECT);SIGNAL(ENCHANT_ACTIVE,SIG_SPELLME);}</text>
<text text-anchor="start" x="1767.69" y="-242" font-family="Courier New" font-size="10.00" fill="blue"> &#160;&#160;&#160;if(WOBJECT == IDD_HOLDING){SHOW(WOBJECT);SIGNAL(HOLDING_ACTIVE,SIG_SPELLME);}</text>
<text text-anchor="start" x="1767.69" y="-229.25" font-family="Courier New" font-size="10.00" fill="blue"> &#160;&#160;&#160;if(WOBJECT == IDD_STALKER){SHOW(WOBJECT);SIGNAL(STALKING_ACTIVE,SIG_SPELLME);}</text>
<text text-anchor="start" x="1767.69" y="-216.5" font-family="Courier New" font-size="10.00" fill="blue"> &#160;&#160;&#160;if(WOBJECT == IDD_TRANSFER){SHOW();SIGNAL(TRANSFER_ACTIVE,SIG_SPELLME);}</text>
<text text-anchor="start" x="1767.69" y="-203.75" font-family="Courier New" font-size="10.00" fill="blue"> &#160;&#160;&#160;if(WOBJECT == IDD_DEATH){SHOW();SIGNAL(DEATH_ACTIVE,SIG_SPELLME);}</text>
<text text-anchor="start" x="1767.69" y="-191" font-family="Courier New" font-size="10.00" fill="blue"> &#160;&#160;&#160;if(WOBJECT == IDD_BANISHMENT){SHOW();SIGNAL(BANISHMENT_ACTIVE,SIG_SPELLME);}</text>
<text text-anchor="start" x="1767.69" y="-178.25" font-family="Courier New" font-size="10.00" fill="blue"> &#160;&#160;&#160;if(WOBJECT == IDD_BLINDNESS){SHOW();SIGNAL(BLINDNESS_ACTIVE,SIG_SPELLME);}</text>
<text text-anchor="start" x="1767.69" y="-165.5" font-family="Courier New" font-size="10.00" fill="blue"> &#160;&#160;&#160;if(WOBJECT == IDD_HALLUCINATE){SHOW();SIGNAL(HALLUCINATE_ACTIVE,SIG_SPELLME);}</text>
<text text-anchor="start" x="1767.69" y="-152.75" font-family="Courier New" font-size="10.00" fill="blue"> &#160;&#160;&#160;if(WOBJECT == IDD_GVIAL){SHOW();SIGNAL(GOPA_ACTIVE,SIG_SPELLME);}</text>
<text text-anchor="start" x="1767.69" y="-140" font-family="Courier New" font-size="10.00" fill="blue"> &#160;&#160;&#160;if(WOBJECT == IDD_REVIAL){SHOW();SIGNAL(REVIVE_ACTIVE,SIG_SPELLME);}</text>
<polygon fill="none" stroke="black" points="1761.69,-130.75 1761.69,-354.75 2265.69,-354.75 2265.69,-130.75 1761.69,-130.75"/>
</g>
<!-- regularObject&#45;&gt;0 -->
<g id="edge11" class="edge">
<title>regularObject&#45;&gt;0</title>
<path fill="none" stroke="black" d="M577.23,-36.49C569.24,-41.14 562.02,-47.03 556.69,-54.5 467.11,-180.12 548.79,-380.65 585.74,-457.06"/>
<polygon fill="black" stroke="black" points="582.4,-458.22 589.96,-465.64 588.68,-455.12 582.4,-458.22"/>
<polygon fill="none" stroke="black" points="546.69,-250.12 546.69,-268.88 666.69,-268.88 666.69,-250.12 546.69,-250.12"/>
<text text-anchor="start" x="585.69" y="-257.38" font-family="Courier New" font-weight="bold" font-size="10.00" fill="orange">GRAB(,)</text>
<polygon fill="none" stroke="black" points="546.69,-216.62 546.69,-248.12 666.69,-248.12 666.69,-216.62 546.69,-216.62"/>
<text text-anchor="start" x="549.69" y="-235.62" font-family="Courier New" font-size="10.00" fill="blue"> &#160;&#160;&#160;CLEAR(WOBJECT);</text>
<text text-anchor="start" x="549.69" y="-222.88" font-family="Courier New" font-size="10.00" fill="blue"> &#160;&#160;&#160;SHOW();</text>
<polygon fill="none" stroke="black" points="543.69,-213.62 543.69,-271.88 669.69,-271.88 669.69,-213.62 543.69,-213.62"/>
</g>
<!-- status -->
<g id="node7" class="node">
<title>status</title>
<polygon fill="none" stroke="black" points="778.69,-449.5 778.69,-528.5 1058.69,-528.5 1058.69,-449.5 778.69,-449.5"/>
<polygon fill="none" stroke="black" points="789.69,-502.75 789.69,-521.5 1047.69,-521.5 1047.69,-502.75 789.69,-502.75"/>
<text text-anchor="start" x="891.69" y="-510" font-family="Courier New" font-weight="bold" font-size="10.00">SID_SPELL</text>
<polygon fill="none" stroke="black" points="789.69,-456.5 789.69,-500.75 1047.69,-500.75 1047.69,-456.5 789.69,-456.5"/>
<text text-anchor="start" x="792.69" y="-488.25" font-family="Courier New" font-size="10.00" fill="green">VIEW::IDV_ID @pos(x:10, y:50, h:70, w:100)</text>
<text text-anchor="start" x="792.69" y="-475.5" font-family="Courier New" font-size="10.00" fill="green">SID_SPELL::M_IDSPELL(&#39;&#39;,&#39;&#39;,&#39;&#39;,&#39;&#39;,&#39;&#39;,&#39;&#39;)</text>
<text text-anchor="start" x="792.69" y="-462.75" font-family="Courier New" font-size="10.00" fill="green">{state:&#39;0&#39;: Top:50 Left:10 Z:0</text>
<polygon fill="none" stroke="black" points="786.69,-453.5 786.69,-524.5 1050.69,-524.5 1050.69,-453.5 786.69,-453.5"/>
</g>
</g>
</svg>
