<?xml version="1.0" encoding="UTF-8" standalone="no"?>
<!DOCTYPE svg PUBLIC "-//W3C//DTD SVG 1.1//EN"
 "http://www.w3.org/Graphics/SVG/1.1/DTD/svg11.dtd">
<!-- Generated by graphviz version 10.0.1 (20240210.2158)
 -->
<!-- Title: Automaton Pages: 1 -->
<svg width="2076pt" height="1413pt"
 viewBox="0.00 0.00 2076.00 1412.50" xmlns="http://www.w3.org/2000/svg" xmlns:xlink="http://www.w3.org/1999/xlink">
<g id="graph0" class="graph" transform="scale(1 1) rotate(0) translate(4 1408.5)">
<title>Automaton</title>
<polygon fill="white" stroke="none" points="-4,4 -4,-1408.5 2072,-1408.5 2072,4 -4,4"/>
<!-- filename -->
<g id="node1" class="node">
<title>filename</title>
<polygon fill="none" stroke="black" points="749,-1337.75 749,-1391.25 867,-1391.25 867,-1337.75 749,-1337.75"/>
<polygon fill="none" stroke="black" points="760,-1365.5 760,-1384.25 856,-1384.25 856,-1365.5 760,-1365.5"/>
<text text-anchor="start" x="772" y="-1372.75" font-family="Courier New" font-weight="bold" font-size="10.00">SID_ID::M_ID</text>
<polygon fill="none" stroke="black" points="760,-1344.75 760,-1363.5 856,-1363.5 856,-1344.75 760,-1344.75"/>
<text text-anchor="start" x="763" y="-1351" font-family="Courier New" font-size="10.00" fill="brown">start state = 0</text>
<polygon fill="none" stroke="black" points="757,-1341.75 757,-1387.25 859,-1387.25 859,-1341.75 757,-1341.75"/>
</g>
<!-- 0 -->
<g id="node2" class="node">
<title>0</title>
<polyline fill="none" stroke="darkred" points="904.88,-1353.25 919.12,-1353.25"/>
<text text-anchor="start" x="907.88" y="-1360.45" font-family="Courier New" font-weight="bold" font-size="14.00">0</text>
<path fill="none" stroke="darkred" d="M908.62,-1350.25C908.62,-1350.25 915.38,-1350.25 915.38,-1350.25 918.75,-1350.25 922.12,-1353.62 922.12,-1357 922.12,-1357 922.12,-1372 922.12,-1372 922.12,-1375.38 918.75,-1378.75 915.38,-1378.75 915.38,-1378.75 908.62,-1378.75 908.62,-1378.75 905.25,-1378.75 901.88,-1375.38 901.88,-1372 901.88,-1372 901.88,-1357 901.88,-1357 901.88,-1353.62 905.25,-1350.25 908.62,-1350.25"/>
</g>
<!-- present -->
<g id="node3" class="node">
<title>present</title>
<polyline fill="none" stroke="darkred" points="880.12,-1188 943.88,-1188"/>
<text text-anchor="start" x="883.12" y="-1195.2" font-family="Courier New" font-weight="bold" font-size="14.00">present</text>
<path fill="none" stroke="darkred" d="M886.62,-1185C886.62,-1185 937.38,-1185 937.38,-1185 942.12,-1185 946.88,-1189.75 946.88,-1194.5 946.88,-1194.5 946.88,-1204 946.88,-1204 946.88,-1208.75 942.12,-1213.5 937.38,-1213.5 937.38,-1213.5 886.62,-1213.5 886.62,-1213.5 881.88,-1213.5 877.12,-1208.75 877.12,-1204 877.12,-1204 877.12,-1194.5 877.12,-1194.5 877.12,-1189.75 881.88,-1185 886.62,-1185"/>
</g>
<!-- 0&#45;&gt;present -->
<g id="edge1" class="edge">
<title>0&#45;&gt;present</title>
<path fill="none" stroke="black" d="M912,-1346.34C912,-1318.34 912,-1262.56 912,-1228.61"/>
<polygon fill="black" stroke="black" points="915.5,-1228.7 912,-1218.7 908.5,-1228.7 915.5,-1228.7"/>
<polygon fill="none" stroke="black" points="915,-1284.75 915,-1303.5 1239,-1303.5 1239,-1284.75 915,-1284.75"/>
<text text-anchor="start" x="1029" y="-1292" font-family="Courier New" font-weight="bold" font-size="10.00" fill="orange">WAIT(0,SIG_MYID)</text>
<polygon fill="none" stroke="black" points="915,-1238.5 915,-1282.75 1239,-1282.75 1239,-1238.5 915,-1238.5"/>
<text text-anchor="start" x="918" y="-1270.25" font-family="Courier New" font-size="10.00" fill="blue"> &#160;&#160;&#160;&#160;active_character(?BPARM)?</text>
<text text-anchor="start" x="918" y="-1257.5" font-family="Courier New" font-size="10.00" fill="blue"> &#160;&#160;&#160;&#160;predicate player_characters(name,wisdom,gender);</text>
<text text-anchor="start" x="918" y="-1244.75" font-family="Courier New" font-size="10.00" fill="blue"> &#160;&#160;&#160;&#160;player_characters(BPARM,?LWISDOM,?WTEMP1)?</text>
<polygon fill="none" stroke="black" points="912,-1235.5 912,-1306.5 1242,-1306.5 1242,-1235.5 912,-1235.5"/>
</g>
<!-- setId -->
<g id="node21" class="node">
<title>setId</title>
<polyline fill="none" stroke="darkred" points="677.38,-815 724.62,-815"/>
<text text-anchor="start" x="680.38" y="-822.2" font-family="Courier New" font-weight="bold" font-size="14.00">setId</text>
<path fill="none" stroke="darkred" d="M683.88,-812C683.88,-812 718.12,-812 718.12,-812 722.88,-812 727.62,-816.75 727.62,-821.5 727.62,-821.5 727.62,-831 727.62,-831 727.62,-835.75 722.88,-840.5 718.12,-840.5 718.12,-840.5 683.88,-840.5 683.88,-840.5 679.12,-840.5 674.38,-835.75 674.38,-831 674.38,-831 674.38,-821.5 674.38,-821.5 674.38,-816.75 679.12,-812 683.88,-812"/>
</g>
<!-- present&#45;&gt;setId -->
<g id="edge18" class="edge">
<title>present&#45;&gt;setId</title>
<path fill="none" stroke="black" d="M869.42,-1197.9C810.84,-1196.41 710,-1189.89 687,-1163 610.79,-1073.92 662.84,-917.83 688.76,-854.81"/>
<polygon fill="black" stroke="black" points="691.86,-856.46 692.52,-845.89 685.41,-853.74 691.86,-856.46"/>
<polygon fill="none" stroke="black" points="690,-1141.25 690,-1160 1122,-1160 1122,-1141.25 690,-1141.25"/>
<text text-anchor="start" x="870" y="-1148.5" font-family="Courier New" font-weight="bold" font-size="10.00" fill="blue">Z_EPSILON(,)</text>
<polygon fill="none" stroke="black" points="690,-865.5 690,-1139.25 1122,-1139.25 1122,-865.5 690,-865.5"/>
<text text-anchor="start" x="693" y="-1126.75" font-family="Courier New" font-size="10.00" fill="blue"> &#160;&#160;&#160;&#160;&#160;&#160;</text>
<text text-anchor="start" x="693" y="-1114" font-family="Courier New" font-size="10.00" fill="blue"> &#160;//for back to back {statements} do not use semi&#45;colons between them, </text>
<text text-anchor="start" x="693" y="-1101.25" font-family="Courier New" font-size="10.00" fill="blue"> &#160;//only at the end of the code segment!</text>
<text text-anchor="start" x="693" y="-1088.5" font-family="Courier New" font-size="10.00" fill="blue"> &#160;if(WTEMP1 = fem){</text>
<text text-anchor="start" x="693" y="-1075.75" font-family="Courier New" font-size="10.00" fill="blue"> &#160;&#160;&#160;WPARM = F1;</text>
<text text-anchor="start" x="693" y="-1063" font-family="Courier New" font-size="10.00" fill="blue"> &#160;&#160;&#160;&#160;if(LWISDOM &gt;= 30){</text>
<text text-anchor="start" x="693" y="-1050.25" font-family="Courier New" font-size="10.00" fill="blue"> &#160;&#160;&#160;&#160;&#160;&#160;WPARM = F3;</text>
<text text-anchor="start" x="693" y="-1037.5" font-family="Courier New" font-size="10.00" fill="blue"> &#160;&#160;&#160;}</text>
<text text-anchor="start" x="693" y="-1024.75" font-family="Courier New" font-size="10.00" fill="blue"> &#160;&#160;&#160;&#160;if(LWISDOM &gt;= 20 &amp;&amp; LWISDOM &lt; 30){</text>
<text text-anchor="start" x="693" y="-1012" font-family="Courier New" font-size="10.00" fill="blue"> &#160;&#160;&#160;&#160;&#160;&#160;WPARM = F2;</text>
<text text-anchor="start" x="693" y="-999.25" font-family="Courier New" font-size="10.00" fill="blue"> &#160;&#160;&#160;}</text>
<text text-anchor="start" x="693" y="-986.5" font-family="Courier New" font-size="10.00" fill="blue"> &#160;}</text>
<text text-anchor="start" x="693" y="-973.75" font-family="Courier New" font-size="10.00" fill="blue"> &#160;if(WTEMP1 = mas){</text>
<text text-anchor="start" x="693" y="-961" font-family="Courier New" font-size="10.00" fill="blue"> &#160;&#160;&#160;WPARM = M1;</text>
<text text-anchor="start" x="693" y="-948.25" font-family="Courier New" font-size="10.00" fill="blue"> &#160;&#160;&#160;&#160;&#160;if(LWISDOM &gt;= 30){</text>
<text text-anchor="start" x="693" y="-935.5" font-family="Courier New" font-size="10.00" fill="blue"> &#160;&#160;&#160;&#160;&#160;&#160;WPARM = M3;</text>
<text text-anchor="start" x="693" y="-922.75" font-family="Courier New" font-size="10.00" fill="blue"> &#160;&#160;&#160;}</text>
<text text-anchor="start" x="693" y="-910" font-family="Courier New" font-size="10.00" fill="blue"> &#160;&#160;&#160;if(LWISDOM &gt;= 20 &amp;&amp; LWISDOM &lt; 30){</text>
<text text-anchor="start" x="693" y="-897.25" font-family="Courier New" font-size="10.00" fill="blue"> &#160;&#160;&#160;&#160;&#160;&#160;&#160;WPARM = M2;</text>
<text text-anchor="start" x="693" y="-884.5" font-family="Courier New" font-size="10.00" fill="blue"> &#160;&#160;&#160;}</text>
<text text-anchor="start" x="693" y="-871.75" font-family="Courier New" font-size="10.00" fill="blue"> &#160;}; </text>
<polygon fill="none" stroke="black" points="687,-862.5 687,-1163 1125,-1163 1125,-862.5 687,-862.5"/>
</g>
<!-- 100 -->
<g id="node4" class="node">
<title>100</title>
<polyline fill="none" stroke="darkred" points="153.62,-445.38 184.38,-445.38"/>
<text text-anchor="start" x="156.62" y="-452.57" font-family="Courier New" font-weight="bold" font-size="14.00">100</text>
<path fill="none" stroke="darkred" d="M160.12,-442.38C160.12,-442.38 177.88,-442.38 177.88,-442.38 182.62,-442.38 187.38,-447.12 187.38,-451.88 187.38,-451.88 187.38,-461.38 187.38,-461.38 187.38,-466.12 182.62,-470.88 177.88,-470.88 177.88,-470.88 160.12,-470.88 160.12,-470.88 155.38,-470.88 150.62,-466.12 150.62,-461.38 150.62,-461.38 150.62,-451.88 150.62,-451.88 150.62,-447.12 155.38,-442.38 160.12,-442.38"/>
</g>
<!-- empty -->
<g id="node5" class="node">
<title>empty</title>
<polyline fill="none" stroke="darkred" points="335.38,-248.25 382.62,-248.25"/>
<text text-anchor="start" x="338.38" y="-255.45" font-family="Courier New" font-weight="bold" font-size="14.00">empty</text>
<path fill="none" stroke="darkred" d="M341.88,-245.25C341.88,-245.25 376.12,-245.25 376.12,-245.25 380.88,-245.25 385.62,-250 385.62,-254.75 385.62,-254.75 385.62,-264.25 385.62,-264.25 385.62,-269 380.88,-273.75 376.12,-273.75 376.12,-273.75 341.88,-273.75 341.88,-273.75 337.12,-273.75 332.38,-269 332.38,-264.25 332.38,-264.25 332.38,-254.75 332.38,-254.75 332.38,-250 337.12,-245.25 341.88,-245.25"/>
</g>
<!-- 100&#45;&gt;empty -->
<g id="edge2" class="edge">
<title>100&#45;&gt;empty</title>
<path fill="none" stroke="black" d="M160.02,-438.65C145.79,-409.13 122.69,-348.13 154,-313 177.22,-286.95 277.39,-307.43 310,-295 316.89,-292.37 323.72,-288.56 330,-284.41"/>
<polygon fill="black" stroke="black" points="331.99,-287.29 338.1,-278.63 327.93,-281.59 331.99,-287.29"/>
<polygon fill="none" stroke="black" points="157,-349.5 157,-368.25 325,-368.25 325,-349.5 157,-349.5"/>
<text text-anchor="start" x="205" y="-356.75" font-family="Courier New" font-weight="bold" font-size="10.00" fill="blue">Z_EPSILON(,)</text>
<polygon fill="none" stroke="black" points="157,-316 157,-347.5 325,-347.5 325,-316 157,-316"/>
<text text-anchor="start" x="160" y="-335" font-family="Courier New" font-size="10.00" fill="blue"> &#160;&#160;&#160;SHOW(0);</text>
<text text-anchor="start" x="160" y="-322.25" font-family="Courier New" font-size="10.00" fill="blue"> &#160;&#160;&#160;SIGNAL(WIP4,SIG_CLEAR);</text>
<polygon fill="none" stroke="black" points="154,-313 154,-371.25 328,-371.25 328,-313 154,-313"/>
</g>
<!-- sitting -->
<g id="node20" class="node">
<title>sitting</title>
<polyline fill="none" stroke="darkred" stroke-width="3" points="887.62,-616 952.38,-616"/>
<text text-anchor="start" x="891.12" y="-623.7" font-family="Courier New" font-weight="bold" font-size="14.00">sitting</text>
<path fill="none" stroke="darkred" stroke-width="3" d="M893.79,-611C893.79,-611 946.21,-611 946.21,-611 951.79,-611 957.38,-616.58 957.38,-622.17 957.38,-622.17 957.38,-633.33 957.38,-633.33 957.38,-638.92 951.79,-644.5 946.21,-644.5 946.21,-644.5 893.79,-644.5 893.79,-644.5 888.21,-644.5 882.62,-638.92 882.62,-633.33 882.62,-633.33 882.62,-622.17 882.62,-622.17 882.62,-616.58 888.21,-611 893.79,-611"/>
</g>
<!-- empty&#45;&gt;sitting -->
<g id="edge14" class="edge">
<title>empty&#45;&gt;sitting</title>
<path fill="none" stroke="black" d="M354.27,-277.52C342.97,-321.95 318.85,-443.53 368,-524 398.23,-573.49 426.57,-570.43 482,-587.5 551.47,-608.9 759.91,-620.18 862.16,-624.55"/>
<polygon fill="black" stroke="black" points="861.84,-628.04 871.98,-624.97 862.14,-621.05 861.84,-628.04"/>
<text text-anchor="start" x="372" y="-454.5" font-family="Courier New" font-weight="bold" font-size="10.00" fill="orange">WAIT(,SIG_SHOW)</text>
</g>
<!-- 20 -->
<g id="node6" class="node">
<title>20</title>
<polyline fill="none" stroke="darkred" points="714.75,-330.88 737.25,-330.88"/>
<text text-anchor="start" x="717.75" y="-338.07" font-family="Courier New" font-weight="bold" font-size="14.00">20</text>
<path fill="none" stroke="darkred" d="M721.25,-327.88C721.25,-327.88 730.75,-327.88 730.75,-327.88 735.5,-327.88 740.25,-332.62 740.25,-337.38 740.25,-337.38 740.25,-346.88 740.25,-346.88 740.25,-351.62 735.5,-356.38 730.75,-356.38 730.75,-356.38 721.25,-356.38 721.25,-356.38 716.5,-356.38 711.75,-351.62 711.75,-346.88 711.75,-346.88 711.75,-337.38 711.75,-337.38 711.75,-332.62 716.5,-327.88 721.25,-327.88"/>
</g>
<!-- playForward -->
<g id="node7" class="node">
<title>playForward</title>
<polyline fill="none" stroke="darkred" points="1167.62,-7 1264.38,-7"/>
<text text-anchor="start" x="1170.62" y="-14.2" font-family="Courier New" font-weight="bold" font-size="14.00">playForward</text>
<path fill="none" stroke="darkred" d="M1174.12,-4C1174.12,-4 1257.88,-4 1257.88,-4 1262.62,-4 1267.38,-8.75 1267.38,-13.5 1267.38,-13.5 1267.38,-23 1267.38,-23 1267.38,-27.75 1262.62,-32.5 1257.88,-32.5 1257.88,-32.5 1174.12,-32.5 1174.12,-32.5 1169.38,-32.5 1164.62,-27.75 1164.62,-23 1164.62,-23 1164.62,-13.5 1164.62,-13.5 1164.62,-8.75 1169.38,-4 1174.12,-4"/>
</g>
<!-- 20&#45;&gt;playForward -->
<g id="edge3" class="edge">
<title>20&#45;&gt;playForward</title>
<path fill="none" stroke="black" d="M724.68,-324.03C722.78,-286.76 723.79,-197.51 771,-147.75 869.76,-43.66 1047.04,-22.25 1145.4,-18.83"/>
<polygon fill="black" stroke="black" points="1145.29,-22.33 1155.19,-18.54 1145.09,-15.33 1145.29,-22.33"/>
<text text-anchor="start" x="775" y="-174.75" font-family="Courier New" font-weight="bold" font-size="10.00" fill="blue">ASSIGN(WSPRITE,happy)</text>
</g>
<!-- playForward&#45;&gt;sitting -->
<g id="edge16" class="edge">
<title>playForward&#45;&gt;sitting</title>
<path fill="none" stroke="black" d="M1156.94,-20.55C913.42,-26.3 0,-51.79 0,-110.5 0,-457.62 0,-457.62 0,-457.62 0,-557 88.2,-554.69 182,-587.5 245.42,-609.68 699.17,-621.84 862.01,-625.53"/>
<polygon fill="black" stroke="black" points="861.64,-629.02 871.71,-625.75 861.79,-622.02 861.64,-629.02"/>
<polygon fill="none" stroke="black" points="3,-273.25 3,-292 303,-292 303,-273.25 3,-273.25"/>
<text text-anchor="start" x="105" y="-280.5" font-family="Courier New" font-weight="bold" font-size="10.00" fill="blue">ASSIGN(BFRAME,0)</text>
<polygon fill="none" stroke="black" points="3,-227 3,-271.25 303,-271.25 303,-227 3,-227"/>
<text text-anchor="start" x="6" y="-258.75" font-family="Courier New" font-size="10.00" fill="blue"> &#160;&#160;&#160;MAP(WSPRITE,WPARM);</text>
<text text-anchor="start" x="6" y="-246" font-family="Courier New" font-size="10.00" fill="blue"> &#160;&#160;&#160;SHOW(WSPRITE);</text>
<text text-anchor="start" x="6" y="-233.25" font-family="Courier New" font-size="10.00" fill="blue"> &#160;&#160;&#160;ANIMATE(0,V_REWIND); //PLAY FORWARD THEN BACK</text>
<polygon fill="none" stroke="black" points="0,-224 0,-295 306,-295 306,-224 0,-224"/>
</g>
<!-- 21 -->
<g id="node8" class="node">
<title>21</title>
<polyline fill="none" stroke="darkred" points="1288.75,-100.25 1311.25,-100.25"/>
<text text-anchor="start" x="1291.75" y="-107.45" font-family="Courier New" font-weight="bold" font-size="14.00">21</text>
<path fill="none" stroke="darkred" d="M1295.25,-97.25C1295.25,-97.25 1304.75,-97.25 1304.75,-97.25 1309.5,-97.25 1314.25,-102 1314.25,-106.75 1314.25,-106.75 1314.25,-116.25 1314.25,-116.25 1314.25,-121 1309.5,-125.75 1304.75,-125.75 1304.75,-125.75 1295.25,-125.75 1295.25,-125.75 1290.5,-125.75 1285.75,-121 1285.75,-116.25 1285.75,-116.25 1285.75,-106.75 1285.75,-106.75 1285.75,-102 1290.5,-97.25 1295.25,-97.25"/>
</g>
<!-- 21&#45;&gt;playForward -->
<g id="edge4" class="edge">
<title>21&#45;&gt;playForward</title>
<path fill="none" stroke="black" d="M1284.2,-93.34C1271.53,-79.57 1253.56,-60.05 1239.25,-44.5"/>
<polygon fill="black" stroke="black" points="1242.1,-42.44 1232.75,-37.45 1236.95,-47.18 1242.1,-42.44"/>
<text text-anchor="start" x="1269" y="-62.75" font-family="Courier New" font-weight="bold" font-size="10.00" fill="blue">ASSIGN(WSPRITE,hurt)</text>
</g>
<!-- 22 -->
<g id="node9" class="node">
<title>22</title>
<polyline fill="none" stroke="darkred" points="659.75,-445.38 682.25,-445.38"/>
<text text-anchor="start" x="662.75" y="-452.57" font-family="Courier New" font-weight="bold" font-size="14.00">22</text>
<path fill="none" stroke="darkred" d="M666.25,-442.38C666.25,-442.38 675.75,-442.38 675.75,-442.38 680.5,-442.38 685.25,-447.12 685.25,-451.88 685.25,-451.88 685.25,-461.38 685.25,-461.38 685.25,-466.12 680.5,-470.88 675.75,-470.88 675.75,-470.88 666.25,-470.88 666.25,-470.88 661.5,-470.88 656.75,-466.12 656.75,-461.38 656.75,-461.38 656.75,-451.88 656.75,-451.88 656.75,-447.12 661.5,-442.38 666.25,-442.38"/>
</g>
<!-- playOnce -->
<g id="node10" class="node">
<title>playOnce</title>
<polyline fill="none" stroke="darkred" points="485,-248.25 557,-248.25"/>
<text text-anchor="start" x="488" y="-255.45" font-family="Courier New" font-weight="bold" font-size="14.00">playOnce</text>
<path fill="none" stroke="darkred" d="M491.5,-245.25C491.5,-245.25 550.5,-245.25 550.5,-245.25 555.25,-245.25 560,-250 560,-254.75 560,-254.75 560,-264.25 560,-264.25 560,-269 555.25,-273.75 550.5,-273.75 550.5,-273.75 491.5,-273.75 491.5,-273.75 486.75,-273.75 482,-269 482,-264.25 482,-264.25 482,-254.75 482,-254.75 482,-250 486.75,-245.25 491.5,-245.25"/>
</g>
<!-- 22&#45;&gt;playOnce -->
<g id="edge5" class="edge">
<title>22&#45;&gt;playOnce</title>
<path fill="none" stroke="black" d="M664.76,-438.62C658.34,-423.45 646.86,-401.76 630,-389.25 604.89,-370.63 585.14,-392.27 562,-371.25 538.53,-349.92 528.45,-313.93 524.15,-288.79"/>
<polygon fill="black" stroke="black" points="527.62,-288.3 522.69,-278.92 520.69,-289.33 527.62,-288.3"/>
<text text-anchor="start" x="566" y="-340" font-family="Courier New" font-weight="bold" font-size="10.00" fill="blue">ASSIGN(WSPRITE,kiss)</text>
</g>
<!-- playOnce&#45;&gt;sitting -->
<g id="edge17" class="edge">
<title>playOnce&#45;&gt;sitting</title>
<path fill="none" stroke="black" d="M513.46,-277.63C489.24,-335.42 420.94,-523.15 525,-587.5 579.91,-621.46 766.07,-626.73 861.91,-627.12"/>
<polygon fill="black" stroke="black" points="861.62,-630.62 871.63,-627.14 861.63,-623.62 861.62,-630.62"/>
<polygon fill="none" stroke="black" points="481,-470.38 481,-489.12 625,-489.12 625,-470.38 481,-470.38"/>
<text text-anchor="start" x="505" y="-477.62" font-family="Courier New" font-weight="bold" font-size="10.00" fill="blue">ASSIGN(BFRAME,0)</text>
<polygon fill="none" stroke="black" points="481,-424.12 481,-468.38 625,-468.38 625,-424.12 481,-424.12"/>
<text text-anchor="start" x="484" y="-455.88" font-family="Courier New" font-size="10.00" fill="blue"> &#160;&#160;&#160;MAP(WSPRITE,WPARM);</text>
<text text-anchor="start" x="484" y="-443.12" font-family="Courier New" font-size="10.00" fill="blue"> &#160;&#160;&#160;SHOW(0,WSPRITE);</text>
<text text-anchor="start" x="484" y="-430.38" font-family="Courier New" font-size="10.00" fill="blue"> &#160;&#160;&#160;ANIMATE(0,0);</text>
<polygon fill="none" stroke="black" points="478,-421.12 478,-492.12 628,-492.12 628,-421.12 478,-421.12"/>
</g>
<!-- 23 -->
<g id="node11" class="node">
<title>23</title>
<polyline fill="none" stroke="darkred" points="773.75,-330.88 796.25,-330.88"/>
<text text-anchor="start" x="776.75" y="-338.07" font-family="Courier New" font-weight="bold" font-size="14.00">23</text>
<path fill="none" stroke="darkred" d="M780.25,-327.88C780.25,-327.88 789.75,-327.88 789.75,-327.88 794.5,-327.88 799.25,-332.62 799.25,-337.38 799.25,-337.38 799.25,-346.88 799.25,-346.88 799.25,-351.62 794.5,-356.38 789.75,-356.38 789.75,-356.38 780.25,-356.38 780.25,-356.38 775.5,-356.38 770.75,-351.62 770.75,-346.88 770.75,-346.88 770.75,-337.38 770.75,-337.38 770.75,-332.62 775.5,-327.88 780.25,-327.88"/>
</g>
<!-- 23&#45;&gt;playForward -->
<g id="edge6" class="edge">
<title>23&#45;&gt;playForward</title>
<path fill="none" stroke="black" d="M798.8,-323.91C828.29,-287.89 900.8,-203.35 975,-147.75 1045.21,-95.14 1071.51,-95.65 1149,-54.5 1156.84,-50.34 1165.2,-45.92 1173.26,-41.67"/>
<polygon fill="black" stroke="black" points="1174.7,-44.87 1181.92,-37.12 1171.44,-38.68 1174.7,-44.87"/>
<text text-anchor="start" x="979" y="-174.75" font-family="Courier New" font-weight="bold" font-size="10.00" fill="blue">ASSIGN(WSPRITE,mad)</text>
</g>
<!-- 24 -->
<g id="node12" class="node">
<title>24</title>
<polyline fill="none" stroke="darkred" points="1121.75,-165.62 1144.25,-165.62"/>
<text text-anchor="start" x="1124.75" y="-172.82" font-family="Courier New" font-weight="bold" font-size="14.00">24</text>
<path fill="none" stroke="darkred" d="M1128.25,-162.62C1128.25,-162.62 1137.75,-162.62 1137.75,-162.62 1142.5,-162.62 1147.25,-167.38 1147.25,-172.12 1147.25,-172.12 1147.25,-181.62 1147.25,-181.62 1147.25,-186.38 1142.5,-191.12 1137.75,-191.12 1137.75,-191.12 1128.25,-191.12 1128.25,-191.12 1123.5,-191.12 1118.75,-186.38 1118.75,-181.62 1118.75,-181.62 1118.75,-172.12 1118.75,-172.12 1118.75,-167.38 1123.5,-162.62 1128.25,-162.62"/>
</g>
<!-- 24&#45;&gt;playForward -->
<g id="edge7" class="edge">
<title>24&#45;&gt;playForward</title>
<path fill="none" stroke="black" d="M1131.65,-158.84C1130.99,-141.48 1131.96,-114.2 1142,-93.25 1151.32,-73.8 1167.91,-56.48 1183.02,-43.49"/>
<polygon fill="black" stroke="black" points="1185.02,-46.38 1190.51,-37.33 1180.57,-40.98 1185.02,-46.38"/>
<text text-anchor="start" x="1146" y="-109.38" font-family="Courier New" font-weight="bold" font-size="10.00" fill="blue">ASSIGN(WSPRITE,sad)</text>
</g>
<!-- 25 -->
<g id="node13" class="node">
<title>25</title>
<polyline fill="none" stroke="darkred" points="1608.75,-330.88 1631.25,-330.88"/>
<text text-anchor="start" x="1611.75" y="-338.07" font-family="Courier New" font-weight="bold" font-size="14.00">25</text>
<path fill="none" stroke="darkred" d="M1615.25,-327.88C1615.25,-327.88 1624.75,-327.88 1624.75,-327.88 1629.5,-327.88 1634.25,-332.62 1634.25,-337.38 1634.25,-337.38 1634.25,-346.88 1634.25,-346.88 1634.25,-351.62 1629.5,-356.38 1624.75,-356.38 1624.75,-356.38 1615.25,-356.38 1615.25,-356.38 1610.5,-356.38 1605.75,-351.62 1605.75,-346.88 1605.75,-346.88 1605.75,-337.38 1605.75,-337.38 1605.75,-332.62 1610.5,-327.88 1615.25,-327.88"/>
</g>
<!-- 25&#45;&gt;playForward -->
<g id="edge8" class="edge">
<title>25&#45;&gt;playForward</title>
<path fill="none" stroke="black" d="M1619.75,-323.9C1618.37,-287.5 1610.48,-201.69 1568,-147.75 1499.86,-61.23 1367.91,-32.95 1286.34,-23.71"/>
<polygon fill="black" stroke="black" points="1287,-20.26 1276.69,-22.69 1286.26,-27.22 1287,-20.26"/>
<text text-anchor="start" x="1602" y="-174.75" font-family="Courier New" font-weight="bold" font-size="10.00" fill="blue">ASSIGN(WSPRITE,surprised)</text>
</g>
<!-- 26 -->
<g id="node14" class="node">
<title>26</title>
<polyline fill="none" stroke="darkred" points="1781.75,-165.62 1804.25,-165.62"/>
<text text-anchor="start" x="1784.75" y="-172.82" font-family="Courier New" font-weight="bold" font-size="14.00">26</text>
<path fill="none" stroke="darkred" d="M1788.25,-162.62C1788.25,-162.62 1797.75,-162.62 1797.75,-162.62 1802.5,-162.62 1807.25,-167.38 1807.25,-172.12 1807.25,-172.12 1807.25,-181.62 1807.25,-181.62 1807.25,-186.38 1802.5,-191.12 1797.75,-191.12 1797.75,-191.12 1788.25,-191.12 1788.25,-191.12 1783.5,-191.12 1778.75,-186.38 1778.75,-181.62 1778.75,-181.62 1778.75,-172.12 1778.75,-172.12 1778.75,-167.38 1783.5,-162.62 1788.25,-162.62"/>
</g>
<!-- 26&#45;&gt;playForward -->
<g id="edge9" class="edge">
<title>26&#45;&gt;playForward</title>
<path fill="none" stroke="black" d="M1768.45,-158.67C1763.07,-155.01 1757.37,-151.2 1752,-147.75 1738.92,-139.35 1735.22,-137.93 1722,-129.75 1669.1,-97.02 1662.86,-74.61 1604,-54.5 1547.11,-35.07 1382.12,-25.62 1286.61,-21.67"/>
<polygon fill="black" stroke="black" points="1286.96,-18.18 1276.83,-21.27 1286.68,-25.17 1286.96,-18.18"/>
<text text-anchor="start" x="1726" y="-109.38" font-family="Courier New" font-weight="bold" font-size="10.00" fill="blue">ASSIGN(WSPRITE,stress)</text>
</g>
<!-- 27 -->
<g id="node15" class="node">
<title>27</title>
<polyline fill="none" stroke="darkred" points="1886.75,-100.25 1909.25,-100.25"/>
<text text-anchor="start" x="1889.75" y="-107.45" font-family="Courier New" font-weight="bold" font-size="14.00">27</text>
<path fill="none" stroke="darkred" d="M1893.25,-97.25C1893.25,-97.25 1902.75,-97.25 1902.75,-97.25 1907.5,-97.25 1912.25,-102 1912.25,-106.75 1912.25,-106.75 1912.25,-116.25 1912.25,-116.25 1912.25,-121 1907.5,-125.75 1902.75,-125.75 1902.75,-125.75 1893.25,-125.75 1893.25,-125.75 1888.5,-125.75 1883.75,-121 1883.75,-116.25 1883.75,-116.25 1883.75,-106.75 1883.75,-106.75 1883.75,-102 1888.5,-97.25 1893.25,-97.25"/>
</g>
<!-- 27&#45;&gt;playForward -->
<g id="edge10" class="edge">
<title>27&#45;&gt;playForward</title>
<path fill="none" stroke="black" d="M1871,-100.92C1833.43,-88.02 1762.98,-65.44 1701,-54.5 1555.15,-28.75 1381.43,-21.74 1286.54,-19.87"/>
<polygon fill="black" stroke="black" points="1286.66,-16.38 1276.6,-19.7 1286.53,-23.38 1286.66,-16.38"/>
<text text-anchor="start" x="1792" y="-62.75" font-family="Courier New" font-weight="bold" font-size="10.00" fill="blue">ASSIGN(WSPRITE,wave)</text>
</g>
<!-- 30 -->
<g id="node16" class="node">
<title>30</title>
<polyline fill="none" stroke="darkred" points="1058.75,-445.38 1081.25,-445.38"/>
<text text-anchor="start" x="1061.75" y="-452.57" font-family="Courier New" font-weight="bold" font-size="14.00">30</text>
<path fill="none" stroke="darkred" d="M1065.25,-442.38C1065.25,-442.38 1074.75,-442.38 1074.75,-442.38 1079.5,-442.38 1084.25,-447.12 1084.25,-451.88 1084.25,-451.88 1084.25,-461.38 1084.25,-461.38 1084.25,-466.12 1079.5,-470.88 1074.75,-470.88 1074.75,-470.88 1065.25,-470.88 1065.25,-470.88 1060.5,-470.88 1055.75,-466.12 1055.75,-461.38 1055.75,-461.38 1055.75,-451.88 1055.75,-451.88 1055.75,-447.12 1060.5,-442.38 1065.25,-442.38"/>
</g>
<!-- playDead -->
<g id="node17" class="node">
<title>playDead</title>
<polyline fill="none" stroke="darkred" points="948,-248.25 1020,-248.25"/>
<text text-anchor="start" x="951" y="-255.45" font-family="Courier New" font-weight="bold" font-size="14.00">playDead</text>
<path fill="none" stroke="darkred" d="M954.5,-245.25C954.5,-245.25 1013.5,-245.25 1013.5,-245.25 1018.25,-245.25 1023,-250 1023,-254.75 1023,-254.75 1023,-264.25 1023,-264.25 1023,-269 1018.25,-273.75 1013.5,-273.75 1013.5,-273.75 954.5,-273.75 954.5,-273.75 949.75,-273.75 945,-269 945,-264.25 945,-264.25 945,-254.75 945,-254.75 945,-250 949.75,-245.25 954.5,-245.25"/>
</g>
<!-- 30&#45;&gt;playDead -->
<g id="edge11" class="edge">
<title>30&#45;&gt;playDead</title>
<path fill="none" stroke="black" d="M1062.79,-438.46C1055.92,-423.8 1044.34,-402.98 1029,-389.25 1015.07,-376.79 1001.49,-386.72 991,-371.25 974.63,-347.1 975.18,-312.78 978.35,-288.76"/>
<polygon fill="black" stroke="black" points="981.78,-289.49 979.89,-279.06 974.87,-288.39 981.78,-289.49"/>
<text text-anchor="start" x="995" y="-340" font-family="Courier New" font-weight="bold" font-size="10.00" fill="blue">ASSIGN(WSPRITE,dead)</text>
</g>
<!-- playDead&#45;&gt;sitting -->
<g id="edge15" class="edge">
<title>playDead&#45;&gt;sitting</title>
<path fill="none" stroke="black" d="M951.32,-277.6C915.37,-298.47 859.58,-337.49 836,-389.25 811.17,-443.75 799.3,-476.67 836,-524 855.68,-549.39 884.31,-518.31 906,-542 918.68,-555.85 922.28,-576.58 922.65,-594.08"/>
<polygon fill="black" stroke="black" points="919.15,-593.98 922.5,-604.03 926.15,-594.09 919.15,-593.98"/>
<polygon fill="none" stroke="black" points="839,-502.25 839,-521 1031,-521 1031,-502.25 839,-502.25"/>
<text text-anchor="start" x="887" y="-509.5" font-family="Courier New" font-weight="bold" font-size="10.00" fill="blue">ASSIGN(BFRAME,0)</text>
<polygon fill="none" stroke="black" points="839,-392.25 839,-500.25 1031,-500.25 1031,-392.25 839,-392.25"/>
<text text-anchor="start" x="842" y="-487.75" font-family="Courier New" font-size="10.00" fill="blue"> &#160;&#160;&#160;MAP(WSPRITE,WPARM);</text>
<text text-anchor="start" x="842" y="-475" font-family="Courier New" font-size="10.00" fill="blue"> &#160;&#160;&#160;SHOW(0,WSPRITE);</text>
<text text-anchor="start" x="842" y="-462.25" font-family="Courier New" font-size="10.00" fill="blue"> &#160;&#160;&#160;VIDEO(0,WSPRITE);</text>
<text text-anchor="start" x="842" y="-449.5" font-family="Courier New" font-size="10.00" fill="blue"> &#160;&#160;&#160;ANIMATE(0,0);</text>
<text text-anchor="start" x="842" y="-436.75" font-family="Courier New" font-size="10.00" fill="blue"> &#160;&#160;&#160;ASSIGN(LENERGY,1);</text>
<text text-anchor="start" x="842" y="-424" font-family="Courier New" font-size="10.00" fill="blue"> &#160;&#160;&#160;ASSIGN(LWEALTH,0);</text>
<text text-anchor="start" x="842" y="-411.25" font-family="Courier New" font-size="10.00" fill="blue"> &#160;&#160;&#160;SIGNAL(SMP_VIAL,SIG_DRAIN);</text>
<text text-anchor="start" x="842" y="-398.5" font-family="Courier New" font-size="10.00" fill="blue"> &#160;&#160;&#160;LOADVIEW(IDV_VIL8);</text>
<polygon fill="none" stroke="black" points="836,-389.25 836,-524 1034,-524 1034,-389.25 836,-389.25"/>
</g>
<!-- 50 -->
<g id="node18" class="node">
<title>50</title>
<polyline fill="none" stroke="darkred" points="1338.75,-445.38 1361.25,-445.38"/>
<text text-anchor="start" x="1341.75" y="-452.57" font-family="Courier New" font-weight="bold" font-size="14.00">50</text>
<path fill="none" stroke="darkred" d="M1345.25,-442.38C1345.25,-442.38 1354.75,-442.38 1354.75,-442.38 1359.5,-442.38 1364.25,-447.12 1364.25,-451.88 1364.25,-451.88 1364.25,-461.38 1364.25,-461.38 1364.25,-466.12 1359.5,-470.88 1354.75,-470.88 1354.75,-470.88 1345.25,-470.88 1345.25,-470.88 1340.5,-470.88 1335.75,-466.12 1335.75,-461.38 1335.75,-461.38 1335.75,-451.88 1335.75,-451.88 1335.75,-447.12 1340.5,-442.38 1345.25,-442.38"/>
</g>
<!-- 51 -->
<g id="node19" class="node">
<title>51</title>
<polyline fill="none" stroke="darkred" points="1338.75,-248.25 1361.25,-248.25"/>
<text text-anchor="start" x="1341.75" y="-255.45" font-family="Courier New" font-weight="bold" font-size="14.00">51</text>
<path fill="none" stroke="darkred" d="M1345.25,-245.25C1345.25,-245.25 1354.75,-245.25 1354.75,-245.25 1359.5,-245.25 1364.25,-250 1364.25,-254.75 1364.25,-254.75 1364.25,-264.25 1364.25,-264.25 1364.25,-269 1359.5,-273.75 1354.75,-273.75 1354.75,-273.75 1345.25,-273.75 1345.25,-273.75 1340.5,-273.75 1335.75,-269 1335.75,-264.25 1335.75,-264.25 1335.75,-254.75 1335.75,-254.75 1335.75,-250 1340.5,-245.25 1345.25,-245.25"/>
</g>
<!-- 50&#45;&gt;51 -->
<g id="edge12" class="edge">
<title>50&#45;&gt;51</title>
<path fill="none" stroke="black" d="M1354.21,-438.46C1360.22,-411.63 1369.92,-358.14 1364,-313 1362.93,-304.83 1360.96,-296.12 1358.83,-288.2"/>
<polygon fill="black" stroke="black" points="1362.24,-287.39 1356.1,-278.75 1355.51,-289.33 1362.24,-287.39"/>
<text text-anchor="start" x="1369" y="-340" font-family="Courier New" font-weight="bold" font-size="10.00" fill="blue">VIDEO(0,IDS_EXPLODE1)</text>
</g>
<!-- 51&#45;&gt;21 -->
<g id="edge13" class="edge">
<title>51&#45;&gt;21</title>
<path fill="none" stroke="black" d="M1344.17,-241.47C1335.62,-216.52 1319.62,-169.78 1309.4,-139.95"/>
<polygon fill="black" stroke="black" points="1312.84,-139.18 1306.29,-130.86 1306.22,-141.45 1312.84,-139.18"/>
<polygon fill="none" stroke="black" points="1333,-184.25 1333,-203 1561,-203 1561,-184.25 1333,-184.25"/>
<text text-anchor="start" x="1372" y="-191.5" font-family="Courier New" font-weight="bold" font-size="10.00" fill="blue">PLAYWAVE(0,SOUND_EXPLODE)</text>
<polygon fill="none" stroke="black" points="1333,-150.75 1333,-182.25 1561,-182.25 1561,-150.75 1333,-150.75"/>
<text text-anchor="start" x="1336" y="-169.75" font-family="Courier New" font-size="10.00" fill="blue"> &#160;&#160;&#160;&#160;&#160;&#160;&#160;&#160;&#160;&#160;&#160;SUBI(LENERGY,1);</text>
<text text-anchor="start" x="1336" y="-157" font-family="Courier New" font-size="10.00" fill="blue"> &#160;&#160;&#160;&#160;&#160;&#160;&#160;&#160;&#160;&#160;&#160;SIGNAL(SID_AURA,SIG_SUB);</text>
<polygon fill="none" stroke="black" points="1330,-147.75 1330,-206 1564,-206 1564,-147.75 1330,-147.75"/>
</g>
<!-- sitting&#45;&gt;present -->
<g id="edge31" class="edge">
<title>sitting&#45;&gt;present</title>
<path fill="none" stroke="black" d="M966.74,-630.99C1020.92,-634.69 1105.32,-644.19 1125,-668 1265.18,-837.56 1267.3,-995.22 1125,-1163 1104.98,-1186.6 1022.17,-1194.42 965.9,-1197"/>
<polygon fill="black" stroke="black" points="966.04,-1193.49 956.19,-1197.4 966.32,-1200.49 966.04,-1193.49"/>
<text text-anchor="start" x="1224" y="-824.12" font-family="Courier New" font-weight="bold" font-size="10.00" fill="orange">WAIT(0,0)</text>
</g>
<!-- sitting&#45;&gt;100 -->
<g id="edge30" class="edge">
<title>sitting&#45;&gt;100</title>
<path fill="none" stroke="black" d="M873.25,-627.05C724.77,-627.6 270.59,-626.08 218,-587.5 185.75,-563.84 174.72,-516.27 170.95,-485.74"/>
<polygon fill="black" stroke="black" points="174.46,-485.67 169.96,-476.08 167.5,-486.39 174.46,-485.67"/>
<text text-anchor="start" x="222" y="-562.62" font-family="Courier New" font-weight="bold" font-size="10.00" fill="orange">WAIT(0,SIG_CLEAR)</text>
</g>
<!-- sitting&#45;&gt;20 -->
<g id="edge20" class="edge">
<title>sitting&#45;&gt;20</title>
<path fill="none" stroke="black" d="M873.32,-626.04C810.41,-623.99 703.44,-616.24 679,-587.5 665.9,-572.09 669.31,-559.75 679,-542 686.09,-529.02 699.24,-536.6 707,-524 736.06,-476.82 734.21,-409.32 730.17,-371.53"/>
<polygon fill="black" stroke="black" points="733.67,-371.38 729,-361.88 726.72,-372.22 733.67,-371.38"/>
<text text-anchor="start" x="683" y="-562.62" font-family="Courier New" font-weight="bold" font-size="10.00" fill="orange">WAIT(0,SIG_HAPPY)</text>
</g>
<!-- sitting&#45;&gt;21 -->
<g id="edge21" class="edge">
<title>sitting&#45;&gt;21</title>
<path fill="none" stroke="black" d="M966.73,-622.72C1021.76,-617.22 1109.09,-605.89 1136,-587.5 1155.6,-574.1 1144.66,-555.78 1164,-542 1194.04,-520.61 1221.18,-552.16 1245,-524 1260.16,-506.08 1252.86,-336.27 1256,-313 1264.4,-250.72 1282.1,-179.11 1292.31,-140.57"/>
<polygon fill="black" stroke="black" points="1295.68,-141.52 1294.89,-130.96 1288.92,-139.71 1295.68,-141.52"/>
<text text-anchor="start" x="1260" y="-340" font-family="Courier New" font-weight="bold" font-size="10.00" fill="orange">WAIT(0,SIG_HURT)</text>
</g>
<!-- sitting&#45;&gt;22 -->
<g id="edge22" class="edge">
<title>sitting&#45;&gt;22</title>
<path fill="none" stroke="black" d="M873.24,-625.24C778.15,-621.7 569.4,-611.27 548,-587.5 475.35,-506.78 625.04,-527.52 630,-524 643.51,-514.42 653.47,-498.84 660.19,-485.19"/>
<polygon fill="black" stroke="black" points="663.33,-486.73 664.26,-476.18 656.95,-483.85 663.33,-486.73"/>
<text text-anchor="start" x="552" y="-562.62" font-family="Courier New" font-weight="bold" font-size="10.00" fill="orange">WAIT(0,SIG_KISS)</text>
</g>
<!-- sitting&#45;&gt;23 -->
<g id="edge23" class="edge">
<title>sitting&#45;&gt;23</title>
<path fill="none" stroke="black" d="M873.36,-622.14C850.08,-617.3 823.61,-607.46 808,-587.5 782.26,-554.59 782.46,-428.69 783.96,-371.59"/>
<polygon fill="black" stroke="black" points="787.46,-371.81 784.26,-361.7 780.46,-371.6 787.46,-371.81"/>
<text text-anchor="start" x="812" y="-562.62" font-family="Courier New" font-weight="bold" font-size="10.00" fill="orange">WAIT(0,SIG_MAD)</text>
</g>
<!-- sitting&#45;&gt;24 -->
<g id="edge24" class="edge">
<title>sitting&#45;&gt;24</title>
<path fill="none" stroke="black" d="M966.52,-623.58C1016.89,-619.1 1092.56,-608.92 1111,-587.5 1160,-530.59 1143.2,-289.44 1135.75,-206.24"/>
<polygon fill="black" stroke="black" points="1139.25,-206.08 1134.85,-196.44 1132.28,-206.72 1139.25,-206.08"/>
<text text-anchor="start" x="1148" y="-454.5" font-family="Courier New" font-weight="bold" font-size="10.00" fill="orange">WAIT(0,SIG_SAD)</text>
</g>
<!-- sitting&#45;&gt;25 -->
<g id="edge25" class="edge">
<title>sitting&#45;&gt;25</title>
<path fill="none" stroke="black" d="M966.65,-625.91C1120.78,-622.9 1605.25,-611.55 1628,-587.5 1656.73,-557.13 1636.51,-428.8 1625.66,-371.25"/>
<polygon fill="black" stroke="black" points="1629.13,-370.75 1623.79,-361.59 1622.25,-372.08 1629.13,-370.75"/>
<text text-anchor="start" x="1645" y="-562.62" font-family="Courier New" font-weight="bold" font-size="10.00" fill="orange">WAIT(0,SIG_SURPRISED)</text>
</g>
<!-- sitting&#45;&gt;26 -->
<g id="edge26" class="edge">
<title>sitting&#45;&gt;26</title>
<path fill="none" stroke="black" d="M966.84,-626.35C1142.06,-624.63 1750.27,-616.56 1779,-587.5 1831.87,-534.02 1806.98,-289.59 1796.69,-206"/>
<polygon fill="black" stroke="black" points="1800.17,-205.65 1795.45,-196.16 1793.23,-206.52 1800.17,-205.65"/>
<text text-anchor="start" x="1815" y="-454.5" font-family="Courier New" font-weight="bold" font-size="10.00" fill="orange">WAIT(0,SIG_STRESS)</text>
</g>
<!-- sitting&#45;&gt;27 -->
<g id="edge27" class="edge">
<title>sitting&#45;&gt;27</title>
<path fill="none" stroke="black" d="M966.74,-627.25C1125.47,-628.54 1642.84,-629.35 1803,-587.5 1863.67,-571.64 1896.12,-577.4 1929,-524 2006.05,-398.89 1939.75,-210.15 1910.33,-140.01"/>
<polygon fill="black" stroke="black" points="1913.55,-138.63 1906.39,-130.83 1907.12,-141.4 1913.55,-138.63"/>
<text text-anchor="start" x="1968" y="-340" font-family="Courier New" font-weight="bold" font-size="10.00" fill="orange">WAIT(0,SIG_WAVE)</text>
</g>
<!-- sitting&#45;&gt;30 -->
<g id="edge28" class="edge">
<title>sitting&#45;&gt;30</title>
<path fill="none" stroke="black" d="M940.61,-605.68C957.94,-588.21 983.57,-562.93 1007,-542 1016.42,-533.58 1020.68,-533.5 1029,-524 1039.39,-512.14 1048.8,-497.34 1055.99,-484.73"/>
<polygon fill="black" stroke="black" points="1058.99,-486.54 1060.74,-476.09 1052.85,-483.16 1058.99,-486.54"/>
<text text-anchor="start" x="1011" y="-562.62" font-family="Courier New" font-weight="bold" font-size="10.00" fill="orange">WAIT(0,SIG_DEAD)</text>
</g>
<!-- sitting&#45;&gt;50 -->
<g id="edge29" class="edge">
<title>sitting&#45;&gt;50</title>
<path fill="none" stroke="black" d="M966.82,-624.12C1027.99,-619.86 1130.86,-609.57 1161,-587.5 1179.28,-574.11 1165.98,-555.73 1184,-542 1216.1,-517.54 1236.76,-541.75 1273,-524 1293.54,-513.94 1313.01,-497.06 1327.24,-482.84"/>
<polygon fill="black" stroke="black" points="1329.48,-485.55 1333.92,-475.94 1324.45,-480.69 1329.48,-485.55"/>
<polygon fill="none" stroke="black" points="1187,-565.75 1187,-584.5 1625,-584.5 1625,-565.75 1187,-565.75"/>
<text text-anchor="start" x="1358" y="-573" font-family="Courier New" font-weight="bold" font-size="10.00" fill="orange">WAIT(0,SIG_BOMB)</text>
<polygon fill="none" stroke="black" points="1187,-545 1187,-563.75 1625,-563.75 1625,-545 1187,-545"/>
<text text-anchor="start" x="1190" y="-551.25" font-family="Courier New" font-size="10.00" fill="blue"> &#160;&#160;&#160;&#160;WRITE(&quot;I am S_ID and I receive signals! This one is a SIG_BOMB! &quot;);</text>
<polygon fill="none" stroke="black" points="1184,-542 1184,-587.5 1628,-587.5 1628,-542 1184,-542"/>
</g>
<!-- setId&#45;&gt;sitting -->
<g id="edge19" class="edge">
<title>setId&#45;&gt;sitting</title>
<path fill="none" stroke="black" d="M696.94,-808.47C690.32,-776.62 681.27,-707.09 717,-668 736.12,-647.08 808.9,-637.04 861.85,-632.41"/>
<polygon fill="black" stroke="black" points="861.98,-635.91 871.65,-631.6 861.4,-628.93 861.98,-635.91"/>
<polygon fill="none" stroke="black" points="720,-768.25 720,-787 1122,-787 1122,-768.25 720,-768.25"/>
<text text-anchor="start" x="858" y="-775.5" font-family="Courier New" font-weight="bold" font-size="10.00" fill="blue">ASSIGN(WSPRITE,happy)</text>
<polygon fill="none" stroke="black" points="720,-671 720,-766.25 1122,-766.25 1122,-671 720,-671"/>
<text text-anchor="start" x="723" y="-753.75" font-family="Courier New" font-size="10.00" fill="blue"> &#160;&#160;&#160;MAP(WSPRITE,WPARM);</text>
<text text-anchor="start" x="723" y="-741" font-family="Courier New" font-size="10.00" fill="blue"> &#160;&#160;&#160;ASSIGN(BFRAME,0);</text>
<text text-anchor="start" x="723" y="-728.25" font-family="Courier New" font-size="10.00" fill="blue"> &#160;&#160;&#160;//&#45;&#45;adding refresh code</text>
<text text-anchor="start" x="723" y="-715.5" font-family="Courier New" font-size="10.00" fill="blue"> &#160;&#160;&#160;// There is a bug here where any add to wisdom maxes out karma</text>
<text text-anchor="start" x="723" y="-702.75" font-family="Courier New" font-size="10.00" fill="blue"> &#160;&#160;&#160;//SIGNAL(SID_HALO,SIG_ADD);</text>
<text text-anchor="start" x="723" y="-690" font-family="Courier New" font-size="10.00" fill="blue"> &#160;&#160;&#160;// SIGNAL(SID_AURA,SIG_ADD);</text>
<text text-anchor="start" x="723" y="-677.25" font-family="Courier New" font-size="10.00" fill="blue"> &#160;&#160;&#160;SHOW(WSPRITE);</text>
<polygon fill="none" stroke="black" points="717,-668 717,-790 1125,-790 1125,-668 717,-668"/>
</g>
<!-- status -->
<g id="node22" class="node">
<title>status</title>
<polygon fill="none" stroke="black" points="957,-1325 957,-1404 1327,-1404 1327,-1325 957,-1325"/>
<polygon fill="none" stroke="black" points="968,-1378.25 968,-1397 1316,-1397 1316,-1378.25 968,-1378.25"/>
<text text-anchor="start" x="1124" y="-1385.5" font-family="Courier New" font-weight="bold" font-size="10.00">SID_ID</text>
<polygon fill="none" stroke="black" points="968,-1332 968,-1376.25 1316,-1376.25 1316,-1332 968,-1332"/>
<text text-anchor="start" x="971" y="-1363.75" font-family="Courier New" font-size="10.00" fill="green">VIEW::IDV_ID @pos(x:0, y:0, h:101, w:171)</text>
<text text-anchor="start" x="971" y="-1351" font-family="Courier New" font-size="10.00" fill="green">SID_ID::M_ID(&#39;LWISDOM&#39;,&#39;LSEX&#39;,&#39;0&#39;,&#39;SID_AURA&#39;,&#39;&#39;,&#39;&#39;)</text>
<text text-anchor="start" x="971" y="-1338.25" font-family="Courier New" font-size="10.00" fill="green">{state:&#39;sitting&#39;: wSprite:happy bFrame:0 Top:0 Left:0 Z:0</text>
<polygon fill="none" stroke="black" points="965,-1329 965,-1400 1319,-1400 1319,-1329 965,-1329"/>
</g>
</g>
</svg>
