<?xml version="1.0" encoding="UTF-8" standalone="no"?>
<!DOCTYPE svg PUBLIC "-//W3C//DTD SVG 1.1//EN"
 "http://www.w3.org/Graphics/SVG/1.1/DTD/svg11.dtd">
<!-- Generated by graphviz version 10.0.1 (20240210.2158)
 -->
<!-- Title: AbstractSyntaxTree Pages: 1 -->
<svg width="320pt" height="393pt"
 viewBox="0.00 0.00 320.00 392.75" xmlns="http://www.w3.org/2000/svg" xmlns:xlink="http://www.w3.org/1999/xlink">
<g id="graph0" class="graph" transform="scale(1 1) rotate(0) translate(4 388.75)">
<title>AbstractSyntaxTree</title>
<polygon fill="white" stroke="none" points="-4,4 -4,-388.75 316,-388.75 316,4 -4,4"/>
<!-- filename -->
<g id="node1" class="node">
<title>filename</title>
<polygon fill="none" stroke="black" points="13.88,-341 13.88,-377 92.12,-377 92.12,-341 13.88,-341"/>
<text text-anchor="middle" x="53" y="-354.73" font-family="Times,serif" font-size="12.00">file:astt_rules</text>
</g>
<!-- ast_node -->
<g id="node2" class="node">
<title>ast_node</title>
<polygon fill="#d0f0f0" stroke="black" points="110,-339.75 110,-378.25 164,-378.25 164,-339.75 110,-339.75"/>
<text text-anchor="middle" x="136.75" y="-364.75" font-family="Times,serif" font-size="10.00">STMTS</text>
<polyline fill="none" stroke="black" points="110,-359 163.5,-359"/>
<text text-anchor="middle" x="123" y="-345.5" font-family="Times,serif" font-size="10.00">L</text>
<polyline fill="none" stroke="black" points="136,-339.75 136,-359"/>
<text text-anchor="middle" x="149.38" y="-345.5" font-family="Times,serif" font-size="10.00">R</text>
</g>
<!-- ast_nodeL -->
<g id="node3" class="node">
<title>ast_nodeL</title>
<polygon fill="#d0f0f0" stroke="black" points="59,-247 59,-296.75 113,-296.75 113,-247 59,-247"/>
<text text-anchor="middle" x="86" y="-283.25" font-family="Times,serif" font-size="10.00">CALL</text>
<text text-anchor="middle" x="86" y="-272" font-family="Times,serif" font-size="10.00">CLEAR</text>
<polyline fill="none" stroke="black" points="59,-266.25 113,-266.25"/>
<text text-anchor="middle" x="72" y="-252.75" font-family="Times,serif" font-size="10.00">L</text>
<polyline fill="none" stroke="black" points="85,-247 85,-266.25"/>
<text text-anchor="middle" x="98.88" y="-252.75" font-family="Times,serif" font-size="10.00">R</text>
</g>
<!-- ast_node&#45;&gt;ast_nodeL -->
<g id="edge4" class="edge">
<title>ast_node:L&#45;&gt;ast_nodeL:A</title>
<path fill="none" stroke="black" d="M123,-339C123,-318.86 98.57,-320.25 89.41,-308.19"/>
<polygon fill="black" stroke="black" points="92.77,-307.2 86.45,-298.69 86.09,-309.28 92.77,-307.2"/>
</g>
<!-- ast_nodeR -->
<g id="node7" class="node">
<title>ast_nodeR</title>
<polygon fill="#d0f0f0" stroke="black" points="160,-252.62 160,-291.12 214,-291.12 214,-252.62 160,-252.62"/>
<text text-anchor="middle" x="186.75" y="-277.62" font-family="Times,serif" font-size="10.00">STMTS</text>
<polyline fill="none" stroke="black" points="160,-271.88 213.5,-271.88"/>
<text text-anchor="middle" x="173" y="-258.38" font-family="Times,serif" font-size="10.00">L</text>
<polyline fill="none" stroke="black" points="186,-252.62 186,-271.88"/>
<text text-anchor="middle" x="199.38" y="-258.38" font-family="Times,serif" font-size="10.00">R</text>
</g>
<!-- ast_node&#45;&gt;ast_nodeR -->
<g id="edge12" class="edge">
<title>ast_node:R&#45;&gt;ast_nodeR:A</title>
<path fill="none" stroke="black" d="M149,-339C149,-318.26 138.79,-293.91 148.23,-285.19"/>
<polygon fill="black" stroke="black" points="149.02,-288.6 157.55,-282.32 146.97,-281.91 149.02,-288.6"/>
</g>
<!-- ast_nodeLL -->
<g id="node4" class="node">
<title>ast_nodeLL</title>
<polygon fill="#d0f0f0" stroke="black" points="0,-167.12 0,-203.12 54,-203.12 54,-167.12 0,-167.12"/>
<text text-anchor="middle" x="27" y="-187.12" font-family="Times,serif" font-size="10.00">ID</text>
<text text-anchor="middle" x="27" y="-175.88" font-family="Times,serif" font-size="10.00">CLEAR</text>
</g>
<!-- ast_nodeL&#45;&gt;ast_nodeLL -->
<g id="edge1" class="edge">
<title>ast_nodeL:L&#45;&gt;ast_nodeLL:A</title>
<path fill="none" stroke="black" d="M72,-246.5C72,-233.65 65.51,-221.71 57.46,-211.84"/>
<polygon fill="black" stroke="black" points="60.1,-209.55 50.78,-204.51 54.93,-214.26 60.1,-209.55"/>
</g>
<!-- ast_nodeLR -->
<g id="node5" class="node">
<title>ast_nodeLR</title>
<polygon fill="#dfffdf" stroke="black" points="72,-165.88 72,-204.38 126,-204.38 126,-165.88 72,-165.88"/>
<text text-anchor="middle" x="99" y="-190.88" font-family="Times,serif" font-size="10.00">PARMS</text>
<polyline fill="none" stroke="black" points="72,-185.12 126,-185.12"/>
<text text-anchor="middle" x="85" y="-171.62" font-family="Times,serif" font-size="10.00">L</text>
<polyline fill="none" stroke="black" points="98,-165.88 98,-185.12"/>
<text text-anchor="middle" x="111.88" y="-171.62" font-family="Times,serif" font-size="10.00">R</text>
</g>
<!-- ast_nodeL&#45;&gt;ast_nodeLR -->
<g id="edge3" class="edge">
<title>ast_nodeL:R&#45;&gt;ast_nodeLR:A</title>
<path fill="none" stroke="black" d="M99,-246.5C99,-232.56 99,-226.55 99,-216.45"/>
<polygon fill="black" stroke="black" points="102.5,-216.64 99,-206.64 95.5,-216.64 102.5,-216.64"/>
</g>
<!-- ast_nodeLRL -->
<g id="node6" class="node">
<title>ast_nodeLRL</title>
<polygon fill="#d0f0f0" stroke="black" points="33.75,-80.38 33.75,-116.38 96.25,-116.38 96.25,-80.38 33.75,-80.38"/>
<text text-anchor="middle" x="65" y="-100.38" font-family="Times,serif" font-size="10.00">ID</text>
<text text-anchor="middle" x="65" y="-89.12" font-family="Times,serif" font-size="10.00">WOBJECT</text>
</g>
<!-- ast_nodeLR&#45;&gt;ast_nodeLRL -->
<g id="edge2" class="edge">
<title>ast_nodeLR:L&#45;&gt;ast_nodeLRL:A</title>
<path fill="none" stroke="black" d="M85,-165.12C85,-152.42 81.64,-138.91 77.67,-127.39"/>
<polygon fill="black" stroke="black" points="80.95,-126.17 74.13,-118.05 74.4,-128.65 80.95,-126.17"/>
</g>
<!-- ast_nodeRL -->
<g id="node8" class="node">
<title>ast_nodeRL</title>
<polygon fill="#d0f0f0" stroke="black" points="146,-160.25 146,-210 200,-210 200,-160.25 146,-160.25"/>
<text text-anchor="middle" x="173" y="-196.5" font-family="Times,serif" font-size="10.00">CALL</text>
<text text-anchor="middle" x="173" y="-185.25" font-family="Times,serif" font-size="10.00">CLEAR</text>
<polyline fill="none" stroke="black" points="146,-179.5 200,-179.5"/>
<text text-anchor="middle" x="159" y="-166" font-family="Times,serif" font-size="10.00">L</text>
<polyline fill="none" stroke="black" points="172,-160.25 172,-179.5"/>
<text text-anchor="middle" x="185.88" y="-166" font-family="Times,serif" font-size="10.00">R</text>
</g>
<!-- ast_nodeR&#45;&gt;ast_nodeRL -->
<g id="edge8" class="edge">
<title>ast_nodeR:L&#45;&gt;ast_nodeRL:A</title>
<path fill="none" stroke="black" d="M173,-251.88C173,-237.94 173,-231.92 173,-221.83"/>
<polygon fill="black" stroke="black" points="176.5,-222.01 173,-212.01 169.5,-222.01 176.5,-222.01"/>
</g>
<!-- ast_nodeRR -->
<g id="node12" class="node">
<title>ast_nodeRR</title>
<polygon fill="#d0f0f0" stroke="black" points="254,-165.88 254,-204.38 308,-204.38 308,-165.88 254,-165.88"/>
<text text-anchor="middle" x="280.75" y="-190.88" font-family="Times,serif" font-size="10.00">STMTS</text>
<polyline fill="none" stroke="black" points="254,-185.12 307.5,-185.12"/>
<text text-anchor="middle" x="267" y="-171.62" font-family="Times,serif" font-size="10.00">L</text>
<polyline fill="none" stroke="black" points="280,-165.88 280,-185.12"/>
<text text-anchor="middle" x="293.38" y="-171.62" font-family="Times,serif" font-size="10.00">R</text>
</g>
<!-- ast_nodeR&#45;&gt;ast_nodeRR -->
<g id="edge11" class="edge">
<title>ast_nodeR:R&#45;&gt;ast_nodeRR:A</title>
<path fill="none" stroke="black" d="M214,-261.88C243.8,-261.88 225.4,-211.68 242.4,-198.34"/>
<polygon fill="black" stroke="black" points="243,-201.82 251.55,-195.56 240.97,-195.12 243,-201.82"/>
</g>
<!-- ast_nodeRLL -->
<g id="node9" class="node">
<title>ast_nodeRLL</title>
<polygon fill="#d0f0f0" stroke="black" points="114,-80.38 114,-116.38 168,-116.38 168,-80.38 114,-80.38"/>
<text text-anchor="middle" x="141" y="-100.38" font-family="Times,serif" font-size="10.00">ID</text>
<text text-anchor="middle" x="141" y="-89.12" font-family="Times,serif" font-size="10.00">CLEAR</text>
</g>
<!-- ast_nodeRL&#45;&gt;ast_nodeRLL -->
<g id="edge5" class="edge">
<title>ast_nodeRL:L&#45;&gt;ast_nodeRLL:A</title>
<path fill="none" stroke="black" d="M159,-159.75C159,-148.94 156.4,-137.47 153.17,-127.42"/>
<polygon fill="black" stroke="black" points="156.54,-126.43 149.88,-118.19 149.94,-128.79 156.54,-126.43"/>
</g>
<!-- ast_nodeRLR -->
<g id="node10" class="node">
<title>ast_nodeRLR</title>
<polygon fill="#dfffdf" stroke="black" points="186,-79.12 186,-117.62 240,-117.62 240,-79.12 186,-79.12"/>
<text text-anchor="middle" x="213" y="-104.12" font-family="Times,serif" font-size="10.00">PARMS</text>
<polyline fill="none" stroke="black" points="186,-98.38 240,-98.38"/>
<text text-anchor="middle" x="199" y="-84.88" font-family="Times,serif" font-size="10.00">L</text>
<polyline fill="none" stroke="black" points="212,-79.12 212,-98.38"/>
<text text-anchor="middle" x="225.88" y="-84.88" font-family="Times,serif" font-size="10.00">R</text>
</g>
<!-- ast_nodeRL&#45;&gt;ast_nodeRLR -->
<g id="edge7" class="edge">
<title>ast_nodeRL:R&#45;&gt;ast_nodeRLR:A</title>
<path fill="none" stroke="black" d="M186,-159.75C186,-142.42 202.81,-140.35 209.9,-129.46"/>
<polygon fill="black" stroke="black" points="213.27,-130.41 212.59,-119.83 206.53,-128.52 213.27,-130.41"/>
</g>
<!-- ast_nodeRLRL -->
<g id="node11" class="node">
<title>ast_nodeRLRL</title>
<polygon fill="#d0f0f0" stroke="black" points="172,-0.5 172,-36.5 226,-36.5 226,-0.5 172,-0.5"/>
<text text-anchor="middle" x="198.75" y="-20.5" font-family="Times,serif" font-size="10.00">ID</text>
<text text-anchor="middle" x="198.75" y="-9.25" font-family="Times,serif" font-size="10.00">WPARM</text>
</g>
<!-- ast_nodeRLR&#45;&gt;ast_nodeRLRL -->
<g id="edge6" class="edge">
<title>ast_nodeRLR:L&#45;&gt;ast_nodeRLRL:A</title>
<path fill="none" stroke="black" d="M199,-78.38C199,-68.58 199,-57.89 199,-48.28"/>
<polygon fill="black" stroke="black" points="202.5,-48.36 199,-38.36 195.5,-48.36 202.5,-48.36"/>
</g>
<!-- ast_nodeRRL -->
<g id="node13" class="node">
<title>ast_nodeRRL</title>
<polygon fill="#d0f0f0" stroke="black" points="258,-73.5 258,-123.25 312,-123.25 312,-73.5 258,-73.5"/>
<text text-anchor="middle" x="285" y="-109.75" font-family="Times,serif" font-size="10.00">CALL</text>
<text text-anchor="middle" x="285" y="-98.5" font-family="Times,serif" font-size="10.00">SHOW</text>
<polyline fill="none" stroke="black" points="258,-92.75 312,-92.75"/>
<text text-anchor="middle" x="271" y="-79.25" font-family="Times,serif" font-size="10.00">L</text>
<polyline fill="none" stroke="black" points="284,-73.5 284,-92.75"/>
<text text-anchor="middle" x="297.88" y="-79.25" font-family="Times,serif" font-size="10.00">R</text>
</g>
<!-- ast_nodeRR&#45;&gt;ast_nodeRRL -->
<g id="edge10" class="edge">
<title>ast_nodeRR:L&#45;&gt;ast_nodeRRL:A</title>
<path fill="none" stroke="black" d="M267,-165.12C267,-149.61 277.77,-145.34 282.65,-134.92"/>
<polygon fill="black" stroke="black" points="286.05,-135.74 284.69,-125.23 279.2,-134.3 286.05,-135.74"/>
</g>
<!-- ast_nodeRRLL -->
<g id="node14" class="node">
<title>ast_nodeRRLL</title>
<polygon fill="#d0f0f0" stroke="black" points="244,-0.5 244,-36.5 298,-36.5 298,-0.5 244,-0.5"/>
<text text-anchor="middle" x="271" y="-20.5" font-family="Times,serif" font-size="10.00">ID</text>
<text text-anchor="middle" x="271" y="-9.25" font-family="Times,serif" font-size="10.00">SHOW</text>
</g>
<!-- ast_nodeRRL&#45;&gt;ast_nodeRRLL -->
<g id="edge9" class="edge">
<title>ast_nodeRRL:L&#45;&gt;ast_nodeRRLL:A</title>
<path fill="none" stroke="black" d="M271,-73C271,-65.02 271,-56.38 271,-48.39"/>
<polygon fill="black" stroke="black" points="274.5,-48.43 271,-38.43 267.5,-48.43 274.5,-48.43"/>
</g>
<!-- code -->
<g id="node15" class="node">
<title>code</title>
<polygon fill="none" stroke="black" points="182.25,-333.75 182.25,-384.25 271.75,-384.25 271.75,-333.75 182.25,-333.75"/>
<polygon fill="none" stroke="black" points="193.25,-360 193.25,-377.25 260.75,-377.25 260.75,-360 193.25,-360"/>
<text text-anchor="start" x="217.25" y="-365.75" font-family="Times,serif" font-weight="bold" font-size="10.00">code</text>
<polygon fill="none" stroke="black" points="193.25,-340.75 193.25,-358 260.75,-358 260.75,-340.75 193.25,-340.75"/>
<text text-anchor="start" x="196.25" y="-345.5" font-family="Times,serif" font-size="10.00" fill="blue">ASTT_STMTS</text>
<polygon fill="none" stroke="black" points="190.25,-337.75 190.25,-380.25 263.75,-380.25 263.75,-337.75 190.25,-337.75"/>
</g>
</g>
</svg>
