<?xml version="1.0" encoding="UTF-8" standalone="no"?>
<!DOCTYPE svg PUBLIC "-//W3C//DTD SVG 1.1//EN"
 "http://www.w3.org/Graphics/SVG/1.1/DTD/svg11.dtd">
<!-- Generated by graphviz version 10.0.1 (20240210.2158)
 -->
<!-- Title: Automaton Pages: 1 -->
<svg width="4459pt" height="219pt"
 viewBox="0.00 0.00 4458.66 218.75" xmlns="http://www.w3.org/2000/svg" xmlns:xlink="http://www.w3.org/1999/xlink">
<g id="graph0" class="graph" transform="scale(1 1) rotate(0) translate(4 214.75)">
<title>Automaton</title>
<polygon fill="white" stroke="none" points="-4,4 -4,-214.75 4454.66,-214.75 4454.66,4 -4,4"/>
<!-- filename -->
<g id="node1" class="node">
<title>filename</title>
<polygon fill="none" stroke="black" points="2293.66,-144 2293.66,-197.5 2513.66,-197.5 2513.66,-144 2293.66,-144"/>
<polygon fill="none" stroke="black" points="2304.66,-171.75 2304.66,-190.5 2502.66,-190.5 2502.66,-171.75 2304.66,-171.75"/>
<text text-anchor="start" x="2307.66" y="-179" font-family="Courier New" font-weight="bold" font-size="10.00">AUD_MUSIC_PLAYER::M_PLAYER_MUSIC</text>
<polygon fill="none" stroke="black" points="2304.66,-151 2304.66,-169.75 2502.66,-169.75 2502.66,-151 2304.66,-151"/>
<text text-anchor="start" x="2358.66" y="-157.25" font-family="Courier New" font-size="10.00" fill="brown">start state = 0</text>
<polygon fill="none" stroke="black" points="2301.66,-148 2301.66,-193.5 2505.66,-193.5 2505.66,-148 2301.66,-148"/>
</g>
<!-- 0 -->
<g id="node2" class="node">
<title>0</title>
<polyline fill="none" stroke="darkred" stroke-width="3" points="2551.04,-159 2566.29,-159"/>
<text text-anchor="start" x="2554.54" y="-166.7" font-family="Courier New" font-weight="bold" font-size="14.00">0</text>
<path fill="none" stroke="darkred" stroke-width="3" d="M2554.45,-154C2554.45,-154 2562.87,-154 2562.87,-154 2567.08,-154 2571.29,-158.21 2571.29,-162.42 2571.29,-162.42 2571.29,-179.08 2571.29,-179.08 2571.29,-183.29 2567.08,-187.5 2562.87,-187.5 2562.87,-187.5 2554.45,-187.5 2554.45,-187.5 2550.24,-187.5 2546.04,-183.29 2546.04,-179.08 2546.04,-179.08 2546.04,-162.42 2546.04,-162.42 2546.04,-158.21 2550.24,-154 2554.45,-154"/>
</g>
<!-- playing -->
<g id="node3" class="node">
<title>playing</title>
<polyline fill="none" stroke="darkred" points="2526.79,-7 2590.54,-7"/>
<text text-anchor="start" x="2529.79" y="-14.2" font-family="Courier New" font-weight="bold" font-size="14.00">playing</text>
<path fill="none" stroke="darkred" d="M2533.29,-4C2533.29,-4 2584.04,-4 2584.04,-4 2588.79,-4 2593.54,-8.75 2593.54,-13.5 2593.54,-13.5 2593.54,-23 2593.54,-23 2593.54,-27.75 2588.79,-32.5 2584.04,-32.5 2584.04,-32.5 2533.29,-32.5 2533.29,-32.5 2528.54,-32.5 2523.79,-27.75 2523.79,-23 2523.79,-23 2523.79,-13.5 2523.79,-13.5 2523.79,-8.75 2528.54,-4 2533.29,-4"/>
</g>
<!-- 0&#45;&gt;playing -->
<g id="edge1" class="edge">
<title>0&#45;&gt;playing</title>
<path fill="none" stroke="black" d="M2544.58,-148.52C2538.72,-141.51 2531.26,-134.55 2522.66,-130.75 2490.79,-116.66 38.21,-137.48 13.66,-112.75 -4.58,-94.38 -4.52,-72.93 13.66,-54.5 36.32,-31.52 2138.75,-21.12 2504.66,-19.48"/>
<polygon fill="black" stroke="black" points="2504.47,-22.98 2514.45,-19.44 2504.44,-15.98 2504.47,-22.98"/>
<polygon fill="none" stroke="black" points="16.66,-84.62 16.66,-103.38 184.66,-103.38 184.66,-84.62 16.66,-84.62"/>
<text text-anchor="start" x="64.66" y="-91.88" font-family="Courier New" font-weight="bold" font-size="10.00" fill="orange">WAIT(,SIG_2)</text>
<polygon fill="none" stroke="black" points="16.66,-63.88 16.66,-82.62 184.66,-82.62 184.66,-63.88 16.66,-63.88"/>
<text text-anchor="start" x="19.66" y="-70.12" font-family="Courier New" font-size="10.00" fill="blue"> &#160;&#160;&#160;&#160;playmusic(kam002aa,3);</text>
<polygon fill="none" stroke="black" points="13.66,-60.88 13.66,-106.38 187.66,-106.38 187.66,-60.88 13.66,-60.88"/>
</g>
<!-- 0&#45;&gt;playing -->
<g id="edge2" class="edge">
<title>0&#45;&gt;playing</title>
<path fill="none" stroke="black" d="M2544.58,-148.52C2538.72,-141.52 2531.26,-134.55 2522.66,-130.75 2493.3,-117.76 233.28,-135.54 210.66,-112.75 192.43,-94.37 192.49,-72.94 210.66,-54.5 231.47,-33.38 2155.01,-21.53 2504.51,-19.55"/>
<polygon fill="black" stroke="black" points="2504.31,-23.05 2514.29,-19.49 2504.27,-16.05 2504.31,-23.05"/>
<polygon fill="none" stroke="black" points="213.66,-91 213.66,-109.75 555.66,-109.75 555.66,-91 213.66,-91"/>
<text text-anchor="start" x="324.66" y="-98.25" font-family="Courier New" font-weight="bold" font-size="10.00" fill="orange">WAIT(,SIG_INTRO_MIX)</text>
<polygon fill="none" stroke="black" points="213.66,-57.5 213.66,-89 555.66,-89 555.66,-57.5 213.66,-57.5"/>
<text text-anchor="start" x="216.66" y="-76.5" font-family="Courier New" font-size="10.00" fill="blue"> &#160;&#160;&#160;&#160;playmusic(kam209ba,3);</text>
<text text-anchor="start" x="216.66" y="-63.75" font-family="Courier New" font-size="10.00" fill="blue"> &#160;&#160;&#160;//playmusic(kam209ba,3); then playmusic(kam210ba,3);</text>
<polygon fill="none" stroke="black" points="210.66,-54.5 210.66,-112.75 558.66,-112.75 558.66,-54.5 210.66,-54.5"/>
</g>
<!-- 0&#45;&gt;playing -->
<g id="edge3" class="edge">
<title>0&#45;&gt;playing</title>
<path fill="none" stroke="black" d="M2544.58,-148.53C2538.71,-141.52 2531.25,-134.56 2522.66,-130.75 2473.37,-108.9 619.61,-151.05 581.66,-112.75 563.44,-94.36 563.52,-72.97 581.66,-54.5 616.3,-19.23 2190.13,-18.89 2504.39,-19.18"/>
<polygon fill="black" stroke="black" points="2504.37,-22.68 2514.37,-19.19 2504.38,-15.68 2504.37,-22.68"/>
<polygon fill="none" stroke="black" points="584.66,-91 584.66,-109.75 1154.66,-109.75 1154.66,-91 584.66,-91"/>
<text text-anchor="start" x="800.66" y="-98.25" font-family="Courier New" font-weight="bold" font-size="10.00" fill="orange">WAIT(,SIG_NATURE_INTRO)</text>
<polygon fill="none" stroke="black" points="584.66,-57.5 584.66,-89 1154.66,-89 1154.66,-57.5 584.66,-57.5"/>
<text text-anchor="start" x="587.66" y="-76.5" font-family="Courier New" font-size="10.00" fill="blue"> &#160;&#160;&#160;&#160;playmusic(kam112aa,3);</text>
<text text-anchor="start" x="587.66" y="-63.75" font-family="Courier New" font-size="10.00" fill="blue"> &#160;&#160;&#160;&#160;//playmusic kam112aa , then playmusic(306ba,3) &#45;&#45; might change to SIG_N2A custom playlist</text>
<polygon fill="none" stroke="black" points="581.66,-54.5 581.66,-112.75 1157.66,-112.75 1157.66,-54.5 581.66,-54.5"/>
</g>
<!-- 0&#45;&gt;playing -->
<g id="edge4" class="edge">
<title>0&#45;&gt;playing</title>
<path fill="none" stroke="black" d="M2544.57,-148.55C2538.7,-141.55 2531.25,-134.58 2522.66,-130.75 2488.61,-115.57 1206.85,-139.29 1180.66,-112.75 1162.48,-94.32 1162.59,-73.04 1180.66,-54.5 1204.17,-30.38 2252.46,-21.42 2504.56,-19.61"/>
<polygon fill="black" stroke="black" points="2504.47,-23.11 2514.44,-19.54 2504.42,-16.11 2504.47,-23.11"/>
<polygon fill="none" stroke="black" points="1183.66,-84.62 1183.66,-103.38 1351.66,-103.38 1351.66,-84.62 1183.66,-84.62"/>
<text text-anchor="start" x="1225.66" y="-91.88" font-family="Courier New" font-weight="bold" font-size="10.00" fill="orange">WAIT(,SIG_204)</text>
<polygon fill="none" stroke="black" points="1183.66,-63.88 1183.66,-82.62 1351.66,-82.62 1351.66,-63.88 1183.66,-63.88"/>
<text text-anchor="start" x="1186.66" y="-70.12" font-family="Courier New" font-size="10.00" fill="blue"> &#160;&#160;&#160;&#160;playmusic(kam204aa,3);</text>
<polygon fill="none" stroke="black" points="1180.66,-60.88 1180.66,-106.38 1354.66,-106.38 1354.66,-60.88 1180.66,-60.88"/>
</g>
<!-- 0&#45;&gt;playing -->
<g id="edge5" class="edge">
<title>0&#45;&gt;playing</title>
<path fill="none" stroke="black" d="M2544.57,-148.56C2538.7,-141.56 2531.24,-134.59 2522.66,-130.75 2493.62,-117.76 1399.98,-135.42 1377.66,-112.75 1359.5,-94.3 1359.63,-73.08 1377.66,-54.5 1397.54,-34.02 2276.01,-22.5 2504.7,-19.85"/>
<polygon fill="black" stroke="black" points="2504.56,-23.35 2514.52,-19.73 2504.48,-16.35 2504.56,-23.35"/>
<polygon fill="none" stroke="black" points="1380.66,-84.62 1380.66,-103.38 1548.66,-103.38 1548.66,-84.62 1380.66,-84.62"/>
<text text-anchor="start" x="1422.66" y="-91.88" font-family="Courier New" font-weight="bold" font-size="10.00" fill="orange">WAIT(,SIG_206)</text>
<polygon fill="none" stroke="black" points="1380.66,-63.88 1380.66,-82.62 1548.66,-82.62 1548.66,-63.88 1380.66,-63.88"/>
<text text-anchor="start" x="1383.66" y="-70.12" font-family="Courier New" font-size="10.00" fill="blue"> &#160;&#160;&#160;&#160;playmusic(kam206aa,3);</text>
<polygon fill="none" stroke="black" points="1377.66,-60.88 1377.66,-106.38 1551.66,-106.38 1551.66,-60.88 1377.66,-60.88"/>
</g>
<!-- 0&#45;&gt;playing -->
<g id="edge6" class="edge">
<title>0&#45;&gt;playing</title>
<path fill="none" stroke="black" d="M2544.56,-148.57C2538.69,-141.57 2531.23,-134.6 2522.66,-130.75 2474.61,-109.17 1611.55,-150.35 1574.66,-112.75 1556.53,-94.27 1556.69,-73.13 1574.66,-54.5 1607.14,-20.84 2303.47,-18.97 2504.67,-19.14"/>
<polygon fill="black" stroke="black" points="2504.58,-22.64 2514.58,-19.15 2504.59,-15.64 2504.58,-22.64"/>
<polygon fill="none" stroke="black" points="1577.66,-84.62 1577.66,-103.38 1745.66,-103.38 1745.66,-84.62 1577.66,-84.62"/>
<text text-anchor="start" x="1619.66" y="-91.88" font-family="Courier New" font-weight="bold" font-size="10.00" fill="orange">WAIT(,SIG_207)</text>
<polygon fill="none" stroke="black" points="1577.66,-63.88 1577.66,-82.62 1745.66,-82.62 1745.66,-63.88 1577.66,-63.88"/>
<text text-anchor="start" x="1580.66" y="-70.12" font-family="Courier New" font-size="10.00" fill="blue"> &#160;&#160;&#160;&#160;playmusic(kam207ba,3);</text>
<polygon fill="none" stroke="black" points="1574.66,-60.88 1574.66,-106.38 1748.66,-106.38 1748.66,-60.88 1574.66,-60.88"/>
</g>
<!-- 0&#45;&gt;playing -->
<g id="edge7" class="edge">
<title>0&#45;&gt;playing</title>
<path fill="none" stroke="black" d="M2544.55,-148.59C2538.68,-141.6 2531.23,-134.62 2522.66,-130.75 2484.63,-113.55 1800.82,-142.61 1771.66,-112.75 1753.58,-94.23 1753.77,-73.21 1771.66,-54.5 1796.97,-28.03 2330.92,-21.18 2504.6,-19.65"/>
<polygon fill="black" stroke="black" points="2504.51,-23.15 2514.48,-19.56 2504.45,-16.15 2504.51,-23.15"/>
<polygon fill="none" stroke="black" points="1774.66,-84.62 1774.66,-103.38 1942.66,-103.38 1942.66,-84.62 1774.66,-84.62"/>
<text text-anchor="start" x="1816.66" y="-91.88" font-family="Courier New" font-weight="bold" font-size="10.00" fill="orange">WAIT(,SIG_208)</text>
<polygon fill="none" stroke="black" points="1774.66,-63.88 1774.66,-82.62 1942.66,-82.62 1942.66,-63.88 1774.66,-63.88"/>
<text text-anchor="start" x="1777.66" y="-70.12" font-family="Courier New" font-size="10.00" fill="blue"> &#160;&#160;&#160;&#160;playmusic(kam208ba,3);</text>
<polygon fill="none" stroke="black" points="1771.66,-60.88 1771.66,-106.38 1945.66,-106.38 1945.66,-60.88 1771.66,-60.88"/>
</g>
<!-- 0&#45;&gt;playing -->
<g id="edge8" class="edge">
<title>0&#45;&gt;playing</title>
<path fill="none" stroke="black" d="M2544.53,-148.63C2538.66,-141.64 2531.21,-134.66 2522.66,-130.75 2494.66,-117.94 1990.08,-134.88 1968.66,-112.75 1950.65,-94.15 1950.91,-73.34 1968.66,-54.5 1986.88,-35.16 2362.02,-24.04 2504.45,-20.5"/>
<polygon fill="black" stroke="black" points="2504.48,-24 2514.39,-20.25 2504.31,-17 2504.48,-24"/>
<polygon fill="none" stroke="black" points="1971.66,-84.62 1971.66,-103.38 2139.66,-103.38 2139.66,-84.62 1971.66,-84.62"/>
<text text-anchor="start" x="2013.66" y="-91.88" font-family="Courier New" font-weight="bold" font-size="10.00" fill="orange">WAIT(,SIG_209)</text>
<polygon fill="none" stroke="black" points="1971.66,-63.88 1971.66,-82.62 2139.66,-82.62 2139.66,-63.88 1971.66,-63.88"/>
<text text-anchor="start" x="1974.66" y="-70.12" font-family="Courier New" font-size="10.00" fill="blue"> &#160;&#160;&#160;&#160;playmusic(kam209ba,3);</text>
<polygon fill="none" stroke="black" points="1968.66,-60.88 1968.66,-106.38 2142.66,-106.38 2142.66,-60.88 1968.66,-60.88"/>
</g>
<!-- 0&#45;&gt;playing -->
<g id="edge9" class="edge">
<title>0&#45;&gt;playing</title>
<path fill="none" stroke="black" d="M2544.49,-148.72C2538.62,-141.74 2531.17,-134.74 2522.66,-130.75 2486.69,-113.91 2193.03,-141.53 2165.66,-112.75 2147.82,-93.99 2148.19,-73.61 2165.66,-54.5 2188.08,-29.98 2402.26,-22.38 2504.65,-20.14"/>
<polygon fill="black" stroke="black" points="2504.54,-23.64 2514.46,-19.93 2504.39,-16.64 2504.54,-23.64"/>
<polygon fill="none" stroke="black" points="2168.66,-84.62 2168.66,-103.38 2336.66,-103.38 2336.66,-84.62 2168.66,-84.62"/>
<text text-anchor="start" x="2210.66" y="-91.88" font-family="Courier New" font-weight="bold" font-size="10.00" fill="orange">WAIT(,SIG_210)</text>
<polygon fill="none" stroke="black" points="2168.66,-63.88 2168.66,-82.62 2336.66,-82.62 2336.66,-63.88 2168.66,-63.88"/>
<text text-anchor="start" x="2171.66" y="-70.12" font-family="Courier New" font-size="10.00" fill="blue"> &#160;&#160;&#160;&#160;playmusic(kam210ba,3);</text>
<polygon fill="none" stroke="black" points="2165.66,-60.88 2165.66,-106.38 2339.66,-106.38 2339.66,-60.88 2165.66,-60.88"/>
</g>
<!-- 0&#45;&gt;playing -->
<g id="edge10" class="edge">
<title>0&#45;&gt;playing</title>
<path fill="none" stroke="black" d="M2544.01,-148.59C2538.17,-141.77 2530.88,-134.91 2522.66,-130.75 2490.74,-114.59 2386.51,-139.43 2362.66,-112.75 2345.41,-93.45 2346.05,-74.36 2362.66,-54.5 2380.44,-33.23 2452.87,-24.78 2504.49,-21.43"/>
<polygon fill="black" stroke="black" points="2504.53,-24.93 2514.3,-20.84 2504.11,-17.94 2504.53,-24.93"/>
<polygon fill="none" stroke="black" points="2365.66,-84.62 2365.66,-103.38 2533.66,-103.38 2533.66,-84.62 2365.66,-84.62"/>
<text text-anchor="start" x="2407.66" y="-91.88" font-family="Courier New" font-weight="bold" font-size="10.00" fill="orange">WAIT(,SIG_306)</text>
<polygon fill="none" stroke="black" points="2365.66,-63.88 2365.66,-82.62 2533.66,-82.62 2533.66,-63.88 2365.66,-63.88"/>
<text text-anchor="start" x="2368.66" y="-70.12" font-family="Courier New" font-size="10.00" fill="blue"> &#160;&#160;&#160;&#160;playmusic(kam306ba,3);</text>
<polygon fill="none" stroke="black" points="2362.66,-60.88 2362.66,-106.38 2536.66,-106.38 2536.66,-60.88 2362.66,-60.88"/>
</g>
<!-- 0&#45;&gt;playing -->
<g id="edge11" class="edge">
<title>0&#45;&gt;playing</title>
<path fill="none" stroke="black" d="M2558.66,-148.51C2558.66,-122.13 2558.66,-77.05 2558.66,-47.71"/>
<polygon fill="black" stroke="black" points="2562.16,-47.71 2558.66,-37.71 2555.16,-47.71 2562.16,-47.71"/>
<polygon fill="none" stroke="black" points="2561.66,-84.62 2561.66,-103.38 2729.66,-103.38 2729.66,-84.62 2561.66,-84.62"/>
<text text-anchor="start" x="2603.66" y="-91.88" font-family="Courier New" font-weight="bold" font-size="10.00" fill="orange">WAIT(,SIG_310)</text>
<polygon fill="none" stroke="black" points="2561.66,-63.88 2561.66,-82.62 2729.66,-82.62 2729.66,-63.88 2561.66,-63.88"/>
<text text-anchor="start" x="2564.66" y="-70.12" font-family="Courier New" font-size="10.00" fill="blue"> &#160;&#160;&#160;&#160;playmusic(kam310ba,3);</text>
<polygon fill="none" stroke="black" points="2558.66,-60.88 2558.66,-106.38 2732.66,-106.38 2732.66,-60.88 2558.66,-60.88"/>
</g>
<!-- 0&#45;&gt;playing -->
<g id="edge12" class="edge">
<title>0&#45;&gt;playing</title>
<path fill="none" stroke="black" d="M2573.35,-148.67C2579.19,-141.86 2586.48,-134.98 2594.66,-130.75 2622.33,-116.45 2713.1,-136.15 2733.66,-112.75 2750.75,-93.3 2750.06,-74.53 2733.66,-54.5 2718.55,-36.04 2658.32,-27.03 2612.71,-22.79"/>
<polygon fill="black" stroke="black" points="2613.24,-19.32 2602.97,-21.94 2612.63,-26.29 2613.24,-19.32"/>
<polygon fill="none" stroke="black" points="2748.66,-84.62 2748.66,-103.38 2916.66,-103.38 2916.66,-84.62 2748.66,-84.62"/>
<text text-anchor="start" x="2790.66" y="-91.88" font-family="Courier New" font-weight="bold" font-size="10.00" fill="orange">WAIT(,SIG_311)</text>
<polygon fill="none" stroke="black" points="2748.66,-63.88 2748.66,-82.62 2916.66,-82.62 2916.66,-63.88 2748.66,-63.88"/>
<text text-anchor="start" x="2751.66" y="-70.12" font-family="Courier New" font-size="10.00" fill="blue"> &#160;&#160;&#160;&#160;playmusic(kam311ba,3);</text>
<polygon fill="none" stroke="black" points="2745.66,-60.88 2745.66,-106.38 2919.66,-106.38 2919.66,-60.88 2745.66,-60.88"/>
</g>
<!-- 0&#45;&gt;playing -->
<g id="edge13" class="edge">
<title>0&#45;&gt;playing</title>
<path fill="none" stroke="black" d="M2572.84,-148.74C2578.72,-141.76 2586.16,-134.75 2594.66,-130.75 2627.78,-115.16 2898.49,-139.34 2923.66,-112.75 2941.46,-93.95 2941.07,-73.67 2923.66,-54.5 2903.18,-31.94 2709.16,-23.41 2612.64,-20.54"/>
<polygon fill="black" stroke="black" points="2612.99,-17.05 2602.89,-20.26 2612.78,-24.05 2612.99,-17.05"/>
<polygon fill="none" stroke="black" points="2939.66,-84.62 2939.66,-103.38 3107.66,-103.38 3107.66,-84.62 2939.66,-84.62"/>
<text text-anchor="start" x="2981.66" y="-91.88" font-family="Courier New" font-weight="bold" font-size="10.00" fill="orange">WAIT(,SIG_312)</text>
<polygon fill="none" stroke="black" points="2939.66,-63.88 2939.66,-82.62 3107.66,-82.62 3107.66,-63.88 2939.66,-63.88"/>
<text text-anchor="start" x="2942.66" y="-70.12" font-family="Courier New" font-size="10.00" fill="blue"> &#160;&#160;&#160;&#160;playmusic(kam312aa,3);</text>
<polygon fill="none" stroke="black" points="2936.66,-60.88 2936.66,-106.38 3110.66,-106.38 3110.66,-60.88 2936.66,-60.88"/>
</g>
<!-- 0&#45;&gt;playing -->
<g id="edge14" class="edge">
<title>0&#45;&gt;playing</title>
<path fill="none" stroke="black" d="M2572.8,-148.64C2578.67,-141.66 2586.12,-134.67 2594.66,-130.75 2647.21,-106.65 3074.49,-154.33 3114.66,-112.75 3132.65,-94.13 3132.38,-73.38 3114.66,-54.5 3080.81,-18.43 2746,-17.5 2612.86,-18.58"/>
<polygon fill="black" stroke="black" points="2612.85,-15.08 2602.88,-18.67 2612.91,-22.08 2612.85,-15.08"/>
<polygon fill="none" stroke="black" points="3130.66,-84.62 3130.66,-103.38 3298.66,-103.38 3298.66,-84.62 3130.66,-84.62"/>
<text text-anchor="start" x="3172.66" y="-91.88" font-family="Courier New" font-weight="bold" font-size="10.00" fill="orange">WAIT(,SIG_313)</text>
<polygon fill="none" stroke="black" points="3130.66,-63.88 3130.66,-82.62 3298.66,-82.62 3298.66,-63.88 3130.66,-63.88"/>
<text text-anchor="start" x="3133.66" y="-70.12" font-family="Courier New" font-size="10.00" fill="blue"> &#160;&#160;&#160;&#160;playmusic(kam313aa,3);</text>
<polygon fill="none" stroke="black" points="3127.66,-60.88 3127.66,-106.38 3301.66,-106.38 3301.66,-60.88 3127.66,-60.88"/>
</g>
<!-- 0&#45;&gt;playing -->
<g id="edge15" class="edge">
<title>0&#45;&gt;playing</title>
<path fill="none" stroke="black" d="M2572.78,-148.6C2578.65,-141.61 2586.1,-134.63 2594.66,-130.75 2630.65,-114.45 3278.08,-141.04 3305.66,-112.75 3323.73,-94.21 3323.53,-73.23 3305.66,-54.5 3281.8,-29.49 2780.46,-21.69 2612.76,-19.78"/>
<polygon fill="black" stroke="black" points="2612.82,-16.28 2602.78,-19.67 2612.75,-23.28 2612.82,-16.28"/>
<polygon fill="none" stroke="black" points="3321.66,-84.62 3321.66,-103.38 3489.66,-103.38 3489.66,-84.62 3321.66,-84.62"/>
<text text-anchor="start" x="3363.66" y="-91.88" font-family="Courier New" font-weight="bold" font-size="10.00" fill="orange">WAIT(,SIG_314)</text>
<polygon fill="none" stroke="black" points="3321.66,-63.88 3321.66,-82.62 3489.66,-82.62 3489.66,-63.88 3321.66,-63.88"/>
<text text-anchor="start" x="3324.66" y="-70.12" font-family="Courier New" font-size="10.00" fill="blue"> &#160;&#160;&#160;&#160;playmusic(kam314aa,3);</text>
<polygon fill="none" stroke="black" points="3318.66,-60.88 3318.66,-106.38 3492.66,-106.38 3492.66,-60.88 3318.66,-60.88"/>
</g>
<!-- 0&#45;&gt;playing -->
<g id="edge16" class="edge">
<title>0&#45;&gt;playing</title>
<path fill="none" stroke="black" d="M2572.76,-148.58C2578.63,-141.58 2586.09,-134.61 2594.66,-130.75 2640.37,-110.19 3461.58,-148.54 3496.66,-112.75 3514.78,-94.26 3514.62,-73.15 3496.66,-54.5 3465.87,-22.53 2807.78,-19.44 2612.7,-19.24"/>
<polygon fill="black" stroke="black" points="2612.85,-15.74 2602.84,-19.23 2612.84,-22.74 2612.85,-15.74"/>
<polygon fill="none" stroke="black" points="3512.66,-84.62 3512.66,-103.38 3680.66,-103.38 3680.66,-84.62 3512.66,-84.62"/>
<text text-anchor="start" x="3554.66" y="-91.88" font-family="Courier New" font-weight="bold" font-size="10.00" fill="orange">WAIT(,SIG_316)</text>
<polygon fill="none" stroke="black" points="3512.66,-63.88 3512.66,-82.62 3680.66,-82.62 3680.66,-63.88 3512.66,-63.88"/>
<text text-anchor="start" x="3515.66" y="-70.12" font-family="Courier New" font-size="10.00" fill="blue"> &#160;&#160;&#160;&#160;playmusic(kam316aa,3);</text>
<polygon fill="none" stroke="black" points="3509.66,-60.88 3509.66,-106.38 3683.66,-106.38 3683.66,-60.88 3509.66,-60.88"/>
</g>
<!-- 0&#45;&gt;playing -->
<g id="edge17" class="edge">
<title>0&#45;&gt;playing</title>
<path fill="none" stroke="black" d="M2572.76,-148.56C2578.63,-141.56 2586.08,-134.59 2594.66,-130.75 2622.38,-118.34 3666.37,-134.4 3687.66,-112.75 3705.82,-94.29 3705.68,-73.09 3687.66,-54.5 3649.87,-15.51 2832.01,-17.6 2612.48,-18.87"/>
<polygon fill="black" stroke="black" points="2612.77,-15.37 2602.79,-18.93 2612.82,-22.37 2612.77,-15.37"/>
<polygon fill="none" stroke="black" points="3703.66,-84.62 3703.66,-103.38 3871.66,-103.38 3871.66,-84.62 3703.66,-84.62"/>
<text text-anchor="start" x="3745.66" y="-91.88" font-family="Courier New" font-weight="bold" font-size="10.00" fill="orange">WAIT(,SIG_317)</text>
<polygon fill="none" stroke="black" points="3703.66,-63.88 3703.66,-82.62 3871.66,-82.62 3871.66,-63.88 3703.66,-63.88"/>
<text text-anchor="start" x="3706.66" y="-70.12" font-family="Courier New" font-size="10.00" fill="blue"> &#160;&#160;&#160;&#160;playmusic(kam317aa,3);</text>
<polygon fill="none" stroke="black" points="3700.66,-60.88 3700.66,-106.38 3874.66,-106.38 3874.66,-60.88 3700.66,-60.88"/>
</g>
<!-- 0&#45;&gt;playing -->
<g id="edge18" class="edge">
<title>0&#45;&gt;playing</title>
<path fill="none" stroke="black" d="M2572.75,-148.55C2578.62,-141.55 2586.08,-134.58 2594.66,-130.75 2627.24,-116.21 3853.62,-138.15 3878.66,-112.75 3896.84,-94.32 3896.72,-73.05 3878.66,-54.5 3856.23,-31.46 2858.45,-21.72 2612.85,-19.67"/>
<polygon fill="black" stroke="black" points="2612.93,-16.18 2602.91,-19.59 2612.88,-23.17 2612.93,-16.18"/>
<polygon fill="none" stroke="black" points="3894.66,-84.62 3894.66,-103.38 4062.66,-103.38 4062.66,-84.62 3894.66,-84.62"/>
<text text-anchor="start" x="3936.66" y="-91.88" font-family="Courier New" font-weight="bold" font-size="10.00" fill="orange">WAIT(,SIG_318)</text>
<polygon fill="none" stroke="black" points="3894.66,-63.88 3894.66,-82.62 4062.66,-82.62 4062.66,-63.88 3894.66,-63.88"/>
<text text-anchor="start" x="3897.66" y="-70.12" font-family="Courier New" font-size="10.00" fill="blue"> &#160;&#160;&#160;&#160;playmusic(kam318aa,3);</text>
<polygon fill="none" stroke="black" points="3891.66,-60.88 3891.66,-106.38 4065.66,-106.38 4065.66,-60.88 3891.66,-60.88"/>
</g>
<!-- 0&#45;&gt;playing -->
<g id="edge19" class="edge">
<title>0&#45;&gt;playing</title>
<path fill="none" stroke="black" d="M2572.75,-148.54C2578.62,-141.54 2586.07,-134.57 2594.66,-130.75 2632.1,-114.09 4040.86,-141.9 4069.66,-112.75 4087.86,-94.33 4087.75,-73.02 4069.66,-54.5 4043.69,-27.91 2879.51,-20.77 2612.73,-19.49"/>
<polygon fill="black" stroke="black" points="2612.97,-15.99 2602.95,-19.44 2612.93,-22.99 2612.97,-15.99"/>
<polygon fill="none" stroke="black" points="4085.66,-84.62 4085.66,-103.38 4253.66,-103.38 4253.66,-84.62 4085.66,-84.62"/>
<text text-anchor="start" x="4127.66" y="-91.88" font-family="Courier New" font-weight="bold" font-size="10.00" fill="orange">WAIT(,SIG_319)</text>
<polygon fill="none" stroke="black" points="4085.66,-63.88 4085.66,-82.62 4253.66,-82.62 4253.66,-63.88 4085.66,-63.88"/>
<text text-anchor="start" x="4088.66" y="-70.12" font-family="Courier New" font-size="10.00" fill="blue"> &#160;&#160;&#160;&#160;playmusic(kam319aa,3);</text>
<polygon fill="none" stroke="black" points="4082.66,-60.88 4082.66,-106.38 4256.66,-106.38 4256.66,-60.88 4082.66,-60.88"/>
</g>
<!-- playing&#45;&gt;0 -->
<g id="edge20" class="edge">
<title>playing&#45;&gt;0</title>
<path fill="none" stroke="black" d="M2601.2,-19.32C2861.64,-19.82 4230.72,-23.93 4260.66,-54.5 4278.78,-72.99 4278.87,-94.35 4260.66,-112.75 4228.11,-145.65 2636.96,-111.96 2594.66,-130.75 2589.56,-133.02 2584.86,-136.39 2580.65,-140.23"/>
<polygon fill="black" stroke="black" points="2578.15,-137.78 2573.79,-147.44 2583.22,-142.61 2578.15,-137.78"/>
<text text-anchor="start" x="4277.66" y="-81.5" font-family="Courier New" font-weight="bold" font-size="10.00" fill="blue">Z_EPSILON(,)</text>
</g>
<!-- playing&#45;&gt;0 -->
<g id="edge21" class="edge">
<title>playing&#45;&gt;0</title>
<path fill="none" stroke="black" d="M2601.42,-19.27C2871.09,-19.48 4325.91,-22.12 4357.66,-54.5 4375.79,-72.98 4375.87,-94.35 4357.66,-112.75 4323.21,-147.56 2639.42,-110.88 2594.66,-130.75 2589.56,-133.01 2584.86,-136.39 2580.65,-140.22"/>
<polygon fill="black" stroke="black" points="2578.15,-137.78 2573.79,-147.43 2583.22,-142.6 2578.15,-137.78"/>
<text text-anchor="start" x="4374.66" y="-81.5" font-family="Courier New" font-weight="bold" font-size="10.00" fill="blue">Z_EPSILON(,)</text>
</g>
<!-- status -->
<g id="node4" class="node">
<title>status</title>
<polygon fill="none" stroke="black" points="2603.66,-131.25 2603.66,-210.25 2937.66,-210.25 2937.66,-131.25 2603.66,-131.25"/>
<polygon fill="none" stroke="black" points="2614.66,-184.5 2614.66,-203.25 2926.66,-203.25 2926.66,-184.5 2614.66,-184.5"/>
<text text-anchor="start" x="2722.66" y="-191.75" font-family="Courier New" font-weight="bold" font-size="10.00">AUD_MUSIC_PLAYER</text>
<polygon fill="none" stroke="black" points="2614.66,-138.25 2614.66,-182.5 2926.66,-182.5 2926.66,-138.25 2614.66,-138.25"/>
<text text-anchor="start" x="2617.66" y="-170" font-family="Courier New" font-size="10.00" fill="green">VIEW::IDV_MAIN_PANEL @pos(x:4, y:25, h:1, w:1)</text>
<text text-anchor="start" x="2617.66" y="-157.25" font-family="Courier New" font-size="10.00" fill="green">AUD_MUSIC_PLAYER::M_PLAYER_MUSIC(&#39;&#39;,&#39;&#39;,&#39;&#39;,&#39;&#39;,&#39;&#39;,&#39;&#39;)</text>
<text text-anchor="start" x="2617.66" y="-144.5" font-family="Courier New" font-size="10.00" fill="green">{state:&#39;0&#39;: Top:25 Left:4 Z:0</text>
<polygon fill="none" stroke="black" points="2611.66,-135.25 2611.66,-206.25 2929.66,-206.25 2929.66,-135.25 2611.66,-135.25"/>
</g>
</g>
</svg>
