<?xml version="1.0" encoding="UTF-8" standalone="no"?>
<!DOCTYPE svg PUBLIC "-//W3C//DTD SVG 1.1//EN"
 "http://www.w3.org/Graphics/SVG/1.1/DTD/svg11.dtd">
<!-- Generated by graphviz version 10.0.1 (20240210.2158)
 -->
<!-- Title: Automaton Pages: 1 -->
<svg width="1179pt" height="625pt"
 viewBox="0.00 0.00 1179.29 625.25" xmlns="http://www.w3.org/2000/svg" xmlns:xlink="http://www.w3.org/1999/xlink">
<g id="graph0" class="graph" transform="scale(1 1) rotate(0) translate(4 621.25)">
<title>Automaton</title>
<polygon fill="white" stroke="none" points="-4,4 -4,-621.25 1175.29,-621.25 1175.29,4 -4,4"/>
<!-- filename -->
<g id="node1" class="node">
<title>filename</title>
<polygon fill="none" stroke="black" points="223.29,-550.5 223.29,-604 419.29,-604 419.29,-550.5 223.29,-550.5"/>
<polygon fill="none" stroke="black" points="234.29,-578.25 234.29,-597 408.29,-597 408.29,-578.25 234.29,-578.25"/>
<text text-anchor="start" x="237.29" y="-585.5" font-family="Courier New" font-weight="bold" font-size="10.00">AUDIO_LEVELS::M_AUDIO_LEVELS</text>
<polygon fill="none" stroke="black" points="234.29,-557.5 234.29,-576.25 408.29,-576.25 408.29,-557.5 234.29,-557.5"/>
<text text-anchor="start" x="276.29" y="-563.75" font-family="Courier New" font-size="10.00" fill="brown">start state = 0</text>
<polygon fill="none" stroke="black" points="231.29,-554.5 231.29,-600 411.29,-600 411.29,-554.5 231.29,-554.5"/>
</g>
<!-- 0 -->
<g id="node2" class="node">
<title>0</title>
<polyline fill="none" stroke="darkred" points="457.17,-566 471.42,-566"/>
<text text-anchor="start" x="460.17" y="-573.2" font-family="Courier New" font-weight="bold" font-size="14.00">0</text>
<path fill="none" stroke="darkred" d="M460.92,-563C460.92,-563 467.67,-563 467.67,-563 471.04,-563 474.42,-566.38 474.42,-569.75 474.42,-569.75 474.42,-584.75 474.42,-584.75 474.42,-588.12 471.04,-591.5 467.67,-591.5 467.67,-591.5 460.92,-591.5 460.92,-591.5 457.54,-591.5 454.17,-588.12 454.17,-584.75 454.17,-584.75 454.17,-569.75 454.17,-569.75 454.17,-566.38 457.54,-563 460.92,-563"/>
</g>
<!-- READY -->
<g id="node3" class="node">
<title>READY</title>
<polyline fill="none" stroke="darkred" stroke-width="3" points="440.17,-396.25 488.42,-396.25"/>
<text text-anchor="start" x="443.67" y="-403.95" font-family="Courier New" font-weight="bold" font-size="14.00">READY</text>
<path fill="none" stroke="darkred" stroke-width="3" d="M446.33,-391.25C446.33,-391.25 482.25,-391.25 482.25,-391.25 487.83,-391.25 493.42,-396.83 493.42,-402.42 493.42,-402.42 493.42,-413.58 493.42,-413.58 493.42,-419.17 487.83,-424.75 482.25,-424.75 482.25,-424.75 446.33,-424.75 446.33,-424.75 440.75,-424.75 435.17,-419.17 435.17,-413.58 435.17,-413.58 435.17,-402.42 435.17,-402.42 435.17,-396.83 440.75,-391.25 446.33,-391.25"/>
</g>
<!-- 0&#45;&gt;READY -->
<g id="edge1" class="edge">
<title>0&#45;&gt;READY</title>
<path fill="none" stroke="black" d="M464.29,-559.29C464.29,-531.69 464.29,-476.57 464.29,-441.31"/>
<polygon fill="black" stroke="black" points="467.79,-441.69 464.29,-431.69 460.79,-441.69 467.79,-441.69"/>
<polygon fill="none" stroke="black" points="467.29,-497.5 467.29,-516.25 923.29,-516.25 923.29,-497.5 467.29,-497.5"/>
<text text-anchor="start" x="656.29" y="-504.75" font-family="Courier New" font-weight="bold" font-size="10.00" fill="blue">Z_EPSILON(0,)</text>
<polygon fill="none" stroke="black" points="467.29,-451.25 467.29,-495.5 923.29,-495.5 923.29,-451.25 467.29,-451.25"/>
<text text-anchor="start" x="470.29" y="-483" font-family="Courier New" font-size="10.00" fill="blue"> &#160;&#160;&#160;&#160;//set initial audio level here </text>
<text text-anchor="start" x="470.29" y="-470.25" font-family="Courier New" font-size="10.00" fill="blue"> &#160;&#160;&#160;&#160;ASSIGN(WPARM,1+music_volume()); SIGNAL(POS_AUDIO_M2,SIG_ON); //MUSIC</text>
<text text-anchor="start" x="470.29" y="-457.5" font-family="Courier New" font-size="10.00" fill="blue"> &#160;&#160;&#160;&#160;ASSIGN(BPARM,1+effects_volume()); SIGNAL(POS_AUDIO_SFX2,SIG_ON); //SFX</text>
<polygon fill="none" stroke="black" points="464.29,-448.25 464.29,-519.25 926.29,-519.25 926.29,-448.25 464.29,-448.25"/>
</g>
<!-- CHANGED -->
<g id="node4" class="node">
<title>CHANGED</title>
<polyline fill="none" stroke="darkred" points="432.42,-7 496.17,-7"/>
<text text-anchor="start" x="435.42" y="-14.2" font-family="Courier New" font-weight="bold" font-size="14.00">CHANGED</text>
<path fill="none" stroke="darkred" d="M438.92,-4C438.92,-4 489.67,-4 489.67,-4 494.42,-4 499.17,-8.75 499.17,-13.5 499.17,-13.5 499.17,-23 499.17,-23 499.17,-27.75 494.42,-32.5 489.67,-32.5 489.67,-32.5 438.92,-32.5 438.92,-32.5 434.17,-32.5 429.42,-27.75 429.42,-23 429.42,-23 429.42,-13.5 429.42,-13.5 429.42,-8.75 434.17,-4 438.92,-4"/>
</g>
<!-- READY&#45;&gt;CHANGED -->
<g id="edge3" class="edge">
<title>READY&#45;&gt;CHANGED</title>
<path fill="none" stroke="black" d="M426.02,-406.38C325.77,-404.36 61.38,-396.34 35.29,-367.75 -11.64,-316.33 -11.87,-105.7 35.29,-54.5 60.21,-27.45 300.41,-21.16 410.12,-19.69"/>
<polygon fill="black" stroke="black" points="410.11,-23.19 420.06,-19.57 410.02,-16.2 410.11,-23.19"/>
<polygon fill="none" stroke="black" points="38.29,-212.12 38.29,-230.88 224.29,-230.88 224.29,-212.12 38.29,-212.12"/>
<text text-anchor="start" x="74.29" y="-219.38" font-family="Courier New" font-weight="bold" font-size="10.00" fill="orange">WAIT(,SIG_MUSIC_UP)</text>
<polygon fill="none" stroke="black" points="38.29,-191.38 38.29,-210.12 224.29,-210.12 224.29,-191.38 38.29,-191.38"/>
<text text-anchor="start" x="41.29" y="-197.62" font-family="Courier New" font-size="10.00" fill="blue"> &#160;&#160;&#160;if (WPARM&lt;7) ADD(WPARM,1);</text>
<polygon fill="none" stroke="black" points="35.29,-188.38 35.29,-233.88 227.29,-233.88 227.29,-188.38 35.29,-188.38"/>
</g>
<!-- READY&#45;&gt;CHANGED -->
<g id="edge4" class="edge">
<title>READY&#45;&gt;CHANGED</title>
<path fill="none" stroke="black" d="M426.04,-405.65C370.63,-402.81 272.23,-394.08 250.29,-367.75 228.01,-341.01 227.77,-81.04 250.29,-54.5 270.41,-30.8 353.61,-23.01 410.14,-20.46"/>
<polygon fill="black" stroke="black" points="410.05,-23.97 419.9,-20.07 409.77,-16.97 410.05,-23.97"/>
<polygon fill="none" stroke="black" points="253.29,-212.12 253.29,-230.88 439.29,-230.88 439.29,-212.12 253.29,-212.12"/>
<text text-anchor="start" x="289.29" y="-219.38" font-family="Courier New" font-weight="bold" font-size="10.00" fill="orange">WAIT(,SIG_MUSIC_DN)</text>
<polygon fill="none" stroke="black" points="253.29,-191.38 253.29,-210.12 439.29,-210.12 439.29,-191.38 253.29,-191.38"/>
<text text-anchor="start" x="256.29" y="-197.62" font-family="Courier New" font-size="10.00" fill="blue"> &#160;&#160;&#160;if (WPARM&gt;0) SUB(WPARM,1);</text>
<polygon fill="none" stroke="black" points="250.29,-188.38 250.29,-233.88 442.29,-233.88 442.29,-188.38 250.29,-188.38"/>
</g>
<!-- READY&#45;&gt;CHANGED -->
<g id="edge5" class="edge">
<title>READY&#45;&gt;CHANGED</title>
<path fill="none" stroke="black" d="M464.29,-385.88C464.29,-320.46 464.29,-121.16 464.29,-47.24"/>
<polygon fill="black" stroke="black" points="467.79,-47.61 464.29,-37.61 460.79,-47.61 467.79,-47.61"/>
<polygon fill="none" stroke="black" points="467.29,-212.12 467.29,-230.88 653.29,-230.88 653.29,-212.12 467.29,-212.12"/>
<text text-anchor="start" x="509.29" y="-219.38" font-family="Courier New" font-weight="bold" font-size="10.00" fill="orange">WAIT(,SIG_SFX_UP)</text>
<polygon fill="none" stroke="black" points="467.29,-191.38 467.29,-210.12 653.29,-210.12 653.29,-191.38 467.29,-191.38"/>
<text text-anchor="start" x="470.29" y="-197.62" font-family="Courier New" font-size="10.00" fill="blue"> &#160;&#160;&#160;if (BPARM&lt;7) ADD(BPARM,1);</text>
<polygon fill="none" stroke="black" points="464.29,-188.38 464.29,-233.88 656.29,-233.88 656.29,-188.38 464.29,-188.38"/>
</g>
<!-- READY&#45;&gt;CHANGED -->
<g id="edge6" class="edge">
<title>READY&#45;&gt;CHANGED</title>
<path fill="none" stroke="black" d="M502.62,-404.79C553.21,-400.98 638.14,-391.18 657.29,-367.75 679.31,-340.8 679.58,-81.23 657.29,-54.5 639.89,-33.63 569.19,-25.08 518.41,-21.6"/>
<polygon fill="black" stroke="black" points="518.65,-18.11 508.44,-20.97 518.2,-25.1 518.65,-18.11"/>
<polygon fill="none" stroke="black" points="676.29,-212.12 676.29,-230.88 862.29,-230.88 862.29,-212.12 676.29,-212.12"/>
<text text-anchor="start" x="718.29" y="-219.38" font-family="Courier New" font-weight="bold" font-size="10.00" fill="orange">WAIT(,SIG_SFX_DN)</text>
<polygon fill="none" stroke="black" points="676.29,-191.38 676.29,-210.12 862.29,-210.12 862.29,-191.38 676.29,-191.38"/>
<text text-anchor="start" x="679.29" y="-197.62" font-family="Courier New" font-size="10.00" fill="blue"> &#160;&#160;&#160;if (BPARM&gt;0) SUB(BPARM,1);</text>
<polygon fill="none" stroke="black" points="673.29,-188.38 673.29,-233.88 865.29,-233.88 865.29,-188.38 673.29,-188.38"/>
</g>
<!-- CHANGED&#45;&gt;READY -->
<g id="edge2" class="edge">
<title>CHANGED&#45;&gt;READY</title>
<path fill="none" stroke="black" d="M507.11,-19.75C606.83,-21.36 847.96,-27.98 872.29,-54.5 919.35,-105.8 919.1,-316.22 872.29,-367.75 848.62,-393.81 617.79,-403.03 514.18,-405.88"/>
<polygon fill="black" stroke="black" points="514.21,-402.38 504.3,-406.14 514.39,-409.37 514.21,-402.38"/>
<polygon fill="none" stroke="black" points="910.29,-346 910.29,-364.75 1168.29,-364.75 1168.29,-346 910.29,-346"/>
<text text-anchor="start" x="1003.29" y="-353.25" font-family="Courier New" font-weight="bold" font-size="10.00" fill="blue">Z_EPSILON(,)</text>
<polygon fill="none" stroke="black" points="910.29,-57.5 910.29,-344 1168.29,-344 1168.29,-57.5 910.29,-57.5"/>
<text text-anchor="start" x="913.29" y="-331.5" font-family="Courier New" font-size="10.00" fill="blue"> &#160;&#160;&#160;log(&quot;turn all the lights off ...&quot;);</text>
<text text-anchor="start" x="913.29" y="-318.75" font-family="Courier New" font-size="10.00" fill="blue"> &#160;&#160;&#160;SIGNAL(POS_AUDIO_M1,SIG_OFF);</text>
<text text-anchor="start" x="913.29" y="-306" font-family="Courier New" font-size="10.00" fill="blue"> &#160;&#160;&#160;SIGNAL(POS_AUDIO_M2,SIG_OFF);</text>
<text text-anchor="start" x="913.29" y="-293.25" font-family="Courier New" font-size="10.00" fill="blue"> &#160;&#160;&#160;SIGNAL(POS_AUDIO_M3,SIG_OFF);</text>
<text text-anchor="start" x="913.29" y="-280.5" font-family="Courier New" font-size="10.00" fill="blue"> &#160;&#160;&#160;SIGNAL(POS_AUDIO_M4,SIG_OFF);</text>
<text text-anchor="start" x="913.29" y="-267.75" font-family="Courier New" font-size="10.00" fill="blue"> &#160;&#160;&#160;SIGNAL(POS_AUDIO_M5,SIG_OFF);</text>
<text text-anchor="start" x="913.29" y="-255" font-family="Courier New" font-size="10.00" fill="blue"> &#160;&#160;&#160;SIGNAL(POS_AUDIO_M6,SIG_OFF); </text>
<text text-anchor="start" x="913.29" y="-242.25" font-family="Courier New" font-size="10.00" fill="blue"> &#160;&#160;&#160;SIGNAL(POS_AUDIO_M7,SIG_OFF); </text>
<text text-anchor="start" x="913.29" y="-229.5" font-family="Courier New" font-size="10.00" fill="blue"> &#160;&#160;&#160;SIGNAL(POS_AUDIO_SFX1,SIG_OFF);</text>
<text text-anchor="start" x="913.29" y="-216.75" font-family="Courier New" font-size="10.00" fill="blue"> &#160;&#160;&#160;SIGNAL(POS_AUDIO_SFX2,SIG_OFF);</text>
<text text-anchor="start" x="913.29" y="-204" font-family="Courier New" font-size="10.00" fill="blue"> &#160;&#160;&#160;SIGNAL(POS_AUDIO_SFX3,SIG_OFF);</text>
<text text-anchor="start" x="913.29" y="-191.25" font-family="Courier New" font-size="10.00" fill="blue"> &#160;&#160;&#160;SIGNAL(POS_AUDIO_SFX4,SIG_OFF);</text>
<text text-anchor="start" x="913.29" y="-178.5" font-family="Courier New" font-size="10.00" fill="blue"> &#160;&#160;&#160;SIGNAL(POS_AUDIO_SFX5,SIG_OFF);</text>
<text text-anchor="start" x="913.29" y="-165.75" font-family="Courier New" font-size="10.00" fill="blue"> &#160;&#160;&#160;SIGNAL(POS_AUDIO_SFX6,SIG_OFF); </text>
<text text-anchor="start" x="913.29" y="-153" font-family="Courier New" font-size="10.00" fill="blue"> &#160;&#160;&#160;SIGNAL(POS_AUDIO_SFX7,SIG_OFF); </text>
<text text-anchor="start" x="913.29" y="-140.25" font-family="Courier New" font-size="10.00" fill="blue"> &#160;&#160;&#160;// turn on just the ones we want ...</text>
<text text-anchor="start" x="913.29" y="-127.5" font-family="Courier New" font-size="10.00" fill="blue"> &#160;&#160;&#160;SIGNAL(&quot;POS_AUDIO_M&quot;+WPARM, SIG_ON);</text>
<text text-anchor="start" x="913.29" y="-114.75" font-family="Courier New" font-size="10.00" fill="blue"> &#160;&#160;&#160;SIGNAL(&quot;POS_AUDIO_SFX&quot;+BPARM, SIG_ON);</text>
<text text-anchor="start" x="913.29" y="-102" font-family="Courier New" font-size="10.00" fill="blue"> &#160;&#160;&#160;log(&quot;BPARM==&quot;, BPARM);</text>
<text text-anchor="start" x="913.29" y="-89.25" font-family="Courier New" font-size="10.00" fill="blue"> &#160;&#160;&#160;log(&quot;WPARM==&quot;, WPARM);</text>
<text text-anchor="start" x="913.29" y="-76.5" font-family="Courier New" font-size="10.00" fill="blue"> &#160;&#160;&#160;effects_volume(BPARM);</text>
<text text-anchor="start" x="913.29" y="-63.75" font-family="Courier New" font-size="10.00" fill="blue"> &#160;&#160;&#160;music_volume(WPARM);</text>
<polygon fill="none" stroke="black" points="907.29,-54.5 907.29,-367.75 1171.29,-367.75 1171.29,-54.5 907.29,-54.5"/>
</g>
<!-- status -->
<g id="node5" class="node">
<title>status</title>
<polygon fill="none" stroke="black" points="509.29,-537.75 509.29,-616.75 843.29,-616.75 843.29,-537.75 509.29,-537.75"/>
<polygon fill="none" stroke="black" points="520.29,-591 520.29,-609.75 832.29,-609.75 832.29,-591 520.29,-591"/>
<text text-anchor="start" x="640.29" y="-598.25" font-family="Courier New" font-weight="bold" font-size="10.00">AUDIO_LEVELS</text>
<polygon fill="none" stroke="black" points="520.29,-544.75 520.29,-589 832.29,-589 832.29,-544.75 520.29,-544.75"/>
<text text-anchor="start" x="523.29" y="-576.5" font-family="Courier New" font-size="10.00" fill="green">VIEW::IDV_MAIN_PANEL @pos(x:53, y:207, h:8, w:15)</text>
<text text-anchor="start" x="523.29" y="-563.75" font-family="Courier New" font-size="10.00" fill="green">AUDIO_LEVELS::M_AUDIO_LEVELS(&#39;&#39;,&#39;&#39;,&#39;&#39;,&#39;&#39;,&#39;&#39;,&#39;&#39;)</text>
<text text-anchor="start" x="523.29" y="-551" font-family="Courier New" font-size="10.00" fill="green">{state:&#39;READY&#39;: bParm:1 wParm:7 Top:207 Left:53 Z:0</text>
<polygon fill="none" stroke="black" points="517.29,-541.75 517.29,-612.75 835.29,-612.75 835.29,-541.75 517.29,-541.75"/>
</g>
</g>
</svg>
