<?xml version="1.0" encoding="UTF-8" standalone="no"?>
<!DOCTYPE svg PUBLIC "-//W3C//DTD SVG 1.1//EN"
 "http://www.w3.org/Graphics/SVG/1.1/DTD/svg11.dtd">
<!-- Generated by graphviz version 10.0.1 (20240210.2158)
 -->
<!-- Title: Automaton Pages: 1 -->
<svg width="862pt" height="88pt"
 viewBox="0.00 0.00 862.00 88.00" xmlns="http://www.w3.org/2000/svg" xmlns:xlink="http://www.w3.org/1999/xlink">
<g id="graph0" class="graph" transform="scale(1 1) rotate(0) translate(4 84)">
<title>Automaton</title>
<polygon fill="white" stroke="none" points="-4,4 -4,-84 858,-84 858,4 -4,4"/>
<!-- filename -->
<g id="node1" class="node">
<title>filename</title>
<polygon fill="none" stroke="black" points="0,-13.25 0,-66.75 184,-66.75 184,-13.25 0,-13.25"/>
<polygon fill="none" stroke="black" points="11,-41 11,-59.75 173,-59.75 173,-41 11,-41"/>
<text text-anchor="start" x="14" y="-48.25" font-family="Courier New" font-weight="bold" font-size="10.00">BTN_AUDIO_MUP::M_AUDIO_BTN</text>
<polygon fill="none" stroke="black" points="11,-20.25 11,-39 173,-39 173,-20.25 11,-20.25"/>
<text text-anchor="start" x="47" y="-26.5" font-family="Courier New" font-size="10.00" fill="brown">start state = 0</text>
<polygon fill="none" stroke="black" points="8,-17.25 8,-62.75 176,-62.75 176,-17.25 8,-17.25"/>
</g>
<!-- 0 -->
<g id="node2" class="node">
<title>0</title>
<polyline fill="none" stroke="darkred" stroke-width="3" points="221.38,-28.25 236.62,-28.25"/>
<text text-anchor="start" x="224.88" y="-35.95" font-family="Courier New" font-weight="bold" font-size="14.00">0</text>
<path fill="none" stroke="darkred" stroke-width="3" d="M224.79,-23.25C224.79,-23.25 233.21,-23.25 233.21,-23.25 237.42,-23.25 241.62,-27.46 241.62,-31.67 241.62,-31.67 241.62,-48.33 241.62,-48.33 241.62,-52.54 237.42,-56.75 233.21,-56.75 233.21,-56.75 224.79,-56.75 224.79,-56.75 220.58,-56.75 216.38,-52.54 216.38,-48.33 216.38,-48.33 216.38,-31.67 216.38,-31.67 216.38,-27.46 220.58,-23.25 224.79,-23.25"/>
</g>
<!-- 0&#45;&gt;0 -->
<g id="edge1" class="edge">
<title>0&#45;&gt;0</title>
<path fill="none" stroke="black" d="M255.79,-48.33C265.78,-48.6 274,-45.82 274,-40 274,-36.63 271.25,-34.29 267.01,-32.96"/>
<polygon fill="black" stroke="black" points="267.63,-29.51 257.3,-31.85 266.84,-36.46 267.63,-29.51"/>
<polygon fill="none" stroke="black" points="277,-41 277,-59.75 391,-59.75 391,-41 277,-41"/>
<text text-anchor="start" x="307" y="-48.25" font-family="Courier New" font-weight="bold" font-size="10.00" fill="orange">CLICK(0,)</text>
<polygon fill="none" stroke="black" points="277,-20.25 277,-39 391,-39 391,-20.25 277,-20.25"/>
<text text-anchor="start" x="280" y="-26.5" font-family="Courier New" font-size="10.00" fill="blue">SIGNAL(WIP1,WIP2);</text>
<polygon fill="none" stroke="black" points="274,-17.25 274,-62.75 394,-62.75 394,-17.25 274,-17.25"/>
</g>
<!-- status -->
<g id="node3" class="node">
<title>status</title>
<polygon fill="none" stroke="black" points="412,-0.5 412,-79.5 854,-79.5 854,-0.5 412,-0.5"/>
<polygon fill="none" stroke="black" points="423,-53.75 423,-72.5 843,-72.5 843,-53.75 423,-53.75"/>
<text text-anchor="start" x="594" y="-61" font-family="Courier New" font-weight="bold" font-size="10.00">BTN_AUDIO_MUP</text>
<polygon fill="none" stroke="black" points="423,-7.5 423,-51.75 843,-51.75 843,-7.5 423,-7.5"/>
<text text-anchor="start" x="426" y="-39.25" font-family="Courier New" font-size="10.00" fill="green">VIEW::IDV_MAIN_PANEL @pos(x:565, y:142, w:25, h:25)</text>
<text text-anchor="start" x="426" y="-26.5" font-family="Courier New" font-size="10.00" fill="green">BTN_AUDIO_MUP::M_AUDIO_BTN(&#39;AUDIO_LEVELS&#39;,&#39;SIG_MUSIC_UP&#39;,&#39;&#39;,&#39;&#39;,&#39;&#39;,&#39;&#39;)</text>
<text text-anchor="start" x="426" y="-13.75" font-family="Courier New" font-size="10.00" fill="green">{state:&#39;0&#39;: Top:142 Left:565 Z:0</text>
<polygon fill="none" stroke="black" points="420,-4.5 420,-75.5 846,-75.5 846,-4.5 420,-4.5"/>
</g>
</g>
</svg>
