<?xml version="1.0" encoding="UTF-8" standalone="no"?>
<!DOCTYPE svg PUBLIC "-//W3C//DTD SVG 1.1//EN"
 "http://www.w3.org/Graphics/SVG/1.1/DTD/svg11.dtd">
<!-- Generated by graphviz version 10.0.1 (20240210.2158)
 -->
<!-- Title: Automaton Pages: 1 -->
<svg width="1127pt" height="292pt"
 viewBox="0.00 0.00 1127.00 291.50" xmlns="http://www.w3.org/2000/svg" xmlns:xlink="http://www.w3.org/1999/xlink">
<g id="graph0" class="graph" transform="scale(1 1) rotate(0) translate(4 287.5)">
<title>Automaton</title>
<polygon fill="white" stroke="none" points="-4,4 -4,-287.5 1123,-287.5 1123,4 -4,4"/>
<!-- filename -->
<g id="node1" class="node">
<title>filename</title>
<polygon fill="none" stroke="black" points="0,-216.75 0,-270.25 232,-270.25 232,-216.75 0,-216.75"/>
<polygon fill="none" stroke="black" points="11,-244.5 11,-263.25 221,-263.25 221,-244.5 11,-244.5"/>
<text text-anchor="start" x="14" y="-251.75" font-family="Courier New" font-weight="bold" font-size="10.00">BTN_CFGPLAYERNEW_OK::M_BTN_ADDNAME</text>
<polygon fill="none" stroke="black" points="11,-223.75 11,-242.5 221,-242.5 221,-223.75 11,-223.75"/>
<text text-anchor="start" x="71" y="-230" font-family="Courier New" font-size="10.00" fill="brown">start state = 0</text>
<polygon fill="none" stroke="black" points="8,-220.75 8,-266.25 224,-266.25 224,-220.75 8,-220.75"/>
</g>
<!-- 0 -->
<g id="node2" class="node">
<title>0</title>
<polyline fill="none" stroke="darkred" points="269.88,-232.25 284.12,-232.25"/>
<text text-anchor="start" x="272.88" y="-239.45" font-family="Courier New" font-weight="bold" font-size="14.00">0</text>
<path fill="none" stroke="darkred" d="M273.62,-229.25C273.62,-229.25 280.38,-229.25 280.38,-229.25 283.75,-229.25 287.12,-232.62 287.12,-236 287.12,-236 287.12,-251 287.12,-251 287.12,-254.38 283.75,-257.75 280.38,-257.75 280.38,-257.75 273.62,-257.75 273.62,-257.75 270.25,-257.75 266.88,-254.38 266.88,-251 266.88,-251 266.88,-236 266.88,-236 266.88,-232.62 270.25,-229.25 273.62,-229.25"/>
</g>
<!-- 1 -->
<g id="node3" class="node">
<title>1</title>
<polyline fill="none" stroke="darkred" stroke-width="3" points="268.38,-23.75 283.62,-23.75"/>
<text text-anchor="start" x="271.88" y="-31.45" font-family="Courier New" font-weight="bold" font-size="14.00">1</text>
<path fill="none" stroke="darkred" stroke-width="3" d="M271.79,-18.75C271.79,-18.75 280.21,-18.75 280.21,-18.75 284.42,-18.75 288.62,-22.96 288.62,-27.17 288.62,-27.17 288.62,-43.83 288.62,-43.83 288.62,-48.04 284.42,-52.25 280.21,-52.25 280.21,-52.25 271.79,-52.25 271.79,-52.25 267.58,-52.25 263.38,-48.04 263.38,-43.83 263.38,-43.83 263.38,-27.17 263.38,-27.17 263.38,-22.96 267.58,-18.75 271.79,-18.75"/>
</g>
<!-- 0&#45;&gt;1 -->
<g id="edge1" class="edge">
<title>0&#45;&gt;1</title>
<path fill="none" stroke="black" d="M263.44,-225.29C257.13,-217.99 249.21,-209.75 241,-203.5 227.08,-192.91 215.11,-200.43 206,-185.5 183.66,-148.89 186.82,-127.36 206,-89 213.2,-74.6 226.44,-63.12 239.48,-54.62"/>
<polygon fill="black" stroke="black" points="241.25,-57.64 248.01,-49.48 237.64,-51.64 241.25,-57.64"/>
<polygon fill="none" stroke="black" points="209,-144.62 209,-163.38 323,-163.38 323,-144.62 209,-144.62"/>
<text text-anchor="start" x="230" y="-151.88" font-family="Courier New" font-weight="bold" font-size="10.00" fill="blue">Z_EPSILON(,)</text>
<polygon fill="none" stroke="black" points="209,-111.12 209,-142.62 323,-142.62 323,-111.12 209,-111.12"/>
<text text-anchor="start" x="212" y="-130.12" font-family="Courier New" font-size="10.00" fill="blue"> &#160;&#160;&#160;WSPRITE=WIP3;</text>
<text text-anchor="start" x="212" y="-117.38" font-family="Courier New" font-size="10.00" fill="blue"> &#160;&#160;&#160;SHOW(WSPRITE);</text>
<polygon fill="none" stroke="black" points="206,-108.12 206,-166.38 326,-166.38 326,-108.12 206,-108.12"/>
</g>
<!-- 1&#45;&gt;0 -->
<g id="edge2" class="edge">
<title>1&#45;&gt;0</title>
<path fill="none" stroke="black" d="M302.81,-57.19C311.97,-65.9 321.14,-76.85 326,-89 341.93,-128.82 340.91,-145.29 326,-185.5 324.55,-189.41 312.3,-203.66 300.42,-216.93"/>
<polygon fill="black" stroke="black" points="297.9,-214.5 293.79,-224.26 303.09,-219.19 297.9,-214.5"/>
<polygon fill="none" stroke="black" points="340,-163.75 340,-182.5 670,-182.5 670,-163.75 340,-163.75"/>
<text text-anchor="start" x="481" y="-171" font-family="Courier New" font-weight="bold" font-size="10.00" fill="orange">CLICK(,)</text>
<polygon fill="none" stroke="black" points="340,-92 340,-161.75 670,-161.75 670,-92 340,-92"/>
<text text-anchor="start" x="343" y="-149.25" font-family="Courier New" font-size="10.00" fill="blue">PLAYWAVE(SOUND_BTNPRESS);</text>
<text text-anchor="start" x="343" y="-136.5" font-family="Courier New" font-size="10.00" fill="blue"> &#160;&#160;&#160;//This puts the name in the editbox into wparm </text>
<text text-anchor="start" x="343" y="-123.75" font-family="Courier New" font-size="10.00" fill="blue"> &#160;&#160;&#160;WPARM=get_control_value(&quot;IDV_CFGPLAYERNEW&quot;, &quot;33&quot;);</text>
<text text-anchor="start" x="343" y="-111" font-family="Courier New" font-size="10.00" fill="blue"> &#160;&#160;&#160;SHOW();</text>
<text text-anchor="start" x="343" y="-98.25" font-family="Courier New" font-size="10.00" fill="blue"> &#160;&#160;&#160;LOADVIEW(IDV_CFGCULTURE);</text>
<polygon fill="none" stroke="black" points="337,-89 337,-185.5 673,-185.5 673,-89 337,-89"/>
</g>
<!-- 1&#45;&gt;1 -->
<g id="edge3" class="edge">
<title>1&#45;&gt;1</title>
<path fill="none" stroke="black" d="M302.79,-38.67C312.78,-38.78 321,-37.72 321,-35.5 321,-34.22 318.25,-33.32 314.01,-32.82"/>
<polygon fill="black" stroke="black" points="314.45,-29.33 304.31,-32.39 314.15,-36.33 314.45,-29.33"/>
<polygon fill="none" stroke="black" points="324,-42.88 324,-61.62 438,-61.62 438,-42.88 324,-42.88"/>
<text text-anchor="start" x="327" y="-50.12" font-family="Courier New" font-weight="bold" font-size="10.00" fill="orange">DRAGFOCUS(0,FALSE)</text>
<polygon fill="none" stroke="black" points="324,-9.38 324,-40.88 438,-40.88 438,-9.38 324,-9.38"/>
<text text-anchor="start" x="339" y="-28.38" font-family="Courier New" font-size="10.00" fill="blue">WSPRITE=WIP3;</text>
<text text-anchor="start" x="339" y="-15.62" font-family="Courier New" font-size="10.00" fill="blue">SHOW(WSPRITE);</text>
<polygon fill="none" stroke="black" points="321,-6.38 321,-64.62 441,-64.62 441,-6.38 321,-6.38"/>
</g>
<!-- 1&#45;&gt;1 -->
<g id="edge4" class="edge">
<title>1&#45;&gt;1</title>
<path fill="none" stroke="black" d="M302.84,-39.71C350.9,-43.61 441,-42.21 441,-35.5 441,-29.29 363.78,-27.63 314.19,-30.51"/>
<polygon fill="black" stroke="black" points="314.09,-27.01 304.35,-31.19 314.57,-33.99 314.09,-27.01"/>
<polygon fill="none" stroke="black" points="444,-49.25 444,-68 594,-68 594,-49.25 444,-49.25"/>
<text text-anchor="start" x="468" y="-56.5" font-family="Courier New" font-weight="bold" font-size="10.00" fill="orange">DRAGFOCUS(0,TRUE)</text>
<polygon fill="none" stroke="black" points="444,-3 444,-47.25 594,-47.25 594,-3 444,-3"/>
<text text-anchor="start" x="447" y="-34.75" font-family="Courier New" font-size="10.00" fill="blue">WSPRITE=WIP2;</text>
<text text-anchor="start" x="447" y="-22" font-family="Courier New" font-size="10.00" fill="blue">SHOW(WSPRITE);</text>
<text text-anchor="start" x="447" y="-9.25" font-family="Courier New" font-size="10.00" fill="blue">PLAYWAVE(SOUND_BTNDRAG);</text>
<polygon fill="none" stroke="black" points="441,0 441,-71 597,-71 597,0 441,0"/>
</g>
<!-- 1&#45;&gt;1 -->
<g id="edge5" class="edge">
<title>1&#45;&gt;1</title>
<path fill="none" stroke="black" d="M302.75,-40.22C381.84,-47.95 597,-46.38 597,-35.5 597,-25.11 400.74,-23.21 314.2,-29.8"/>
<polygon fill="black" stroke="black" points="313.92,-26.31 304.25,-30.65 314.52,-33.28 313.92,-26.31"/>
<polygon fill="none" stroke="black" points="600,-36.5 600,-55.25 696,-55.25 696,-36.5 600,-36.5"/>
<text text-anchor="start" x="603" y="-43.75" font-family="Courier New" font-weight="bold" font-size="10.00" fill="orange">WAIT(,SIG_MALE)</text>
<polygon fill="none" stroke="black" points="600,-15.75 600,-34.5 696,-34.5 696,-15.75 600,-15.75"/>
<text text-anchor="start" x="624" y="-22" font-family="Courier New" font-size="10.00" fill="blue">BPARM=0;</text>
<polygon fill="none" stroke="black" points="597,-12.75 597,-58.25 699,-58.25 699,-12.75 597,-12.75"/>
</g>
<!-- 1&#45;&gt;1 -->
<g id="edge6" class="edge">
<title>1&#45;&gt;1</title>
<path fill="none" stroke="black" d="M302.69,-40.95C398.4,-52.21 699,-50.39 699,-35.5 699,-21.15 419.73,-18.94 313.84,-28.88"/>
<polygon fill="black" stroke="black" points="313.77,-25.37 304.19,-29.89 314.5,-32.33 313.77,-25.37"/>
<polygon fill="none" stroke="black" points="702,-36.5 702,-55.25 810,-55.25 810,-36.5 702,-36.5"/>
<text text-anchor="start" x="705" y="-43.75" font-family="Courier New" font-weight="bold" font-size="10.00" fill="orange">WAIT(,SIG_FEMALE)</text>
<polygon fill="none" stroke="black" points="702,-15.75 702,-34.5 810,-34.5 810,-15.75 702,-15.75"/>
<text text-anchor="start" x="732" y="-22" font-family="Courier New" font-size="10.00" fill="blue">BPARM=1;</text>
<polygon fill="none" stroke="black" points="699,-12.75 699,-58.25 813,-58.25 813,-12.75 699,-12.75"/>
</g>
<!-- 1&#45;&gt;1 -->
<g id="edge7" class="edge">
<title>1&#45;&gt;1</title>
<path fill="none" stroke="black" d="M302.9,-41.55C415.38,-56.46 813,-54.44 813,-35.5 813,-17.15 439.84,-14.68 314.26,-28.1"/>
<polygon fill="black" stroke="black" points="313.92,-24.62 304.41,-29.27 314.75,-31.57 313.92,-24.62"/>
<polygon fill="none" stroke="black" points="816,-36.5 816,-55.25 918,-55.25 918,-36.5 816,-36.5"/>
<text text-anchor="start" x="819" y="-43.75" font-family="Courier New" font-weight="bold" font-size="10.00" fill="orange">WAIT(,SIG_NIRET)</text>
<polygon fill="none" stroke="black" points="816,-15.75 816,-34.5 918,-34.5 918,-15.75 816,-15.75"/>
<text text-anchor="start" x="837" y="-22" font-family="Courier New" font-size="10.00" fill="blue">WOBJECT=1;</text>
<polygon fill="none" stroke="black" points="813,-12.75 813,-58.25 921,-58.25 921,-12.75 813,-12.75"/>
</g>
<!-- 1&#45;&gt;1 -->
<g id="edge8" class="edge">
<title>1&#45;&gt;1</title>
<path fill="none" stroke="black" d="M302.75,-42.04C429.29,-60.71 921,-58.53 921,-35.5 921,-13.1 455.81,-10.43 313.93,-27.47"/>
<polygon fill="black" stroke="black" points="313.7,-23.97 304.25,-28.76 314.62,-30.91 313.7,-23.97"/>
<polygon fill="none" stroke="black" points="924,-36.5 924,-55.25 1026,-55.25 1026,-36.5 924,-36.5"/>
<text text-anchor="start" x="927" y="-43.75" font-family="Courier New" font-weight="bold" font-size="10.00" fill="orange">WAIT(,SIG_ETNOC)</text>
<polygon fill="none" stroke="black" points="924,-15.75 924,-34.5 1026,-34.5 1026,-15.75 924,-15.75"/>
<text text-anchor="start" x="945" y="-22" font-family="Courier New" font-size="10.00" fill="blue">WOBJECT=0;</text>
<polygon fill="none" stroke="black" points="921,-12.75 921,-58.25 1029,-58.25 1029,-12.75 921,-12.75"/>
</g>
<!-- status -->
<g id="node4" class="node">
<title>status</title>
<polygon fill="none" stroke="black" points="322,-204 322,-283 890,-283 890,-204 322,-204"/>
<polygon fill="none" stroke="black" points="333,-257.25 333,-276 879,-276 879,-257.25 333,-257.25"/>
<text text-anchor="start" x="549" y="-264.5" font-family="Courier New" font-weight="bold" font-size="10.00">BTN_CFGPLAYERNEW_OK</text>
<polygon fill="none" stroke="black" points="333,-211 333,-255.25 879,-255.25 879,-211 333,-211"/>
<text text-anchor="start" x="336" y="-242.75" font-family="Courier New" font-size="10.00" fill="green">VIEW::IDV_CFGPLAYERNEW @pos(x:275, y:220, h:50, w:40)</text>
<text text-anchor="start" x="336" y="-230" font-family="Courier New" font-size="10.00" fill="green">BTN_CFGPLAYERNEW_OK::M_BTN_ADDNAME(&#39;IDV_CFGCULTURE&#39;,&#39;IDS_BTN_OK_HI&#39;,&#39;IDS_BTN_OK&#39;,&#39;&#39;,&#39;&#39;,&#39;&#39;)</text>
<text text-anchor="start" x="336" y="-217.25" font-family="Courier New" font-size="10.00" fill="green">{state:&#39;1&#39;: bParm:0 wParm:Cruiser wObject:0 wSprite:IDS_BTN_OK_HI Top:220 Left:275 Z:0</text>
<polygon fill="none" stroke="black" points="330,-208 330,-279 882,-279 882,-208 330,-208"/>
</g>
</g>
</svg>
