<?xml version="1.0" encoding="UTF-8" standalone="no"?>
<!DOCTYPE svg PUBLIC "-//W3C//DTD SVG 1.1//EN"
 "http://www.w3.org/Graphics/SVG/1.1/DTD/svg11.dtd">
<!-- Generated by graphviz version 10.0.1 (20240210.2158)
 -->
<!-- Title: Automaton Pages: 1 -->
<svg width="880pt" height="88pt"
 viewBox="0.00 0.00 880.00 88.00" xmlns="http://www.w3.org/2000/svg" xmlns:xlink="http://www.w3.org/1999/xlink">
<g id="graph0" class="graph" transform="scale(1 1) rotate(0) translate(4 84)">
<title>Automaton</title>
<polygon fill="white" stroke="none" points="-4,4 -4,-84 876,-84 876,4 -4,4"/>
<!-- filename -->
<g id="node1" class="node">
<title>filename</title>
<polygon fill="none" stroke="black" points="0,-13.25 0,-66.75 196,-66.75 196,-13.25 0,-13.25"/>
<polygon fill="none" stroke="black" points="11,-41 11,-59.75 185,-59.75 185,-41 11,-41"/>
<text text-anchor="start" x="14" y="-48.25" font-family="Courier New" font-weight="bold" font-size="10.00">BTN_AUDIO_EFXUP::M_AUDIO_BTN</text>
<polygon fill="none" stroke="black" points="11,-20.25 11,-39 185,-39 185,-20.25 11,-20.25"/>
<text text-anchor="start" x="53" y="-26.5" font-family="Courier New" font-size="10.00" fill="brown">start state = 0</text>
<polygon fill="none" stroke="black" points="8,-17.25 8,-62.75 188,-62.75 188,-17.25 8,-17.25"/>
</g>
<!-- 0 -->
<g id="node2" class="node">
<title>0</title>
<polyline fill="none" stroke="darkred" stroke-width="3" points="233.38,-28.25 248.62,-28.25"/>
<text text-anchor="start" x="236.88" y="-35.95" font-family="Courier New" font-weight="bold" font-size="14.00">0</text>
<path fill="none" stroke="darkred" stroke-width="3" d="M236.79,-23.25C236.79,-23.25 245.21,-23.25 245.21,-23.25 249.42,-23.25 253.62,-27.46 253.62,-31.67 253.62,-31.67 253.62,-48.33 253.62,-48.33 253.62,-52.54 249.42,-56.75 245.21,-56.75 245.21,-56.75 236.79,-56.75 236.79,-56.75 232.58,-56.75 228.38,-52.54 228.38,-48.33 228.38,-48.33 228.38,-31.67 228.38,-31.67 228.38,-27.46 232.58,-23.25 236.79,-23.25"/>
</g>
<!-- 0&#45;&gt;0 -->
<g id="edge1" class="edge">
<title>0&#45;&gt;0</title>
<path fill="none" stroke="black" d="M267.79,-48.33C277.78,-48.6 286,-45.82 286,-40 286,-36.63 283.25,-34.29 279.01,-32.96"/>
<polygon fill="black" stroke="black" points="279.63,-29.51 269.3,-31.85 278.84,-36.46 279.63,-29.51"/>
<polygon fill="none" stroke="black" points="289,-41 289,-59.75 409,-59.75 409,-41 289,-41"/>
<text text-anchor="start" x="322" y="-48.25" font-family="Courier New" font-weight="bold" font-size="10.00" fill="orange">CLICK(0,)</text>
<polygon fill="none" stroke="black" points="289,-20.25 289,-39 409,-39 409,-20.25 289,-20.25"/>
<text text-anchor="start" x="292" y="-26.5" font-family="Courier New" font-size="10.00" fill="blue">SIGNAL(WIP1,WIP2);}</text>
<polygon fill="none" stroke="black" points="286,-17.25 286,-62.75 412,-62.75 412,-17.25 286,-17.25"/>
</g>
<!-- status -->
<g id="node3" class="node">
<title>status</title>
<polygon fill="none" stroke="black" points="430,-0.5 430,-79.5 872,-79.5 872,-0.5 430,-0.5"/>
<polygon fill="none" stroke="black" points="441,-53.75 441,-72.5 861,-72.5 861,-53.75 441,-53.75"/>
<text text-anchor="start" x="606" y="-61" font-family="Courier New" font-weight="bold" font-size="10.00">BTN_AUDIO_EFXUP</text>
<polygon fill="none" stroke="black" points="441,-7.5 441,-51.75 861,-51.75 861,-7.5 441,-7.5"/>
<text text-anchor="start" x="444" y="-39.25" font-family="Courier New" font-size="10.00" fill="green">VIEW::IDV_MAIN_PANEL @pos(x:780, y:142, h:27, w:25)</text>
<text text-anchor="start" x="444" y="-26.5" font-family="Courier New" font-size="10.00" fill="green">BTN_AUDIO_EFXUP::M_AUDIO_BTN(&#39;AUDIO_LEVELS&#39;,&#39;SIG_SFX_UP&#39;,&#39;&#39;,&#39;&#39;,&#39;&#39;,&#39;&#39;)</text>
<text text-anchor="start" x="444" y="-13.75" font-family="Courier New" font-size="10.00" fill="green">{state:&#39;0&#39;: Top:142 Left:780 Z:0</text>
<polygon fill="none" stroke="black" points="438,-4.5 438,-75.5 864,-75.5 864,-4.5 438,-4.5"/>
</g>
</g>
</svg>
