<?xml version="1.0" encoding="UTF-8" standalone="no"?>
<!DOCTYPE svg PUBLIC "-//W3C//DTD SVG 1.1//EN"
 "http://www.w3.org/Graphics/SVG/1.1/DTD/svg11.dtd">
<!-- Generated by graphviz version 10.0.1 (20240210.2158)
 -->
<!-- Title: Automaton Pages: 1 -->
<svg width="1288pt" height="181pt"
 viewBox="0.00 0.00 1288.00 181.00" xmlns="http://www.w3.org/2000/svg" xmlns:xlink="http://www.w3.org/1999/xlink">
<g id="graph0" class="graph" transform="scale(1 1) rotate(0) translate(4 177)">
<title>Automaton</title>
<polygon fill="white" stroke="none" points="-4,4 -4,-177 1284,-177 1284,4 -4,4"/>
<!-- filename -->
<g id="node1" class="node">
<title>filename</title>
<polygon fill="none" stroke="black" points="0,-59.75 0,-113.25 178,-113.25 178,-59.75 0,-59.75"/>
<polygon fill="none" stroke="black" points="11,-87.5 11,-106.25 167,-106.25 167,-87.5 11,-87.5"/>
<text text-anchor="start" x="14" y="-94.75" font-family="Courier New" font-weight="bold" font-size="10.00">BTN_CFGGAME::M_GAMECREATE</text>
<polygon fill="none" stroke="black" points="11,-66.75 11,-85.5 167,-85.5 167,-66.75 11,-66.75"/>
<text text-anchor="start" x="44" y="-73" font-family="Courier New" font-size="10.00" fill="brown">start state = 0</text>
<polygon fill="none" stroke="black" points="8,-63.75 8,-109.25 170,-109.25 170,-63.75 8,-63.75"/>
</g>
<!-- 0 -->
<g id="node2" class="node">
<title>0</title>
<polyline fill="none" stroke="darkred" stroke-width="3" points="215.38,-74.75 230.62,-74.75"/>
<text text-anchor="start" x="218.88" y="-82.45" font-family="Courier New" font-weight="bold" font-size="14.00">0</text>
<path fill="none" stroke="darkred" stroke-width="3" d="M218.79,-69.75C218.79,-69.75 227.21,-69.75 227.21,-69.75 231.42,-69.75 235.62,-73.96 235.62,-78.17 235.62,-78.17 235.62,-94.83 235.62,-94.83 235.62,-99.04 231.42,-103.25 227.21,-103.25 227.21,-103.25 218.79,-103.25 218.79,-103.25 214.58,-103.25 210.38,-99.04 210.38,-94.83 210.38,-94.83 210.38,-78.17 210.38,-78.17 210.38,-73.96 214.58,-69.75 218.79,-69.75"/>
</g>
<!-- 0&#45;&gt;0 -->
<g id="edge1" class="edge">
<title>0&#45;&gt;0</title>
<path fill="none" stroke="black" d="M249.79,-89.28C259.78,-89.37 268,-88.44 268,-86.5 268,-85.38 265.25,-84.6 261.01,-84.15"/>
<polygon fill="black" stroke="black" points="261.43,-80.67 251.31,-83.78 261.17,-87.66 261.43,-80.67"/>
<polygon fill="none" stroke="black" points="271,-151.25 271,-170 559,-170 559,-151.25 271,-151.25"/>
<text text-anchor="start" x="391" y="-158.5" font-family="Courier New" font-weight="bold" font-size="10.00" fill="orange">CLICK(,)</text>
<polygon fill="none" stroke="black" points="271,-3 271,-149.25 559,-149.25 559,-3 271,-3"/>
<text text-anchor="start" x="274" y="-136.75" font-family="Courier New" font-size="10.00" fill="blue">PLAYWAVE(SOUND_BTNPRESS);</text>
<text text-anchor="start" x="274" y="-124" font-family="Courier New" font-size="10.00" fill="blue"> WPARM = 0;</text>
<text text-anchor="start" x="274" y="-111.25" font-family="Courier New" font-size="10.00" fill="blue"> SIGNAL(S01_NEWGAME,SIG_NEW);</text>
<text text-anchor="start" x="274" y="-98.5" font-family="Courier New" font-size="10.00" fill="blue"> predicate gamestats(name,view);</text>
<text text-anchor="start" x="274" y="-85.75" font-family="Courier New" font-size="10.00" fill="blue"> gamestats(&quot;game1&quot;,&quot;IDV_ORIE&quot;).</text>
<text text-anchor="start" x="274" y="-73" font-family="Courier New" font-size="10.00" fill="blue"> replay(&quot;system/creategame&quot;);</text>
<text text-anchor="start" x="274" y="-60.25" font-family="Courier New" font-size="10.00" fill="blue"> &#160;&#160;&#160;predicate localplayer(account_id, name);</text>
<text text-anchor="start" x="274" y="-47.5" font-family="Courier New" font-size="10.00" fill="blue"> &#160;&#160;&#160;localplayer(,?name)?</text>
<text text-anchor="start" x="274" y="-34.75" font-family="Courier New" font-size="10.00" fill="blue"> &#160;&#160;&#160;if(name == &quot;&quot;){LOADVIEW(IDV_CFGPLAYERNEW);}</text>
<text text-anchor="start" x="274" y="-22" font-family="Courier New" font-size="10.00" fill="blue"> &#160;&#160;&#160;if(name != &quot;&quot;){LOADVIEW(IDV_ORIE);}</text>
<text text-anchor="start" x="274" y="-9.25" font-family="Courier New" font-size="10.00" fill="blue">SHOW();</text>
<polygon fill="none" stroke="black" points="268,0 268,-173 562,-173 562,0 268,0"/>
</g>
<!-- 0&#45;&gt;0 -->
<g id="edge2" class="edge">
<title>0&#45;&gt;0</title>
<path fill="none" stroke="black" d="M249.97,-89.31C331.4,-93.75 562,-92.82 562,-86.5 562,-80.46 350.79,-79.34 261.26,-83.14"/>
<polygon fill="black" stroke="black" points="261.3,-79.64 251.48,-83.61 261.64,-86.63 261.3,-79.64"/>
<polygon fill="none" stroke="black" points="565,-87.5 565,-106.25 679,-106.25 679,-87.5 565,-87.5"/>
<text text-anchor="start" x="568" y="-94.75" font-family="Courier New" font-weight="bold" font-size="10.00" fill="orange">DRAGFOCUS(0,FALSE)</text>
<polygon fill="none" stroke="black" points="565,-66.75 565,-85.5 679,-85.5 679,-66.75 565,-66.75"/>
<text text-anchor="start" x="601" y="-73" font-family="Courier New" font-size="10.00" fill="blue">SHOW();</text>
<polygon fill="none" stroke="black" points="562,-63.75 562,-109.25 682,-109.25 682,-63.75 562,-63.75"/>
</g>
<!-- 0&#45;&gt;0 -->
<g id="edge3" class="edge">
<title>0&#45;&gt;0</title>
<path fill="none" stroke="black" d="M249.8,-90.1C349.77,-97.46 682,-96.26 682,-86.5 682,-77.09 372.72,-75.64 261.18,-82.15"/>
<polygon fill="black" stroke="black" points="261.06,-78.65 251.31,-82.8 261.52,-85.64 261.06,-78.65"/>
<polygon fill="none" stroke="black" points="685,-100.25 685,-119 835,-119 835,-100.25 685,-100.25"/>
<text text-anchor="start" x="709" y="-107.5" font-family="Courier New" font-weight="bold" font-size="10.00" fill="orange">DRAGFOCUS(0,TRUE)</text>
<polygon fill="none" stroke="black" points="685,-54 685,-98.25 835,-98.25 835,-54 685,-54"/>
<text text-anchor="start" x="688" y="-85.75" font-family="Courier New" font-size="10.00" fill="blue">WSPRITE=WIP2;</text>
<text text-anchor="start" x="688" y="-73" font-family="Courier New" font-size="10.00" fill="blue">SHOW(WSPRITE);</text>
<text text-anchor="start" x="688" y="-60.25" font-family="Courier New" font-size="10.00" fill="blue">PLAYWAVE(SOUND_BTNDRAG);</text>
<polygon fill="none" stroke="black" points="682,-51 682,-122 838,-122 838,-51 682,-51"/>
</g>
<!-- status -->
<g id="node3" class="node">
<title>status</title>
<polygon fill="none" stroke="black" points="892,-47 892,-126 1280,-126 1280,-47 892,-47"/>
<polygon fill="none" stroke="black" points="903,-100.25 903,-119 1269,-119 1269,-100.25 903,-100.25"/>
<text text-anchor="start" x="1053" y="-107.5" font-family="Courier New" font-weight="bold" font-size="10.00">BTN_CFGGAME</text>
<polygon fill="none" stroke="black" points="903,-54 903,-98.25 1269,-98.25 1269,-54 903,-54"/>
<text text-anchor="start" x="906" y="-85.75" font-family="Courier New" font-size="10.00" fill="green">VIEW::IDV_MAINMENU @pos(x:290, y:98, w:41, h:205)</text>
<text text-anchor="start" x="906" y="-73" font-family="Courier New" font-size="10.00" fill="green">BTN_CFGGAME::M_GAMECREATE(&#39;&#39;,&#39;IDS_CFG_HL_NEWGM&#39;,&#39;&#39;,&#39;&#39;,&#39;&#39;,&#39;&#39;)</text>
<text text-anchor="start" x="906" y="-60.25" font-family="Courier New" font-size="10.00" fill="green">{state:&#39;0&#39;: wSprite:IDS_CFG_HL_NEWGM Top:98 Left:290</text>
<polygon fill="none" stroke="black" points="900,-51 900,-122 1272,-122 1272,-51 900,-51"/>
</g>
</g>
</svg>
