<?xml version="1.0" encoding="UTF-8" standalone="no"?>
<!DOCTYPE svg PUBLIC "-//W3C//DTD SVG 1.1//EN"
 "http://www.w3.org/Graphics/SVG/1.1/DTD/svg11.dtd">
<!-- Generated by graphviz version 10.0.1 (20240210.2158)
 -->
<!-- Title: Automaton Pages: 1 -->
<svg width="1053pt" height="368pt"
 viewBox="0.00 0.00 1053.00 368.00" xmlns="http://www.w3.org/2000/svg" xmlns:xlink="http://www.w3.org/1999/xlink">
<g id="graph0" class="graph" transform="scale(1 1) rotate(0) translate(4 364)">
<title>Automaton</title>
<polygon fill="white" stroke="none" points="-4,4 -4,-364 1049,-364 1049,4 -4,4"/>
<!-- filename -->
<g id="node1" class="node">
<title>filename</title>
<polygon fill="none" stroke="black" points="0,-293.25 0,-346.75 274,-346.75 274,-293.25 0,-293.25"/>
<polygon fill="none" stroke="black" points="11,-321 11,-339.75 263,-339.75 263,-321 11,-321"/>
<text text-anchor="start" x="14" y="-328.25" font-family="Courier New" font-weight="bold" font-size="10.00">BTN_CFGCULTURE_CREATE::M_BTN_PLAYERCREATE</text>
<polygon fill="none" stroke="black" points="11,-300.25 11,-319 263,-319 263,-300.25 11,-300.25"/>
<text text-anchor="start" x="92" y="-306.5" font-family="Courier New" font-size="10.00" fill="brown">start state = 0</text>
<polygon fill="none" stroke="black" points="8,-297.25 8,-342.75 266,-342.75 266,-297.25 8,-297.25"/>
</g>
<!-- 0 -->
<g id="node2" class="node">
<title>0</title>
<polyline fill="none" stroke="darkred" points="311.88,-308.75 326.12,-308.75"/>
<text text-anchor="start" x="314.88" y="-315.95" font-family="Courier New" font-weight="bold" font-size="14.00">0</text>
<path fill="none" stroke="darkred" d="M315.62,-305.75C315.62,-305.75 322.38,-305.75 322.38,-305.75 325.75,-305.75 329.12,-309.12 329.12,-312.5 329.12,-312.5 329.12,-327.5 329.12,-327.5 329.12,-330.88 325.75,-334.25 322.38,-334.25 322.38,-334.25 315.62,-334.25 315.62,-334.25 312.25,-334.25 308.88,-330.88 308.88,-327.5 308.88,-327.5 308.88,-312.5 308.88,-312.5 308.88,-309.12 312.25,-305.75 315.62,-305.75"/>
</g>
<!-- 1 -->
<g id="node3" class="node">
<title>1</title>
<polyline fill="none" stroke="darkred" stroke-width="3" points="310.38,-23.75 325.62,-23.75"/>
<text text-anchor="start" x="313.88" y="-31.45" font-family="Courier New" font-weight="bold" font-size="14.00">1</text>
<path fill="none" stroke="darkred" stroke-width="3" d="M313.79,-18.75C313.79,-18.75 322.21,-18.75 322.21,-18.75 326.42,-18.75 330.62,-22.96 330.62,-27.17 330.62,-27.17 330.62,-43.83 330.62,-43.83 330.62,-48.04 326.42,-52.25 322.21,-52.25 322.21,-52.25 313.79,-52.25 313.79,-52.25 309.58,-52.25 305.38,-48.04 305.38,-43.83 305.38,-43.83 305.38,-27.17 305.38,-27.17 305.38,-22.96 309.58,-18.75 313.79,-18.75"/>
</g>
<!-- 0&#45;&gt;1 -->
<g id="edge1" class="edge">
<title>0&#45;&gt;1</title>
<path fill="none" stroke="black" d="M307.17,-301.84C300.88,-294 292.49,-285.3 283,-280 246.62,-259.69 217.48,-294.17 191,-262 142.13,-202.64 148.26,-152.92 191,-89 210.67,-59.59 250.17,-46.63 279.93,-40.94"/>
<polygon fill="black" stroke="black" points="280.43,-44.41 289.7,-39.29 279.26,-37.5 280.43,-44.41"/>
<polygon fill="none" stroke="black" points="194,-189.25 194,-208 422,-208 422,-189.25 194,-189.25"/>
<text text-anchor="start" x="272" y="-196.5" font-family="Courier New" font-weight="bold" font-size="10.00" fill="blue">Z_EPSILON(,)</text>
<polygon fill="none" stroke="black" points="194,-143 194,-187.25 422,-187.25 422,-143 194,-143"/>
<text text-anchor="start" x="197" y="-174.75" font-family="Courier New" font-size="10.00" fill="blue"> &#160;&#160;&#160;WSPRITE=WIP3;</text>
<text text-anchor="start" x="197" y="-162" font-family="Courier New" font-size="10.00" fill="blue"> &#160;&#160;&#160;SHOW(WSPRITE);</text>
<text text-anchor="start" x="197" y="-149.25" font-family="Courier New" font-size="10.00" fill="blue"> &#160;&#160;&#160;REF_MACHINE(BTN_CFGPLAYERNEW_OK);</text>
<polygon fill="none" stroke="black" points="191,-140 191,-211 425,-211 425,-140 191,-140"/>
</g>
<!-- 1&#45;&gt;0 -->
<g id="edge2" class="edge">
<title>1&#45;&gt;0</title>
<path fill="none" stroke="black" d="M344.95,-41.37C370.54,-47.59 407.6,-61.08 425,-89 465.67,-154.25 472.11,-201.24 425,-262 405.32,-287.39 382.58,-263.52 355,-280 349.02,-283.57 343.43,-288.44 338.53,-293.52"/>
<polygon fill="black" stroke="black" points="335.96,-291.13 331.97,-300.95 341.21,-295.77 335.96,-291.13"/>
<polygon fill="none" stroke="black" points="460,-240.25 460,-259 1042,-259 1042,-240.25 460,-240.25"/>
<text text-anchor="start" x="727" y="-247.5" font-family="Courier New" font-weight="bold" font-size="10.00" fill="orange">CLICK(,)</text>
<polygon fill="none" stroke="black" points="460,-92 460,-238.25 1042,-238.25 1042,-92 460,-92"/>
<text text-anchor="start" x="463" y="-225.75" font-family="Courier New" font-size="10.00" fill="blue"> &#160;&#160;&#160;PLAYWAVE(SOUND_BTNPRESS);</text>
<text text-anchor="start" x="463" y="-213" font-family="Courier New" font-size="10.00" fill="blue"> &#160;&#160;&#160;//PROCESS PLAYER ATTRIBUTES</text>
<text text-anchor="start" x="463" y="-200.25" font-family="Courier New" font-size="10.00" fill="blue"> &#160;&#160;&#160;predicate player_characters(name,viewname,wealth,karma,energy,strength,wisdom,body,culture);</text>
<text text-anchor="start" x="463" y="-187.5" font-family="Courier New" font-size="10.00" fill="blue"> &#160;&#160;&#160;predicate active_character(name);</text>
<text text-anchor="start" x="463" y="-174.75" font-family="Courier New" font-size="10.00" fill="blue"> &#160;&#160;&#160;LWEALTH = 4;LENERGY = 4;LKARMA = 0;LWISDOM = 4;LSEX = R_BPARM;</text>
<text text-anchor="start" x="463" y="-162" font-family="Courier New" font-size="10.00" fill="blue"> &#160;&#160;&#160;player_characters(R_WPARM,LVIEW,LWEALTH,LKARMA,LENERGY,10,LWISDOM,LSEX,R_WOBJECT).</text>
<text text-anchor="start" x="463" y="-149.25" font-family="Courier New" font-size="10.00" fill="blue"> &#160;&#160;&#160;active_character(&quot;%&quot;)~</text>
<text text-anchor="start" x="463" y="-136.5" font-family="Courier New" font-size="10.00" fill="blue"> &#160;&#160;&#160;active_character(R_WPARM).</text>
<text text-anchor="start" x="463" y="-123.75" font-family="Courier New" font-size="10.00" fill="blue"> &#160;&#160;&#160;SIGNAL(SID_ID,SIG_MYID); //Present my id</text>
<text text-anchor="start" x="463" y="-111" font-family="Courier New" font-size="10.00" fill="blue"> &#160;&#160;&#160;LOADVIEW(WIP1);</text>
<text text-anchor="start" x="463" y="-98.25" font-family="Courier New" font-size="10.00" fill="blue"> &#160;&#160;&#160;SHOW();</text>
<polygon fill="none" stroke="black" points="457,-89 457,-262 1045,-262 1045,-89 457,-89"/>
</g>
<!-- 1&#45;&gt;1 -->
<g id="edge3" class="edge">
<title>1&#45;&gt;1</title>
<path fill="none" stroke="black" d="M344.79,-48.6C354.78,-49.03 363,-44.66 363,-35.5 363,-30.2 360.25,-26.51 356.01,-24.42"/>
<polygon fill="black" stroke="black" points="356.75,-21 346.28,-22.67 355.51,-27.89 356.75,-21"/>
<polygon fill="none" stroke="black" points="366,-42.88 366,-61.62 480,-61.62 480,-42.88 366,-42.88"/>
<text text-anchor="start" x="369" y="-50.12" font-family="Courier New" font-weight="bold" font-size="10.00" fill="orange">DRAGFOCUS(0,FALSE)</text>
<polygon fill="none" stroke="black" points="366,-9.38 366,-40.88 480,-40.88 480,-9.38 366,-9.38"/>
<text text-anchor="start" x="381" y="-28.38" font-family="Courier New" font-size="10.00" fill="blue">WSPRITE=WIP3;</text>
<text text-anchor="start" x="381" y="-15.62" font-family="Courier New" font-size="10.00" fill="blue">SHOW(WSPRITE);</text>
<polygon fill="none" stroke="black" points="363,-6.38 363,-64.62 483,-64.62 483,-6.38 363,-6.38"/>
</g>
<!-- 1&#45;&gt;1 -->
<g id="edge4" class="edge">
<title>1&#45;&gt;1</title>
<path fill="none" stroke="black" d="M344.84,-52.86C392.9,-68.97 483,-63.19 483,-35.5 483,-9.82 405.45,-2.98 355.87,-14.99"/>
<polygon fill="black" stroke="black" points="354.95,-11.61 346.3,-17.73 356.88,-18.34 354.95,-11.61"/>
<polygon fill="none" stroke="black" points="486,-49.25 486,-68 636,-68 636,-49.25 486,-49.25"/>
<text text-anchor="start" x="510" y="-56.5" font-family="Courier New" font-weight="bold" font-size="10.00" fill="orange">DRAGFOCUS(0,TRUE)</text>
<polygon fill="none" stroke="black" points="486,-3 486,-47.25 636,-47.25 636,-3 486,-3"/>
<text text-anchor="start" x="489" y="-34.75" font-family="Courier New" font-size="10.00" fill="blue">WSPRITE=WIP2;</text>
<text text-anchor="start" x="489" y="-22" font-family="Courier New" font-size="10.00" fill="blue">SHOW(WSPRITE);</text>
<text text-anchor="start" x="489" y="-9.25" font-family="Courier New" font-size="10.00" fill="blue">PLAYWAVE(SOUND_BTNDRAG);</text>
<polygon fill="none" stroke="black" points="483,0 483,-71 639,-71 639,0 483,0"/>
</g>
<!-- status -->
<g id="node4" class="node">
<title>status</title>
<polygon fill="none" stroke="black" points="364,-280.5 364,-359.5 974,-359.5 974,-280.5 364,-280.5"/>
<polygon fill="none" stroke="black" points="375,-333.75 375,-352.5 963,-352.5 963,-333.75 375,-333.75"/>
<text text-anchor="start" x="606" y="-341" font-family="Courier New" font-weight="bold" font-size="10.00">BTN_CFGCULTURE_CREATE</text>
<polygon fill="none" stroke="black" points="375,-287.5 375,-331.75 963,-331.75 963,-287.5 375,-287.5"/>
<text text-anchor="start" x="378" y="-319.25" font-family="Courier New" font-size="10.00" fill="green">VIEW::IDV_CFGCULTURE @pos(x:536, y:247, h:64, w:53)</text>
<text text-anchor="start" x="378" y="-306.5" font-family="Courier New" font-size="10.00" fill="green">BTN_CFGCULTURE_CREATE::M_BTN_PLAYERCREATE(&#39;IDV_ORIE&#39;,&#39;IDS_BTN_CREATEH&#39;,&#39;IDS_BTN_CREATE&#39;,&#39;&#39;,&#39;&#39;,&#39;&#39;)</text>
<text text-anchor="start" x="378" y="-293.75" font-family="Courier New" font-size="10.00" fill="green">{state:&#39;1&#39;: wSprite:IDS_BTN_CREATEH Top:247 Left:536 Z:0</text>
<polygon fill="none" stroke="black" points="372,-284.5 372,-355.5 966,-355.5 966,-284.5 372,-284.5"/>
</g>
</g>
</svg>
