<?xml version="1.0" encoding="UTF-8" standalone="no"?>
<!DOCTYPE svg PUBLIC "-//W3C//DTD SVG 1.1//EN"
 "http://www.w3.org/Graphics/SVG/1.1/DTD/svg11.dtd">
<!-- Generated by graphviz version 10.0.1 (20240210.2158)
 -->
<!-- Title: Automaton Pages: 1 -->
<svg width="920pt" height="616pt"
 viewBox="0.00 0.00 920.00 616.25" xmlns="http://www.w3.org/2000/svg" xmlns:xlink="http://www.w3.org/1999/xlink">
<g id="graph0" class="graph" transform="scale(1 1) rotate(0) translate(4 612.25)">
<title>Automaton</title>
<polygon fill="white" stroke="none" points="-4,4 -4,-612.25 916,-612.25 916,4 -4,4"/>
<!-- filename -->
<g id="node1" class="node">
<title>filename</title>
<polygon fill="none" stroke="black" points="10,-541.5 10,-595 248,-595 248,-541.5 10,-541.5"/>
<polygon fill="none" stroke="black" points="21,-569.25 21,-588 237,-588 237,-569.25 21,-569.25"/>
<text text-anchor="start" x="24" y="-576.5" font-family="Courier New" font-weight="bold" font-size="10.00">BTN_CFGGAMENEW_OK::M_BTN_GAMECREATE</text>
<polygon fill="none" stroke="black" points="21,-548.5 21,-567.25 237,-567.25 237,-548.5 21,-548.5"/>
<text text-anchor="start" x="84" y="-554.75" font-family="Courier New" font-size="10.00" fill="brown">start state = 0</text>
<polygon fill="none" stroke="black" points="18,-545.5 18,-591 240,-591 240,-545.5 18,-545.5"/>
</g>
<!-- 0 -->
<g id="node2" class="node">
<title>0</title>
<polyline fill="none" stroke="darkred" points="285.88,-557 300.12,-557"/>
<text text-anchor="start" x="288.88" y="-564.2" font-family="Courier New" font-weight="bold" font-size="14.00">0</text>
<path fill="none" stroke="darkred" d="M289.62,-554C289.62,-554 296.38,-554 296.38,-554 299.75,-554 303.12,-557.38 303.12,-560.75 303.12,-560.75 303.12,-575.75 303.12,-575.75 303.12,-579.12 299.75,-582.5 296.38,-582.5 296.38,-582.5 289.62,-582.5 289.62,-582.5 286.25,-582.5 282.88,-579.12 282.88,-575.75 282.88,-575.75 282.88,-560.75 282.88,-560.75 282.88,-557.38 286.25,-554 289.62,-554"/>
</g>
<!-- 1 -->
<g id="node3" class="node">
<title>1</title>
<polyline fill="none" stroke="darkred" points="19.88,-374.5 34.12,-374.5"/>
<text text-anchor="start" x="22.88" y="-381.7" font-family="Courier New" font-weight="bold" font-size="14.00">1</text>
<path fill="none" stroke="darkred" d="M23.62,-371.5C23.62,-371.5 30.38,-371.5 30.38,-371.5 33.75,-371.5 37.12,-374.88 37.12,-378.25 37.12,-378.25 37.12,-393.25 37.12,-393.25 37.12,-396.62 33.75,-400 30.38,-400 30.38,-400 23.62,-400 23.62,-400 20.25,-400 16.88,-396.62 16.88,-393.25 16.88,-393.25 16.88,-378.25 16.88,-378.25 16.88,-374.88 20.25,-371.5 23.62,-371.5"/>
</g>
<!-- 0&#45;&gt;1 -->
<g id="edge1" class="edge">
<title>0&#45;&gt;1</title>
<path fill="none" stroke="black" d="M279.21,-550.34C272.86,-543.09 264.97,-534.81 257,-528.25 194.23,-476.6 110.98,-430.01 63.79,-405.31"/>
<polygon fill="black" stroke="black" points="65.55,-402.29 55.07,-400.79 62.33,-408.5 65.55,-402.29"/>
<polygon fill="none" stroke="black" points="237,-488.5 237,-507.25 351,-507.25 351,-488.5 237,-488.5"/>
<text text-anchor="start" x="258" y="-495.75" font-family="Courier New" font-weight="bold" font-size="10.00" fill="blue">Z_EPSILON(,)</text>
<polygon fill="none" stroke="black" points="237,-442.25 237,-486.5 351,-486.5 351,-442.25 237,-442.25"/>
<text text-anchor="start" x="240" y="-474" font-family="Courier New" font-size="10.00" fill="blue"> &#160;&#160;&#160;WSPRITE=WIP3;</text>
<text text-anchor="start" x="240" y="-461.25" font-family="Courier New" font-size="10.00" fill="blue"> &#160;&#160;&#160;SHOW(WSPRITE);</text>
<text text-anchor="start" x="240" y="-448.5" font-family="Courier New" font-size="10.00" fill="blue"> &#160;&#160;&#160;WPARM = 0;</text>
<polygon fill="none" stroke="black" points="234,-439.25 234,-510.25 354,-510.25 354,-439.25 234,-439.25"/>
</g>
<!-- 1&#45;&gt;1 -->
<g id="edge3" class="edge">
<title>1&#45;&gt;1</title>
<path fill="none" stroke="black" d="M53.79,-394.08C63.78,-394.35 72,-391.57 72,-385.75 72,-382.38 69.25,-380.04 65.01,-378.71"/>
<polygon fill="black" stroke="black" points="65.63,-375.26 55.3,-377.6 64.84,-382.21 65.63,-375.26"/>
<polygon fill="none" stroke="black" points="75,-393.12 75,-411.88 189,-411.88 189,-393.12 75,-393.12"/>
<text text-anchor="start" x="78" y="-400.38" font-family="Courier New" font-weight="bold" font-size="10.00" fill="orange">DRAGFOCUS(0,FALSE)</text>
<polygon fill="none" stroke="black" points="75,-359.62 75,-391.12 189,-391.12 189,-359.62 75,-359.62"/>
<text text-anchor="start" x="78" y="-378.62" font-family="Courier New" font-size="10.00" fill="blue"> &#160;&#160;&#160;WSPRITE=WIP3;</text>
<text text-anchor="start" x="78" y="-365.88" font-family="Courier New" font-size="10.00" fill="blue"> &#160;&#160;&#160;SHOW(WSPRITE);</text>
<polygon fill="none" stroke="black" points="72,-356.62 72,-414.88 192,-414.88 192,-356.62 72,-356.62"/>
</g>
<!-- 1&#45;&gt;1 -->
<g id="edge4" class="edge">
<title>1&#45;&gt;1</title>
<path fill="none" stroke="black" d="M53.84,-396.78C101.9,-407.03 192,-403.35 192,-385.75 192,-369.42 114.45,-365.08 64.87,-372.71"/>
<polygon fill="black" stroke="black" points="64.55,-369.21 55.33,-374.45 65.8,-376.1 64.55,-369.21"/>
<polygon fill="none" stroke="black" points="195,-399.5 195,-418.25 369,-418.25 369,-399.5 195,-399.5"/>
<text text-anchor="start" x="231" y="-406.75" font-family="Courier New" font-weight="bold" font-size="10.00" fill="orange">DRAGFOCUS(0,TRUE)</text>
<polygon fill="none" stroke="black" points="195,-353.25 195,-397.5 369,-397.5 369,-353.25 195,-353.25"/>
<text text-anchor="start" x="198" y="-385" font-family="Courier New" font-size="10.00" fill="blue"> &#160;&#160;&#160;WSPRITE=WIP2;</text>
<text text-anchor="start" x="198" y="-372.25" font-family="Courier New" font-size="10.00" fill="blue"> &#160;&#160;&#160;SHOW(WSPRITE);</text>
<text text-anchor="start" x="198" y="-359.5" font-family="Courier New" font-size="10.00" fill="blue"> &#160;&#160;&#160;PLAYWAVE(SOUND_BTNDRAG);</text>
<polygon fill="none" stroke="black" points="192,-350.25 192,-421.25 372,-421.25 372,-350.25 192,-350.25"/>
</g>
<!-- 2 -->
<g id="node4" class="node">
<title>2</title>
<polyline fill="none" stroke="darkred" points="218.88,-175.5 233.12,-175.5"/>
<text text-anchor="start" x="221.88" y="-182.7" font-family="Courier New" font-weight="bold" font-size="14.00">2</text>
<path fill="none" stroke="darkred" d="M222.62,-172.5C222.62,-172.5 229.38,-172.5 229.38,-172.5 232.75,-172.5 236.12,-175.88 236.12,-179.25 236.12,-179.25 236.12,-194.25 236.12,-194.25 236.12,-197.62 232.75,-201 229.38,-201 229.38,-201 222.62,-201 222.62,-201 219.25,-201 215.88,-197.62 215.88,-194.25 215.88,-194.25 215.88,-179.25 215.88,-179.25 215.88,-175.88 219.25,-172.5 222.62,-172.5"/>
</g>
<!-- 1&#45;&gt;2 -->
<g id="edge2" class="edge">
<title>1&#45;&gt;2</title>
<path fill="none" stroke="black" d="M23.2,-367.71C16.99,-335.01 8.82,-263.14 46,-223 64.8,-202.7 141.02,-193.72 188.04,-190.04"/>
<polygon fill="black" stroke="black" points="188.08,-193.55 197.8,-189.33 187.57,-186.57 188.08,-193.55"/>
<polygon fill="none" stroke="black" points="49,-310.5 49,-329.25 409,-329.25 409,-310.5 49,-310.5"/>
<text text-anchor="start" x="205" y="-317.75" font-family="Courier New" font-weight="bold" font-size="10.00" fill="orange">CLICK(,)</text>
<polygon fill="none" stroke="black" points="49,-226 49,-308.5 409,-308.5 409,-226 49,-226"/>
<text text-anchor="start" x="52" y="-296" font-family="Courier New" font-size="10.00" fill="blue"> &#160;PLAYWAVE(SOUND_BTNPRESS);</text>
<text text-anchor="start" x="52" y="-283.25" font-family="Courier New" font-size="10.00" fill="blue"> &#160;SIGNAL(S01_NEWGAME,SIG_NEW);</text>
<text text-anchor="start" x="52" y="-270.5" font-family="Courier New" font-size="10.00" fill="blue"> &#160;gamename = get_control_value(&quot;IDV_CFGNEWGAME&quot;, &quot;NEWGM1&quot;);</text>
<text text-anchor="start" x="52" y="-257.75" font-family="Courier New" font-size="10.00" fill="blue"> &#160;predicate gamestats(name,view);</text>
<text text-anchor="start" x="52" y="-245" font-family="Courier New" font-size="10.00" fill="blue"> &#160;gamestats(gamename,&quot;IDV_ORIE&quot;).</text>
<text text-anchor="start" x="52" y="-232.25" font-family="Courier New" font-size="10.00" fill="blue"> </text>
<polygon fill="none" stroke="black" points="46,-223 46,-332.25 412,-332.25 412,-223 46,-223"/>
</g>
<!-- 2&#45;&gt;0 -->
<g id="edge6" class="edge">
<title>2&#45;&gt;0</title>
<path fill="none" stroke="black" d="M252.74,-188.78C299.27,-191.18 392.08,-198.95 412,-223 494.86,-323.04 444,-412.89 358,-510.25 347.96,-521.62 340.7,-518.59 329,-528.25 324.03,-532.36 319.08,-537.14 314.52,-541.91"/>
<polygon fill="black" stroke="black" points="311.99,-539.49 307.83,-549.23 317.16,-544.21 311.99,-539.49"/>
<text text-anchor="start" x="455" y="-383.62" font-family="Courier New" font-weight="bold" font-size="10.00" fill="orange">WAIT(0,SIG_OFF)</text>
</g>
<!-- CHAR_CHECK -->
<g id="node5" class="node">
<title>CHAR_CHECK</title>
<ellipse fill="none" stroke="black" cx="226" cy="-18" rx="67.22" ry="18"/>
<text text-anchor="middle" x="226" y="-12.95" font-family="Courier New" font-size="14.00">CHAR_CHECK</text>
</g>
<!-- 2&#45;&gt;CHAR_CHECK -->
<g id="edge5" class="edge">
<title>2&#45;&gt;CHAR_CHECK</title>
<path fill="none" stroke="black" d="M226,-168.53C226,-139.95 226,-82.41 226,-47.64"/>
<polygon fill="black" stroke="black" points="229.5,-47.89 226,-37.89 222.5,-47.89 229.5,-47.89"/>
<polygon fill="none" stroke="black" points="229,-128.75 229,-147.5 493,-147.5 493,-128.75 229,-128.75"/>
<text text-anchor="start" x="349" y="-136" font-family="Courier New" font-weight="bold" font-size="10.00" fill="blue">(0,)</text>
<polygon fill="none" stroke="black" points="229,-57 229,-126.75 493,-126.75 493,-57 229,-57"/>
<text text-anchor="start" x="232" y="-114.25" font-family="Courier New" font-size="10.00" fill="blue"> &#160;&#160;&#160;&#160;predicate env(account_id, key, value);</text>
<text text-anchor="start" x="232" y="-101.5" font-family="Courier New" font-size="10.00" fill="blue"> &#160;&#160;&#160;// get the account id:</text>
<text text-anchor="start" x="232" y="-88.75" font-family="Courier New" font-size="10.00" fill="blue"> &#160;&#160;&#160;env(&quot;0&quot;,&quot;my_account_id&quot;,?address);</text>
<text text-anchor="start" x="232" y="-76" font-family="Courier New" font-size="10.00" fill="blue"> &#160;&#160;&#160;//check for name in env</text>
<text text-anchor="start" x="232" y="-63.25" font-family="Courier New" font-size="10.00" fill="blue"> &#160;&#160;&#160;env(&quot;0&quot;,&quot;name&quot;,?player);</text>
<polygon fill="none" stroke="black" points="226,-54 226,-150.5 496,-150.5 496,-54 226,-54"/>
</g>
<!-- status -->
<g id="node6" class="node">
<title>status</title>
<polygon fill="none" stroke="black" points="338,-528.75 338,-607.75 912,-607.75 912,-528.75 338,-528.75"/>
<polygon fill="none" stroke="black" points="349,-582 349,-600.75 901,-600.75 901,-582 349,-582"/>
<text text-anchor="start" x="574" y="-589.25" font-family="Courier New" font-weight="bold" font-size="10.00">BTN_CFGGAMENEW_OK</text>
<polygon fill="none" stroke="black" points="349,-535.75 349,-580 901,-580 901,-535.75 349,-535.75"/>
<text text-anchor="start" x="352" y="-567.5" font-family="Courier New" font-size="10.00" fill="green">VIEW::IDV_CFGNEWGAME @pos(x:275, y:220, w:40, h:50)</text>
<text text-anchor="start" x="352" y="-554.75" font-family="Courier New" font-size="10.00" fill="green">BTN_CFGGAMENEW_OK::M_BTN_GAMECREATE(&#39;IDV_CFGCULTURE&#39;,&#39;IDS_BTN_OK_HI&#39;,&#39;IDS_BTN_OK&#39;,&#39;&#39;,&#39;&#39;,&#39;&#39;)</text>
<text text-anchor="start" x="352" y="-542" font-family="Courier New" font-size="10.00" fill="green">{state:&#39;CHAR_CHECK&#39;: wParm:0 wSprite:IDS_BTN_OK_HI Top:220 Left:275</text>
<polygon fill="none" stroke="black" points="346,-532.75 346,-603.75 904,-603.75 904,-532.75 346,-532.75"/>
</g>
</g>
</svg>
