<?xml version="1.0" encoding="UTF-8" standalone="no"?>
<!DOCTYPE svg PUBLIC "-//W3C//DTD SVG 1.1//EN"
 "http://www.w3.org/Graphics/SVG/1.1/DTD/svg11.dtd">
<!-- Generated by graphviz version 10.0.1 (20240210.2158)
 -->
<!-- Title: Automaton Pages: 1 -->
<svg width="1210pt" height="88pt"
 viewBox="0.00 0.00 1210.00 88.00" xmlns="http://www.w3.org/2000/svg" xmlns:xlink="http://www.w3.org/1999/xlink">
<g id="graph0" class="graph" transform="scale(1 1) rotate(0) translate(4 84)">
<title>Automaton</title>
<polygon fill="white" stroke="none" points="-4,4 -4,-84 1206,-84 1206,4 -4,4"/>
<!-- filename -->
<g id="node1" class="node">
<title>filename</title>
<polygon fill="none" stroke="black" points="0,-13.25 0,-66.75 184,-66.75 184,-13.25 0,-13.25"/>
<polygon fill="none" stroke="black" points="11,-41 11,-59.75 173,-59.75 173,-41 11,-41"/>
<text text-anchor="start" x="14" y="-48.25" font-family="Courier New" font-weight="bold" font-size="10.00">BTN_CFG_NW1C::M_BTN_1phase</text>
<polygon fill="none" stroke="black" points="11,-20.25 11,-39 173,-39 173,-20.25 11,-20.25"/>
<text text-anchor="start" x="47" y="-26.5" font-family="Courier New" font-size="10.00" fill="brown">start state = 0</text>
<polygon fill="none" stroke="black" points="8,-17.25 8,-62.75 176,-62.75 176,-17.25 8,-17.25"/>
</g>
<!-- 0 -->
<g id="node2" class="node">
<title>0</title>
<polyline fill="none" stroke="darkred" stroke-width="3" points="221.38,-28.25 236.62,-28.25"/>
<text text-anchor="start" x="224.88" y="-35.95" font-family="Courier New" font-weight="bold" font-size="14.00">0</text>
<path fill="none" stroke="darkred" stroke-width="3" d="M224.79,-23.25C224.79,-23.25 233.21,-23.25 233.21,-23.25 237.42,-23.25 241.62,-27.46 241.62,-31.67 241.62,-31.67 241.62,-48.33 241.62,-48.33 241.62,-52.54 237.42,-56.75 233.21,-56.75 233.21,-56.75 224.79,-56.75 224.79,-56.75 220.58,-56.75 216.38,-52.54 216.38,-48.33 216.38,-48.33 216.38,-31.67 216.38,-31.67 216.38,-27.46 220.58,-23.25 224.79,-23.25"/>
</g>
<!-- 0&#45;&gt;0 -->
<g id="edge1" class="edge">
<title>0&#45;&gt;0</title>
<path fill="none" stroke="black" d="M255.79,-42.78C265.78,-42.87 274,-41.94 274,-40 274,-38.88 271.25,-38.1 267.01,-37.65"/>
<polygon fill="black" stroke="black" points="267.43,-34.17 257.31,-37.28 267.17,-41.16 267.43,-34.17"/>
<polygon fill="none" stroke="black" points="277,-53.75 277,-72.5 433,-72.5 433,-53.75 277,-53.75"/>
<text text-anchor="start" x="331" y="-61" font-family="Courier New" font-weight="bold" font-size="10.00" fill="orange">CLICK(,)</text>
<polygon fill="none" stroke="black" points="277,-7.5 277,-51.75 433,-51.75 433,-7.5 277,-7.5"/>
<text text-anchor="start" x="280" y="-39.25" font-family="Courier New" font-size="10.00" fill="blue">PLAYWAVE(SOUND_BTNPRESS);</text>
<text text-anchor="start" x="280" y="-26.5" font-family="Courier New" font-size="10.00" fill="blue">LOADVIEW(WIP1);</text>
<text text-anchor="start" x="280" y="-13.75" font-family="Courier New" font-size="10.00" fill="blue">SHOW();</text>
<polygon fill="none" stroke="black" points="274,-4.5 274,-75.5 436,-75.5 436,-4.5 274,-4.5"/>
</g>
<!-- 0&#45;&gt;0 -->
<g id="edge2" class="edge">
<title>0&#45;&gt;0</title>
<path fill="none" stroke="black" d="M255.9,-43.39C313.21,-47.16 436,-46.03 436,-40 436,-34.35 328.08,-33 267.37,-35.96"/>
<polygon fill="black" stroke="black" points="267.2,-32.47 257.41,-36.52 267.59,-39.45 267.2,-32.47"/>
<polygon fill="none" stroke="black" points="439,-41 439,-59.75 553,-59.75 553,-41 439,-41"/>
<text text-anchor="start" x="442" y="-48.25" font-family="Courier New" font-weight="bold" font-size="10.00" fill="orange">DRAGFOCUS(0,FALSE)</text>
<polygon fill="none" stroke="black" points="439,-20.25 439,-39 553,-39 553,-20.25 439,-20.25"/>
<text text-anchor="start" x="475" y="-26.5" font-family="Courier New" font-size="10.00" fill="blue">SHOW();</text>
<polygon fill="none" stroke="black" points="436,-17.25 436,-62.75 556,-62.75 556,-17.25 436,-17.25"/>
</g>
<!-- 0&#45;&gt;0 -->
<g id="edge3" class="edge">
<title>0&#45;&gt;0</title>
<path fill="none" stroke="black" d="M255.81,-44.1C335.95,-50.9 556,-49.53 556,-40 556,-30.89 354.87,-29.24 267.16,-35.05"/>
<polygon fill="black" stroke="black" points="267.03,-31.55 257.32,-35.78 267.55,-38.53 267.03,-31.55"/>
<polygon fill="none" stroke="black" points="559,-53.75 559,-72.5 709,-72.5 709,-53.75 559,-53.75"/>
<text text-anchor="start" x="583" y="-61" font-family="Courier New" font-weight="bold" font-size="10.00" fill="orange">DRAGFOCUS(0,TRUE)</text>
<polygon fill="none" stroke="black" points="559,-7.5 559,-51.75 709,-51.75 709,-7.5 559,-7.5"/>
<text text-anchor="start" x="562" y="-39.25" font-family="Courier New" font-size="10.00" fill="blue">WSPRITE=WIP2;</text>
<text text-anchor="start" x="562" y="-26.5" font-family="Courier New" font-size="10.00" fill="blue">SHOW(WSPRITE);</text>
<text text-anchor="start" x="562" y="-13.75" font-family="Courier New" font-size="10.00" fill="blue">PLAYWAVE(SOUND_BTNDRAG);</text>
<polygon fill="none" stroke="black" points="556,-4.5 556,-75.5 712,-75.5 712,-4.5 556,-4.5"/>
</g>
<!-- status -->
<g id="node3" class="node">
<title>status</title>
<polygon fill="none" stroke="black" points="766,-0.5 766,-79.5 1202,-79.5 1202,-0.5 766,-0.5"/>
<polygon fill="none" stroke="black" points="777,-53.75 777,-72.5 1191,-72.5 1191,-53.75 777,-53.75"/>
<text text-anchor="start" x="948" y="-61" font-family="Courier New" font-weight="bold" font-size="10.00">BTN_CFG_NW1C</text>
<polygon fill="none" stroke="black" points="777,-7.5 777,-51.75 1191,-51.75 1191,-7.5 777,-7.5"/>
<text text-anchor="start" x="780" y="-39.25" font-family="Courier New" font-size="10.00" fill="green">VIEW::IDV_CFGNW1 @pos(x:445, y:67, h:169, w:120)</text>
<text text-anchor="start" x="780" y="-26.5" font-family="Courier New" font-size="10.00" fill="green">BTN_CFG_NW1C::M_BTN_1phase(&#39;IDV_CFGSESS&#39;,&#39;IDS_BTN_NW1C&#39;,&#39;&#39;,&#39;&#39;,&#39;&#39;,&#39;&#39;)</text>
<text text-anchor="start" x="780" y="-13.75" font-family="Courier New" font-size="10.00" fill="green">{state:&#39;0&#39;: wSprite:IDS_BTN_NW1C Top:67 Left:445 Z:0</text>
<polygon fill="none" stroke="black" points="774,-4.5 774,-75.5 1194,-75.5 1194,-4.5 774,-4.5"/>
</g>
</g>
</svg>
