<?xml version="1.0" encoding="UTF-8" standalone="no"?>
<!DOCTYPE svg PUBLIC "-//W3C//DTD SVG 1.1//EN"
 "http://www.w3.org/Graphics/SVG/1.1/DTD/svg11.dtd">
<!-- Generated by graphviz version 10.0.1 (20240210.2158)
 -->
<!-- Title: Automaton Pages: 1 -->
<svg width="1102pt" height="88pt"
 viewBox="0.00 0.00 1102.00 88.00" xmlns="http://www.w3.org/2000/svg" xmlns:xlink="http://www.w3.org/1999/xlink">
<g id="graph0" class="graph" transform="scale(1 1) rotate(0) translate(4 84)">
<title>Automaton</title>
<polygon fill="white" stroke="none" points="-4,4 -4,-84 1098,-84 1098,4 -4,4"/>
<!-- filename -->
<g id="node1" class="node">
<title>filename</title>
<polygon fill="none" stroke="black" points="0,-13.25 0,-66.75 160,-66.75 160,-13.25 0,-13.25"/>
<polygon fill="none" stroke="black" points="11,-41 11,-59.75 149,-59.75 149,-41 11,-41"/>
<text text-anchor="start" x="14" y="-48.25" font-family="Courier New" font-weight="bold" font-size="10.00">BTN_QUIT::M_BTN_1phase</text>
<polygon fill="none" stroke="black" points="11,-20.25 11,-39 149,-39 149,-20.25 11,-20.25"/>
<text text-anchor="start" x="35" y="-26.5" font-family="Courier New" font-size="10.00" fill="brown">start state = 0</text>
<polygon fill="none" stroke="black" points="8,-17.25 8,-62.75 152,-62.75 152,-17.25 8,-17.25"/>
</g>
<!-- 0 -->
<g id="node2" class="node">
<title>0</title>
<polyline fill="none" stroke="darkred" stroke-width="3" points="197.38,-28.25 212.62,-28.25"/>
<text text-anchor="start" x="200.88" y="-35.95" font-family="Courier New" font-weight="bold" font-size="14.00">0</text>
<path fill="none" stroke="darkred" stroke-width="3" d="M200.79,-23.25C200.79,-23.25 209.21,-23.25 209.21,-23.25 213.42,-23.25 217.62,-27.46 217.62,-31.67 217.62,-31.67 217.62,-48.33 217.62,-48.33 217.62,-52.54 213.42,-56.75 209.21,-56.75 209.21,-56.75 200.79,-56.75 200.79,-56.75 196.58,-56.75 192.38,-52.54 192.38,-48.33 192.38,-48.33 192.38,-31.67 192.38,-31.67 192.38,-27.46 196.58,-23.25 200.79,-23.25"/>
</g>
<!-- 0&#45;&gt;0 -->
<g id="edge1" class="edge">
<title>0&#45;&gt;0</title>
<path fill="none" stroke="black" d="M231.79,-42.78C241.78,-42.87 250,-41.94 250,-40 250,-38.88 247.25,-38.1 243.01,-37.65"/>
<polygon fill="black" stroke="black" points="243.43,-34.17 233.31,-37.28 243.17,-41.16 243.43,-34.17"/>
<polygon fill="none" stroke="black" points="253,-53.75 253,-72.5 409,-72.5 409,-53.75 253,-53.75"/>
<text text-anchor="start" x="307" y="-61" font-family="Courier New" font-weight="bold" font-size="10.00" fill="orange">CLICK(,)</text>
<polygon fill="none" stroke="black" points="253,-7.5 253,-51.75 409,-51.75 409,-7.5 253,-7.5"/>
<text text-anchor="start" x="256" y="-39.25" font-family="Courier New" font-size="10.00" fill="blue">PLAYWAVE(SOUND_BTNPRESS);</text>
<text text-anchor="start" x="256" y="-26.5" font-family="Courier New" font-size="10.00" fill="blue">LOADVIEW(WIP1);</text>
<text text-anchor="start" x="256" y="-13.75" font-family="Courier New" font-size="10.00" fill="blue">SHOW();</text>
<polygon fill="none" stroke="black" points="250,-4.5 250,-75.5 412,-75.5 412,-4.5 250,-4.5"/>
</g>
<!-- 0&#45;&gt;0 -->
<g id="edge2" class="edge">
<title>0&#45;&gt;0</title>
<path fill="none" stroke="black" d="M231.9,-43.39C289.21,-47.16 412,-46.03 412,-40 412,-34.35 304.08,-33 243.37,-35.96"/>
<polygon fill="black" stroke="black" points="243.2,-32.47 233.41,-36.52 243.59,-39.45 243.2,-32.47"/>
<polygon fill="none" stroke="black" points="415,-41 415,-59.75 529,-59.75 529,-41 415,-41"/>
<text text-anchor="start" x="418" y="-48.25" font-family="Courier New" font-weight="bold" font-size="10.00" fill="orange">DRAGFOCUS(0,FALSE)</text>
<polygon fill="none" stroke="black" points="415,-20.25 415,-39 529,-39 529,-20.25 415,-20.25"/>
<text text-anchor="start" x="451" y="-26.5" font-family="Courier New" font-size="10.00" fill="blue">SHOW();</text>
<polygon fill="none" stroke="black" points="412,-17.25 412,-62.75 532,-62.75 532,-17.25 412,-17.25"/>
</g>
<!-- 0&#45;&gt;0 -->
<g id="edge3" class="edge">
<title>0&#45;&gt;0</title>
<path fill="none" stroke="black" d="M231.81,-44.1C311.95,-50.9 532,-49.53 532,-40 532,-30.89 330.87,-29.24 243.16,-35.05"/>
<polygon fill="black" stroke="black" points="243.03,-31.55 233.32,-35.78 243.55,-38.53 243.03,-31.55"/>
<polygon fill="none" stroke="black" points="535,-53.75 535,-72.5 685,-72.5 685,-53.75 535,-53.75"/>
<text text-anchor="start" x="559" y="-61" font-family="Courier New" font-weight="bold" font-size="10.00" fill="orange">DRAGFOCUS(0,TRUE)</text>
<polygon fill="none" stroke="black" points="535,-7.5 535,-51.75 685,-51.75 685,-7.5 535,-7.5"/>
<text text-anchor="start" x="538" y="-39.25" font-family="Courier New" font-size="10.00" fill="blue">WSPRITE=WIP2;</text>
<text text-anchor="start" x="538" y="-26.5" font-family="Courier New" font-size="10.00" fill="blue">SHOW(WSPRITE);</text>
<text text-anchor="start" x="538" y="-13.75" font-family="Courier New" font-size="10.00" fill="blue">PLAYWAVE(SOUND_BTNDRAG);</text>
<polygon fill="none" stroke="black" points="532,-4.5 532,-75.5 688,-75.5 688,-4.5 532,-4.5"/>
</g>
<!-- status -->
<g id="node3" class="node">
<title>status</title>
<polygon fill="none" stroke="black" points="742,-0.5 742,-79.5 1094,-79.5 1094,-0.5 742,-0.5"/>
<polygon fill="none" stroke="black" points="753,-53.75 753,-72.5 1083,-72.5 1083,-53.75 753,-53.75"/>
<text text-anchor="start" x="894" y="-61" font-family="Courier New" font-weight="bold" font-size="10.00">BTN_QUIT</text>
<polygon fill="none" stroke="black" points="753,-7.5 753,-51.75 1083,-51.75 1083,-7.5 753,-7.5"/>
<text text-anchor="start" x="756" y="-39.25" font-family="Courier New" font-size="10.00" fill="green">VIEW::IDV_TOPMENU @pos(x:390, y:216, h:128, w:55)</text>
<text text-anchor="start" x="756" y="-26.5" font-family="Courier New" font-size="10.00" fill="green">BTN_QUIT::M_BTN_1phase(&#39;0&#39;,&#39;IDS_BTN_QUIT&#39;,&#39;&#39;,&#39;&#39;,&#39;&#39;,&#39;&#39;)</text>
<text text-anchor="start" x="756" y="-13.75" font-family="Courier New" font-size="10.00" fill="green">{state:&#39;0&#39;: wSprite:IDS_BTN_QUIT Top:216 Left:390 Z:0</text>
<polygon fill="none" stroke="black" points="750,-4.5 750,-75.5 1086,-75.5 1086,-4.5 750,-4.5"/>
</g>
</g>
</svg>
