<?xml version="1.0" encoding="UTF-8" standalone="no"?>
<!DOCTYPE svg PUBLIC "-//W3C//DTD SVG 1.1//EN"
 "http://www.w3.org/Graphics/SVG/1.1/DTD/svg11.dtd">
<!-- Generated by graphviz version 10.0.1 (20240210.2158)
 -->
<!-- Title: Automaton Pages: 1 -->
<svg width="760pt" height="936pt"
 viewBox="0.00 0.00 759.97 936.00" xmlns="http://www.w3.org/2000/svg" xmlns:xlink="http://www.w3.org/1999/xlink">
<g id="graph0" class="graph" transform="scale(1 1) rotate(0) translate(4 932)">
<title>Automaton</title>
<polygon fill="white" stroke="none" points="-4,4 -4,-932 755.97,-932 755.97,4 -4,4"/>
<!-- filename -->
<g id="node1" class="node">
<title>filename</title>
<polygon fill="none" stroke="black" points="83.97,-861.25 83.97,-914.75 279.97,-914.75 279.97,-861.25 83.97,-861.25"/>
<polygon fill="none" stroke="black" points="94.97,-889 94.97,-907.75 268.97,-907.75 268.97,-889 94.97,-889"/>
<text text-anchor="start" x="97.97" y="-896.25" font-family="Courier New" font-weight="bold" font-size="10.00">GOPA_ACTIVE::M_INSTANTATTACK</text>
<polygon fill="none" stroke="black" points="94.97,-868.25 94.97,-887 268.97,-887 268.97,-868.25 94.97,-868.25"/>
<text text-anchor="start" x="136.97" y="-874.5" font-family="Courier New" font-size="10.00" fill="brown">start state = 0</text>
<polygon fill="none" stroke="black" points="91.97,-865.25 91.97,-910.75 271.97,-910.75 271.97,-865.25 91.97,-865.25"/>
</g>
<!-- 0 -->
<g id="node2" class="node">
<title>0</title>
<polyline fill="none" stroke="darkred" stroke-width="3" points="317.35,-876.25 332.6,-876.25"/>
<text text-anchor="start" x="320.85" y="-883.95" font-family="Courier New" font-weight="bold" font-size="14.00">0</text>
<path fill="none" stroke="darkred" stroke-width="3" d="M320.76,-871.25C320.76,-871.25 329.18,-871.25 329.18,-871.25 333.39,-871.25 337.6,-875.46 337.6,-879.67 337.6,-879.67 337.6,-896.33 337.6,-896.33 337.6,-900.54 333.39,-904.75 329.18,-904.75 329.18,-904.75 320.76,-904.75 320.76,-904.75 316.56,-904.75 312.35,-900.54 312.35,-896.33 312.35,-896.33 312.35,-879.67 312.35,-879.67 312.35,-875.46 316.56,-871.25 320.76,-871.25"/>
</g>
<!-- spellcast -->
<g id="node3" class="node">
<title>spellcast</title>
<polyline fill="none" stroke="darkred" points="57.85,-737 138.1,-737"/>
<text text-anchor="start" x="60.85" y="-744.2" font-family="Courier New" font-weight="bold" font-size="14.00">spellcast</text>
<path fill="none" stroke="darkred" d="M64.35,-734C64.35,-734 131.6,-734 131.6,-734 136.35,-734 141.1,-738.75 141.1,-743.5 141.1,-743.5 141.1,-753 141.1,-753 141.1,-757.75 136.35,-762.5 131.6,-762.5 131.6,-762.5 64.35,-762.5 64.35,-762.5 59.6,-762.5 54.85,-757.75 54.85,-753 54.85,-753 54.85,-743.5 54.85,-743.5 54.85,-738.75 59.6,-734 64.35,-734"/>
</g>
<!-- 0&#45;&gt;spellcast -->
<g id="edge1" class="edge">
<title>0&#45;&gt;spellcast</title>
<path fill="none" stroke="black" d="M309.6,-866.09C303.8,-859.47 296.71,-852.66 288.97,-848 262.19,-831.87 249.52,-842.74 220.97,-830 187.2,-814.92 152.29,-791.07 128.32,-773.19"/>
<polygon fill="black" stroke="black" points="130.68,-770.59 120.6,-767.34 126.45,-776.17 130.68,-770.59"/>
<polygon fill="none" stroke="black" points="223.97,-808.25 223.97,-827 493.97,-827 493.97,-808.25 223.97,-808.25"/>
<text text-anchor="start" x="301.97" y="-815.5" font-family="Courier New" font-weight="bold" font-size="10.00" fill="orange">WAIT(0,SIG_SPELLME)</text>
<polygon fill="none" stroke="black" points="223.97,-787.5 223.97,-806.25 493.97,-806.25 493.97,-787.5 223.97,-787.5"/>
<text text-anchor="start" x="226.97" y="-793.75" font-family="Courier New" font-size="10.00" fill="blue"> &#160;&#160;WRITE(&quot;A INSTANTATTACK SPELL ACTIVATED&quot;);</text>
<polygon fill="none" stroke="black" points="220.97,-784.5 220.97,-830 496.97,-830 496.97,-784.5 220.97,-784.5"/>
</g>
<!-- impact -->
<g id="node4" class="node">
<title>impact</title>
<polyline fill="none" stroke="darkred" points="256.22,-7 311.72,-7"/>
<text text-anchor="start" x="259.22" y="-14.2" font-family="Courier New" font-weight="bold" font-size="14.00">impact</text>
<path fill="none" stroke="darkred" d="M262.72,-4C262.72,-4 305.22,-4 305.22,-4 309.97,-4 314.72,-8.75 314.72,-13.5 314.72,-13.5 314.72,-23 314.72,-23 314.72,-27.75 309.97,-32.5 305.22,-32.5 305.22,-32.5 262.72,-32.5 262.72,-32.5 257.97,-32.5 253.22,-27.75 253.22,-23 253.22,-23 253.22,-13.5 253.22,-13.5 253.22,-8.75 257.97,-4 262.72,-4"/>
</g>
<!-- spellcast&#45;&gt;impact -->
<g id="edge3" class="edge">
<title>spellcast&#45;&gt;impact</title>
<path fill="none" stroke="black" d="M72.62,-730.01C67.1,-724.91 62.01,-718.84 58.97,-712 -0.33,-578.46 -36.01,-165.52 58.97,-54.5 81.02,-28.73 174.57,-21.67 233.88,-19.81"/>
<polygon fill="black" stroke="black" points="233.84,-23.32 243.74,-19.55 233.65,-16.32 233.84,-23.32"/>
<polygon fill="none" stroke="black" points="61.97,-690.25 61.97,-709 493.97,-709 493.97,-690.25 61.97,-690.25"/>
<text text-anchor="start" x="241.97" y="-697.5" font-family="Courier New" font-weight="bold" font-size="10.00" fill="blue">Z_EPSILON(,)</text>
<polygon fill="none" stroke="black" points="61.97,-57.5 61.97,-688.25 493.97,-688.25 493.97,-57.5 61.97,-57.5"/>
<text text-anchor="start" x="64.97" y="-675.75" font-family="Courier New" font-size="10.00" fill="blue"> &#160;&#160;&#160;&#160;&#160;&#160;&#160;if(WIP1 == TRANSFER){</text>
<text text-anchor="start" x="64.97" y="-663" font-family="Courier New" font-size="10.00" fill="blue"> &#160;&#160;&#160;&#160;&#160;&#160;&#160;&#160;&#160;&#160;&#160;//L is the victim</text>
<text text-anchor="start" x="64.97" y="-650.25" font-family="Courier New" font-size="10.00" fill="blue"> &#160;&#160;&#160;&#160;&#160;&#160;&#160;&#160;&#160;&#160;&#160;//O is the caster</text>
<text text-anchor="start" x="64.97" y="-637.5" font-family="Courier New" font-size="10.00" fill="blue"> &#160;&#160;&#160;&#160;&#160;&#160;&#160;&#160;&#160;&#160;//GET THE VICTIMS STATS AND SET ASSIDE </text>
<text text-anchor="start" x="64.97" y="-624.75" font-family="Courier New" font-size="10.00" fill="blue"> &#160;&#160;&#160;&#160;&#160;&#160;&#160;&#160;&#160;&#160;&#160;MOV(WTEMP2,LWISDOM);MOV(WTEMP3,LKARMA);MOV(WTEMP4,LENERGY);</text>
<text text-anchor="start" x="64.97" y="-612" font-family="Courier New" font-size="10.00" fill="blue"> &#160;&#160;&#160;&#160;&#160;&#160;&#160;&#160;&#160;&#160;//GET THE CASTERS STATS AND GIVE TO THE VICTIM</text>
<text text-anchor="start" x="64.97" y="-599.25" font-family="Courier New" font-size="10.00" fill="blue"> &#160;&#160;&#160;&#160;&#160;&#160;&#160;&#160;&#160;&#160;&#160;MOV(WPARM,OWISDOM);MOV(BPARM,OKARMA);MOV(WTEMP1,OENERGY);</text>
<text text-anchor="start" x="64.97" y="-586.5" font-family="Courier New" font-size="10.00" fill="blue"> &#160;&#160;&#160;&#160;&#160;&#160;&#160;&#160;&#160;&#160;&#160;ASSIGN(LWISDOM,WPARM);</text>
<text text-anchor="start" x="64.97" y="-573.75" font-family="Courier New" font-size="10.00" fill="blue"> &#160;&#160;&#160;&#160;&#160;&#160;&#160;&#160;&#160;&#160;&#160;SIGNALi(0,SID_ID);</text>
<text text-anchor="start" x="64.97" y="-561" font-family="Courier New" font-size="10.00" fill="blue"> &#160;&#160;&#160;&#160;&#160;&#160;&#160;&#160;&#160;&#160;&#160;ASSIGN(LKARMA,BPARM);</text>
<text text-anchor="start" x="64.97" y="-548.25" font-family="Courier New" font-size="10.00" fill="blue"> &#160;&#160;&#160;&#160;&#160;&#160;&#160;&#160;&#160;&#160;&#160;SIGNAL(SID_HALO,SIG_ADD);</text>
<text text-anchor="start" x="64.97" y="-535.5" font-family="Courier New" font-size="10.00" fill="blue"> &#160;&#160;&#160;&#160;&#160;&#160;&#160;&#160;&#160;&#160;&#160;ASSIGN(LENERGY,WTEMP1);</text>
<text text-anchor="start" x="64.97" y="-522.75" font-family="Courier New" font-size="10.00" fill="blue"> &#160;&#160;&#160;&#160;&#160;&#160;&#160;&#160;&#160;&#160;&#160;SIGNAL(SID_AURA,SIG_SUB);</text>
<text text-anchor="start" x="64.97" y="-510" font-family="Courier New" font-size="10.00" fill="blue"> &#160;&#160;&#160;&#160;&#160;&#160;&#160;&#160;&#160;&#160;&#160;//Now the other guy</text>
<text text-anchor="start" x="64.97" y="-497.25" font-family="Courier New" font-size="10.00" fill="blue"> &#160;&#160;&#160;&#160;&#160;&#160;&#160;&#160;&#160;&#160;&#160;ASSIGN(OWISDOM,WTEMP2);</text>
<text text-anchor="start" x="64.97" y="-484.5" font-family="Courier New" font-size="10.00" fill="blue"> &#160;&#160;&#160;&#160;&#160;&#160;&#160;&#160;&#160;&#160;&#160;SIGNALi(0,SID_ID);</text>
<text text-anchor="start" x="64.97" y="-471.75" font-family="Courier New" font-size="10.00" fill="blue"> &#160;&#160;&#160;&#160;&#160;&#160;&#160;&#160;&#160;&#160;&#160;ASSIGN(OKARMA,WTEMP3);</text>
<text text-anchor="start" x="64.97" y="-459" font-family="Courier New" font-size="10.00" fill="blue"> &#160;&#160;&#160;&#160;&#160;&#160;&#160;&#160;&#160;&#160;&#160;SIGNAL(SID_HALO,SIG_ADD);</text>
<text text-anchor="start" x="64.97" y="-446.25" font-family="Courier New" font-size="10.00" fill="blue"> &#160;&#160;&#160;&#160;&#160;&#160;&#160;&#160;&#160;&#160;&#160;ASSIGN(OENERGY,WTEMP4);</text>
<text text-anchor="start" x="64.97" y="-433.5" font-family="Courier New" font-size="10.00" fill="blue"> &#160;&#160;&#160;&#160;&#160;&#160;&#160;&#160;&#160;&#160;&#160;SIGNAL(SID_AURA,SIG_SUB);</text>
<text text-anchor="start" x="64.97" y="-420.75" font-family="Courier New" font-size="10.00" fill="blue"> &#160;&#160;&#160;&#160;&#160;&#160;&#160;}</text>
<text text-anchor="start" x="64.97" y="-408" font-family="Courier New" font-size="10.00" fill="blue"> &#160;&#160;&#160;&#160;&#160;&#160;&#160;if(WIP1 == DEATH){ </text>
<text text-anchor="start" x="64.97" y="-395.25" font-family="Courier New" font-size="10.00" fill="blue"> &#160;&#160;&#160;&#160;&#160;&#160;&#160;&#160;&#160;&#160;&#160;ASSIGN(LWEALTH,0);SIGNAL(S1_VIALMETER,SIG_SHOW);</text>
<text text-anchor="start" x="64.97" y="-382.5" font-family="Courier New" font-size="10.00" fill="blue"> &#160;&#160;&#160;&#160;&#160;&#160;&#160;&#160;&#160;&#160;&#160;ASSIGN(LENERGY,1);</text>
<text text-anchor="start" x="64.97" y="-369.75" font-family="Courier New" font-size="10.00" fill="blue"> &#160;&#160;&#160;&#160;&#160;&#160;&#160;&#160;&#160;&#160;&#160;SUBI(LENERGY,1);</text>
<text text-anchor="start" x="64.97" y="-357" font-family="Courier New" font-size="10.00" fill="blue"> &#160;&#160;&#160;&#160;&#160;&#160;&#160;&#160;&#160;&#160;&#160;SIGNAL(SID_AURA,SIG_SUB); &#160;&#160;</text>
<text text-anchor="start" x="64.97" y="-344.25" font-family="Courier New" font-size="10.00" fill="blue"> &#160;&#160;&#160;&#160;&#160;&#160;&#160;}</text>
<text text-anchor="start" x="64.97" y="-331.5" font-family="Courier New" font-size="10.00" fill="blue"> &#160;&#160;&#160;&#160;&#160;&#160;&#160;if(WIP1 == REVIVE){ </text>
<text text-anchor="start" x="64.97" y="-318.75" font-family="Courier New" font-size="10.00" fill="blue"> &#160;&#160;&#160;&#160;&#160;&#160;&#160;&#160;&#160;&#160;&#160;ASSIGN(LWISDOM,10);</text>
<text text-anchor="start" x="64.97" y="-306" font-family="Courier New" font-size="10.00" fill="blue"> &#160;&#160;&#160;&#160;&#160;&#160;&#160;&#160;&#160;&#160;&#160;ASSIGN(LENERGY,10);</text>
<text text-anchor="start" x="64.97" y="-293.25" font-family="Courier New" font-size="10.00" fill="blue"> &#160;&#160;&#160;&#160;&#160;&#160;&#160;&#160;&#160;&#160;&#160;SIGNAL(SID_AURA,SIG_SUB);</text>
<text text-anchor="start" x="64.97" y="-280.5" font-family="Courier New" font-size="10.00" fill="blue"> &#160;&#160;&#160;&#160;&#160;&#160;&#160;&#160;&#160;&#160;&#160;ASSIGN(LWEALTH,5);SIGNAL(S1_VIALMETER,SIG_SHOW);</text>
<text text-anchor="start" x="64.97" y="-267.75" font-family="Courier New" font-size="10.00" fill="blue"> &#160;&#160;&#160;&#160;&#160;&#160;&#160;&#160;&#160;&#160;&#160;SIGNAL(SID_ID,SIG_SURPRISED);</text>
<text text-anchor="start" x="64.97" y="-255" font-family="Courier New" font-size="10.00" fill="blue"> &#160;&#160;&#160;&#160;&#160;&#160;&#160;&#160;&#160;&#160;&#160;SUBI(LKARMA,6);</text>
<text text-anchor="start" x="64.97" y="-242.25" font-family="Courier New" font-size="10.00" fill="blue"> &#160;&#160;&#160;&#160;&#160;&#160;&#160;&#160;&#160;&#160;&#160;&#160;SIGNALi(0,SID_ID);</text>
<text text-anchor="start" x="64.97" y="-229.5" font-family="Courier New" font-size="10.00" fill="blue"> &#160;&#160;&#160;&#160;&#160;&#160;&#160;}</text>
<text text-anchor="start" x="64.97" y="-216.75" font-family="Courier New" font-size="10.00" fill="blue"> &#160;&#160;&#160;&#160;&#160;&#160;&#160;&#160;if(WIP1 == BANISHMENT){</text>
<text text-anchor="start" x="64.97" y="-204" font-family="Courier New" font-size="10.00" fill="blue"> &#160;&#160;&#160;&#160;&#160;&#160;&#160;&#160;&#160;&#160;&#160;MOV(WPARM,IDV_BANISH);</text>
<text text-anchor="start" x="64.97" y="-191.25" font-family="Courier New" font-size="10.00" fill="blue"> &#160;&#160;&#160;&#160;&#160;&#160;&#160;&#160;&#160;&#160;&#160;SIGNAL(SMP_MAPBUTTON,SIG_RESET);</text>
<text text-anchor="start" x="64.97" y="-178.5" font-family="Courier New" font-size="10.00" fill="blue"> &#160;&#160;&#160;&#160;&#160;&#160;&#160;&#160;&#160;&#160;&#160;LOADVIEW(WPARM);</text>
<text text-anchor="start" x="64.97" y="-165.75" font-family="Courier New" font-size="10.00" fill="blue"> &#160;&#160;&#160;&#160;&#160;&#160;&#160;&#160;&#160;&#160;&#160;SUBI(LKARMA,2);</text>
<text text-anchor="start" x="64.97" y="-153" font-family="Courier New" font-size="10.00" fill="blue"> &#160;&#160;&#160;&#160;&#160;&#160;&#160;}</text>
<text text-anchor="start" x="64.97" y="-140.25" font-family="Courier New" font-size="10.00" fill="blue"> &#160;&#160;&#160;&#160;&#160;&#160;&#160;&#160;if(WIP1 == GOPA){</text>
<text text-anchor="start" x="64.97" y="-127.5" font-family="Courier New" font-size="10.00" fill="blue"> &#160;&#160;&#160;&#160;&#160;&#160;&#160;&#160;&#160;&#160;&#160;WRITE(&quot;ADDING TO LENERGY&quot;);</text>
<text text-anchor="start" x="64.97" y="-114.75" font-family="Courier New" font-size="10.00" fill="blue"> &#160;&#160;&#160;&#160;&#160;&#160;&#160;&#160;&#160;&#160;&#160;if(LENERGY &gt; 1){</text>
<text text-anchor="start" x="64.97" y="-102" font-family="Courier New" font-size="10.00" fill="blue"> &#160;&#160;&#160;&#160;&#160;&#160;&#160;&#160;&#160;&#160;&#160;&#160;&#160;&#160;&#160;ADDI(LENERGY,1);</text>
<text text-anchor="start" x="64.97" y="-89.25" font-family="Courier New" font-size="10.00" fill="blue"> &#160;&#160;&#160;&#160;&#160;&#160;&#160;&#160;&#160;&#160;&#160;&#160;&#160;&#160;&#160;SIGNAL(SID_AURA,SIG_ADD);</text>
<text text-anchor="start" x="64.97" y="-76.5" font-family="Courier New" font-size="10.00" fill="blue"> &#160;&#160;&#160;&#160;&#160;&#160;&#160;&#160;&#160;&#160;&#160;}</text>
<text text-anchor="start" x="64.97" y="-63.75" font-family="Courier New" font-size="10.00" fill="blue"> &#160;&#160;&#160;&#160;&#160;&#160;&#160;}</text>
<polygon fill="none" stroke="black" points="58.97,-54.5 58.97,-712 496.97,-712 496.97,-54.5 58.97,-54.5"/>
</g>
<!-- impact&#45;&gt;0 -->
<g id="edge2" class="edge">
<title>impact&#45;&gt;0</title>
<path fill="none" stroke="black" d="M322.46,-19.89C377.64,-21.72 475.03,-28.63 496.97,-54.5 719.91,-317.36 724.14,-570.79 496.97,-830 476.88,-852.93 388.03,-833.96 360.97,-848 356.12,-850.52 351.58,-853.97 347.47,-857.78"/>
<polygon fill="black" stroke="black" points="345.1,-855.19 340.72,-864.84 350.16,-860.03 345.1,-855.19"/>
<text text-anchor="start" x="572.97" y="-746.12" font-family="Courier New" font-weight="bold" font-size="10.00" fill="blue">Z_EPSILON(,)</text>
</g>
<!-- status -->
<g id="node5" class="node">
<title>status</title>
<polygon fill="none" stroke="black" points="369.97,-848.5 369.97,-927.5 751.97,-927.5 751.97,-848.5 369.97,-848.5"/>
<polygon fill="none" stroke="black" points="380.97,-901.75 380.97,-920.5 740.97,-920.5 740.97,-901.75 380.97,-901.75"/>
<text text-anchor="start" x="527.97" y="-909" font-family="Courier New" font-weight="bold" font-size="10.00">GOPA_ACTIVE</text>
<polygon fill="none" stroke="black" points="380.97,-855.5 380.97,-899.75 740.97,-899.75 740.97,-855.5 380.97,-855.5"/>
<text text-anchor="start" x="383.97" y="-887.25" font-family="Courier New" font-size="10.00" fill="green">VIEW::IDV_MAIN_PANEL @pos(x:1, y:5, h:11, w:8)</text>
<text text-anchor="start" x="383.97" y="-874.5" font-family="Courier New" font-size="10.00" fill="green">GOPA_ACTIVE::M_INSTANTATTACK(&#39;GOPA&#39;,&#39;NO_TIMER&#39;,&#39;&#39;,&#39;&#39;,&#39;&#39;,&#39;&#39;)</text>
<text text-anchor="start" x="383.97" y="-861.75" font-family="Courier New" font-size="10.00" fill="green">{state:&#39;0&#39;: Top:5 Left:1 Z:0</text>
<polygon fill="none" stroke="black" points="377.97,-852.5 377.97,-923.5 743.97,-923.5 743.97,-852.5 377.97,-852.5"/>
</g>
</g>
</svg>
