<?xml version="1.0" encoding="UTF-8" standalone="no"?>
<!DOCTYPE svg PUBLIC "-//W3C//DTD SVG 1.1//EN"
 "http://www.w3.org/Graphics/SVG/1.1/DTD/svg11.dtd">
<!-- Generated by graphviz version 10.0.1 (20240210.2158)
 -->
<!-- Title: Automaton Pages: 1 -->
<svg width="592pt" height="434pt"
 viewBox="0.00 0.00 592.00 434.00" xmlns="http://www.w3.org/2000/svg" xmlns:xlink="http://www.w3.org/1999/xlink">
<g id="graph0" class="graph" transform="scale(1 1) rotate(0) translate(4 430)">
<title>Automaton</title>
<polygon fill="white" stroke="none" points="-4,4 -4,-430 588,-430 588,4 -4,4"/>
<!-- filename -->
<g id="node1" class="node">
<title>filename</title>
<polygon fill="none" stroke="black" points="0,-359.25 0,-412.75 160,-412.75 160,-359.25 0,-359.25"/>
<polygon fill="none" stroke="black" points="11,-387 11,-405.75 149,-405.75 149,-387 11,-387"/>
<text text-anchor="start" x="14" y="-394.25" font-family="Courier New" font-weight="bold" font-size="10.00">MEFPAN_OK::M_MEFPAN_OK</text>
<polygon fill="none" stroke="black" points="11,-366.25 11,-385 149,-385 149,-366.25 11,-366.25"/>
<text text-anchor="start" x="35" y="-372.5" font-family="Courier New" font-size="10.00" fill="brown">start state = 0</text>
<polygon fill="none" stroke="black" points="8,-363.25 8,-408.75 152,-408.75 152,-363.25 8,-363.25"/>
</g>
<!-- 0 -->
<g id="node2" class="node">
<title>0</title>
<polyline fill="none" stroke="darkred" points="197.88,-374.75 212.12,-374.75"/>
<text text-anchor="start" x="200.88" y="-381.95" font-family="Courier New" font-weight="bold" font-size="14.00">0</text>
<path fill="none" stroke="darkred" d="M201.62,-371.75C201.62,-371.75 208.38,-371.75 208.38,-371.75 211.75,-371.75 215.12,-375.12 215.12,-378.5 215.12,-378.5 215.12,-393.5 215.12,-393.5 215.12,-396.88 211.75,-400.25 208.38,-400.25 208.38,-400.25 201.62,-400.25 201.62,-400.25 198.25,-400.25 194.88,-396.88 194.88,-393.5 194.88,-393.5 194.88,-378.5 194.88,-378.5 194.88,-375.12 198.25,-371.75 201.62,-371.75"/>
</g>
<!-- 1 -->
<g id="node3" class="node">
<title>1</title>
<polyline fill="none" stroke="darkred" stroke-width="3" points="197.38,-230.5 212.62,-230.5"/>
<text text-anchor="start" x="200.88" y="-238.2" font-family="Courier New" font-weight="bold" font-size="14.00">1</text>
<path fill="none" stroke="darkred" stroke-width="3" d="M200.79,-225.5C200.79,-225.5 209.21,-225.5 209.21,-225.5 213.42,-225.5 217.62,-229.71 217.62,-233.92 217.62,-233.92 217.62,-250.58 217.62,-250.58 217.62,-254.79 213.42,-259 209.21,-259 209.21,-259 200.79,-259 200.79,-259 196.58,-259 192.38,-254.79 192.38,-250.58 192.38,-250.58 192.38,-233.92 192.38,-233.92 192.38,-229.71 196.58,-225.5 200.79,-225.5"/>
</g>
<!-- 0&#45;&gt;1 -->
<g id="edge1" class="edge">
<title>0&#45;&gt;1</title>
<path fill="none" stroke="black" d="M205,-367.9C205,-345.09 205,-304.26 205,-275.56"/>
<polygon fill="black" stroke="black" points="208.5,-275.6 205,-265.6 201.5,-275.6 208.5,-275.6"/>
<polygon fill="none" stroke="black" points="208,-306.25 208,-325 322,-325 322,-306.25 208,-306.25"/>
<text text-anchor="start" x="211" y="-313.5" font-family="Courier New" font-weight="bold" font-size="10.00" fill="blue">SHOW(0,IDS_BTN_OK)</text>
<polygon fill="none" stroke="black" points="208,-285.5 208,-304.25 322,-304.25 322,-285.5 208,-285.5"/>
<text text-anchor="start" x="214" y="-291.75" font-family="Courier New" font-size="10.00" fill="blue"> &#160;&#160;&#160;CLEAR(WPARM);</text>
<polygon fill="none" stroke="black" points="205,-282.5 205,-328 325,-328 325,-282.5 205,-282.5"/>
</g>
<!-- 2 -->
<g id="node4" class="node">
<title>2</title>
<polyline fill="none" stroke="darkred" points="197.88,-7 212.12,-7"/>
<text text-anchor="start" x="200.88" y="-14.2" font-family="Courier New" font-weight="bold" font-size="14.00">2</text>
<path fill="none" stroke="darkred" d="M201.62,-4C201.62,-4 208.38,-4 208.38,-4 211.75,-4 215.12,-7.38 215.12,-10.75 215.12,-10.75 215.12,-25.75 215.12,-25.75 215.12,-29.12 211.75,-32.5 208.38,-32.5 208.38,-32.5 201.62,-32.5 201.62,-32.5 198.25,-32.5 194.88,-29.12 194.88,-25.75 194.88,-25.75 194.88,-10.75 194.88,-10.75 194.88,-7.38 198.25,-4 201.62,-4"/>
</g>
<!-- 1&#45;&gt;2 -->
<g id="edge2" class="edge">
<title>1&#45;&gt;2</title>
<path fill="none" stroke="black" d="M178.26,-237.72C141.12,-232.21 76.9,-220.27 63,-202 23.3,-149.83 22.61,-106.14 63,-54.5 75.73,-38.23 129.62,-28.4 167.22,-23.4"/>
<polygon fill="black" stroke="black" points="167.32,-26.92 176.8,-22.19 166.44,-19.97 167.32,-26.92"/>
<polygon fill="none" stroke="black" points="66,-180.25 66,-199 324,-199 324,-180.25 66,-180.25"/>
<text text-anchor="start" x="165" y="-187.5" font-family="Courier New" font-weight="bold" font-size="10.00" fill="orange">CLICK(0,0)</text>
<polygon fill="none" stroke="black" points="66,-57.5 66,-178.25 324,-178.25 324,-57.5 66,-57.5"/>
<text text-anchor="start" x="69" y="-165.75" font-family="Courier New" font-size="10.00" fill="blue"> &#160;&#160;&#160;REF_MACHINE(MEFCURRENT);</text>
<text text-anchor="start" x="69" y="-153" font-family="Courier New" font-size="10.00" fill="blue"> &#160;&#160;&#160;PLAYWAVE(SOUND_POPUP);</text>
<text text-anchor="start" x="69" y="-140.25" font-family="Courier New" font-size="10.00" fill="blue"> &#160;&#160;&#160;SIGNAL(R_WPARM,SIG_CLOSE);</text>
<text text-anchor="start" x="69" y="-127.5" font-family="Courier New" font-size="10.00" fill="blue"> &#160;&#160;&#160;SIGNAL(MEFPAN_VIEWCAP,SIG_VIEWRETURN);</text>
<text text-anchor="start" x="69" y="-114.75" font-family="Courier New" font-size="10.00" fill="blue"> &#160;&#160;&#160;SIGNAL(SOD_ID,SIG_SHOW);</text>
<text text-anchor="start" x="69" y="-102" font-family="Courier New" font-size="10.00" fill="blue"> &#160;&#160;&#160;SIGNAL(MEFPAN_WAITER,SIG_RESET);</text>
<text text-anchor="start" x="69" y="-89.25" font-family="Courier New" font-size="10.00" fill="blue"> &#160;&#160;&#160;SIGNAL(MEFPAN_PRIZE_A,SIG_RESET);</text>
<text text-anchor="start" x="69" y="-76.5" font-family="Courier New" font-size="10.00" fill="blue"> &#160;&#160;&#160;SIGNAL(MEFPAN_PRIZE_B,SIG_RESET);</text>
<text text-anchor="start" x="69" y="-63.75" font-family="Courier New" font-size="10.00" fill="blue"> &#160;&#160;&#160;SIGNAL(MEFPAN_PRIZE_C,SIG_RESET);</text>
<polygon fill="none" stroke="black" points="63,-54.5 63,-202 327,-202 327,-54.5 63,-54.5"/>
</g>
<!-- 2&#45;&gt;1 -->
<g id="edge3" class="edge">
<title>2&#45;&gt;1</title>
<path fill="none" stroke="black" d="M232,-18.42C260.78,-19.19 305.14,-25.43 327,-54.5 366.4,-106.89 365.61,-149.02 327,-202 307.94,-228.16 271.15,-237.26 242.94,-240.25"/>
<polygon fill="black" stroke="black" points="243.02,-236.73 233.34,-241.04 243.59,-243.7 243.02,-236.73"/>
<text text-anchor="start" x="360" y="-126.12" font-family="Courier New" font-weight="bold" font-size="10.00" fill="blue">Z_EPSILON(,)</text>
</g>
<!-- status -->
<g id="node5" class="node">
<title>status</title>
<polygon fill="none" stroke="black" points="250,-346.5 250,-425.5 584,-425.5 584,-346.5 250,-346.5"/>
<polygon fill="none" stroke="black" points="261,-399.75 261,-418.5 573,-418.5 573,-399.75 261,-399.75"/>
<text text-anchor="start" x="390" y="-407" font-family="Courier New" font-weight="bold" font-size="10.00">MEFPAN_OK</text>
<polygon fill="none" stroke="black" points="261,-353.5 261,-397.75 573,-397.75 573,-353.5 261,-353.5"/>
<text text-anchor="start" x="264" y="-385.25" font-family="Courier New" font-size="10.00" fill="green">VIEW::IDV_MEFPAN @pos(x:490, y:215, h:65, w:45)</text>
<text text-anchor="start" x="264" y="-372.5" font-family="Courier New" font-size="10.00" fill="green">MEFPAN_OK::M_MEFPAN_OK(&#39;&#39;,&#39;&#39;,&#39;&#39;,&#39;&#39;,&#39;&#39;,&#39;&#39;)</text>
<text text-anchor="start" x="264" y="-359.75" font-family="Courier New" font-size="10.00" fill="green">{state:&#39;1&#39;: wSprite:IDS_BTN_OK Top:215 Left:490 Z:0</text>
<polygon fill="none" stroke="black" points="258,-350.5 258,-421.5 576,-421.5 576,-350.5 258,-350.5"/>
</g>
</g>
</svg>
