<?xml version="1.0" encoding="UTF-8" standalone="no"?>
<!DOCTYPE svg PUBLIC "-//W3C//DTD SVG 1.1//EN"
 "http://www.w3.org/Graphics/SVG/1.1/DTD/svg11.dtd">
<!-- Generated by graphviz version 10.0.1 (20240210.2158)
 -->
<!-- Title: Automaton Pages: 1 -->
<svg width="943pt" height="320pt"
 viewBox="0.00 0.00 942.84 320.00" xmlns="http://www.w3.org/2000/svg" xmlns:xlink="http://www.w3.org/1999/xlink">
<g id="graph0" class="graph" transform="scale(1 1) rotate(0) translate(4 316)">
<title>Automaton</title>
<polygon fill="white" stroke="none" points="-4,4 -4,-316 938.84,-316 938.84,4 -4,4"/>
<!-- filename -->
<g id="node1" class="node">
<title>filename</title>
<polygon fill="none" stroke="black" points="52.84,-245.25 52.84,-298.75 272.84,-298.75 272.84,-245.25 52.84,-245.25"/>
<polygon fill="none" stroke="black" points="63.84,-273 63.84,-291.75 261.84,-291.75 261.84,-273 63.84,-273"/>
<text text-anchor="start" x="66.84" y="-280.25" font-family="Courier New" font-weight="bold" font-size="10.00">MEFPAN_VIEWCAP::M_MEFPAN_VIEWCAP</text>
<polygon fill="none" stroke="black" points="63.84,-252.25 63.84,-271 261.84,-271 261.84,-252.25 63.84,-252.25"/>
<text text-anchor="start" x="117.84" y="-258.5" font-family="Courier New" font-size="10.00" fill="brown">start state = 0</text>
<polygon fill="none" stroke="black" points="60.84,-249.25 60.84,-294.75 264.84,-294.75 264.84,-249.25 60.84,-249.25"/>
</g>
<!-- 0 -->
<g id="node2" class="node">
<title>0</title>
<polyline fill="none" stroke="darkred" points="310.71,-260.75 324.96,-260.75"/>
<text text-anchor="start" x="313.71" y="-267.95" font-family="Courier New" font-weight="bold" font-size="14.00">0</text>
<path fill="none" stroke="darkred" d="M314.46,-257.75C314.46,-257.75 321.21,-257.75 321.21,-257.75 324.59,-257.75 327.96,-261.12 327.96,-264.5 327.96,-264.5 327.96,-279.5 327.96,-279.5 327.96,-282.88 324.59,-286.25 321.21,-286.25 321.21,-286.25 314.46,-286.25 314.46,-286.25 311.09,-286.25 307.71,-282.88 307.71,-279.5 307.71,-279.5 307.71,-264.5 307.71,-264.5 307.71,-261.12 311.09,-257.75 314.46,-257.75"/>
</g>
<!-- waiting -->
<g id="node3" class="node">
<title>waiting</title>
<polyline fill="none" stroke="darkred" stroke-width="3" points="285.46,-141.25 350.21,-141.25"/>
<text text-anchor="start" x="288.96" y="-148.95" font-family="Courier New" font-weight="bold" font-size="14.00">waiting</text>
<path fill="none" stroke="darkred" stroke-width="3" d="M291.63,-136.25C291.63,-136.25 344.04,-136.25 344.04,-136.25 349.63,-136.25 355.21,-141.83 355.21,-147.42 355.21,-147.42 355.21,-158.58 355.21,-158.58 355.21,-164.17 349.63,-169.75 344.04,-169.75 344.04,-169.75 291.63,-169.75 291.63,-169.75 286.04,-169.75 280.46,-164.17 280.46,-158.58 280.46,-158.58 280.46,-147.42 280.46,-147.42 280.46,-141.83 286.04,-136.25 291.63,-136.25"/>
</g>
<!-- 0&#45;&gt;waiting -->
<g id="edge1" class="edge">
<title>0&#45;&gt;waiting</title>
<path fill="none" stroke="black" d="M317.84,-253.99C317.84,-236.34 317.84,-208.32 317.84,-186.42"/>
<polygon fill="black" stroke="black" points="321.34,-186.51 317.84,-176.51 314.34,-186.51 321.34,-186.51"/>
<text text-anchor="start" x="321.84" y="-201.5" font-family="Courier New" font-weight="bold" font-size="10.00" fill="blue">ASSIGN(BPARM,0)</text>
</g>
<!-- viewGrabbed -->
<g id="node4" class="node">
<title>viewGrabbed</title>
<polyline fill="none" stroke="darkred" points="39.46,-7 136.21,-7"/>
<text text-anchor="start" x="42.46" y="-14.2" font-family="Courier New" font-weight="bold" font-size="14.00">viewGrabbed</text>
<path fill="none" stroke="darkred" d="M45.96,-4C45.96,-4 129.71,-4 129.71,-4 134.46,-4 139.21,-8.75 139.21,-13.5 139.21,-13.5 139.21,-23 139.21,-23 139.21,-27.75 134.46,-32.5 129.71,-32.5 129.71,-32.5 45.96,-32.5 45.96,-32.5 41.21,-32.5 36.46,-27.75 36.46,-23 36.46,-23 36.46,-13.5 36.46,-13.5 36.46,-8.75 41.21,-4 45.96,-4"/>
</g>
<!-- waiting&#45;&gt;viewGrabbed -->
<g id="edge4" class="edge">
<title>waiting&#45;&gt;viewGrabbed</title>
<path fill="none" stroke="black" d="M270.98,-149.35C189.48,-144.25 28.66,-131.87 11.84,-112.75 -5.27,-93.31 -2.1,-76.32 11.84,-54.5 14.6,-50.18 18.04,-46.38 21.92,-43.04"/>
<polygon fill="black" stroke="black" points="23.77,-46.02 29.81,-37.32 19.66,-40.35 23.77,-46.02"/>
<text text-anchor="start" x="15.84" y="-81.5" font-family="Courier New" font-weight="bold" font-size="10.00" fill="orange">WAIT(0,SIG_VIEWCAP)</text>
</g>
<!-- viewReloaded -->
<g id="node5" class="node">
<title>viewReloaded</title>
<polyline fill="none" stroke="darkred" points="505.34,-7 610.34,-7"/>
<text text-anchor="start" x="508.34" y="-14.2" font-family="Courier New" font-weight="bold" font-size="14.00">viewReloaded</text>
<path fill="none" stroke="darkred" d="M511.84,-4C511.84,-4 603.84,-4 603.84,-4 608.59,-4 613.34,-8.75 613.34,-13.5 613.34,-13.5 613.34,-23 613.34,-23 613.34,-27.75 608.59,-32.5 603.84,-32.5 603.84,-32.5 511.84,-32.5 511.84,-32.5 507.09,-32.5 502.34,-27.75 502.34,-23 502.34,-23 502.34,-13.5 502.34,-13.5 502.34,-8.75 507.09,-4 511.84,-4"/>
</g>
<!-- waiting&#45;&gt;viewReloaded -->
<g id="edge5" class="edge">
<title>waiting&#45;&gt;viewReloaded</title>
<path fill="none" stroke="black" d="M364.61,-149.52C394.01,-145.58 430.79,-135.94 454.84,-112.75 474.44,-93.85 455.39,-74.53 473.84,-54.5 478.23,-49.73 483.37,-45.59 488.91,-41.99"/>
<polygon fill="black" stroke="black" points="490.31,-45.22 497.22,-37.19 486.81,-39.15 490.31,-45.22"/>
<text text-anchor="start" x="477.84" y="-81.5" font-family="Courier New" font-weight="bold" font-size="10.00" fill="orange">WAIT(0,SIG_VIEWRETURN)</text>
</g>
<!-- viewGrabbed&#45;&gt;waiting -->
<g id="edge2" class="edge">
<title>viewGrabbed&#45;&gt;waiting</title>
<path fill="none" stroke="black" d="M118.27,-36.48C125.39,-41.58 132.45,-47.65 137.84,-54.5 155.04,-76.38 139.91,-94.4 160.84,-112.75 187.95,-136.53 227.35,-146.33 259.89,-150.19"/>
<polygon fill="black" stroke="black" points="259.28,-153.65 269.58,-151.17 259.99,-146.68 259.28,-153.65"/>
<polygon fill="none" stroke="black" points="163.84,-91 163.84,-109.75 451.84,-109.75 451.84,-91 163.84,-91"/>
<text text-anchor="start" x="271.84" y="-98.25" font-family="Courier New" font-weight="bold" font-size="10.00" fill="blue">Z_EPSILON(,)</text>
<polygon fill="none" stroke="black" points="163.84,-57.5 163.84,-89 451.84,-89 451.84,-57.5 163.84,-57.5"/>
<text text-anchor="start" x="166.84" y="-76.5" font-family="Courier New" font-size="10.00" fill="blue"> &#160;&#160;&#160;&#160;&#160;MOV(BPARM,1); // A Meflin is presently up</text>
<text text-anchor="start" x="166.84" y="-63.75" font-family="Courier New" font-size="10.00" fill="blue"> &#160;&#160;&#160;&#160;&#160;MOV(WPARM,LVIEW);</text>
<polygon fill="none" stroke="black" points="160.84,-54.5 160.84,-112.75 454.84,-112.75 454.84,-54.5 160.84,-54.5"/>
</g>
<!-- viewReloaded&#45;&gt;waiting -->
<g id="edge3" class="edge">
<title>viewReloaded&#45;&gt;waiting</title>
<path fill="none" stroke="black" d="M600.18,-36.41C607.25,-41.2 613.64,-47.16 617.84,-54.5 630.7,-76.97 634.91,-93.29 617.84,-112.75 602.14,-130.64 458.32,-142.87 375.65,-148.49"/>
<polygon fill="black" stroke="black" points="375.66,-144.98 365.92,-149.14 376.13,-151.96 375.66,-144.98"/>
<polygon fill="none" stroke="black" points="631.84,-91 631.84,-109.75 931.84,-109.75 931.84,-91 631.84,-91"/>
<text text-anchor="start" x="745.84" y="-98.25" font-family="Courier New" font-weight="bold" font-size="10.00" fill="blue">Z_EPSILON(,)</text>
<polygon fill="none" stroke="black" points="631.84,-57.5 631.84,-89 931.84,-89 931.84,-57.5 631.84,-57.5"/>
<text text-anchor="start" x="634.84" y="-76.5" font-family="Courier New" font-size="10.00" fill="blue"> &#160;&#160;&#160;&#160;&#160;MOV(BPARM,0);// A Meflin is no longer there</text>
<text text-anchor="start" x="634.84" y="-63.75" font-family="Courier New" font-size="10.00" fill="blue"> &#160;&#160;&#160;&#160;&#160;LOADVIEW(WPARM);</text>
<polygon fill="none" stroke="black" points="628.84,-54.5 628.84,-112.75 934.84,-112.75 934.84,-54.5 628.84,-54.5"/>
</g>
<!-- status -->
<g id="node6" class="node">
<title>status</title>
<polygon fill="none" stroke="black" points="362.84,-232.5 362.84,-311.5 732.84,-311.5 732.84,-232.5 362.84,-232.5"/>
<polygon fill="none" stroke="black" points="373.84,-285.75 373.84,-304.5 721.84,-304.5 721.84,-285.75 373.84,-285.75"/>
<text text-anchor="start" x="505.84" y="-293" font-family="Courier New" font-weight="bold" font-size="10.00">MEFPAN_VIEWCAP</text>
<polygon fill="none" stroke="black" points="373.84,-239.5 373.84,-283.75 721.84,-283.75 721.84,-239.5 373.84,-239.5"/>
<text text-anchor="start" x="376.84" y="-271.25" font-family="Courier New" font-size="10.00" fill="green">VIEW::IDV_MEFPAN @pos(x:5, y:20, h:5, w:10)</text>
<text text-anchor="start" x="376.84" y="-258.5" font-family="Courier New" font-size="10.00" fill="green">MEFPAN_VIEWCAP::M_MEFPAN_VIEWCAP(&#39;&#39;,&#39;&#39;,&#39;&#39;,&#39;&#39;,&#39;&#39;,&#39;&#39;)</text>
<text text-anchor="start" x="376.84" y="-245.75" font-family="Courier New" font-size="10.00" fill="green">{state:&#39;waiting&#39;: bParm:0 wParm:IDV_N2B Top:20 Left:5 Z:0</text>
<polygon fill="none" stroke="black" points="370.84,-236.5 370.84,-307.5 724.84,-307.5 724.84,-236.5 370.84,-236.5"/>
</g>
</g>
</svg>
