<?xml version="1.0" encoding="UTF-8" standalone="no"?>
<!DOCTYPE svg PUBLIC "-//W3C//DTD SVG 1.1//EN"
 "http://www.w3.org/Graphics/SVG/1.1/DTD/svg11.dtd">
<!-- Generated by graphviz version 10.0.1 (20240210.2158)
 -->
<!-- Title: Automaton Pages: 1 -->
<svg width="832pt" height="656pt"
 viewBox="0.00 0.00 832.00 655.50" xmlns="http://www.w3.org/2000/svg" xmlns:xlink="http://www.w3.org/1999/xlink">
<g id="graph0" class="graph" transform="scale(1 1) rotate(0) translate(4 651.5)">
<title>Automaton</title>
<polygon fill="white" stroke="none" points="-4,4 -4,-651.5 828,-651.5 828,4 -4,4"/>
<!-- filename -->
<g id="node1" class="node">
<title>filename</title>
<polygon fill="none" stroke="black" points="0,-580.75 0,-634.25 220,-634.25 220,-580.75 0,-580.75"/>
<polygon fill="none" stroke="black" points="11,-608.5 11,-627.25 209,-627.25 209,-608.5 11,-608.5"/>
<text text-anchor="start" x="14" y="-615.75" font-family="Courier New" font-weight="bold" font-size="10.00">ORIE_DIARY_KEYHOLDER::M_PLANTBIN</text>
<polygon fill="none" stroke="black" points="11,-587.75 11,-606.5 209,-606.5 209,-587.75 11,-587.75"/>
<text text-anchor="start" x="65" y="-594" font-family="Courier New" font-size="10.00" fill="brown">start state = 0</text>
<polygon fill="none" stroke="black" points="8,-584.75 8,-630.25 212,-630.25 212,-584.75 8,-584.75"/>
</g>
<!-- 0 -->
<g id="node2" class="node">
<title>0</title>
<polyline fill="none" stroke="darkred" points="257.88,-596.25 272.12,-596.25"/>
<text text-anchor="start" x="260.88" y="-603.45" font-family="Courier New" font-weight="bold" font-size="14.00">0</text>
<path fill="none" stroke="darkred" d="M261.62,-593.25C261.62,-593.25 268.38,-593.25 268.38,-593.25 271.75,-593.25 275.12,-596.62 275.12,-600 275.12,-600 275.12,-615 275.12,-615 275.12,-618.38 271.75,-621.75 268.38,-621.75 268.38,-621.75 261.62,-621.75 261.62,-621.75 258.25,-621.75 254.88,-618.38 254.88,-615 254.88,-615 254.88,-600 254.88,-600 254.88,-596.62 258.25,-593.25 261.62,-593.25"/>
</g>
<!-- 1 -->
<g id="node3" class="node">
<title>1</title>
<polyline fill="none" stroke="darkred" points="257.88,-481.25 272.12,-481.25"/>
<text text-anchor="start" x="260.88" y="-488.45" font-family="Courier New" font-weight="bold" font-size="14.00">1</text>
<path fill="none" stroke="darkred" d="M261.62,-478.25C261.62,-478.25 268.38,-478.25 268.38,-478.25 271.75,-478.25 275.12,-481.62 275.12,-485 275.12,-485 275.12,-500 275.12,-500 275.12,-503.38 271.75,-506.75 268.38,-506.75 268.38,-506.75 261.62,-506.75 261.62,-506.75 258.25,-506.75 254.88,-503.38 254.88,-500 254.88,-500 254.88,-485 254.88,-485 254.88,-481.62 258.25,-478.25 261.62,-478.25"/>
</g>
<!-- 0&#45;&gt;1 -->
<g id="edge1" class="edge">
<title>0&#45;&gt;1</title>
<path fill="none" stroke="black" d="M265,-589.34C265,-571.4 265,-542.95 265,-521.7"/>
<polygon fill="black" stroke="black" points="268.5,-521.97 265,-511.97 261.5,-521.97 268.5,-521.97"/>
<text text-anchor="start" x="269" y="-537" font-family="Courier New" font-weight="bold" font-size="10.00" fill="blue">MOV(WSPRITE,WIP2)</text>
</g>
<!-- 5 -->
<g id="node4" class="node">
<title>5</title>
<polyline fill="none" stroke="darkred" stroke-width="3" points="257.38,-383.5 272.62,-383.5"/>
<text text-anchor="start" x="260.88" y="-391.2" font-family="Courier New" font-weight="bold" font-size="14.00">5</text>
<path fill="none" stroke="darkred" stroke-width="3" d="M260.79,-378.5C260.79,-378.5 269.21,-378.5 269.21,-378.5 273.42,-378.5 277.62,-382.71 277.62,-386.92 277.62,-386.92 277.62,-403.58 277.62,-403.58 277.62,-407.79 273.42,-412 269.21,-412 269.21,-412 260.79,-412 260.79,-412 256.58,-412 252.38,-407.79 252.38,-403.58 252.38,-403.58 252.38,-386.92 252.38,-386.92 252.38,-382.71 256.58,-378.5 260.79,-378.5"/>
</g>
<!-- 1&#45;&gt;5 -->
<g id="edge2" class="edge">
<title>1&#45;&gt;5</title>
<path fill="none" stroke="black" d="M265,-474.47C265,-461.76 265,-444.02 265,-428.64"/>
<polygon fill="black" stroke="black" points="268.5,-428.98 265,-418.98 261.5,-428.98 268.5,-428.98"/>
<text text-anchor="start" x="269" y="-443.75" font-family="Courier New" font-weight="bold" font-size="10.00" fill="blue">SHOW(WSPRITE,)</text>
</g>
<!-- 10 -->
<g id="node5" class="node">
<title>10</title>
<polyline fill="none" stroke="darkred" points="202.75,-286.75 225.25,-286.75"/>
<text text-anchor="start" x="205.75" y="-293.95" font-family="Courier New" font-weight="bold" font-size="14.00">10</text>
<path fill="none" stroke="darkred" d="M209.25,-283.75C209.25,-283.75 218.75,-283.75 218.75,-283.75 223.5,-283.75 228.25,-288.5 228.25,-293.25 228.25,-293.25 228.25,-302.75 228.25,-302.75 228.25,-307.5 223.5,-312.25 218.75,-312.25 218.75,-312.25 209.25,-312.25 209.25,-312.25 204.5,-312.25 199.75,-307.5 199.75,-302.75 199.75,-302.75 199.75,-293.25 199.75,-293.25 199.75,-288.5 204.5,-283.75 209.25,-283.75"/>
</g>
<!-- 5&#45;&gt;10 -->
<g id="edge7" class="edge">
<title>5&#45;&gt;10</title>
<path fill="none" stroke="black" d="M241.29,-373.01C236.31,-367.56 231.5,-361.41 228,-355 223.33,-346.47 220.19,-336.36 218.09,-327.09"/>
<polygon fill="black" stroke="black" points="221.57,-326.63 216.24,-317.48 214.7,-327.96 221.57,-326.63"/>
<text text-anchor="start" x="232" y="-342.5" font-family="Courier New" font-weight="bold" font-size="10.00" fill="orange">GRAB(WIP1,)</text>
</g>
<!-- 20 -->
<g id="node6" class="node">
<title>20</title>
<polyline fill="none" stroke="darkred" points="198.75,-193.5 221.25,-193.5"/>
<text text-anchor="start" x="201.75" y="-200.7" font-family="Courier New" font-weight="bold" font-size="14.00">20</text>
<path fill="none" stroke="darkred" d="M205.25,-190.5C205.25,-190.5 214.75,-190.5 214.75,-190.5 219.5,-190.5 224.25,-195.25 224.25,-200 224.25,-200 224.25,-209.5 224.25,-209.5 224.25,-214.25 219.5,-219 214.75,-219 214.75,-219 205.25,-219 205.25,-219 200.5,-219 195.75,-214.25 195.75,-209.5 195.75,-209.5 195.75,-200 195.75,-200 195.75,-195.25 200.5,-190.5 205.25,-190.5"/>
</g>
<!-- 10&#45;&gt;20 -->
<g id="edge3" class="edge">
<title>10&#45;&gt;20</title>
<path fill="none" stroke="black" d="M213.25,-279.84C212.68,-266.96 211.9,-249.06 211.24,-234.07"/>
<polygon fill="black" stroke="black" points="214.75,-234.19 210.82,-224.35 207.76,-234.49 214.75,-234.19"/>
<text text-anchor="start" x="216" y="-249.25" font-family="Courier New" font-weight="bold" font-size="10.00" fill="blue">SHOW(0,0)</text>
</g>
<!-- 30 -->
<g id="node7" class="node">
<title>30</title>
<polyline fill="none" stroke="darkred" points="191.75,-100.25 214.25,-100.25"/>
<text text-anchor="start" x="194.75" y="-107.45" font-family="Courier New" font-weight="bold" font-size="14.00">30</text>
<path fill="none" stroke="darkred" d="M198.25,-97.25C198.25,-97.25 207.75,-97.25 207.75,-97.25 212.5,-97.25 217.25,-102 217.25,-106.75 217.25,-106.75 217.25,-116.25 217.25,-116.25 217.25,-121 212.5,-125.75 207.75,-125.75 207.75,-125.75 198.25,-125.75 198.25,-125.75 193.5,-125.75 188.75,-121 188.75,-116.25 188.75,-116.25 188.75,-106.75 188.75,-106.75 188.75,-102 193.5,-97.25 198.25,-97.25"/>
</g>
<!-- 20&#45;&gt;30 -->
<g id="edge4" class="edge">
<title>20&#45;&gt;30</title>
<path fill="none" stroke="black" d="M208.68,-186.59C207.7,-173.71 206.32,-155.81 205.17,-140.82"/>
<polygon fill="black" stroke="black" points="208.68,-140.8 204.43,-131.1 201.7,-141.33 208.68,-140.8"/>
<text text-anchor="start" x="211" y="-156" font-family="Courier New" font-weight="bold" font-size="10.00" fill="blue">ESTIME(WIP3,)</text>
</g>
<!-- 40 -->
<g id="node8" class="node">
<title>40</title>
<polyline fill="none" stroke="darkred" points="241.75,-7 264.25,-7"/>
<text text-anchor="start" x="244.75" y="-14.2" font-family="Courier New" font-weight="bold" font-size="14.00">40</text>
<path fill="none" stroke="darkred" d="M248.25,-4C248.25,-4 257.75,-4 257.75,-4 262.5,-4 267.25,-8.75 267.25,-13.5 267.25,-13.5 267.25,-23 267.25,-23 267.25,-27.75 262.5,-32.5 257.75,-32.5 257.75,-32.5 248.25,-32.5 248.25,-32.5 243.5,-32.5 238.75,-27.75 238.75,-23 238.75,-23 238.75,-13.5 238.75,-13.5 238.75,-8.75 243.5,-4 248.25,-4"/>
</g>
<!-- 30&#45;&gt;40 -->
<g id="edge5" class="edge">
<title>30&#45;&gt;40</title>
<path fill="none" stroke="black" d="M193.79,-93.32C188.9,-81.69 185.17,-66.34 192,-54.5 197.43,-45.09 206.44,-37.96 215.89,-32.67"/>
<polygon fill="black" stroke="black" points="217.38,-35.84 224.81,-28.29 214.29,-29.56 217.38,-35.84"/>
<text text-anchor="start" x="196" y="-62.75" font-family="Courier New" font-weight="bold" font-size="10.00" fill="blue">MOV(WSPRITE,WIP2)</text>
</g>
<!-- 40&#45;&gt;5 -->
<g id="edge6" class="edge">
<title>40&#45;&gt;5</title>
<path fill="none" stroke="black" d="M279.88,-33.59C288.05,-39.14 296.35,-46.17 302,-54.5 316.4,-75.73 316,-84.85 316,-110.5 316,-299 316,-299 316,-299 316,-324.65 314.31,-332.49 302,-355 300.25,-358.2 298.17,-361.34 295.91,-364.36"/>
<polygon fill="black" stroke="black" points="293.39,-361.92 289.67,-371.84 298.76,-366.4 293.39,-361.92"/>
<text text-anchor="start" x="320" y="-202.62" font-family="Courier New" font-weight="bold" font-size="10.00" fill="blue">SHOW(WSPRITE,)</text>
</g>
<!-- status -->
<g id="node9" class="node">
<title>status</title>
<polygon fill="none" stroke="black" points="310,-568 310,-647 824,-647 824,-568 310,-568"/>
<polygon fill="none" stroke="black" points="321,-621.25 321,-640 813,-640 813,-621.25 321,-621.25"/>
<text text-anchor="start" x="507" y="-628.5" font-family="Courier New" font-weight="bold" font-size="10.00">ORIE_DIARY_KEYHOLDER</text>
<polygon fill="none" stroke="black" points="321,-575 321,-619.25 813,-619.25 813,-575 321,-575"/>
<text text-anchor="start" x="324" y="-606.75" font-family="Courier New" font-size="10.00" fill="green">VIEW::IDV_TECHPANBIGALT @pos(x:240, y:500, w:50, h:60)</text>
<text text-anchor="start" x="324" y="-594" font-family="Courier New" font-size="10.00" fill="green">ORIE_DIARY_KEYHOLDER::M_PLANTBIN(&#39;IDD_ORIEKEYSMALL&#39;,&#39;IDS_ORIEKEY&#39;,&#39;200&#39;,&#39;&#39;,&#39;&#39;,&#39;&#39;)</text>
<text text-anchor="start" x="324" y="-581.25" font-family="Courier New" font-size="10.00" fill="green">{state:&#39;5&#39;: wSprite:IDS_ORIEKEY dEtime:0 Top:500 Left:240 Z:0</text>
<polygon fill="none" stroke="black" points="318,-572 318,-643 816,-643 816,-572 318,-572"/>
</g>
</g>
</svg>
