<?xml version="1.0" encoding="UTF-8" standalone="no"?>
<!DOCTYPE svg PUBLIC "-//W3C//DTD SVG 1.1//EN"
 "http://www.w3.org/Graphics/SVG/1.1/DTD/svg11.dtd">
<!-- Generated by graphviz version 10.0.1 (20240210.2158)
 -->
<!-- Title: Automaton Pages: 1 -->
<svg width="574pt" height="307pt"
 viewBox="0.00 0.00 574.00 307.25" xmlns="http://www.w3.org/2000/svg" xmlns:xlink="http://www.w3.org/1999/xlink">
<g id="graph0" class="graph" transform="scale(1 1) rotate(0) translate(4 303.25)">
<title>Automaton</title>
<polygon fill="white" stroke="none" points="-4,4 -4,-303.25 570,-303.25 570,4 -4,4"/>
<!-- filename -->
<g id="node1" class="node">
<title>filename</title>
<polygon fill="none" stroke="black" points="0,-232.5 0,-286 142,-286 142,-232.5 0,-232.5"/>
<polygon fill="none" stroke="black" points="11,-260.25 11,-279 131,-279 131,-260.25 11,-260.25"/>
<text text-anchor="start" x="14" y="-267.5" font-family="Courier New" font-weight="bold" font-size="10.00">POS_AUDIO_M3::M_VOL</text>
<polygon fill="none" stroke="black" points="11,-239.5 11,-258.25 131,-258.25 131,-239.5 11,-239.5"/>
<text text-anchor="start" x="26" y="-245.75" font-family="Courier New" font-size="10.00" fill="brown">start state = 0</text>
<polygon fill="none" stroke="black" points="8,-236.5 8,-282 134,-282 134,-236.5 8,-236.5"/>
</g>
<!-- 0 -->
<g id="node2" class="node">
<title>0</title>
<polyline fill="none" stroke="darkred" points="179.88,-248 194.12,-248"/>
<text text-anchor="start" x="182.88" y="-255.2" font-family="Courier New" font-weight="bold" font-size="14.00">0</text>
<path fill="none" stroke="darkred" d="M183.62,-245C183.62,-245 190.38,-245 190.38,-245 193.75,-245 197.12,-248.38 197.12,-251.75 197.12,-251.75 197.12,-266.75 197.12,-266.75 197.12,-270.12 193.75,-273.5 190.38,-273.5 190.38,-273.5 183.62,-273.5 183.62,-273.5 180.25,-273.5 176.88,-270.12 176.88,-266.75 176.88,-266.75 176.88,-251.75 176.88,-251.75 176.88,-248.38 180.25,-245 183.62,-245"/>
</g>
<!-- READY -->
<g id="node3" class="node">
<title>READY</title>
<polyline fill="none" stroke="darkred" stroke-width="3" points="162.88,-128.5 211.12,-128.5"/>
<text text-anchor="start" x="166.38" y="-136.2" font-family="Courier New" font-weight="bold" font-size="14.00">READY</text>
<path fill="none" stroke="darkred" stroke-width="3" d="M169.04,-123.5C169.04,-123.5 204.96,-123.5 204.96,-123.5 210.54,-123.5 216.12,-129.08 216.12,-134.67 216.12,-134.67 216.12,-145.83 216.12,-145.83 216.12,-151.42 210.54,-157 204.96,-157 204.96,-157 169.04,-157 169.04,-157 163.46,-157 157.88,-151.42 157.88,-145.83 157.88,-145.83 157.88,-134.67 157.88,-134.67 157.88,-129.08 163.46,-123.5 169.04,-123.5"/>
</g>
<!-- 0&#45;&gt;READY -->
<g id="edge1" class="edge">
<title>0&#45;&gt;READY</title>
<path fill="none" stroke="black" d="M187,-241.24C187,-223.59 187,-195.57 187,-173.67"/>
<polygon fill="black" stroke="black" points="190.5,-173.76 187,-163.76 183.5,-173.76 190.5,-173.76"/>
<text text-anchor="start" x="191" y="-188.75" font-family="Courier New" font-weight="bold" font-size="10.00" fill="blue">Z_EPSILON(0,)</text>
</g>
<!-- OFF -->
<g id="node4" class="node">
<title>OFF</title>
<polyline fill="none" stroke="darkred" points="41.62,-7 72.38,-7"/>
<text text-anchor="start" x="44.62" y="-14.2" font-family="Courier New" font-weight="bold" font-size="14.00">OFF</text>
<path fill="none" stroke="darkred" d="M48.12,-4C48.12,-4 65.88,-4 65.88,-4 70.62,-4 75.38,-8.75 75.38,-13.5 75.38,-13.5 75.38,-23 75.38,-23 75.38,-27.75 70.62,-32.5 65.88,-32.5 65.88,-32.5 48.12,-32.5 48.12,-32.5 43.38,-32.5 38.62,-27.75 38.62,-23 38.62,-23 38.62,-13.5 38.62,-13.5 38.62,-8.75 43.38,-4 48.12,-4"/>
</g>
<!-- READY&#45;&gt;OFF -->
<g id="edge5" class="edge">
<title>READY&#45;&gt;OFF</title>
<path fill="none" stroke="black" d="M148.43,-124.8C118.96,-113.75 83.31,-100.33 83,-100 69.47,-85.78 62.98,-64.49 59.87,-47.34"/>
<polygon fill="black" stroke="black" points="63.38,-47.13 58.43,-37.76 56.45,-48.17 63.38,-47.13"/>
<polygon fill="none" stroke="black" points="86,-78.25 86,-97 176,-97 176,-78.25 86,-78.25"/>
<text text-anchor="start" x="89" y="-85.5" font-family="Courier New" font-weight="bold" font-size="10.00" fill="orange">WAIT(,SIG_OFF)</text>
<polygon fill="none" stroke="black" points="86,-57.5 86,-76.25 176,-76.25 176,-57.5 86,-57.5"/>
<text text-anchor="start" x="110" y="-63.75" font-family="Courier New" font-size="10.00" fill="blue">SHOW();</text>
<polygon fill="none" stroke="black" points="83,-54.5 83,-100 179,-100 179,-54.5 83,-54.5"/>
</g>
<!-- ON -->
<g id="node5" class="node">
<title>ON</title>
<polyline fill="none" stroke="darkred" points="232.75,-7 255.25,-7"/>
<text text-anchor="start" x="235.75" y="-14.2" font-family="Courier New" font-weight="bold" font-size="14.00">ON</text>
<path fill="none" stroke="darkred" d="M239.25,-4C239.25,-4 248.75,-4 248.75,-4 253.5,-4 258.25,-8.75 258.25,-13.5 258.25,-13.5 258.25,-23 258.25,-23 258.25,-27.75 253.5,-32.5 248.75,-32.5 248.75,-32.5 239.25,-32.5 239.25,-32.5 234.5,-32.5 229.75,-27.75 229.75,-23 229.75,-23 229.75,-13.5 229.75,-13.5 229.75,-8.75 234.5,-4 239.25,-4"/>
</g>
<!-- READY&#45;&gt;ON -->
<g id="edge4" class="edge">
<title>READY&#45;&gt;ON</title>
<path fill="none" stroke="black" d="M183.67,-118.3C181.86,-100.2 181.89,-73.98 193,-54.5 196.6,-48.18 201.86,-42.74 207.65,-38.16"/>
<polygon fill="black" stroke="black" points="209.55,-41.1 215.77,-32.52 205.56,-35.35 209.55,-41.1"/>
<polygon fill="none" stroke="black" points="196,-78.25 196,-97 280,-97 280,-78.25 196,-78.25"/>
<text text-anchor="start" x="199" y="-85.5" font-family="Courier New" font-weight="bold" font-size="10.00" fill="orange">WAIT(,SIG_ON)</text>
<polygon fill="none" stroke="black" points="196,-57.5 196,-76.25 280,-76.25 280,-57.5 196,-57.5"/>
<text text-anchor="start" x="205" y="-63.75" font-family="Courier New" font-size="10.00" fill="blue">SHOW(WIP1);</text>
<polygon fill="none" stroke="black" points="193,-54.5 193,-100 283,-100 283,-54.5 193,-54.5"/>
</g>
<!-- OFF&#45;&gt;0 -->
<g id="edge2" class="edge">
<title>OFF&#45;&gt;0</title>
<path fill="none" stroke="black" d="M51.22,-36.08C42.61,-64.34 29.76,-122.19 53,-162.5 78.14,-206.1 111.71,-187.79 151,-219.25 156.04,-223.28 161.01,-228.02 165.58,-232.79"/>
<polygon fill="black" stroke="black" points="162.94,-235.09 172.27,-240.12 168.11,-230.37 162.94,-235.09"/>
<text text-anchor="start" x="57" y="-138.12" font-family="Courier New" font-weight="bold" font-size="10.00" fill="blue">Z_EPSILON(0,)</text>
</g>
<!-- ON&#45;&gt;0 -->
<g id="edge3" class="edge">
<title>ON&#45;&gt;0</title>
<path fill="none" stroke="black" d="M269.35,-36.49C274.87,-41.59 279.96,-47.66 283,-54.5 309.49,-114.16 316.72,-149.45 277,-201.25 261.61,-221.33 244.25,-205.52 223,-219.25 217.25,-222.97 211.8,-227.81 206.97,-232.82"/>
<polygon fill="black" stroke="black" points="204.52,-230.3 200.48,-240.09 209.75,-234.96 204.52,-230.3"/>
<text text-anchor="start" x="309" y="-138.12" font-family="Courier New" font-weight="bold" font-size="10.00" fill="blue">Z_EPSILON(0,)</text>
</g>
<!-- status -->
<g id="node6" class="node">
<title>status</title>
<polygon fill="none" stroke="black" points="232,-219.75 232,-298.75 566,-298.75 566,-219.75 232,-219.75"/>
<polygon fill="none" stroke="black" points="243,-273 243,-291.75 555,-291.75 555,-273 243,-273"/>
<text text-anchor="start" x="363" y="-280.25" font-family="Courier New" font-weight="bold" font-size="10.00">POS_AUDIO_M3</text>
<polygon fill="none" stroke="black" points="243,-226.75 243,-271 555,-271 555,-226.75 243,-226.75"/>
<text text-anchor="start" x="246" y="-258.5" font-family="Courier New" font-size="10.00" fill="green">VIEW::IDV_MAIN_PANEL @pos(x:483, y:149, w:12, h:8)</text>
<text text-anchor="start" x="246" y="-245.75" font-family="Courier New" font-size="10.00" fill="green">POS_AUDIO_M3::M_VOL(&#39;IDS_YELLOWDOT&#39;,&#39;&#39;,&#39;&#39;,&#39;&#39;,&#39;&#39;,&#39;&#39;)</text>
<text text-anchor="start" x="246" y="-233" font-family="Courier New" font-size="10.00" fill="green">{state:&#39;READY&#39;: Top:149 Left:483 Z:0</text>
<polygon fill="none" stroke="black" points="240,-223.75 240,-294.75 558,-294.75 558,-223.75 240,-223.75"/>
</g>
</g>
</svg>
