<?xml version="1.0" encoding="UTF-8" standalone="no"?>
<!DOCTYPE svg PUBLIC "-//W3C//DTD SVG 1.1//EN"
 "http://www.w3.org/Graphics/SVG/1.1/DTD/svg11.dtd">
<!-- Generated by graphviz version 10.0.1 (20240210.2158)
 -->
<!-- Title: Automaton Pages: 1 -->
<svg width="586pt" height="219pt"
 viewBox="0.00 0.00 586.00 218.75" xmlns="http://www.w3.org/2000/svg" xmlns:xlink="http://www.w3.org/1999/xlink">
<g id="graph0" class="graph" transform="scale(1 1) rotate(0) translate(4 214.75)">
<title>Automaton</title>
<polygon fill="white" stroke="none" points="-4,4 -4,-214.75 582,-214.75 582,4 -4,4"/>
<!-- filename -->
<g id="node1" class="node">
<title>filename</title>
<polygon fill="none" stroke="black" points="0,-144 0,-197.5 172,-197.5 172,-144 0,-144"/>
<polygon fill="none" stroke="black" points="11,-171.75 11,-190.5 161,-190.5 161,-171.75 11,-171.75"/>
<text text-anchor="start" x="14" y="-179" font-family="Courier New" font-weight="bold" font-size="10.00">QL_WORLDEXT::M_QUEST_EXT</text>
<polygon fill="none" stroke="black" points="11,-151 11,-169.75 161,-169.75 161,-151 11,-151"/>
<text text-anchor="start" x="41" y="-157.25" font-family="Courier New" font-size="10.00" fill="brown">start state = 0</text>
<polygon fill="none" stroke="black" points="8,-148 8,-193.5 164,-193.5 164,-148 8,-148"/>
</g>
<!-- 0 -->
<g id="node2" class="node">
<title>0</title>
<polyline fill="none" stroke="darkred" stroke-width="3" points="209.38,-159 224.62,-159"/>
<text text-anchor="start" x="212.88" y="-166.7" font-family="Courier New" font-weight="bold" font-size="14.00">0</text>
<path fill="none" stroke="darkred" stroke-width="3" d="M212.79,-154C212.79,-154 221.21,-154 221.21,-154 225.42,-154 229.62,-158.21 229.62,-162.42 229.62,-162.42 229.62,-179.08 229.62,-179.08 229.62,-183.29 225.42,-187.5 221.21,-187.5 221.21,-187.5 212.79,-187.5 212.79,-187.5 208.58,-187.5 204.38,-183.29 204.38,-179.08 204.38,-179.08 204.38,-162.42 204.38,-162.42 204.38,-158.21 208.58,-154 212.79,-154"/>
</g>
<!-- exited -->
<g id="node3" class="node">
<title>exited</title>
<polyline fill="none" stroke="darkred" points="188.25,-7 243.75,-7"/>
<text text-anchor="start" x="191.25" y="-14.2" font-family="Courier New" font-weight="bold" font-size="14.00">exited</text>
<path fill="none" stroke="darkred" d="M194.75,-4C194.75,-4 237.25,-4 237.25,-4 242,-4 246.75,-8.75 246.75,-13.5 246.75,-13.5 246.75,-23 246.75,-23 246.75,-27.75 242,-32.5 237.25,-32.5 237.25,-32.5 194.75,-32.5 194.75,-32.5 190,-32.5 185.25,-27.75 185.25,-23 185.25,-23 185.25,-13.5 185.25,-13.5 185.25,-8.75 190,-4 194.75,-4"/>
</g>
<!-- 0&#45;&gt;exited -->
<g id="edge1" class="edge">
<title>0&#45;&gt;exited</title>
<path fill="none" stroke="black" d="M201.7,-148.71C195.91,-142.08 188.8,-135.3 181,-130.75 150.63,-113.06 125.84,-140.28 104,-112.75 87.91,-92.47 88.69,-75.37 104,-54.5 118.29,-35.03 143.34,-26.03 166.13,-21.98"/>
<polygon fill="black" stroke="black" points="166.55,-25.46 175.93,-20.54 165.53,-18.53 166.55,-25.46"/>
<polygon fill="none" stroke="black" points="107,-91 107,-109.75 305,-109.75 305,-91 107,-91"/>
<text text-anchor="start" x="182" y="-98.25" font-family="Courier New" font-weight="bold" font-size="10.00" fill="orange">CLICK(,)</text>
<polygon fill="none" stroke="black" points="107,-57.5 107,-89 305,-89 305,-57.5 107,-57.5"/>
<text text-anchor="start" x="110" y="-76.5" font-family="Courier New" font-size="10.00" fill="blue"> &#160;&#160;&#160;&#160;&#160;&#160;REF_MACHINE(S0_QL_BTN);</text>
<text text-anchor="start" x="110" y="-63.75" font-family="Courier New" font-size="10.00" fill="blue"> &#160;&#160;&#160;&#160;&#160;&#160;LOADVIEW(R_WPARM); &#160;&#160;&#160;&#160;&#160;&#160;</text>
<polygon fill="none" stroke="black" points="104,-54.5 104,-112.75 308,-112.75 308,-54.5 104,-54.5"/>
</g>
<!-- exited&#45;&gt;0 -->
<g id="edge2" class="edge">
<title>exited&#45;&gt;0</title>
<path fill="none" stroke="black" d="M254.57,-23.76C274.02,-28.21 295.98,-37.02 308,-54.5 322.67,-75.83 323.19,-91.79 308,-112.75 292.9,-133.57 274.64,-116.85 253,-130.75 248.7,-133.51 244.57,-136.91 240.74,-140.54"/>
<polygon fill="black" stroke="black" points="238.35,-137.97 233.94,-147.6 243.39,-142.83 238.35,-137.97"/>
<text text-anchor="start" x="323" y="-81.5" font-family="Courier New" font-weight="bold" font-size="10.00" fill="blue">Z_EPSILON(,)</text>
</g>
<!-- status -->
<g id="node4" class="node">
<title>status</title>
<polygon fill="none" stroke="black" points="262,-131.25 262,-210.25 578,-210.25 578,-131.25 262,-131.25"/>
<polygon fill="none" stroke="black" points="273,-184.5 273,-203.25 567,-203.25 567,-184.5 273,-184.5"/>
<text text-anchor="start" x="387" y="-191.75" font-family="Courier New" font-weight="bold" font-size="10.00">QL_WORLDEXT</text>
<polygon fill="none" stroke="black" points="273,-138.25 273,-182.5 567,-182.5 567,-138.25 273,-138.25"/>
<text text-anchor="start" x="276" y="-170" font-family="Courier New" font-size="10.00" fill="green">VIEW::IDV_QUESTPAN @pos(x:112, y:24, h:32, w:27)</text>
<text text-anchor="start" x="276" y="-157.25" font-family="Courier New" font-size="10.00" fill="green">QL_WORLDEXT::M_QUEST_EXT(&#39;&#39;,&#39;&#39;,&#39;&#39;,&#39;&#39;,&#39;&#39;,&#39;&#39;)</text>
<text text-anchor="start" x="276" y="-144.5" font-family="Courier New" font-size="10.00" fill="green">{state:&#39;0&#39;: Top:24 Left:112 Z:0</text>
<polygon fill="none" stroke="black" points="270,-135.25 270,-206.25 570,-206.25 570,-135.25 270,-135.25"/>
</g>
</g>
</svg>
