<?xml version="1.0" encoding="UTF-8" standalone="no"?>
<!DOCTYPE svg PUBLIC "-//W3C//DTD SVG 1.1//EN"
 "http://www.w3.org/Graphics/SVG/1.1/DTD/svg11.dtd">
<!-- Generated by graphviz version 10.0.1 (20240210.2158)
 -->
<!-- Title: Automaton Pages: 1 -->
<svg width="634pt" height="219pt"
 viewBox="0.00 0.00 634.00 218.75" xmlns="http://www.w3.org/2000/svg" xmlns:xlink="http://www.w3.org/1999/xlink">
<g id="graph0" class="graph" transform="scale(1 1) rotate(0) translate(4 214.75)">
<title>Automaton</title>
<polygon fill="white" stroke="none" points="-4,4 -4,-214.75 630,-214.75 630,4 -4,4"/>
<!-- filename -->
<g id="node1" class="node">
<title>filename</title>
<polygon fill="none" stroke="black" points="0,-144 0,-197.5 172,-197.5 172,-144 0,-144"/>
<polygon fill="none" stroke="black" points="11,-171.75 11,-190.5 161,-190.5 161,-171.75 11,-171.75"/>
<text text-anchor="start" x="14" y="-179" font-family="Courier New" font-weight="bold" font-size="10.00">QL_WORLDTAB::M_QUEST_TAB</text>
<polygon fill="none" stroke="black" points="11,-151 11,-169.75 161,-169.75 161,-151 11,-151"/>
<text text-anchor="start" x="41" y="-157.25" font-family="Courier New" font-size="10.00" fill="brown">start state = 0</text>
<polygon fill="none" stroke="black" points="8,-148 8,-193.5 164,-193.5 164,-148 8,-148"/>
</g>
<!-- 0 -->
<g id="node2" class="node">
<title>0</title>
<polyline fill="none" stroke="darkred" stroke-width="3" points="209.38,-159 224.62,-159"/>
<text text-anchor="start" x="212.88" y="-166.7" font-family="Courier New" font-weight="bold" font-size="14.00">0</text>
<path fill="none" stroke="darkred" stroke-width="3" d="M212.79,-154C212.79,-154 221.21,-154 221.21,-154 225.42,-154 229.62,-158.21 229.62,-162.42 229.62,-162.42 229.62,-179.08 229.62,-179.08 229.62,-183.29 225.42,-187.5 221.21,-187.5 221.21,-187.5 212.79,-187.5 212.79,-187.5 208.58,-187.5 204.38,-183.29 204.38,-179.08 204.38,-179.08 204.38,-162.42 204.38,-162.42 204.38,-158.21 208.58,-154 212.79,-154"/>
</g>
<!-- switched -->
<g id="node3" class="node">
<title>switched</title>
<polyline fill="none" stroke="darkred" points="180,-7 252,-7"/>
<text text-anchor="start" x="183" y="-14.2" font-family="Courier New" font-weight="bold" font-size="14.00">switched</text>
<path fill="none" stroke="darkred" d="M186.5,-4C186.5,-4 245.5,-4 245.5,-4 250.25,-4 255,-8.75 255,-13.5 255,-13.5 255,-23 255,-23 255,-27.75 250.25,-32.5 245.5,-32.5 245.5,-32.5 186.5,-32.5 186.5,-32.5 181.75,-32.5 177,-27.75 177,-23 177,-23 177,-13.5 177,-13.5 177,-8.75 181.75,-4 186.5,-4"/>
</g>
<!-- 0&#45;&gt;switched -->
<g id="edge1" class="edge">
<title>0&#45;&gt;switched</title>
<path fill="none" stroke="black" d="M201.73,-148.68C195.93,-142.04 188.82,-135.26 181,-130.75 149.43,-112.54 123.77,-141.21 101,-112.75 84.83,-92.53 85.61,-75.32 101,-54.5 114.32,-36.48 136.68,-27.38 158.16,-22.88"/>
<polygon fill="black" stroke="black" points="158.52,-26.37 167.76,-21.18 157.31,-19.47 158.52,-26.37"/>
<polygon fill="none" stroke="black" points="104,-91 104,-109.75 308,-109.75 308,-91 104,-91"/>
<text text-anchor="start" x="182" y="-98.25" font-family="Courier New" font-weight="bold" font-size="10.00" fill="orange">CLICK(,)</text>
<polygon fill="none" stroke="black" points="104,-57.5 104,-89 308,-89 308,-57.5 104,-57.5"/>
<text text-anchor="start" x="107" y="-76.5" font-family="Courier New" font-size="10.00" fill="blue"> &#160;&#160;&#160;&#160;&#160;&#160;&#160;PLAYWAVE(SOUND_BTNDRAG);</text>
<text text-anchor="start" x="107" y="-63.75" font-family="Courier New" font-size="10.00" fill="blue"> &#160;&#160;&#160;&#160;&#160;&#160;&#160;LOADVIEW(WIP1); &#160;&#160;&#160;&#160;&#160;&#160;&#160;&#160;&#160;</text>
<polygon fill="none" stroke="black" points="101,-54.5 101,-112.75 311,-112.75 311,-54.5 101,-54.5"/>
</g>
<!-- switched&#45;&gt;0 -->
<g id="edge2" class="edge">
<title>switched&#45;&gt;0</title>
<path fill="none" stroke="black" d="M262.67,-25.07C280.86,-29.87 299.95,-38.61 311,-54.5 325.78,-75.75 326.36,-91.91 311,-112.75 294.99,-134.48 275.82,-116.34 253,-130.75 248.68,-133.48 244.53,-136.86 240.7,-140.48"/>
<polygon fill="black" stroke="black" points="238.32,-137.91 233.89,-147.53 243.36,-142.77 238.32,-137.91"/>
<text text-anchor="start" x="326" y="-81.5" font-family="Courier New" font-weight="bold" font-size="10.00" fill="blue">Z_EPSILON(,)</text>
</g>
<!-- status -->
<g id="node4" class="node">
<title>status</title>
<polygon fill="none" stroke="black" points="262,-131.25 262,-210.25 626,-210.25 626,-131.25 262,-131.25"/>
<polygon fill="none" stroke="black" points="273,-184.5 273,-203.25 615,-203.25 615,-184.5 273,-184.5"/>
<text text-anchor="start" x="411" y="-191.75" font-family="Courier New" font-weight="bold" font-size="10.00">QL_WORLDTAB</text>
<polygon fill="none" stroke="black" points="273,-138.25 273,-182.5 615,-182.5 615,-138.25 273,-138.25"/>
<text text-anchor="start" x="276" y="-170" font-family="Courier New" font-size="10.00" fill="green">VIEW::IDV_QUESTPAN @pos(x:226, y:80, h:140, w:23)</text>
<text text-anchor="start" x="276" y="-157.25" font-family="Courier New" font-size="10.00" fill="green">QL_WORLDTAB::M_QUEST_TAB(&#39;IDV_QUESTPANW&#39;,&#39;&#39;,&#39;&#39;,&#39;&#39;,&#39;&#39;,&#39;&#39;)</text>
<text text-anchor="start" x="276" y="-144.5" font-family="Courier New" font-size="10.00" fill="green">{state:&#39;0&#39;: Top:80 Left:226 Z:0</text>
<polygon fill="none" stroke="black" points="270,-135.25 270,-206.25 618,-206.25 618,-135.25 270,-135.25"/>
</g>
</g>
</svg>
