<?xml version="1.0" encoding="UTF-8" standalone="no"?>
<!DOCTYPE svg PUBLIC "-//W3C//DTD SVG 1.1//EN"
 "http://www.w3.org/Graphics/SVG/1.1/DTD/svg11.dtd">
<!-- Generated by graphviz version 10.0.1 (20240210.2158)
 -->
<!-- Title: Automaton Pages: 1 -->
<svg width="994pt" height="1861pt"
 viewBox="0.00 0.00 993.75 1861.00" xmlns="http://www.w3.org/2000/svg" xmlns:xlink="http://www.w3.org/1999/xlink">
<g id="graph0" class="graph" transform="scale(1 1) rotate(0) translate(4 1857)">
<title>Automaton</title>
<polygon fill="white" stroke="none" points="-4,4 -4,-1857 989.75,-1857 989.75,4 -4,4"/>
<!-- filename -->
<g id="node1" class="node">
<title>filename</title>
<polygon fill="none" stroke="black" points="77.75,-1786.25 77.75,-1839.75 249.75,-1839.75 249.75,-1786.25 77.75,-1786.25"/>
<polygon fill="none" stroke="black" points="88.75,-1814 88.75,-1832.75 238.75,-1832.75 238.75,-1814 88.75,-1814"/>
<text text-anchor="start" x="91.75" y="-1821.25" font-family="Courier New" font-weight="bold" font-size="10.00">S00_HIDDEN_1::M_DIGGABLE</text>
<polygon fill="none" stroke="black" points="88.75,-1793.25 88.75,-1812 238.75,-1812 238.75,-1793.25 88.75,-1793.25"/>
<text text-anchor="start" x="118.75" y="-1799.5" font-family="Courier New" font-size="10.00" fill="brown">start state = 0</text>
<polygon fill="none" stroke="black" points="85.75,-1790.25 85.75,-1835.75 241.75,-1835.75 241.75,-1790.25 85.75,-1790.25"/>
</g>
<!-- 0 -->
<g id="node2" class="node">
<title>0</title>
<polyline fill="none" stroke="darkred" points="287.62,-1801.75 301.88,-1801.75"/>
<text text-anchor="start" x="290.62" y="-1808.95" font-family="Courier New" font-weight="bold" font-size="14.00">0</text>
<path fill="none" stroke="darkred" d="M291.38,-1798.75C291.38,-1798.75 298.12,-1798.75 298.12,-1798.75 301.5,-1798.75 304.88,-1802.12 304.88,-1805.5 304.88,-1805.5 304.88,-1820.5 304.88,-1820.5 304.88,-1823.88 301.5,-1827.25 298.12,-1827.25 298.12,-1827.25 291.38,-1827.25 291.38,-1827.25 288,-1827.25 284.62,-1823.88 284.62,-1820.5 284.62,-1820.5 284.62,-1805.5 284.62,-1805.5 284.62,-1802.12 288,-1798.75 291.38,-1798.75"/>
</g>
<!-- fixinToHideItem -->
<g id="node3" class="node">
<title>fixinToHideItem</title>
<polyline fill="none" stroke="darkred" points="41.88,-1649.25 171.62,-1649.25"/>
<text text-anchor="start" x="44.88" y="-1656.45" font-family="Courier New" font-weight="bold" font-size="14.00">fixinToHideItem</text>
<path fill="none" stroke="darkred" d="M48.38,-1646.25C48.38,-1646.25 165.12,-1646.25 165.12,-1646.25 169.88,-1646.25 174.62,-1651 174.62,-1655.75 174.62,-1655.75 174.62,-1665.25 174.62,-1665.25 174.62,-1670 169.88,-1674.75 165.12,-1674.75 165.12,-1674.75 48.38,-1674.75 48.38,-1674.75 43.62,-1674.75 38.88,-1670 38.88,-1665.25 38.88,-1665.25 38.88,-1655.75 38.88,-1655.75 38.88,-1651 43.62,-1646.25 48.38,-1646.25"/>
</g>
<!-- 0&#45;&gt;fixinToHideItem -->
<g id="edge1" class="edge">
<title>0&#45;&gt;fixinToHideItem</title>
<path fill="none" stroke="black" d="M281.65,-1795.02C275.31,-1787.59 267.24,-1779.18 258.75,-1773 243.31,-1761.77 235.91,-1765.17 219.75,-1755 187.74,-1734.85 154.84,-1706.61 132.85,-1686.44"/>
<polygon fill="black" stroke="black" points="135.23,-1683.88 125.52,-1679.64 130.47,-1689.01 135.23,-1683.88"/>
<polygon fill="none" stroke="black" points="222.75,-1733.25 222.75,-1752 390.75,-1752 390.75,-1733.25 222.75,-1733.25"/>
<text text-anchor="start" x="261.75" y="-1740.5" font-family="Courier New" font-weight="bold" font-size="10.00" fill="orange">WAIT(,SIG_OPEN)</text>
<polygon fill="none" stroke="black" points="222.75,-1699.75 222.75,-1731.25 390.75,-1731.25 390.75,-1699.75 222.75,-1699.75"/>
<text text-anchor="start" x="225.75" y="-1718.75" font-family="Courier New" font-size="10.00" fill="blue"> &#160;&#160;&#160;REF_MACHINE(S00_HIDER);</text>
<text text-anchor="start" x="225.75" y="-1706" font-family="Courier New" font-size="10.00" fill="blue"> &#160;&#160;&#160;MOV(WOBJECT,R_WPARM);</text>
<polygon fill="none" stroke="black" points="219.75,-1696.75 219.75,-1755 393.75,-1755 393.75,-1696.75 219.75,-1696.75"/>
</g>
<!-- determinedItem -->
<g id="node7" class="node">
<title>determinedItem</title>
<polyline fill="none" stroke="darkred" points="11,-1518.5 132.5,-1518.5"/>
<text text-anchor="start" x="14" y="-1525.7" font-family="Courier New" font-weight="bold" font-size="14.00">determinedItem</text>
<path fill="none" stroke="darkred" d="M17.5,-1515.5C17.5,-1515.5 126,-1515.5 126,-1515.5 130.75,-1515.5 135.5,-1520.25 135.5,-1525 135.5,-1525 135.5,-1534.5 135.5,-1534.5 135.5,-1539.25 130.75,-1544 126,-1544 126,-1544 17.5,-1544 17.5,-1544 12.75,-1544 8,-1539.25 8,-1534.5 8,-1534.5 8,-1525 8,-1525 8,-1520.25 12.75,-1515.5 17.5,-1515.5"/>
</g>
<!-- fixinToHideItem&#45;&gt;determinedItem -->
<g id="edge7" class="edge">
<title>fixinToHideItem&#45;&gt;determinedItem</title>
<path fill="none" stroke="black" d="M83.06,-1642.42C77.68,-1637.25 72.69,-1631.1 69.75,-1624.25 60.95,-1603.71 62.19,-1578.23 65.22,-1559.05"/>
<polygon fill="black" stroke="black" points="68.66,-1559.72 67.04,-1549.25 61.77,-1558.44 68.66,-1559.72"/>
<polygon fill="none" stroke="black" points="72.75,-1602.5 72.75,-1621.25 390.75,-1621.25 390.75,-1602.5 72.75,-1602.5"/>
<text text-anchor="start" x="141.75" y="-1609.75" font-family="Courier New" font-weight="bold" font-size="10.00" fill="blue">REF_MACHINE(S16_POTTERYCHECK,)</text>
<polygon fill="none" stroke="black" points="72.75,-1569 72.75,-1600.5 390.75,-1600.5 390.75,-1569 72.75,-1569"/>
<text text-anchor="start" x="75.75" y="-1588" font-family="Courier New" font-size="10.00" fill="blue"> &#160;&#160;&#160;if(R_BPARM &gt; 0){ MAPi(WOBJECT,S00_HIDDENSPELL);}</text>
<text text-anchor="start" x="75.75" y="-1575.25" font-family="Courier New" font-size="10.00" fill="blue"> &#160;&#160;&#160;if(R_BPARM == 0){ MAPi(WOBJECT,S00_HIDDENITEM);}</text>
<polygon fill="none" stroke="black" points="69.75,-1566 69.75,-1624.25 393.75,-1624.25 393.75,-1566 69.75,-1566"/>
</g>
<!-- chestview -->
<g id="node4" class="node">
<title>chestview</title>
<polyline fill="none" stroke="darkred" points="282.62,-7 362.88,-7"/>
<text text-anchor="start" x="285.62" y="-14.2" font-family="Courier New" font-weight="bold" font-size="14.00">chestview</text>
<path fill="none" stroke="darkred" d="M289.12,-4C289.12,-4 356.38,-4 356.38,-4 361.12,-4 365.88,-8.75 365.88,-13.5 365.88,-13.5 365.88,-23 365.88,-23 365.88,-27.75 361.12,-32.5 356.38,-32.5 356.38,-32.5 289.12,-32.5 289.12,-32.5 284.38,-32.5 279.62,-27.75 279.62,-23 279.62,-23 279.62,-13.5 279.62,-13.5 279.62,-8.75 284.38,-4 289.12,-4"/>
</g>
<!-- chestview&#45;&gt;0 -->
<g id="edge2" class="edge">
<title>chestview&#45;&gt;0</title>
<path fill="none" stroke="black" d="M353.92,-36.21C378.18,-51.94 407.75,-77.81 407.75,-110.5 407.75,-1661.5 407.75,-1661.5 407.75,-1661.5 407.75,-1703.52 421.47,-1723.43 393.75,-1755 374.54,-1776.88 355.55,-1757.73 330.75,-1773 324.92,-1776.59 319.44,-1781.38 314.6,-1786.38"/>
<polygon fill="black" stroke="black" points="312.15,-1783.87 308.11,-1793.66 317.38,-1788.52 312.15,-1783.87"/>
<polygon fill="none" stroke="black" points="410.75,-1010.5 410.75,-1029.25 638.75,-1029.25 638.75,-1010.5 410.75,-1010.5"/>
<text text-anchor="start" x="488.75" y="-1017.75" font-family="Courier New" font-weight="bold" font-size="10.00" fill="blue">Z_EPSILON(,)</text>
<polygon fill="none" stroke="black" points="410.75,-951.5 410.75,-1008.5 638.75,-1008.5 638.75,-951.5 410.75,-951.5"/>
<text text-anchor="start" x="413.75" y="-996" font-family="Courier New" font-size="10.00" fill="blue"> &#160;&#160;MOV(WPARM,LVIEW);</text>
<text text-anchor="start" x="413.75" y="-983.25" font-family="Courier New" font-size="10.00" fill="blue"> &#160;&#160;SHOW(0);</text>
<text text-anchor="start" x="413.75" y="-970.5" font-family="Courier New" font-size="10.00" fill="blue"> &#160;&#160;LOADVIEW(IDV_CHESTVIEW);</text>
<text text-anchor="start" x="413.75" y="-957.75" font-family="Courier New" font-size="10.00" fill="blue"> &#160;&#160;SIGNALi(SIG_SHOW,S00_CHESTWAITER);</text>
<polygon fill="none" stroke="black" points="407.75,-948.5 407.75,-1032.25 641.75,-1032.25 641.75,-948.5 407.75,-948.5"/>
</g>
<!-- coverActive -->
<g id="node5" class="node">
<title>coverActive</title>
<polyline fill="none" stroke="darkred" points="38.38,-1400.5 135.12,-1400.5"/>
<text text-anchor="start" x="41.38" y="-1407.7" font-family="Courier New" font-weight="bold" font-size="14.00">coverActive</text>
<path fill="none" stroke="darkred" d="M44.88,-1397.5C44.88,-1397.5 128.62,-1397.5 128.62,-1397.5 133.38,-1397.5 138.12,-1402.25 138.12,-1407 138.12,-1407 138.12,-1416.5 138.12,-1416.5 138.12,-1421.25 133.38,-1426 128.62,-1426 128.62,-1426 44.88,-1426 44.88,-1426 40.12,-1426 35.38,-1421.25 35.38,-1416.5 35.38,-1416.5 35.38,-1407 35.38,-1407 35.38,-1402.25 40.12,-1397.5 44.88,-1397.5"/>
</g>
<!-- firstWhack -->
<g id="node6" class="node">
<title>firstWhack</title>
<polyline fill="none" stroke="darkred" stroke-width="3" points="105,-1302.75 194.5,-1302.75"/>
<text text-anchor="start" x="108.5" y="-1310.45" font-family="Courier New" font-weight="bold" font-size="14.00">firstWhack</text>
<path fill="none" stroke="darkred" stroke-width="3" d="M111.17,-1297.75C111.17,-1297.75 188.33,-1297.75 188.33,-1297.75 193.92,-1297.75 199.5,-1303.33 199.5,-1308.92 199.5,-1308.92 199.5,-1320.08 199.5,-1320.08 199.5,-1325.67 193.92,-1331.25 188.33,-1331.25 188.33,-1331.25 111.17,-1331.25 111.17,-1331.25 105.58,-1331.25 100,-1325.67 100,-1320.08 100,-1320.08 100,-1308.92 100,-1308.92 100,-1303.33 105.58,-1297.75 111.17,-1297.75"/>
</g>
<!-- coverActive&#45;&gt;firstWhack -->
<g id="edge3" class="edge">
<title>coverActive&#45;&gt;firstWhack</title>
<path fill="none" stroke="black" d="M98.01,-1393.72C106.75,-1380.52 119.08,-1361.87 129.52,-1346.09"/>
<polygon fill="black" stroke="black" points="132.29,-1348.25 134.88,-1337.98 126.45,-1344.39 132.29,-1348.25"/>
<text text-anchor="start" x="126.75" y="-1363" font-family="Courier New" font-weight="bold" font-size="10.00" fill="blue">Z_EPSILON(,)</text>
</g>
<!-- secondWhack -->
<g id="node9" class="node">
<title>secondWhack</title>
<polyline fill="none" stroke="darkred" points="103.38,-979.12 200.12,-979.12"/>
<text text-anchor="start" x="106.38" y="-986.33" font-family="Courier New" font-weight="bold" font-size="14.00">secondWhack</text>
<path fill="none" stroke="darkred" d="M109.88,-976.12C109.88,-976.12 193.62,-976.12 193.62,-976.12 198.38,-976.12 203.12,-980.88 203.12,-985.62 203.12,-985.62 203.12,-995.12 203.12,-995.12 203.12,-999.88 198.38,-1004.62 193.62,-1004.62 193.62,-1004.62 109.88,-1004.62 109.88,-1004.62 105.12,-1004.62 100.38,-999.88 100.38,-995.12 100.38,-995.12 100.38,-985.62 100.38,-985.62 100.38,-980.88 105.12,-976.12 109.88,-976.12"/>
</g>
<!-- firstWhack&#45;&gt;secondWhack -->
<g id="edge6" class="edge">
<title>firstWhack&#45;&gt;secondWhack</title>
<path fill="none" stroke="black" d="M149.88,-1292.36C150.23,-1236.22 151.18,-1083.29 151.57,-1019.7"/>
<polygon fill="black" stroke="black" points="155.07,-1020.1 151.63,-1010.08 148.07,-1020.06 155.07,-1020.1"/>
<polygon fill="none" stroke="black" points="154.75,-1252.5 154.75,-1271.25 388.75,-1271.25 388.75,-1252.5 154.75,-1252.5"/>
<text text-anchor="start" x="238.75" y="-1259.75" font-family="Courier New" font-weight="bold" font-size="10.00" fill="orange">DRAG(WIP3,)</text>
<polygon fill="none" stroke="black" points="154.75,-1053.25 154.75,-1250.5 388.75,-1250.5 388.75,-1053.25 154.75,-1053.25"/>
<text text-anchor="start" x="157.75" y="-1238" font-family="Courier New" font-size="10.00" fill="blue"> &#160;&#160;&#160;&#160;&#160;&#160;&#160;if(WIP3 == ISA_TOOL_DIGGER){</text>
<text text-anchor="start" x="157.75" y="-1225.25" font-family="Courier New" font-size="10.00" fill="blue"> &#160;&#160;&#160;&#160;&#160;&#160;&#160;&#160;&#160;&#160;&#160;SHOW(0,IDS_SANDPILE1);</text>
<text text-anchor="start" x="157.75" y="-1212.5" font-family="Courier New" font-size="10.00" fill="blue"> &#160;&#160;&#160;&#160;&#160;&#160;&#160;&#160;&#160;&#160;&#160;ANIMATE();</text>
<text text-anchor="start" x="157.75" y="-1199.75" font-family="Courier New" font-size="10.00" fill="blue"> &#160;&#160;&#160;&#160;&#160;&#160;&#160;&#160;&#160;&#160;&#160;PLAYWAVE(SOUND_DIG);</text>
<text text-anchor="start" x="157.75" y="-1187" font-family="Courier New" font-size="10.00" fill="blue"> &#160;&#160;&#160;&#160;&#160;&#160;&#160;&#160;} &#160;&#160;</text>
<text text-anchor="start" x="157.75" y="-1174.25" font-family="Courier New" font-size="10.00" fill="blue"> &#160;&#160;&#160;&#160;&#160;&#160;&#160;&#160;if(WIP3 == ISA_TOOL_STRIKER){</text>
<text text-anchor="start" x="157.75" y="-1161.5" font-family="Courier New" font-size="10.00" fill="blue"> &#160;&#160;&#160;&#160;&#160;&#160;&#160;&#160;&#160;&#160;&#160;SHOW(0,IDS_SANDSTRIKE);</text>
<text text-anchor="start" x="157.75" y="-1148.75" font-family="Courier New" font-size="10.00" fill="blue"> &#160;&#160;&#160;&#160;&#160;&#160;&#160;&#160;&#160;&#160;&#160;ANIMATE();</text>
<text text-anchor="start" x="157.75" y="-1136" font-family="Courier New" font-size="10.00" fill="blue"> &#160;&#160;&#160;&#160;&#160;&#160;&#160;&#160;&#160;&#160;&#160;PLAYWAVE(SOUND_DIG);</text>
<text text-anchor="start" x="157.75" y="-1123.25" font-family="Courier New" font-size="10.00" fill="blue"> &#160;&#160;&#160;&#160;&#160;&#160;&#160;&#160;} &#160;&#160;</text>
<text text-anchor="start" x="157.75" y="-1110.5" font-family="Courier New" font-size="10.00" fill="blue"> &#160;&#160;&#160;&#160;&#160;&#160;&#160;&#160;&#160;if(WIP3 == ISA_TOOL_PRYER){</text>
<text text-anchor="start" x="157.75" y="-1097.75" font-family="Courier New" font-size="10.00" fill="blue"> &#160;&#160;&#160;&#160;&#160;&#160;&#160;&#160;&#160;&#160;&#160;SHOW(0,IDS_SANDFLIP);</text>
<text text-anchor="start" x="157.75" y="-1085" font-family="Courier New" font-size="10.00" fill="blue"> &#160;&#160;&#160;&#160;&#160;&#160;&#160;&#160;&#160;&#160;&#160;ANIMATE();</text>
<text text-anchor="start" x="157.75" y="-1072.25" font-family="Courier New" font-size="10.00" fill="blue"> &#160;&#160;&#160;&#160;&#160;&#160;&#160;&#160;&#160;&#160;&#160;PLAYWAVE(SOUND_THUMP);</text>
<text text-anchor="start" x="157.75" y="-1059.5" font-family="Courier New" font-size="10.00" fill="blue"> &#160;&#160;&#160;&#160;&#160;&#160;&#160;&#160;} &#160;&#160;</text>
<polygon fill="none" stroke="black" points="151.75,-1050.25 151.75,-1274.25 391.75,-1274.25 391.75,-1050.25 151.75,-1050.25"/>
</g>
<!-- determinedItem&#45;&gt;coverActive -->
<g id="edge4" class="edge">
<title>determinedItem&#45;&gt;coverActive</title>
<path fill="none" stroke="black" d="M73.96,-1511.63C76.36,-1493.13 80.21,-1463.33 83.06,-1441.27"/>
<polygon fill="black" stroke="black" points="86.52,-1441.8 84.33,-1431.44 79.58,-1440.91 86.52,-1441.8"/>
<polygon fill="none" stroke="black" points="85.75,-1471.75 85.75,-1490.5 223.75,-1490.5 223.75,-1471.75 85.75,-1471.75"/>
<text text-anchor="start" x="103.75" y="-1479" font-family="Courier New" font-weight="bold" font-size="10.00" fill="blue">MOV(WSPRITE,WIP2)</text>
<polygon fill="none" stroke="black" points="85.75,-1451 85.75,-1469.75 223.75,-1469.75 223.75,-1451 85.75,-1451"/>
<text text-anchor="start" x="88.75" y="-1457.25" font-family="Courier New" font-size="10.00" fill="blue"> &#160;&#160;&#160;&#160;&#160;&#160;&#160;SHOW(WSPRITE);</text>
<polygon fill="none" stroke="black" points="82.75,-1448 82.75,-1493.5 226.75,-1493.5 226.75,-1448 82.75,-1448"/>
</g>
<!-- displaychest -->
<g id="node8" class="node">
<title>displaychest</title>
<polyline fill="none" stroke="darkred" points="185.25,-100.25 290.25,-100.25"/>
<text text-anchor="start" x="188.25" y="-107.45" font-family="Courier New" font-weight="bold" font-size="14.00">displaychest</text>
<path fill="none" stroke="darkred" d="M191.75,-97.25C191.75,-97.25 283.75,-97.25 283.75,-97.25 288.5,-97.25 293.25,-102 293.25,-106.75 293.25,-106.75 293.25,-116.25 293.25,-116.25 293.25,-121 288.5,-125.75 283.75,-125.75 283.75,-125.75 191.75,-125.75 191.75,-125.75 187,-125.75 182.25,-121 182.25,-116.25 182.25,-116.25 182.25,-106.75 182.25,-106.75 182.25,-102 187,-97.25 191.75,-97.25"/>
</g>
<!-- displaychest&#45;&gt;chestview -->
<g id="edge5" class="edge">
<title>displaychest&#45;&gt;chestview</title>
<path fill="none" stroke="black" d="M253.74,-93.34C266.56,-79.57 284.74,-60.05 299.23,-44.5"/>
<polygon fill="black" stroke="black" points="301.55,-47.15 305.8,-37.44 296.43,-42.38 301.55,-47.15"/>
<text text-anchor="start" x="292.75" y="-62.75" font-family="Courier New" font-weight="bold" font-size="10.00" fill="orange">CLICK(,)</text>
</g>
<!-- thirdWhack -->
<g id="node12" class="node">
<title>thirdWhack</title>
<polyline fill="none" stroke="darkred" points="108.5,-659 197,-659"/>
<text text-anchor="start" x="111.5" y="-666.2" font-family="Courier New" font-weight="bold" font-size="14.00">thirdWhack</text>
<path fill="none" stroke="darkred" d="M115,-656C115,-656 190.5,-656 190.5,-656 195.25,-656 200,-660.75 200,-665.5 200,-665.5 200,-675 200,-675 200,-679.75 195.25,-684.5 190.5,-684.5 190.5,-684.5 115,-684.5 115,-684.5 110.25,-684.5 105.5,-679.75 105.5,-675 105.5,-675 105.5,-665.5 105.5,-665.5 105.5,-660.75 110.25,-656 115,-656"/>
</g>
<!-- secondWhack&#45;&gt;thirdWhack -->
<g id="edge10" class="edge">
<title>secondWhack&#45;&gt;thirdWhack</title>
<path fill="none" stroke="black" d="M151.8,-972.27C151.97,-920.38 152.46,-764.34 152.66,-699.74"/>
<polygon fill="black" stroke="black" points="156.16,-699.96 152.69,-689.95 149.16,-699.94 156.16,-699.96"/>
<polygon fill="none" stroke="black" points="155.75,-908.75 155.75,-927.5 389.75,-927.5 389.75,-908.75 155.75,-908.75"/>
<text text-anchor="start" x="239.75" y="-916" font-family="Courier New" font-weight="bold" font-size="10.00" fill="orange">DRAG(WIP3,)</text>
<polygon fill="none" stroke="black" points="155.75,-709.5 155.75,-906.75 389.75,-906.75 389.75,-709.5 155.75,-709.5"/>
<text text-anchor="start" x="158.75" y="-894.25" font-family="Courier New" font-size="10.00" fill="blue"> &#160;&#160;&#160;&#160;&#160;&#160;&#160;if(WIP3 == ISA_TOOL_DIGGER){</text>
<text text-anchor="start" x="158.75" y="-881.5" font-family="Courier New" font-size="10.00" fill="blue"> &#160;&#160;&#160;&#160;&#160;&#160;&#160;&#160;&#160;&#160;&#160;SHOW(0,IDS_SANDPILE2);</text>
<text text-anchor="start" x="158.75" y="-868.75" font-family="Courier New" font-size="10.00" fill="blue"> &#160;&#160;&#160;&#160;&#160;&#160;&#160;&#160;&#160;&#160;&#160;ANIMATE();</text>
<text text-anchor="start" x="158.75" y="-856" font-family="Courier New" font-size="10.00" fill="blue"> &#160;&#160;&#160;&#160;&#160;&#160;&#160;&#160;&#160;&#160;&#160;PLAYWAVE(SOUND_DIG);</text>
<text text-anchor="start" x="158.75" y="-843.25" font-family="Courier New" font-size="10.00" fill="blue"> &#160;&#160;&#160;&#160;&#160;&#160;&#160;&#160;} &#160;&#160;</text>
<text text-anchor="start" x="158.75" y="-830.5" font-family="Courier New" font-size="10.00" fill="blue"> &#160;&#160;&#160;&#160;&#160;&#160;&#160;&#160;if(WIP3 == ISA_TOOL_STRIKER){</text>
<text text-anchor="start" x="158.75" y="-817.75" font-family="Courier New" font-size="10.00" fill="blue"> &#160;&#160;&#160;&#160;&#160;&#160;&#160;&#160;&#160;&#160;&#160;SHOW(0,IDS_SANDSTRIKE);</text>
<text text-anchor="start" x="158.75" y="-805" font-family="Courier New" font-size="10.00" fill="blue"> &#160;&#160;&#160;&#160;&#160;&#160;&#160;&#160;&#160;&#160;&#160;ANIMATE();</text>
<text text-anchor="start" x="158.75" y="-792.25" font-family="Courier New" font-size="10.00" fill="blue"> &#160;&#160;&#160;&#160;&#160;&#160;&#160;&#160;&#160;&#160;&#160;PLAYWAVE(SOUND_DIG);</text>
<text text-anchor="start" x="158.75" y="-779.5" font-family="Courier New" font-size="10.00" fill="blue"> &#160;&#160;&#160;&#160;&#160;&#160;&#160;&#160;} &#160;&#160;</text>
<text text-anchor="start" x="158.75" y="-766.75" font-family="Courier New" font-size="10.00" fill="blue"> &#160;&#160;&#160;&#160;&#160;&#160;&#160;&#160;&#160;&#160;if(WIP3 == ISA_TOOL_PRYER){</text>
<text text-anchor="start" x="158.75" y="-754" font-family="Courier New" font-size="10.00" fill="blue"> &#160;&#160;&#160;&#160;&#160;&#160;&#160;&#160;&#160;&#160;&#160;SHOW(0,IDS_SANDFLIP);</text>
<text text-anchor="start" x="158.75" y="-741.25" font-family="Courier New" font-size="10.00" fill="blue"> &#160;&#160;&#160;&#160;&#160;&#160;&#160;&#160;&#160;&#160;&#160;ANIMATE();</text>
<text text-anchor="start" x="158.75" y="-728.5" font-family="Courier New" font-size="10.00" fill="blue"> &#160;&#160;&#160;&#160;&#160;&#160;&#160;&#160;&#160;&#160;&#160;PLAYWAVE(SOUND_THUMP);</text>
<text text-anchor="start" x="158.75" y="-715.75" font-family="Courier New" font-size="10.00" fill="blue"> &#160;&#160;&#160;&#160;&#160;&#160;&#160;&#160;} &#160;&#160;</text>
<polygon fill="none" stroke="black" points="152.75,-706.5 152.75,-930.5 392.75,-930.5 392.75,-706.5 152.75,-706.5"/>
</g>
<!-- fourthWhack -->
<g id="node10" class="node">
<title>fourthWhack</title>
<polyline fill="none" stroke="darkred" points="105.38,-362.5 202.12,-362.5"/>
<text text-anchor="start" x="108.38" y="-369.7" font-family="Courier New" font-weight="bold" font-size="14.00">fourthWhack</text>
<path fill="none" stroke="darkred" d="M111.88,-359.5C111.88,-359.5 195.62,-359.5 195.62,-359.5 200.38,-359.5 205.12,-364.25 205.12,-369 205.12,-369 205.12,-378.5 205.12,-378.5 205.12,-383.25 200.38,-388 195.62,-388 195.62,-388 111.88,-388 111.88,-388 107.12,-388 102.38,-383.25 102.38,-378.5 102.38,-378.5 102.38,-369 102.38,-369 102.38,-364.25 107.12,-359.5 111.88,-359.5"/>
</g>
<!-- moveMe -->
<g id="node11" class="node">
<title>moveMe</title>
<polyline fill="none" stroke="darkred" points="130,-269.25 185.5,-269.25"/>
<text text-anchor="start" x="133" y="-276.45" font-family="Courier New" font-weight="bold" font-size="14.00">moveMe</text>
<path fill="none" stroke="darkred" d="M136.5,-266.25C136.5,-266.25 179,-266.25 179,-266.25 183.75,-266.25 188.5,-271 188.5,-275.75 188.5,-275.75 188.5,-285.25 188.5,-285.25 188.5,-290 183.75,-294.75 179,-294.75 179,-294.75 136.5,-294.75 136.5,-294.75 131.75,-294.75 127,-290 127,-285.25 127,-285.25 127,-275.75 127,-275.75 127,-271 131.75,-266.25 136.5,-266.25"/>
</g>
<!-- fourthWhack&#45;&gt;moveMe -->
<g id="edge8" class="edge">
<title>fourthWhack&#45;&gt;moveMe</title>
<path fill="none" stroke="black" d="M154.5,-355.59C155.07,-342.71 155.85,-324.81 156.51,-309.82"/>
<polygon fill="black" stroke="black" points="159.99,-310.24 156.93,-300.1 153,-309.94 159.99,-310.24"/>
<text text-anchor="start" x="160.75" y="-325" font-family="Courier New" font-weight="bold" font-size="10.00" fill="orange">DRAG(WIP3,)</text>
</g>
<!-- moveMe&#45;&gt;displaychest -->
<g id="edge9" class="edge">
<title>moveMe&#45;&gt;displaychest</title>
<path fill="none" stroke="black" d="M152.66,-262.45C145.73,-235.61 136.66,-182.94 159.75,-147.75 162.58,-143.44 166.07,-139.65 170,-136.32"/>
<polygon fill="black" stroke="black" points="171.87,-139.29 177.97,-130.62 167.8,-133.59 171.87,-139.29"/>
<polygon fill="none" stroke="black" points="162.75,-222.5 162.75,-241.25 390.75,-241.25 390.75,-222.5 162.75,-222.5"/>
<text text-anchor="start" x="219.75" y="-229.75" font-family="Courier New" font-weight="bold" font-size="10.00" fill="blue">SET_XOFFSET(ADD,10)</text>
<polygon fill="none" stroke="black" points="162.75,-150.75 162.75,-220.5 390.75,-220.5 390.75,-150.75 162.75,-150.75"/>
<text text-anchor="start" x="165.75" y="-208" font-family="Courier New" font-size="10.00" fill="blue"> &#160;&#160;&#160;&#160;&#160;PLAYWAVE(SOUND_CHIMES);</text>
<text text-anchor="start" x="165.75" y="-195.25" font-family="Courier New" font-size="10.00" fill="blue"> &#160;&#160;&#160;&#160;&#160;SHOW(0,IDS_CHESTBAK);</text>
<text text-anchor="start" x="165.75" y="-182.5" font-family="Courier New" font-size="10.00" fill="blue"> &#160;&#160;&#160;&#160;&#160;SIGNALi(WIP4,S00_HIDERCURRENT);</text>
<text text-anchor="start" x="165.75" y="-169.75" font-family="Courier New" font-size="10.00" fill="blue"> &#160;&#160;&#160;&#160;&#160;ADDI(LWISDOM,1); </text>
<text text-anchor="start" x="165.75" y="-157" font-family="Courier New" font-size="10.00" fill="blue"> &#160;&#160;&#160;&#160;&#160;SIGNALi(0,SID_ID);</text>
<polygon fill="none" stroke="black" points="159.75,-147.75 159.75,-244.25 393.75,-244.25 393.75,-147.75 159.75,-147.75"/>
</g>
<!-- thirdWhack&#45;&gt;fourthWhack -->
<g id="edge11" class="edge">
<title>thirdWhack&#45;&gt;fourthWhack</title>
<path fill="none" stroke="black" d="M152.81,-652.14C152.97,-603.45 153.45,-463.7 153.65,-403.22"/>
<polygon fill="black" stroke="black" points="157.15,-403.43 153.69,-393.42 150.15,-403.41 157.15,-403.43"/>
<polygon fill="none" stroke="black" points="156.75,-612.25 156.75,-631 390.75,-631 390.75,-612.25 156.75,-612.25"/>
<text text-anchor="start" x="240.75" y="-619.5" font-family="Courier New" font-weight="bold" font-size="10.00" fill="orange">DRAG(WIP3,)</text>
<polygon fill="none" stroke="black" points="156.75,-413 156.75,-610.25 390.75,-610.25 390.75,-413 156.75,-413"/>
<text text-anchor="start" x="159.75" y="-597.75" font-family="Courier New" font-size="10.00" fill="blue"> &#160;&#160;&#160;&#160;&#160;&#160;&#160;if(WIP3 == ISA_TOOL_DIGGER){</text>
<text text-anchor="start" x="159.75" y="-585" font-family="Courier New" font-size="10.00" fill="blue"> &#160;&#160;&#160;&#160;&#160;&#160;&#160;&#160;&#160;&#160;&#160;SHOW(0,IDS_SANDPILE3);</text>
<text text-anchor="start" x="159.75" y="-572.25" font-family="Courier New" font-size="10.00" fill="blue"> &#160;&#160;&#160;&#160;&#160;&#160;&#160;&#160;&#160;&#160;&#160;ANIMATE();</text>
<text text-anchor="start" x="159.75" y="-559.5" font-family="Courier New" font-size="10.00" fill="blue"> &#160;&#160;&#160;&#160;&#160;&#160;&#160;&#160;&#160;&#160;&#160;PLAYWAVE(SOUND_DIG);</text>
<text text-anchor="start" x="159.75" y="-546.75" font-family="Courier New" font-size="10.00" fill="blue"> &#160;&#160;&#160;&#160;&#160;&#160;&#160;&#160;} &#160;&#160;</text>
<text text-anchor="start" x="159.75" y="-534" font-family="Courier New" font-size="10.00" fill="blue"> &#160;&#160;&#160;&#160;&#160;&#160;&#160;&#160;if(WIP3 == ISA_TOOL_STRIKER){</text>
<text text-anchor="start" x="159.75" y="-521.25" font-family="Courier New" font-size="10.00" fill="blue"> &#160;&#160;&#160;&#160;&#160;&#160;&#160;&#160;&#160;&#160;&#160;SHOW(0,IDS_SANDSTRIKE);</text>
<text text-anchor="start" x="159.75" y="-508.5" font-family="Courier New" font-size="10.00" fill="blue"> &#160;&#160;&#160;&#160;&#160;&#160;&#160;&#160;&#160;&#160;&#160;ANIMATE();</text>
<text text-anchor="start" x="159.75" y="-495.75" font-family="Courier New" font-size="10.00" fill="blue"> &#160;&#160;&#160;&#160;&#160;&#160;&#160;&#160;&#160;&#160;&#160;PLAYWAVE(SOUND_DIG);</text>
<text text-anchor="start" x="159.75" y="-483" font-family="Courier New" font-size="10.00" fill="blue"> &#160;&#160;&#160;&#160;&#160;&#160;&#160;&#160;} &#160;&#160;</text>
<text text-anchor="start" x="159.75" y="-470.25" font-family="Courier New" font-size="10.00" fill="blue"> &#160;&#160;&#160;&#160;&#160;&#160;&#160;&#160;&#160;&#160;if(WIP3 == ISA_TOOL_PRYER){</text>
<text text-anchor="start" x="159.75" y="-457.5" font-family="Courier New" font-size="10.00" fill="blue"> &#160;&#160;&#160;&#160;&#160;&#160;&#160;&#160;&#160;&#160;&#160;SHOW(0,IDS_SANDFLIP);</text>
<text text-anchor="start" x="159.75" y="-444.75" font-family="Courier New" font-size="10.00" fill="blue"> &#160;&#160;&#160;&#160;&#160;&#160;&#160;&#160;&#160;&#160;&#160;ANIMATE();</text>
<text text-anchor="start" x="159.75" y="-432" font-family="Courier New" font-size="10.00" fill="blue"> &#160;&#160;&#160;&#160;&#160;&#160;&#160;&#160;&#160;&#160;&#160;PLAYWAVE(SOUND_THUMP);</text>
<text text-anchor="start" x="159.75" y="-419.25" font-family="Courier New" font-size="10.00" fill="blue"> &#160;&#160;&#160;&#160;&#160;&#160;&#160;&#160;} &#160;&#160;</text>
<polygon fill="none" stroke="black" points="153.75,-410 153.75,-634 393.75,-634 393.75,-410 153.75,-410"/>
</g>
<!-- status -->
<g id="node13" class="node">
<title>status</title>
<polygon fill="none" stroke="black" points="339.75,-1773.5 339.75,-1852.5 985.75,-1852.5 985.75,-1773.5 339.75,-1773.5"/>
<polygon fill="none" stroke="black" points="350.75,-1826.75 350.75,-1845.5 974.75,-1845.5 974.75,-1826.75 350.75,-1826.75"/>
<text text-anchor="start" x="626.75" y="-1834" font-family="Courier New" font-weight="bold" font-size="10.00">S00_HIDDEN_1</text>
<polygon fill="none" stroke="black" points="350.75,-1780.5 350.75,-1824.75 974.75,-1824.75 974.75,-1780.5 350.75,-1780.5"/>
<text text-anchor="start" x="353.75" y="-1812.25" font-family="Courier New" font-size="10.00" fill="green">VIEW::IDV_PATH2 @pos(x:2348, y:179, w:100, h:100)</text>
<text text-anchor="start" x="353.75" y="-1799.5" font-family="Courier New" font-size="10.00" fill="green">S00_HIDDEN_1::M_DIGGABLE(&#39;IDV_CU_GRASSPATCH1&#39;,&#39;IDS_SANDDIRTGRS&#39;,&#39;ISA_TOOL_DIGGER&#39;,&#39;S00_HIDDEN_1&#39;,&#39;&#39;,&#39;&#39;)</text>
<text text-anchor="start" x="353.75" y="-1786.75" font-family="Courier New" font-size="10.00" fill="green">{state:&#39;firstWhack&#39;: wObject:IDD_POTTALIS1 wSprite:IDS_SANDDIRTGRS Top:179 Left:2348</text>
<polygon fill="none" stroke="black" points="347.75,-1777.5 347.75,-1848.5 977.75,-1848.5 977.75,-1777.5 347.75,-1777.5"/>
</g>
</g>
</svg>
