<?xml version="1.0" encoding="UTF-8" standalone="no"?>
<!DOCTYPE svg PUBLIC "-//W3C//DTD SVG 1.1//EN"
 "http://www.w3.org/Graphics/SVG/1.1/DTD/svg11.dtd">
<!-- Generated by graphviz version 10.0.1 (20240210.2158)
 -->
<!-- Title: Automaton Pages: 1 -->
<svg width="5060pt" height="350pt"
 viewBox="0.00 0.00 5059.67 349.50" xmlns="http://www.w3.org/2000/svg" xmlns:xlink="http://www.w3.org/1999/xlink">
<g id="graph0" class="graph" transform="scale(1 1) rotate(0) translate(4 345.5)">
<title>Automaton</title>
<polygon fill="white" stroke="none" points="-4,4 -4,-345.5 5055.67,-345.5 5055.67,4 -4,4"/>
<!-- filename -->
<g id="node1" class="node">
<title>filename</title>
<polygon fill="none" stroke="black" points="2284.67,-274.75 2284.67,-328.25 2498.67,-328.25 2498.67,-274.75 2284.67,-274.75"/>
<polygon fill="none" stroke="black" points="2295.67,-302.5 2295.67,-321.25 2487.67,-321.25 2487.67,-302.5 2295.67,-302.5"/>
<text text-anchor="start" x="2298.67" y="-309.75" font-family="Courier New" font-weight="bold" font-size="10.00">S00_HIDERCURRENT::M_HIDECURRENT</text>
<polygon fill="none" stroke="black" points="2295.67,-281.75 2295.67,-300.5 2487.67,-300.5 2487.67,-281.75 2295.67,-281.75"/>
<text text-anchor="start" x="2346.67" y="-288" font-family="Courier New" font-size="10.00" fill="brown">start state = 0</text>
<polygon fill="none" stroke="black" points="2292.67,-278.75 2292.67,-324.25 2490.67,-324.25 2490.67,-278.75 2292.67,-278.75"/>
</g>
<!-- 0 -->
<g id="node2" class="node">
<title>0</title>
<polyline fill="none" stroke="darkred" stroke-width="3" points="2536.05,-289.75 2551.3,-289.75"/>
<text text-anchor="start" x="2539.55" y="-297.45" font-family="Courier New" font-weight="bold" font-size="14.00">0</text>
<path fill="none" stroke="darkred" stroke-width="3" d="M2539.46,-284.75C2539.46,-284.75 2547.88,-284.75 2547.88,-284.75 2552.09,-284.75 2556.3,-288.96 2556.3,-293.17 2556.3,-293.17 2556.3,-309.83 2556.3,-309.83 2556.3,-314.04 2552.09,-318.25 2547.88,-318.25 2547.88,-318.25 2539.46,-318.25 2539.46,-318.25 2535.25,-318.25 2531.05,-314.04 2531.05,-309.83 2531.05,-309.83 2531.05,-293.17 2531.05,-293.17 2531.05,-288.96 2535.25,-284.75 2539.46,-284.75"/>
</g>
<!-- holdItem -->
<g id="node3" class="node">
<title>holdItem</title>
<polyline fill="none" stroke="darkred" points="2507.67,-150.5 2579.67,-150.5"/>
<text text-anchor="start" x="2510.67" y="-157.7" font-family="Courier New" font-weight="bold" font-size="14.00">holdItem</text>
<path fill="none" stroke="darkred" d="M2514.17,-147.5C2514.17,-147.5 2573.17,-147.5 2573.17,-147.5 2577.92,-147.5 2582.67,-152.25 2582.67,-157 2582.67,-157 2582.67,-166.5 2582.67,-166.5 2582.67,-171.25 2577.92,-176 2573.17,-176 2573.17,-176 2514.17,-176 2514.17,-176 2509.42,-176 2504.67,-171.25 2504.67,-166.5 2504.67,-166.5 2504.67,-157 2504.67,-157 2504.67,-152.25 2509.42,-147.5 2514.17,-147.5"/>
</g>
<!-- 0&#45;&gt;holdItem -->
<g id="edge1" class="edge">
<title>0&#45;&gt;holdItem</title>
<path fill="none" stroke="black" d="M2529.59,-279.27C2523.73,-272.26 2516.27,-265.3 2507.67,-261.5 2475.95,-247.48 35.11,-268.11 10.67,-243.5 -3.58,-229.15 -3.53,-212.4 10.67,-198 33.13,-175.22 2109.09,-164.72 2485.49,-163.01"/>
<polygon fill="black" stroke="black" points="2485.39,-166.51 2495.38,-162.96 2485.36,-159.51 2485.39,-166.51"/>
<polygon fill="none" stroke="black" points="13.67,-221.75 13.67,-240.5 151.67,-240.5 151.67,-221.75 13.67,-221.75"/>
<text text-anchor="start" x="22.67" y="-229" font-family="Courier New" font-weight="bold" font-size="10.00" fill="orange">WAIT(,S21_HIDDEN_01)</text>
<polygon fill="none" stroke="black" points="13.67,-201 13.67,-219.75 151.67,-219.75 151.67,-201 13.67,-201"/>
<text text-anchor="start" x="16.67" y="-207.25" font-family="Courier New" font-size="10.00" fill="blue">BPARM = S21_HIDDEN_01;</text>
<polygon fill="none" stroke="black" points="10.67,-198 10.67,-243.5 154.67,-243.5 154.67,-198 10.67,-198"/>
</g>
<!-- 0&#45;&gt;holdItem -->
<g id="edge2" class="edge">
<title>0&#45;&gt;holdItem</title>
<path fill="none" stroke="black" d="M2529.59,-279.27C2523.73,-272.27 2516.27,-265.3 2507.67,-261.5 2478.08,-248.41 200.47,-266.47 177.67,-243.5 163.43,-229.15 163.48,-212.41 177.67,-198 198.57,-176.79 2123.49,-165.08 2485.38,-163.06"/>
<polygon fill="black" stroke="black" points="2485.36,-166.56 2495.34,-163.01 2485.32,-159.56 2485.36,-166.56"/>
<polygon fill="none" stroke="black" points="180.67,-221.75 180.67,-240.5 312.67,-240.5 312.67,-221.75 180.67,-221.75"/>
<text text-anchor="start" x="189.67" y="-229" font-family="Courier New" font-weight="bold" font-size="10.00" fill="orange">WAIT(,S00_HIDDEN_1)</text>
<polygon fill="none" stroke="black" points="180.67,-201 180.67,-219.75 312.67,-219.75 312.67,-201 180.67,-201"/>
<text text-anchor="start" x="183.67" y="-207.25" font-family="Courier New" font-size="10.00" fill="blue">BPARM = S00_HIDDEN_1;</text>
<polygon fill="none" stroke="black" points="177.67,-198 177.67,-243.5 315.67,-243.5 315.67,-198 177.67,-198"/>
</g>
<!-- 0&#45;&gt;holdItem -->
<g id="edge3" class="edge">
<title>0&#45;&gt;holdItem</title>
<path fill="none" stroke="black" d="M2529.59,-279.27C2523.73,-272.27 2516.26,-265.31 2507.67,-261.5 2480.12,-249.3 359.88,-264.89 338.67,-243.5 324.43,-229.14 324.49,-212.41 338.67,-198 377.42,-158.62 2139.81,-161.6 2485.28,-162.56"/>
<polygon fill="black" stroke="black" points="2485.2,-166.06 2495.21,-162.59 2485.22,-159.06 2485.2,-166.06"/>
<polygon fill="none" stroke="black" points="341.67,-221.75 341.67,-240.5 473.67,-240.5 473.67,-221.75 341.67,-221.75"/>
<text text-anchor="start" x="350.67" y="-229" font-family="Courier New" font-weight="bold" font-size="10.00" fill="orange">WAIT(,S00_HIDDEN_2)</text>
<polygon fill="none" stroke="black" points="341.67,-201 341.67,-219.75 473.67,-219.75 473.67,-201 341.67,-201"/>
<text text-anchor="start" x="344.67" y="-207.25" font-family="Courier New" font-size="10.00" fill="blue">BPARM = S00_HIDDEN_2;</text>
<polygon fill="none" stroke="black" points="338.67,-198 338.67,-243.5 476.67,-243.5 476.67,-198 338.67,-198"/>
</g>
<!-- 0&#45;&gt;holdItem -->
<g id="edge4" class="edge">
<title>0&#45;&gt;holdItem</title>
<path fill="none" stroke="black" d="M2529.59,-279.27C2523.72,-272.27 2516.26,-265.31 2507.67,-261.5 2456.67,-238.9 538.94,-283.12 499.67,-243.5 485.44,-229.14 485.5,-212.42 499.67,-198 535.44,-161.61 2157.15,-162.16 2485.91,-162.64"/>
<polygon fill="black" stroke="black" points="2485.53,-166.14 2495.54,-162.66 2485.54,-159.14 2485.53,-166.14"/>
<polygon fill="none" stroke="black" points="502.67,-221.75 502.67,-240.5 634.67,-240.5 634.67,-221.75 502.67,-221.75"/>
<text text-anchor="start" x="511.67" y="-229" font-family="Courier New" font-weight="bold" font-size="10.00" fill="orange">WAIT(,S00_HIDDEN_3)</text>
<polygon fill="none" stroke="black" points="502.67,-201 502.67,-219.75 634.67,-219.75 634.67,-201 502.67,-201"/>
<text text-anchor="start" x="505.67" y="-207.25" font-family="Courier New" font-size="10.00" fill="blue">BPARM = S00_HIDDEN_3;</text>
<polygon fill="none" stroke="black" points="499.67,-198 499.67,-243.5 637.67,-243.5 637.67,-198 499.67,-198"/>
</g>
<!-- 0&#45;&gt;holdItem -->
<g id="edge5" class="edge">
<title>0&#45;&gt;holdItem</title>
<path fill="none" stroke="black" d="M2529.59,-279.28C2523.72,-272.28 2516.26,-265.31 2507.67,-261.5 2460.77,-240.69 696.77,-279.96 660.67,-243.5 646.44,-229.13 646.51,-212.43 660.67,-198 693.44,-164.61 2173.31,-162.75 2486.02,-162.73"/>
<polygon fill="black" stroke="black" points="2485.56,-166.23 2495.56,-162.73 2485.56,-159.23 2485.56,-166.23"/>
<polygon fill="none" stroke="black" points="663.67,-221.75 663.67,-240.5 795.67,-240.5 795.67,-221.75 663.67,-221.75"/>
<text text-anchor="start" x="672.67" y="-229" font-family="Courier New" font-weight="bold" font-size="10.00" fill="orange">WAIT(,S00_HIDDEN_4)</text>
<polygon fill="none" stroke="black" points="663.67,-201 663.67,-219.75 795.67,-219.75 795.67,-201 663.67,-201"/>
<text text-anchor="start" x="666.67" y="-207.25" font-family="Courier New" font-size="10.00" fill="blue">BPARM = S00_HIDDEN_4;</text>
<polygon fill="none" stroke="black" points="660.67,-198 660.67,-243.5 798.67,-243.5 798.67,-198 660.67,-198"/>
</g>
<!-- 0&#45;&gt;holdItem -->
<g id="edge6" class="edge">
<title>0&#45;&gt;holdItem</title>
<path fill="none" stroke="black" d="M2529.59,-279.28C2523.72,-272.28 2516.26,-265.32 2507.67,-261.5 2464.87,-242.49 854.61,-276.79 821.67,-243.5 807.45,-229.12 807.52,-212.44 821.67,-198 851.42,-167.64 2187.77,-163.4 2485.35,-162.83"/>
<polygon fill="black" stroke="black" points="2485.21,-166.33 2495.2,-162.82 2485.19,-159.33 2485.21,-166.33"/>
<polygon fill="none" stroke="black" points="824.67,-221.75 824.67,-240.5 956.67,-240.5 956.67,-221.75 824.67,-221.75"/>
<text text-anchor="start" x="833.67" y="-229" font-family="Courier New" font-weight="bold" font-size="10.00" fill="orange">WAIT(,S00_HIDDEN_5)</text>
<polygon fill="none" stroke="black" points="824.67,-201 824.67,-219.75 956.67,-219.75 956.67,-201 824.67,-201"/>
<text text-anchor="start" x="827.67" y="-207.25" font-family="Courier New" font-size="10.00" fill="blue">BPARM = S00_HIDDEN_5;</text>
<polygon fill="none" stroke="black" points="821.67,-198 821.67,-243.5 959.67,-243.5 959.67,-198 821.67,-198"/>
</g>
<!-- 0&#45;&gt;holdItem -->
<g id="edge7" class="edge">
<title>0&#45;&gt;holdItem</title>
<path fill="none" stroke="black" d="M2529.58,-279.29C2523.72,-272.29 2516.26,-265.32 2507.67,-261.5 2468.96,-244.28 1012.45,-273.63 982.67,-243.5 968.46,-229.12 968.53,-212.46 982.67,-198 1009.44,-170.62 2205.56,-164.11 2485.5,-162.96"/>
<polygon fill="black" stroke="black" points="2485.49,-166.46 2495.48,-162.92 2485.46,-159.46 2485.49,-166.46"/>
<polygon fill="none" stroke="black" points="985.67,-221.75 985.67,-240.5 1117.67,-240.5 1117.67,-221.75 985.67,-221.75"/>
<text text-anchor="start" x="994.67" y="-229" font-family="Courier New" font-weight="bold" font-size="10.00" fill="orange">WAIT(,S00_HIDDEN_6)</text>
<polygon fill="none" stroke="black" points="985.67,-201 985.67,-219.75 1117.67,-219.75 1117.67,-201 985.67,-201"/>
<text text-anchor="start" x="988.67" y="-207.25" font-family="Courier New" font-size="10.00" fill="blue">BPARM = S00_HIDDEN_6;</text>
<polygon fill="none" stroke="black" points="982.67,-198 982.67,-243.5 1120.67,-243.5 1120.67,-198 982.67,-198"/>
</g>
<!-- 0&#45;&gt;holdItem -->
<g id="edge8" class="edge">
<title>0&#45;&gt;holdItem</title>
<path fill="none" stroke="black" d="M2529.58,-279.29C2523.71,-272.29 2516.26,-265.33 2507.67,-261.5 2473.06,-246.07 1170.29,-270.47 1143.67,-243.5 1129.47,-229.11 1129.55,-212.48 1143.67,-198 1167.47,-173.6 2224.22,-164.9 2485.65,-163.12"/>
<polygon fill="black" stroke="black" points="2485.28,-166.62 2495.26,-163.05 2485.24,-159.62 2485.28,-166.62"/>
<polygon fill="none" stroke="black" points="1146.67,-221.75 1146.67,-240.5 1278.67,-240.5 1278.67,-221.75 1146.67,-221.75"/>
<text text-anchor="start" x="1155.67" y="-229" font-family="Courier New" font-weight="bold" font-size="10.00" fill="orange">WAIT(,S00_HIDDEN_7)</text>
<polygon fill="none" stroke="black" points="1146.67,-201 1146.67,-219.75 1278.67,-219.75 1278.67,-201 1146.67,-201"/>
<text text-anchor="start" x="1149.67" y="-207.25" font-family="Courier New" font-size="10.00" fill="blue">BPARM = S00_HIDDEN_7;</text>
<polygon fill="none" stroke="black" points="1143.67,-198 1143.67,-243.5 1281.67,-243.5 1281.67,-198 1143.67,-198"/>
</g>
<!-- 0&#45;&gt;holdItem -->
<g id="edge9" class="edge">
<title>0&#45;&gt;holdItem</title>
<path fill="none" stroke="black" d="M2529.58,-279.3C2523.71,-272.3 2516.25,-265.33 2507.67,-261.5 2477.16,-247.87 1328.13,-267.31 1304.67,-243.5 1290.48,-229.09 1290.58,-212.5 1304.67,-198 1325.49,-176.58 2242.87,-165.79 2485.38,-163.31"/>
<polygon fill="black" stroke="black" points="2485.27,-166.81 2495.23,-163.21 2485.2,-159.82 2485.27,-166.81"/>
<polygon fill="none" stroke="black" points="1307.67,-221.75 1307.67,-240.5 1439.67,-240.5 1439.67,-221.75 1307.67,-221.75"/>
<text text-anchor="start" x="1316.67" y="-229" font-family="Courier New" font-weight="bold" font-size="10.00" fill="orange">WAIT(,S00_HIDDEN_8)</text>
<polygon fill="none" stroke="black" points="1307.67,-201 1307.67,-219.75 1439.67,-219.75 1439.67,-201 1307.67,-201"/>
<text text-anchor="start" x="1310.67" y="-207.25" font-family="Courier New" font-size="10.00" fill="blue">BPARM = S00_HIDDEN_8;</text>
<polygon fill="none" stroke="black" points="1304.67,-198 1304.67,-243.5 1442.67,-243.5 1442.67,-198 1304.67,-198"/>
</g>
<!-- 0&#45;&gt;holdItem -->
<g id="edge10" class="edge">
<title>0&#45;&gt;holdItem</title>
<path fill="none" stroke="black" d="M2529.57,-279.31C2523.7,-272.32 2516.25,-265.34 2507.67,-261.5 2454.84,-237.82 1506.26,-284.79 1465.67,-243.5 1451.5,-229.08 1451.61,-212.53 1465.67,-198 1501.35,-161.13 2266.3,-161.56 2485.47,-162.44"/>
<polygon fill="black" stroke="black" points="2485.17,-165.94 2495.19,-162.48 2485.2,-158.94 2485.17,-165.94"/>
<polygon fill="none" stroke="black" points="1468.67,-221.75 1468.67,-240.5 1600.67,-240.5 1600.67,-221.75 1468.67,-221.75"/>
<text text-anchor="start" x="1477.67" y="-229" font-family="Courier New" font-weight="bold" font-size="10.00" fill="orange">WAIT(,S00_HIDDEN_9)</text>
<polygon fill="none" stroke="black" points="1468.67,-201 1468.67,-219.75 1600.67,-219.75 1600.67,-201 1468.67,-201"/>
<text text-anchor="start" x="1471.67" y="-207.25" font-family="Courier New" font-size="10.00" fill="blue">BPARM = S00_HIDDEN_9;</text>
<polygon fill="none" stroke="black" points="1465.67,-198 1465.67,-243.5 1603.67,-243.5 1603.67,-198 1465.67,-198"/>
</g>
<!-- 0&#45;&gt;holdItem -->
<g id="edge11" class="edge">
<title>0&#45;&gt;holdItem</title>
<path fill="none" stroke="black" d="M2529.57,-279.33C2523.7,-272.33 2516.24,-265.36 2507.67,-261.5 2463.03,-241.41 1660.93,-278.47 1626.67,-243.5 1612.52,-229.06 1612.65,-212.57 1626.67,-198 1656.49,-167.01 2288.51,-163.22 2485.55,-162.79"/>
<polygon fill="black" stroke="black" points="2485.29,-166.29 2495.28,-162.77 2485.28,-159.29 2485.29,-166.29"/>
<polygon fill="none" stroke="black" points="1629.67,-221.75 1629.67,-240.5 1767.67,-240.5 1767.67,-221.75 1629.67,-221.75"/>
<text text-anchor="start" x="1638.67" y="-229" font-family="Courier New" font-weight="bold" font-size="10.00" fill="orange">WAIT(,S00_HIDDEN_10)</text>
<polygon fill="none" stroke="black" points="1629.67,-201 1629.67,-219.75 1767.67,-219.75 1767.67,-201 1629.67,-201"/>
<text text-anchor="start" x="1632.67" y="-207.25" font-family="Courier New" font-size="10.00" fill="blue">BPARM = S00_HIDDEN_10;</text>
<polygon fill="none" stroke="black" points="1626.67,-198 1626.67,-243.5 1770.67,-243.5 1770.67,-198 1626.67,-198"/>
</g>
<!-- 0&#45;&gt;holdItem -->
<g id="edge12" class="edge">
<title>0&#45;&gt;holdItem</title>
<path fill="none" stroke="black" d="M2529.56,-279.35C2523.69,-272.36 2516.23,-265.38 2507.67,-261.5 2471.53,-245.13 1821.37,-271.91 1793.67,-243.5 1779.55,-229.02 1779.71,-212.63 1793.67,-198 1817.45,-173.08 2313.36,-165.28 2485.46,-163.32"/>
<polygon fill="black" stroke="black" points="2485.32,-166.82 2495.28,-163.21 2485.25,-159.82 2485.32,-166.82"/>
<polygon fill="none" stroke="black" points="1796.67,-221.75 1796.67,-240.5 1934.67,-240.5 1934.67,-221.75 1796.67,-221.75"/>
<text text-anchor="start" x="1805.67" y="-229" font-family="Courier New" font-weight="bold" font-size="10.00" fill="orange">WAIT(,S00_HIDDEN_11)</text>
<polygon fill="none" stroke="black" points="1796.67,-201 1796.67,-219.75 1934.67,-219.75 1934.67,-201 1796.67,-201"/>
<text text-anchor="start" x="1799.67" y="-207.25" font-family="Courier New" font-size="10.00" fill="blue">BPARM = S00_HIDDEN_11;</text>
<polygon fill="none" stroke="black" points="1793.67,-198 1793.67,-243.5 1937.67,-243.5 1937.67,-198 1793.67,-198"/>
</g>
<!-- 0&#45;&gt;holdItem -->
<g id="edge13" class="edge">
<title>0&#45;&gt;holdItem</title>
<path fill="none" stroke="black" d="M2529.54,-279.39C2523.67,-272.4 2516.22,-265.41 2507.67,-261.5 2480.02,-248.85 1981.81,-265.35 1960.67,-243.5 1946.61,-228.97 1946.81,-212.72 1960.67,-198 1978.48,-179.09 2341.44,-167.86 2485.49,-164.14"/>
<polygon fill="black" stroke="black" points="2485.28,-167.65 2495.19,-163.89 2485.1,-160.65 2485.28,-167.65"/>
<polygon fill="none" stroke="black" points="1963.67,-221.75 1963.67,-240.5 2101.67,-240.5 2101.67,-221.75 1963.67,-221.75"/>
<text text-anchor="start" x="1972.67" y="-229" font-family="Courier New" font-weight="bold" font-size="10.00" fill="orange">WAIT(,S00_HIDDEN_12)</text>
<polygon fill="none" stroke="black" points="1963.67,-201 1963.67,-219.75 2101.67,-219.75 2101.67,-201 1963.67,-201"/>
<text text-anchor="start" x="1966.67" y="-207.25" font-family="Courier New" font-size="10.00" fill="blue">BPARM = S00_HIDDEN_12;</text>
<polygon fill="none" stroke="black" points="1960.67,-198 1960.67,-243.5 2104.67,-243.5 2104.67,-198 1960.67,-198"/>
</g>
<!-- 0&#45;&gt;holdItem -->
<g id="edge14" class="edge">
<title>0&#45;&gt;holdItem</title>
<path fill="none" stroke="black" d="M2529.51,-279.45C2523.63,-272.47 2516.19,-265.47 2507.67,-261.5 2469.36,-243.64 2156.84,-274.09 2127.67,-243.5 2113.71,-228.87 2113.99,-212.89 2127.67,-198 2151.39,-172.19 2376.81,-165.26 2485.55,-163.41"/>
<polygon fill="black" stroke="black" points="2485.5,-166.91 2495.44,-163.25 2485.39,-159.91 2485.5,-166.91"/>
<polygon fill="none" stroke="black" points="2130.67,-221.75 2130.67,-240.5 2268.67,-240.5 2268.67,-221.75 2130.67,-221.75"/>
<text text-anchor="start" x="2139.67" y="-229" font-family="Courier New" font-weight="bold" font-size="10.00" fill="orange">WAIT(,S00_HIDDEN_13)</text>
<polygon fill="none" stroke="black" points="2130.67,-201 2130.67,-219.75 2268.67,-219.75 2268.67,-201 2130.67,-201"/>
<text text-anchor="start" x="2133.67" y="-207.25" font-family="Courier New" font-size="10.00" fill="blue">BPARM = S00_HIDDEN_13;</text>
<polygon fill="none" stroke="black" points="2127.67,-198 2127.67,-243.5 2271.67,-243.5 2271.67,-198 2127.67,-198"/>
</g>
<!-- 0&#45;&gt;holdItem -->
<g id="edge15" class="edge">
<title>0&#45;&gt;holdItem</title>
<path fill="none" stroke="black" d="M2529.43,-279.62C2523.54,-272.66 2516.11,-265.63 2507.67,-261.5 2465,-240.63 2326.81,-278.47 2294.67,-243.5 2280.99,-228.61 2281.41,-213.27 2294.67,-198 2318.87,-170.13 2419.74,-163.7 2485.44,-162.54"/>
<polygon fill="black" stroke="black" points="2485.4,-166.04 2495.35,-162.41 2485.31,-159.04 2485.4,-166.04"/>
<polygon fill="none" stroke="black" points="2297.67,-221.75 2297.67,-240.5 2435.67,-240.5 2435.67,-221.75 2297.67,-221.75"/>
<text text-anchor="start" x="2306.67" y="-229" font-family="Courier New" font-weight="bold" font-size="10.00" fill="orange">WAIT(,S00_HIDDEN_14)</text>
<polygon fill="none" stroke="black" points="2297.67,-201 2297.67,-219.75 2435.67,-219.75 2435.67,-201 2297.67,-201"/>
<text text-anchor="start" x="2300.67" y="-207.25" font-family="Courier New" font-size="10.00" fill="blue">BPARM = S00_HIDDEN_14;</text>
<polygon fill="none" stroke="black" points="2294.67,-198 2294.67,-243.5 2438.67,-243.5 2438.67,-198 2294.67,-198"/>
</g>
<!-- 0&#45;&gt;holdItem -->
<g id="edge16" class="edge">
<title>0&#45;&gt;holdItem</title>
<path fill="none" stroke="black" d="M2527.26,-279.28C2521.58,-272.94 2514.82,-266.38 2507.67,-261.5 2489.54,-249.12 2474.05,-261.63 2461.67,-243.5 2450.27,-226.8 2450.55,-214.89 2461.67,-198 2467.68,-188.88 2476.6,-182.1 2486.37,-177.08"/>
<polygon fill="black" stroke="black" points="2487.68,-180.33 2495.39,-173.07 2484.83,-173.93 2487.68,-180.33"/>
<polygon fill="none" stroke="black" points="2464.67,-221.75 2464.67,-240.5 2602.67,-240.5 2602.67,-221.75 2464.67,-221.75"/>
<text text-anchor="start" x="2473.67" y="-229" font-family="Courier New" font-weight="bold" font-size="10.00" fill="orange">WAIT(,S00_HIDDEN_15)</text>
<polygon fill="none" stroke="black" points="2464.67,-201 2464.67,-219.75 2602.67,-219.75 2602.67,-201 2464.67,-201"/>
<text text-anchor="start" x="2467.67" y="-207.25" font-family="Courier New" font-size="10.00" fill="blue">BPARM = S00_HIDDEN_15;</text>
<polygon fill="none" stroke="black" points="2461.67,-198 2461.67,-243.5 2605.67,-243.5 2605.67,-198 2461.67,-198"/>
</g>
<!-- 0&#45;&gt;holdItem -->
<g id="edge17" class="edge">
<title>0&#45;&gt;holdItem</title>
<path fill="none" stroke="black" d="M2561.55,-279.43C2567.1,-273.38 2573.41,-266.94 2579.67,-261.5 2590.28,-252.28 2599.15,-255.95 2605.67,-243.5 2615.06,-225.59 2615.84,-215.48 2605.67,-198 2603.25,-193.85 2600.15,-190.14 2596.61,-186.85"/>
<polygon fill="black" stroke="black" points="2598.93,-184.22 2588.9,-180.81 2594.62,-189.73 2598.93,-184.22"/>
<polygon fill="none" stroke="black" points="2615.67,-221.75 2615.67,-240.5 2753.67,-240.5 2753.67,-221.75 2615.67,-221.75"/>
<text text-anchor="start" x="2624.67" y="-229" font-family="Courier New" font-weight="bold" font-size="10.00" fill="orange">WAIT(,S00_HIDDEN_16)</text>
<polygon fill="none" stroke="black" points="2615.67,-201 2615.67,-219.75 2753.67,-219.75 2753.67,-201 2615.67,-201"/>
<text text-anchor="start" x="2618.67" y="-207.25" font-family="Courier New" font-size="10.00" fill="blue">BPARM = S00_HIDDEN_16;</text>
<polygon fill="none" stroke="black" points="2612.67,-198 2612.67,-243.5 2756.67,-243.5 2756.67,-198 2612.67,-198"/>
</g>
<!-- 0&#45;&gt;holdItem -->
<g id="edge18" class="edge">
<title>0&#45;&gt;holdItem</title>
<path fill="none" stroke="black" d="M2558.29,-279.28C2564.13,-272.46 2571.42,-265.61 2579.67,-261.5 2615.85,-243.47 2733.54,-273.46 2760.67,-243.5 2774.24,-228.51 2773.77,-213.4 2760.67,-198 2740.66,-174.47 2659.21,-166.61 2602.01,-164"/>
<polygon fill="black" stroke="black" points="2602.21,-160.51 2592.08,-163.59 2601.93,-167.5 2602.21,-160.51"/>
<polygon fill="none" stroke="black" points="2773.67,-221.75 2773.67,-240.5 2911.67,-240.5 2911.67,-221.75 2773.67,-221.75"/>
<text text-anchor="start" x="2782.67" y="-229" font-family="Courier New" font-weight="bold" font-size="10.00" fill="orange">WAIT(,S00_HIDDEN_17)</text>
<polygon fill="none" stroke="black" points="2773.67,-201 2773.67,-219.75 2911.67,-219.75 2911.67,-201 2773.67,-201"/>
<text text-anchor="start" x="2776.67" y="-207.25" font-family="Courier New" font-size="10.00" fill="blue">BPARM = S00_HIDDEN_17;</text>
<polygon fill="none" stroke="black" points="2770.67,-198 2770.67,-243.5 2914.67,-243.5 2914.67,-198 2770.67,-198"/>
</g>
<!-- 0&#45;&gt;holdItem -->
<g id="edge19" class="edge">
<title>0&#45;&gt;holdItem</title>
<path fill="none" stroke="black" d="M2557.84,-279.48C2563.72,-272.5 2571.16,-265.5 2579.67,-261.5 2613.81,-245.46 2892.72,-270.87 2918.67,-243.5 2932.59,-228.83 2932.28,-212.95 2918.67,-198 2897.79,-175.06 2701.87,-166.76 2601.84,-164"/>
<polygon fill="black" stroke="black" points="2602.03,-160.51 2591.94,-163.74 2601.84,-167.5 2602.03,-160.51"/>
<polygon fill="none" stroke="black" points="2931.67,-221.75 2931.67,-240.5 3069.67,-240.5 3069.67,-221.75 2931.67,-221.75"/>
<text text-anchor="start" x="2940.67" y="-229" font-family="Courier New" font-weight="bold" font-size="10.00" fill="orange">WAIT(,S00_HIDDEN_18)</text>
<polygon fill="none" stroke="black" points="2931.67,-201 2931.67,-219.75 3069.67,-219.75 3069.67,-201 2931.67,-201"/>
<text text-anchor="start" x="2934.67" y="-207.25" font-family="Courier New" font-size="10.00" fill="blue">BPARM = S00_HIDDEN_18;</text>
<polygon fill="none" stroke="black" points="2928.67,-198 2928.67,-243.5 3072.67,-243.5 3072.67,-198 2928.67,-198"/>
</g>
<!-- 0&#45;&gt;holdItem -->
<g id="edge20" class="edge">
<title>0&#45;&gt;holdItem</title>
<path fill="none" stroke="black" d="M2557.81,-279.4C2563.68,-272.41 2571.13,-265.42 2579.67,-261.5 2629.88,-238.42 3038.31,-283.27 3076.67,-243.5 3090.71,-228.94 3090.49,-212.76 3076.67,-198 3044.76,-163.91 2733.11,-161.64 2601.67,-162.22"/>
<polygon fill="black" stroke="black" points="2601.77,-158.72 2591.79,-162.28 2601.81,-165.72 2601.77,-158.72"/>
<polygon fill="none" stroke="black" points="3089.67,-221.75 3089.67,-240.5 3227.67,-240.5 3227.67,-221.75 3089.67,-221.75"/>
<text text-anchor="start" x="3098.67" y="-229" font-family="Courier New" font-weight="bold" font-size="10.00" fill="orange">WAIT(,S00_HIDDEN_19)</text>
<polygon fill="none" stroke="black" points="3089.67,-201 3089.67,-219.75 3227.67,-219.75 3227.67,-201 3089.67,-201"/>
<text text-anchor="start" x="3092.67" y="-207.25" font-family="Courier New" font-size="10.00" fill="blue">BPARM = S00_HIDDEN_19;</text>
<polygon fill="none" stroke="black" points="3086.67,-198 3086.67,-243.5 3230.67,-243.5 3230.67,-198 3086.67,-198"/>
</g>
<!-- 0&#45;&gt;holdItem -->
<g id="edge21" class="edge">
<title>0&#45;&gt;holdItem</title>
<path fill="none" stroke="black" d="M2557.79,-279.36C2563.66,-272.37 2571.11,-265.39 2579.67,-261.5 2612.81,-246.44 3209.29,-269.59 3234.67,-243.5 3248.77,-229.01 3248.6,-212.66 3234.67,-198 3213,-175.2 2764.14,-166.11 2601.7,-163.56"/>
<polygon fill="black" stroke="black" points="2602.08,-160.07 2592.02,-163.41 2601.97,-167.07 2602.08,-160.07"/>
<polygon fill="none" stroke="black" points="3247.67,-221.75 3247.67,-240.5 3385.67,-240.5 3385.67,-221.75 3247.67,-221.75"/>
<text text-anchor="start" x="3256.67" y="-229" font-family="Courier New" font-weight="bold" font-size="10.00" fill="orange">WAIT(,S00_HIDDEN_20)</text>
<polygon fill="none" stroke="black" points="3247.67,-201 3247.67,-219.75 3385.67,-219.75 3385.67,-201 3247.67,-201"/>
<text text-anchor="start" x="3250.67" y="-207.25" font-family="Courier New" font-size="10.00" fill="blue">BPARM = S00_HIDDEN_20;</text>
<polygon fill="none" stroke="black" points="3244.67,-198 3244.67,-243.5 3388.67,-243.5 3388.67,-198 3244.67,-198"/>
</g>
<!-- 0&#45;&gt;holdItem -->
<g id="edge22" class="edge">
<title>0&#45;&gt;holdItem</title>
<path fill="none" stroke="black" d="M2557.78,-279.34C2563.65,-272.34 2571.1,-265.36 2579.67,-261.5 2620.85,-242.92 3361.08,-275.8 3392.67,-243.5 3406.81,-229.04 3406.67,-212.59 3392.67,-198 3365.32,-169.49 2789.01,-164.01 2601.83,-162.98"/>
<polygon fill="black" stroke="black" points="2602.12,-159.48 2592.11,-162.93 2602.09,-166.48 2602.12,-159.48"/>
<polygon fill="none" stroke="black" points="3405.67,-221.75 3405.67,-240.5 3543.67,-240.5 3543.67,-221.75 3405.67,-221.75"/>
<text text-anchor="start" x="3414.67" y="-229" font-family="Courier New" font-weight="bold" font-size="10.00" fill="orange">WAIT(,S00_HIDDEN_21)</text>
<polygon fill="none" stroke="black" points="3405.67,-201 3405.67,-219.75 3543.67,-219.75 3543.67,-201 3405.67,-201"/>
<text text-anchor="start" x="3408.67" y="-207.25" font-family="Courier New" font-size="10.00" fill="blue">BPARM = S00_HIDDEN_21;</text>
<polygon fill="none" stroke="black" points="3402.67,-198 3402.67,-243.5 3546.67,-243.5 3546.67,-198 3402.67,-198"/>
</g>
<!-- 0&#45;&gt;holdItem -->
<g id="edge23" class="edge">
<title>0&#45;&gt;holdItem</title>
<path fill="none" stroke="black" d="M2557.77,-279.32C2563.64,-272.32 2571.1,-265.35 2579.67,-261.5 2628.89,-239.4 3512.87,-282 3550.67,-243.5 3564.84,-229.07 3564.72,-212.55 3550.67,-198 3517.58,-163.73 2811.38,-162.26 2601.8,-162.58"/>
<polygon fill="black" stroke="black" points="2601.96,-159.08 2591.97,-162.6 2601.98,-166.08 2601.96,-159.08"/>
<polygon fill="none" stroke="black" points="3563.67,-221.75 3563.67,-240.5 3701.67,-240.5 3701.67,-221.75 3563.67,-221.75"/>
<text text-anchor="start" x="3572.67" y="-229" font-family="Courier New" font-weight="bold" font-size="10.00" fill="orange">WAIT(,S00_HIDDEN_22)</text>
<polygon fill="none" stroke="black" points="3563.67,-201 3563.67,-219.75 3701.67,-219.75 3701.67,-201 3563.67,-201"/>
<text text-anchor="start" x="3566.67" y="-207.25" font-family="Courier New" font-size="10.00" fill="blue">BPARM = S00_HIDDEN_22;</text>
<polygon fill="none" stroke="black" points="3560.67,-198 3560.67,-243.5 3704.67,-243.5 3704.67,-198 3560.67,-198"/>
</g>
<!-- 0&#45;&gt;holdItem -->
<g id="edge24" class="edge">
<title>0&#45;&gt;holdItem</title>
<path fill="none" stroke="black" d="M2557.77,-279.31C2563.63,-272.31 2571.09,-265.34 2579.67,-261.5 2608.3,-248.69 3686.67,-265.85 3708.67,-243.5 3722.86,-229.09 3722.75,-212.51 3708.67,-198 3689.21,-177.94 2834.98,-166.24 2601.89,-163.42"/>
<polygon fill="black" stroke="black" points="2602.18,-159.92 2592.14,-163.3 2602.1,-166.92 2602.18,-159.92"/>
<polygon fill="none" stroke="black" points="3721.67,-221.75 3721.67,-240.5 3859.67,-240.5 3859.67,-221.75 3721.67,-221.75"/>
<text text-anchor="start" x="3730.67" y="-229" font-family="Courier New" font-weight="bold" font-size="10.00" fill="orange">WAIT(,S00_HIDDEN_23)</text>
<polygon fill="none" stroke="black" points="3721.67,-201 3721.67,-219.75 3859.67,-219.75 3859.67,-201 3721.67,-201"/>
<text text-anchor="start" x="3724.67" y="-207.25" font-family="Courier New" font-size="10.00" fill="blue">BPARM = S00_HIDDEN_23;</text>
<polygon fill="none" stroke="black" points="3718.67,-198 3718.67,-243.5 3862.67,-243.5 3862.67,-198 3718.67,-198"/>
</g>
<!-- 0&#45;&gt;holdItem -->
<g id="edge25" class="edge">
<title>0&#45;&gt;holdItem</title>
<path fill="none" stroke="black" d="M2557.76,-279.3C2563.63,-272.3 2571.09,-265.33 2579.67,-261.5 2612.32,-246.93 3841.57,-268.96 3866.67,-243.5 3880.87,-229.1 3880.78,-212.49 3866.67,-198 3844.31,-175.03 2855.18,-165.32 2602.14,-163.21"/>
<polygon fill="black" stroke="black" points="2602.19,-159.71 2592.16,-163.12 2602.13,-166.71 2602.19,-159.71"/>
<polygon fill="none" stroke="black" points="3879.67,-221.75 3879.67,-240.5 4017.67,-240.5 4017.67,-221.75 3879.67,-221.75"/>
<text text-anchor="start" x="3888.67" y="-229" font-family="Courier New" font-weight="bold" font-size="10.00" fill="orange">WAIT(,S00_HIDDEN_24)</text>
<polygon fill="none" stroke="black" points="3879.67,-201 3879.67,-219.75 4017.67,-219.75 4017.67,-201 3879.67,-201"/>
<text text-anchor="start" x="3882.67" y="-207.25" font-family="Courier New" font-size="10.00" fill="blue">BPARM = S00_HIDDEN_24;</text>
<polygon fill="none" stroke="black" points="3876.67,-198 3876.67,-243.5 4020.67,-243.5 4020.67,-198 3876.67,-198"/>
</g>
<!-- 0&#45;&gt;holdItem -->
<g id="edge26" class="edge">
<title>0&#45;&gt;holdItem</title>
<path fill="none" stroke="black" d="M2557.76,-279.29C2563.63,-272.29 2571.08,-265.32 2579.67,-261.5 2616.34,-245.17 3996.46,-272.06 4024.67,-243.5 4038.88,-229.11 4038.8,-212.47 4024.67,-198 3999.37,-172.09 2871.87,-164.49 2601.49,-163.03"/>
<polygon fill="black" stroke="black" points="2601.91,-159.53 2591.89,-162.98 2601.88,-166.53 2601.91,-159.53"/>
<polygon fill="none" stroke="black" points="4037.67,-221.75 4037.67,-240.5 4175.67,-240.5 4175.67,-221.75 4037.67,-221.75"/>
<text text-anchor="start" x="4046.67" y="-229" font-family="Courier New" font-weight="bold" font-size="10.00" fill="orange">WAIT(,S00_HIDDEN_25)</text>
<polygon fill="none" stroke="black" points="4037.67,-201 4037.67,-219.75 4175.67,-219.75 4175.67,-201 4037.67,-201"/>
<text text-anchor="start" x="4040.67" y="-207.25" font-family="Courier New" font-size="10.00" fill="blue">BPARM = S00_HIDDEN_25;</text>
<polygon fill="none" stroke="black" points="4034.67,-198 4034.67,-243.5 4178.67,-243.5 4178.67,-198 4034.67,-198"/>
</g>
<!-- 0&#45;&gt;holdItem -->
<g id="edge27" class="edge">
<title>0&#45;&gt;holdItem</title>
<path fill="none" stroke="black" d="M2557.76,-279.29C2563.62,-272.28 2571.08,-265.32 2579.67,-261.5 2620.36,-243.41 4151.36,-275.16 4182.67,-243.5 4196.89,-229.12 4196.82,-212.45 4182.67,-198 4154.46,-169.18 2890.56,-163.76 2601.93,-162.9"/>
<polygon fill="black" stroke="black" points="2602.02,-159.4 2592.01,-162.87 2602,-166.4 2602.02,-159.4"/>
<polygon fill="none" stroke="black" points="4195.67,-221.75 4195.67,-240.5 4333.67,-240.5 4333.67,-221.75 4195.67,-221.75"/>
<text text-anchor="start" x="4204.67" y="-229" font-family="Courier New" font-weight="bold" font-size="10.00" fill="orange">WAIT(,S00_HIDDEN_26)</text>
<polygon fill="none" stroke="black" points="4195.67,-201 4195.67,-219.75 4333.67,-219.75 4333.67,-201 4195.67,-201"/>
<text text-anchor="start" x="4198.67" y="-207.25" font-family="Courier New" font-size="10.00" fill="blue">BPARM = S00_HIDDEN_26;</text>
<polygon fill="none" stroke="black" points="4192.67,-198 4192.67,-243.5 4336.67,-243.5 4336.67,-198 4192.67,-198"/>
</g>
<!-- 0&#45;&gt;holdItem -->
<g id="edge28" class="edge">
<title>0&#45;&gt;holdItem</title>
<path fill="none" stroke="black" d="M2557.75,-279.28C2563.62,-272.28 2571.08,-265.31 2579.67,-261.5 2624.38,-241.65 4306.26,-278.27 4340.67,-243.5 4354.9,-229.13 4354.83,-212.44 4340.67,-198 4309.51,-166.22 2906.11,-163.09 2601.58,-162.78"/>
<polygon fill="black" stroke="black" points="2601.9,-159.28 2591.89,-162.77 2601.89,-166.28 2601.9,-159.28"/>
<polygon fill="none" stroke="black" points="4353.67,-221.75 4353.67,-240.5 4491.67,-240.5 4491.67,-221.75 4353.67,-221.75"/>
<text text-anchor="start" x="4362.67" y="-229" font-family="Courier New" font-weight="bold" font-size="10.00" fill="orange">WAIT(,S00_HIDDEN_27)</text>
<polygon fill="none" stroke="black" points="4353.67,-201 4353.67,-219.75 4491.67,-219.75 4491.67,-201 4353.67,-201"/>
<text text-anchor="start" x="4356.67" y="-207.25" font-family="Courier New" font-size="10.00" fill="blue">BPARM = S00_HIDDEN_27;</text>
<polygon fill="none" stroke="black" points="4350.67,-198 4350.67,-243.5 4494.67,-243.5 4494.67,-198 4350.67,-198"/>
</g>
<!-- 0&#45;&gt;holdItem -->
<g id="edge29" class="edge">
<title>0&#45;&gt;holdItem</title>
<path fill="none" stroke="black" d="M2557.75,-279.28C2563.62,-272.28 2571.08,-265.31 2579.67,-261.5 2628.4,-239.89 4461.15,-281.37 4498.67,-243.5 4512.9,-229.13 4512.84,-212.43 4498.67,-198 4464.58,-163.29 2923.21,-162.48 2601.96,-162.69"/>
<polygon fill="black" stroke="black" points="2602.12,-159.19 2592.12,-162.69 2602.13,-166.19 2602.12,-159.19"/>
<polygon fill="none" stroke="black" points="4511.67,-221.75 4511.67,-240.5 4649.67,-240.5 4649.67,-221.75 4511.67,-221.75"/>
<text text-anchor="start" x="4520.67" y="-229" font-family="Courier New" font-weight="bold" font-size="10.00" fill="orange">WAIT(,S00_HIDDEN_28)</text>
<polygon fill="none" stroke="black" points="4511.67,-201 4511.67,-219.75 4649.67,-219.75 4649.67,-201 4511.67,-201"/>
<text text-anchor="start" x="4514.67" y="-207.25" font-family="Courier New" font-size="10.00" fill="blue">BPARM = S00_HIDDEN_28;</text>
<polygon fill="none" stroke="black" points="4508.67,-198 4508.67,-243.5 4652.67,-243.5 4652.67,-198 4508.67,-198"/>
</g>
<!-- 0&#45;&gt;holdItem -->
<g id="edge30" class="edge">
<title>0&#45;&gt;holdItem</title>
<path fill="none" stroke="black" d="M2557.75,-279.27C2563.62,-272.27 2571.08,-265.31 2579.67,-261.5 2632.42,-238.13 4616.05,-284.47 4656.67,-243.5 4670.91,-229.14 4670.85,-212.42 4656.67,-198 4619.63,-160.33 2937.83,-161.91 2601.75,-162.61"/>
<polygon fill="black" stroke="black" points="2601.88,-159.11 2591.88,-162.63 2601.89,-166.11 2601.88,-159.11"/>
<polygon fill="none" stroke="black" points="4669.67,-221.75 4669.67,-240.5 4807.67,-240.5 4807.67,-221.75 4669.67,-221.75"/>
<text text-anchor="start" x="4678.67" y="-229" font-family="Courier New" font-weight="bold" font-size="10.00" fill="orange">WAIT(,S00_HIDDEN_29)</text>
<polygon fill="none" stroke="black" points="4669.67,-201 4669.67,-219.75 4807.67,-219.75 4807.67,-201 4669.67,-201"/>
<text text-anchor="start" x="4672.67" y="-207.25" font-family="Courier New" font-size="10.00" fill="blue">BPARM = S00_HIDDEN_29;</text>
<polygon fill="none" stroke="black" points="4666.67,-198 4666.67,-243.5 4810.67,-243.5 4810.67,-198 4666.67,-198"/>
</g>
<!-- 0&#45;&gt;holdItem -->
<g id="edge31" class="edge">
<title>0&#45;&gt;holdItem</title>
<path fill="none" stroke="black" d="M2557.75,-279.27C2563.62,-272.27 2571.08,-265.3 2579.67,-261.5 2608.06,-248.94 4792.81,-265.54 4814.67,-243.5 4828.91,-229.14 4828.86,-212.41 4814.67,-198 4774.68,-157.38 2952.88,-161.39 2601.85,-162.54"/>
<polygon fill="black" stroke="black" points="2601.97,-159.04 2591.98,-162.57 2601.99,-166.04 2601.97,-159.04"/>
<polygon fill="none" stroke="black" points="4827.67,-221.75 4827.67,-240.5 4965.67,-240.5 4965.67,-221.75 4827.67,-221.75"/>
<text text-anchor="start" x="4836.67" y="-229" font-family="Courier New" font-weight="bold" font-size="10.00" fill="orange">WAIT(,S00_HIDDEN_30)</text>
<polygon fill="none" stroke="black" points="4827.67,-201 4827.67,-219.75 4965.67,-219.75 4965.67,-201 4827.67,-201"/>
<text text-anchor="start" x="4830.67" y="-207.25" font-family="Courier New" font-size="10.00" fill="blue">BPARM = S00_HIDDEN_30;</text>
<polygon fill="none" stroke="black" points="4824.67,-198 4824.67,-243.5 4968.67,-243.5 4968.67,-198 4824.67,-198"/>
</g>
<!-- returnobject -->
<g id="node4" class="node">
<title>returnobject</title>
<polyline fill="none" stroke="darkred" points="3740.17,-7 3845.17,-7"/>
<text text-anchor="start" x="3743.17" y="-14.2" font-family="Courier New" font-weight="bold" font-size="14.00">returnobject</text>
<path fill="none" stroke="darkred" d="M3746.67,-4C3746.67,-4 3838.67,-4 3838.67,-4 3843.42,-4 3848.17,-8.75 3848.17,-13.5 3848.17,-13.5 3848.17,-23 3848.17,-23 3848.17,-27.75 3843.42,-32.5 3838.67,-32.5 3838.67,-32.5 3746.67,-32.5 3746.67,-32.5 3741.92,-32.5 3737.17,-27.75 3737.17,-23 3737.17,-23 3737.17,-13.5 3737.17,-13.5 3737.17,-8.75 3741.92,-4 3746.67,-4"/>
</g>
<!-- holdItem&#45;&gt;returnobject -->
<g id="edge32" class="edge">
<title>holdItem&#45;&gt;returnobject</title>
<path fill="none" stroke="black" d="M2590.35,-155.46C2778.93,-134.1 3485.44,-54.06 3717.96,-27.71"/>
<polygon fill="black" stroke="black" points="3718.28,-31.2 3727.82,-26.6 3717.49,-24.24 3718.28,-31.2"/>
<polygon fill="none" stroke="black" points="3460.67,-103.75 3460.67,-122.5 3676.67,-122.5 3676.67,-103.75 3460.67,-103.75"/>
<text text-anchor="start" x="3559.67" y="-111" font-family="Courier New" font-weight="bold" font-size="10.00" fill="blue">(,)</text>
<polygon fill="none" stroke="black" points="3460.67,-57.5 3460.67,-101.75 3676.67,-101.75 3676.67,-57.5 3460.67,-57.5"/>
<text text-anchor="start" x="3463.67" y="-89.25" font-family="Courier New" font-size="10.00" fill="blue"> &#160;&#160;REF_MACHINE(BPARM);</text>
<text text-anchor="start" x="3463.67" y="-76.5" font-family="Courier New" font-size="10.00" fill="blue"> &#160;&#160;MOV(BPARM,R_WOBJECT);</text>
<text text-anchor="start" x="3463.67" y="-63.75" font-family="Courier New" font-size="10.00" fill="blue"> &#160;&#160;MOV(WPARM,LVIEW);//MAYBE R_WPARM</text>
<polygon fill="none" stroke="black" points="3457.67,-54.5 3457.67,-125.5 3679.67,-125.5 3679.67,-54.5 3457.67,-54.5"/>
</g>
<!-- returnobject&#45;&gt;0 -->
<g id="edge33" class="edge">
<title>returnobject&#45;&gt;0</title>
<path fill="none" stroke="black" d="M3855.95,-21.29C4122.93,-30.95 5136.18,-78.75 4972.67,-243.5 4949.26,-267.09 2610.07,-248.06 2579.67,-261.5 2574.57,-263.76 2569.86,-267.13 2565.66,-270.96"/>
<polygon fill="black" stroke="black" points="2563.15,-268.52 2558.79,-278.17 2568.22,-273.34 2563.15,-268.52"/>
<text text-anchor="start" x="4975.67" y="-159.62" font-family="Courier New" font-weight="bold" font-size="10.00" fill="blue">Z_EPSILON(,)</text>
</g>
<!-- status -->
<g id="node5" class="node">
<title>status</title>
<polygon fill="none" stroke="black" points="2588.67,-262 2588.67,-341 2916.67,-341 2916.67,-262 2588.67,-262"/>
<polygon fill="none" stroke="black" points="2599.67,-315.25 2599.67,-334 2905.67,-334 2905.67,-315.25 2599.67,-315.25"/>
<text text-anchor="start" x="2704.67" y="-322.5" font-family="Courier New" font-weight="bold" font-size="10.00">S00_HIDERCURRENT</text>
<polygon fill="none" stroke="black" points="2599.67,-269 2599.67,-313.25 2905.67,-313.25 2905.67,-269 2599.67,-269"/>
<text text-anchor="start" x="2602.67" y="-300.75" font-family="Courier New" font-size="10.00" fill="green">VIEW::IDV_PATH2 @pos(x:3, y:3, w:2, h:2)</text>
<text text-anchor="start" x="2602.67" y="-288" font-family="Courier New" font-size="10.00" fill="green">S00_HIDERCURRENT::M_HIDECURRENT(&#39;&#39;,&#39;&#39;,&#39;&#39;,&#39;&#39;,&#39;&#39;,&#39;&#39;)</text>
<text text-anchor="start" x="2602.67" y="-275.25" font-family="Courier New" font-size="10.00" fill="green">{state:&#39;0&#39;: Top:3 Left:3</text>
<polygon fill="none" stroke="black" points="2596.67,-266 2596.67,-337 2908.67,-337 2908.67,-266 2596.67,-266"/>
</g>
</g>
</svg>
