<?xml version="1.0" encoding="UTF-8" standalone="no"?>
<!DOCTYPE svg PUBLIC "-//W3C//DTD SVG 1.1//EN"
 "http://www.w3.org/Graphics/SVG/1.1/DTD/svg11.dtd">
<!-- Generated by graphviz version 10.0.1 (20240210.2158)
 -->
<!-- Title: Automaton Pages: 1 -->
<svg width="646pt" height="463pt"
 viewBox="0.00 0.00 646.00 462.75" xmlns="http://www.w3.org/2000/svg" xmlns:xlink="http://www.w3.org/1999/xlink">
<g id="graph0" class="graph" transform="scale(1 1) rotate(0) translate(4 458.75)">
<title>Automaton</title>
<polygon fill="white" stroke="none" points="-4,4 -4,-458.75 642,-458.75 642,4 -4,4"/>
<!-- filename -->
<g id="node1" class="node">
<title>filename</title>
<polygon fill="none" stroke="black" points="0,-388 0,-441.5 208,-441.5 208,-388 0,-388"/>
<polygon fill="none" stroke="black" points="11,-415.75 11,-434.5 197,-434.5 197,-415.75 11,-415.75"/>
<text text-anchor="start" x="14" y="-423" font-family="Courier New" font-weight="bold" font-size="10.00">S00_CHESTWAITER::M_CHESTWAITER</text>
<polygon fill="none" stroke="black" points="11,-395 11,-413.75 197,-413.75 197,-395 11,-395"/>
<text text-anchor="start" x="59" y="-401.25" font-family="Courier New" font-size="10.00" fill="brown">start state = 0</text>
<polygon fill="none" stroke="black" points="8,-392 8,-437.5 200,-437.5 200,-392 8,-392"/>
</g>
<!-- 0 -->
<g id="node2" class="node">
<title>0</title>
<polyline fill="none" stroke="darkred" points="245.88,-403.5 260.12,-403.5"/>
<text text-anchor="start" x="248.88" y="-410.7" font-family="Courier New" font-weight="bold" font-size="14.00">0</text>
<path fill="none" stroke="darkred" d="M249.62,-400.5C249.62,-400.5 256.38,-400.5 256.38,-400.5 259.75,-400.5 263.12,-403.88 263.12,-407.25 263.12,-407.25 263.12,-422.25 263.12,-422.25 263.12,-425.62 259.75,-429 256.38,-429 256.38,-429 249.62,-429 249.62,-429 246.25,-429 242.88,-425.62 242.88,-422.25 242.88,-422.25 242.88,-407.25 242.88,-407.25 242.88,-403.88 246.25,-400.5 249.62,-400.5"/>
</g>
<!-- ready -->
<g id="node3" class="node">
<title>ready</title>
<polyline fill="none" stroke="darkred" points="125.38,-263.75 172.62,-263.75"/>
<text text-anchor="start" x="128.38" y="-270.95" font-family="Courier New" font-weight="bold" font-size="14.00">ready</text>
<path fill="none" stroke="darkred" d="M131.88,-260.75C131.88,-260.75 166.12,-260.75 166.12,-260.75 170.88,-260.75 175.62,-265.5 175.62,-270.25 175.62,-270.25 175.62,-279.75 175.62,-279.75 175.62,-284.5 170.88,-289.25 166.12,-289.25 166.12,-289.25 131.88,-289.25 131.88,-289.25 127.12,-289.25 122.38,-284.5 122.38,-279.75 122.38,-279.75 122.38,-270.25 122.38,-270.25 122.38,-265.5 127.12,-260.75 131.88,-260.75"/>
</g>
<!-- 0&#45;&gt;ready -->
<g id="edge1" class="edge">
<title>0&#45;&gt;ready</title>
<path fill="none" stroke="black" d="M241.07,-396.77C234.76,-388.97 226.38,-380.25 217,-374.75 187.43,-357.41 163.22,-383.67 142,-356.75 130.35,-341.97 132.78,-320.6 137.76,-303.56"/>
<polygon fill="black" stroke="black" points="140.93,-305.12 140.8,-294.53 134.29,-302.89 140.93,-305.12"/>
<polygon fill="none" stroke="black" points="145,-335 145,-353.75 349,-353.75 349,-335 145,-335"/>
<text text-anchor="start" x="202" y="-342.25" font-family="Courier New" font-weight="bold" font-size="10.00" fill="orange">WAIT(SIG_SHOW,)</text>
<polygon fill="none" stroke="black" points="145,-314.25 145,-333 349,-333 349,-314.25 145,-314.25"/>
<text text-anchor="start" x="148" y="-320.5" font-family="Courier New" font-size="10.00" fill="blue"> &#160;&#160;REF_MACHINE(S00_HIDERCURRENT);</text>
<polygon fill="none" stroke="black" points="142,-311.25 142,-356.75 352,-356.75 352,-311.25 142,-311.25"/>
</g>
<!-- objectshown -->
<g id="node5" class="node">
<title>objectshown</title>
<polyline fill="none" stroke="darkred" stroke-width="3" points="149.12,-141.25 246.88,-141.25"/>
<text text-anchor="start" x="152.62" y="-148.95" font-family="Courier New" font-weight="bold" font-size="14.00">objectshown</text>
<path fill="none" stroke="darkred" stroke-width="3" d="M155.29,-136.25C155.29,-136.25 240.71,-136.25 240.71,-136.25 246.29,-136.25 251.88,-141.83 251.88,-147.42 251.88,-147.42 251.88,-158.58 251.88,-158.58 251.88,-164.17 246.29,-169.75 240.71,-169.75 240.71,-169.75 155.29,-169.75 155.29,-169.75 149.71,-169.75 144.12,-164.17 144.12,-158.58 144.12,-158.58 144.12,-147.42 144.12,-147.42 144.12,-141.83 149.71,-136.25 155.29,-136.25"/>
</g>
<!-- ready&#45;&gt;objectshown -->
<g id="edge4" class="edge">
<title>ready&#45;&gt;objectshown</title>
<path fill="none" stroke="black" d="M156.02,-256.81C163.57,-238.32 175.74,-208.51 185.04,-185.74"/>
<polygon fill="black" stroke="black" points="188.23,-187.19 188.77,-176.61 181.75,-184.54 188.23,-187.19"/>
<polygon fill="none" stroke="black" points="184,-217 184,-235.75 292,-235.75 292,-217 184,-217"/>
<text text-anchor="start" x="202" y="-224.25" font-family="Courier New" font-weight="bold" font-size="10.00" fill="blue">Z_EPSILON(,)</text>
<polygon fill="none" stroke="black" points="184,-196.25 184,-215 292,-215 292,-196.25 184,-196.25"/>
<text text-anchor="start" x="187" y="-202.5" font-family="Courier New" font-size="10.00" fill="blue"> &#160;&#160;SHOW(R_BPARM);</text>
<polygon fill="none" stroke="black" points="181,-193.25 181,-238.75 295,-238.75 295,-193.25 181,-193.25"/>
</g>
<!-- empty -->
<g id="node4" class="node">
<title>empty</title>
<polyline fill="none" stroke="darkred" points="258.38,-7 305.62,-7"/>
<text text-anchor="start" x="261.38" y="-14.2" font-family="Courier New" font-weight="bold" font-size="14.00">empty</text>
<path fill="none" stroke="darkred" d="M264.88,-4C264.88,-4 299.12,-4 299.12,-4 303.88,-4 308.62,-8.75 308.62,-13.5 308.62,-13.5 308.62,-23 308.62,-23 308.62,-27.75 303.88,-32.5 299.12,-32.5 299.12,-32.5 264.88,-32.5 264.88,-32.5 260.12,-32.5 255.38,-27.75 255.38,-23 255.38,-23 255.38,-13.5 255.38,-13.5 255.38,-8.75 260.12,-4 264.88,-4"/>
</g>
<!-- empty&#45;&gt;0 -->
<g id="edge2" class="edge">
<title>empty&#45;&gt;0</title>
<path fill="none" stroke="black" d="M316.31,-27.99C329.87,-33.31 344.08,-41.64 352,-54.5 422.46,-168.87 432.89,-249.51 352,-356.75 334.46,-380 313.8,-359.48 289,-374.75 283.17,-378.34 277.69,-383.13 272.85,-388.13"/>
<polygon fill="black" stroke="black" points="270.4,-385.62 266.36,-395.41 275.63,-390.27 270.4,-385.62"/>
<polygon fill="none" stroke="black" points="411,-217 411,-235.75 543,-235.75 543,-217 411,-217"/>
<text text-anchor="start" x="441" y="-224.25" font-family="Courier New" font-weight="bold" font-size="10.00" fill="blue">Z_EPSILON(,)</text>
<polygon fill="none" stroke="black" points="411,-196.25 411,-215 543,-215 543,-196.25 411,-196.25"/>
<text text-anchor="start" x="414" y="-202.5" font-family="Courier New" font-size="10.00" fill="blue"> &#160;&#160;LOADVIEW(R_WPARM);</text>
<polygon fill="none" stroke="black" points="408,-193.25 408,-238.75 546,-238.75 546,-193.25 408,-193.25"/>
</g>
<!-- objectshown&#45;&gt;empty -->
<g id="edge3" class="edge">
<title>objectshown&#45;&gt;empty</title>
<path fill="none" stroke="black" d="M194.59,-130.93C192.33,-109.68 192.21,-76.89 208,-54.5 215.16,-44.35 226.04,-37.02 237.27,-31.78"/>
<polygon fill="black" stroke="black" points="238.28,-35.15 246.18,-28.1 235.61,-28.67 238.28,-35.15"/>
<polygon fill="none" stroke="black" points="211,-91 211,-109.75 349,-109.75 349,-91 211,-91"/>
<text text-anchor="start" x="259" y="-98.25" font-family="Courier New" font-weight="bold" font-size="10.00" fill="orange">GRAB(,)</text>
<polygon fill="none" stroke="black" points="211,-57.5 211,-89 349,-89 349,-57.5 211,-57.5"/>
<text text-anchor="start" x="214" y="-76.5" font-family="Courier New" font-size="10.00" fill="blue"> &#160;&#160;HANDOFF(0,R_BPARM);</text>
<text text-anchor="start" x="214" y="-63.75" font-family="Courier New" font-size="10.00" fill="blue"> &#160;&#160;SHOW(0);</text>
<polygon fill="none" stroke="black" points="208,-54.5 208,-112.75 352,-112.75 352,-54.5 208,-54.5"/>
</g>
<!-- status -->
<g id="node6" class="node">
<title>status</title>
<polygon fill="none" stroke="black" points="298,-375.25 298,-454.25 638,-454.25 638,-375.25 298,-375.25"/>
<polygon fill="none" stroke="black" points="309,-428.5 309,-447.25 627,-447.25 627,-428.5 309,-428.5"/>
<text text-anchor="start" x="423" y="-435.75" font-family="Courier New" font-weight="bold" font-size="10.00">S00_CHESTWAITER</text>
<polygon fill="none" stroke="black" points="309,-382.25 309,-426.5 627,-426.5 627,-382.25 309,-382.25"/>
<text text-anchor="start" x="312" y="-414" font-family="Courier New" font-size="10.00" fill="green">VIEW::IDV_CHESTVIEW @pos(x:200, y:100, w:100, h:100)</text>
<text text-anchor="start" x="312" y="-401.25" font-family="Courier New" font-size="10.00" fill="green">S00_CHESTWAITER::M_CHESTWAITER(&#39;&#39;,&#39;&#39;,&#39;&#39;,&#39;&#39;,&#39;&#39;,&#39;&#39;)</text>
<text text-anchor="start" x="312" y="-388.5" font-family="Courier New" font-size="10.00" fill="green">{state:&#39;objectshown&#39;: Top:100 Left:200</text>
<polygon fill="none" stroke="black" points="306,-379.25 306,-450.25 630,-450.25 630,-379.25 306,-379.25"/>
</g>
</g>
</svg>
