<?xml version="1.0" encoding="UTF-8" standalone="no"?>
<!DOCTYPE svg PUBLIC "-//W3C//DTD SVG 1.1//EN"
 "http://www.w3.org/Graphics/SVG/1.1/DTD/svg11.dtd">
<!-- Generated by graphviz version 10.0.1 (20240210.2158)
 -->
<!-- Title: Automaton Pages: 1 -->
<svg width="988pt" height="1853pt"
 viewBox="0.00 0.00 987.75 1853.00" xmlns="http://www.w3.org/2000/svg" xmlns:xlink="http://www.w3.org/1999/xlink">
<g id="graph0" class="graph" transform="scale(1 1) rotate(0) translate(4 1849)">
<title>Automaton</title>
<polygon fill="white" stroke="none" points="-4,4 -4,-1849 983.75,-1849 983.75,4 -4,4"/>
<!-- filename -->
<g id="node1" class="node">
<title>filename</title>
<polygon fill="none" stroke="black" points="77.75,-1778.25 77.75,-1831.75 249.75,-1831.75 249.75,-1778.25 77.75,-1778.25"/>
<polygon fill="none" stroke="black" points="88.75,-1806 88.75,-1824.75 238.75,-1824.75 238.75,-1806 88.75,-1806"/>
<text text-anchor="start" x="91.75" y="-1813.25" font-family="Courier New" font-weight="bold" font-size="10.00">S00_HIDDEN_4::M_DIGGABLE</text>
<polygon fill="none" stroke="black" points="88.75,-1785.25 88.75,-1804 238.75,-1804 238.75,-1785.25 88.75,-1785.25"/>
<text text-anchor="start" x="118.75" y="-1791.5" font-family="Courier New" font-size="10.00" fill="brown">start state = 0</text>
<polygon fill="none" stroke="black" points="85.75,-1782.25 85.75,-1827.75 241.75,-1827.75 241.75,-1782.25 85.75,-1782.25"/>
</g>
<!-- 0 -->
<g id="node2" class="node">
<title>0</title>
<polyline fill="none" stroke="darkred" stroke-width="3" points="287.12,-1793.25 302.38,-1793.25"/>
<text text-anchor="start" x="290.62" y="-1800.95" font-family="Courier New" font-weight="bold" font-size="14.00">0</text>
<path fill="none" stroke="darkred" stroke-width="3" d="M290.54,-1788.25C290.54,-1788.25 298.96,-1788.25 298.96,-1788.25 303.17,-1788.25 307.38,-1792.46 307.38,-1796.67 307.38,-1796.67 307.38,-1813.33 307.38,-1813.33 307.38,-1817.54 303.17,-1821.75 298.96,-1821.75 298.96,-1821.75 290.54,-1821.75 290.54,-1821.75 286.33,-1821.75 282.12,-1817.54 282.12,-1813.33 282.12,-1813.33 282.12,-1796.67 282.12,-1796.67 282.12,-1792.46 286.33,-1788.25 290.54,-1788.25"/>
</g>
<!-- fixinToHideItem -->
<g id="node3" class="node">
<title>fixinToHideItem</title>
<polyline fill="none" stroke="darkred" points="41.88,-1641.25 171.62,-1641.25"/>
<text text-anchor="start" x="44.88" y="-1648.45" font-family="Courier New" font-weight="bold" font-size="14.00">fixinToHideItem</text>
<path fill="none" stroke="darkred" d="M48.38,-1638.25C48.38,-1638.25 165.12,-1638.25 165.12,-1638.25 169.88,-1638.25 174.62,-1643 174.62,-1647.75 174.62,-1647.75 174.62,-1657.25 174.62,-1657.25 174.62,-1662 169.88,-1666.75 165.12,-1666.75 165.12,-1666.75 48.38,-1666.75 48.38,-1666.75 43.62,-1666.75 38.88,-1662 38.88,-1657.25 38.88,-1657.25 38.88,-1647.75 38.88,-1647.75 38.88,-1643 43.62,-1638.25 48.38,-1638.25"/>
</g>
<!-- 0&#45;&gt;fixinToHideItem -->
<g id="edge1" class="edge">
<title>0&#45;&gt;fixinToHideItem</title>
<path fill="none" stroke="black" d="M278.16,-1783.03C272.47,-1776.71 265.75,-1770.1 258.75,-1765 243.31,-1753.77 235.91,-1757.17 219.75,-1747 187.74,-1726.85 154.84,-1698.61 132.85,-1678.44"/>
<polygon fill="black" stroke="black" points="135.23,-1675.88 125.52,-1671.64 130.47,-1681.01 135.23,-1675.88"/>
<polygon fill="none" stroke="black" points="222.75,-1725.25 222.75,-1744 390.75,-1744 390.75,-1725.25 222.75,-1725.25"/>
<text text-anchor="start" x="261.75" y="-1732.5" font-family="Courier New" font-weight="bold" font-size="10.00" fill="orange">WAIT(,SIG_OPEN)</text>
<polygon fill="none" stroke="black" points="222.75,-1691.75 222.75,-1723.25 390.75,-1723.25 390.75,-1691.75 222.75,-1691.75"/>
<text text-anchor="start" x="225.75" y="-1710.75" font-family="Courier New" font-size="10.00" fill="blue"> &#160;&#160;&#160;REF_MACHINE(S00_HIDER);</text>
<text text-anchor="start" x="225.75" y="-1698" font-family="Courier New" font-size="10.00" fill="blue"> &#160;&#160;&#160;MOV(WOBJECT,R_WPARM);</text>
<polygon fill="none" stroke="black" points="219.75,-1688.75 219.75,-1747 393.75,-1747 393.75,-1688.75 219.75,-1688.75"/>
</g>
<!-- determinedItem -->
<g id="node7" class="node">
<title>determinedItem</title>
<polyline fill="none" stroke="darkred" points="11,-1510.5 132.5,-1510.5"/>
<text text-anchor="start" x="14" y="-1517.7" font-family="Courier New" font-weight="bold" font-size="14.00">determinedItem</text>
<path fill="none" stroke="darkred" d="M17.5,-1507.5C17.5,-1507.5 126,-1507.5 126,-1507.5 130.75,-1507.5 135.5,-1512.25 135.5,-1517 135.5,-1517 135.5,-1526.5 135.5,-1526.5 135.5,-1531.25 130.75,-1536 126,-1536 126,-1536 17.5,-1536 17.5,-1536 12.75,-1536 8,-1531.25 8,-1526.5 8,-1526.5 8,-1517 8,-1517 8,-1512.25 12.75,-1507.5 17.5,-1507.5"/>
</g>
<!-- fixinToHideItem&#45;&gt;determinedItem -->
<g id="edge7" class="edge">
<title>fixinToHideItem&#45;&gt;determinedItem</title>
<path fill="none" stroke="black" d="M83.06,-1634.42C77.68,-1629.25 72.69,-1623.1 69.75,-1616.25 60.95,-1595.71 62.19,-1570.23 65.22,-1551.05"/>
<polygon fill="black" stroke="black" points="68.66,-1551.72 67.04,-1541.25 61.77,-1550.44 68.66,-1551.72"/>
<polygon fill="none" stroke="black" points="72.75,-1594.5 72.75,-1613.25 390.75,-1613.25 390.75,-1594.5 72.75,-1594.5"/>
<text text-anchor="start" x="141.75" y="-1601.75" font-family="Courier New" font-weight="bold" font-size="10.00" fill="blue">REF_MACHINE(S16_POTTERYCHECK,)</text>
<polygon fill="none" stroke="black" points="72.75,-1561 72.75,-1592.5 390.75,-1592.5 390.75,-1561 72.75,-1561"/>
<text text-anchor="start" x="75.75" y="-1580" font-family="Courier New" font-size="10.00" fill="blue"> &#160;&#160;&#160;if(R_BPARM &gt; 0){ MAPi(WOBJECT,S00_HIDDENSPELL);}</text>
<text text-anchor="start" x="75.75" y="-1567.25" font-family="Courier New" font-size="10.00" fill="blue"> &#160;&#160;&#160;if(R_BPARM == 0){ MAPi(WOBJECT,S00_HIDDENITEM);}</text>
<polygon fill="none" stroke="black" points="69.75,-1558 69.75,-1616.25 393.75,-1616.25 393.75,-1558 69.75,-1558"/>
</g>
<!-- chestview -->
<g id="node4" class="node">
<title>chestview</title>
<polyline fill="none" stroke="darkred" points="283.62,-7 363.88,-7"/>
<text text-anchor="start" x="286.62" y="-14.2" font-family="Courier New" font-weight="bold" font-size="14.00">chestview</text>
<path fill="none" stroke="darkred" d="M290.12,-4C290.12,-4 357.38,-4 357.38,-4 362.12,-4 366.88,-8.75 366.88,-13.5 366.88,-13.5 366.88,-23 366.88,-23 366.88,-27.75 362.12,-32.5 357.38,-32.5 357.38,-32.5 290.12,-32.5 290.12,-32.5 285.38,-32.5 280.62,-27.75 280.62,-23 280.62,-23 280.62,-13.5 280.62,-13.5 280.62,-8.75 285.38,-4 290.12,-4"/>
</g>
<!-- chestview&#45;&gt;0 -->
<g id="edge2" class="edge">
<title>chestview&#45;&gt;0</title>
<path fill="none" stroke="black" d="M354.55,-36.3C378.53,-52.08 407.75,-77.99 407.75,-110.5 407.75,-1653.5 407.75,-1653.5 407.75,-1653.5 407.75,-1695.52 421.47,-1715.43 393.75,-1747 374.54,-1768.88 355.55,-1749.73 330.75,-1765 326.4,-1767.68 322.24,-1771.03 318.39,-1774.64"/>
<polygon fill="black" stroke="black" points="316.02,-1772.06 311.58,-1781.69 321.05,-1776.93 316.02,-1772.06"/>
<polygon fill="none" stroke="black" points="410.75,-1010.5 410.75,-1029.25 632.75,-1029.25 632.75,-1010.5 410.75,-1010.5"/>
<text text-anchor="start" x="485.75" y="-1017.75" font-family="Courier New" font-weight="bold" font-size="10.00" fill="blue">Z_EPSILON(,)</text>
<polygon fill="none" stroke="black" points="410.75,-951.5 410.75,-1008.5 632.75,-1008.5 632.75,-951.5 410.75,-951.5"/>
<text text-anchor="start" x="413.75" y="-996" font-family="Courier New" font-size="10.00" fill="blue"> &#160;&#160;MOV(WPARM,LVIEW);</text>
<text text-anchor="start" x="413.75" y="-983.25" font-family="Courier New" font-size="10.00" fill="blue"> &#160;&#160;SHOW(0);</text>
<text text-anchor="start" x="413.75" y="-970.5" font-family="Courier New" font-size="10.00" fill="blue"> &#160;&#160;LOADVIEW(IDV_CHESTVIEW);</text>
<text text-anchor="start" x="413.75" y="-957.75" font-family="Courier New" font-size="10.00" fill="blue"> &#160;&#160;SIGNAL(S00_CHESTWAITER,SIG_SHOW);</text>
<polygon fill="none" stroke="black" points="407.75,-948.5 407.75,-1032.25 635.75,-1032.25 635.75,-948.5 407.75,-948.5"/>
</g>
<!-- coverActive -->
<g id="node5" class="node">
<title>coverActive</title>
<polyline fill="none" stroke="darkred" points="38.38,-1392.5 135.12,-1392.5"/>
<text text-anchor="start" x="41.38" y="-1399.7" font-family="Courier New" font-weight="bold" font-size="14.00">coverActive</text>
<path fill="none" stroke="darkred" d="M44.88,-1389.5C44.88,-1389.5 128.62,-1389.5 128.62,-1389.5 133.38,-1389.5 138.12,-1394.25 138.12,-1399 138.12,-1399 138.12,-1408.5 138.12,-1408.5 138.12,-1413.25 133.38,-1418 128.62,-1418 128.62,-1418 44.88,-1418 44.88,-1418 40.12,-1418 35.38,-1413.25 35.38,-1408.5 35.38,-1408.5 35.38,-1399 35.38,-1399 35.38,-1394.25 40.12,-1389.5 44.88,-1389.5"/>
</g>
<!-- firstWhack -->
<g id="node6" class="node">
<title>firstWhack</title>
<polyline fill="none" stroke="darkred" points="105.5,-1299.25 194,-1299.25"/>
<text text-anchor="start" x="108.5" y="-1306.45" font-family="Courier New" font-weight="bold" font-size="14.00">firstWhack</text>
<path fill="none" stroke="darkred" d="M112,-1296.25C112,-1296.25 187.5,-1296.25 187.5,-1296.25 192.25,-1296.25 197,-1301 197,-1305.75 197,-1305.75 197,-1315.25 197,-1315.25 197,-1320 192.25,-1324.75 187.5,-1324.75 187.5,-1324.75 112,-1324.75 112,-1324.75 107.25,-1324.75 102.5,-1320 102.5,-1315.25 102.5,-1315.25 102.5,-1305.75 102.5,-1305.75 102.5,-1301 107.25,-1296.25 112,-1296.25"/>
</g>
<!-- coverActive&#45;&gt;firstWhack -->
<g id="edge3" class="edge">
<title>coverActive&#45;&gt;firstWhack</title>
<path fill="none" stroke="black" d="M98.6,-1385.59C107.84,-1372.2 120.83,-1353.38 131.41,-1338.06"/>
<polygon fill="black" stroke="black" points="134.29,-1340.05 137.09,-1329.83 128.53,-1336.07 134.29,-1340.05"/>
<text text-anchor="start" x="128.75" y="-1355" font-family="Courier New" font-weight="bold" font-size="10.00" fill="blue">Z_EPSILON(,)</text>
</g>
<!-- secondWhack -->
<g id="node9" class="node">
<title>secondWhack</title>
<polyline fill="none" stroke="darkred" points="103.38,-979.12 200.12,-979.12"/>
<text text-anchor="start" x="106.38" y="-986.33" font-family="Courier New" font-weight="bold" font-size="14.00">secondWhack</text>
<path fill="none" stroke="darkred" d="M109.88,-976.12C109.88,-976.12 193.62,-976.12 193.62,-976.12 198.38,-976.12 203.12,-980.88 203.12,-985.62 203.12,-985.62 203.12,-995.12 203.12,-995.12 203.12,-999.88 198.38,-1004.62 193.62,-1004.62 193.62,-1004.62 109.88,-1004.62 109.88,-1004.62 105.12,-1004.62 100.38,-999.88 100.38,-995.12 100.38,-995.12 100.38,-985.62 100.38,-985.62 100.38,-980.88 105.12,-976.12 109.88,-976.12"/>
</g>
<!-- firstWhack&#45;&gt;secondWhack -->
<g id="edge6" class="edge">
<title>firstWhack&#45;&gt;secondWhack</title>
<path fill="none" stroke="black" d="M149.86,-1292.4C150.18,-1240.5 151.16,-1084.47 151.57,-1019.86"/>
<polygon fill="black" stroke="black" points="155.07,-1020.1 151.63,-1010.08 148.07,-1020.05 155.07,-1020.1"/>
<polygon fill="none" stroke="black" points="154.75,-1252.5 154.75,-1271.25 388.75,-1271.25 388.75,-1252.5 154.75,-1252.5"/>
<text text-anchor="start" x="238.75" y="-1259.75" font-family="Courier New" font-weight="bold" font-size="10.00" fill="orange">DRAG(WIP3,)</text>
<polygon fill="none" stroke="black" points="154.75,-1053.25 154.75,-1250.5 388.75,-1250.5 388.75,-1053.25 154.75,-1053.25"/>
<text text-anchor="start" x="157.75" y="-1238" font-family="Courier New" font-size="10.00" fill="blue"> &#160;&#160;&#160;&#160;&#160;&#160;&#160;if(WIP3 == ISA_TOOL_DIGGER){</text>
<text text-anchor="start" x="157.75" y="-1225.25" font-family="Courier New" font-size="10.00" fill="blue"> &#160;&#160;&#160;&#160;&#160;&#160;&#160;&#160;&#160;&#160;&#160;SHOW(0,IDS_SANDPILE1);</text>
<text text-anchor="start" x="157.75" y="-1212.5" font-family="Courier New" font-size="10.00" fill="blue"> &#160;&#160;&#160;&#160;&#160;&#160;&#160;&#160;&#160;&#160;&#160;ANIMATE();</text>
<text text-anchor="start" x="157.75" y="-1199.75" font-family="Courier New" font-size="10.00" fill="blue"> &#160;&#160;&#160;&#160;&#160;&#160;&#160;&#160;&#160;&#160;&#160;PLAYWAVE(SOUND_DIG);</text>
<text text-anchor="start" x="157.75" y="-1187" font-family="Courier New" font-size="10.00" fill="blue"> &#160;&#160;&#160;&#160;&#160;&#160;&#160;&#160;} &#160;&#160;</text>
<text text-anchor="start" x="157.75" y="-1174.25" font-family="Courier New" font-size="10.00" fill="blue"> &#160;&#160;&#160;&#160;&#160;&#160;&#160;&#160;if(WIP3 == ISA_TOOL_STRIKER){</text>
<text text-anchor="start" x="157.75" y="-1161.5" font-family="Courier New" font-size="10.00" fill="blue"> &#160;&#160;&#160;&#160;&#160;&#160;&#160;&#160;&#160;&#160;&#160;SHOW(0,IDS_SANDSTRIKE);</text>
<text text-anchor="start" x="157.75" y="-1148.75" font-family="Courier New" font-size="10.00" fill="blue"> &#160;&#160;&#160;&#160;&#160;&#160;&#160;&#160;&#160;&#160;&#160;ANIMATE();</text>
<text text-anchor="start" x="157.75" y="-1136" font-family="Courier New" font-size="10.00" fill="blue"> &#160;&#160;&#160;&#160;&#160;&#160;&#160;&#160;&#160;&#160;&#160;PLAYWAVE(SOUND_DIG);</text>
<text text-anchor="start" x="157.75" y="-1123.25" font-family="Courier New" font-size="10.00" fill="blue"> &#160;&#160;&#160;&#160;&#160;&#160;&#160;&#160;} &#160;&#160;</text>
<text text-anchor="start" x="157.75" y="-1110.5" font-family="Courier New" font-size="10.00" fill="blue"> &#160;&#160;&#160;&#160;&#160;&#160;&#160;&#160;&#160;if(WIP3 == ISA_TOOL_PRYER){</text>
<text text-anchor="start" x="157.75" y="-1097.75" font-family="Courier New" font-size="10.00" fill="blue"> &#160;&#160;&#160;&#160;&#160;&#160;&#160;&#160;&#160;&#160;&#160;SHOW(0,IDS_SANDFLIP);</text>
<text text-anchor="start" x="157.75" y="-1085" font-family="Courier New" font-size="10.00" fill="blue"> &#160;&#160;&#160;&#160;&#160;&#160;&#160;&#160;&#160;&#160;&#160;ANIMATE();</text>
<text text-anchor="start" x="157.75" y="-1072.25" font-family="Courier New" font-size="10.00" fill="blue"> &#160;&#160;&#160;&#160;&#160;&#160;&#160;&#160;&#160;&#160;&#160;PLAYWAVE(SOUND_THUMP);</text>
<text text-anchor="start" x="157.75" y="-1059.5" font-family="Courier New" font-size="10.00" fill="blue"> &#160;&#160;&#160;&#160;&#160;&#160;&#160;&#160;} &#160;&#160;</text>
<polygon fill="none" stroke="black" points="151.75,-1050.25 151.75,-1274.25 391.75,-1274.25 391.75,-1050.25 151.75,-1050.25"/>
</g>
<!-- determinedItem&#45;&gt;coverActive -->
<g id="edge4" class="edge">
<title>determinedItem&#45;&gt;coverActive</title>
<path fill="none" stroke="black" d="M73.96,-1503.63C76.36,-1485.13 80.21,-1455.33 83.06,-1433.27"/>
<polygon fill="black" stroke="black" points="86.52,-1433.8 84.33,-1423.44 79.58,-1432.91 86.52,-1433.8"/>
<polygon fill="none" stroke="black" points="85.75,-1463.75 85.75,-1482.5 223.75,-1482.5 223.75,-1463.75 85.75,-1463.75"/>
<text text-anchor="start" x="103.75" y="-1471" font-family="Courier New" font-weight="bold" font-size="10.00" fill="blue">MOV(WSPRITE,WIP2)</text>
<polygon fill="none" stroke="black" points="85.75,-1443 85.75,-1461.75 223.75,-1461.75 223.75,-1443 85.75,-1443"/>
<text text-anchor="start" x="88.75" y="-1449.25" font-family="Courier New" font-size="10.00" fill="blue"> &#160;&#160;&#160;&#160;&#160;&#160;&#160;SHOW(WSPRITE);</text>
<polygon fill="none" stroke="black" points="82.75,-1440 82.75,-1485.5 226.75,-1485.5 226.75,-1440 82.75,-1440"/>
</g>
<!-- displaychest -->
<g id="node8" class="node">
<title>displaychest</title>
<polyline fill="none" stroke="darkred" points="187.25,-100.25 292.25,-100.25"/>
<text text-anchor="start" x="190.25" y="-107.45" font-family="Courier New" font-weight="bold" font-size="14.00">displaychest</text>
<path fill="none" stroke="darkred" d="M193.75,-97.25C193.75,-97.25 285.75,-97.25 285.75,-97.25 290.5,-97.25 295.25,-102 295.25,-106.75 295.25,-106.75 295.25,-116.25 295.25,-116.25 295.25,-121 290.5,-125.75 285.75,-125.75 285.75,-125.75 193.75,-125.75 193.75,-125.75 189,-125.75 184.25,-121 184.25,-116.25 184.25,-116.25 184.25,-106.75 184.25,-106.75 184.25,-102 189,-97.25 193.75,-97.25"/>
</g>
<!-- displaychest&#45;&gt;chestview -->
<g id="edge5" class="edge">
<title>displaychest&#45;&gt;chestview</title>
<path fill="none" stroke="black" d="M255.55,-93.34C268.22,-79.57 286.19,-60.05 300.5,-44.5"/>
<polygon fill="black" stroke="black" points="302.8,-47.18 307,-37.45 297.65,-42.44 302.8,-47.18"/>
<text text-anchor="start" x="293.75" y="-62.75" font-family="Courier New" font-weight="bold" font-size="10.00" fill="orange">CLICK(,)</text>
</g>
<!-- thirdWhack -->
<g id="node12" class="node">
<title>thirdWhack</title>
<polyline fill="none" stroke="darkred" points="108.5,-659 197,-659"/>
<text text-anchor="start" x="111.5" y="-666.2" font-family="Courier New" font-weight="bold" font-size="14.00">thirdWhack</text>
<path fill="none" stroke="darkred" d="M115,-656C115,-656 190.5,-656 190.5,-656 195.25,-656 200,-660.75 200,-665.5 200,-665.5 200,-675 200,-675 200,-679.75 195.25,-684.5 190.5,-684.5 190.5,-684.5 115,-684.5 115,-684.5 110.25,-684.5 105.5,-679.75 105.5,-675 105.5,-675 105.5,-665.5 105.5,-665.5 105.5,-660.75 110.25,-656 115,-656"/>
</g>
<!-- secondWhack&#45;&gt;thirdWhack -->
<g id="edge10" class="edge">
<title>secondWhack&#45;&gt;thirdWhack</title>
<path fill="none" stroke="black" d="M151.8,-972.27C151.97,-920.38 152.46,-764.34 152.66,-699.74"/>
<polygon fill="black" stroke="black" points="156.16,-699.96 152.69,-689.95 149.16,-699.94 156.16,-699.96"/>
<polygon fill="none" stroke="black" points="155.75,-908.75 155.75,-927.5 389.75,-927.5 389.75,-908.75 155.75,-908.75"/>
<text text-anchor="start" x="239.75" y="-916" font-family="Courier New" font-weight="bold" font-size="10.00" fill="orange">DRAG(WIP3,)</text>
<polygon fill="none" stroke="black" points="155.75,-709.5 155.75,-906.75 389.75,-906.75 389.75,-709.5 155.75,-709.5"/>
<text text-anchor="start" x="158.75" y="-894.25" font-family="Courier New" font-size="10.00" fill="blue"> &#160;&#160;&#160;&#160;&#160;&#160;&#160;if(WIP3 == ISA_TOOL_DIGGER){</text>
<text text-anchor="start" x="158.75" y="-881.5" font-family="Courier New" font-size="10.00" fill="blue"> &#160;&#160;&#160;&#160;&#160;&#160;&#160;&#160;&#160;&#160;&#160;SHOW(0,IDS_SANDPILE2);</text>
<text text-anchor="start" x="158.75" y="-868.75" font-family="Courier New" font-size="10.00" fill="blue"> &#160;&#160;&#160;&#160;&#160;&#160;&#160;&#160;&#160;&#160;&#160;ANIMATE();</text>
<text text-anchor="start" x="158.75" y="-856" font-family="Courier New" font-size="10.00" fill="blue"> &#160;&#160;&#160;&#160;&#160;&#160;&#160;&#160;&#160;&#160;&#160;PLAYWAVE(SOUND_DIG);</text>
<text text-anchor="start" x="158.75" y="-843.25" font-family="Courier New" font-size="10.00" fill="blue"> &#160;&#160;&#160;&#160;&#160;&#160;&#160;&#160;} &#160;&#160;</text>
<text text-anchor="start" x="158.75" y="-830.5" font-family="Courier New" font-size="10.00" fill="blue"> &#160;&#160;&#160;&#160;&#160;&#160;&#160;&#160;if(WIP3 == ISA_TOOL_STRIKER){</text>
<text text-anchor="start" x="158.75" y="-817.75" font-family="Courier New" font-size="10.00" fill="blue"> &#160;&#160;&#160;&#160;&#160;&#160;&#160;&#160;&#160;&#160;&#160;SHOW(0,IDS_SANDSTRIKE);</text>
<text text-anchor="start" x="158.75" y="-805" font-family="Courier New" font-size="10.00" fill="blue"> &#160;&#160;&#160;&#160;&#160;&#160;&#160;&#160;&#160;&#160;&#160;ANIMATE();</text>
<text text-anchor="start" x="158.75" y="-792.25" font-family="Courier New" font-size="10.00" fill="blue"> &#160;&#160;&#160;&#160;&#160;&#160;&#160;&#160;&#160;&#160;&#160;PLAYWAVE(SOUND_DIG);</text>
<text text-anchor="start" x="158.75" y="-779.5" font-family="Courier New" font-size="10.00" fill="blue"> &#160;&#160;&#160;&#160;&#160;&#160;&#160;&#160;} &#160;&#160;</text>
<text text-anchor="start" x="158.75" y="-766.75" font-family="Courier New" font-size="10.00" fill="blue"> &#160;&#160;&#160;&#160;&#160;&#160;&#160;&#160;&#160;&#160;if(WIP3 == ISA_TOOL_PRYER){</text>
<text text-anchor="start" x="158.75" y="-754" font-family="Courier New" font-size="10.00" fill="blue"> &#160;&#160;&#160;&#160;&#160;&#160;&#160;&#160;&#160;&#160;&#160;SHOW(0,IDS_SANDFLIP);</text>
<text text-anchor="start" x="158.75" y="-741.25" font-family="Courier New" font-size="10.00" fill="blue"> &#160;&#160;&#160;&#160;&#160;&#160;&#160;&#160;&#160;&#160;&#160;ANIMATE();</text>
<text text-anchor="start" x="158.75" y="-728.5" font-family="Courier New" font-size="10.00" fill="blue"> &#160;&#160;&#160;&#160;&#160;&#160;&#160;&#160;&#160;&#160;&#160;PLAYWAVE(SOUND_THUMP);</text>
<text text-anchor="start" x="158.75" y="-715.75" font-family="Courier New" font-size="10.00" fill="blue"> &#160;&#160;&#160;&#160;&#160;&#160;&#160;&#160;} &#160;&#160;</text>
<polygon fill="none" stroke="black" points="152.75,-706.5 152.75,-930.5 392.75,-930.5 392.75,-706.5 152.75,-706.5"/>
</g>
<!-- fourthWhack -->
<g id="node10" class="node">
<title>fourthWhack</title>
<polyline fill="none" stroke="darkred" points="105.38,-362.5 202.12,-362.5"/>
<text text-anchor="start" x="108.38" y="-369.7" font-family="Courier New" font-weight="bold" font-size="14.00">fourthWhack</text>
<path fill="none" stroke="darkred" d="M111.88,-359.5C111.88,-359.5 195.62,-359.5 195.62,-359.5 200.38,-359.5 205.12,-364.25 205.12,-369 205.12,-369 205.12,-378.5 205.12,-378.5 205.12,-383.25 200.38,-388 195.62,-388 195.62,-388 111.88,-388 111.88,-388 107.12,-388 102.38,-383.25 102.38,-378.5 102.38,-378.5 102.38,-369 102.38,-369 102.38,-364.25 107.12,-359.5 111.88,-359.5"/>
</g>
<!-- moveMe -->
<g id="node11" class="node">
<title>moveMe</title>
<polyline fill="none" stroke="darkred" points="135,-269.25 190.5,-269.25"/>
<text text-anchor="start" x="138" y="-276.45" font-family="Courier New" font-weight="bold" font-size="14.00">moveMe</text>
<path fill="none" stroke="darkred" d="M141.5,-266.25C141.5,-266.25 184,-266.25 184,-266.25 188.75,-266.25 193.5,-271 193.5,-275.75 193.5,-275.75 193.5,-285.25 193.5,-285.25 193.5,-290 188.75,-294.75 184,-294.75 184,-294.75 141.5,-294.75 141.5,-294.75 136.75,-294.75 132,-290 132,-285.25 132,-285.25 132,-275.75 132,-275.75 132,-271 136.75,-266.25 141.5,-266.25"/>
</g>
<!-- fourthWhack&#45;&gt;moveMe -->
<g id="edge8" class="edge">
<title>fourthWhack&#45;&gt;moveMe</title>
<path fill="none" stroke="black" d="M155.44,-355.59C156.71,-342.71 158.48,-324.81 159.96,-309.82"/>
<polygon fill="black" stroke="black" points="163.42,-310.39 160.92,-300.09 156.45,-309.7 163.42,-310.39"/>
<text text-anchor="start" x="163.75" y="-325" font-family="Courier New" font-weight="bold" font-size="10.00" fill="orange">DRAG(WIP3,)</text>
</g>
<!-- moveMe&#45;&gt;displaychest -->
<g id="edge9" class="edge">
<title>moveMe&#45;&gt;displaychest</title>
<path fill="none" stroke="black" d="M157.9,-262.48C151.33,-235.69 142.87,-183.09 165.75,-147.75 168.57,-143.4 172.08,-139.57 176.03,-136.21"/>
<polygon fill="black" stroke="black" points="177.98,-139.12 184.07,-130.45 173.9,-133.43 177.98,-139.12"/>
<polygon fill="none" stroke="black" points="168.75,-222.5 168.75,-241.25 390.75,-241.25 390.75,-222.5 168.75,-222.5"/>
<text text-anchor="start" x="222.75" y="-229.75" font-family="Courier New" font-weight="bold" font-size="10.00" fill="blue">SET_XOFFSET(ADD,10)</text>
<polygon fill="none" stroke="black" points="168.75,-150.75 168.75,-220.5 390.75,-220.5 390.75,-150.75 168.75,-150.75"/>
<text text-anchor="start" x="171.75" y="-208" font-family="Courier New" font-size="10.00" fill="blue"> &#160;&#160;&#160;&#160;&#160;PLAYWAVE(SOUND_CHIMES);</text>
<text text-anchor="start" x="171.75" y="-195.25" font-family="Courier New" font-size="10.00" fill="blue"> &#160;&#160;&#160;&#160;&#160;SHOW(0,IDS_CHESTBAK);</text>
<text text-anchor="start" x="171.75" y="-182.5" font-family="Courier New" font-size="10.00" fill="blue"> &#160;&#160;&#160;&#160;&#160;SIGNAL(S00_HIDERCURRENT,WIP4);</text>
<text text-anchor="start" x="171.75" y="-169.75" font-family="Courier New" font-size="10.00" fill="blue"> &#160;&#160;&#160;&#160;&#160;ADDI(LWISDOM,1); </text>
<text text-anchor="start" x="171.75" y="-157" font-family="Courier New" font-size="10.00" fill="blue"> &#160;&#160;&#160;&#160;&#160;SIGNAL(SID_ID,0);</text>
<polygon fill="none" stroke="black" points="165.75,-147.75 165.75,-244.25 393.75,-244.25 393.75,-147.75 165.75,-147.75"/>
</g>
<!-- thirdWhack&#45;&gt;fourthWhack -->
<g id="edge11" class="edge">
<title>thirdWhack&#45;&gt;fourthWhack</title>
<path fill="none" stroke="black" d="M152.81,-652.14C152.97,-603.45 153.45,-463.7 153.65,-403.22"/>
<polygon fill="black" stroke="black" points="157.15,-403.43 153.69,-393.42 150.15,-403.41 157.15,-403.43"/>
<polygon fill="none" stroke="black" points="156.75,-612.25 156.75,-631 390.75,-631 390.75,-612.25 156.75,-612.25"/>
<text text-anchor="start" x="240.75" y="-619.5" font-family="Courier New" font-weight="bold" font-size="10.00" fill="orange">DRAG(WIP3,)</text>
<polygon fill="none" stroke="black" points="156.75,-413 156.75,-610.25 390.75,-610.25 390.75,-413 156.75,-413"/>
<text text-anchor="start" x="159.75" y="-597.75" font-family="Courier New" font-size="10.00" fill="blue"> &#160;&#160;&#160;&#160;&#160;&#160;&#160;if(WIP3 == ISA_TOOL_DIGGER){</text>
<text text-anchor="start" x="159.75" y="-585" font-family="Courier New" font-size="10.00" fill="blue"> &#160;&#160;&#160;&#160;&#160;&#160;&#160;&#160;&#160;&#160;&#160;SHOW(0,IDS_SANDPILE3);</text>
<text text-anchor="start" x="159.75" y="-572.25" font-family="Courier New" font-size="10.00" fill="blue"> &#160;&#160;&#160;&#160;&#160;&#160;&#160;&#160;&#160;&#160;&#160;ANIMATE();</text>
<text text-anchor="start" x="159.75" y="-559.5" font-family="Courier New" font-size="10.00" fill="blue"> &#160;&#160;&#160;&#160;&#160;&#160;&#160;&#160;&#160;&#160;&#160;PLAYWAVE(SOUND_DIG);</text>
<text text-anchor="start" x="159.75" y="-546.75" font-family="Courier New" font-size="10.00" fill="blue"> &#160;&#160;&#160;&#160;&#160;&#160;&#160;&#160;} &#160;&#160;</text>
<text text-anchor="start" x="159.75" y="-534" font-family="Courier New" font-size="10.00" fill="blue"> &#160;&#160;&#160;&#160;&#160;&#160;&#160;&#160;if(WIP3 == ISA_TOOL_STRIKER){</text>
<text text-anchor="start" x="159.75" y="-521.25" font-family="Courier New" font-size="10.00" fill="blue"> &#160;&#160;&#160;&#160;&#160;&#160;&#160;&#160;&#160;&#160;&#160;SHOW(0,IDS_SANDSTRIKE);</text>
<text text-anchor="start" x="159.75" y="-508.5" font-family="Courier New" font-size="10.00" fill="blue"> &#160;&#160;&#160;&#160;&#160;&#160;&#160;&#160;&#160;&#160;&#160;ANIMATE();</text>
<text text-anchor="start" x="159.75" y="-495.75" font-family="Courier New" font-size="10.00" fill="blue"> &#160;&#160;&#160;&#160;&#160;&#160;&#160;&#160;&#160;&#160;&#160;PLAYWAVE(SOUND_DIG);</text>
<text text-anchor="start" x="159.75" y="-483" font-family="Courier New" font-size="10.00" fill="blue"> &#160;&#160;&#160;&#160;&#160;&#160;&#160;&#160;} &#160;&#160;</text>
<text text-anchor="start" x="159.75" y="-470.25" font-family="Courier New" font-size="10.00" fill="blue"> &#160;&#160;&#160;&#160;&#160;&#160;&#160;&#160;&#160;&#160;if(WIP3 == ISA_TOOL_PRYER){</text>
<text text-anchor="start" x="159.75" y="-457.5" font-family="Courier New" font-size="10.00" fill="blue"> &#160;&#160;&#160;&#160;&#160;&#160;&#160;&#160;&#160;&#160;&#160;SHOW(0,IDS_SANDFLIP);</text>
<text text-anchor="start" x="159.75" y="-444.75" font-family="Courier New" font-size="10.00" fill="blue"> &#160;&#160;&#160;&#160;&#160;&#160;&#160;&#160;&#160;&#160;&#160;ANIMATE();</text>
<text text-anchor="start" x="159.75" y="-432" font-family="Courier New" font-size="10.00" fill="blue"> &#160;&#160;&#160;&#160;&#160;&#160;&#160;&#160;&#160;&#160;&#160;PLAYWAVE(SOUND_THUMP);</text>
<text text-anchor="start" x="159.75" y="-419.25" font-family="Courier New" font-size="10.00" fill="blue"> &#160;&#160;&#160;&#160;&#160;&#160;&#160;&#160;} &#160;&#160;</text>
<polygon fill="none" stroke="black" points="153.75,-410 153.75,-634 393.75,-634 393.75,-410 153.75,-410"/>
</g>
<!-- status -->
<g id="node13" class="node">
<title>status</title>
<polygon fill="none" stroke="black" points="339.75,-1765.5 339.75,-1844.5 979.75,-1844.5 979.75,-1765.5 339.75,-1765.5"/>
<polygon fill="none" stroke="black" points="350.75,-1818.75 350.75,-1837.5 968.75,-1837.5 968.75,-1818.75 350.75,-1818.75"/>
<text text-anchor="start" x="623.75" y="-1826" font-family="Courier New" font-weight="bold" font-size="10.00">S00_HIDDEN_4</text>
<polygon fill="none" stroke="black" points="350.75,-1772.5 350.75,-1816.75 968.75,-1816.75 968.75,-1772.5 350.75,-1772.5"/>
<text text-anchor="start" x="353.75" y="-1804.25" font-family="Courier New" font-size="10.00" fill="green">VIEW::IDV_EYEB @pos(x:2464, y:100, w:100, h:100)</text>
<text text-anchor="start" x="353.75" y="-1791.5" font-family="Courier New" font-size="10.00" fill="green">S00_HIDDEN_4::M_DIGGABLE(&#39;IDV_CU_GRASSPATCH1&#39;,&#39;IDS_SANDWALL1&#39;,&#39;ISA_TOOL_STRIKER&#39;,&#39;S00_HIDDEN_4&#39;,&#39;&#39;,&#39;&#39;)</text>
<text text-anchor="start" x="353.75" y="-1778.75" font-family="Courier New" font-size="10.00" fill="green">{state:&#39;0&#39;: Top:100 Left:2464</text>
<polygon fill="none" stroke="black" points="347.75,-1769.5 347.75,-1840.5 971.75,-1840.5 971.75,-1769.5 347.75,-1769.5"/>
</g>
</g>
</svg>
