<?xml version="1.0" encoding="UTF-8" standalone="no"?>
<!DOCTYPE svg PUBLIC "-//W3C//DTD SVG 1.1//EN"
 "http://www.w3.org/Graphics/SVG/1.1/DTD/svg11.dtd">
<!-- Generated by graphviz version 10.0.1 (20240210.2158)
 -->
<!-- Title: Automaton Pages: 1 -->
<svg width="634pt" height="283pt"
 viewBox="0.00 0.00 634.00 282.50" xmlns="http://www.w3.org/2000/svg" xmlns:xlink="http://www.w3.org/1999/xlink">
<g id="graph0" class="graph" transform="scale(1 1) rotate(0) translate(4 278.5)">
<title>Automaton</title>
<polygon fill="white" stroke="none" points="-4,4 -4,-278.5 630,-278.5 630,4 -4,4"/>
<!-- filename -->
<g id="node1" class="node">
<title>filename</title>
<polygon fill="none" stroke="black" points="0,-207.75 0,-261.25 166,-261.25 166,-207.75 0,-207.75"/>
<polygon fill="none" stroke="black" points="11,-235.5 11,-254.25 155,-254.25 155,-235.5 11,-235.5"/>
<text text-anchor="start" x="14" y="-242.75" font-family="Courier New" font-weight="bold" font-size="10.00">S01_PLNTITSIOUS1::M_BIN</text>
<polygon fill="none" stroke="black" points="11,-214.75 11,-233.5 155,-233.5 155,-214.75 11,-214.75"/>
<text text-anchor="start" x="38" y="-221" font-family="Courier New" font-size="10.00" fill="brown">start state = 0</text>
<polygon fill="none" stroke="black" points="8,-211.75 8,-257.25 158,-257.25 158,-211.75 8,-211.75"/>
</g>
<!-- 0 -->
<g id="node2" class="node">
<title>0</title>
<polyline fill="none" stroke="darkred" points="203.88,-223.25 218.12,-223.25"/>
<text text-anchor="start" x="206.88" y="-230.45" font-family="Courier New" font-weight="bold" font-size="14.00">0</text>
<path fill="none" stroke="darkred" d="M207.62,-220.25C207.62,-220.25 214.38,-220.25 214.38,-220.25 217.75,-220.25 221.12,-223.62 221.12,-227 221.12,-227 221.12,-242 221.12,-242 221.12,-245.38 217.75,-248.75 214.38,-248.75 214.38,-248.75 207.62,-248.75 207.62,-248.75 204.25,-248.75 200.88,-245.38 200.88,-242 200.88,-242 200.88,-227 200.88,-227 200.88,-223.62 204.25,-220.25 207.62,-220.25"/>
</g>
<!-- 1 -->
<g id="node3" class="node">
<title>1</title>
<polyline fill="none" stroke="darkred" points="203.88,-108.25 218.12,-108.25"/>
<text text-anchor="start" x="206.88" y="-115.45" font-family="Courier New" font-weight="bold" font-size="14.00">1</text>
<path fill="none" stroke="darkred" d="M207.62,-105.25C207.62,-105.25 214.38,-105.25 214.38,-105.25 217.75,-105.25 221.12,-108.62 221.12,-112 221.12,-112 221.12,-127 221.12,-127 221.12,-130.38 217.75,-133.75 214.38,-133.75 214.38,-133.75 207.62,-133.75 207.62,-133.75 204.25,-133.75 200.88,-130.38 200.88,-127 200.88,-127 200.88,-112 200.88,-112 200.88,-108.62 204.25,-105.25 207.62,-105.25"/>
</g>
<!-- 0&#45;&gt;1 -->
<g id="edge1" class="edge">
<title>0&#45;&gt;1</title>
<path fill="none" stroke="black" d="M211,-216.34C211,-198.4 211,-169.95 211,-148.7"/>
<polygon fill="black" stroke="black" points="214.5,-148.97 211,-138.97 207.5,-148.97 214.5,-148.97"/>
<text text-anchor="start" x="215" y="-164" font-family="Courier New" font-weight="bold" font-size="10.00" fill="blue">O_ACCEPT(WIP1,)</text>
</g>
<!-- 10 -->
<g id="node4" class="node">
<title>10</title>
<polyline fill="none" stroke="darkred" stroke-width="3" points="199.25,-10.5 222.75,-10.5"/>
<text text-anchor="start" x="202.75" y="-18.2" font-family="Courier New" font-weight="bold" font-size="14.00">10</text>
<path fill="none" stroke="darkred" stroke-width="3" d="M205.42,-5.5C205.42,-5.5 216.58,-5.5 216.58,-5.5 222.17,-5.5 227.75,-11.08 227.75,-16.67 227.75,-16.67 227.75,-27.83 227.75,-27.83 227.75,-33.42 222.17,-39 216.58,-39 216.58,-39 205.42,-39 205.42,-39 199.83,-39 194.25,-33.42 194.25,-27.83 194.25,-27.83 194.25,-16.67 194.25,-16.67 194.25,-11.08 199.83,-5.5 205.42,-5.5"/>
</g>
<!-- 1&#45;&gt;10 -->
<g id="edge2" class="edge">
<title>1&#45;&gt;10</title>
<path fill="none" stroke="black" d="M211,-101.47C211,-88.76 211,-71.02 211,-55.64"/>
<polygon fill="black" stroke="black" points="214.5,-55.98 211,-45.98 207.5,-55.98 214.5,-55.98"/>
<text text-anchor="start" x="215" y="-70.75" font-family="Courier New" font-weight="bold" font-size="10.00" fill="blue">SHOW(WIP2,)</text>
</g>
<!-- 10&#45;&gt;10 -->
<g id="edge3" class="edge">
<title>10&#45;&gt;10</title>
<path fill="none" stroke="black" d="M237.79,-26.99C247.78,-27.14 256,-25.56 256,-22.25 256,-20.34 253.25,-19 249.01,-18.24"/>
<polygon fill="black" stroke="black" points="249.51,-14.77 239.31,-17.61 249.06,-21.75 249.51,-14.77"/>
<text text-anchor="start" x="260" y="-20.12" font-family="Courier New" font-weight="bold" font-size="10.00" fill="orange">DROP(0,0)</text>
</g>
<!-- 10&#45;&gt;10 -->
<g id="edge4" class="edge">
<title>10&#45;&gt;10</title>
<path fill="none" stroke="black" d="M237.88,-29.55C270.88,-34.05 318,-31.62 318,-22.25 318,-13.91 280.62,-11.06 249.13,-13.72"/>
<polygon fill="black" stroke="black" points="248.94,-10.22 239.38,-14.78 249.7,-17.18 248.94,-10.22"/>
<text text-anchor="start" x="322" y="-20.12" font-family="Courier New" font-weight="bold" font-size="10.00" fill="orange">GRAB(WIP1,)</text>
</g>
<!-- status -->
<g id="node5" class="node">
<title>status</title>
<polygon fill="none" stroke="black" points="256,-195 256,-274 626,-274 626,-195 256,-195"/>
<polygon fill="none" stroke="black" points="267,-248.25 267,-267 615,-267 615,-248.25 267,-248.25"/>
<text text-anchor="start" x="393" y="-255.5" font-family="Courier New" font-weight="bold" font-size="10.00">S01_PLNTITSIOUS1</text>
<polygon fill="none" stroke="black" points="267,-202 267,-246.25 615,-246.25 615,-202 267,-202"/>
<text text-anchor="start" x="270" y="-233.75" font-family="Courier New" font-size="10.00" fill="green">VIEW::IDV_TMPLPTH4 @pos(x:2570, y:160, w:52, h:158)</text>
<text text-anchor="start" x="270" y="-221" font-family="Courier New" font-size="10.00" fill="green">S01_PLNTITSIOUS1::M_BIN(&#39;IDD_BLUEBERRY&#39;,&#39;&#39;,&#39;60&#39;,&#39;&#39;,&#39;&#39;,&#39;&#39;)</text>
<text text-anchor="start" x="270" y="-208.25" font-family="Courier New" font-size="10.00" fill="green">{state:&#39;10&#39;: wAccept:IDD_BLUEBERRY Top:160 Left:2570</text>
<polygon fill="none" stroke="black" points="264,-199 264,-270 618,-270 618,-199 264,-199"/>
</g>
</g>
</svg>
