<?xml version="1.0" encoding="UTF-8" standalone="no"?>
<!DOCTYPE svg PUBLIC "-//W3C//DTD SVG 1.1//EN"
 "http://www.w3.org/Graphics/SVG/1.1/DTD/svg11.dtd">
<!-- Generated by graphviz version 10.0.1 (20240210.2158)
 -->
<!-- Title: Automaton Pages: 1 -->
<svg width="646pt" height="275pt"
 viewBox="0.00 0.00 646.00 274.50" xmlns="http://www.w3.org/2000/svg" xmlns:xlink="http://www.w3.org/1999/xlink">
<g id="graph0" class="graph" transform="scale(1 1) rotate(0) translate(4 270.5)">
<title>Automaton</title>
<polygon fill="white" stroke="none" points="-4,4 -4,-270.5 642,-270.5 642,4 -4,4"/>
<!-- filename -->
<g id="node1" class="node">
<title>filename</title>
<polygon fill="none" stroke="black" points="0,-199.75 0,-253.25 166,-253.25 166,-199.75 0,-199.75"/>
<polygon fill="none" stroke="black" points="11,-227.5 11,-246.25 155,-246.25 155,-227.5 11,-227.5"/>
<text text-anchor="start" x="14" y="-234.75" font-family="Courier New" font-weight="bold" font-size="10.00">S03_BIRDSBKWD::M_VPLAY3</text>
<polygon fill="none" stroke="black" points="11,-206.75 11,-225.5 155,-225.5 155,-206.75 11,-206.75"/>
<text text-anchor="start" x="38" y="-213" font-family="Courier New" font-size="10.00" fill="brown">start state = 0</text>
<polygon fill="none" stroke="black" points="8,-203.75 8,-249.25 158,-249.25 158,-203.75 8,-203.75"/>
</g>
<!-- 0 -->
<g id="node2" class="node">
<title>0</title>
<polyline fill="none" stroke="darkred" stroke-width="3" points="203.38,-214.75 218.62,-214.75"/>
<text text-anchor="start" x="206.88" y="-222.45" font-family="Courier New" font-weight="bold" font-size="14.00">0</text>
<path fill="none" stroke="darkred" stroke-width="3" d="M206.79,-209.75C206.79,-209.75 215.21,-209.75 215.21,-209.75 219.42,-209.75 223.62,-213.96 223.62,-218.17 223.62,-218.17 223.62,-234.83 223.62,-234.83 223.62,-239.04 219.42,-243.25 215.21,-243.25 215.21,-243.25 206.79,-243.25 206.79,-243.25 202.58,-243.25 198.38,-239.04 198.38,-234.83 198.38,-234.83 198.38,-218.17 198.38,-218.17 198.38,-213.96 202.58,-209.75 206.79,-209.75"/>
</g>
<!-- 1 -->
<g id="node3" class="node">
<title>1</title>
<polyline fill="none" stroke="darkred" points="128.88,-100.25 143.12,-100.25"/>
<text text-anchor="start" x="131.88" y="-107.45" font-family="Courier New" font-weight="bold" font-size="14.00">1</text>
<path fill="none" stroke="darkred" d="M132.62,-97.25C132.62,-97.25 139.38,-97.25 139.38,-97.25 142.75,-97.25 146.12,-100.62 146.12,-104 146.12,-104 146.12,-119 146.12,-119 146.12,-122.38 142.75,-125.75 139.38,-125.75 139.38,-125.75 132.62,-125.75 132.62,-125.75 129.25,-125.75 125.88,-122.38 125.88,-119 125.88,-119 125.88,-104 125.88,-104 125.88,-100.62 129.25,-97.25 132.62,-97.25"/>
</g>
<!-- 0&#45;&gt;1 -->
<g id="edge1" class="edge">
<title>0&#45;&gt;1</title>
<path fill="none" stroke="black" d="M191.45,-204.33C178.17,-189.82 162.55,-172.5 160,-168.5 154.36,-159.65 149.49,-149.25 145.64,-139.84"/>
<polygon fill="black" stroke="black" points="149.01,-138.86 142.14,-130.79 142.48,-141.38 149.01,-138.86"/>
<text text-anchor="start" x="164" y="-156" font-family="Courier New" font-weight="bold" font-size="10.00" fill="orange">WAIT(0,SIG_OPEN)</text>
</g>
<!-- 2 -->
<g id="node4" class="node">
<title>2</title>
<polyline fill="none" stroke="darkred" points="195.88,-7 210.12,-7"/>
<text text-anchor="start" x="198.88" y="-14.2" font-family="Courier New" font-weight="bold" font-size="14.00">2</text>
<path fill="none" stroke="darkred" d="M199.62,-4C199.62,-4 206.38,-4 206.38,-4 209.75,-4 213.12,-7.38 213.12,-10.75 213.12,-10.75 213.12,-25.75 213.12,-25.75 213.12,-29.12 209.75,-32.5 206.38,-32.5 206.38,-32.5 199.62,-32.5 199.62,-32.5 196.25,-32.5 192.88,-29.12 192.88,-25.75 192.88,-25.75 192.88,-10.75 192.88,-10.75 192.88,-7.38 196.25,-4 199.62,-4"/>
</g>
<!-- 1&#45;&gt;2 -->
<g id="edge2" class="edge">
<title>1&#45;&gt;2</title>
<path fill="none" stroke="black" d="M128.86,-93.31C125.16,-81.53 122.78,-66.01 130,-54.5 137.97,-41.8 151.95,-33.57 165.55,-28.28"/>
<polygon fill="black" stroke="black" points="166.48,-31.66 174.83,-25.13 164.23,-25.03 166.48,-31.66"/>
<text text-anchor="start" x="134" y="-62.75" font-family="Courier New" font-weight="bold" font-size="10.00" fill="blue">SHOW(0,IDS_BIRDSBKWD)</text>
</g>
<!-- 2&#45;&gt;0 -->
<g id="edge3" class="edge">
<title>2&#45;&gt;0</title>
<path fill="none" stroke="black" d="M229.83,-27.63C242.57,-33.11 256.6,-41.68 264,-54.5 289.32,-98.38 282.72,-121.42 264,-168.5 259.93,-178.73 254.51,-178.46 247,-186.5 244.13,-189.58 241.13,-192.8 238.15,-196.01"/>
<polygon fill="black" stroke="black" points="235.63,-193.58 231.41,-203.3 240.77,-198.33 235.63,-193.58"/>
<text text-anchor="start" x="284" y="-109.38" font-family="Courier New" font-weight="bold" font-size="10.00" fill="blue">ANIMATE(0,0)</text>
</g>
<!-- status -->
<g id="node5" class="node">
<title>status</title>
<polygon fill="none" stroke="black" points="256,-187 256,-266 638,-266 638,-187 256,-187"/>
<polygon fill="none" stroke="black" points="267,-240.25 267,-259 627,-259 627,-240.25 267,-240.25"/>
<text text-anchor="start" x="408" y="-247.5" font-family="Courier New" font-weight="bold" font-size="10.00">S03_BIRDSBKWD</text>
<polygon fill="none" stroke="black" points="267,-194 267,-238.25 627,-238.25 627,-194 267,-194"/>
<text text-anchor="start" x="270" y="-225.75" font-family="Courier New" font-size="10.00" fill="green">VIEW::IDV_GRNDCNT1 @pos(x:1940, y:2, w:198, h:160)</text>
<text text-anchor="start" x="270" y="-213" font-family="Courier New" font-size="10.00" fill="green">S03_BIRDSBKWD::M_VPLAY3(&#39;IDS_BIRDSBKWD&#39;,&#39;&#39;,&#39;&#39;,&#39;&#39;,&#39;&#39;,&#39;&#39;)</text>
<text text-anchor="start" x="270" y="-200.25" font-family="Courier New" font-size="10.00" fill="green">{state:&#39;0&#39;: wSprite:IDS_BIRDSBKWD bFrame:70 Top:2 Left:1940</text>
<polygon fill="none" stroke="black" points="264,-191 264,-262 630,-262 630,-191 264,-191"/>
</g>
</g>
</svg>
