<?xml version="1.0" encoding="UTF-8" standalone="no"?>
<!DOCTYPE svg PUBLIC "-//W3C//DTD SVG 1.1//EN"
 "http://www.w3.org/Graphics/SVG/1.1/DTD/svg11.dtd">
<!-- Generated by graphviz version 10.0.1 (20240210.2158)
 -->
<!-- Title: Automaton Pages: 1 -->
<svg width="881pt" height="655pt"
 viewBox="0.00 0.00 880.91 655.00" xmlns="http://www.w3.org/2000/svg" xmlns:xlink="http://www.w3.org/1999/xlink">
<g id="graph0" class="graph" transform="scale(1 1) rotate(0) translate(4 651)">
<title>Automaton</title>
<polygon fill="white" stroke="none" points="-4,4 -4,-651 876.91,-651 876.91,4 -4,4"/>
<!-- filename -->
<g id="node1" class="node">
<title>filename</title>
<polygon fill="none" stroke="black" points="162.91,-580.25 162.91,-633.75 346.91,-633.75 346.91,-580.25 162.91,-580.25"/>
<polygon fill="none" stroke="black" points="173.91,-608 173.91,-626.75 335.91,-626.75 335.91,-608 173.91,-608"/>
<text text-anchor="start" x="176.91" y="-615.25" font-family="Courier New" font-weight="bold" font-size="10.00">S03_DOORANIM::M_QANIPORTAL</text>
<polygon fill="none" stroke="black" points="173.91,-587.25 173.91,-606 335.91,-606 335.91,-587.25 173.91,-587.25"/>
<text text-anchor="start" x="209.91" y="-593.5" font-family="Courier New" font-size="10.00" fill="brown">start state = 0</text>
<polygon fill="none" stroke="black" points="170.91,-584.25 170.91,-629.75 338.91,-629.75 338.91,-584.25 170.91,-584.25"/>
</g>
<!-- 0 -->
<g id="node2" class="node">
<title>0</title>
<polyline fill="none" stroke="darkred" points="384.78,-595.75 399.03,-595.75"/>
<text text-anchor="start" x="387.78" y="-602.95" font-family="Courier New" font-weight="bold" font-size="14.00">0</text>
<path fill="none" stroke="darkred" d="M388.53,-592.75C388.53,-592.75 395.28,-592.75 395.28,-592.75 398.66,-592.75 402.03,-596.12 402.03,-599.5 402.03,-599.5 402.03,-614.5 402.03,-614.5 402.03,-617.88 398.66,-621.25 395.28,-621.25 395.28,-621.25 388.53,-621.25 388.53,-621.25 385.16,-621.25 381.78,-617.88 381.78,-614.5 381.78,-614.5 381.78,-599.5 381.78,-599.5 381.78,-596.12 385.16,-592.75 388.53,-592.75"/>
</g>
<!-- 1 -->
<g id="node3" class="node">
<title>1</title>
<polyline fill="none" stroke="darkred" stroke-width="3" points="384.28,-476.25 399.53,-476.25"/>
<text text-anchor="start" x="387.78" y="-483.95" font-family="Courier New" font-weight="bold" font-size="14.00">1</text>
<path fill="none" stroke="darkred" stroke-width="3" d="M387.7,-471.25C387.7,-471.25 396.12,-471.25 396.12,-471.25 400.33,-471.25 404.53,-475.46 404.53,-479.67 404.53,-479.67 404.53,-496.33 404.53,-496.33 404.53,-500.54 400.33,-504.75 396.12,-504.75 396.12,-504.75 387.7,-504.75 387.7,-504.75 383.49,-504.75 379.28,-500.54 379.28,-496.33 379.28,-496.33 379.28,-479.67 379.28,-479.67 379.28,-475.46 383.49,-471.25 387.7,-471.25"/>
</g>
<!-- 0&#45;&gt;1 -->
<g id="edge1" class="edge">
<title>0&#45;&gt;1</title>
<path fill="none" stroke="black" d="M391.91,-588.99C391.91,-571.34 391.91,-543.32 391.91,-521.42"/>
<polygon fill="black" stroke="black" points="395.41,-521.51 391.91,-511.51 388.41,-521.51 395.41,-521.51"/>
<text text-anchor="start" x="395.91" y="-536.5" font-family="Courier New" font-weight="bold" font-size="10.00" fill="blue">MOV(WSPRITE,WIP1)</text>
</g>
<!-- 10 -->
<g id="node4" class="node">
<title>10</title>
<polyline fill="none" stroke="darkred" points="380.66,-379.5 403.16,-379.5"/>
<text text-anchor="start" x="383.66" y="-386.7" font-family="Courier New" font-weight="bold" font-size="14.00">10</text>
<path fill="none" stroke="darkred" d="M387.16,-376.5C387.16,-376.5 396.66,-376.5 396.66,-376.5 401.41,-376.5 406.16,-381.25 406.16,-386 406.16,-386 406.16,-395.5 406.16,-395.5 406.16,-400.25 401.41,-405 396.66,-405 396.66,-405 387.16,-405 387.16,-405 382.41,-405 377.66,-400.25 377.66,-395.5 377.66,-395.5 377.66,-386 377.66,-386 377.66,-381.25 382.41,-376.5 387.16,-376.5"/>
</g>
<!-- 1&#45;&gt;10 -->
<g id="edge2" class="edge">
<title>1&#45;&gt;10</title>
<path fill="none" stroke="black" d="M391.91,-465.86C391.91,-452.42 391.91,-434.84 391.91,-420.18"/>
<polygon fill="black" stroke="black" points="395.41,-420.22 391.91,-410.22 388.41,-420.22 395.41,-420.22"/>
<text text-anchor="start" x="395.91" y="-435.25" font-family="Courier New" font-weight="bold" font-size="10.00" fill="orange">WAIT(,SIG_UNLOCK)</text>
</g>
<!-- 20 -->
<g id="node5" class="node">
<title>20</title>
<polyline fill="none" stroke="darkred" points="416.66,-206 439.16,-206"/>
<text text-anchor="start" x="419.66" y="-213.2" font-family="Courier New" font-weight="bold" font-size="14.00">20</text>
<path fill="none" stroke="darkred" d="M423.16,-203C423.16,-203 432.66,-203 432.66,-203 437.41,-203 442.16,-207.75 442.16,-212.5 442.16,-212.5 442.16,-222 442.16,-222 442.16,-226.75 437.41,-231.5 432.66,-231.5 432.66,-231.5 423.16,-231.5 423.16,-231.5 418.41,-231.5 413.66,-226.75 413.66,-222 413.66,-222 413.66,-212.5 413.66,-212.5 413.66,-207.75 418.41,-203 423.16,-203"/>
</g>
<!-- 10&#45;&gt;20 -->
<g id="edge3" class="edge">
<title>10&#45;&gt;20</title>
<path fill="none" stroke="black" d="M390.02,-372.62C388.41,-353.69 387.16,-322.41 392.91,-296.25 396.8,-278.52 404.97,-259.93 412.43,-245.34"/>
<polygon fill="black" stroke="black" points="415.35,-247.31 416.96,-236.84 409.17,-244.02 415.35,-247.31"/>
<polygon fill="none" stroke="black" points="395.91,-332.75 395.91,-351.5 551.91,-351.5 551.91,-332.75 395.91,-332.75"/>
<text text-anchor="start" x="410.91" y="-340" font-family="Courier New" font-weight="bold" font-size="10.00" fill="blue">ASHOW(WSPRITE,V_LOOP)</text>
<polygon fill="none" stroke="black" points="395.91,-299.25 395.91,-330.75 551.91,-330.75 551.91,-299.25 395.91,-299.25"/>
<text text-anchor="start" x="398.91" y="-318.25" font-family="Courier New" font-size="10.00" fill="blue"> &#160;PLAYWAVE(SOUND_PORTAL);</text>
<text text-anchor="start" x="398.91" y="-305.5" font-family="Courier New" font-size="10.00" fill="blue"> </text>
<polygon fill="none" stroke="black" points="392.91,-296.25 392.91,-354.5 554.91,-354.5 554.91,-296.25 392.91,-296.25"/>
</g>
<!-- 30 -->
<g id="node6" class="node">
<title>30</title>
<polyline fill="none" stroke="darkred" points="81.66,-7 104.16,-7"/>
<text text-anchor="start" x="84.66" y="-14.2" font-family="Courier New" font-weight="bold" font-size="14.00">30</text>
<path fill="none" stroke="darkred" d="M88.16,-4C88.16,-4 97.66,-4 97.66,-4 102.41,-4 107.16,-8.75 107.16,-13.5 107.16,-13.5 107.16,-23 107.16,-23 107.16,-27.75 102.41,-32.5 97.66,-32.5 97.66,-32.5 88.16,-32.5 88.16,-32.5 83.41,-32.5 78.66,-27.75 78.66,-23 78.66,-23 78.66,-13.5 78.66,-13.5 78.66,-8.75 83.41,-4 88.16,-4"/>
</g>
<!-- 20&#45;&gt;30 -->
<g id="edge4" class="edge">
<title>20&#45;&gt;30</title>
<path fill="none" stroke="black" d="M419.88,-199.11C412.86,-185.78 401.5,-167.69 386.91,-156.25 368.98,-142.19 359.85,-147.22 338.91,-138.25 263.5,-105.95 177.72,-62.99 129.99,-38.51"/>
<polygon fill="black" stroke="black" points="131.67,-35.44 121.18,-33.98 128.47,-41.66 131.67,-35.44"/>
<text text-anchor="start" x="342.91" y="-94.25" font-family="Courier New" font-weight="bold" font-size="10.00" fill="orange">CLICK(0,0)</text>
</g>
<!-- 25 -->
<g id="node7" class="node">
<title>25</title>
<polyline fill="none" stroke="darkred" points="486.66,-7 509.16,-7"/>
<text text-anchor="start" x="489.66" y="-14.2" font-family="Courier New" font-weight="bold" font-size="14.00">25</text>
<path fill="none" stroke="darkred" d="M493.16,-4C493.16,-4 502.66,-4 502.66,-4 507.41,-4 512.16,-8.75 512.16,-13.5 512.16,-13.5 512.16,-23 512.16,-23 512.16,-27.75 507.41,-32.5 502.66,-32.5 502.66,-32.5 493.16,-32.5 493.16,-32.5 488.41,-32.5 483.66,-27.75 483.66,-23 483.66,-23 483.66,-13.5 483.66,-13.5 483.66,-8.75 488.41,-4 493.16,-4"/>
</g>
<!-- 20&#45;&gt;25 -->
<g id="edge5" class="edge">
<title>20&#45;&gt;25</title>
<path fill="none" stroke="black" d="M422.63,-199.09C414.06,-167.73 400.77,-100.16 428.91,-54.5 436.06,-42.9 448.36,-34.96 460.61,-29.6"/>
<polygon fill="black" stroke="black" points="461.74,-32.91 469.82,-26.07 459.23,-26.38 461.74,-32.91"/>
<polygon fill="none" stroke="black" points="431.91,-116.5 431.91,-135.25 551.91,-135.25 551.91,-116.5 431.91,-116.5"/>
<text text-anchor="start" x="446.91" y="-123.75" font-family="Courier New" font-weight="bold" font-size="10.00" fill="orange">WAIT(,SIG_LOCK)</text>
<polygon fill="none" stroke="black" points="431.91,-57.5 431.91,-114.5 551.91,-114.5 551.91,-57.5 431.91,-57.5"/>
<text text-anchor="start" x="434.91" y="-102" font-family="Courier New" font-size="10.00" fill="blue"> &#160;&#160;&#160;MOV(WSPRITE,0);</text>
<text text-anchor="start" x="434.91" y="-89.25" font-family="Courier New" font-size="10.00" fill="blue"> &#160;&#160;&#160;SHOW(0,0);</text>
<text text-anchor="start" x="434.91" y="-76.5" font-family="Courier New" font-size="10.00" fill="blue"> &#160;&#160;&#160;PLAYWAVE(0,0);</text>
<text text-anchor="start" x="434.91" y="-63.75" font-family="Courier New" font-size="10.00" fill="blue"> </text>
<polygon fill="none" stroke="black" points="428.91,-54.5 428.91,-138.25 554.91,-138.25 554.91,-54.5 428.91,-54.5"/>
</g>
<!-- 30&#45;&gt;10 -->
<g id="edge7" class="edge">
<title>30&#45;&gt;10</title>
<path fill="none" stroke="black" d="M79.07,-36.2C44.73,-80.38 -37.55,-201.05 19.91,-278.25 60.46,-332.74 267.62,-370.53 354.01,-384.15"/>
<polygon fill="black" stroke="black" points="353.21,-387.57 363.63,-385.64 354.29,-380.65 353.21,-387.57"/>
<polygon fill="none" stroke="black" points="22.91,-256.5 22.91,-275.25 388.91,-275.25 388.91,-256.5 22.91,-256.5"/>
<text text-anchor="start" x="160.91" y="-263.75" font-family="Courier New" font-weight="bold" font-size="10.00" fill="blue">LOADVIEW(WIP3,)</text>
<polygon fill="none" stroke="black" points="22.91,-159.25 22.91,-254.5 388.91,-254.5 388.91,-159.25 22.91,-159.25"/>
<text text-anchor="start" x="25.91" y="-242" font-family="Courier New" font-size="10.00" fill="blue"> &#160;&#160;&#160;ASSIGN(LTHETA,WIP4);</text>
<text text-anchor="start" x="25.91" y="-229.25" font-family="Courier New" font-size="10.00" fill="blue"> &#160;&#160;&#160;q_local_active(?BPARM, &quot;1&quot;);</text>
<text text-anchor="start" x="25.91" y="-216.5" font-family="Courier New" font-size="10.00" fill="blue"> &#160;&#160;&#160;if(BPARM != &quot; Find the ancient map in the wilderness.&quot;){</text>
<text text-anchor="start" x="25.91" y="-203.75" font-family="Courier New" font-size="10.00" fill="blue"> &#160;&#160;&#160;&#160;SIGNAL(QL_MANAGER,Q1_START);</text>
<text text-anchor="start" x="25.91" y="-191" font-family="Courier New" font-size="10.00" fill="blue"> &#160;&#160;&#160;}</text>
<text text-anchor="start" x="25.91" y="-178.25" font-family="Courier New" font-size="10.00" fill="blue"> &#160;&#160;&#160;SIGNAL(AUD_MUSIC_PLAYER, SIG_112);</text>
<text text-anchor="start" x="25.91" y="-165.5" font-family="Courier New" font-size="10.00" fill="blue"> </text>
<polygon fill="none" stroke="black" points="19.91,-156.25 19.91,-278.25 391.91,-278.25 391.91,-156.25 19.91,-156.25"/>
</g>
<!-- 25&#45;&gt;10 -->
<g id="edge6" class="edge">
<title>25&#45;&gt;10</title>
<path fill="none" stroke="black" d="M524.81,-28.91C536.23,-34.51 548.4,-42.81 554.91,-54.5 619.82,-170.97 638.64,-250.73 554.91,-354.5 539.5,-373.59 473.07,-382.85 429.91,-386.93"/>
<polygon fill="black" stroke="black" points="429.85,-383.43 420.2,-387.8 430.47,-390.4 429.85,-383.43"/>
<polygon fill="none" stroke="black" points="612.91,-224.62 612.91,-243.38 750.91,-243.38 750.91,-224.62 612.91,-224.62"/>
<text text-anchor="start" x="630.91" y="-231.88" font-family="Courier New" font-weight="bold" font-size="10.00" fill="orange">WAIT(,SIG_UNLOCK)</text>
<polygon fill="none" stroke="black" points="612.91,-191.12 612.91,-222.62 750.91,-222.62 750.91,-191.12 612.91,-191.12"/>
<text text-anchor="start" x="615.91" y="-210.12" font-family="Courier New" font-size="10.00" fill="blue"> &#160;&#160;&#160;MOV(WSPRITE,WIP1);</text>
<text text-anchor="start" x="615.91" y="-197.38" font-family="Courier New" font-size="10.00" fill="blue"> </text>
<polygon fill="none" stroke="black" points="609.91,-188.12 609.91,-246.38 753.91,-246.38 753.91,-188.12 609.91,-188.12"/>
</g>
<!-- status -->
<g id="node8" class="node">
<title>status</title>
<polygon fill="none" stroke="black" points="436.91,-567.5 436.91,-646.5 872.91,-646.5 872.91,-567.5 436.91,-567.5"/>
<polygon fill="none" stroke="black" points="447.91,-620.75 447.91,-639.5 861.91,-639.5 861.91,-620.75 447.91,-620.75"/>
<text text-anchor="start" x="618.91" y="-628" font-family="Courier New" font-weight="bold" font-size="10.00">S03_DOORANIM</text>
<polygon fill="none" stroke="black" points="447.91,-574.5 447.91,-618.75 861.91,-618.75 861.91,-574.5 447.91,-574.5"/>
<text text-anchor="start" x="450.91" y="-606.25" font-family="Courier New" font-size="10.00" fill="green">VIEW::IDV_ORIE @pos(x:305, y:55, w:205, h:101)</text>
<text text-anchor="start" x="450.91" y="-593.5" font-family="Courier New" font-size="10.00" fill="green">S03_DOORANIM::M_QANIPORTAL(&#39;IDS_DOORANIM&#39;,&#39;&#39;,&#39;IDV_N2A&#39;,&#39;9300&#39;,&#39;&#39;,&#39;&#39;)</text>
<text text-anchor="start" x="450.91" y="-580.75" font-family="Courier New" font-size="10.00" fill="green">{state:&#39;1&#39;: wSprite:IDS_DOORANIM Top:55 Left:305</text>
<polygon fill="none" stroke="black" points="444.91,-571.5 444.91,-642.5 864.91,-642.5 864.91,-571.5 444.91,-571.5"/>
</g>
</g>
</svg>
