<?xml version="1.0" encoding="UTF-8" standalone="no"?>
<!DOCTYPE svg PUBLIC "-//W3C//DTD SVG 1.1//EN"
 "http://www.w3.org/Graphics/SVG/1.1/DTD/svg11.dtd">
<!-- Generated by graphviz version 10.0.1 (20240210.2158)
 -->
<!-- Title: Automaton Pages: 1 -->
<svg width="881pt" height="647pt"
 viewBox="0.00 0.00 880.91 647.00" xmlns="http://www.w3.org/2000/svg" xmlns:xlink="http://www.w3.org/1999/xlink">
<g id="graph0" class="graph" transform="scale(1 1) rotate(0) translate(4 643)">
<title>Automaton</title>
<polygon fill="white" stroke="none" points="-4,4 -4,-643 876.91,-643 876.91,4 -4,4"/>
<!-- filename -->
<g id="node1" class="node">
<title>filename</title>
<polygon fill="none" stroke="black" points="162.91,-572.25 162.91,-625.75 346.91,-625.75 346.91,-572.25 162.91,-572.25"/>
<polygon fill="none" stroke="black" points="173.91,-600 173.91,-618.75 335.91,-618.75 335.91,-600 173.91,-600"/>
<text text-anchor="start" x="176.91" y="-607.25" font-family="Courier New" font-weight="bold" font-size="10.00">S03_DOORANIM::M_QANIPORTAL</text>
<polygon fill="none" stroke="black" points="173.91,-579.25 173.91,-598 335.91,-598 335.91,-579.25 173.91,-579.25"/>
<text text-anchor="start" x="209.91" y="-585.5" font-family="Courier New" font-size="10.00" fill="brown">start state = 0</text>
<polygon fill="none" stroke="black" points="170.91,-576.25 170.91,-621.75 338.91,-621.75 338.91,-576.25 170.91,-576.25"/>
</g>
<!-- 0 -->
<g id="node2" class="node">
<title>0</title>
<polyline fill="none" stroke="darkred" points="384.78,-587.75 399.03,-587.75"/>
<text text-anchor="start" x="387.78" y="-594.95" font-family="Courier New" font-weight="bold" font-size="14.00">0</text>
<path fill="none" stroke="darkred" d="M388.53,-584.75C388.53,-584.75 395.28,-584.75 395.28,-584.75 398.66,-584.75 402.03,-588.12 402.03,-591.5 402.03,-591.5 402.03,-606.5 402.03,-606.5 402.03,-609.88 398.66,-613.25 395.28,-613.25 395.28,-613.25 388.53,-613.25 388.53,-613.25 385.16,-613.25 381.78,-609.88 381.78,-606.5 381.78,-606.5 381.78,-591.5 381.78,-591.5 381.78,-588.12 385.16,-584.75 388.53,-584.75"/>
</g>
<!-- 1 -->
<g id="node3" class="node">
<title>1</title>
<polyline fill="none" stroke="darkred" points="384.78,-472.75 399.03,-472.75"/>
<text text-anchor="start" x="387.78" y="-479.95" font-family="Courier New" font-weight="bold" font-size="14.00">1</text>
<path fill="none" stroke="darkred" d="M388.53,-469.75C388.53,-469.75 395.28,-469.75 395.28,-469.75 398.66,-469.75 402.03,-473.12 402.03,-476.5 402.03,-476.5 402.03,-491.5 402.03,-491.5 402.03,-494.88 398.66,-498.25 395.28,-498.25 395.28,-498.25 388.53,-498.25 388.53,-498.25 385.16,-498.25 381.78,-494.88 381.78,-491.5 381.78,-491.5 381.78,-476.5 381.78,-476.5 381.78,-473.12 385.16,-469.75 388.53,-469.75"/>
</g>
<!-- 0&#45;&gt;1 -->
<g id="edge1" class="edge">
<title>0&#45;&gt;1</title>
<path fill="none" stroke="black" d="M391.91,-580.84C391.91,-562.9 391.91,-534.45 391.91,-513.2"/>
<polygon fill="black" stroke="black" points="395.41,-513.47 391.91,-503.47 388.41,-513.47 395.41,-513.47"/>
<text text-anchor="start" x="395.91" y="-528.5" font-family="Courier New" font-weight="bold" font-size="10.00" fill="blue">MOV(WSPRITE,WIP1)</text>
</g>
<!-- 10 -->
<g id="node4" class="node">
<title>10</title>
<polyline fill="none" stroke="darkred" points="380.66,-379.5 403.16,-379.5"/>
<text text-anchor="start" x="383.66" y="-386.7" font-family="Courier New" font-weight="bold" font-size="14.00">10</text>
<path fill="none" stroke="darkred" d="M387.16,-376.5C387.16,-376.5 396.66,-376.5 396.66,-376.5 401.41,-376.5 406.16,-381.25 406.16,-386 406.16,-386 406.16,-395.5 406.16,-395.5 406.16,-400.25 401.41,-405 396.66,-405 396.66,-405 387.16,-405 387.16,-405 382.41,-405 377.66,-400.25 377.66,-395.5 377.66,-395.5 377.66,-386 377.66,-386 377.66,-381.25 382.41,-376.5 387.16,-376.5"/>
</g>
<!-- 1&#45;&gt;10 -->
<g id="edge2" class="edge">
<title>1&#45;&gt;10</title>
<path fill="none" stroke="black" d="M391.91,-465.84C391.91,-452.96 391.91,-435.06 391.91,-420.07"/>
<polygon fill="black" stroke="black" points="395.41,-420.35 391.91,-410.35 388.41,-420.35 395.41,-420.35"/>
<text text-anchor="start" x="395.91" y="-435.25" font-family="Courier New" font-weight="bold" font-size="10.00" fill="orange">WAIT(,SIG_UNLOCK)</text>
</g>
<!-- 20 -->
<g id="node5" class="node">
<title>20</title>
<polyline fill="none" stroke="darkred" stroke-width="3" points="416.16,-205.5 439.66,-205.5"/>
<text text-anchor="start" x="419.66" y="-213.2" font-family="Courier New" font-weight="bold" font-size="14.00">20</text>
<path fill="none" stroke="darkred" stroke-width="3" d="M422.33,-200.5C422.33,-200.5 433.49,-200.5 433.49,-200.5 439.08,-200.5 444.66,-206.08 444.66,-211.67 444.66,-211.67 444.66,-222.83 444.66,-222.83 444.66,-228.42 439.08,-234 433.49,-234 433.49,-234 422.33,-234 422.33,-234 416.74,-234 411.16,-228.42 411.16,-222.83 411.16,-222.83 411.16,-211.67 411.16,-211.67 411.16,-206.08 416.74,-200.5 422.33,-200.5"/>
</g>
<!-- 10&#45;&gt;20 -->
<g id="edge3" class="edge">
<title>10&#45;&gt;20</title>
<path fill="none" stroke="black" d="M390.02,-372.62C388.41,-353.69 387.16,-322.41 392.91,-296.25 396.46,-280.08 403.57,-263.19 410.45,-249.28"/>
<polygon fill="black" stroke="black" points="413.44,-251.12 414.92,-240.63 407.22,-247.91 413.44,-251.12"/>
<polygon fill="none" stroke="black" points="395.91,-332.75 395.91,-351.5 551.91,-351.5 551.91,-332.75 395.91,-332.75"/>
<text text-anchor="start" x="410.91" y="-340" font-family="Courier New" font-weight="bold" font-size="10.00" fill="blue">ASHOW(WSPRITE,V_LOOP)</text>
<polygon fill="none" stroke="black" points="395.91,-299.25 395.91,-330.75 551.91,-330.75 551.91,-299.25 395.91,-299.25"/>
<text text-anchor="start" x="398.91" y="-318.25" font-family="Courier New" font-size="10.00" fill="blue"> &#160;PLAYWAVE(SOUND_PORTAL);</text>
<text text-anchor="start" x="398.91" y="-305.5" font-family="Courier New" font-size="10.00" fill="blue"> </text>
<polygon fill="none" stroke="black" points="392.91,-296.25 392.91,-354.5 554.91,-354.5 554.91,-296.25 392.91,-296.25"/>
</g>
<!-- 30 -->
<g id="node6" class="node">
<title>30</title>
<polyline fill="none" stroke="darkred" points="81.66,-7 104.16,-7"/>
<text text-anchor="start" x="84.66" y="-14.2" font-family="Courier New" font-weight="bold" font-size="14.00">30</text>
<path fill="none" stroke="darkred" d="M88.16,-4C88.16,-4 97.66,-4 97.66,-4 102.41,-4 107.16,-8.75 107.16,-13.5 107.16,-13.5 107.16,-23 107.16,-23 107.16,-27.75 102.41,-32.5 97.66,-32.5 97.66,-32.5 88.16,-32.5 88.16,-32.5 83.41,-32.5 78.66,-27.75 78.66,-23 78.66,-23 78.66,-13.5 78.66,-13.5 78.66,-8.75 83.41,-4 88.16,-4"/>
</g>
<!-- 20&#45;&gt;30 -->
<g id="edge4" class="edge">
<title>20&#45;&gt;30</title>
<path fill="none" stroke="black" d="M417.75,-195.18C410.66,-182.4 400.11,-166.6 386.91,-156.25 368.98,-142.19 359.85,-147.22 338.91,-138.25 263.5,-105.95 177.72,-62.99 129.99,-38.51"/>
<polygon fill="black" stroke="black" points="131.67,-35.44 121.18,-33.98 128.47,-41.66 131.67,-35.44"/>
<text text-anchor="start" x="342.91" y="-94.25" font-family="Courier New" font-weight="bold" font-size="10.00" fill="orange">CLICK(0,0)</text>
</g>
<!-- 25 -->
<g id="node7" class="node">
<title>25</title>
<polyline fill="none" stroke="darkred" points="486.66,-7 509.16,-7"/>
<text text-anchor="start" x="489.66" y="-14.2" font-family="Courier New" font-weight="bold" font-size="14.00">25</text>
<path fill="none" stroke="darkred" d="M493.16,-4C493.16,-4 502.66,-4 502.66,-4 507.41,-4 512.16,-8.75 512.16,-13.5 512.16,-13.5 512.16,-23 512.16,-23 512.16,-27.75 507.41,-32.5 502.66,-32.5 502.66,-32.5 493.16,-32.5 493.16,-32.5 488.41,-32.5 483.66,-27.75 483.66,-23 483.66,-23 483.66,-13.5 483.66,-13.5 483.66,-8.75 488.41,-4 493.16,-4"/>
</g>
<!-- 20&#45;&gt;25 -->
<g id="edge5" class="edge">
<title>20&#45;&gt;25</title>
<path fill="none" stroke="black" d="M421.6,-195.23C413.08,-162.45 401.87,-98.37 428.91,-54.5 436.06,-42.9 448.36,-34.96 460.61,-29.6"/>
<polygon fill="black" stroke="black" points="461.74,-32.91 469.82,-26.07 459.23,-26.38 461.74,-32.91"/>
<polygon fill="none" stroke="black" points="431.91,-116.5 431.91,-135.25 551.91,-135.25 551.91,-116.5 431.91,-116.5"/>
<text text-anchor="start" x="446.91" y="-123.75" font-family="Courier New" font-weight="bold" font-size="10.00" fill="orange">WAIT(,SIG_LOCK)</text>
<polygon fill="none" stroke="black" points="431.91,-57.5 431.91,-114.5 551.91,-114.5 551.91,-57.5 431.91,-57.5"/>
<text text-anchor="start" x="434.91" y="-102" font-family="Courier New" font-size="10.00" fill="blue"> &#160;&#160;&#160;MOV(WSPRITE,0);</text>
<text text-anchor="start" x="434.91" y="-89.25" font-family="Courier New" font-size="10.00" fill="blue"> &#160;&#160;&#160;SHOW(0,0);</text>
<text text-anchor="start" x="434.91" y="-76.5" font-family="Courier New" font-size="10.00" fill="blue"> &#160;&#160;&#160;PLAYWAVE(0,0);</text>
<text text-anchor="start" x="434.91" y="-63.75" font-family="Courier New" font-size="10.00" fill="blue"> </text>
<polygon fill="none" stroke="black" points="428.91,-54.5 428.91,-138.25 554.91,-138.25 554.91,-54.5 428.91,-54.5"/>
</g>
<!-- 30&#45;&gt;10 -->
<g id="edge7" class="edge">
<title>30&#45;&gt;10</title>
<path fill="none" stroke="black" d="M79.07,-36.2C44.73,-80.38 -37.55,-201.05 19.91,-278.25 60.46,-332.74 267.62,-370.53 354.01,-384.15"/>
<polygon fill="black" stroke="black" points="353.21,-387.57 363.63,-385.64 354.29,-380.65 353.21,-387.57"/>
<polygon fill="none" stroke="black" points="22.91,-256.5 22.91,-275.25 388.91,-275.25 388.91,-256.5 22.91,-256.5"/>
<text text-anchor="start" x="160.91" y="-263.75" font-family="Courier New" font-weight="bold" font-size="10.00" fill="blue">LOADVIEW(WIP3,)</text>
<polygon fill="none" stroke="black" points="22.91,-159.25 22.91,-254.5 388.91,-254.5 388.91,-159.25 22.91,-159.25"/>
<text text-anchor="start" x="25.91" y="-242" font-family="Courier New" font-size="10.00" fill="blue"> &#160;&#160;&#160;ASSIGN(LTHETA,WIP4);</text>
<text text-anchor="start" x="25.91" y="-229.25" font-family="Courier New" font-size="10.00" fill="blue"> &#160;&#160;&#160;q_local_active(?BPARM, &quot;1&quot;);</text>
<text text-anchor="start" x="25.91" y="-216.5" font-family="Courier New" font-size="10.00" fill="blue"> &#160;&#160;&#160;if(BPARM != &quot; Find the ancient map in the wilderness.&quot;){</text>
<text text-anchor="start" x="25.91" y="-203.75" font-family="Courier New" font-size="10.00" fill="blue"> &#160;&#160;&#160;&#160;SIGNAL(QL_MANAGER,Q1_START);</text>
<text text-anchor="start" x="25.91" y="-191" font-family="Courier New" font-size="10.00" fill="blue"> &#160;&#160;&#160;}</text>
<text text-anchor="start" x="25.91" y="-178.25" font-family="Courier New" font-size="10.00" fill="blue"> &#160;&#160;</text>
<text text-anchor="start" x="25.91" y="-165.5" font-family="Courier New" font-size="10.00" fill="blue"> </text>
<polygon fill="none" stroke="black" points="19.91,-156.25 19.91,-278.25 391.91,-278.25 391.91,-156.25 19.91,-156.25"/>
</g>
<!-- 25&#45;&gt;10 -->
<g id="edge6" class="edge">
<title>25&#45;&gt;10</title>
<path fill="none" stroke="black" d="M524.81,-28.91C536.23,-34.51 548.4,-42.81 554.91,-54.5 619.82,-170.97 638.64,-250.73 554.91,-354.5 539.5,-373.59 473.07,-382.85 429.91,-386.93"/>
<polygon fill="black" stroke="black" points="429.85,-383.43 420.2,-387.8 430.47,-390.4 429.85,-383.43"/>
<polygon fill="none" stroke="black" points="612.91,-224.62 612.91,-243.38 750.91,-243.38 750.91,-224.62 612.91,-224.62"/>
<text text-anchor="start" x="630.91" y="-231.88" font-family="Courier New" font-weight="bold" font-size="10.00" fill="orange">WAIT(,SIG_UNLOCK)</text>
<polygon fill="none" stroke="black" points="612.91,-191.12 612.91,-222.62 750.91,-222.62 750.91,-191.12 612.91,-191.12"/>
<text text-anchor="start" x="615.91" y="-210.12" font-family="Courier New" font-size="10.00" fill="blue"> &#160;&#160;&#160;MOV(WSPRITE,WIP1);</text>
<text text-anchor="start" x="615.91" y="-197.38" font-family="Courier New" font-size="10.00" fill="blue"> </text>
<polygon fill="none" stroke="black" points="609.91,-188.12 609.91,-246.38 753.91,-246.38 753.91,-188.12 609.91,-188.12"/>
</g>
<!-- status -->
<g id="node8" class="node">
<title>status</title>
<polygon fill="none" stroke="black" points="436.91,-559.5 436.91,-638.5 872.91,-638.5 872.91,-559.5 436.91,-559.5"/>
<polygon fill="none" stroke="black" points="447.91,-612.75 447.91,-631.5 861.91,-631.5 861.91,-612.75 447.91,-612.75"/>
<text text-anchor="start" x="618.91" y="-620" font-family="Courier New" font-weight="bold" font-size="10.00">S03_DOORANIM</text>
<polygon fill="none" stroke="black" points="447.91,-566.5 447.91,-610.75 861.91,-610.75 861.91,-566.5 447.91,-566.5"/>
<text text-anchor="start" x="450.91" y="-598.25" font-family="Courier New" font-size="10.00" fill="green">VIEW::IDV_ORIE @pos(x:305, y:55, h:101, w:205)</text>
<text text-anchor="start" x="450.91" y="-585.5" font-family="Courier New" font-size="10.00" fill="green">S03_DOORANIM::M_QANIPORTAL(&#39;IDS_DOORANIM&#39;,&#39;&#39;,&#39;IDV_N2A&#39;,&#39;9300&#39;,&#39;&#39;,&#39;&#39;)</text>
<text text-anchor="start" x="450.91" y="-572.75" font-family="Courier New" font-size="10.00" fill="green">{state:&#39;20&#39;: wSprite:IDS_DOORANIM Top:55 Left:305 Z:0</text>
<polygon fill="none" stroke="black" points="444.91,-563.5 444.91,-634.5 864.91,-634.5 864.91,-563.5 444.91,-563.5"/>
</g>
</g>
</svg>
