<?xml version="1.0" encoding="UTF-8" standalone="no"?>
<!DOCTYPE svg PUBLIC "-//W3C//DTD SVG 1.1//EN"
 "http://www.w3.org/Graphics/SVG/1.1/DTD/svg11.dtd">
<!-- Generated by graphviz version 10.0.1 (20240210.2158)
 -->
<!-- Title: Automaton Pages: 1 -->
<svg width="1242pt" height="426pt"
 viewBox="0.00 0.00 1242.19 426.00" xmlns="http://www.w3.org/2000/svg" xmlns:xlink="http://www.w3.org/1999/xlink">
<g id="graph0" class="graph" transform="scale(1 1) rotate(0) translate(4 422)">
<title>Automaton</title>
<polygon fill="white" stroke="none" points="-4,4 -4,-422 1238.19,-422 1238.19,4 -4,4"/>
<!-- filename -->
<g id="node1" class="node">
<title>filename</title>
<polygon fill="none" stroke="black" points="200.19,-351.25 200.19,-404.75 426.19,-404.75 426.19,-351.25 200.19,-351.25"/>
<polygon fill="none" stroke="black" points="211.19,-379 211.19,-397.75 415.19,-397.75 415.19,-379 211.19,-379"/>
<text text-anchor="start" x="214.19" y="-386.25" font-family="Courier New" font-weight="bold" font-size="10.00">S0_NW_INDC_LIGHT::M_NW_INDC_LIGHT</text>
<polygon fill="none" stroke="black" points="211.19,-358.25 211.19,-377 415.19,-377 415.19,-358.25 211.19,-358.25"/>
<text text-anchor="start" x="268.19" y="-364.5" font-family="Courier New" font-size="10.00" fill="brown">start state = 0</text>
<polygon fill="none" stroke="black" points="208.19,-355.25 208.19,-400.75 418.19,-400.75 418.19,-355.25 208.19,-355.25"/>
</g>
<!-- 0 -->
<g id="node2" class="node">
<title>0</title>
<polyline fill="none" stroke="darkred" points="464.06,-366.75 478.31,-366.75"/>
<text text-anchor="start" x="467.06" y="-373.95" font-family="Courier New" font-weight="bold" font-size="14.00">0</text>
<path fill="none" stroke="darkred" d="M467.81,-363.75C467.81,-363.75 474.56,-363.75 474.56,-363.75 477.94,-363.75 481.31,-367.12 481.31,-370.5 481.31,-370.5 481.31,-385.5 481.31,-385.5 481.31,-388.88 477.94,-392.25 474.56,-392.25 474.56,-392.25 467.81,-392.25 467.81,-392.25 464.44,-392.25 461.06,-388.88 461.06,-385.5 461.06,-385.5 461.06,-370.5 461.06,-370.5 461.06,-367.12 464.44,-363.75 467.81,-363.75"/>
</g>
<!-- 1 -->
<g id="node3" class="node">
<title>1</title>
<polyline fill="none" stroke="darkred" points="464.06,-251.75 478.31,-251.75"/>
<text text-anchor="start" x="467.06" y="-258.95" font-family="Courier New" font-weight="bold" font-size="14.00">1</text>
<path fill="none" stroke="darkred" d="M467.81,-248.75C467.81,-248.75 474.56,-248.75 474.56,-248.75 477.94,-248.75 481.31,-252.12 481.31,-255.5 481.31,-255.5 481.31,-270.5 481.31,-270.5 481.31,-273.88 477.94,-277.25 474.56,-277.25 474.56,-277.25 467.81,-277.25 467.81,-277.25 464.44,-277.25 461.06,-273.88 461.06,-270.5 461.06,-270.5 461.06,-255.5 461.06,-255.5 461.06,-252.12 464.44,-248.75 467.81,-248.75"/>
</g>
<!-- 0&#45;&gt;1 -->
<g id="edge1" class="edge">
<title>0&#45;&gt;1</title>
<path fill="none" stroke="black" d="M471.19,-359.84C471.19,-341.9 471.19,-313.45 471.19,-292.2"/>
<polygon fill="black" stroke="black" points="474.69,-292.47 471.19,-282.47 467.69,-292.47 474.69,-292.47"/>
<text text-anchor="start" x="475.19" y="-307.5" font-family="Courier New" font-weight="bold" font-size="10.00" fill="blue">MOV(BFRAME,0)</text>
</g>
<!-- waiting -->
<g id="node4" class="node">
<title>waiting</title>
<polyline fill="none" stroke="darkred" stroke-width="3" points="438.81,-154 503.56,-154"/>
<text text-anchor="start" x="442.31" y="-161.7" font-family="Courier New" font-weight="bold" font-size="14.00">waiting</text>
<path fill="none" stroke="darkred" stroke-width="3" d="M444.98,-149C444.98,-149 497.4,-149 497.4,-149 502.98,-149 508.56,-154.58 508.56,-160.17 508.56,-160.17 508.56,-171.33 508.56,-171.33 508.56,-176.92 502.98,-182.5 497.4,-182.5 497.4,-182.5 444.98,-182.5 444.98,-182.5 439.4,-182.5 433.81,-176.92 433.81,-171.33 433.81,-171.33 433.81,-160.17 433.81,-160.17 433.81,-154.58 439.4,-149 444.98,-149"/>
</g>
<!-- 1&#45;&gt;waiting -->
<g id="edge2" class="edge">
<title>1&#45;&gt;waiting</title>
<path fill="none" stroke="black" d="M444.19,-248.17C436.27,-242.65 428.57,-235.51 424.19,-226.75 420.06,-218.5 420.28,-214.35 424.19,-206 425.86,-202.43 428.03,-199.06 430.53,-195.92"/>
<polygon fill="black" stroke="black" points="432.94,-198.47 437.24,-188.79 427.84,-193.68 432.94,-198.47"/>
<text text-anchor="start" x="428.19" y="-214.25" font-family="Courier New" font-weight="bold" font-size="10.00" fill="blue">SHOW(WIP1,)</text>
</g>
<!-- waiting&#45;&gt;1 -->
<g id="edge9" class="edge">
<title>waiting&#45;&gt;1</title>
<path fill="none" stroke="black" d="M489.14,-187.94C492.85,-193.48 496.22,-199.68 498.19,-206 500.92,-214.81 501.15,-218.02 498.19,-226.75 497.14,-229.83 495.71,-232.85 494.04,-235.75"/>
<polygon fill="black" stroke="black" points="491.3,-233.56 488.56,-243.79 497.09,-237.5 491.3,-233.56"/>
<text text-anchor="start" x="505.19" y="-214.25" font-family="Courier New" font-weight="bold" font-size="10.00" fill="orange">WAIT(,SIG_RESET)</text>
</g>
<!-- good -->
<g id="node5" class="node">
<title>good</title>
<polyline fill="none" stroke="darkred" points="109.69,-7 148.69,-7"/>
<text text-anchor="start" x="112.69" y="-14.2" font-family="Courier New" font-weight="bold" font-size="14.00">good</text>
<path fill="none" stroke="darkred" d="M116.19,-4C116.19,-4 142.19,-4 142.19,-4 146.94,-4 151.69,-8.75 151.69,-13.5 151.69,-13.5 151.69,-23 151.69,-23 151.69,-27.75 146.94,-32.5 142.19,-32.5 142.19,-32.5 116.19,-32.5 116.19,-32.5 111.44,-32.5 106.69,-27.75 106.69,-23 106.69,-23 106.69,-13.5 106.69,-13.5 106.69,-8.75 111.44,-4 116.19,-4"/>
</g>
<!-- waiting&#45;&gt;good -->
<g id="edge7" class="edge">
<title>waiting&#45;&gt;good</title>
<path fill="none" stroke="black" d="M424.56,-164.23C313.88,-162.5 42.49,-155.25 15.19,-125.5 -6.15,-102.25 -3.54,-79.9 15.19,-54.5 31.71,-32.09 62.31,-23.5 87.65,-20.39"/>
<polygon fill="black" stroke="black" points="87.73,-23.89 97.35,-19.46 87.06,-16.93 87.73,-23.89"/>
<polygon fill="none" stroke="black" points="18.19,-97.38 18.19,-116.12 210.19,-116.12 210.19,-97.38 18.19,-97.38"/>
<text text-anchor="start" x="63.19" y="-104.62" font-family="Courier New" font-weight="bold" font-size="10.00" fill="orange">WAIT(,SIG_UPDATE)</text>
<polygon fill="none" stroke="black" points="18.19,-63.88 18.19,-95.38 210.19,-95.38 210.19,-63.88 18.19,-63.88"/>
<text text-anchor="start" x="21.19" y="-82.88" font-family="Courier New" font-size="10.00" fill="blue"> &#160;&#160;&#160;WRITE(&quot;GOT MY SIG_UPDATE&quot;);</text>
<text text-anchor="start" x="21.19" y="-70.12" font-family="Courier New" font-size="10.00" fill="blue"> &#160;&#160;&#160;SHOW(WIP2);</text>
<polygon fill="none" stroke="black" points="15.19,-60.88 15.19,-119.12 213.19,-119.12 213.19,-60.88 15.19,-60.88"/>
</g>
<!-- off -->
<g id="node6" class="node">
<title>off</title>
<polyline fill="none" stroke="darkred" points="455.81,-7 486.56,-7"/>
<text text-anchor="start" x="458.81" y="-14.2" font-family="Courier New" font-weight="bold" font-size="14.00">off</text>
<path fill="none" stroke="darkred" d="M462.31,-4C462.31,-4 480.06,-4 480.06,-4 484.81,-4 489.56,-8.75 489.56,-13.5 489.56,-13.5 489.56,-23 489.56,-23 489.56,-27.75 484.81,-32.5 480.06,-32.5 480.06,-32.5 462.31,-32.5 462.31,-32.5 457.56,-32.5 452.81,-27.75 452.81,-23 452.81,-23 452.81,-13.5 452.81,-13.5 452.81,-8.75 457.56,-4 462.31,-4"/>
</g>
<!-- waiting&#45;&gt;off -->
<g id="edge8" class="edge">
<title>waiting&#45;&gt;off</title>
<path fill="none" stroke="black" d="M424.4,-159.16C403.25,-154.03 380.14,-144.23 367.19,-125.5 349.24,-99.54 348.8,-80.15 367.19,-54.5 382.11,-33.69 410,-25.01 433.14,-21.47"/>
<polygon fill="black" stroke="black" points="433.39,-24.96 442.88,-20.26 432.52,-18.02 433.39,-24.96"/>
<polygon fill="none" stroke="black" points="370.19,-97.38 370.19,-116.12 544.19,-116.12 544.19,-97.38 370.19,-97.38"/>
<text text-anchor="start" x="415.19" y="-104.62" font-family="Courier New" font-weight="bold" font-size="10.00" fill="orange">WAIT(,SIG_OFF)</text>
<polygon fill="none" stroke="black" points="370.19,-63.88 370.19,-95.38 544.19,-95.38 544.19,-63.88 370.19,-63.88"/>
<text text-anchor="start" x="373.19" y="-82.88" font-family="Courier New" font-size="10.00" fill="blue"> &#160;&#160;&#160;WRITE(&quot;GOT MY SIG_OFF&quot;);</text>
<text text-anchor="start" x="373.19" y="-70.12" font-family="Courier New" font-size="10.00" fill="blue"> &#160;&#160;&#160;SHOW(WIP4);</text>
<polygon fill="none" stroke="black" points="367.19,-60.88 367.19,-119.12 547.19,-119.12 547.19,-60.88 367.19,-60.88"/>
</g>
<!-- on -->
<g id="node7" class="node">
<title>on</title>
<polyline fill="none" stroke="darkred" points="783.94,-7 806.44,-7"/>
<text text-anchor="start" x="786.94" y="-14.2" font-family="Courier New" font-weight="bold" font-size="14.00">on</text>
<path fill="none" stroke="darkred" d="M790.44,-4C790.44,-4 799.94,-4 799.94,-4 804.69,-4 809.44,-8.75 809.44,-13.5 809.44,-13.5 809.44,-23 809.44,-23 809.44,-27.75 804.69,-32.5 799.94,-32.5 799.94,-32.5 790.44,-32.5 790.44,-32.5 785.69,-32.5 780.94,-27.75 780.94,-23 780.94,-23 780.94,-13.5 780.94,-13.5 780.94,-8.75 785.69,-4 790.44,-4"/>
</g>
<!-- waiting&#45;&gt;on -->
<g id="edge6" class="edge">
<title>waiting&#45;&gt;on</title>
<path fill="none" stroke="black" d="M518.04,-159.12C562.15,-152.93 624.07,-141.68 642.19,-125.5 667.14,-103.22 642.72,-77.32 667.19,-54.5 691.45,-31.87 728.89,-23.55 757.03,-20.59"/>
<polygon fill="black" stroke="black" points="757.27,-24.09 766.94,-19.76 756.68,-17.11 757.27,-24.09"/>
<polygon fill="none" stroke="black" points="670.19,-103.75 670.19,-122.5 892.19,-122.5 892.19,-103.75 670.19,-103.75"/>
<text text-anchor="start" x="742.19" y="-111" font-family="Courier New" font-weight="bold" font-size="10.00" fill="orange">WAIT(,SIG_ON)</text>
<polygon fill="none" stroke="black" points="670.19,-57.5 670.19,-101.75 892.19,-101.75 892.19,-57.5 670.19,-57.5"/>
<text text-anchor="start" x="673.19" y="-89.25" font-family="Courier New" font-size="10.00" fill="blue"> &#160;&#160;&#160;WRITE(&quot;GOT MY SIG_ON&quot;);</text>
<text text-anchor="start" x="673.19" y="-76.5" font-family="Courier New" font-size="10.00" fill="blue"> &#160;&#160;&#160;WRITE(&quot;Waiting in on position&quot;);</text>
<text text-anchor="start" x="673.19" y="-63.75" font-family="Courier New" font-size="10.00" fill="blue"> &#160;&#160;&#160;ASHOW(WIP3);</text>
<polygon fill="none" stroke="black" points="667.19,-54.5 667.19,-125.5 895.19,-125.5 895.19,-54.5 667.19,-54.5"/>
</g>
<!-- good&#45;&gt;waiting -->
<g id="edge3" class="edge">
<title>good&#45;&gt;waiting</title>
<path fill="none" stroke="black" d="M159.28,-24.68C178.18,-29.53 201.81,-38.46 217.19,-54.5 240.34,-78.65 216.62,-103.92 242.19,-125.5 267.4,-146.78 353.91,-156.89 413.07,-161.42"/>
<polygon fill="black" stroke="black" points="412.78,-164.91 423,-162.14 413.28,-157.92 412.78,-164.91"/>
<polygon fill="none" stroke="black" points="245.19,-91 245.19,-109.75 347.19,-109.75 347.19,-91 245.19,-91"/>
<text text-anchor="start" x="266.19" y="-98.25" font-family="Courier New" font-weight="bold" font-size="10.00" fill="blue">ESTIME(,1)</text>
<polygon fill="none" stroke="black" points="245.19,-70.25 245.19,-89 347.19,-89 347.19,-70.25 245.19,-70.25"/>
<text text-anchor="start" x="248.19" y="-76.5" font-family="Courier New" font-size="10.00" fill="blue"> &#160;&#160;&#160;ASHOW(WIP3);</text>
<polygon fill="none" stroke="black" points="242.19,-67.25 242.19,-112.75 350.19,-112.75 350.19,-67.25 242.19,-67.25"/>
</g>
<!-- off&#45;&gt;waiting -->
<g id="edge4" class="edge">
<title>off&#45;&gt;waiting</title>
<path fill="none" stroke="black" d="M498.04,-23.35C516.42,-27.7 539.5,-36.57 551.19,-54.5 568.42,-80.93 567.88,-98.72 551.19,-125.5 545.6,-134.47 537.3,-141.44 528.13,-146.85"/>
<polygon fill="black" stroke="black" points="526.55,-143.73 519.27,-151.43 529.76,-149.95 526.55,-143.73"/>
<text text-anchor="start" x="568.19" y="-87.88" font-family="Courier New" font-weight="bold" font-size="10.00" fill="blue">ZEPSILON(,)</text>
</g>
<!-- on&#45;&gt;waiting -->
<g id="edge5" class="edge">
<title>on&#45;&gt;waiting</title>
<path fill="none" stroke="black" d="M821.99,-20.07C846.58,-22.43 881.75,-30.17 899.19,-54.5 917.57,-80.15 920.46,-102.19 899.19,-125.5 874.72,-152.32 640.1,-161.04 528.99,-163.69"/>
<polygon fill="black" stroke="black" points="529.11,-160.18 519.19,-163.91 529.27,-167.18 529.11,-160.18"/>
<text text-anchor="start" x="917.19" y="-87.88" font-family="Courier New" font-weight="bold" font-size="10.00" fill="blue">ZEPSILON(,)</text>
</g>
<!-- status -->
<g id="node8" class="node">
<title>status</title>
<polygon fill="none" stroke="black" points="516.19,-338.5 516.19,-417.5 1234.19,-417.5 1234.19,-338.5 516.19,-338.5"/>
<polygon fill="none" stroke="black" points="527.19,-391.75 527.19,-410.5 1223.19,-410.5 1223.19,-391.75 527.19,-391.75"/>
<text text-anchor="start" x="827.19" y="-399" font-family="Courier New" font-weight="bold" font-size="10.00">S0_NW_INDC_LIGHT</text>
<polygon fill="none" stroke="black" points="527.19,-345.5 527.19,-389.75 1223.19,-389.75 1223.19,-345.5 527.19,-345.5"/>
<text text-anchor="start" x="530.19" y="-377.25" font-family="Courier New" font-size="10.00" fill="green">VIEW::IDV_MAIN_PANEL @pos(x:890, y:235, h:25, w:9)</text>
<text text-anchor="start" x="530.19" y="-364.5" font-family="Courier New" font-size="10.00" fill="green">S0_NW_INDC_LIGHT::M_NW_INDC_LIGHT(&#39;IDS_INDC_NW_WHITE&#39;,&#39;IDS_INDC_NW_GREEN&#39;,&#39;IDS_INDC_BLINK&#39;,&#39;IDS_INDC_NW_RED&#39;,&#39;&#39;,&#39;&#39;)</text>
<text text-anchor="start" x="530.19" y="-351.75" font-family="Courier New" font-size="10.00" fill="green">{state:&#39;waiting&#39;: wSprite:IDS_INDC_BLINK bFrame:0 dEtime:0 Top:235 Left:890 Z:0</text>
<polygon fill="none" stroke="black" points="524.19,-342.5 524.19,-413.5 1226.19,-413.5 1226.19,-342.5 524.19,-342.5"/>
</g>
</g>
</svg>
