<?xml version="1.0" encoding="UTF-8" standalone="no"?>
<!DOCTYPE svg PUBLIC "-//W3C//DTD SVG 1.1//EN"
 "http://www.w3.org/Graphics/SVG/1.1/DTD/svg11.dtd">
<!-- Generated by graphviz version 10.0.1 (20240210.2158)
 -->
<!-- Title: Automaton Pages: 1 -->
<svg width="742pt" height="401pt"
 viewBox="0.00 0.00 742.00 400.50" xmlns="http://www.w3.org/2000/svg" xmlns:xlink="http://www.w3.org/1999/xlink">
<g id="graph0" class="graph" transform="scale(1 1) rotate(0) translate(4 396.5)">
<title>Automaton</title>
<polygon fill="white" stroke="none" points="-4,4 -4,-396.5 738,-396.5 738,4 -4,4"/>
<!-- filename -->
<g id="node1" class="node">
<title>filename</title>
<polygon fill="none" stroke="black" points="0,-325.75 0,-379.25 214,-379.25 214,-325.75 0,-325.75"/>
<polygon fill="none" stroke="black" points="11,-353.5 11,-372.25 203,-372.25 203,-353.5 11,-353.5"/>
<text text-anchor="start" x="14" y="-360.75" font-family="Courier New" font-weight="bold" font-size="10.00">S0_NW_INDC_GAME::M_NW_INDC_NAME</text>
<polygon fill="none" stroke="black" points="11,-332.75 11,-351.5 203,-351.5 203,-332.75 11,-332.75"/>
<text text-anchor="start" x="62" y="-339" font-family="Courier New" font-size="10.00" fill="brown">start state = 0</text>
<polygon fill="none" stroke="black" points="8,-329.75 8,-375.25 206,-375.25 206,-329.75 8,-329.75"/>
</g>
<!-- 0 -->
<g id="node2" class="node">
<title>0</title>
<polyline fill="none" stroke="darkred" points="251.88,-341.25 266.12,-341.25"/>
<text text-anchor="start" x="254.88" y="-348.45" font-family="Courier New" font-weight="bold" font-size="14.00">0</text>
<path fill="none" stroke="darkred" d="M255.62,-338.25C255.62,-338.25 262.38,-338.25 262.38,-338.25 265.75,-338.25 269.12,-341.62 269.12,-345 269.12,-345 269.12,-360 269.12,-360 269.12,-363.38 265.75,-366.75 262.38,-366.75 262.38,-366.75 255.62,-366.75 255.62,-366.75 252.25,-366.75 248.88,-363.38 248.88,-360 248.88,-360 248.88,-345 248.88,-345 248.88,-341.62 252.25,-338.25 255.62,-338.25"/>
</g>
<!-- 1 -->
<g id="node3" class="node">
<title>1</title>
<polyline fill="none" stroke="darkred" points="183.88,-226.25 198.12,-226.25"/>
<text text-anchor="start" x="186.88" y="-233.45" font-family="Courier New" font-weight="bold" font-size="14.00">1</text>
<path fill="none" stroke="darkred" d="M187.62,-223.25C187.62,-223.25 194.38,-223.25 194.38,-223.25 197.75,-223.25 201.12,-226.62 201.12,-230 201.12,-230 201.12,-245 201.12,-245 201.12,-248.38 197.75,-251.75 194.38,-251.75 194.38,-251.75 187.62,-251.75 187.62,-251.75 184.25,-251.75 180.88,-248.38 180.88,-245 180.88,-245 180.88,-230 180.88,-230 180.88,-226.62 184.25,-223.25 187.62,-223.25"/>
</g>
<!-- 0&#45;&gt;1 -->
<g id="edge1" class="edge">
<title>0&#45;&gt;1</title>
<path fill="none" stroke="black" d="M247.51,-334.49C240.04,-323.26 230.2,-308.16 222,-294.5 216.39,-285.15 210.53,-274.75 205.43,-265.47"/>
<polygon fill="black" stroke="black" points="208.63,-264.03 200.78,-256.91 202.48,-267.37 208.63,-264.03"/>
<text text-anchor="start" x="226" y="-282" font-family="Courier New" font-weight="bold" font-size="10.00" fill="blue">MOV(BFRAME,0)</text>
</g>
<!-- 2 -->
<g id="node4" class="node">
<title>2</title>
<polyline fill="none" stroke="darkred" stroke-width="3" points="164.38,-128.5 179.62,-128.5"/>
<text text-anchor="start" x="167.88" y="-136.2" font-family="Courier New" font-weight="bold" font-size="14.00">2</text>
<path fill="none" stroke="darkred" stroke-width="3" d="M167.79,-123.5C167.79,-123.5 176.21,-123.5 176.21,-123.5 180.42,-123.5 184.62,-127.71 184.62,-131.92 184.62,-131.92 184.62,-148.58 184.62,-148.58 184.62,-152.79 180.42,-157 176.21,-157 176.21,-157 167.79,-157 167.79,-157 163.58,-157 159.38,-152.79 159.38,-148.58 159.38,-148.58 159.38,-131.92 159.38,-131.92 159.38,-127.71 163.58,-123.5 167.79,-123.5"/>
</g>
<!-- 1&#45;&gt;2 -->
<g id="edge2" class="edge">
<title>1&#45;&gt;2</title>
<path fill="none" stroke="black" d="M187.6,-219.47C185.07,-206.76 181.53,-189.02 178.46,-173.64"/>
<polygon fill="black" stroke="black" points="181.92,-173.07 176.53,-163.95 175.05,-174.44 181.92,-173.07"/>
<text text-anchor="start" x="188" y="-188.75" font-family="Courier New" font-weight="bold" font-size="10.00" fill="blue">SHOW(WIP1,)</text>
</g>
<!-- launch -->
<g id="node5" class="node">
<title>launch</title>
<polyline fill="none" stroke="darkred" points="217.25,-7 272.75,-7"/>
<text text-anchor="start" x="220.25" y="-14.2" font-family="Courier New" font-weight="bold" font-size="14.00">launch</text>
<path fill="none" stroke="darkred" d="M223.75,-4C223.75,-4 266.25,-4 266.25,-4 271,-4 275.75,-8.75 275.75,-13.5 275.75,-13.5 275.75,-23 275.75,-23 275.75,-27.75 271,-32.5 266.25,-32.5 266.25,-32.5 223.75,-32.5 223.75,-32.5 219,-32.5 214.25,-27.75 214.25,-23 214.25,-23 214.25,-13.5 214.25,-13.5 214.25,-8.75 219,-4 223.75,-4"/>
</g>
<!-- 2&#45;&gt;launch -->
<g id="edge3" class="edge">
<title>2&#45;&gt;launch</title>
<path fill="none" stroke="black" d="M165.34,-118C160.96,-99.72 158.01,-73.39 170,-54.5 176.13,-44.84 185.69,-37.79 195.95,-32.64"/>
<polygon fill="black" stroke="black" points="197.19,-35.92 204.96,-28.72 194.39,-29.5 197.19,-35.92"/>
<polygon fill="none" stroke="black" points="173,-78.25 173,-97 305,-97 305,-78.25 173,-78.25"/>
<text text-anchor="start" x="215" y="-85.5" font-family="Courier New" font-weight="bold" font-size="10.00" fill="orange">CLICK(,)</text>
<polygon fill="none" stroke="black" points="173,-57.5 173,-76.25 305,-76.25 305,-57.5 173,-57.5"/>
<text text-anchor="start" x="176" y="-63.75" font-family="Courier New" font-size="10.00" fill="blue">LOADVIEW(IDV_CFGNW1);</text>
<polygon fill="none" stroke="black" points="170,-54.5 170,-100 308,-100 308,-54.5 170,-54.5"/>
</g>
<!-- launch&#45;&gt;0 -->
<g id="edge4" class="edge">
<title>launch&#45;&gt;0</title>
<path fill="none" stroke="black" d="M283.58,-32.58C293.23,-37.85 302.42,-44.99 308,-54.5 361.95,-146.51 345.08,-194.49 308,-294.5 306.55,-298.41 294.3,-312.66 282.42,-325.93"/>
<polygon fill="black" stroke="black" points="279.9,-323.5 275.79,-333.26 285.09,-328.19 279.9,-323.5"/>
<text text-anchor="start" x="345" y="-188.75" font-family="Courier New" font-weight="bold" font-size="10.00" fill="blue">Z_EPSILON(,)</text>
</g>
<!-- status -->
<g id="node6" class="node">
<title>status</title>
<polygon fill="none" stroke="black" points="304,-313 304,-392 734,-392 734,-313 304,-313"/>
<polygon fill="none" stroke="black" points="315,-366.25 315,-385 723,-385 723,-366.25 315,-366.25"/>
<text text-anchor="start" x="474" y="-373.5" font-family="Courier New" font-weight="bold" font-size="10.00">S0_NW_INDC_GAME</text>
<polygon fill="none" stroke="black" points="315,-320 315,-364.25 723,-364.25 723,-320 315,-320"/>
<text text-anchor="start" x="318" y="-351.75" font-family="Courier New" font-size="10.00" fill="green">VIEW::IDV_MAIN_PANEL @pos(x:890, y:265, h:121, w:55)</text>
<text text-anchor="start" x="318" y="-339" font-family="Courier New" font-size="10.00" fill="green">S0_NW_INDC_GAME::M_NW_INDC_NAME(&#39;IDS_INDC_NW_BLANK&#39;,&#39;&#39;,&#39;&#39;,&#39;&#39;,&#39;&#39;,&#39;&#39;)</text>
<text text-anchor="start" x="318" y="-326.25" font-family="Courier New" font-size="10.00" fill="green">{state:&#39;2&#39;: wSprite:IDS_INDC_NW_BLANK bFrame:0 Top:265 Left:890 Z:0</text>
<polygon fill="none" stroke="black" points="312,-317 312,-388 726,-388 726,-317 312,-317"/>
</g>
</g>
</svg>
