<?xml version="1.0" encoding="UTF-8" standalone="no"?>
<!DOCTYPE svg PUBLIC "-//W3C//DTD SVG 1.1//EN"
 "http://www.w3.org/Graphics/SVG/1.1/DTD/svg11.dtd">
<!-- Generated by graphviz version 10.0.1 (20240210.2158)
 -->
<!-- Title: Automaton Pages: 1 -->
<svg width="742pt" height="400pt"
 viewBox="0.00 0.00 742.00 400.00" xmlns="http://www.w3.org/2000/svg" xmlns:xlink="http://www.w3.org/1999/xlink">
<g id="graph0" class="graph" transform="scale(1 1) rotate(0) translate(4 396)">
<title>Automaton</title>
<polygon fill="white" stroke="none" points="-4,4 -4,-396 738,-396 738,4 -4,4"/>
<!-- filename -->
<g id="node1" class="node">
<title>filename</title>
<polygon fill="none" stroke="black" points="0,-325.25 0,-378.75 214,-378.75 214,-325.25 0,-325.25"/>
<polygon fill="none" stroke="black" points="11,-353 11,-371.75 203,-371.75 203,-353 11,-353"/>
<text text-anchor="start" x="14" y="-360.25" font-family="Courier New" font-weight="bold" font-size="10.00">S0_NW_INDC_GAME::M_NW_INDC_NAME</text>
<polygon fill="none" stroke="black" points="11,-332.25 11,-351 203,-351 203,-332.25 11,-332.25"/>
<text text-anchor="start" x="62" y="-338.5" font-family="Courier New" font-size="10.00" fill="brown">start state = 0</text>
<polygon fill="none" stroke="black" points="8,-329.25 8,-374.75 206,-374.75 206,-329.25 8,-329.25"/>
</g>
<!-- 0 -->
<g id="node2" class="node">
<title>0</title>
<polyline fill="none" stroke="darkred" points="251.88,-340.75 266.12,-340.75"/>
<text text-anchor="start" x="254.88" y="-347.95" font-family="Courier New" font-weight="bold" font-size="14.00">0</text>
<path fill="none" stroke="darkred" d="M255.62,-337.75C255.62,-337.75 262.38,-337.75 262.38,-337.75 265.75,-337.75 269.12,-341.12 269.12,-344.5 269.12,-344.5 269.12,-359.5 269.12,-359.5 269.12,-362.88 265.75,-366.25 262.38,-366.25 262.38,-366.25 255.62,-366.25 255.62,-366.25 252.25,-366.25 248.88,-362.88 248.88,-359.5 248.88,-359.5 248.88,-344.5 248.88,-344.5 248.88,-341.12 252.25,-337.75 255.62,-337.75"/>
</g>
<!-- 1 -->
<g id="node3" class="node">
<title>1</title>
<polyline fill="none" stroke="darkred" points="251.88,-225.75 266.12,-225.75"/>
<text text-anchor="start" x="254.88" y="-232.95" font-family="Courier New" font-weight="bold" font-size="14.00">1</text>
<path fill="none" stroke="darkred" d="M255.62,-222.75C255.62,-222.75 262.38,-222.75 262.38,-222.75 265.75,-222.75 269.12,-226.12 269.12,-229.5 269.12,-229.5 269.12,-244.5 269.12,-244.5 269.12,-247.88 265.75,-251.25 262.38,-251.25 262.38,-251.25 255.62,-251.25 255.62,-251.25 252.25,-251.25 248.88,-247.88 248.88,-244.5 248.88,-244.5 248.88,-229.5 248.88,-229.5 248.88,-226.12 252.25,-222.75 255.62,-222.75"/>
</g>
<!-- 0&#45;&gt;1 -->
<g id="edge1" class="edge">
<title>0&#45;&gt;1</title>
<path fill="none" stroke="black" d="M259,-333.84C259,-315.9 259,-287.45 259,-266.2"/>
<polygon fill="black" stroke="black" points="262.5,-266.47 259,-256.47 255.5,-266.47 262.5,-266.47"/>
<text text-anchor="start" x="263" y="-281.5" font-family="Courier New" font-weight="bold" font-size="10.00" fill="blue">MOV(BFRAME,0)</text>
</g>
<!-- 2 -->
<g id="node4" class="node">
<title>2</title>
<polyline fill="none" stroke="darkred" stroke-width="3" points="251.38,-128 266.62,-128"/>
<text text-anchor="start" x="254.88" y="-135.7" font-family="Courier New" font-weight="bold" font-size="14.00">2</text>
<path fill="none" stroke="darkred" stroke-width="3" d="M254.79,-123C254.79,-123 263.21,-123 263.21,-123 267.42,-123 271.62,-127.21 271.62,-131.42 271.62,-131.42 271.62,-148.08 271.62,-148.08 271.62,-152.29 267.42,-156.5 263.21,-156.5 263.21,-156.5 254.79,-156.5 254.79,-156.5 250.58,-156.5 246.38,-152.29 246.38,-148.08 246.38,-148.08 246.38,-131.42 246.38,-131.42 246.38,-127.21 250.58,-123 254.79,-123"/>
</g>
<!-- 1&#45;&gt;2 -->
<g id="edge2" class="edge">
<title>1&#45;&gt;2</title>
<path fill="none" stroke="black" d="M259,-218.97C259,-206.26 259,-188.52 259,-173.14"/>
<polygon fill="black" stroke="black" points="262.5,-173.48 259,-163.48 255.5,-173.48 262.5,-173.48"/>
<text text-anchor="start" x="263" y="-188.25" font-family="Courier New" font-weight="bold" font-size="10.00" fill="blue">SHOW(WIP1,)</text>
</g>
<!-- launch -->
<g id="node5" class="node">
<title>launch</title>
<ellipse fill="none" stroke="black" cx="259" cy="-18" rx="44.7" ry="18"/>
<text text-anchor="middle" x="259" y="-12.95" font-family="Courier New" font-size="14.00">launch</text>
</g>
<!-- 2&#45;&gt;launch -->
<g id="edge3" class="edge">
<title>2&#45;&gt;launch</title>
<path fill="none" stroke="black" d="M259,-117.62C259,-98.22 259,-69.31 259,-47.8"/>
<polygon fill="black" stroke="black" points="262.5,-47.94 259,-37.94 255.5,-47.94 262.5,-47.94"/>
<polygon fill="none" stroke="black" points="262,-77.75 262,-96.5 394,-96.5 394,-77.75 262,-77.75"/>
<text text-anchor="start" x="304" y="-85" font-family="Courier New" font-weight="bold" font-size="10.00" fill="orange">CLICK(,)</text>
<polygon fill="none" stroke="black" points="262,-57 262,-75.75 394,-75.75 394,-57 262,-57"/>
<text text-anchor="start" x="265" y="-63.25" font-family="Courier New" font-size="10.00" fill="blue">LOADVIEW(IDV_CFGNW1);</text>
<polygon fill="none" stroke="black" points="259,-54 259,-99.5 397,-99.5 397,-54 259,-54"/>
</g>
<!-- status -->
<g id="node6" class="node">
<title>status</title>
<polygon fill="none" stroke="black" points="304,-312.5 304,-391.5 734,-391.5 734,-312.5 304,-312.5"/>
<polygon fill="none" stroke="black" points="315,-365.75 315,-384.5 723,-384.5 723,-365.75 315,-365.75"/>
<text text-anchor="start" x="474" y="-373" font-family="Courier New" font-weight="bold" font-size="10.00">S0_NW_INDC_GAME</text>
<polygon fill="none" stroke="black" points="315,-319.5 315,-363.75 723,-363.75 723,-319.5 315,-319.5"/>
<text text-anchor="start" x="318" y="-351.25" font-family="Courier New" font-size="10.00" fill="green">VIEW::IDV_MAIN_PANEL @pos(x:890, y:215, h:115, w:44)</text>
<text text-anchor="start" x="318" y="-338.5" font-family="Courier New" font-size="10.00" fill="green">S0_NW_INDC_GAME::M_NW_INDC_NAME(&#39;IDS_INDC_NW_BLANK&#39;,&#39;&#39;,&#39;&#39;,&#39;&#39;,&#39;&#39;,&#39;&#39;)</text>
<text text-anchor="start" x="318" y="-325.75" font-family="Courier New" font-size="10.00" fill="green">{state:&#39;2&#39;: wSprite:IDS_INDC_NW_BLANK bFrame:0 Top:215 Left:890 Z:0</text>
<polygon fill="none" stroke="black" points="312,-316.5 312,-387.5 726,-387.5 726,-316.5 312,-316.5"/>
</g>
</g>
</svg>
