<?xml version="1.0" encoding="UTF-8" standalone="no"?>
<!DOCTYPE svg PUBLIC "-//W3C//DTD SVG 1.1//EN"
 "http://www.w3.org/Graphics/SVG/1.1/DTD/svg11.dtd">
<!-- Generated by graphviz version 10.0.1 (20240210.2158)
 -->
<!-- Title: Automaton Pages: 1 -->
<svg width="1255pt" height="731pt"
 viewBox="0.00 0.00 1254.61 730.50" xmlns="http://www.w3.org/2000/svg" xmlns:xlink="http://www.w3.org/1999/xlink">
<g id="graph0" class="graph" transform="scale(1 1) rotate(0) translate(4 726.5)">
<title>Automaton</title>
<polygon fill="white" stroke="none" points="-4,4 -4,-726.5 1250.61,-726.5 1250.61,4 -4,4"/>
<!-- filename -->
<g id="node1" class="node">
<title>filename</title>
<polygon fill="none" stroke="black" points="404.61,-655.75 404.61,-709.25 540.61,-709.25 540.61,-655.75 404.61,-655.75"/>
<polygon fill="none" stroke="black" points="415.61,-683.5 415.61,-702.25 529.61,-702.25 529.61,-683.5 415.61,-683.5"/>
<text text-anchor="start" x="418.61" y="-690.75" font-family="Courier New" font-weight="bold" font-size="10.00">S0_QL_BTN::M_QLBTN</text>
<polygon fill="none" stroke="black" points="415.61,-662.75 415.61,-681.5 529.61,-681.5 529.61,-662.75 415.61,-662.75"/>
<text text-anchor="start" x="427.61" y="-669" font-family="Courier New" font-size="10.00" fill="brown">start state = 0</text>
<polygon fill="none" stroke="black" points="412.61,-659.75 412.61,-705.25 532.61,-705.25 532.61,-659.75 412.61,-659.75"/>
</g>
<!-- 0 -->
<g id="node2" class="node">
<title>0</title>
<polyline fill="none" stroke="darkred" points="578.48,-671.25 592.73,-671.25"/>
<text text-anchor="start" x="581.48" y="-678.45" font-family="Courier New" font-weight="bold" font-size="14.00">0</text>
<path fill="none" stroke="darkred" d="M582.23,-668.25C582.23,-668.25 588.98,-668.25 588.98,-668.25 592.36,-668.25 595.73,-671.62 595.73,-675 595.73,-675 595.73,-690 595.73,-690 595.73,-693.38 592.36,-696.75 588.98,-696.75 588.98,-696.75 582.23,-696.75 582.23,-696.75 578.86,-696.75 575.48,-693.38 575.48,-690 575.48,-690 575.48,-675 575.48,-675 575.48,-671.62 578.86,-668.25 582.23,-668.25"/>
</g>
<!-- 1 -->
<g id="node3" class="node">
<title>1</title>
<polyline fill="none" stroke="darkred" points="578.48,-518.75 592.73,-518.75"/>
<text text-anchor="start" x="581.48" y="-525.95" font-family="Courier New" font-weight="bold" font-size="14.00">1</text>
<path fill="none" stroke="darkred" d="M582.23,-515.75C582.23,-515.75 588.98,-515.75 588.98,-515.75 592.36,-515.75 595.73,-519.12 595.73,-522.5 595.73,-522.5 595.73,-537.5 595.73,-537.5 595.73,-540.88 592.36,-544.25 588.98,-544.25 588.98,-544.25 582.23,-544.25 582.23,-544.25 578.86,-544.25 575.48,-540.88 575.48,-537.5 575.48,-537.5 575.48,-522.5 575.48,-522.5 575.48,-519.12 578.86,-515.75 582.23,-515.75"/>
</g>
<!-- 0&#45;&gt;1 -->
<g id="edge1" class="edge">
<title>0&#45;&gt;1</title>
<path fill="none" stroke="black" d="M585.61,-664.53C585.61,-639.01 585.61,-590.46 585.61,-559.46"/>
<polygon fill="black" stroke="black" points="589.11,-559.65 585.61,-549.65 582.11,-559.65 589.11,-559.65"/>
<polygon fill="none" stroke="black" points="588.61,-602.75 588.61,-621.5 702.61,-621.5 702.61,-602.75 588.61,-602.75"/>
<text text-anchor="start" x="609.61" y="-610" font-family="Courier New" font-weight="bold" font-size="10.00" fill="blue">Z_EPSILON(,)</text>
<polygon fill="none" stroke="black" points="588.61,-569.25 588.61,-600.75 702.61,-600.75 702.61,-569.25 588.61,-569.25"/>
<text text-anchor="start" x="591.61" y="-588.25" font-family="Courier New" font-size="10.00" fill="blue"> &#160;&#160;CLEAR(WOBJECT);</text>
<text text-anchor="start" x="591.61" y="-575.5" font-family="Courier New" font-size="10.00" fill="blue"> &#160;&#160;SHOW();</text>
<polygon fill="none" stroke="black" points="585.61,-566.25 585.61,-624.5 705.61,-624.5 705.61,-566.25 585.61,-566.25"/>
</g>
<!-- logPresent -->
<g id="node4" class="node">
<title>logPresent</title>
<polyline fill="none" stroke="darkred" stroke-width="3" points="540.86,-256 630.36,-256"/>
<text text-anchor="start" x="544.36" y="-263.7" font-family="Courier New" font-weight="bold" font-size="14.00">logPresent</text>
<path fill="none" stroke="darkred" stroke-width="3" d="M547.02,-251C547.02,-251 624.19,-251 624.19,-251 629.77,-251 635.36,-256.58 635.36,-262.17 635.36,-262.17 635.36,-273.33 635.36,-273.33 635.36,-278.92 629.77,-284.5 624.19,-284.5 624.19,-284.5 547.02,-284.5 547.02,-284.5 541.44,-284.5 535.86,-278.92 535.86,-273.33 535.86,-273.33 535.86,-262.17 535.86,-262.17 535.86,-256.58 541.44,-251 547.02,-251"/>
</g>
<!-- 1&#45;&gt;logPresent -->
<g id="edge2" class="edge">
<title>1&#45;&gt;logPresent</title>
<path fill="none" stroke="black" d="M585.61,-511.92C585.61,-469.15 585.61,-356.86 585.61,-301.11"/>
<polygon fill="black" stroke="black" points="589.11,-301.31 585.61,-291.31 582.11,-301.31 589.11,-301.31"/>
<polygon fill="none" stroke="black" points="588.61,-472 588.61,-490.75 930.61,-490.75 930.61,-472 588.61,-472"/>
<text text-anchor="start" x="696.61" y="-479.25" font-family="Courier New" font-weight="bold" font-size="10.00" fill="orange">DROP(IDD_LOGBOOKBTN,)</text>
<polygon fill="none" stroke="black" points="588.61,-311 588.61,-470 930.61,-470 930.61,-311 588.61,-311"/>
<text text-anchor="start" x="591.61" y="-457.5" font-family="Courier New" font-size="10.00" fill="blue"> &#160;&#160;WRITE(&quot;Deleting any entries for this player&quot;);</text>
<text text-anchor="start" x="591.61" y="-444.75" font-family="Courier New" font-size="10.00" fill="blue"> &#160;predicate q_local_active(quest,num,status,location);</text>
<text text-anchor="start" x="591.61" y="-432" font-family="Courier New" font-size="10.00" fill="blue"> &#160;&#160;q_local_active(&quot;%&quot;)~</text>
<text text-anchor="start" x="591.61" y="-419.25" font-family="Courier New" font-size="10.00" fill="blue"> &#160;predicate q_world_active(quest,num,status,location);</text>
<text text-anchor="start" x="591.61" y="-406.5" font-family="Courier New" font-size="10.00" fill="blue"> &#160;&#160;q_world_active(&quot;%&quot;)~</text>
<text text-anchor="start" x="591.61" y="-393.75" font-family="Courier New" font-size="10.00" fill="blue"> &#160;predicate q_local_complete(quest,num,status,location);</text>
<text text-anchor="start" x="591.61" y="-381" font-family="Courier New" font-size="10.00" fill="blue"> &#160;&#160;&#160;q_local_complete(&quot;%&quot;)~</text>
<text text-anchor="start" x="591.61" y="-368.25" font-family="Courier New" font-size="10.00" fill="blue"> &#160;predicate q_world_complete(quest,num,status,location);</text>
<text text-anchor="start" x="591.61" y="-355.5" font-family="Courier New" font-size="10.00" fill="blue"> &#160;&#160;q_world_complete(&quot;%&quot;)~</text>
<text text-anchor="start" x="591.61" y="-342.75" font-family="Courier New" font-size="10.00" fill="blue"> &#160;&#160;SHOW(WOBJECT);</text>
<text text-anchor="start" x="591.61" y="-330" font-family="Courier New" font-size="10.00" fill="blue"> &#160;&#160;ADDI(LWISDOM,1); SIGNALi(0,SID_ID);</text>
<text text-anchor="start" x="591.61" y="-317.25" font-family="Courier New" font-size="10.00" fill="blue"> &#160;&#160;BPARM = 0;</text>
<polygon fill="none" stroke="black" points="585.61,-308 585.61,-493.75 933.61,-493.75 933.61,-308 585.61,-308"/>
</g>
<!-- open -->
<g id="node5" class="node">
<title>open</title>
<polyline fill="none" stroke="darkred" points="267.11,-7 306.11,-7"/>
<text text-anchor="start" x="270.11" y="-14.2" font-family="Courier New" font-weight="bold" font-size="14.00">open</text>
<path fill="none" stroke="darkred" d="M273.61,-4C273.61,-4 299.61,-4 299.61,-4 304.36,-4 309.11,-8.75 309.11,-13.5 309.11,-13.5 309.11,-23 309.11,-23 309.11,-27.75 304.36,-32.5 299.61,-32.5 299.61,-32.5 273.61,-32.5 273.61,-32.5 268.86,-32.5 264.11,-27.75 264.11,-23 264.11,-23 264.11,-13.5 264.11,-13.5 264.11,-8.75 268.86,-4 273.61,-4"/>
</g>
<!-- logPresent&#45;&gt;open -->
<g id="edge3" class="edge">
<title>logPresent&#45;&gt;open</title>
<path fill="none" stroke="black" d="M526.48,-266.94C391.81,-266.77 71.3,-262.63 38.61,-227.5 -13.78,-171.22 -11.79,-112.57 38.61,-54.5 64.84,-24.28 181.53,-19.29 245.06,-18.88"/>
<polygon fill="black" stroke="black" points="244.76,-22.38 254.76,-18.85 244.75,-15.38 244.76,-22.38"/>
<polygon fill="none" stroke="black" points="41.61,-205.75 41.61,-224.5 509.61,-224.5 509.61,-205.75 41.61,-205.75"/>
<text text-anchor="start" x="251.61" y="-213" font-family="Courier New" font-weight="bold" font-size="10.00" fill="orange">CLICK(,)</text>
<polygon fill="none" stroke="black" points="41.61,-57.5 41.61,-203.75 509.61,-203.75 509.61,-57.5 41.61,-57.5"/>
<text text-anchor="start" x="44.61" y="-191.25" font-family="Courier New" font-size="10.00" fill="blue"> &#160;&#160;&#160;if((LVIEW == &quot;IDV_QUESTPANW&quot;) \|\| (LVIEW == &quot;IDV_QUESTPAN&quot;)){</text>
<text text-anchor="start" x="44.61" y="-178.5" font-family="Courier New" font-size="10.00" fill="blue"> &#160;&#160;&#160;&#160;&#160;BPARM = 1;</text>
<text text-anchor="start" x="44.61" y="-165.75" font-family="Courier New" font-size="10.00" fill="blue"> &#160;&#160;&#160;&#160;&#160;WRITE(&quot;We are clicking the log button on the log button &#45; stop that!&quot;);</text>
<text text-anchor="start" x="44.61" y="-153" font-family="Courier New" font-size="10.00" fill="blue"> &#160;&#160;&#160;}</text>
<text text-anchor="start" x="44.61" y="-140.25" font-family="Courier New" font-size="10.00" fill="blue"> &#160;&#160;&#160;if(BPARM == 0){</text>
<text text-anchor="start" x="44.61" y="-127.5" font-family="Courier New" font-size="10.00" fill="blue"> &#160;&#160;&#160;&#160;&#160;&#160;&#160;MOV(WOBJECT,IDD_LOGBOOKBTN);</text>
<text text-anchor="start" x="44.61" y="-114.75" font-family="Courier New" font-size="10.00" fill="blue"> &#160;&#160;&#160;&#160;&#160;&#160;&#160;SHOW(WOBJECT);</text>
<text text-anchor="start" x="44.61" y="-102" font-family="Courier New" font-size="10.00" fill="blue"> &#160;&#160;&#160;&#160;&#160;&#160;&#160;MOV(WPARM,LVIEW);</text>
<text text-anchor="start" x="44.61" y="-89.25" font-family="Courier New" font-size="10.00" fill="blue"> &#160;&#160;&#160;}</text>
<text text-anchor="start" x="44.61" y="-76.5" font-family="Courier New" font-size="10.00" fill="blue"> &#160;&#160;&#160;LOADVIEW(IDV_QUESTPAN);</text>
<text text-anchor="start" x="44.61" y="-63.75" font-family="Courier New" font-size="10.00" fill="blue"> &#160;&#160;&#160;BPARM = 0;</text>
<polygon fill="none" stroke="black" points="38.61,-54.5 38.61,-227.5 512.61,-227.5 512.61,-54.5 38.61,-54.5"/>
</g>
<!-- newQuest -->
<g id="node6" class="node">
<title>newQuest</title>
<polyline fill="none" stroke="darkred" points="741.61,-7 813.61,-7"/>
<text text-anchor="start" x="744.61" y="-14.2" font-family="Courier New" font-weight="bold" font-size="14.00">newQuest</text>
<path fill="none" stroke="darkred" d="M748.11,-4C748.11,-4 807.11,-4 807.11,-4 811.86,-4 816.61,-8.75 816.61,-13.5 816.61,-13.5 816.61,-23 816.61,-23 816.61,-27.75 811.86,-32.5 807.11,-32.5 807.11,-32.5 748.11,-32.5 748.11,-32.5 743.36,-32.5 738.61,-27.75 738.61,-23 738.61,-23 738.61,-13.5 738.61,-13.5 738.61,-8.75 743.36,-4 748.11,-4"/>
</g>
<!-- logPresent&#45;&gt;newQuest -->
<g id="edge4" class="edge">
<title>logPresent&#45;&gt;newQuest</title>
<path fill="none" stroke="black" d="M604.93,-245.59C609.07,-240.05 612.98,-233.84 615.61,-227.5 645.27,-155.83 587.04,-112.44 638.61,-54.5 649.61,-42.14 686.68,-33.11 719.78,-27.28"/>
<polygon fill="black" stroke="black" points="720.03,-30.79 729.31,-25.68 718.87,-23.89 720.03,-30.79"/>
<polygon fill="none" stroke="black" points="641.61,-161.12 641.61,-179.88 893.61,-179.88 893.61,-161.12 641.61,-161.12"/>
<text text-anchor="start" x="722.61" y="-168.38" font-family="Courier New" font-weight="bold" font-size="10.00" fill="orange">WAIT(,SIG_GLOW)</text>
<polygon fill="none" stroke="black" points="641.61,-102.12 641.61,-159.12 893.61,-159.12 893.61,-102.12 641.61,-102.12"/>
<text text-anchor="start" x="644.61" y="-146.62" font-family="Courier New" font-size="10.00" fill="blue"> &#160;&#160;&#160;&#160;&#160;&#160;&#160;WRITE(&quot;GOT THE SIG_GLOW SIGNAL&quot;);</text>
<text text-anchor="start" x="644.61" y="-133.88" font-family="Courier New" font-size="10.00" fill="blue"> &#160;&#160;&#160;&#160;&#160;&#160;&#160;PLAYWAVE(SOUND_POP);</text>
<text text-anchor="start" x="644.61" y="-121.12" font-family="Courier New" font-size="10.00" fill="blue"> &#160;&#160;&#160;&#160;&#160;&#160;&#160;MOV(WSPRITE,IDS_QL_GLOW);</text>
<text text-anchor="start" x="644.61" y="-108.38" font-family="Courier New" font-size="10.00" fill="blue"> &#160;&#160;&#160;&#160;&#160;&#160;&#160;ASHOW(WSPRITE);</text>
<polygon fill="none" stroke="black" points="638.61,-99.12 638.61,-182.88 896.61,-182.88 896.61,-99.12 638.61,-99.12"/>
</g>
<!-- open&#45;&gt;logPresent -->
<g id="edge6" class="edge">
<title>open&#45;&gt;logPresent</title>
<path fill="none" stroke="black" d="M316.98,-19.59C372.31,-20.89 486.27,-26.94 512.61,-54.5 539.33,-82.46 512.19,-194.05 531.61,-227.5 533.74,-231.17 536.37,-234.6 539.31,-237.78"/>
<polygon fill="black" stroke="black" points="536.88,-240.3 546.58,-244.56 541.65,-235.18 536.88,-240.3"/>
<text text-anchor="start" x="535.61" y="-138.88" font-family="Courier New" font-weight="bold" font-size="10.00" fill="blue">Z_EPSILON(,)</text>
</g>
<!-- newQuest&#45;&gt;logPresent -->
<g id="edge5" class="edge">
<title>newQuest&#45;&gt;logPresent</title>
<path fill="none" stroke="black" d="M824.43,-20.26C850.12,-23.52 880.04,-32.31 896.61,-54.5 942.61,-116.11 947.46,-169.83 896.61,-227.5 880.96,-245.25 743,-257 656.16,-262.71"/>
<polygon fill="black" stroke="black" points="656.05,-259.21 646.3,-263.34 656.5,-266.19 656.05,-259.21"/>
<text text-anchor="start" x="936.61" y="-138.88" font-family="Courier New" font-weight="bold" font-size="10.00" fill="blue">Z_EPSILON(,)</text>
</g>
<!-- status -->
<g id="node7" class="node">
<title>status</title>
<polygon fill="none" stroke="black" points="630.61,-643 630.61,-722 1246.61,-722 1246.61,-643 630.61,-643"/>
<polygon fill="none" stroke="black" points="641.61,-696.25 641.61,-715 1235.61,-715 1235.61,-696.25 641.61,-696.25"/>
<text text-anchor="start" x="911.61" y="-703.5" font-family="Courier New" font-weight="bold" font-size="10.00">S0_QL_BTN</text>
<polygon fill="none" stroke="black" points="641.61,-650 641.61,-694.25 1235.61,-694.25 1235.61,-650 641.61,-650"/>
<text text-anchor="start" x="644.61" y="-681.75" font-family="Courier New" font-size="10.00" fill="green">VIEW::IDV_MAIN_PANEL @pos(x:150, y:11, h:36, w:36)</text>
<text text-anchor="start" x="644.61" y="-669" font-family="Courier New" font-size="10.00" fill="green">S0_QL_BTN::M_QLBTN(&#39;&#39;,&#39;&#39;,&#39;&#39;,&#39;&#39;,&#39;&#39;,&#39;&#39;)</text>
<text text-anchor="start" x="644.61" y="-656.25" font-family="Courier New" font-size="10.00" fill="green">{state:&#39;logPresent&#39;: bParm:0 wParm:IDV_ORIE wObject:IDD_LOGBOOKBTN wSprite:LOG Top:11 Left:150 Z:0</text>
<polygon fill="none" stroke="black" points="638.61,-647 638.61,-718 1238.61,-718 1238.61,-647 638.61,-647"/>
</g>
</g>
</svg>
