<?xml version="1.0" encoding="UTF-8" standalone="no"?>
<!DOCTYPE svg PUBLIC "-//W3C//DTD SVG 1.1//EN"
 "http://www.w3.org/Graphics/SVG/1.1/DTD/svg11.dtd">
<!-- Generated by graphviz version 10.0.1 (20240210.2158)
 -->
<!-- Title: Automaton Pages: 1 -->
<svg width="724pt" height="656pt"
 viewBox="0.00 0.00 724.00 655.50" xmlns="http://www.w3.org/2000/svg" xmlns:xlink="http://www.w3.org/1999/xlink">
<g id="graph0" class="graph" transform="scale(1 1) rotate(0) translate(4 651.5)">
<title>Automaton</title>
<polygon fill="white" stroke="none" points="-4,4 -4,-651.5 720,-651.5 720,4 -4,4"/>
<!-- filename -->
<g id="node1" class="node">
<title>filename</title>
<polygon fill="none" stroke="black" points="0,-580.75 0,-634.25 172,-634.25 172,-580.75 0,-580.75"/>
<polygon fill="none" stroke="black" points="11,-608.5 11,-627.25 161,-627.25 161,-608.5 11,-608.5"/>
<text text-anchor="start" x="14" y="-615.75" font-family="Courier New" font-weight="bold" font-size="10.00">S10_DIARYBIN::M_PLANTBIN</text>
<polygon fill="none" stroke="black" points="11,-587.75 11,-606.5 161,-606.5 161,-587.75 11,-587.75"/>
<text text-anchor="start" x="41" y="-594" font-family="Courier New" font-size="10.00" fill="brown">start state = 0</text>
<polygon fill="none" stroke="black" points="8,-584.75 8,-630.25 164,-630.25 164,-584.75 8,-584.75"/>
</g>
<!-- 0 -->
<g id="node2" class="node">
<title>0</title>
<polyline fill="none" stroke="darkred" points="209.88,-596.25 224.12,-596.25"/>
<text text-anchor="start" x="212.88" y="-603.45" font-family="Courier New" font-weight="bold" font-size="14.00">0</text>
<path fill="none" stroke="darkred" d="M213.62,-593.25C213.62,-593.25 220.38,-593.25 220.38,-593.25 223.75,-593.25 227.12,-596.62 227.12,-600 227.12,-600 227.12,-615 227.12,-615 227.12,-618.38 223.75,-621.75 220.38,-621.75 220.38,-621.75 213.62,-621.75 213.62,-621.75 210.25,-621.75 206.88,-618.38 206.88,-615 206.88,-615 206.88,-600 206.88,-600 206.88,-596.62 210.25,-593.25 213.62,-593.25"/>
</g>
<!-- 1 -->
<g id="node3" class="node">
<title>1</title>
<polyline fill="none" stroke="darkred" points="209.88,-481.25 224.12,-481.25"/>
<text text-anchor="start" x="212.88" y="-488.45" font-family="Courier New" font-weight="bold" font-size="14.00">1</text>
<path fill="none" stroke="darkred" d="M213.62,-478.25C213.62,-478.25 220.38,-478.25 220.38,-478.25 223.75,-478.25 227.12,-481.62 227.12,-485 227.12,-485 227.12,-500 227.12,-500 227.12,-503.38 223.75,-506.75 220.38,-506.75 220.38,-506.75 213.62,-506.75 213.62,-506.75 210.25,-506.75 206.88,-503.38 206.88,-500 206.88,-500 206.88,-485 206.88,-485 206.88,-481.62 210.25,-478.25 213.62,-478.25"/>
</g>
<!-- 0&#45;&gt;1 -->
<g id="edge1" class="edge">
<title>0&#45;&gt;1</title>
<path fill="none" stroke="black" d="M217,-589.34C217,-571.4 217,-542.95 217,-521.7"/>
<polygon fill="black" stroke="black" points="220.5,-521.97 217,-511.97 213.5,-521.97 220.5,-521.97"/>
<text text-anchor="start" x="221" y="-537" font-family="Courier New" font-weight="bold" font-size="10.00" fill="blue">MOV(WSPRITE,WIP2)</text>
</g>
<!-- 5 -->
<g id="node4" class="node">
<title>5</title>
<polyline fill="none" stroke="darkred" stroke-width="3" points="209.38,-383.5 224.62,-383.5"/>
<text text-anchor="start" x="212.88" y="-391.2" font-family="Courier New" font-weight="bold" font-size="14.00">5</text>
<path fill="none" stroke="darkred" stroke-width="3" d="M212.79,-378.5C212.79,-378.5 221.21,-378.5 221.21,-378.5 225.42,-378.5 229.62,-382.71 229.62,-386.92 229.62,-386.92 229.62,-403.58 229.62,-403.58 229.62,-407.79 225.42,-412 221.21,-412 221.21,-412 212.79,-412 212.79,-412 208.58,-412 204.38,-407.79 204.38,-403.58 204.38,-403.58 204.38,-386.92 204.38,-386.92 204.38,-382.71 208.58,-378.5 212.79,-378.5"/>
</g>
<!-- 1&#45;&gt;5 -->
<g id="edge2" class="edge">
<title>1&#45;&gt;5</title>
<path fill="none" stroke="black" d="M217,-474.47C217,-461.76 217,-444.02 217,-428.64"/>
<polygon fill="black" stroke="black" points="220.5,-428.98 217,-418.98 213.5,-428.98 220.5,-428.98"/>
<text text-anchor="start" x="221" y="-443.75" font-family="Courier New" font-weight="bold" font-size="10.00" fill="blue">SHOW(WSPRITE,)</text>
</g>
<!-- 10 -->
<g id="node5" class="node">
<title>10</title>
<polyline fill="none" stroke="darkred" points="154.75,-286.75 177.25,-286.75"/>
<text text-anchor="start" x="157.75" y="-293.95" font-family="Courier New" font-weight="bold" font-size="14.00">10</text>
<path fill="none" stroke="darkred" d="M161.25,-283.75C161.25,-283.75 170.75,-283.75 170.75,-283.75 175.5,-283.75 180.25,-288.5 180.25,-293.25 180.25,-293.25 180.25,-302.75 180.25,-302.75 180.25,-307.5 175.5,-312.25 170.75,-312.25 170.75,-312.25 161.25,-312.25 161.25,-312.25 156.5,-312.25 151.75,-307.5 151.75,-302.75 151.75,-302.75 151.75,-293.25 151.75,-293.25 151.75,-288.5 156.5,-283.75 161.25,-283.75"/>
</g>
<!-- 5&#45;&gt;10 -->
<g id="edge7" class="edge">
<title>5&#45;&gt;10</title>
<path fill="none" stroke="black" d="M193.29,-373.01C188.31,-367.56 183.5,-361.41 180,-355 175.33,-346.47 172.19,-336.36 170.09,-327.09"/>
<polygon fill="black" stroke="black" points="173.57,-326.63 168.24,-317.48 166.7,-327.96 173.57,-326.63"/>
<text text-anchor="start" x="184" y="-342.5" font-family="Courier New" font-weight="bold" font-size="10.00" fill="orange">GRAB(WIP1,)</text>
</g>
<!-- 20 -->
<g id="node6" class="node">
<title>20</title>
<polyline fill="none" stroke="darkred" points="150.75,-193.5 173.25,-193.5"/>
<text text-anchor="start" x="153.75" y="-200.7" font-family="Courier New" font-weight="bold" font-size="14.00">20</text>
<path fill="none" stroke="darkred" d="M157.25,-190.5C157.25,-190.5 166.75,-190.5 166.75,-190.5 171.5,-190.5 176.25,-195.25 176.25,-200 176.25,-200 176.25,-209.5 176.25,-209.5 176.25,-214.25 171.5,-219 166.75,-219 166.75,-219 157.25,-219 157.25,-219 152.5,-219 147.75,-214.25 147.75,-209.5 147.75,-209.5 147.75,-200 147.75,-200 147.75,-195.25 152.5,-190.5 157.25,-190.5"/>
</g>
<!-- 10&#45;&gt;20 -->
<g id="edge3" class="edge">
<title>10&#45;&gt;20</title>
<path fill="none" stroke="black" d="M165.25,-279.84C164.68,-266.96 163.9,-249.06 163.24,-234.07"/>
<polygon fill="black" stroke="black" points="166.75,-234.19 162.82,-224.35 159.76,-234.49 166.75,-234.19"/>
<text text-anchor="start" x="168" y="-249.25" font-family="Courier New" font-weight="bold" font-size="10.00" fill="blue">SHOW(0,0)</text>
</g>
<!-- 30 -->
<g id="node7" class="node">
<title>30</title>
<polyline fill="none" stroke="darkred" points="143.75,-100.25 166.25,-100.25"/>
<text text-anchor="start" x="146.75" y="-107.45" font-family="Courier New" font-weight="bold" font-size="14.00">30</text>
<path fill="none" stroke="darkred" d="M150.25,-97.25C150.25,-97.25 159.75,-97.25 159.75,-97.25 164.5,-97.25 169.25,-102 169.25,-106.75 169.25,-106.75 169.25,-116.25 169.25,-116.25 169.25,-121 164.5,-125.75 159.75,-125.75 159.75,-125.75 150.25,-125.75 150.25,-125.75 145.5,-125.75 140.75,-121 140.75,-116.25 140.75,-116.25 140.75,-106.75 140.75,-106.75 140.75,-102 145.5,-97.25 150.25,-97.25"/>
</g>
<!-- 20&#45;&gt;30 -->
<g id="edge4" class="edge">
<title>20&#45;&gt;30</title>
<path fill="none" stroke="black" d="M160.68,-186.59C159.7,-173.71 158.32,-155.81 157.17,-140.82"/>
<polygon fill="black" stroke="black" points="160.68,-140.8 156.43,-131.1 153.7,-141.33 160.68,-140.8"/>
<text text-anchor="start" x="163" y="-156" font-family="Courier New" font-weight="bold" font-size="10.00" fill="blue">ESTIME(WIP3,)</text>
</g>
<!-- 40 -->
<g id="node8" class="node">
<title>40</title>
<polyline fill="none" stroke="darkred" points="193.75,-7 216.25,-7"/>
<text text-anchor="start" x="196.75" y="-14.2" font-family="Courier New" font-weight="bold" font-size="14.00">40</text>
<path fill="none" stroke="darkred" d="M200.25,-4C200.25,-4 209.75,-4 209.75,-4 214.5,-4 219.25,-8.75 219.25,-13.5 219.25,-13.5 219.25,-23 219.25,-23 219.25,-27.75 214.5,-32.5 209.75,-32.5 209.75,-32.5 200.25,-32.5 200.25,-32.5 195.5,-32.5 190.75,-27.75 190.75,-23 190.75,-23 190.75,-13.5 190.75,-13.5 190.75,-8.75 195.5,-4 200.25,-4"/>
</g>
<!-- 30&#45;&gt;40 -->
<g id="edge5" class="edge">
<title>30&#45;&gt;40</title>
<path fill="none" stroke="black" d="M145.79,-93.32C140.9,-81.69 137.17,-66.34 144,-54.5 149.43,-45.09 158.44,-37.96 167.89,-32.67"/>
<polygon fill="black" stroke="black" points="169.38,-35.84 176.81,-28.29 166.29,-29.56 169.38,-35.84"/>
<text text-anchor="start" x="148" y="-62.75" font-family="Courier New" font-weight="bold" font-size="10.00" fill="blue">MOV(WSPRITE,WIP2)</text>
</g>
<!-- 40&#45;&gt;5 -->
<g id="edge6" class="edge">
<title>40&#45;&gt;5</title>
<path fill="none" stroke="black" d="M231.88,-33.59C240.05,-39.14 248.35,-46.17 254,-54.5 268.4,-75.73 268,-84.85 268,-110.5 268,-299 268,-299 268,-299 268,-324.65 266.31,-332.49 254,-355 252.25,-358.2 250.17,-361.34 247.91,-364.36"/>
<polygon fill="black" stroke="black" points="245.39,-361.92 241.67,-371.84 250.76,-366.4 245.39,-361.92"/>
<text text-anchor="start" x="272" y="-202.62" font-family="Courier New" font-weight="bold" font-size="10.00" fill="blue">SHOW(WSPRITE,)</text>
</g>
<!-- status -->
<g id="node9" class="node">
<title>status</title>
<polygon fill="none" stroke="black" points="262,-568 262,-647 716,-647 716,-568 262,-568"/>
<polygon fill="none" stroke="black" points="273,-621.25 273,-640 705,-640 705,-621.25 273,-621.25"/>
<text text-anchor="start" x="453" y="-628.5" font-family="Courier New" font-weight="bold" font-size="10.00">S10_DIARYBIN</text>
<polygon fill="none" stroke="black" points="273,-575 273,-619.25 705,-619.25 705,-575 273,-575"/>
<text text-anchor="start" x="276" y="-606.75" font-family="Courier New" font-size="10.00" fill="green">VIEW::IDV_TM5PAN @pos(x:1365, y:196, w:32, h:68)</text>
<text text-anchor="start" x="276" y="-594" font-family="Courier New" font-size="10.00" fill="green">S10_DIARYBIN::M_PLANTBIN(&#39;IDD_DIARY10&#39;,&#39;IDS_DIARY10_BIN&#39;,&#39;60&#39;,&#39;&#39;,&#39;&#39;,&#39;&#39;)</text>
<text text-anchor="start" x="276" y="-581.25" font-family="Courier New" font-size="10.00" fill="green">{state:&#39;5&#39;: wSprite:IDS_DIARY10_BIN Top:196 Left:1365</text>
<polygon fill="none" stroke="black" points="270,-572 270,-643 708,-643 708,-572 270,-572"/>
</g>
</g>
</svg>
