<?xml version="1.0" encoding="UTF-8" standalone="no"?>
<!DOCTYPE svg PUBLIC "-//W3C//DTD SVG 1.1//EN"
 "http://www.w3.org/Graphics/SVG/1.1/DTD/svg11.dtd">
<!-- Generated by graphviz version 10.0.1 (20240210.2158)
 -->
<!-- Title: Automaton Pages: 1 -->
<svg width="1928pt" height="1173pt"
 viewBox="0.00 0.00 1928.00 1173.00" xmlns="http://www.w3.org/2000/svg" xmlns:xlink="http://www.w3.org/1999/xlink">
<g id="graph0" class="graph" transform="scale(1 1) rotate(0) translate(4 1169)">
<title>Automaton</title>
<polygon fill="white" stroke="none" points="-4,4 -4,-1169 1924,-1169 1924,4 -4,4"/>
<!-- filename -->
<g id="node1" class="node">
<title>filename</title>
<polygon fill="none" stroke="black" points="469,-1072.75 469,-1126.25 647,-1126.25 647,-1072.75 469,-1072.75"/>
<polygon fill="none" stroke="black" points="480,-1100.5 480,-1119.25 636,-1119.25 636,-1100.5 480,-1100.5"/>
<text text-anchor="start" x="483" y="-1107.75" font-family="Courier New" font-weight="bold" font-size="10.00">S16_PERST::M_MEF_APPROACH</text>
<polygon fill="none" stroke="black" points="480,-1079.75 480,-1098.5 636,-1098.5 636,-1079.75 480,-1079.75"/>
<text text-anchor="start" x="513" y="-1086" font-family="Courier New" font-size="10.00" fill="brown">start state = 0</text>
<polygon fill="none" stroke="black" points="477,-1076.75 477,-1122.25 639,-1122.25 639,-1076.75 477,-1076.75"/>
</g>
<!-- 0 -->
<g id="node2" class="node">
<title>0</title>
<polyline fill="none" stroke="darkred" points="684.88,-1088.25 699.13,-1088.25"/>
<text text-anchor="start" x="687.88" y="-1095.45" font-family="Courier New" font-weight="bold" font-size="14.00">0</text>
<path fill="none" stroke="darkred" d="M688.63,-1085.25C688.63,-1085.25 695.38,-1085.25 695.38,-1085.25 698.75,-1085.25 702.13,-1088.62 702.13,-1092 702.13,-1092 702.13,-1107 702.13,-1107 702.13,-1110.38 698.75,-1113.75 695.38,-1113.75 695.38,-1113.75 688.63,-1113.75 688.63,-1113.75 685.25,-1113.75 681.88,-1110.38 681.88,-1107 681.88,-1107 681.88,-1092 681.88,-1092 681.88,-1088.62 685.25,-1085.25 688.63,-1085.25"/>
</g>
<!-- chillin -->
<g id="node3" class="node">
<title>chillin</title>
<polyline fill="none" stroke="darkred" stroke-width="3" points="659.63,-905.75 724.38,-905.75"/>
<text text-anchor="start" x="663.13" y="-913.45" font-family="Courier New" font-weight="bold" font-size="14.00">chillin</text>
<path fill="none" stroke="darkred" stroke-width="3" d="M665.79,-900.75C665.79,-900.75 718.21,-900.75 718.21,-900.75 723.79,-900.75 729.38,-906.33 729.38,-911.92 729.38,-911.92 729.38,-923.08 729.38,-923.08 729.38,-928.67 723.79,-934.25 718.21,-934.25 718.21,-934.25 665.79,-934.25 665.79,-934.25 660.21,-934.25 654.63,-928.67 654.63,-923.08 654.63,-923.08 654.63,-911.92 654.63,-911.92 654.63,-906.33 660.21,-900.75 665.79,-900.75"/>
</g>
<!-- 0&#45;&gt;chillin -->
<g id="edge1" class="edge">
<title>0&#45;&gt;chillin</title>
<path fill="none" stroke="black" d="M692,-1081.57C692,-1051.67 692,-989.06 692,-950.71"/>
<polygon fill="black" stroke="black" points="695.5,-951.16 692,-941.16 688.5,-951.16 695.5,-951.16"/>
<polygon fill="none" stroke="black" points="695,-994.25 695,-1013 857,-1013 857,-994.25 695,-994.25"/>
<text text-anchor="start" x="731" y="-1001.5" font-family="Courier New" font-weight="bold" font-size="10.00" fill="orange">WAIT(,SIG_SHOW)</text>
<polygon fill="none" stroke="black" points="695,-960.75 695,-992.25 857,-992.25 857,-960.75 695,-960.75"/>
<text text-anchor="start" x="698" y="-979.75" font-family="Courier New" font-size="10.00" fill="blue"> &#160;&#160;&#160;MOV(WSPRITE,WIP1);</text>
<text text-anchor="start" x="698" y="-967" font-family="Courier New" font-size="10.00" fill="blue"> &#160;&#160;&#160;ASHOW(WSPRITE,V_LOOP);</text>
<polygon fill="none" stroke="black" points="692,-957.75 692,-1016 860,-1016 860,-957.75 692,-957.75"/>
</g>
<!-- mef_bothered -->
<g id="node4" class="node">
<title>mef_bothered</title>
<polyline fill="none" stroke="darkred" points="18.5,-690.5 123.5,-690.5"/>
<text text-anchor="start" x="21.5" y="-697.7" font-family="Courier New" font-weight="bold" font-size="14.00">mef_bothered</text>
<path fill="none" stroke="darkred" d="M25,-687.5C25,-687.5 117,-687.5 117,-687.5 121.75,-687.5 126.5,-692.25 126.5,-697 126.5,-697 126.5,-706.5 126.5,-706.5 126.5,-711.25 121.75,-716 117,-716 117,-716 25,-716 25,-716 20.25,-716 15.5,-711.25 15.5,-706.5 15.5,-706.5 15.5,-697 15.5,-697 15.5,-692.25 20.25,-687.5 25,-687.5"/>
</g>
<!-- chillin&#45;&gt;mef_bothered -->
<g id="edge2" class="edge">
<title>chillin&#45;&gt;mef_bothered</title>
<path fill="none" stroke="black" d="M645.13,-915.52C495.47,-912.18 37.58,-900.12 16,-877.25 -23.29,-835.61 20,-766.11 49.07,-728.62"/>
<polygon fill="black" stroke="black" points="51.65,-731 55.15,-721 46.18,-726.63 51.65,-731"/>
<polygon fill="none" stroke="black" points="19,-849.12 19,-867.88 685,-867.88 685,-849.12 19,-849.12"/>
<text text-anchor="start" x="322" y="-856.38" font-family="Courier New" font-weight="bold" font-size="10.00" fill="orange">CLICK(0,0)</text>
<polygon fill="none" stroke="black" points="19,-828.38 19,-847.12 685,-847.12 685,-828.38 19,-828.38"/>
<text text-anchor="start" x="22" y="-834.62" font-family="Courier New" font-size="10.00" fill="blue">unloadview(IDV_OTHERID);CLEAR(WPARM);CLEAR(WSPRITE);CLEAR(BPARM);SIGNAL(SOD_ID,SIG_CLEAR);LOADVIEW(IDV_MEFID);</text>
<polygon fill="none" stroke="black" points="16,-825.38 16,-870.88 688,-870.88 688,-825.38 16,-825.38"/>
</g>
<!-- vanished -->
<g id="node5" class="node">
<title>vanished</title>
<ellipse fill="none" stroke="black" cx="692" cy="-701.75" rx="55.96" ry="18"/>
<text text-anchor="middle" x="692" y="-696.7" font-family="Courier New" font-size="14.00">vanished</text>
</g>
<!-- chillin&#45;&gt;vanished -->
<g id="edge3" class="edge">
<title>chillin&#45;&gt;vanished</title>
<path fill="none" stroke="black" d="M692,-895.62C692,-857.19 692,-775.24 692,-731.56"/>
<polygon fill="black" stroke="black" points="695.5,-731.59 692,-721.59 688.5,-731.59 695.5,-731.59"/>
<polygon fill="none" stroke="black" points="695,-855.5 695,-874.25 815,-874.25 815,-855.5 695,-855.5"/>
<text text-anchor="start" x="704" y="-862.75" font-family="Courier New" font-weight="bold" font-size="10.00" fill="orange">WAIT(,SIG_VANISH)</text>
<polygon fill="none" stroke="black" points="695,-822 695,-853.5 815,-853.5 815,-822 695,-822"/>
<text text-anchor="start" x="698" y="-841" font-family="Courier New" font-size="10.00" fill="blue"> &#160;&#160;&#160;CLEAR(WSPRITE);</text>
<text text-anchor="start" x="698" y="-828.25" font-family="Courier New" font-size="10.00" fill="blue"> &#160;&#160;&#160;SHOW(0);</text>
<polygon fill="none" stroke="black" points="692,-819 692,-877.25 818,-877.25 818,-819 692,-819"/>
</g>
<!-- mef_response -->
<g id="node6" class="node">
<title>mef_response</title>
<polyline fill="none" stroke="darkred" points="399.5,-7 504.5,-7"/>
<text text-anchor="start" x="402.5" y="-14.2" font-family="Courier New" font-weight="bold" font-size="14.00">mef_response</text>
<path fill="none" stroke="darkred" d="M406,-4C406,-4 498,-4 498,-4 502.75,-4 507.5,-8.75 507.5,-13.5 507.5,-13.5 507.5,-23 507.5,-23 507.5,-27.75 502.75,-32.5 498,-32.5 498,-32.5 406,-32.5 406,-32.5 401.25,-32.5 396.5,-27.75 396.5,-23 396.5,-23 396.5,-13.5 396.5,-13.5 396.5,-8.75 401.25,-4 406,-4"/>
</g>
<!-- mef_bothered&#45;&gt;mef_response -->
<g id="edge4" class="edge">
<title>mef_bothered&#45;&gt;mef_response</title>
<path fill="none" stroke="black" d="M66.44,-683.64C45.42,-600.43 -33.71,-234.85 147,-54.5 163.03,-38.5 292.18,-28.21 377.2,-23.1"/>
<polygon fill="black" stroke="black" points="377.34,-26.6 387.12,-22.52 376.93,-19.61 377.34,-26.6"/>
<polygon fill="none" stroke="black" points="150,-562.75 150,-581.5 816,-581.5 816,-562.75 150,-562.75"/>
<text text-anchor="start" x="426" y="-570" font-family="Courier New" font-weight="bold" font-size="10.00" fill="blue">REF_MACHINE(0,WIP3)</text>
<polygon fill="none" stroke="black" points="150,-57.5 150,-560.75 816,-560.75 816,-57.5 150,-57.5"/>
<text text-anchor="start" x="153" y="-548.25" font-family="Courier New" font-size="10.00" fill="blue"> &#160;&#160;&#160;if(IFSTATE(0,WIP3)){</text>
<text text-anchor="start" x="153" y="-535.5" font-family="Courier New" font-size="10.00" fill="blue"> &#160;&#160;&#160;&#160;&#160;&#160;&#160;//Tell the active meflins coordinator</text>
<text text-anchor="start" x="153" y="-522.75" font-family="Courier New" font-size="10.00" fill="blue"> &#160;&#160;&#160;&#160;&#160;&#160;&#160;SIGNAL(WIP3,SIG_Q1_START); ///&#45;&#45;&#45;&#45;&#45;&#45;&#45;&#45;&#45;&#45;&#45;&#45;&#45;&#45;The first question and pending interogatve to any Meflin</text>
<text text-anchor="start" x="153" y="-510" font-family="Courier New" font-size="10.00" fill="blue"> &#160;&#160;&#160;&#160;&#160;&#160;&#160;&#160;&#160;&#160;&#160;//Tell the outside world where we a</text>
<text text-anchor="start" x="153" y="-497.25" font-family="Courier New" font-size="10.00" fill="blue"> &#160;&#160;&#160;&#160;&#160;&#160;&#160;&#160;&#160;&#160;&#160;//WTEMP1 will be machine, WTemp2 is wordin</text>
<text text-anchor="start" x="153" y="-484.5" font-family="Courier New" font-size="10.00" fill="blue"> &#160;&#160;&#160;&#160;&#160;&#160;&#160;&#160;&#160;&#160;&#160;if(WIP2 == 1){SIGNAL(MEFCURRENT,SIG_Q1); mefQuest(&quot;1&quot;,?BPARM,?WPARM,?WOBJECT,?WTEMP1,?WTEMP1);}</text>
<text text-anchor="start" x="153" y="-471.75" font-family="Courier New" font-size="10.00" fill="blue"> &#160;&#160;&#160;&#160;&#160;&#160;&#160;&#160;&#160;&#160;&#160;if(WIP2 == 2){SIGNAL(MEFCURRENT,SIG_Q4); mefQuest(&quot;4&quot;,?BPARM,?WPARM,?WOBJECT,?WTEMP1,?WTEMP1);}</text>
<text text-anchor="start" x="153" y="-459" font-family="Courier New" font-size="10.00" fill="blue"> &#160;&#160;&#160;&#160;&#160;&#160;&#160;&#160;&#160;&#160;&#160;if(WIP2 == 3){SIGNAL(MEFCURRENT,SIG_Q6); mefQuest(&quot;6&quot;,?BPARM,?WPARM,?WOBJECT,?WTEMP1,?WTEMP1);}</text>
<text text-anchor="start" x="153" y="-446.25" font-family="Courier New" font-size="10.00" fill="blue"> &#160;&#160;&#160;&#160;&#160;&#160;&#160;&#160;&#160;&#160;&#160;if(WIP2 == 4){SIGNAL(MEFCURRENT,SIG_Q8); mefQuest(&quot;8&quot;,?BPARM,?WPARM,?WOBJECT,?WTEMP1,?WTEMP1);}</text>
<text text-anchor="start" x="153" y="-433.5" font-family="Courier New" font-size="10.00" fill="blue"> &#160;&#160;&#160;&#160;&#160;&#160;&#160;&#160;&#160;&#160;&#160;if(WIP2 == 5){SIGNAL(MEFCURRENT,SIG_Q10); mefQuest(&quot;10&quot;,?BPARM,?WPARM,?WOBJECT,?WTEMP1,?WTEMP1);}</text>
<text text-anchor="start" x="153" y="-420.75" font-family="Courier New" font-size="10.00" fill="blue"> &#160;&#160;&#160;}</text>
<text text-anchor="start" x="153" y="-408" font-family="Courier New" font-size="10.00" fill="blue"> &#160;&#160;&#160;if(IFSTATE(Q1Pending,WIP3)){</text>
<text text-anchor="start" x="153" y="-395.25" font-family="Courier New" font-size="10.00" fill="blue"> &#160;&#160;&#160;&#160;&#160;&#160;&#160;&#160;&#160;&#160;&#160;if(WIP2 == 1){SIGNAL(MEFCURRENT,SIG_Q1P); mefQuest(&quot;1&quot;,?WTEMP1,?WTEMP1,?WOBJECT,?BPARM,?WPARM);}</text>
<text text-anchor="start" x="153" y="-382.5" font-family="Courier New" font-size="10.00" fill="blue"> &#160;&#160;&#160;&#160;&#160;&#160;&#160;&#160;&#160;&#160;&#160;if(WIP2 == 2){SIGNAL(MEFCURRENT,SIG_Q4P); mefQuest(&quot;4&quot;,?WTEMP1,?WTEMP1,?WOBJECT,?BPARM,?WPARM);}</text>
<text text-anchor="start" x="153" y="-369.75" font-family="Courier New" font-size="10.00" fill="blue"> &#160;&#160;&#160;&#160;&#160;&#160;&#160;&#160;&#160;&#160;&#160;if(WIP2 == 3){SIGNAL(MEFCURRENT,SIG_Q6P); mefQuest(&quot;6&quot;,?WTEMP1,?WTEMP1,?WOBJECT,?BPARM,?WPARM);}</text>
<text text-anchor="start" x="153" y="-357" font-family="Courier New" font-size="10.00" fill="blue"> &#160;&#160;&#160;&#160;&#160;&#160;&#160;&#160;&#160;&#160;&#160;if(WIP2 == 4){SIGNAL(MEFCURRENT,SIG_Q8P); mefQuest(&quot;8&quot;,?WTEMP1,?WTEMP1,?WOBJECT,?BPARM,?WPARM);}</text>
<text text-anchor="start" x="153" y="-344.25" font-family="Courier New" font-size="10.00" fill="blue"> &#160;&#160;&#160;&#160;&#160;&#160;&#160;&#160;&#160;&#160;&#160;if(WIP2 == 5){SIGNAL(MEFCURRENT,SIG_Q10P); mefQuest(&quot;10&quot;,?WTEMP1,?WTEMP1,?WOBJECT,?BPARM,?WPARM);}</text>
<text text-anchor="start" x="153" y="-331.5" font-family="Courier New" font-size="10.00" fill="blue"> &#160;&#160;&#160;}</text>
<text text-anchor="start" x="153" y="-318.75" font-family="Courier New" font-size="10.00" fill="blue"> &#160;&#160;&#160;if(IFSTATE(Q1Solved,WIP3)){</text>
<text text-anchor="start" x="153" y="-306" font-family="Courier New" font-size="10.00" fill="blue"> &#160;&#160;&#160;&#160;&#160;&#160;&#160;SIGNAL(WIP3,SIG_Q2_START); ///&#45;&#45;&#45;&#45;&#45;&#45;&#45;&#45;&#45;&#45;&#45;&#45;&#45;&#45;The second question and pending interogative to any Meflin</text>
<text text-anchor="start" x="153" y="-293.25" font-family="Courier New" font-size="10.00" fill="blue"> &#160;&#160;&#160;&#160;&#160;&#160;&#160;if(WIP2 == 1){SIGNAL(MEFCURRENT,SIG_Q2); mefQuest(&quot;2&quot;,?BPARM,?WPARM,?WOBJECT,?WTEMP1,?WTEMP1);}</text>
<text text-anchor="start" x="153" y="-280.5" font-family="Courier New" font-size="10.00" fill="blue"> &#160;&#160;&#160;&#160;&#160;&#160;&#160;if(WIP2 == 2){SIGNAL(MEFCURRENT,SIG_Q5); mefQuest(&quot;5&quot;,?BPARM,?WPARM,?WOBJECT,?WTEMP1,?WTEMP1);}</text>
<text text-anchor="start" x="153" y="-267.75" font-family="Courier New" font-size="10.00" fill="blue"> &#160;&#160;&#160;&#160;&#160;&#160;&#160;if(WIP2 == 3){SIGNAL(MEFCURRENT,SIG_Q7); mefQuest(&quot;7&quot;,?BPARM,?WPARM,?WOBJECT,?WTEMP1,?WTEMP1);}</text>
<text text-anchor="start" x="153" y="-255" font-family="Courier New" font-size="10.00" fill="blue"> &#160;&#160;&#160;&#160;&#160;&#160;&#160;if(WIP2 == 4){SIGNAL(MEFCURRENT,SIG_Q9); mefQuest(&quot;9&quot;,?BPARM,?WPARM,?WOBJECT,?WTEMP1,?WTEMP1);} &#160;&#160;&#160;&#160;&#160;&#160;</text>
<text text-anchor="start" x="153" y="-242.25" font-family="Courier New" font-size="10.00" fill="blue"> &#160;&#160;&#160;}</text>
<text text-anchor="start" x="153" y="-229.5" font-family="Courier New" font-size="10.00" fill="blue"> &#160;&#160;&#160;if(IFSTATE(Q2Pending,WIP3)){</text>
<text text-anchor="start" x="153" y="-216.75" font-family="Courier New" font-size="10.00" fill="blue"> &#160;&#160;&#160;&#160;&#160;&#160;&#160;if(WIP2 == 1){SIGNAL(MEFCURRENT,SIG_Q2P); mefQuest(&quot;2&quot;,?WTEMP1,?WTEMP1,?WOBJECT,?BPARM,?WPARM);}</text>
<text text-anchor="start" x="153" y="-204" font-family="Courier New" font-size="10.00" fill="blue"> &#160;&#160;&#160;&#160;&#160;&#160;&#160;if(WIP2 == 2){SIGNAL(MEFCURRENT,SIG_Q5P); mefQuest(&quot;5&quot;,?WTEMP1,?WTEMP1,?WOBJECT,?BPARM,?WPARM);}</text>
<text text-anchor="start" x="153" y="-191.25" font-family="Courier New" font-size="10.00" fill="blue"> &#160;&#160;&#160;&#160;&#160;&#160;&#160;if(WIP2 == 3){SIGNAL(MEFCURRENT,SIG_Q7P); mefQuest(&quot;7&quot;,?WTEMP1,?WTEMP1,?WOBJECT,?BPARM,?WPARM);}</text>
<text text-anchor="start" x="153" y="-178.5" font-family="Courier New" font-size="10.00" fill="blue"> &#160;&#160;&#160;&#160;&#160;&#160;&#160;if(WIP2 == 4){SIGNAL(MEFCURRENT,SIG_Q9P); mefQuest(&quot;9&quot;,?WTEMP1,?WTEMP1,?WOBJECT,?BPARM,?WPARM);}</text>
<text text-anchor="start" x="153" y="-165.75" font-family="Courier New" font-size="10.00" fill="blue"> &#160;&#160;&#160;}</text>
<text text-anchor="start" x="153" y="-153" font-family="Courier New" font-size="10.00" fill="blue"> &#160;&#160;&#160;if(IFSTATE(Q2Solved,WIP3)){</text>
<text text-anchor="start" x="153" y="-140.25" font-family="Courier New" font-size="10.00" fill="blue"> &#160;&#160;&#160;&#160;&#160;&#160;&#160;SIGNAL(WIP3,SIG_Q3_START); &#160;</text>
<text text-anchor="start" x="153" y="-127.5" font-family="Courier New" font-size="10.00" fill="blue"> &#160;&#160;&#160;&#160;&#160;&#160;&#160;&#160;if(WIP2 == 1){SIGNAL(MEFCURRENT,SIG_Q3); mefQuest(&quot;3&quot;,?BPARM,?WPARM,?WOBJECT,?WTEMP1,?WTEMP1);}</text>
<text text-anchor="start" x="153" y="-114.75" font-family="Courier New" font-size="10.00" fill="blue"> &#160;&#160;&#160;}</text>
<text text-anchor="start" x="153" y="-102" font-family="Courier New" font-size="10.00" fill="blue"> &#160;&#160;&#160;if(IFSTATE(Q3Pending,WIP3)){</text>
<text text-anchor="start" x="153" y="-89.25" font-family="Courier New" font-size="10.00" fill="blue"> &#160;&#160;&#160;&#160;&#160;&#160;&#160;&#160;WRITE(&quot;Q3Pending State found&quot;);</text>
<text text-anchor="start" x="153" y="-76.5" font-family="Courier New" font-size="10.00" fill="blue"> &#160;&#160;&#160;&#160;&#160;&#160;&#160;&#160;if(WIP2 == 1){SIGNAL(MEFCURRENT,SIG_Q3P); mefQuest(&quot;3&quot;,?WTEMP1,?WTEMP1,?WOBJECT,?BPARM,?WPARM);}</text>
<text text-anchor="start" x="153" y="-63.75" font-family="Courier New" font-size="10.00" fill="blue"> &#160;&#160;&#160;}</text>
<polygon fill="none" stroke="black" points="147,-54.5 147,-584.5 819,-584.5 819,-54.5 147,-54.5"/>
</g>
<!-- mef_response&#45;&gt;chillin -->
<g id="edge5" class="edge">
<title>mef_response&#45;&gt;chillin</title>
<path fill="none" stroke="black" d="M515.23,-20.79C614.82,-23.87 799.01,-32.5 819,-54.5 880.48,-122.16 873.27,-803.68 819,-877.25 803.07,-898.85 775.41,-908.92 749.96,-913.49"/>
<polygon fill="black" stroke="black" points="749.71,-909.98 740.35,-914.94 750.76,-916.91 749.71,-909.98"/>
<polygon fill="none" stroke="black" points="861,-779.25 861,-798 1917,-798 1917,-779.25 861,-779.25"/>
<text text-anchor="start" x="1353" y="-786.5" font-family="Courier New" font-weight="bold" font-size="10.00" fill="blue">Z_EPSILON(,)</text>
<polygon fill="none" stroke="black" points="861,-605.5 861,-777.25 1917,-777.25 1917,-605.5 861,-605.5"/>
<text text-anchor="start" x="864" y="-764.75" font-family="Courier New" font-size="10.00" fill="blue"> &#160;&#160;&#160;</text>
<text text-anchor="start" x="864" y="-752" font-family="Courier New" font-size="10.00" fill="blue"> &#160;&#160;&#160;//Advance the individual meflin state WIP3 to pending states and play the machines</text>
<text text-anchor="start" x="864" y="-739.25" font-family="Courier New" font-size="10.00" fill="blue"> &#160;&#160;//&#45;&#45;Q3</text>
<text text-anchor="start" x="864" y="-726.5" font-family="Courier New" font-size="10.00" fill="blue"> &#160;&#160;&#160;if(IFSTATE(Q3Pending,WIP3)){ SIGNAL(MEFPAN_VIEWCAP,SIG_VIEWCAP);LOADVIEW(IDV_MEFPAN);SIGNAL(MEFPAN_WAITER,SIG_Q3P); SIGNAL(BPARM,SIG_PLAY);}</text>
<text text-anchor="start" x="864" y="-713.75" font-family="Courier New" font-size="10.00" fill="blue"> &#160;&#160;&#160;if(IFSTATE(Q3Started,WIP3)){ &#160;SIGNAL(MEFPAN_VIEWCAP,SIG_VIEWCAP);LOADVIEW(IDV_MEFPAN);SIGNAL(MEFPAN_WAITER,SIG_Q3S); SIGNAL(BPARM,SIG_PLAY); SIGNAL(WIP3,SIG_Q3_GIVEN);}</text>
<text text-anchor="start" x="864" y="-701" font-family="Courier New" font-size="10.00" fill="blue"> &#160;&#160;&#160;//&#45;&#45;Q2</text>
<text text-anchor="start" x="864" y="-688.25" font-family="Courier New" font-size="10.00" fill="blue"> &#160;&#160;&#160;if(IFSTATE(Q2Pending,WIP3)){ SIGNAL(MEFPAN_VIEWCAP,SIG_VIEWCAP);LOADVIEW(IDV_MEFPAN);SIGNAL(MEFPAN_WAITER,SIG_Q2P); SIGNAL(BPARM,SIG_PLAY);}</text>
<text text-anchor="start" x="864" y="-675.5" font-family="Courier New" font-size="10.00" fill="blue"> &#160;&#160;&#160;if(IFSTATE(Q2Started,WIP3)){ SIGNAL(MEFPAN_VIEWCAP,SIG_VIEWCAP);LOADVIEW(IDV_MEFPAN);SIGNAL(MEFPAN_WAITER,SIG_Q2S); SIGNAL(BPARM,SIG_PLAY); SIGNAL(WIP3,SIG_Q2_GIVEN);}</text>
<text text-anchor="start" x="864" y="-662.75" font-family="Courier New" font-size="10.00" fill="blue"> &#160;&#160;</text>
<text text-anchor="start" x="864" y="-650" font-family="Courier New" font-size="10.00" fill="blue"> &#160;&#160;// &#45;&#45;Q1 &#160;&#160;&#160;&#160;&#160;&#160;&#160;&#160;&#160;&#160;&#160;&#160;&#160;&#160;&#160;&#160;&#160;&#160;&#160;&#160;&#160;&#160;&#160;&#160;&#160;&#160;&#160;&#160;&#160;&#160;&#160;&#160;&#160;&#160;&#160;&#160;&#160;&#160;&#160;&#160;&#160;&#160;&#160;&#160;&#160;&#160;&#160;&#160;&#160;&#160;&#160;&#160;&#160;&#160;&#160;&#160;&#160;&#160;&#160;&#160;&#160;&#160;&#160;&#160;&#160;&#160;&#160;&#160;&#160;&#160;&#160;&#160;&#160;&#160;&#160;&#160;&#160;&#160;&#160;&#160;&#160;&#160;&#160;&#160;&#160;&#160;&#160;&#160;&#160;&#160;&#160;&#160;&#160;&#160;&#160;&#160;&#160;&#160;&#160;&#160;&#160;&#160;&#160;&#160;&#160;&#160;&#160;&#160;&#160;PLAY THE RIGHT MACHINE , SET CALLING MEFLIN COORDINATOR</text>
<text text-anchor="start" x="864" y="-637.25" font-family="Courier New" font-size="10.00" fill="blue"> &#160;&#160;&#160;if(IFSTATE(Q1Pending,WIP3)){ SIGNAL(MEFPAN_VIEWCAP,SIG_VIEWCAP);LOADVIEW(IDV_MEFPAN);SIGNAL(MEFPAN_WAITER,SIG_Q1P); SIGNAL(BPARM,SIG_PLAY);}</text>
<text text-anchor="start" x="864" y="-624.5" font-family="Courier New" font-size="10.00" fill="blue"> &#160;&#160;&#160;if(IFSTATE(Q1Started,WIP3)){ SIGNAL(MEFPAN_VIEWCAP,SIG_VIEWCAP);LOADVIEW(IDV_MEFPAN);SIGNAL(MEFPAN_WAITER,SIG_Q1S); SIGNAL(BPARM,SIG_PLAY); SIGNAL(WIP3,SIG_Q1_GIVEN);}</text>
<text text-anchor="start" x="864" y="-611.75" font-family="Courier New" font-size="10.00" fill="blue"> &#160;&#160;</text>
<polygon fill="none" stroke="black" points="858,-602.5 858,-801 1920,-801 1920,-602.5 858,-602.5"/>
</g>
<!-- status -->
<g id="node7" class="node">
<title>status</title>
<polygon fill="none" stroke="black" points="737,-1034.5 737,-1164.5 1239,-1164.5 1239,-1034.5 737,-1034.5"/>
<polygon fill="none" stroke="black" points="748,-1138.75 748,-1157.5 1228,-1157.5 1228,-1138.75 748,-1138.75"/>
<text text-anchor="start" x="961" y="-1146" font-family="Courier New" font-weight="bold" font-size="10.00">S16_PERST</text>
<polygon fill="none" stroke="black" points="748,-1041.5 748,-1136.75 1228,-1136.75 1228,-1041.5 748,-1041.5"/>
<text text-anchor="start" x="751" y="-1124.25" font-family="Courier New" font-size="10.00" fill="green">VIEW::IDV_VIL7 @pos(x:2650, y:40, h:148, w:210)</text>
<text text-anchor="start" x="751" y="-1111.5" font-family="Courier New" font-size="10.00" fill="green">S16_PERST::M_MEF_APPROACH(&#39;IDS_M2FIDDLE&#39;,&#39;4&#39;,&#39;PERST_COORD&#39;,&#39;&#39;,&#39;&#39;,&#39;&#39;)</text>
<text text-anchor="start" x="751" y="-1098.75" font-family="Courier New" font-size="10.00" fill="green">{state:&#39;chillin&#39;: bParm:S16_PERST_Q1 wParm: &#160;&#160;&#160;Perst welcomes you with a quest.</text>
<text text-anchor="start" x="751" y="-1086" font-family="Courier New" font-size="10.00" fill="green"> &#160;&#160;&#160;An enchanted stone rests somewhere</text>
<text text-anchor="start" x="751" y="-1073.25" font-family="Courier New" font-size="10.00" fill="green"> &#160;&#160;&#160;on Azaria. &#160;You must obtain the stone</text>
<text text-anchor="start" x="751" y="-1060.5" font-family="Courier New" font-size="10.00" fill="green"> &#160;&#160;&#160;and return it to Perst.</text>
<text text-anchor="start" x="751" y="-1047.75" font-family="Courier New" font-size="10.00" fill="green">Perst thinks this might help: wObject:IDD_PICK Top:40 Left:2650 Z:0</text>
<polygon fill="none" stroke="black" points="745,-1038.5 745,-1160.5 1231,-1160.5 1231,-1038.5 745,-1038.5"/>
</g>
</g>
</svg>
