<?xml version="1.0" encoding="UTF-8" standalone="no"?>
<!DOCTYPE svg PUBLIC "-//W3C//DTD SVG 1.1//EN"
 "http://www.w3.org/Graphics/SVG/1.1/DTD/svg11.dtd">
<!-- Generated by graphviz version 10.0.1 (20240210.2158)
 -->
<!-- Title: Automaton Pages: 1 -->
<svg width="628pt" height="536pt"
 viewBox="0.00 0.00 628.00 536.00" xmlns="http://www.w3.org/2000/svg" xmlns:xlink="http://www.w3.org/1999/xlink">
<g id="graph0" class="graph" transform="scale(1 1) rotate(0) translate(4 532)">
<title>Automaton</title>
<polygon fill="white" stroke="none" points="-4,4 -4,-532 624,-532 624,4 -4,4"/>
<!-- filename -->
<g id="node1" class="node">
<title>filename</title>
<polygon fill="none" stroke="black" points="0,-461.25 0,-514.75 172,-514.75 172,-461.25 0,-461.25"/>
<polygon fill="none" stroke="black" points="11,-489 11,-507.75 161,-507.75 161,-489 11,-489"/>
<text text-anchor="start" x="14" y="-496.25" font-family="Courier New" font-weight="bold" font-size="10.00">S17_aFFIELD1::M17_FFIELD</text>
<polygon fill="none" stroke="black" points="11,-468.25 11,-487 161,-487 161,-468.25 11,-468.25"/>
<text text-anchor="start" x="41" y="-474.5" font-family="Courier New" font-size="10.00" fill="brown">start state = 0</text>
<polygon fill="none" stroke="black" points="8,-465.25 8,-510.75 164,-510.75 164,-465.25 8,-465.25"/>
</g>
<!-- 0 -->
<g id="node2" class="node">
<title>0</title>
<polyline fill="none" stroke="darkred" stroke-width="3" points="209.38,-476.25 224.62,-476.25"/>
<text text-anchor="start" x="212.88" y="-483.95" font-family="Courier New" font-weight="bold" font-size="14.00">0</text>
<path fill="none" stroke="darkred" stroke-width="3" d="M212.79,-471.25C212.79,-471.25 221.21,-471.25 221.21,-471.25 225.42,-471.25 229.62,-475.46 229.62,-479.67 229.62,-479.67 229.62,-496.33 229.62,-496.33 229.62,-500.54 225.42,-504.75 221.21,-504.75 221.21,-504.75 212.79,-504.75 212.79,-504.75 208.58,-504.75 204.38,-500.54 204.38,-496.33 204.38,-496.33 204.38,-479.67 204.38,-479.67 204.38,-475.46 208.58,-471.25 212.79,-471.25"/>
</g>
<!-- 1 -->
<g id="node3" class="node">
<title>1</title>
<polyline fill="none" stroke="darkred" points="119.88,-324.25 134.12,-324.25"/>
<text text-anchor="start" x="122.88" y="-331.45" font-family="Courier New" font-weight="bold" font-size="14.00">1</text>
<path fill="none" stroke="darkred" d="M123.62,-321.25C123.62,-321.25 130.38,-321.25 130.38,-321.25 133.75,-321.25 137.12,-324.62 137.12,-328 137.12,-328 137.12,-343 137.12,-343 137.12,-346.38 133.75,-349.75 130.38,-349.75 130.38,-349.75 123.62,-349.75 123.62,-349.75 120.25,-349.75 116.88,-346.38 116.88,-343 116.88,-343 116.88,-328 116.88,-328 116.88,-324.62 120.25,-321.25 123.62,-321.25"/>
</g>
<!-- 0&#45;&gt;1 -->
<g id="edge1" class="edge">
<title>0&#45;&gt;1</title>
<path fill="none" stroke="black" d="M200.61,-465.75C194.93,-459.41 188.17,-452.86 181,-448 162.48,-435.45 147.36,-447.94 134,-430 120.25,-411.53 119.56,-384.93 121.69,-364.82"/>
<polygon fill="black" stroke="black" points="125.14,-365.43 123.04,-355.05 118.21,-364.48 125.14,-365.43"/>
<polygon fill="none" stroke="black" points="137,-408.25 137,-427 287,-427 287,-408.25 137,-408.25"/>
<text text-anchor="start" x="170" y="-415.5" font-family="Courier New" font-weight="bold" font-size="10.00" fill="orange">WAIT(0,SIG_ON)</text>
<polygon fill="none" stroke="black" points="137,-374.75 137,-406.25 287,-406.25 287,-374.75 137,-374.75"/>
<text text-anchor="start" x="140" y="-393.75" font-family="Courier New" font-size="10.00" fill="blue"> &#160;&#160;&#160;SIGNAL(WIP1,SIG_ON);</text>
<text text-anchor="start" x="140" y="-381" font-family="Courier New" font-size="10.00" fill="blue"> </text>
<polygon fill="none" stroke="black" points="134,-371.75 134,-430 290,-430 290,-371.75 134,-371.75"/>
</g>
<!-- 3 -->
<g id="node4" class="node">
<title>3</title>
<polyline fill="none" stroke="darkred" points="116.88,-231 131.12,-231"/>
<text text-anchor="start" x="119.88" y="-238.2" font-family="Courier New" font-weight="bold" font-size="14.00">3</text>
<path fill="none" stroke="darkred" d="M120.62,-228C120.62,-228 127.38,-228 127.38,-228 130.75,-228 134.12,-231.38 134.12,-234.75 134.12,-234.75 134.12,-249.75 134.12,-249.75 134.12,-253.12 130.75,-256.5 127.38,-256.5 127.38,-256.5 120.62,-256.5 120.62,-256.5 117.25,-256.5 113.88,-253.12 113.88,-249.75 113.88,-249.75 113.88,-234.75 113.88,-234.75 113.88,-231.38 117.25,-228 120.62,-228"/>
</g>
<!-- 1&#45;&gt;3 -->
<g id="edge2" class="edge">
<title>1&#45;&gt;3</title>
<path fill="none" stroke="black" d="M126.44,-317.34C126.01,-304.46 125.42,-286.56 124.93,-271.57"/>
<polygon fill="black" stroke="black" points="128.44,-271.73 124.61,-261.85 121.44,-271.96 128.44,-271.73"/>
<text text-anchor="start" x="130" y="-286.75" font-family="Courier New" font-weight="bold" font-size="10.00" fill="blue">SHOW(0,IDS_FORCEFLD)</text>
</g>
<!-- 4 -->
<g id="node5" class="node">
<title>4</title>
<polyline fill="none" stroke="darkred" points="115.88,-137.75 130.12,-137.75"/>
<text text-anchor="start" x="118.88" y="-144.95" font-family="Courier New" font-weight="bold" font-size="14.00">4</text>
<path fill="none" stroke="darkred" d="M119.62,-134.75C119.62,-134.75 126.38,-134.75 126.38,-134.75 129.75,-134.75 133.12,-138.12 133.12,-141.5 133.12,-141.5 133.12,-156.5 133.12,-156.5 133.12,-159.88 129.75,-163.25 126.38,-163.25 126.38,-163.25 119.62,-163.25 119.62,-163.25 116.25,-163.25 112.88,-159.88 112.88,-156.5 112.88,-156.5 112.88,-141.5 112.88,-141.5 112.88,-138.12 116.25,-134.75 119.62,-134.75"/>
</g>
<!-- 3&#45;&gt;4 -->
<g id="edge3" class="edge">
<title>3&#45;&gt;4</title>
<path fill="none" stroke="black" d="M123.81,-224.09C123.67,-211.21 123.47,-193.31 123.31,-178.32"/>
<polygon fill="black" stroke="black" points="126.81,-178.56 123.2,-168.6 119.81,-178.64 126.81,-178.56"/>
<text text-anchor="start" x="128" y="-193.5" font-family="Courier New" font-weight="bold" font-size="10.00" fill="blue">ANIMATE(0,V_REWIND|V_LOOP)</text>
</g>
<!-- 6 -->
<g id="node6" class="node">
<title>6</title>
<polyline fill="none" stroke="darkred" points="204.88,-7 219.12,-7"/>
<text text-anchor="start" x="207.88" y="-14.2" font-family="Courier New" font-weight="bold" font-size="14.00">6</text>
<path fill="none" stroke="darkred" d="M208.62,-4C208.62,-4 215.38,-4 215.38,-4 218.75,-4 222.12,-7.38 222.12,-10.75 222.12,-10.75 222.12,-25.75 222.12,-25.75 222.12,-29.12 218.75,-32.5 215.38,-32.5 215.38,-32.5 208.62,-32.5 208.62,-32.5 205.25,-32.5 201.88,-29.12 201.88,-25.75 201.88,-25.75 201.88,-10.75 201.88,-10.75 201.88,-7.38 205.25,-4 208.62,-4"/>
</g>
<!-- 4&#45;&gt;6 -->
<g id="edge4" class="edge">
<title>4&#45;&gt;6</title>
<path fill="none" stroke="black" d="M117.37,-130.8C111.93,-110.65 106.54,-77.16 122,-54.5 133.73,-37.32 155.2,-28.51 174.23,-23.99"/>
<polygon fill="black" stroke="black" points="174.77,-27.46 183.88,-22.05 173.38,-20.6 174.77,-27.46"/>
<polygon fill="none" stroke="black" points="125,-91 125,-109.75 287,-109.75 287,-91 125,-91"/>
<text text-anchor="start" x="161" y="-98.25" font-family="Courier New" font-weight="bold" font-size="10.00" fill="orange">WAIT(0,SIG_OFF)</text>
<polygon fill="none" stroke="black" points="125,-57.5 125,-89 287,-89 287,-57.5 125,-57.5"/>
<text text-anchor="start" x="128" y="-76.5" font-family="Courier New" font-size="10.00" fill="blue"> &#160;&#160;&#160;&#160;SIGNAL(WIP1,SIG_OFF);</text>
<text text-anchor="start" x="128" y="-63.75" font-family="Courier New" font-size="10.00" fill="blue"> </text>
<polygon fill="none" stroke="black" points="122,-54.5 122,-112.75 290,-112.75 290,-54.5 122,-54.5"/>
</g>
<!-- 6&#45;&gt;0 -->
<g id="edge5" class="edge">
<title>6&#45;&gt;0</title>
<path fill="none" stroke="black" d="M238.93,-24.49C256.24,-29.31 277.72,-38.26 290,-54.5 315.35,-88.01 304,-105.98 304,-148 304,-336.5 304,-336.5 304,-336.5 304,-378.52 314.87,-396.13 290,-430 279.18,-444.74 267.68,-437.09 253,-448 248.98,-450.99 245.05,-454.46 241.34,-458.09"/>
<polygon fill="black" stroke="black" points="239.08,-455.38 234.7,-465.03 244.14,-460.22 239.08,-455.38"/>
<text text-anchor="start" x="308" y="-240.12" font-family="Courier New" font-weight="bold" font-size="10.00" fill="blue">SHOW(0,0)</text>
</g>
<!-- status -->
<g id="node7" class="node">
<title>status</title>
<polygon fill="none" stroke="black" points="262,-448.5 262,-527.5 620,-527.5 620,-448.5 262,-448.5"/>
<polygon fill="none" stroke="black" points="273,-501.75 273,-520.5 609,-520.5 609,-501.75 273,-501.75"/>
<text text-anchor="start" x="405" y="-509" font-family="Courier New" font-weight="bold" font-size="10.00">S17_aFFIELD1</text>
<polygon fill="none" stroke="black" points="273,-455.5 273,-499.75 609,-499.75 609,-455.5 273,-455.5"/>
<text text-anchor="start" x="276" y="-487.25" font-family="Courier New" font-size="10.00" fill="green">VIEW::IDV_aMINEPAN @pos(x:280, y:75, h:200, w:199)</text>
<text text-anchor="start" x="276" y="-474.5" font-family="Courier New" font-size="10.00" fill="green">S17_aFFIELD1::M17_FFIELD(&#39;S17_aFFIELD2&#39;,&#39;&#39;,&#39;&#39;,&#39;&#39;,&#39;&#39;,&#39;&#39;)</text>
<text text-anchor="start" x="276" y="-461.75" font-family="Courier New" font-size="10.00" fill="green">{state:&#39;0&#39;: Top:75 Left:280 Z:0</text>
<polygon fill="none" stroke="black" points="270,-452.5 270,-523.5 612,-523.5 612,-452.5 270,-452.5"/>
</g>
</g>
</svg>
