<?xml version="1.0" encoding="UTF-8" standalone="no"?>
<!DOCTYPE svg PUBLIC "-//W3C//DTD SVG 1.1//EN"
 "http://www.w3.org/Graphics/SVG/1.1/DTD/svg11.dtd">
<!-- Generated by graphviz version 10.0.1 (20240210.2158)
 -->
<!-- Title: Automaton Pages: 1 -->
<svg width="932pt" height="626pt"
 viewBox="0.00 0.00 931.88 625.50" xmlns="http://www.w3.org/2000/svg" xmlns:xlink="http://www.w3.org/1999/xlink">
<g id="graph0" class="graph" transform="scale(1 1) rotate(0) translate(4 621.5)">
<title>Automaton</title>
<polygon fill="white" stroke="none" points="-4,4 -4,-621.5 927.88,-621.5 927.88,4 -4,4"/>
<!-- filename -->
<g id="node1" class="node">
<title>filename</title>
<polygon fill="none" stroke="black" points="0.88,-550.75 0.88,-604.25 178.88,-604.25 178.88,-550.75 0.88,-550.75"/>
<polygon fill="none" stroke="black" points="11.88,-578.5 11.88,-597.25 167.88,-597.25 167.88,-578.5 11.88,-578.5"/>
<text text-anchor="start" x="14.88" y="-585.75" font-family="Courier New" font-weight="bold" font-size="10.00">S17_aDOORWAY::M17_DOORWAY</text>
<polygon fill="none" stroke="black" points="11.88,-557.75 11.88,-576.5 167.88,-576.5 167.88,-557.75 11.88,-557.75"/>
<text text-anchor="start" x="44.88" y="-564" font-family="Courier New" font-size="10.00" fill="brown">start state = 0</text>
<polygon fill="none" stroke="black" points="8.88,-554.75 8.88,-600.25 170.88,-600.25 170.88,-554.75 8.88,-554.75"/>
</g>
<!-- 0 -->
<g id="node2" class="node">
<title>0</title>
<polyline fill="none" stroke="darkred" stroke-width="3" points="216.25,-565.75 231.5,-565.75"/>
<text text-anchor="start" x="219.75" y="-573.45" font-family="Courier New" font-weight="bold" font-size="14.00">0</text>
<path fill="none" stroke="darkred" stroke-width="3" d="M219.67,-560.75C219.67,-560.75 228.08,-560.75 228.08,-560.75 232.29,-560.75 236.5,-564.96 236.5,-569.17 236.5,-569.17 236.5,-585.83 236.5,-585.83 236.5,-590.04 232.29,-594.25 228.08,-594.25 228.08,-594.25 219.67,-594.25 219.67,-594.25 215.46,-594.25 211.25,-590.04 211.25,-585.83 211.25,-585.83 211.25,-569.17 211.25,-569.17 211.25,-564.96 215.46,-560.75 219.67,-560.75"/>
</g>
<!-- caveNoLockEntry -->
<g id="node3" class="node">
<title>caveNoLockEntry</title>
<polyline fill="none" stroke="darkred" points="11,-426.5 140.75,-426.5"/>
<text text-anchor="start" x="14" y="-433.7" font-family="Courier New" font-weight="bold" font-size="14.00">caveNoLockEntry</text>
<path fill="none" stroke="darkred" d="M17.5,-423.5C17.5,-423.5 134.25,-423.5 134.25,-423.5 139,-423.5 143.75,-428.25 143.75,-433 143.75,-433 143.75,-442.5 143.75,-442.5 143.75,-447.25 139,-452 134.25,-452 134.25,-452 17.5,-452 17.5,-452 12.75,-452 8,-447.25 8,-442.5 8,-442.5 8,-433 8,-433 8,-428.25 12.75,-423.5 17.5,-423.5"/>
</g>
<!-- 0&#45;&gt;caveNoLockEntry -->
<g id="edge1" class="edge">
<title>0&#45;&gt;caveNoLockEntry</title>
<path fill="none" stroke="black" d="M209.22,-555.35C203.38,-548.53 196.09,-541.67 187.88,-537.5 156.56,-521.6 54.25,-545.71 30.88,-519.5 17.41,-504.41 22.02,-492.18 30.88,-474 32.72,-470.21 35.2,-466.7 38.04,-463.5"/>
<polygon fill="black" stroke="black" points="40.3,-466.17 45.14,-456.75 35.48,-461.09 40.3,-466.17"/>
<text text-anchor="start" x="34.88" y="-494.62" font-family="Courier New" font-weight="bold" font-size="10.00" fill="orange">CLICK(0,0)</text>
</g>
<!-- Lock -->
<g id="node4" class="node">
<title>Lock</title>
<polyline fill="none" stroke="darkred" points="559.38,-426.5 598.38,-426.5"/>
<text text-anchor="start" x="562.38" y="-433.7" font-family="Courier New" font-weight="bold" font-size="14.00">Lock</text>
<path fill="none" stroke="darkred" d="M565.88,-423.5C565.88,-423.5 591.88,-423.5 591.88,-423.5 596.62,-423.5 601.38,-428.25 601.38,-433 601.38,-433 601.38,-442.5 601.38,-442.5 601.38,-447.25 596.62,-452 591.88,-452 591.88,-452 565.88,-452 565.88,-452 561.12,-452 556.38,-447.25 556.38,-442.5 556.38,-442.5 556.38,-433 556.38,-433 556.38,-428.25 561.12,-423.5 565.88,-423.5"/>
</g>
<!-- 0&#45;&gt;Lock -->
<g id="edge2" class="edge">
<title>0&#45;&gt;Lock</title>
<path fill="none" stroke="black" d="M239.14,-555.4C244.93,-548.76 252.04,-541.99 259.88,-537.5 292.24,-518.94 305.94,-529.53 341.88,-519.5 411.64,-500.02 491,-471.69 537.91,-454.28"/>
<polygon fill="black" stroke="black" points="538.98,-457.62 547.12,-450.84 536.53,-451.06 538.98,-457.62"/>
<text text-anchor="start" x="481.88" y="-494.62" font-family="Courier New" font-weight="bold" font-size="10.00" fill="orange">WAIT(0,SIG_CLOSE)</text>
</g>
<!-- caveNoLockEntry&#45;&gt;0 -->
<g id="edge5" class="edge">
<title>caveNoLockEntry&#45;&gt;0</title>
<path fill="none" stroke="black" d="M87.49,-455.73C91.26,-461.45 95.37,-467.92 98.88,-474 110.19,-493.63 104.32,-505.17 121.88,-519.5 145.43,-538.72 161.89,-521.72 187.88,-537.5 192.46,-540.28 196.82,-543.82 200.82,-547.61"/>
<polygon fill="black" stroke="black" points="197.99,-549.73 207.44,-554.53 203.05,-544.89 197.99,-549.73"/>
<polygon fill="none" stroke="black" points="124.88,-497.75 124.88,-516.5 310.88,-516.5 310.88,-497.75 124.88,-497.75"/>
<text text-anchor="start" x="172.88" y="-505" font-family="Courier New" font-weight="bold" font-size="10.00" fill="blue">LOADVIEW(WIP1,)</text>
<polygon fill="none" stroke="black" points="124.88,-477 124.88,-495.75 310.88,-495.75 310.88,-477 124.88,-477"/>
<text text-anchor="start" x="127.88" y="-483.25" font-family="Courier New" font-size="10.00" fill="blue"> &#160;&#160;&#160;WRITE(&quot;No Lock entry &#45; &quot;);</text>
<polygon fill="none" stroke="black" points="121.88,-474 121.88,-519.5 313.88,-519.5 313.88,-474 121.88,-474"/>
</g>
<!-- forcefieldUp -->
<g id="node5" class="node">
<title>forcefieldUp</title>
<polyline fill="none" stroke="darkred" points="435.38,-333.25 540.38,-333.25"/>
<text text-anchor="start" x="438.38" y="-340.45" font-family="Courier New" font-weight="bold" font-size="14.00">forcefieldUp</text>
<path fill="none" stroke="darkred" d="M441.88,-330.25C441.88,-330.25 533.88,-330.25 533.88,-330.25 538.62,-330.25 543.38,-335 543.38,-339.75 543.38,-339.75 543.38,-349.25 543.38,-349.25 543.38,-354 538.62,-358.75 533.88,-358.75 533.88,-358.75 441.88,-358.75 441.88,-358.75 437.12,-358.75 432.38,-354 432.38,-349.25 432.38,-349.25 432.38,-339.75 432.38,-339.75 432.38,-335 437.12,-330.25 441.88,-330.25"/>
</g>
<!-- Lock&#45;&gt;forcefieldUp -->
<g id="edge3" class="edge">
<title>Lock&#45;&gt;forcefieldUp</title>
<path fill="none" stroke="black" d="M548.58,-423.07C538.31,-417.42 527.31,-410.15 518.88,-401.5 510.9,-393.32 504.33,-382.68 499.32,-372.87"/>
<polygon fill="black" stroke="black" points="502.6,-371.62 495.16,-364.08 496.28,-374.62 502.6,-371.62"/>
<text text-anchor="start" x="522.88" y="-389" font-family="Courier New" font-weight="bold" font-size="10.00" fill="blue">SIGNAL(WIP2,SIG_ON)</text>
</g>
<!-- LockBombed -->
<g id="node6" class="node">
<title>LockBombed</title>
<polyline fill="none" stroke="darkred" points="300.62,-198 389.12,-198"/>
<text text-anchor="start" x="303.62" y="-205.2" font-family="Courier New" font-weight="bold" font-size="14.00">LockBombed</text>
<path fill="none" stroke="darkred" d="M307.12,-195C307.12,-195 382.62,-195 382.62,-195 387.38,-195 392.12,-199.75 392.12,-204.5 392.12,-204.5 392.12,-214 392.12,-214 392.12,-218.75 387.38,-223.5 382.62,-223.5 382.62,-223.5 307.12,-223.5 307.12,-223.5 302.38,-223.5 297.62,-218.75 297.62,-214 297.62,-214 297.62,-204.5 297.62,-204.5 297.62,-199.75 302.38,-195 307.12,-195"/>
</g>
<!-- forcefieldUp&#45;&gt;LockBombed -->
<g id="edge6" class="edge">
<title>forcefieldUp&#45;&gt;LockBombed</title>
<path fill="none" stroke="black" d="M424.62,-333.25C408.4,-328.03 392.1,-320.15 379.88,-308.25 360.86,-289.75 352.15,-260.24 348.17,-238.43"/>
<polygon fill="black" stroke="black" points="351.65,-238.06 346.65,-228.72 344.74,-239.14 351.65,-238.06"/>
<text text-anchor="start" x="383.88" y="-277" font-family="Courier New" font-weight="bold" font-size="10.00" fill="orange">WAIT(0,SIG_OPEN)</text>
</g>
<!-- keyUsed -->
<g id="node7" class="node">
<title>keyUsed</title>
<polyline fill="none" stroke="darkred" points="462,-198 525.75,-198"/>
<text text-anchor="start" x="465" y="-205.2" font-family="Courier New" font-weight="bold" font-size="14.00">keyUsed</text>
<path fill="none" stroke="darkred" d="M468.5,-195C468.5,-195 519.25,-195 519.25,-195 524,-195 528.75,-199.75 528.75,-204.5 528.75,-204.5 528.75,-214 528.75,-214 528.75,-218.75 524,-223.5 519.25,-223.5 519.25,-223.5 468.5,-223.5 468.5,-223.5 463.75,-223.5 459,-218.75 459,-214 459,-214 459,-204.5 459,-204.5 459,-199.75 463.75,-195 468.5,-195"/>
</g>
<!-- forcefieldUp&#45;&gt;keyUsed -->
<g id="edge7" class="edge">
<title>forcefieldUp&#45;&gt;keyUsed</title>
<path fill="none" stroke="black" d="M487.48,-326.59C487.17,-307.84 487.06,-276.72 488.88,-250 489.13,-246.25 489.5,-242.32 489.92,-238.44"/>
<polygon fill="black" stroke="black" points="493.37,-239.09 491.12,-228.73 486.42,-238.23 493.37,-239.09"/>
<polygon fill="none" stroke="black" points="491.88,-286.5 491.88,-305.25 629.88,-305.25 629.88,-286.5 491.88,-286.5"/>
<text text-anchor="start" x="503.88" y="-293.75" font-family="Courier New" font-weight="bold" font-size="10.00" fill="orange">WAIT(0,SIG_ENTER_1)</text>
<polygon fill="none" stroke="black" points="491.88,-253 491.88,-284.5 629.88,-284.5 629.88,-253 491.88,-253"/>
<text text-anchor="start" x="494.88" y="-272" font-family="Courier New" font-size="10.00" fill="blue"> &#160;&#160;&#160;ADDI(LWISDOM,1);</text>
<text text-anchor="start" x="494.88" y="-259.25" font-family="Courier New" font-size="10.00" fill="blue"> &#160;&#160;&#160;SIGNALi(0,SID_ID);</text>
<polygon fill="none" stroke="black" points="488.88,-250 488.88,-308.25 632.88,-308.25 632.88,-250 488.88,-250"/>
</g>
<!-- LockBombed&#45;&gt;0 -->
<g id="edge4" class="edge">
<title>LockBombed&#45;&gt;0</title>
<path fill="none" stroke="black" d="M345.51,-227.21C347.32,-285.12 350.27,-473.99 313.88,-519.5 298.08,-539.26 281.12,-523.77 259.88,-537.5 255.58,-540.28 251.45,-543.68 247.63,-547.31"/>
<polygon fill="black" stroke="black" points="245.24,-544.74 240.83,-554.37 250.28,-549.6 245.24,-544.74"/>
<text text-anchor="start" x="347.88" y="-389" font-family="Courier New" font-weight="bold" font-size="10.00" fill="blue">SIGNAL(WIP2,SIG_OFF)</text>
</g>
<!-- tempOpen -->
<g id="node8" class="node">
<title>tempOpen</title>
<polyline fill="none" stroke="darkred" points="618.88,-100.25 690.88,-100.25"/>
<text text-anchor="start" x="621.88" y="-107.45" font-family="Courier New" font-weight="bold" font-size="14.00">tempOpen</text>
<path fill="none" stroke="darkred" d="M625.38,-97.25C625.38,-97.25 684.38,-97.25 684.38,-97.25 689.12,-97.25 693.88,-102 693.88,-106.75 693.88,-106.75 693.88,-116.25 693.88,-116.25 693.88,-121 689.12,-125.75 684.38,-125.75 684.38,-125.75 625.38,-125.75 625.38,-125.75 620.62,-125.75 615.88,-121 615.88,-116.25 615.88,-116.25 615.88,-106.75 615.88,-106.75 615.88,-102 620.62,-97.25 625.38,-97.25"/>
</g>
<!-- keyUsed&#45;&gt;tempOpen -->
<g id="edge8" class="edge">
<title>keyUsed&#45;&gt;tempOpen</title>
<path fill="none" stroke="black" d="M494.8,-191.27C496.45,-177.64 500.93,-158.99 512.88,-147.75 535.33,-126.62 568.42,-117.61 597.01,-113.96"/>
<polygon fill="black" stroke="black" points="597.04,-117.48 606.61,-112.94 596.3,-110.52 597.04,-117.48"/>
<text text-anchor="start" x="516.88" y="-156" font-family="Courier New" font-weight="bold" font-size="10.00" fill="blue">SIGNAL(WIP2,SIG_OFF)</text>
</g>
<!-- tempOpen&#45;&gt;Lock -->
<g id="edge11" class="edge">
<title>tempOpen&#45;&gt;Lock</title>
<path fill="none" stroke="black" d="M654.99,-129.36C655.28,-187.66 655.11,-378.34 640.88,-401.5 635.7,-409.92 627.73,-416.51 619.21,-421.6"/>
<polygon fill="black" stroke="black" points="617.66,-418.46 610.43,-426.2 620.91,-424.66 617.66,-418.46"/>
<text text-anchor="start" x="657.88" y="-277" font-family="Courier New" font-weight="bold" font-size="10.00" fill="orange">WAIT(0,SIG_CLOSE)</text>
</g>
<!-- letInOne -->
<g id="node9" class="node">
<title>letInOne</title>
<polyline fill="none" stroke="darkred" points="680.88,-7 752.88,-7"/>
<text text-anchor="start" x="683.88" y="-14.2" font-family="Courier New" font-weight="bold" font-size="14.00">letInOne</text>
<path fill="none" stroke="darkred" d="M687.38,-4C687.38,-4 746.38,-4 746.38,-4 751.12,-4 755.88,-8.75 755.88,-13.5 755.88,-13.5 755.88,-23 755.88,-23 755.88,-27.75 751.12,-32.5 746.38,-32.5 746.38,-32.5 687.38,-32.5 687.38,-32.5 682.62,-32.5 677.88,-27.75 677.88,-23 677.88,-23 677.88,-13.5 677.88,-13.5 677.88,-8.75 682.62,-4 687.38,-4"/>
</g>
<!-- tempOpen&#45;&gt;letInOne -->
<g id="edge10" class="edge">
<title>tempOpen&#45;&gt;letInOne</title>
<path fill="none" stroke="black" d="M666.54,-93.34C675.63,-79.95 688.42,-61.13 698.83,-45.81"/>
<polygon fill="black" stroke="black" points="701.69,-47.83 704.41,-37.59 695.9,-43.89 701.69,-47.83"/>
<text text-anchor="start" x="694.88" y="-62.75" font-family="Courier New" font-weight="bold" font-size="10.00" fill="orange">CLICK(0,0)</text>
</g>
<!-- letInOne&#45;&gt;Lock -->
<g id="edge9" class="edge">
<title>letInOne&#45;&gt;Lock</title>
<path fill="none" stroke="black" d="M744.75,-36.2C751.46,-41.37 758.06,-47.55 762.88,-54.5 777.69,-75.88 779.88,-84.49 779.88,-110.5 779.88,-345.5 779.88,-345.5 779.88,-345.5 779.88,-415.02 678.94,-431.83 620.13,-435.73"/>
<polygon fill="black" stroke="black" points="620.27,-432.22 610.48,-436.27 620.66,-439.21 620.27,-432.22"/>
<polygon fill="none" stroke="black" points="782.88,-210.25 782.88,-229 920.88,-229 920.88,-210.25 782.88,-210.25"/>
<text text-anchor="start" x="806.88" y="-217.5" font-family="Courier New" font-weight="bold" font-size="10.00" fill="blue">LOADVIEW(WIP1,)</text>
<polygon fill="none" stroke="black" points="782.88,-189.5 782.88,-208.25 920.88,-208.25 920.88,-189.5 782.88,-189.5"/>
<text text-anchor="start" x="785.88" y="-195.75" font-family="Courier New" font-size="10.00" fill="blue"> &#160;&#160;WRITE(&quot;unlocked &quot;);</text>
<polygon fill="none" stroke="black" points="779.88,-186.5 779.88,-232 923.88,-232 923.88,-186.5 779.88,-186.5"/>
</g>
<!-- status -->
<g id="node10" class="node">
<title>status</title>
<polygon fill="none" stroke="black" points="268.88,-538 268.88,-617 782.88,-617 782.88,-538 268.88,-538"/>
<polygon fill="none" stroke="black" points="279.88,-591.25 279.88,-610 771.88,-610 771.88,-591.25 279.88,-591.25"/>
<text text-anchor="start" x="489.88" y="-598.5" font-family="Courier New" font-weight="bold" font-size="10.00">S17_aDOORWAY</text>
<polygon fill="none" stroke="black" points="279.88,-545 279.88,-589.25 771.88,-589.25 771.88,-545 279.88,-545"/>
<text text-anchor="start" x="282.88" y="-576.75" font-family="Courier New" font-size="10.00" fill="green">VIEW::IDV_aMINEPAN @pos(x:280, y:75, h:200, w:199)</text>
<text text-anchor="start" x="282.88" y="-564" font-family="Courier New" font-size="10.00" fill="green">S17_aDOORWAY::M17_DOORWAY(&#39;IDV_aCV1aPAN&#39;,&#39;S17_aFFIELD1&#39;,&#39;S17_aFOULWIND&#39;,&#39;&#39;,&#39;&#39;,&#39;&#39;)</text>
<text text-anchor="start" x="282.88" y="-551.25" font-family="Courier New" font-size="10.00" fill="green">{state:&#39;0&#39;: Top:75 Left:280 Z:0</text>
<polygon fill="none" stroke="black" points="276.88,-542 276.88,-613 774.88,-613 774.88,-542 276.88,-542"/>
</g>
</g>
</svg>
