<?xml version="1.0" encoding="UTF-8" standalone="no"?>
<!DOCTYPE svg PUBLIC "-//W3C//DTD SVG 1.1//EN"
 "http://www.w3.org/Graphics/SVG/1.1/DTD/svg11.dtd">
<!-- Generated by graphviz version 10.0.1 (20240210.2158)
 -->
<!-- Title: Automaton Pages: 1 -->
<svg width="784pt" height="656pt"
 viewBox="0.00 0.00 784.00 655.50" xmlns="http://www.w3.org/2000/svg" xmlns:xlink="http://www.w3.org/1999/xlink">
<g id="graph0" class="graph" transform="scale(1 1) rotate(0) translate(4 651.5)">
<title>Automaton</title>
<polygon fill="white" stroke="none" points="-4,4 -4,-651.5 780,-651.5 780,4 -4,4"/>
<!-- filename -->
<g id="node1" class="node">
<title>filename</title>
<polygon fill="none" stroke="black" points="0,-580.75 0,-634.25 190,-634.25 190,-580.75 0,-580.75"/>
<polygon fill="none" stroke="black" points="11,-608.5 11,-627.25 179,-627.25 179,-608.5 11,-608.5"/>
<text text-anchor="start" x="14" y="-615.75" font-family="Courier New" font-weight="bold" font-size="10.00">S19_TOKENSHOW_W::M_PLANTBIN</text>
<polygon fill="none" stroke="black" points="11,-587.75 11,-606.5 179,-606.5 179,-587.75 11,-587.75"/>
<text text-anchor="start" x="50" y="-594" font-family="Courier New" font-size="10.00" fill="brown">start state = 0</text>
<polygon fill="none" stroke="black" points="8,-584.75 8,-630.25 182,-630.25 182,-584.75 8,-584.75"/>
</g>
<!-- 0 -->
<g id="node2" class="node">
<title>0</title>
<polyline fill="none" stroke="darkred" points="227.88,-596.25 242.12,-596.25"/>
<text text-anchor="start" x="230.88" y="-603.45" font-family="Courier New" font-weight="bold" font-size="14.00">0</text>
<path fill="none" stroke="darkred" d="M231.62,-593.25C231.62,-593.25 238.38,-593.25 238.38,-593.25 241.75,-593.25 245.12,-596.62 245.12,-600 245.12,-600 245.12,-615 245.12,-615 245.12,-618.38 241.75,-621.75 238.38,-621.75 238.38,-621.75 231.62,-621.75 231.62,-621.75 228.25,-621.75 224.88,-618.38 224.88,-615 224.88,-615 224.88,-600 224.88,-600 224.88,-596.62 228.25,-593.25 231.62,-593.25"/>
</g>
<!-- 1 -->
<g id="node3" class="node">
<title>1</title>
<polyline fill="none" stroke="darkred" points="227.88,-481.25 242.12,-481.25"/>
<text text-anchor="start" x="230.88" y="-488.45" font-family="Courier New" font-weight="bold" font-size="14.00">1</text>
<path fill="none" stroke="darkred" d="M231.62,-478.25C231.62,-478.25 238.38,-478.25 238.38,-478.25 241.75,-478.25 245.12,-481.62 245.12,-485 245.12,-485 245.12,-500 245.12,-500 245.12,-503.38 241.75,-506.75 238.38,-506.75 238.38,-506.75 231.62,-506.75 231.62,-506.75 228.25,-506.75 224.88,-503.38 224.88,-500 224.88,-500 224.88,-485 224.88,-485 224.88,-481.62 228.25,-478.25 231.62,-478.25"/>
</g>
<!-- 0&#45;&gt;1 -->
<g id="edge1" class="edge">
<title>0&#45;&gt;1</title>
<path fill="none" stroke="black" d="M235,-589.34C235,-571.4 235,-542.95 235,-521.7"/>
<polygon fill="black" stroke="black" points="238.5,-521.97 235,-511.97 231.5,-521.97 238.5,-521.97"/>
<text text-anchor="start" x="239" y="-537" font-family="Courier New" font-weight="bold" font-size="10.00" fill="blue">MOV(WSPRITE,WIP2)</text>
</g>
<!-- 5 -->
<g id="node4" class="node">
<title>5</title>
<polyline fill="none" stroke="darkred" points="227.88,-388 242.12,-388"/>
<text text-anchor="start" x="230.88" y="-395.2" font-family="Courier New" font-weight="bold" font-size="14.00">5</text>
<path fill="none" stroke="darkred" d="M231.62,-385C231.62,-385 238.38,-385 238.38,-385 241.75,-385 245.12,-388.38 245.12,-391.75 245.12,-391.75 245.12,-406.75 245.12,-406.75 245.12,-410.12 241.75,-413.5 238.38,-413.5 238.38,-413.5 231.62,-413.5 231.62,-413.5 228.25,-413.5 224.88,-410.12 224.88,-406.75 224.88,-406.75 224.88,-391.75 224.88,-391.75 224.88,-388.38 228.25,-385 231.62,-385"/>
</g>
<!-- 1&#45;&gt;5 -->
<g id="edge2" class="edge">
<title>1&#45;&gt;5</title>
<path fill="none" stroke="black" d="M235,-474.34C235,-461.46 235,-443.56 235,-428.57"/>
<polygon fill="black" stroke="black" points="238.5,-428.85 235,-418.85 231.5,-428.85 238.5,-428.85"/>
<text text-anchor="start" x="239" y="-443.75" font-family="Courier New" font-weight="bold" font-size="10.00" fill="blue">SHOW(WSPRITE,)</text>
</g>
<!-- 10 -->
<g id="node5" class="node">
<title>10</title>
<polyline fill="none" stroke="darkred" points="172.75,-294.75 195.25,-294.75"/>
<text text-anchor="start" x="175.75" y="-301.95" font-family="Courier New" font-weight="bold" font-size="14.00">10</text>
<path fill="none" stroke="darkred" d="M179.25,-291.75C179.25,-291.75 188.75,-291.75 188.75,-291.75 193.5,-291.75 198.25,-296.5 198.25,-301.25 198.25,-301.25 198.25,-310.75 198.25,-310.75 198.25,-315.5 193.5,-320.25 188.75,-320.25 188.75,-320.25 179.25,-320.25 179.25,-320.25 174.5,-320.25 169.75,-315.5 169.75,-310.75 169.75,-310.75 169.75,-301.25 169.75,-301.25 169.75,-296.5 174.5,-291.75 179.25,-291.75"/>
</g>
<!-- 5&#45;&gt;10 -->
<g id="edge7" class="edge">
<title>5&#45;&gt;10</title>
<path fill="none" stroke="black" d="M213.19,-381.35C207.53,-376.02 201.93,-369.75 198,-363 193.11,-354.6 189.91,-344.52 187.83,-335.24"/>
<polygon fill="black" stroke="black" points="191.3,-334.78 186.02,-325.6 184.42,-336.07 191.3,-334.78"/>
<text text-anchor="start" x="202" y="-350.5" font-family="Courier New" font-weight="bold" font-size="10.00" fill="orange">GRAB(WIP1,)</text>
</g>
<!-- 20 -->
<g id="node6" class="node">
<title>20</title>
<polyline fill="none" stroke="darkred" stroke-width="3" points="168.25,-197 191.75,-197"/>
<text text-anchor="start" x="171.75" y="-204.7" font-family="Courier New" font-weight="bold" font-size="14.00">20</text>
<path fill="none" stroke="darkred" stroke-width="3" d="M174.42,-192C174.42,-192 185.58,-192 185.58,-192 191.17,-192 196.75,-197.58 196.75,-203.17 196.75,-203.17 196.75,-214.33 196.75,-214.33 196.75,-219.92 191.17,-225.5 185.58,-225.5 185.58,-225.5 174.42,-225.5 174.42,-225.5 168.83,-225.5 163.25,-219.92 163.25,-214.33 163.25,-214.33 163.25,-203.17 163.25,-203.17 163.25,-197.58 168.83,-192 174.42,-192"/>
</g>
<!-- 10&#45;&gt;20 -->
<g id="edge3" class="edge">
<title>10&#45;&gt;20</title>
<path fill="none" stroke="black" d="M183.28,-287.97C182.75,-275.26 182.01,-257.52 181.36,-242.14"/>
<polygon fill="black" stroke="black" points="184.87,-242.32 180.95,-232.48 177.88,-242.62 184.87,-242.32"/>
<text text-anchor="start" x="186" y="-257.25" font-family="Courier New" font-weight="bold" font-size="10.00" fill="blue">SHOW(0,0)</text>
</g>
<!-- 30 -->
<g id="node7" class="node">
<title>30</title>
<polyline fill="none" stroke="darkred" points="161.75,-100.25 184.25,-100.25"/>
<text text-anchor="start" x="164.75" y="-107.45" font-family="Courier New" font-weight="bold" font-size="14.00">30</text>
<path fill="none" stroke="darkred" d="M168.25,-97.25C168.25,-97.25 177.75,-97.25 177.75,-97.25 182.5,-97.25 187.25,-102 187.25,-106.75 187.25,-106.75 187.25,-116.25 187.25,-116.25 187.25,-121 182.5,-125.75 177.75,-125.75 177.75,-125.75 168.25,-125.75 168.25,-125.75 163.5,-125.75 158.75,-121 158.75,-116.25 158.75,-116.25 158.75,-106.75 158.75,-106.75 158.75,-102 163.5,-97.25 168.25,-97.25"/>
</g>
<!-- 20&#45;&gt;30 -->
<g id="edge4" class="edge">
<title>20&#45;&gt;30</title>
<path fill="none" stroke="black" d="M178.45,-186.61C177.46,-173.17 176.17,-155.59 175.09,-140.93"/>
<polygon fill="black" stroke="black" points="178.58,-140.68 174.36,-130.97 171.6,-141.2 178.58,-140.68"/>
<text text-anchor="start" x="180" y="-156" font-family="Courier New" font-weight="bold" font-size="10.00" fill="blue">ESTIME(WIP3,)</text>
</g>
<!-- 40 -->
<g id="node8" class="node">
<title>40</title>
<polyline fill="none" stroke="darkred" points="211.75,-7 234.25,-7"/>
<text text-anchor="start" x="214.75" y="-14.2" font-family="Courier New" font-weight="bold" font-size="14.00">40</text>
<path fill="none" stroke="darkred" d="M218.25,-4C218.25,-4 227.75,-4 227.75,-4 232.5,-4 237.25,-8.75 237.25,-13.5 237.25,-13.5 237.25,-23 237.25,-23 237.25,-27.75 232.5,-32.5 227.75,-32.5 227.75,-32.5 218.25,-32.5 218.25,-32.5 213.5,-32.5 208.75,-27.75 208.75,-23 208.75,-23 208.75,-13.5 208.75,-13.5 208.75,-8.75 213.5,-4 218.25,-4"/>
</g>
<!-- 30&#45;&gt;40 -->
<g id="edge5" class="edge">
<title>30&#45;&gt;40</title>
<path fill="none" stroke="black" d="M163.79,-93.32C158.9,-81.69 155.17,-66.34 162,-54.5 167.43,-45.09 176.44,-37.96 185.89,-32.67"/>
<polygon fill="black" stroke="black" points="187.38,-35.84 194.81,-28.29 184.29,-29.56 187.38,-35.84"/>
<text text-anchor="start" x="166" y="-62.75" font-family="Courier New" font-weight="bold" font-size="10.00" fill="blue">MOV(WSPRITE,WIP2)</text>
</g>
<!-- 40&#45;&gt;5 -->
<g id="edge6" class="edge">
<title>40&#45;&gt;5</title>
<path fill="none" stroke="black" d="M249.88,-33.59C258.05,-39.14 266.35,-46.17 272,-54.5 286.4,-75.73 286,-84.85 286,-110.5 286,-307 286,-307 286,-307 286,-332.65 284.91,-340.83 272,-363 269.91,-366.58 267.35,-370.04 264.57,-373.28"/>
<polygon fill="black" stroke="black" points="262.27,-370.62 257.86,-380.26 267.31,-375.47 262.27,-370.62"/>
<text text-anchor="start" x="290" y="-206.62" font-family="Courier New" font-weight="bold" font-size="10.00" fill="blue">SHOW(WSPRITE,)</text>
</g>
<!-- status -->
<g id="node9" class="node">
<title>status</title>
<polygon fill="none" stroke="black" points="280,-568 280,-647 776,-647 776,-568 280,-568"/>
<polygon fill="none" stroke="black" points="291,-621.25 291,-640 765,-640 765,-621.25 291,-621.25"/>
<text text-anchor="start" x="483" y="-628.5" font-family="Courier New" font-weight="bold" font-size="10.00">S19_TOKENSHOW_W</text>
<polygon fill="none" stroke="black" points="291,-575 291,-619.25 765,-619.25 765,-575 291,-575"/>
<text text-anchor="start" x="294" y="-606.75" font-family="Courier New" font-size="10.00" fill="green">VIEW::IDV_RACEPAN @pos(x:39, y:21, w:31, h:34)</text>
<text text-anchor="start" x="294" y="-594" font-family="Courier New" font-size="10.00" fill="green">S19_TOKENSHOW_W::M_PLANTBIN(&#39;IDD_PLAYER_W&#39;,&#39;IDS_CHOOSETOKEN_W&#39;,&#39;360&#39;,&#39;&#39;,&#39;&#39;,&#39;&#39;)</text>
<text text-anchor="start" x="294" y="-581.25" font-family="Courier New" font-size="10.00" fill="green">{state:&#39;20&#39;: dEtime:25055 Top:21 Left:39 Z:2</text>
<polygon fill="none" stroke="black" points="288,-572 288,-643 768,-643 768,-572 288,-572"/>
</g>
</g>
</svg>
