<?xml version="1.0" encoding="UTF-8" standalone="no"?>
<!DOCTYPE svg PUBLIC "-//W3C//DTD SVG 1.1//EN"
 "http://www.w3.org/Graphics/SVG/1.1/DTD/svg11.dtd">
<!-- Generated by graphviz version 10.0.1 (20240210.2158)
 -->
<!-- Title: Automaton Pages: 1 -->
<svg width="760pt" height="485pt"
 viewBox="0.00 0.00 760.00 485.25" xmlns="http://www.w3.org/2000/svg" xmlns:xlink="http://www.w3.org/1999/xlink">
<g id="graph0" class="graph" transform="scale(1 1) rotate(0) translate(4 481.25)">
<title>Automaton</title>
<polygon fill="white" stroke="none" points="-4,4 -4,-481.25 756,-481.25 756,4 -4,4"/>
<!-- filename -->
<g id="node1" class="node">
<title>filename</title>
<polygon fill="none" stroke="black" points="0,-410.5 0,-464 172,-464 172,-410.5 0,-410.5"/>
<polygon fill="none" stroke="black" points="11,-438.25 11,-457 161,-457 161,-438.25 11,-438.25"/>
<text text-anchor="start" x="14" y="-445.5" font-family="Courier New" font-weight="bold" font-size="10.00">S19_DIEDROP::M16_DIEROLL</text>
<polygon fill="none" stroke="black" points="11,-417.5 11,-436.25 161,-436.25 161,-417.5 11,-417.5"/>
<text text-anchor="start" x="41" y="-423.75" font-family="Courier New" font-size="10.00" fill="brown">start state = 0</text>
<polygon fill="none" stroke="black" points="8,-414.5 8,-460 164,-460 164,-414.5 8,-414.5"/>
</g>
<!-- 0 -->
<g id="node2" class="node">
<title>0</title>
<polyline fill="none" stroke="darkred" points="209.88,-426 224.12,-426"/>
<text text-anchor="start" x="212.88" y="-433.2" font-family="Courier New" font-weight="bold" font-size="14.00">0</text>
<path fill="none" stroke="darkred" d="M213.62,-423C213.62,-423 220.38,-423 220.38,-423 223.75,-423 227.12,-426.38 227.12,-429.75 227.12,-429.75 227.12,-444.75 227.12,-444.75 227.12,-448.12 223.75,-451.5 220.38,-451.5 220.38,-451.5 213.62,-451.5 213.62,-451.5 210.25,-451.5 206.88,-448.12 206.88,-444.75 206.88,-444.75 206.88,-429.75 206.88,-429.75 206.88,-426.38 210.25,-423 213.62,-423"/>
</g>
<!-- EMPTY -->
<g id="node3" class="node">
<title>EMPTY</title>
<polyline fill="none" stroke="darkred" stroke-width="3" points="192.88,-306.5 241.12,-306.5"/>
<text text-anchor="start" x="196.38" y="-314.2" font-family="Courier New" font-weight="bold" font-size="14.00">EMPTY</text>
<path fill="none" stroke="darkred" stroke-width="3" d="M199.04,-301.5C199.04,-301.5 234.96,-301.5 234.96,-301.5 240.54,-301.5 246.12,-307.08 246.12,-312.67 246.12,-312.67 246.12,-323.83 246.12,-323.83 246.12,-329.42 240.54,-335 234.96,-335 234.96,-335 199.04,-335 199.04,-335 193.46,-335 187.88,-329.42 187.88,-323.83 187.88,-323.83 187.88,-312.67 187.88,-312.67 187.88,-307.08 193.46,-301.5 199.04,-301.5"/>
</g>
<!-- 0&#45;&gt;EMPTY -->
<g id="edge1" class="edge">
<title>0&#45;&gt;EMPTY</title>
<path fill="none" stroke="black" d="M217,-419.24C217,-401.59 217,-373.57 217,-351.67"/>
<polygon fill="black" stroke="black" points="220.5,-351.76 217,-341.76 213.5,-351.76 220.5,-351.76"/>
<text text-anchor="start" x="221" y="-366.75" font-family="Courier New" font-weight="bold" font-size="10.00" fill="blue">Z_EPSILON(,)</text>
</g>
<!-- ROLLING -->
<g id="node5" class="node">
<title>ROLLING</title>
<polyline fill="none" stroke="darkred" points="94.12,-167.75 157.88,-167.75"/>
<text text-anchor="start" x="97.12" y="-174.95" font-family="Courier New" font-weight="bold" font-size="14.00">ROLLING</text>
<path fill="none" stroke="darkred" d="M100.62,-164.75C100.62,-164.75 151.38,-164.75 151.38,-164.75 156.12,-164.75 160.88,-169.5 160.88,-174.25 160.88,-174.25 160.88,-183.75 160.88,-183.75 160.88,-188.5 156.12,-193.25 151.38,-193.25 151.38,-193.25 100.62,-193.25 100.62,-193.25 95.88,-193.25 91.12,-188.5 91.12,-183.75 91.12,-183.75 91.12,-174.25 91.12,-174.25 91.12,-169.5 95.88,-164.75 100.62,-164.75"/>
</g>
<!-- EMPTY&#45;&gt;ROLLING -->
<g id="edge3" class="edge">
<title>EMPTY&#45;&gt;ROLLING</title>
<path fill="none" stroke="black" d="M178.38,-311.28C158.57,-306.04 136.11,-296.25 124,-278 110.49,-257.63 112.77,-229.28 117.37,-208.3"/>
<polygon fill="black" stroke="black" points="120.74,-209.24 119.79,-198.68 113.96,-207.53 120.74,-209.24"/>
<polygon fill="none" stroke="black" points="127,-256.25 127,-275 295,-275 295,-256.25 127,-256.25"/>
<text text-anchor="start" x="166" y="-263.5" font-family="Courier New" font-weight="bold" font-size="10.00" fill="orange">DROP(IDD_DICE,)</text>
<polygon fill="none" stroke="black" points="127,-222.75 127,-254.25 295,-254.25 295,-222.75 127,-222.75"/>
<text text-anchor="start" x="130" y="-241.75" font-family="Courier New" font-size="10.00" fill="blue">ASHOW(IDS_DICE,V_LOOP);</text>
<text text-anchor="start" x="130" y="-229" font-family="Courier New" font-size="10.00" fill="blue">PLAYWAVE(SOUND_ONEDIEROLL);</text>
<polygon fill="none" stroke="black" points="124,-219.75 124,-278 298,-278 298,-219.75 124,-219.75"/>
</g>
<!-- 8 -->
<g id="node4" class="node">
<title>8</title>
<polyline fill="none" stroke="darkred" points="211.88,-7 226.12,-7"/>
<text text-anchor="start" x="214.88" y="-14.2" font-family="Courier New" font-weight="bold" font-size="14.00">8</text>
<path fill="none" stroke="darkred" d="M215.62,-4C215.62,-4 222.38,-4 222.38,-4 225.75,-4 229.12,-7.38 229.12,-10.75 229.12,-10.75 229.12,-25.75 229.12,-25.75 229.12,-29.12 225.75,-32.5 222.38,-32.5 222.38,-32.5 215.62,-32.5 215.62,-32.5 212.25,-32.5 208.88,-29.12 208.88,-25.75 208.88,-25.75 208.88,-10.75 208.88,-10.75 208.88,-7.38 212.25,-4 215.62,-4"/>
</g>
<!-- 8&#45;&gt;EMPTY -->
<g id="edge2" class="edge">
<title>8&#45;&gt;EMPTY</title>
<path fill="none" stroke="black" d="M245.91,-23.54C264,-27.97 286.56,-36.86 298,-54.5 352.07,-137.83 350.75,-193.83 298,-278 290.61,-289.79 278.56,-298.13 265.98,-303.99"/>
<polygon fill="black" stroke="black" points="264.7,-300.73 256.79,-307.78 267.37,-307.21 264.7,-300.73"/>
<polygon fill="none" stroke="black" points="341,-180 341,-198.75 479,-198.75 479,-180 341,-180"/>
<text text-anchor="start" x="389" y="-187.25" font-family="Courier New" font-weight="bold" font-size="10.00" fill="orange">GRAB(,)</text>
<polygon fill="none" stroke="black" points="341,-159.25 341,-178 479,-178 479,-159.25 341,-159.25"/>
<text text-anchor="start" x="344" y="-165.5" font-family="Courier New" font-size="10.00" fill="blue">CLEAR(WOBJECT);SHOW();</text>
<polygon fill="none" stroke="black" points="338,-156.25 338,-201.75 482,-201.75 482,-156.25 338,-156.25"/>
</g>
<!-- ROLLING&#45;&gt;8 -->
<g id="edge4" class="edge">
<title>ROLLING&#45;&gt;8</title>
<path fill="none" stroke="black" d="M121.18,-161.01C114.99,-135.38 107.54,-86.43 130,-54.5 141.72,-37.84 162.62,-29.05 181.22,-24.42"/>
<polygon fill="black" stroke="black" points="181.87,-27.86 190.92,-22.35 180.41,-21.01 181.87,-27.86"/>
<polygon fill="none" stroke="black" points="133,-116.5 133,-135.25 295,-135.25 295,-116.5 133,-116.5"/>
<text text-anchor="start" x="148" y="-123.75" font-family="Courier New" font-weight="bold" font-size="10.00" fill="blue">SYNCPOINT(2,SYNC_ROLL)</text>
<polygon fill="none" stroke="black" points="133,-57.5 133,-114.5 295,-114.5 295,-57.5 133,-57.5"/>
<text text-anchor="start" x="136" y="-102" font-family="Courier New" font-size="10.00" fill="blue">RAND(1,6);</text>
<text text-anchor="start" x="136" y="-89.25" font-family="Courier New" font-size="10.00" fill="blue">BFRAME=WRAND;</text>
<text text-anchor="start" x="136" y="-76.5" font-family="Courier New" font-size="10.00" fill="blue">MAPi(BFRAME,S16_DICE_MAP);</text>
<text text-anchor="start" x="136" y="-63.75" font-family="Courier New" font-size="10.00" fill="blue">SHOW(BFRAME);</text>
<polygon fill="none" stroke="black" points="130,-54.5 130,-138.25 298,-138.25 298,-54.5 130,-54.5"/>
</g>
<!-- status -->
<g id="node6" class="node">
<title>status</title>
<polygon fill="none" stroke="black" points="262,-397.75 262,-476.75 752,-476.75 752,-397.75 262,-397.75"/>
<polygon fill="none" stroke="black" points="273,-451 273,-469.75 741,-469.75 741,-451 273,-451"/>
<text text-anchor="start" x="474" y="-458.25" font-family="Courier New" font-weight="bold" font-size="10.00">S19_DIEDROP</text>
<polygon fill="none" stroke="black" points="273,-404.75 273,-449 741,-449 741,-404.75 273,-404.75"/>
<text text-anchor="start" x="276" y="-436.5" font-family="Courier New" font-size="10.00" fill="green">VIEW::IDV_RACEPAN @pos(x:520, y:200, w:100, h:100)</text>
<text text-anchor="start" x="276" y="-423.75" font-family="Courier New" font-size="10.00" fill="green">S19_DIEDROP::M16_DIEROLL(&#39;IDS_DICE&#39;,&#39;&#39;,&#39;&#39;,&#39;&#39;,&#39;&#39;,&#39;&#39;)</text>
<text text-anchor="start" x="276" y="-411" font-family="Courier New" font-size="10.00" fill="green">{state:&#39;EMPTY&#39;: bFrame:IDS_DICE_4 wRand:4 Seed:204954975 Top:200 Left:520 Z:2</text>
<polygon fill="none" stroke="black" points="270,-401.75 270,-472.75 744,-472.75 744,-401.75 270,-401.75"/>
</g>
</g>
</svg>
