<?xml version="1.0" encoding="UTF-8" standalone="no"?>
<!DOCTYPE svg PUBLIC "-//W3C//DTD SVG 1.1//EN"
 "http://www.w3.org/Graphics/SVG/1.1/DTD/svg11.dtd">
<!-- Generated by graphviz version 10.0.1 (20240210.2158)
 -->
<!-- Title: Automaton Pages: 1 -->
<svg width="706pt" height="227pt"
 viewBox="0.00 0.00 706.00 226.75" xmlns="http://www.w3.org/2000/svg" xmlns:xlink="http://www.w3.org/1999/xlink">
<g id="graph0" class="graph" transform="scale(1 1) rotate(0) translate(4 222.75)">
<title>Automaton</title>
<polygon fill="white" stroke="none" points="-4,4 -4,-222.75 702,-222.75 702,4 -4,4"/>
<!-- filename -->
<g id="node1" class="node">
<title>filename</title>
<polygon fill="none" stroke="black" points="0,-152 0,-205.5 184,-205.5 184,-152 0,-152"/>
<polygon fill="none" stroke="black" points="11,-179.75 11,-198.5 173,-198.5 173,-179.75 11,-179.75"/>
<text text-anchor="start" x="14" y="-187" font-family="Courier New" font-weight="bold" font-size="10.00">S19_DICEHOLD::M19_DICEHOLD</text>
<polygon fill="none" stroke="black" points="11,-159 11,-177.75 173,-177.75 173,-159 11,-159"/>
<text text-anchor="start" x="47" y="-165.25" font-family="Courier New" font-size="10.00" fill="brown">start state = 0</text>
<polygon fill="none" stroke="black" points="8,-156 8,-201.5 176,-201.5 176,-156 8,-156"/>
</g>
<!-- 0 -->
<g id="node2" class="node">
<title>0</title>
<polyline fill="none" stroke="darkred" points="221.88,-167.5 236.12,-167.5"/>
<text text-anchor="start" x="224.88" y="-174.7" font-family="Courier New" font-weight="bold" font-size="14.00">0</text>
<path fill="none" stroke="darkred" d="M225.62,-164.5C225.62,-164.5 232.38,-164.5 232.38,-164.5 235.75,-164.5 239.12,-167.88 239.12,-171.25 239.12,-171.25 239.12,-186.25 239.12,-186.25 239.12,-189.62 235.75,-193 232.38,-193 232.38,-193 225.62,-193 225.62,-193 222.25,-193 218.88,-189.62 218.88,-186.25 218.88,-186.25 218.88,-171.25 218.88,-171.25 218.88,-167.88 222.25,-164.5 225.62,-164.5"/>
</g>
<!-- presentdie -->
<g id="node3" class="node">
<title>presentdie</title>
<polyline fill="none" stroke="darkred" stroke-width="3" points="183.25,-10.5 272.75,-10.5"/>
<text text-anchor="start" x="186.75" y="-18.2" font-family="Courier New" font-weight="bold" font-size="14.00">presentdie</text>
<path fill="none" stroke="darkred" stroke-width="3" d="M189.42,-5.5C189.42,-5.5 266.58,-5.5 266.58,-5.5 272.17,-5.5 277.75,-11.08 277.75,-16.67 277.75,-16.67 277.75,-27.83 277.75,-27.83 277.75,-33.42 272.17,-39 266.58,-39 266.58,-39 189.42,-39 189.42,-39 183.83,-39 178.25,-33.42 178.25,-27.83 178.25,-27.83 178.25,-16.67 178.25,-16.67 178.25,-11.08 183.83,-5.5 189.42,-5.5"/>
</g>
<!-- 0&#45;&gt;presentdie -->
<g id="edge1" class="edge">
<title>0&#45;&gt;presentdie</title>
<path fill="none" stroke="black" d="M216.63,-160.56C210.33,-152.91 202.09,-144.37 193,-138.75 168.6,-123.66 148.23,-143.69 131,-120.75 115.45,-100.05 116.53,-83.97 131,-62.5 137.8,-52.41 147.69,-44.91 158.58,-39.34"/>
<polygon fill="black" stroke="black" points="159.73,-42.66 167.42,-35.37 156.86,-36.27 159.73,-42.66"/>
<polygon fill="none" stroke="black" points="134,-99 134,-117.75 302,-117.75 302,-99 134,-99"/>
<text text-anchor="start" x="170" y="-106.25" font-family="Courier New" font-weight="bold" font-size="10.00" fill="orange">WAIT(,SIG_RESET)</text>
<polygon fill="none" stroke="black" points="134,-65.5 134,-97 302,-97 302,-65.5 134,-65.5"/>
<text text-anchor="start" x="137" y="-84.5" font-family="Courier New" font-size="10.00" fill="blue"> &#160;&#160;&#160;&#160;MOV(WOBJECT,IDD_DICE);</text>
<text text-anchor="start" x="137" y="-71.75" font-family="Courier New" font-size="10.00" fill="blue"> &#160;&#160;&#160;&#160;SHOW(WOBJECT);</text>
<polygon fill="none" stroke="black" points="131,-62.5 131,-120.75 305,-120.75 305,-62.5 131,-62.5"/>
</g>
<!-- presentdie&#45;&gt;0 -->
<g id="edge2" class="edge">
<title>presentdie&#45;&gt;0</title>
<path fill="none" stroke="black" d="M287.15,-44.31C294.24,-49.22 300.53,-55.21 305,-62.5 318.53,-84.58 319.06,-99.01 305,-120.75 294.41,-137.12 280.82,-127.36 265,-138.75 259.54,-142.68 254.26,-147.55 249.51,-152.49"/>
<polygon fill="black" stroke="black" points="247.19,-149.84 243.09,-159.61 252.39,-154.53 247.19,-149.84"/>
<polygon fill="none" stroke="black" points="318,-92.62 318,-111.38 414,-111.38 414,-92.62 318,-92.62"/>
<text text-anchor="start" x="321" y="-99.88" font-family="Courier New" font-weight="bold" font-size="10.00" fill="orange">GRAB(,IDD_DICE)</text>
<polygon fill="none" stroke="black" points="318,-71.88 318,-90.62 414,-90.62 414,-71.88 318,-71.88"/>
<text text-anchor="start" x="333" y="-78.12" font-family="Courier New" font-size="10.00" fill="blue"> &#160;&#160;&#160;SHOW();</text>
<polygon fill="none" stroke="black" points="315,-68.88 315,-114.38 417,-114.38 417,-68.88 315,-68.88"/>
</g>
<!-- status -->
<g id="node4" class="node">
<title>status</title>
<polygon fill="none" stroke="black" points="274,-139.25 274,-218.25 698,-218.25 698,-139.25 274,-139.25"/>
<polygon fill="none" stroke="black" points="285,-192.5 285,-211.25 687,-211.25 687,-192.5 285,-192.5"/>
<text text-anchor="start" x="450" y="-199.75" font-family="Courier New" font-weight="bold" font-size="10.00">S19_DICEHOLD</text>
<polygon fill="none" stroke="black" points="285,-146.25 285,-190.5 687,-190.5 687,-146.25 285,-146.25"/>
<text text-anchor="start" x="288" y="-178" font-family="Courier New" font-size="10.00" fill="green">VIEW::IDV_RACEPAN @pos(x:293, y:232, w:46, h:53)</text>
<text text-anchor="start" x="288" y="-165.25" font-family="Courier New" font-size="10.00" fill="green">S19_DICEHOLD::M19_DICEHOLD(&#39;&#39;,&#39;&#39;,&#39;&#39;,&#39;&#39;,&#39;&#39;,&#39;&#39;)</text>
<text text-anchor="start" x="288" y="-152.5" font-family="Courier New" font-size="10.00" fill="green">{state:&#39;presentdie&#39;: wObject:IDD_DICE wSprite:die Top:232 Left:293</text>
<polygon fill="none" stroke="black" points="282,-143.25 282,-214.25 690,-214.25 690,-143.25 282,-143.25"/>
</g>
</g>
</svg>
