<?xml version="1.0" encoding="UTF-8" standalone="no"?>
<!DOCTYPE svg PUBLIC "-//W3C//DTD SVG 1.1//EN"
 "http://www.w3.org/Graphics/SVG/1.1/DTD/svg11.dtd">
<!-- Generated by graphviz version 10.0.1 (20240210.2158)
 -->
<!-- Title: Automaton Pages: 1 -->
<svg width="802pt" height="710pt"
 viewBox="0.00 0.00 802.00 710.00" xmlns="http://www.w3.org/2000/svg" xmlns:xlink="http://www.w3.org/1999/xlink">
<g id="graph0" class="graph" transform="scale(1 1) rotate(0) translate(4 706)">
<title>Automaton</title>
<polygon fill="white" stroke="none" points="-4,4 -4,-706 798,-706 798,4 -4,4"/>
<!-- filename -->
<g id="node1" class="node">
<title>filename</title>
<polygon fill="none" stroke="black" points="0,-635.25 0,-688.75 190,-688.75 190,-635.25 0,-635.25"/>
<polygon fill="none" stroke="black" points="11,-663 11,-681.75 179,-681.75 179,-663 11,-663"/>
<text text-anchor="start" x="14" y="-670.25" font-family="Courier New" font-weight="bold" font-size="10.00">S19_PAYRESET::M19_PAYBUCKET</text>
<polygon fill="none" stroke="black" points="11,-642.25 11,-661 179,-661 179,-642.25 11,-642.25"/>
<text text-anchor="start" x="50" y="-648.5" font-family="Courier New" font-size="10.00" fill="brown">start state = 0</text>
<polygon fill="none" stroke="black" points="8,-639.25 8,-684.75 182,-684.75 182,-639.25 8,-639.25"/>
</g>
<!-- 0 -->
<g id="node2" class="node">
<title>0</title>
<polyline fill="none" stroke="darkred" points="227.88,-650.75 242.12,-650.75"/>
<text text-anchor="start" x="230.88" y="-657.95" font-family="Courier New" font-weight="bold" font-size="14.00">0</text>
<path fill="none" stroke="darkred" d="M231.62,-647.75C231.62,-647.75 238.38,-647.75 238.38,-647.75 241.75,-647.75 245.12,-651.12 245.12,-654.5 245.12,-654.5 245.12,-669.5 245.12,-669.5 245.12,-672.88 241.75,-676.25 238.38,-676.25 238.38,-676.25 231.62,-676.25 231.62,-676.25 228.25,-676.25 224.88,-672.88 224.88,-669.5 224.88,-669.5 224.88,-654.5 224.88,-654.5 224.88,-651.12 228.25,-647.75 231.62,-647.75"/>
</g>
<!-- setup -->
<g id="node3" class="node">
<title>setup</title>
<polyline fill="none" stroke="darkred" points="111.38,-434.5 158.62,-434.5"/>
<text text-anchor="start" x="114.38" y="-441.7" font-family="Courier New" font-weight="bold" font-size="14.00">setup</text>
<path fill="none" stroke="darkred" d="M117.88,-431.5C117.88,-431.5 152.12,-431.5 152.12,-431.5 156.88,-431.5 161.62,-436.25 161.62,-441 161.62,-441 161.62,-450.5 161.62,-450.5 161.62,-455.25 156.88,-460 152.12,-460 152.12,-460 117.88,-460 117.88,-460 113.12,-460 108.38,-455.25 108.38,-450.5 108.38,-450.5 108.38,-441 108.38,-441 108.38,-436.25 113.12,-431.5 117.88,-431.5"/>
</g>
<!-- 0&#45;&gt;setup -->
<g id="edge1" class="edge">
<title>0&#45;&gt;setup</title>
<path fill="none" stroke="black" d="M222.64,-643.79C216.35,-636.14 208.1,-627.6 199,-622 174.2,-606.73 153.61,-627.19 136,-604 107.79,-566.85 116.79,-509.24 125.9,-475.04"/>
<polygon fill="black" stroke="black" points="129.26,-476.02 128.65,-465.44 122.53,-474.09 129.26,-476.02"/>
<polygon fill="none" stroke="black" points="139,-582.25 139,-601 319,-601 319,-582.25 139,-582.25"/>
<text text-anchor="start" x="190" y="-589.5" font-family="Courier New" font-weight="bold" font-size="10.00" fill="blue">MOV(BFRAME,0)</text>
<polygon fill="none" stroke="black" points="139,-485 139,-580.25 319,-580.25 319,-485 139,-485"/>
<text text-anchor="start" x="142" y="-567.75" font-family="Courier New" font-size="10.00" fill="blue"> &#160;&#160;&#160;ASSIGN(WSPRITE,WIP1);</text>
<text text-anchor="start" x="142" y="-555" font-family="Courier New" font-size="10.00" fill="blue"> &#160;&#160;&#160;SHOW(WSPRITE);</text>
<text text-anchor="start" x="142" y="-542.25" font-family="Courier New" font-size="10.00" fill="blue"> &#160;&#160;&#160;/* BPARM = what you payed</text>
<text text-anchor="start" x="142" y="-529.5" font-family="Courier New" font-size="10.00" fill="blue"> &#160;&#160;&#160;WPARM = Total owed </text>
<text text-anchor="start" x="142" y="-516.75" font-family="Courier New" font-size="10.00" fill="blue"> &#160;&#160;&#160;*/</text>
<text text-anchor="start" x="142" y="-504" font-family="Courier New" font-size="10.00" fill="blue"> &#160;&#160;&#160;ASSIGN(BPARM,0); </text>
<text text-anchor="start" x="142" y="-491.25" font-family="Courier New" font-size="10.00" fill="blue"> &#160;&#160;&#160;ASSIGN(WPARM,WIP2);</text>
<polygon fill="none" stroke="black" points="136,-482 136,-604 322,-604 322,-482 136,-482"/>
</g>
<!-- accept_pay -->
<g id="node4" class="node">
<title>accept_pay</title>
<polyline fill="none" stroke="darkred" stroke-width="3" points="90.25,-279.62 179.75,-279.62"/>
<text text-anchor="start" x="93.75" y="-287.32" font-family="Courier New" font-weight="bold" font-size="14.00">accept_pay</text>
<path fill="none" stroke="darkred" stroke-width="3" d="M96.42,-274.62C96.42,-274.62 173.58,-274.62 173.58,-274.62 179.17,-274.62 184.75,-280.21 184.75,-285.79 184.75,-285.79 184.75,-296.96 184.75,-296.96 184.75,-302.54 179.17,-308.12 173.58,-308.12 173.58,-308.12 96.42,-308.12 96.42,-308.12 90.83,-308.12 85.25,-302.54 85.25,-296.96 85.25,-296.96 85.25,-285.79 85.25,-285.79 85.25,-280.21 90.83,-274.62 96.42,-274.62"/>
</g>
<!-- setup&#45;&gt;accept_pay -->
<g id="edge6" class="edge">
<title>setup&#45;&gt;accept_pay</title>
<path fill="none" stroke="black" d="M135,-427.57C135,-402.65 135,-356.05 135,-324.61"/>
<polygon fill="black" stroke="black" points="138.5,-324.9 135,-314.9 131.5,-324.9 138.5,-324.9"/>
<polygon fill="none" stroke="black" points="138,-387.75 138,-406.5 258,-406.5 258,-387.75 138,-387.75"/>
<text text-anchor="start" x="162" y="-395" font-family="Courier New" font-weight="bold" font-size="10.00" fill="blue">Z_EPSILON(,)</text>
<polygon fill="none" stroke="black" points="138,-367 138,-385.75 258,-385.75 258,-367 138,-367"/>
<text text-anchor="start" x="141" y="-373.25" font-family="Courier New" font-size="10.00" fill="blue"> &#160;&#160;&#160;ADDI(BFRAME,1);</text>
<polygon fill="none" stroke="black" points="135,-364 135,-409.5 261,-409.5 261,-364 135,-364"/>
</g>
<!-- check_scoop -->
<g id="node5" class="node">
<title>check_scoop</title>
<polyline fill="none" stroke="darkred" points="156.62,-100.25 253.38,-100.25"/>
<text text-anchor="start" x="159.62" y="-107.45" font-family="Courier New" font-weight="bold" font-size="14.00">check_scoop</text>
<path fill="none" stroke="darkred" d="M163.12,-97.25C163.12,-97.25 246.88,-97.25 246.88,-97.25 251.62,-97.25 256.38,-102 256.38,-106.75 256.38,-106.75 256.38,-116.25 256.38,-116.25 256.38,-121 251.62,-125.75 246.88,-125.75 246.88,-125.75 163.12,-125.75 163.12,-125.75 158.38,-125.75 153.62,-121 153.62,-116.25 153.62,-116.25 153.62,-106.75 153.62,-106.75 153.62,-102 158.38,-97.25 163.12,-97.25"/>
</g>
<!-- accept_pay&#45;&gt;check_scoop -->
<g id="edge2" class="edge">
<title>accept_pay&#45;&gt;check_scoop</title>
<path fill="none" stroke="black" d="M82.81,-269.27C61.47,-257.73 39.02,-241.15 27,-218.75 12.08,-190.95 6.97,-172.13 27,-147.75 40.75,-131.01 91.1,-122.08 134.75,-117.41"/>
<polygon fill="black" stroke="black" points="134.87,-120.91 144.47,-116.43 134.17,-113.95 134.87,-120.91"/>
<polygon fill="none" stroke="black" points="30,-197 30,-215.75 198,-215.75 198,-197 30,-197"/>
<text text-anchor="start" x="63" y="-204.25" font-family="Courier New" font-weight="bold" font-size="10.00" fill="orange">DRAG(IDD_SCOOPF,)</text>
<polygon fill="none" stroke="black" points="30,-150.75 30,-195 198,-195 198,-150.75 30,-150.75"/>
<text text-anchor="start" x="33" y="-182.5" font-family="Courier New" font-size="10.00" fill="blue"> &#160;&#160;&#160;HANDOFF(0,IDD_SCOOPE);</text>
<text text-anchor="start" x="33" y="-169.75" font-family="Courier New" font-size="10.00" fill="blue"> &#160;&#160;&#160;PLAYWAVE(0,SOUND_SPIT);</text>
<text text-anchor="start" x="33" y="-157" font-family="Courier New" font-size="10.00" fill="blue"> &#160;&#160;&#160;ADDI(BPARM,1); </text>
<polygon fill="none" stroke="black" points="27,-147.75 27,-218.75 201,-218.75 201,-147.75 27,-147.75"/>
</g>
<!-- check_scoop&#45;&gt;accept_pay -->
<g id="edge4" class="edge">
<title>check_scoop&#45;&gt;accept_pay</title>
<path fill="none" stroke="black" d="M207.85,-129.45C210.72,-151.08 213.17,-189.23 201,-218.75 194.35,-234.88 182.34,-249.64 170.37,-261.52"/>
<polygon fill="black" stroke="black" points="168.13,-258.82 163.25,-268.23 172.93,-263.92 168.13,-258.82"/>
<text text-anchor="start" x="215" y="-181.12" font-family="Courier New" font-weight="bold" font-size="10.00" fill="blue">Z_EPSILON(,)</text>
</g>
<!-- paid_in_full -->
<g id="node6" class="node">
<title>paid_in_full</title>
<polyline fill="none" stroke="darkred" points="217.5,-7 322.5,-7"/>
<text text-anchor="start" x="220.5" y="-14.2" font-family="Courier New" font-weight="bold" font-size="14.00">paid_in_full</text>
<path fill="none" stroke="darkred" d="M224,-4C224,-4 316,-4 316,-4 320.75,-4 325.5,-8.75 325.5,-13.5 325.5,-13.5 325.5,-23 325.5,-23 325.5,-27.75 320.75,-32.5 316,-32.5 316,-32.5 224,-32.5 224,-32.5 219.25,-32.5 214.5,-27.75 214.5,-23 214.5,-23 214.5,-13.5 214.5,-13.5 214.5,-8.75 219.25,-4 224,-4"/>
</g>
<!-- check_scoop&#45;&gt;paid_in_full -->
<g id="edge3" class="edge">
<title>check_scoop&#45;&gt;paid_in_full</title>
<path fill="none" stroke="black" d="M201.06,-93.35C199.33,-81.59 199.02,-66.07 206,-54.5 208.51,-50.34 211.69,-46.64 215.3,-43.36"/>
<polygon fill="black" stroke="black" points="217.35,-46.19 223.15,-37.33 213.09,-40.64 217.35,-46.19"/>
<text text-anchor="start" x="210" y="-62.75" font-family="Courier New" font-weight="bold" font-size="10.00" fill="blue">EQUAL(BPARM,WPARM)</text>
</g>
<!-- paid_in_full&#45;&gt;0 -->
<g id="edge5" class="edge">
<title>paid_in_full&#45;&gt;0</title>
<path fill="none" stroke="black" d="M303.12,-36.37C310.22,-41.38 317.06,-47.44 322,-54.5 336.7,-75.53 336,-84.85 336,-110.5 336,-446.75 336,-446.75 336,-446.75 336,-516.92 365.03,-548.58 322,-604 307.26,-622.99 291.08,-608.78 271,-622 265.28,-625.77 259.85,-630.63 255.02,-635.64"/>
<polygon fill="black" stroke="black" points="252.58,-633.12 248.52,-642.91 257.8,-637.79 252.58,-633.12"/>
<polygon fill="none" stroke="black" points="339,-324.25 339,-343 633,-343 633,-324.25 339,-324.25"/>
<text text-anchor="start" x="450" y="-331.5" font-family="Courier New" font-weight="bold" font-size="10.00" fill="blue">Z_EPSILON(,)</text>
<polygon fill="none" stroke="black" points="339,-239.75 339,-322.25 633,-322.25 633,-239.75 339,-239.75"/>
<text text-anchor="start" x="342" y="-309.75" font-family="Courier New" font-size="10.00" fill="blue"> &#160;&#160;&#160;PLAYWAVE(0,SOUND_LEVER);</text>
<text text-anchor="start" x="342" y="-297" font-family="Courier New" font-size="10.00" fill="blue"> &#160;&#160;&#160;&#160;SIGNAL(S19_DICEHOLD,SIG_RESET);</text>
<text text-anchor="start" x="342" y="-284.25" font-family="Courier New" font-size="10.00" fill="blue"> &#160;&#160;&#160;&#160;&#160;&#160;&#160;SIGNAL(S19_TOKENPICK,SIG_RESET); </text>
<text text-anchor="start" x="342" y="-271.5" font-family="Courier New" font-size="10.00" fill="blue"> &#160;&#160;&#160;&#160;&#160;&#160;&#160;&#160;&#160;&#160;&#160;&#160;SIGNAL(S19_TOKENPICK_W,SIG_RESET); </text>
<text text-anchor="start" x="342" y="-258.75" font-family="Courier New" font-size="10.00" fill="blue"> &#160;&#160;&#160;&#160;&#160;&#160;&#160;&#160;&#160;&#160;&#160;&#160;SIGNAL(S19_TOKENPICK_B,SIG_RESET); </text>
<text text-anchor="start" x="342" y="-246" font-family="Courier New" font-size="10.00" fill="blue"> &#160;&#160;&#160;SUBI(BFRAME,1);</text>
<polygon fill="none" stroke="black" points="336,-236.75 336,-346 636,-346 636,-236.75 336,-236.75"/>
</g>
<!-- status -->
<g id="node7" class="node">
<title>status</title>
<polygon fill="none" stroke="black" points="280,-622.5 280,-701.5 794,-701.5 794,-622.5 280,-622.5"/>
<polygon fill="none" stroke="black" points="291,-675.75 291,-694.5 783,-694.5 783,-675.75 291,-675.75"/>
<text text-anchor="start" x="501" y="-683" font-family="Courier New" font-weight="bold" font-size="10.00">S19_PAYRESET</text>
<polygon fill="none" stroke="black" points="291,-629.5 291,-673.75 783,-673.75 783,-629.5 291,-629.5"/>
<text text-anchor="start" x="294" y="-661.25" font-family="Courier New" font-size="10.00" fill="green">VIEW::IDV_RACEPAN @pos(x:9, y:217, w:70, h:60)</text>
<text text-anchor="start" x="294" y="-648.5" font-family="Courier New" font-size="10.00" fill="green">S19_PAYRESET::M19_PAYBUCKET(&#39;IDS_SPITTOON&#39;,&#39;2&#39;,&#39;&#39;,&#39;&#39;,&#39;&#39;,&#39;&#39;)</text>
<text text-anchor="start" x="294" y="-635.75" font-family="Courier New" font-size="10.00" fill="green">{state:&#39;accept_pay&#39;: bParm:0 wParm:2 wSprite:IDS_SPITTOON bFrame:1 Top:217 Left:9</text>
<polygon fill="none" stroke="black" points="288,-626.5 288,-697.5 786,-697.5 786,-626.5 288,-626.5"/>
</g>
</g>
</svg>
