<?xml version="1.0" encoding="UTF-8" standalone="no"?>
<!DOCTYPE svg PUBLIC "-//W3C//DTD SVG 1.1//EN"
 "http://www.w3.org/Graphics/SVG/1.1/DTD/svg11.dtd">
<!-- Generated by graphviz version 10.0.1 (20240210.2158)
 -->
<!-- Title: Automaton Pages: 1 -->
<svg width="748pt" height="1030pt"
 viewBox="0.00 0.00 748.00 1029.75" xmlns="http://www.w3.org/2000/svg" xmlns:xlink="http://www.w3.org/1999/xlink">
<g id="graph0" class="graph" transform="scale(1 1) rotate(0) translate(4 1025.75)">
<title>Automaton</title>
<polygon fill="white" stroke="none" points="-4,4 -4,-1025.75 744,-1025.75 744,4 -4,4"/>
<!-- filename -->
<g id="node1" class="node">
<title>filename</title>
<polygon fill="none" stroke="black" points="0,-955 0,-1008.5 178,-1008.5 178,-955 0,-955"/>
<polygon fill="none" stroke="black" points="11,-982.75 11,-1001.5 167,-1001.5 167,-982.75 11,-982.75"/>
<text text-anchor="start" x="14" y="-990" font-family="Courier New" font-weight="bold" font-size="10.00">S19_COVER3::M_DIG_UNCOVER</text>
<polygon fill="none" stroke="black" points="11,-962 11,-980.75 167,-980.75 167,-962 11,-962"/>
<text text-anchor="start" x="44" y="-968.25" font-family="Courier New" font-size="10.00" fill="brown">start state = 0</text>
<polygon fill="none" stroke="black" points="8,-959 8,-1004.5 170,-1004.5 170,-959 8,-959"/>
</g>
<!-- 0 -->
<g id="node2" class="node">
<title>0</title>
<polyline fill="none" stroke="darkred" points="215.88,-970.5 230.12,-970.5"/>
<text text-anchor="start" x="218.88" y="-977.7" font-family="Courier New" font-weight="bold" font-size="14.00">0</text>
<path fill="none" stroke="darkred" d="M219.62,-967.5C219.62,-967.5 226.38,-967.5 226.38,-967.5 229.75,-967.5 233.12,-970.88 233.12,-974.25 233.12,-974.25 233.12,-989.25 233.12,-989.25 233.12,-992.62 229.75,-996 226.38,-996 226.38,-996 219.62,-996 219.62,-996 216.25,-996 212.88,-992.62 212.88,-989.25 212.88,-989.25 212.88,-974.25 212.88,-974.25 212.88,-970.88 216.25,-967.5 219.62,-967.5"/>
</g>
<!-- coverActive -->
<g id="node3" class="node">
<title>coverActive</title>
<polyline fill="none" stroke="darkred" points="174.62,-830.75 271.38,-830.75"/>
<text text-anchor="start" x="177.62" y="-837.95" font-family="Courier New" font-weight="bold" font-size="14.00">coverActive</text>
<path fill="none" stroke="darkred" d="M181.12,-827.75C181.12,-827.75 264.88,-827.75 264.88,-827.75 269.62,-827.75 274.38,-832.5 274.38,-837.25 274.38,-837.25 274.38,-846.75 274.38,-846.75 274.38,-851.5 269.62,-856.25 264.88,-856.25 264.88,-856.25 181.12,-856.25 181.12,-856.25 176.38,-856.25 171.62,-851.5 171.62,-846.75 171.62,-846.75 171.62,-837.25 171.62,-837.25 171.62,-832.5 176.38,-827.75 181.12,-827.75"/>
</g>
<!-- 0&#45;&gt;coverActive -->
<g id="edge1" class="edge">
<title>0&#45;&gt;coverActive</title>
<path fill="none" stroke="black" d="M223,-963.58C223,-940.46 223,-899.03 223,-871.27"/>
<polygon fill="black" stroke="black" points="226.5,-871.46 223,-861.46 219.5,-871.46 226.5,-871.46"/>
<polygon fill="none" stroke="black" points="226,-902 226,-920.75 364,-920.75 364,-902 226,-902"/>
<text text-anchor="start" x="244" y="-909.25" font-family="Courier New" font-weight="bold" font-size="10.00" fill="blue">MOV(WSPRITE,WIP2)</text>
<polygon fill="none" stroke="black" points="226,-881.25 226,-900 364,-900 364,-881.25 226,-881.25"/>
<text text-anchor="start" x="229" y="-887.5" font-family="Courier New" font-size="10.00" fill="blue"> &#160;&#160;&#160;&#160;&#160;&#160;&#160;SHOW(WSPRITE);</text>
<polygon fill="none" stroke="black" points="223,-878.25 223,-923.75 367,-923.75 367,-878.25 223,-878.25"/>
</g>
<!-- firstWhack -->
<g id="node4" class="node">
<title>firstWhack</title>
<polyline fill="none" stroke="darkred" points="178.75,-737.5 267.25,-737.5"/>
<text text-anchor="start" x="181.75" y="-744.7" font-family="Courier New" font-weight="bold" font-size="14.00">firstWhack</text>
<path fill="none" stroke="darkred" d="M185.25,-734.5C185.25,-734.5 260.75,-734.5 260.75,-734.5 265.5,-734.5 270.25,-739.25 270.25,-744 270.25,-744 270.25,-753.5 270.25,-753.5 270.25,-758.25 265.5,-763 260.75,-763 260.75,-763 185.25,-763 185.25,-763 180.5,-763 175.75,-758.25 175.75,-753.5 175.75,-753.5 175.75,-744 175.75,-744 175.75,-739.25 180.5,-734.5 185.25,-734.5"/>
</g>
<!-- coverActive&#45;&gt;firstWhack -->
<g id="edge2" class="edge">
<title>coverActive&#45;&gt;firstWhack</title>
<path fill="none" stroke="black" d="M223,-823.84C223,-810.96 223,-793.06 223,-778.07"/>
<polygon fill="black" stroke="black" points="226.5,-778.35 223,-768.35 219.5,-778.35 226.5,-778.35"/>
<text text-anchor="start" x="227" y="-793.25" font-family="Courier New" font-weight="bold" font-size="10.00" fill="blue">Z_EPSILON(,)</text>
</g>
<!-- secondWhack -->
<g id="node5" class="node">
<title>secondWhack</title>
<polyline fill="none" stroke="darkred" points="174.62,-568.5 271.38,-568.5"/>
<text text-anchor="start" x="177.62" y="-575.7" font-family="Courier New" font-weight="bold" font-size="14.00">secondWhack</text>
<path fill="none" stroke="darkred" d="M181.12,-565.5C181.12,-565.5 264.88,-565.5 264.88,-565.5 269.62,-565.5 274.38,-570.25 274.38,-575 274.38,-575 274.38,-584.5 274.38,-584.5 274.38,-589.25 269.62,-594 264.88,-594 264.88,-594 181.12,-594 181.12,-594 176.38,-594 171.62,-589.25 171.62,-584.5 171.62,-584.5 171.62,-575 171.62,-575 171.62,-570.25 176.38,-565.5 181.12,-565.5"/>
</g>
<!-- firstWhack&#45;&gt;secondWhack -->
<g id="edge3" class="edge">
<title>firstWhack&#45;&gt;secondWhack</title>
<path fill="none" stroke="black" d="M223,-730.51C223,-701.73 223,-643.66 223,-608.89"/>
<polygon fill="black" stroke="black" points="226.5,-609.16 223,-599.16 219.5,-609.16 226.5,-609.16"/>
<polygon fill="none" stroke="black" points="226,-690.75 226,-709.5 448,-709.5 448,-690.75 226,-690.75"/>
<text text-anchor="start" x="304" y="-698" font-family="Courier New" font-weight="bold" font-size="10.00" fill="orange">DRAG(WIP3,)</text>
<polygon fill="none" stroke="black" points="226,-619 226,-688.75 448,-688.75 448,-619 226,-619"/>
<text text-anchor="start" x="229" y="-676.25" font-family="Courier New" font-size="10.00" fill="blue"> &#160;&#160;&#160;&#160;&#160;&#160;&#160;if(WIP3 == ISA_TOOL_DIGGER){</text>
<text text-anchor="start" x="229" y="-663.5" font-family="Courier New" font-size="10.00" fill="blue"> &#160;&#160;&#160;&#160;&#160;&#160;&#160;&#160;&#160;&#160;&#160;SHOW(0,IDS_SANDPILE1);</text>
<text text-anchor="start" x="229" y="-650.75" font-family="Courier New" font-size="10.00" fill="blue"> &#160;&#160;&#160;&#160;&#160;&#160;&#160;&#160;&#160;&#160;&#160;PLAYWAVE(SOUND_DIG);</text>
<text text-anchor="start" x="229" y="-638" font-family="Courier New" font-size="10.00" fill="blue"> &#160;&#160;&#160;&#160;&#160;&#160;&#160;&#160;&#160;&#160;&#160;ANIMATE();</text>
<text text-anchor="start" x="229" y="-625.25" font-family="Courier New" font-size="10.00" fill="blue"> &#160;&#160;&#160;&#160;&#160;&#160;&#160;&#160;} &#160;&#160;</text>
<polygon fill="none" stroke="black" points="223,-616 223,-712.5 451,-712.5 451,-616 223,-616"/>
</g>
<!-- thirdWhack -->
<g id="node9" class="node">
<title>thirdWhack</title>
<polyline fill="none" stroke="darkred" points="178.75,-399.5 267.25,-399.5"/>
<text text-anchor="start" x="181.75" y="-406.7" font-family="Courier New" font-weight="bold" font-size="14.00">thirdWhack</text>
<path fill="none" stroke="darkred" d="M185.25,-396.5C185.25,-396.5 260.75,-396.5 260.75,-396.5 265.5,-396.5 270.25,-401.25 270.25,-406 270.25,-406 270.25,-415.5 270.25,-415.5 270.25,-420.25 265.5,-425 260.75,-425 260.75,-425 185.25,-425 185.25,-425 180.5,-425 175.75,-420.25 175.75,-415.5 175.75,-415.5 175.75,-406 175.75,-406 175.75,-401.25 180.5,-396.5 185.25,-396.5"/>
</g>
<!-- secondWhack&#45;&gt;thirdWhack -->
<g id="edge6" class="edge">
<title>secondWhack&#45;&gt;thirdWhack</title>
<path fill="none" stroke="black" d="M223,-561.51C223,-532.73 223,-474.66 223,-439.89"/>
<polygon fill="black" stroke="black" points="226.5,-440.16 223,-430.16 219.5,-440.16 226.5,-440.16"/>
<polygon fill="none" stroke="black" points="226,-521.75 226,-540.5 448,-540.5 448,-521.75 226,-521.75"/>
<text text-anchor="start" x="316" y="-529" font-family="Courier New" font-weight="bold" font-size="10.00" fill="orange">DRAG(,)</text>
<polygon fill="none" stroke="black" points="226,-450 226,-519.75 448,-519.75 448,-450 226,-450"/>
<text text-anchor="start" x="229" y="-507.25" font-family="Courier New" font-size="10.00" fill="blue"> &#160;&#160;&#160;&#160;&#160;&#160;&#160;if(WIP3 == ISA_TOOL_DIGGER){</text>
<text text-anchor="start" x="229" y="-494.5" font-family="Courier New" font-size="10.00" fill="blue"> &#160;&#160;&#160;&#160;&#160;&#160;&#160;&#160;&#160;&#160;&#160;SHOW(0,IDS_SANDPILE2);</text>
<text text-anchor="start" x="229" y="-481.75" font-family="Courier New" font-size="10.00" fill="blue"> &#160;&#160;&#160;&#160;&#160;&#160;&#160;&#160;&#160;&#160;&#160;PLAYWAVE(SOUND_DIG);</text>
<text text-anchor="start" x="229" y="-469" font-family="Courier New" font-size="10.00" fill="blue"> &#160;&#160;&#160;&#160;&#160;&#160;&#160;&#160;&#160;&#160;&#160;ANIMATE();</text>
<text text-anchor="start" x="229" y="-456.25" font-family="Courier New" font-size="10.00" fill="blue"> &#160;&#160;&#160;&#160;&#160;&#160;&#160;&#160;} &#160;&#160;</text>
<polygon fill="none" stroke="black" points="223,-447 223,-543.5 451,-543.5 451,-447 223,-447"/>
</g>
<!-- moveMe -->
<g id="node6" class="node">
<title>moveMe</title>
<polyline fill="none" stroke="darkred" points="195.25,-230.5 250.75,-230.5"/>
<text text-anchor="start" x="198.25" y="-237.7" font-family="Courier New" font-weight="bold" font-size="14.00">moveMe</text>
<path fill="none" stroke="darkred" d="M201.75,-227.5C201.75,-227.5 244.25,-227.5 244.25,-227.5 249,-227.5 253.75,-232.25 253.75,-237 253.75,-237 253.75,-246.5 253.75,-246.5 253.75,-251.25 249,-256 244.25,-256 244.25,-256 201.75,-256 201.75,-256 197,-256 192.25,-251.25 192.25,-246.5 192.25,-246.5 192.25,-237 192.25,-237 192.25,-232.25 197,-227.5 201.75,-227.5"/>
</g>
<!-- oncovered -->
<g id="node7" class="node">
<title>oncovered</title>
<polyline fill="none" stroke="darkred" points="182.88,-137.25 263.12,-137.25"/>
<text text-anchor="start" x="185.88" y="-144.45" font-family="Courier New" font-weight="bold" font-size="14.00">oncovered</text>
<path fill="none" stroke="darkred" d="M189.38,-134.25C189.38,-134.25 256.62,-134.25 256.62,-134.25 261.38,-134.25 266.12,-139 266.12,-143.75 266.12,-143.75 266.12,-153.25 266.12,-153.25 266.12,-158 261.38,-162.75 256.62,-162.75 256.62,-162.75 189.38,-162.75 189.38,-162.75 184.62,-162.75 179.88,-158 179.88,-153.25 179.88,-153.25 179.88,-143.75 179.88,-143.75 179.88,-139 184.62,-134.25 189.38,-134.25"/>
</g>
<!-- moveMe&#45;&gt;oncovered -->
<g id="edge4" class="edge">
<title>moveMe&#45;&gt;oncovered</title>
<path fill="none" stroke="black" d="M223,-223.59C223,-210.71 223,-192.81 223,-177.82"/>
<polygon fill="black" stroke="black" points="226.5,-178.1 223,-168.1 219.5,-178.1 226.5,-178.1"/>
<text text-anchor="start" x="227" y="-193" font-family="Courier New" font-weight="bold" font-size="10.00" fill="orange">DRAG(,)</text>
</g>
<!-- done -->
<g id="node8" class="node">
<title>done</title>
<ellipse fill="none" stroke="black" cx="223" cy="-18" rx="33.44" ry="18"/>
<text text-anchor="middle" x="223" y="-12.95" font-family="Courier New" font-size="14.00">done</text>
</g>
<!-- oncovered&#45;&gt;done -->
<g id="edge5" class="edge">
<title>oncovered&#45;&gt;done</title>
<path fill="none" stroke="black" d="M223,-130.44C223,-109.31 223,-73.03 223,-47.62"/>
<polygon fill="black" stroke="black" points="226.5,-47.65 223,-37.65 219.5,-47.65 226.5,-47.65"/>
<polygon fill="none" stroke="black" points="226,-90.5 226,-109.25 418,-109.25 418,-90.5 226,-90.5"/>
<text text-anchor="start" x="265" y="-97.75" font-family="Courier New" font-weight="bold" font-size="10.00" fill="blue">SET_YOFFSET(ADD,50)</text>
<polygon fill="none" stroke="black" points="226,-57 226,-88.5 418,-88.5 418,-57 226,-57"/>
<text text-anchor="start" x="229" y="-76" font-family="Courier New" font-size="10.00" fill="blue"> &#160;&#160;&#160;&#160;&#160;&#160;&#160;PLAYWAVE(SOUND_CHIMES);</text>
<text text-anchor="start" x="229" y="-63.25" font-family="Courier New" font-size="10.00" fill="blue"> &#160;&#160;&#160;&#160;&#160;&#160;&#160;SHOW();</text>
<polygon fill="none" stroke="black" points="223,-54 223,-112.25 421,-112.25 421,-54 223,-54"/>
</g>
<!-- thirdWhack&#45;&gt;moveMe -->
<g id="edge7" class="edge">
<title>thirdWhack&#45;&gt;moveMe</title>
<path fill="none" stroke="black" d="M223,-392.51C223,-363.73 223,-305.66 223,-270.89"/>
<polygon fill="black" stroke="black" points="226.5,-271.16 223,-261.16 219.5,-271.16 226.5,-271.16"/>
<polygon fill="none" stroke="black" points="226,-352.75 226,-371.5 448,-371.5 448,-352.75 226,-352.75"/>
<text text-anchor="start" x="316" y="-360" font-family="Courier New" font-weight="bold" font-size="10.00" fill="orange">DRAG(,)</text>
<polygon fill="none" stroke="black" points="226,-281 226,-350.75 448,-350.75 448,-281 226,-281"/>
<text text-anchor="start" x="229" y="-338.25" font-family="Courier New" font-size="10.00" fill="blue"> &#160;&#160;&#160;&#160;&#160;&#160;&#160;if(WIP3 == ISA_TOOL_DIGGER){</text>
<text text-anchor="start" x="229" y="-325.5" font-family="Courier New" font-size="10.00" fill="blue"> &#160;&#160;&#160;&#160;&#160;&#160;&#160;&#160;&#160;&#160;&#160;SHOW(0,IDS_SANDPILE3);</text>
<text text-anchor="start" x="229" y="-312.75" font-family="Courier New" font-size="10.00" fill="blue"> &#160;&#160;&#160;&#160;&#160;&#160;&#160;&#160;&#160;&#160;&#160;PLAYWAVE(SOUND_DIG);</text>
<text text-anchor="start" x="229" y="-300" font-family="Courier New" font-size="10.00" fill="blue"> &#160;&#160;&#160;&#160;&#160;&#160;&#160;&#160;&#160;&#160;&#160;ANIMATE();</text>
<text text-anchor="start" x="229" y="-287.25" font-family="Courier New" font-size="10.00" fill="blue"> &#160;&#160;&#160;&#160;&#160;&#160;&#160;&#160;} &#160;&#160;</text>
<polygon fill="none" stroke="black" points="223,-278 223,-374.5 451,-374.5 451,-278 223,-278"/>
</g>
<!-- status -->
<g id="node10" class="node">
<title>status</title>
<polygon fill="none" stroke="black" points="268,-942.25 268,-1021.25 740,-1021.25 740,-942.25 268,-942.25"/>
<polygon fill="none" stroke="black" points="279,-995.5 279,-1014.25 729,-1014.25 729,-995.5 279,-995.5"/>
<text text-anchor="start" x="474" y="-1002.75" font-family="Courier New" font-weight="bold" font-size="10.00">S19_COVER3</text>
<polygon fill="none" stroke="black" points="279,-949.25 279,-993.5 729,-993.5 729,-949.25 279,-949.25"/>
<text text-anchor="start" x="282" y="-981" font-family="Courier New" font-size="10.00" fill="green">VIEW::IDV_NAT1D @pos(x:2762, y:205, w:95, h:38)</text>
<text text-anchor="start" x="282" y="-968.25" font-family="Courier New" font-size="10.00" fill="green">S19_COVER3::M_DIG_UNCOVER(&#39;&#39;,&#39;IDS_SANDDIRTGRS&#39;,&#39;ISA_TOOL_DIGGER&#39;,&#39;&#39;,&#39;&#39;,&#39;&#39;)</text>
<text text-anchor="start" x="282" y="-955.5" font-family="Courier New" font-size="10.00" fill="green">{state:&#39;done&#39;: bFrame:2 Top:205 Left:2762</text>
<polygon fill="none" stroke="black" points="276,-946.25 276,-1017.25 732,-1017.25 732,-946.25 276,-946.25"/>
</g>
</g>
</svg>
