<?xml version="1.0" encoding="UTF-8" standalone="no"?>
<!DOCTYPE svg PUBLIC "-//W3C//DTD SVG 1.1//EN"
 "http://www.w3.org/Graphics/SVG/1.1/DTD/svg11.dtd">
<!-- Generated by graphviz version 10.0.1 (20240210.2158)
 -->
<!-- Title: Automaton Pages: 1 -->
<svg width="724pt" height="219pt"
 viewBox="0.00 0.00 724.00 218.75" xmlns="http://www.w3.org/2000/svg" xmlns:xlink="http://www.w3.org/1999/xlink">
<g id="graph0" class="graph" transform="scale(1 1) rotate(0) translate(4 214.75)">
<title>Automaton</title>
<polygon fill="white" stroke="none" points="-4,4 -4,-214.75 720,-214.75 720,4 -4,4"/>
<!-- filename -->
<g id="node1" class="node">
<title>filename</title>
<polygon fill="none" stroke="black" points="0,-144 0,-197.5 220,-197.5 220,-144 0,-144"/>
<polygon fill="none" stroke="black" points="11,-171.75 11,-190.5 209,-190.5 209,-171.75 11,-171.75"/>
<text text-anchor="start" x="14" y="-179" font-family="Courier New" font-weight="bold" font-size="10.00">S19_TOKENSHOW_B::M19_TOKENSHOWER</text>
<polygon fill="none" stroke="black" points="11,-151 11,-169.75 209,-169.75 209,-151 11,-151"/>
<text text-anchor="start" x="65" y="-157.25" font-family="Courier New" font-size="10.00" fill="brown">start state = 0</text>
<polygon fill="none" stroke="black" points="8,-148 8,-193.5 212,-193.5 212,-148 8,-148"/>
</g>
<!-- 0 -->
<g id="node2" class="node">
<title>0</title>
<polyline fill="none" stroke="darkred" stroke-width="3" points="257.38,-159 272.62,-159"/>
<text text-anchor="start" x="260.88" y="-166.7" font-family="Courier New" font-weight="bold" font-size="14.00">0</text>
<path fill="none" stroke="darkred" stroke-width="3" d="M260.79,-154C260.79,-154 269.21,-154 269.21,-154 273.42,-154 277.62,-158.21 277.62,-162.42 277.62,-162.42 277.62,-179.08 277.62,-179.08 277.62,-183.29 273.42,-187.5 269.21,-187.5 269.21,-187.5 260.79,-187.5 260.79,-187.5 256.58,-187.5 252.38,-183.29 252.38,-179.08 252.38,-179.08 252.38,-162.42 252.38,-162.42 252.38,-158.21 256.58,-154 260.79,-154"/>
</g>
<!-- presented -->
<g id="node3" class="node">
<title>presented</title>
<polyline fill="none" stroke="darkred" points="223.88,-7 304.12,-7"/>
<text text-anchor="start" x="226.88" y="-14.2" font-family="Courier New" font-weight="bold" font-size="14.00">presented</text>
<path fill="none" stroke="darkred" d="M230.38,-4C230.38,-4 297.62,-4 297.62,-4 302.38,-4 307.12,-8.75 307.12,-13.5 307.12,-13.5 307.12,-23 307.12,-23 307.12,-27.75 302.38,-32.5 297.62,-32.5 297.62,-32.5 230.38,-32.5 230.38,-32.5 225.62,-32.5 220.88,-27.75 220.88,-23 220.88,-23 220.88,-13.5 220.88,-13.5 220.88,-8.75 225.62,-4 230.38,-4"/>
</g>
<!-- 0&#45;&gt;presented -->
<g id="edge1" class="edge">
<title>0&#45;&gt;presented</title>
<path fill="none" stroke="black" d="M247.12,-148.68C241.57,-142.63 235.26,-136.19 229,-130.75 218.39,-121.53 209.52,-125.2 203,-112.75 190.98,-89.82 190.06,-76.92 203,-54.5 205.37,-50.39 208.43,-46.71 211.9,-43.44"/>
<polygon fill="black" stroke="black" points="213.81,-46.39 219.47,-37.44 209.46,-40.91 213.81,-46.39"/>
<polygon fill="none" stroke="black" points="206,-84.62 206,-103.38 302,-103.38 302,-84.62 206,-84.62"/>
<text text-anchor="start" x="209" y="-91.88" font-family="Courier New" font-weight="bold" font-size="10.00" fill="orange">WAIT(,SIG_SHOW)</text>
<polygon fill="none" stroke="black" points="206,-63.88 206,-82.62 302,-82.62 302,-63.88 206,-63.88"/>
<text text-anchor="start" x="209" y="-70.12" font-family="Courier New" font-size="10.00" fill="blue"> &#160;&#160;&#160;SHOW(WIP1);</text>
<polygon fill="none" stroke="black" points="203,-60.88 203,-106.38 305,-106.38 305,-60.88 203,-60.88"/>
</g>
<!-- presented&#45;&gt;0 -->
<g id="edge2" class="edge">
<title>presented&#45;&gt;0</title>
<path fill="none" stroke="black" d="M290.62,-36.27C296.43,-41.37 301.79,-47.5 305,-54.5 315.8,-78.03 312.8,-88.06 305,-112.75 302.02,-122.2 296.84,-131.43 291.19,-139.63"/>
<polygon fill="black" stroke="black" points="288.49,-137.39 285.34,-147.51 294.11,-141.57 288.49,-137.39"/>
<polygon fill="none" stroke="black" points="315,-91 315,-109.75 465,-109.75 465,-91 315,-91"/>
<text text-anchor="start" x="369" y="-98.25" font-family="Courier New" font-weight="bold" font-size="10.00" fill="orange">GRAB(,)</text>
<polygon fill="none" stroke="black" points="315,-57.5 315,-89 465,-89 465,-57.5 315,-57.5"/>
<text text-anchor="start" x="318" y="-76.5" font-family="Courier New" font-size="10.00" fill="blue"> &#160;&#160;&#160;&#160;HANDOFF(0,WOBJECT);</text>
<text text-anchor="start" x="318" y="-63.75" font-family="Courier New" font-size="10.00" fill="blue"> &#160;&#160;&#160;&#160;SHOW(0);</text>
<polygon fill="none" stroke="black" points="312,-54.5 312,-112.75 468,-112.75 468,-54.5 312,-54.5"/>
</g>
<!-- status -->
<g id="node4" class="node">
<title>status</title>
<polygon fill="none" stroke="black" points="310,-131.25 310,-210.25 716,-210.25 716,-131.25 310,-131.25"/>
<polygon fill="none" stroke="black" points="321,-184.5 321,-203.25 705,-203.25 705,-184.5 321,-184.5"/>
<text text-anchor="start" x="468" y="-191.75" font-family="Courier New" font-weight="bold" font-size="10.00">S19_TOKENSHOW_B</text>
<polygon fill="none" stroke="black" points="321,-138.25 321,-182.5 705,-182.5 705,-138.25 321,-138.25"/>
<text text-anchor="start" x="324" y="-170" font-family="Courier New" font-size="10.00" fill="green">VIEW::IDV_RACEPAN @pos(x:76, y:21, w:31, h:30)</text>
<text text-anchor="start" x="324" y="-157.25" font-family="Courier New" font-size="10.00" fill="green">S19_TOKENSHOW_B::M19_TOKENSHOWER(&#39;IDD_PLAYER_B&#39;,&#39;&#39;,&#39;&#39;,&#39;&#39;,&#39;&#39;,&#39;&#39;)</text>
<text text-anchor="start" x="324" y="-144.5" font-family="Courier New" font-size="10.00" fill="green">{state:&#39;0&#39;: Top:21 Left:76 Z:2</text>
<polygon fill="none" stroke="black" points="318,-135.25 318,-206.25 708,-206.25 708,-135.25 318,-135.25"/>
</g>
</g>
</svg>
