<?xml version="1.0" encoding="UTF-8" standalone="no"?>
<!DOCTYPE svg PUBLIC "-//W3C//DTD SVG 1.1//EN"
 "http://www.w3.org/Graphics/SVG/1.1/DTD/svg11.dtd">
<!-- Generated by graphviz version 10.0.1 (20240210.2158)
 -->
<!-- Title: Automaton Pages: 1 -->
<svg width="1144pt" height="244pt"
 viewBox="0.00 0.00 1144.00 244.25" xmlns="http://www.w3.org/2000/svg" xmlns:xlink="http://www.w3.org/1999/xlink">
<g id="graph0" class="graph" transform="scale(1 1) rotate(0) translate(4 240.25)">
<title>Automaton</title>
<polygon fill="white" stroke="none" points="-4,4 -4,-240.25 1140,-240.25 1140,4 -4,4"/>
<!-- filename -->
<g id="node1" class="node">
<title>filename</title>
<polygon fill="none" stroke="black" points="0,-169.5 0,-223 208,-223 208,-169.5 0,-169.5"/>
<polygon fill="none" stroke="black" points="11,-197.25 11,-216 197,-216 197,-197.25 11,-197.25"/>
<text text-anchor="start" x="14" y="-204.5" font-family="Courier New" font-weight="bold" font-size="10.00">S19_SPINNER_BUTTON::M19_BUTTON</text>
<polygon fill="none" stroke="black" points="11,-176.5 11,-195.25 197,-195.25 197,-176.5 11,-176.5"/>
<text text-anchor="start" x="59" y="-182.75" font-family="Courier New" font-size="10.00" fill="brown">start state = 0</text>
<polygon fill="none" stroke="black" points="8,-173.5 8,-219 200,-219 200,-173.5 8,-173.5"/>
</g>
<!-- 0 -->
<g id="node2" class="node">
<title>0</title>
<polyline fill="none" stroke="darkred" stroke-width="3" points="245.38,-184.5 260.62,-184.5"/>
<text text-anchor="start" x="248.88" y="-192.2" font-family="Courier New" font-weight="bold" font-size="14.00">0</text>
<path fill="none" stroke="darkred" stroke-width="3" d="M248.79,-179.5C248.79,-179.5 257.21,-179.5 257.21,-179.5 261.42,-179.5 265.62,-183.71 265.62,-187.92 265.62,-187.92 265.62,-204.58 265.62,-204.58 265.62,-208.79 261.42,-213 257.21,-213 257.21,-213 248.79,-213 248.79,-213 244.58,-213 240.38,-208.79 240.38,-204.58 240.38,-204.58 240.38,-187.92 240.38,-187.92 240.38,-183.71 244.58,-179.5 248.79,-179.5"/>
</g>
<!-- 1 -->
<g id="node3" class="node">
<title>1</title>
<polyline fill="none" stroke="darkred" points="244.88,-7 259.12,-7"/>
<text text-anchor="start" x="247.88" y="-14.2" font-family="Courier New" font-weight="bold" font-size="14.00">1</text>
<path fill="none" stroke="darkred" d="M248.62,-4C248.62,-4 255.38,-4 255.38,-4 258.75,-4 262.12,-7.38 262.12,-10.75 262.12,-10.75 262.12,-25.75 262.12,-25.75 262.12,-29.12 258.75,-32.5 255.38,-32.5 255.38,-32.5 248.62,-32.5 248.62,-32.5 245.25,-32.5 241.88,-29.12 241.88,-25.75 241.88,-25.75 241.88,-10.75 241.88,-10.75 241.88,-7.38 245.25,-4 248.62,-4"/>
</g>
<!-- 0&#45;&gt;1 -->
<g id="edge1" class="edge">
<title>0&#45;&gt;1</title>
<path fill="none" stroke="black" d="M237.21,-174.04C231.47,-167.55 224.52,-160.9 217,-156.25 192.6,-141.16 172.23,-161.19 155,-138.25 132.65,-108.49 133.64,-84.99 155,-54.5 168.27,-35.56 192.82,-26.75 213.91,-22.68"/>
<polygon fill="black" stroke="black" points="214.35,-26.16 223.67,-21.11 213.24,-19.24 214.35,-26.16"/>
<polygon fill="none" stroke="black" points="158,-116.5 158,-135.25 326,-135.25 326,-116.5 158,-116.5"/>
<text text-anchor="start" x="215" y="-123.75" font-family="Courier New" font-weight="bold" font-size="10.00" fill="orange">CLICK(0,)</text>
<polygon fill="none" stroke="black" points="158,-57.5 158,-114.5 326,-114.5 326,-57.5 158,-57.5"/>
<text text-anchor="start" x="161" y="-102" font-family="Courier New" font-size="10.00" fill="blue"> &#160;&#160;&#160;SIGNAL(WIP4, SIG_SPIN);</text>
<text text-anchor="start" x="161" y="-89.25" font-family="Courier New" font-size="10.00" fill="blue"> &#160;&#160;&#160;SIGNAL(WIP3, SIG_SPIN);</text>
<text text-anchor="start" x="161" y="-76.5" font-family="Courier New" font-size="10.00" fill="blue"> &#160;&#160;&#160;SIGNAL(WIP2, SIG_SPIN);</text>
<text text-anchor="start" x="161" y="-63.75" font-family="Courier New" font-size="10.00" fill="blue"> &#160;&#160;&#160;SIGNAL(WIP1, SIG_SPIN);</text>
<polygon fill="none" stroke="black" points="155,-54.5 155,-138.25 329,-138.25 329,-54.5 155,-54.5"/>
</g>
<!-- 1&#45;&gt;0 -->
<g id="edge2" class="edge">
<title>1&#45;&gt;0</title>
<path fill="none" stroke="black" d="M278.63,-23.83C296.21,-28.39 317.96,-37.3 329,-54.5 349.11,-85.82 349.21,-106.99 329,-138.25 318.41,-154.62 304.82,-144.86 289,-156.25 284.94,-159.18 280.98,-162.62 277.26,-166.22"/>
<polygon fill="black" stroke="black" points="275.01,-163.51 270.61,-173.15 280.06,-168.36 275.01,-163.51"/>
<text text-anchor="start" x="348" y="-94.25" font-family="Courier New" font-weight="bold" font-size="10.00" fill="blue">Z_EPSILON(,)</text>
</g>
<!-- status -->
<g id="node4" class="node">
<title>status</title>
<polygon fill="none" stroke="black" points="298,-156.75 298,-235.75 1136,-235.75 1136,-156.75 298,-156.75"/>
<polygon fill="none" stroke="black" points="309,-210 309,-228.75 1125,-228.75 1125,-210 309,-210"/>
<text text-anchor="start" x="663" y="-217.25" font-family="Courier New" font-weight="bold" font-size="10.00">S19_SPINNER_BUTTON</text>
<polygon fill="none" stroke="black" points="309,-163.75 309,-208 1125,-208 1125,-163.75 309,-163.75"/>
<text text-anchor="start" x="312" y="-195.5" font-family="Courier New" font-size="10.00" fill="green">VIEW::IDV_RACEPAN @pos(x:557, y:41, w:31, h:32)</text>
<text text-anchor="start" x="312" y="-182.75" font-family="Courier New" font-size="10.00" fill="green">S19_SPINNER_BUTTON::M19_BUTTON(&#39;S19_SPINNER_BOTTOM_PICK&#39;,&#39;S19_SPINNER_BOTTOM_SPIN&#39;,&#39;S19_SPINNER_TOP_PICK&#39;,&#39;S19_SPINNER_TOP_SPIN&#39;,&#39;&#39;,&#39;&#39;)</text>
<text text-anchor="start" x="312" y="-170" font-family="Courier New" font-size="10.00" fill="green">{state:&#39;0&#39;: Top:41 Left:557 Z:5</text>
<polygon fill="none" stroke="black" points="306,-160.75 306,-231.75 1128,-231.75 1128,-160.75 306,-160.75"/>
</g>
</g>
</svg>
