<?xml version="1.0" encoding="UTF-8" standalone="no"?>
<!DOCTYPE svg PUBLIC "-//W3C//DTD SVG 1.1//EN"
 "http://www.w3.org/Graphics/SVG/1.1/DTD/svg11.dtd">
<!-- Generated by graphviz version 10.0.1 (20240210.2158)
 -->
<!-- Title: Automaton Pages: 1 -->
<svg width="730pt" height="661pt"
 viewBox="0.00 0.00 730.00 660.50" xmlns="http://www.w3.org/2000/svg" xmlns:xlink="http://www.w3.org/1999/xlink">
<g id="graph0" class="graph" transform="scale(1 1) rotate(0) translate(4 656.5)">
<title>Automaton</title>
<polygon fill="white" stroke="none" points="-4,4 -4,-656.5 726,-656.5 726,4 -4,4"/>
<!-- filename -->
<g id="node1" class="node">
<title>filename</title>
<polygon fill="none" stroke="black" points="0,-585.75 0,-639.25 226,-639.25 226,-585.75 0,-585.75"/>
<polygon fill="none" stroke="black" points="11,-613.5 11,-632.25 215,-632.25 215,-613.5 11,-613.5"/>
<text text-anchor="start" x="14" y="-620.75" font-family="Courier New" font-weight="bold" font-size="10.00">S19_SPINNER_BOTTOM_SPIN::M19_SPIN</text>
<polygon fill="none" stroke="black" points="11,-592.75 11,-611.5 215,-611.5 215,-592.75 11,-592.75"/>
<text text-anchor="start" x="68" y="-599" font-family="Courier New" font-size="10.00" fill="brown">start state = 0</text>
<polygon fill="none" stroke="black" points="8,-589.75 8,-635.25 218,-635.25 218,-589.75 8,-589.75"/>
</g>
<!-- 0 -->
<g id="node2" class="node">
<title>0</title>
<polyline fill="none" stroke="darkred" stroke-width="3" points="263.38,-600.75 278.62,-600.75"/>
<text text-anchor="start" x="266.88" y="-608.45" font-family="Courier New" font-weight="bold" font-size="14.00">0</text>
<path fill="none" stroke="darkred" stroke-width="3" d="M266.79,-595.75C266.79,-595.75 275.21,-595.75 275.21,-595.75 279.42,-595.75 283.62,-599.96 283.62,-604.17 283.62,-604.17 283.62,-620.83 283.62,-620.83 283.62,-625.04 279.42,-629.25 275.21,-629.25 275.21,-629.25 266.79,-629.25 266.79,-629.25 262.58,-629.25 258.38,-625.04 258.38,-620.83 258.38,-620.83 258.38,-604.17 258.38,-604.17 258.38,-599.96 262.58,-595.75 266.79,-595.75"/>
</g>
<!-- 1 -->
<g id="node3" class="node">
<title>1</title>
<polyline fill="none" stroke="darkred" points="192.88,-461.5 207.12,-461.5"/>
<text text-anchor="start" x="195.88" y="-468.7" font-family="Courier New" font-weight="bold" font-size="14.00">1</text>
<path fill="none" stroke="darkred" d="M196.62,-458.5C196.62,-458.5 203.38,-458.5 203.38,-458.5 206.75,-458.5 210.12,-461.88 210.12,-465.25 210.12,-465.25 210.12,-480.25 210.12,-480.25 210.12,-483.62 206.75,-487 203.38,-487 203.38,-487 196.62,-487 196.62,-487 193.25,-487 189.88,-483.62 189.88,-480.25 189.88,-480.25 189.88,-465.25 189.88,-465.25 189.88,-461.88 193.25,-458.5 196.62,-458.5"/>
</g>
<!-- 0&#45;&gt;1 -->
<g id="edge1" class="edge">
<title>0&#45;&gt;1</title>
<path fill="none" stroke="black" d="M254.44,-590.49C248.75,-584.16 242.03,-577.56 235,-572.5 219.18,-561.11 205.59,-570.87 195,-554.5 184.96,-538.97 186.57,-518.07 190.5,-501.42"/>
<polygon fill="black" stroke="black" points="193.77,-502.72 193.07,-492.15 187.02,-500.85 193.77,-502.72"/>
<polygon fill="none" stroke="black" points="198,-532.75 198,-551.5 330,-551.5 330,-532.75 198,-532.75"/>
<text text-anchor="start" x="216" y="-540" font-family="Courier New" font-weight="bold" font-size="10.00" fill="orange">WAIT(0,SIG_SPIN)</text>
<polygon fill="none" stroke="black" points="198,-512 198,-530.75 330,-530.75 330,-512 198,-512"/>
<text text-anchor="start" x="201" y="-518.25" font-family="Courier New" font-size="10.00" fill="blue">PLAYWAVE(SOUND_SPIN);</text>
<polygon fill="none" stroke="black" points="195,-509 195,-554.5 333,-554.5 333,-509 195,-509"/>
</g>
<!-- 2 -->
<g id="node4" class="node">
<title>2</title>
<polyline fill="none" stroke="darkred" points="210.88,-280.88 225.12,-280.88"/>
<text text-anchor="start" x="213.88" y="-288.07" font-family="Courier New" font-weight="bold" font-size="14.00">2</text>
<path fill="none" stroke="darkred" d="M214.62,-277.88C214.62,-277.88 221.38,-277.88 221.38,-277.88 224.75,-277.88 228.12,-281.25 228.12,-284.62 228.12,-284.62 228.12,-299.62 228.12,-299.62 228.12,-303 224.75,-306.38 221.38,-306.38 221.38,-306.38 214.62,-306.38 214.62,-306.38 211.25,-306.38 207.88,-303 207.88,-299.62 207.88,-299.62 207.88,-284.62 207.88,-284.62 207.88,-281.25 211.25,-277.88 214.62,-277.88"/>
</g>
<!-- 1&#45;&gt;2 -->
<g id="edge2" class="edge">
<title>1&#45;&gt;2</title>
<path fill="none" stroke="black" d="M201.73,-454.62C204.83,-423.81 211.38,-358.78 215.16,-321.32"/>
<polygon fill="black" stroke="black" points="218.61,-322.01 216.13,-311.71 211.64,-321.31 218.61,-322.01"/>
<text text-anchor="start" x="210" y="-424" font-family="Courier New" font-weight="bold" font-size="10.00" fill="blue">ASHOW(WIP1,V_LOOP)</text>
</g>
<!-- 3 -->
<g id="node5" class="node">
<title>3</title>
<polyline fill="none" stroke="darkred" points="223.88,-100.25 238.12,-100.25"/>
<text text-anchor="start" x="226.88" y="-107.45" font-family="Courier New" font-weight="bold" font-size="14.00">3</text>
<path fill="none" stroke="darkred" d="M227.62,-97.25C227.62,-97.25 234.38,-97.25 234.38,-97.25 237.75,-97.25 241.12,-100.62 241.12,-104 241.12,-104 241.12,-119 241.12,-119 241.12,-122.38 237.75,-125.75 234.38,-125.75 234.38,-125.75 227.62,-125.75 227.62,-125.75 224.25,-125.75 220.88,-122.38 220.88,-119 220.88,-119 220.88,-104 220.88,-104 220.88,-100.62 224.25,-97.25 227.62,-97.25"/>
</g>
<!-- 2&#45;&gt;3 -->
<g id="edge3" class="edge">
<title>2&#45;&gt;3</title>
<path fill="none" stroke="black" d="M219.25,-274C221.49,-243.19 226.22,-178.15 228.95,-140.69"/>
<polygon fill="black" stroke="black" points="232.41,-141.31 229.65,-131.09 225.43,-140.8 232.41,-141.31"/>
<text text-anchor="start" x="233" y="-156" font-family="Courier New" font-weight="bold" font-size="10.00" fill="blue">ESTIME(,4)</text>
</g>
<!-- reveal -->
<g id="node6" class="node">
<title>reveal</title>
<polyline fill="none" stroke="darkred" points="261.25,-7 316.75,-7"/>
<text text-anchor="start" x="264.25" y="-14.2" font-family="Courier New" font-weight="bold" font-size="14.00">reveal</text>
<path fill="none" stroke="darkred" d="M267.75,-4C267.75,-4 310.25,-4 310.25,-4 315,-4 319.75,-8.75 319.75,-13.5 319.75,-13.5 319.75,-23 319.75,-23 319.75,-27.75 315,-32.5 310.25,-32.5 310.25,-32.5 267.75,-32.5 267.75,-32.5 263,-32.5 258.25,-27.75 258.25,-23 258.25,-23 258.25,-13.5 258.25,-13.5 258.25,-8.75 263,-4 267.75,-4"/>
</g>
<!-- 3&#45;&gt;reveal -->
<g id="edge4" class="edge">
<title>3&#45;&gt;reveal</title>
<path fill="none" stroke="black" d="M228.44,-93.42C227.54,-81.68 228.13,-66.18 235,-54.5 237.4,-50.43 240.47,-46.74 243.93,-43.42"/>
<polygon fill="black" stroke="black" points="245.89,-46.35 251.4,-37.3 241.45,-40.93 245.89,-46.35"/>
<text text-anchor="start" x="239" y="-62.75" font-family="Courier New" font-weight="bold" font-size="10.00" fill="blue">CLEAR(WSPRITE,)</text>
</g>
<!-- reveal&#45;&gt;0 -->
<g id="edge5" class="edge">
<title>reveal&#45;&gt;0</title>
<path fill="none" stroke="black" d="M315.89,-36.23C322.3,-41.4 328.56,-47.58 333,-54.5 346.85,-76.1 347,-84.85 347,-110.5 347,-473.75 347,-473.75 347,-473.75 347,-510.17 352.61,-523.8 333,-554.5 325.43,-566.34 317.61,-563.28 307,-572.5 303.58,-575.47 300.14,-578.75 296.82,-582.09"/>
<polygon fill="black" stroke="black" points="294.28,-579.68 289.93,-589.34 299.36,-584.5 294.28,-579.68"/>
<polygon fill="none" stroke="black" points="350,-376 350,-394.75 656,-394.75 656,-376 350,-376"/>
<text text-anchor="start" x="476" y="-383.25" font-family="Courier New" font-weight="bold" font-size="10.00" fill="blue">SHOW(0,0)</text>
<polygon fill="none" stroke="black" points="350,-189.5 350,-374 656,-374 656,-189.5 350,-189.5"/>
<text text-anchor="start" x="353" y="-361.5" font-family="Courier New" font-size="10.00" fill="blue"> &#160;&#160;</text>
<text text-anchor="start" x="353" y="-348.75" font-family="Courier New" font-size="10.00" fill="blue"> &#160;&#160;&#160;if(WIP1 == IDS_BOTSPIN){</text>
<text text-anchor="start" x="353" y="-336" font-family="Courier New" font-size="10.00" fill="blue"> &#160;&#160;&#160;&#160;&#160;&#160;&#160;REF_MACHINE(S19_SPINNER_BOTTOM_PICK);</text>
<text text-anchor="start" x="353" y="-323.25" font-family="Courier New" font-size="10.00" fill="blue"> &#160;&#160;&#160;&#160;&#160;&#160;&#160;if(R_WPARM == 2){WPARM = &quot;Bomb&quot;;}</text>
<text text-anchor="start" x="353" y="-310.5" font-family="Courier New" font-size="10.00" fill="blue"> &#160;&#160;&#160;&#160;&#160;&#160;&#160;if(R_WPARM == 5){WPARM = &quot;Gopa Vial&quot;;}</text>
<text text-anchor="start" x="353" y="-297.75" font-family="Courier New" font-size="10.00" fill="blue"> &#160;&#160;&#160;&#160;&#160;&#160;&#160;if(R_WPARM == 8){WPARM = &quot;Bomb&quot;;}</text>
<text text-anchor="start" x="353" y="-285" font-family="Courier New" font-size="10.00" fill="blue"> &#160;&#160;&#160;&#160;&#160;&#160;&#160;if(R_WPARM == 11){WPARM = &quot;Wealth&quot;;}</text>
<text text-anchor="start" x="353" y="-272.25" font-family="Courier New" font-size="10.00" fill="blue"> &#160;&#160;&#160;&#160;&#160;&#160;&#160;if(R_WPARM == 14){WPARM = &quot;Bomb&quot;;}</text>
<text text-anchor="start" x="353" y="-259.5" font-family="Courier New" font-size="10.00" fill="blue"> &#160;&#160;&#160;&#160;&#160;&#160;&#160;if(R_WPARM == 17){WPARM = &quot;Transfer&quot;;}</text>
<text text-anchor="start" x="353" y="-246.75" font-family="Courier New" font-size="10.00" fill="blue"> &#160;&#160;&#160;&#160;&#160;&#160;&#160;if(R_WPARM == 20){WPARM = &quot;Banish&quot;;}</text>
<text text-anchor="start" x="353" y="-234" font-family="Courier New" font-size="10.00" fill="blue"> &#160;&#160;&#160;&#160;&#160;&#160;&#160;if(R_WPARM == 0){WPARM = &quot;Gopa&quot;;}</text>
<text text-anchor="start" x="353" y="-221.25" font-family="Courier New" font-size="10.00" fill="blue"> &#160;&#160;&#160;&#160;&#160;&#160;&#160;set_control_value(IDV_RACEPAN, 200,WPARM);</text>
<text text-anchor="start" x="353" y="-208.5" font-family="Courier New" font-size="10.00" fill="blue"> &#160;&#160;&#160;&#160;&#160;&#160;&#160;SIGNALi(S19_SPELLCASTER,SIG_START);</text>
<text text-anchor="start" x="353" y="-195.75" font-family="Courier New" font-size="10.00" fill="blue"> &#160;&#160;&#160;}</text>
<polygon fill="none" stroke="black" points="347,-186.5 347,-397.75 659,-397.75 659,-186.5 347,-186.5"/>
</g>
<!-- status -->
<g id="node7" class="node">
<title>status</title>
<polygon fill="none" stroke="black" points="316,-573 316,-652 722,-652 722,-573 316,-573"/>
<polygon fill="none" stroke="black" points="327,-626.25 327,-645 711,-645 711,-626.25 327,-626.25"/>
<text text-anchor="start" x="450" y="-633.5" font-family="Courier New" font-weight="bold" font-size="10.00">S19_SPINNER_BOTTOM_SPIN</text>
<polygon fill="none" stroke="black" points="327,-580 327,-624.25 711,-624.25 711,-580 327,-580"/>
<text text-anchor="start" x="330" y="-611.75" font-family="Courier New" font-size="10.00" fill="green">VIEW::IDV_RACEPAN @pos(x:435, y:0, w:30, h:117)</text>
<text text-anchor="start" x="330" y="-599" font-family="Courier New" font-size="10.00" fill="green">S19_SPINNER_BOTTOM_SPIN::M19_SPIN(&#39;IDS_BOTSPIN&#39;,&#39;&#39;,&#39;&#39;,&#39;&#39;,&#39;&#39;,&#39;&#39;)</text>
<text text-anchor="start" x="330" y="-586.25" font-family="Courier New" font-size="10.00" fill="green">{state:&#39;0&#39;: wParm:Wealth dEtime:0 Top:0 Left:435 Z:5</text>
<polygon fill="none" stroke="black" points="324,-577 324,-648 714,-648 714,-577 324,-577"/>
</g>
</g>
</svg>
