<?xml version="1.0" encoding="UTF-8" standalone="no"?>
<!DOCTYPE svg PUBLIC "-//W3C//DTD SVG 1.1//EN"
 "http://www.w3.org/Graphics/SVG/1.1/DTD/svg11.dtd">
<!-- Generated by graphviz version 10.0.1 (20240210.2158)
 -->
<!-- Title: Automaton Pages: 1 -->
<svg width="898pt" height="478pt"
 viewBox="0.00 0.00 898.11 477.75" xmlns="http://www.w3.org/2000/svg" xmlns:xlink="http://www.w3.org/1999/xlink">
<g id="graph0" class="graph" transform="scale(1 1) rotate(0) translate(4 473.75)">
<title>Automaton</title>
<polygon fill="white" stroke="none" points="-4,4 -4,-473.75 894.11,-473.75 894.11,4 -4,4"/>
<!-- filename -->
<g id="node1" class="node">
<title>filename</title>
<polygon fill="none" stroke="black" points="48.11,-403 48.11,-456.5 280.11,-456.5 280.11,-403 48.11,-403"/>
<polygon fill="none" stroke="black" points="59.11,-430.75 59.11,-449.5 269.11,-449.5 269.11,-430.75 59.11,-430.75"/>
<text text-anchor="start" x="62.11" y="-438" font-family="Courier New" font-weight="bold" font-size="10.00">S19_TOKENPICK_B::M19_TOKENRECORDER</text>
<polygon fill="none" stroke="black" points="59.11,-410 59.11,-428.75 269.11,-428.75 269.11,-410 59.11,-410"/>
<text text-anchor="start" x="119.11" y="-416.25" font-family="Courier New" font-size="10.00" fill="brown">start state = 0</text>
<polygon fill="none" stroke="black" points="56.11,-407 56.11,-452.5 272.11,-452.5 272.11,-407 56.11,-407"/>
</g>
<!-- 0 -->
<g id="node2" class="node">
<title>0</title>
<polyline fill="none" stroke="darkred" stroke-width="3" points="317.48,-418 332.73,-418"/>
<text text-anchor="start" x="320.98" y="-425.7" font-family="Courier New" font-weight="bold" font-size="14.00">0</text>
<path fill="none" stroke="darkred" stroke-width="3" d="M320.9,-413C320.9,-413 329.32,-413 329.32,-413 333.53,-413 337.73,-417.21 337.73,-421.42 337.73,-421.42 337.73,-438.08 337.73,-438.08 337.73,-442.29 333.53,-446.5 329.32,-446.5 329.32,-446.5 320.9,-446.5 320.9,-446.5 316.69,-446.5 312.48,-442.29 312.48,-438.08 312.48,-438.08 312.48,-421.42 312.48,-421.42 312.48,-417.21 316.69,-413 320.9,-413"/>
</g>
<!-- token_available -->
<g id="node3" class="node">
<title>token_available</title>
<polyline fill="none" stroke="darkred" points="41.23,-303.5 170.98,-303.5"/>
<text text-anchor="start" x="44.23" y="-310.7" font-family="Courier New" font-weight="bold" font-size="14.00">token_available</text>
<path fill="none" stroke="darkred" d="M47.73,-300.5C47.73,-300.5 164.48,-300.5 164.48,-300.5 169.23,-300.5 173.98,-305.25 173.98,-310 173.98,-310 173.98,-319.5 173.98,-319.5 173.98,-324.25 169.23,-329 164.48,-329 164.48,-329 47.73,-329 47.73,-329 42.98,-329 38.23,-324.25 38.23,-319.5 38.23,-319.5 38.23,-310 38.23,-310 38.23,-305.25 42.98,-300.5 47.73,-300.5"/>
</g>
<!-- 0&#45;&gt;token_available -->
<g id="edge1" class="edge">
<title>0&#45;&gt;token_available</title>
<path fill="none" stroke="black" d="M308.67,-407.58C302.98,-401.24 296.23,-394.68 289.11,-389.75 255.39,-366.44 213.22,-348.76 177.87,-336.53"/>
<polygon fill="black" stroke="black" points="179.16,-333.27 168.56,-333.39 176.92,-339.91 179.16,-333.27"/>
<text text-anchor="start" x="261.11" y="-359.25" font-family="Courier New" font-weight="bold" font-size="10.00" fill="orange">WAIT(,SIG_RESET)</text>
</g>
<!-- token_selected -->
<g id="node4" class="node">
<title>token_selected</title>
<polyline fill="none" stroke="darkred" points="168.36,-7 289.86,-7"/>
<text text-anchor="start" x="171.36" y="-14.2" font-family="Courier New" font-weight="bold" font-size="14.00">token_selected</text>
<path fill="none" stroke="darkred" d="M174.86,-4C174.86,-4 283.36,-4 283.36,-4 288.11,-4 292.86,-8.75 292.86,-13.5 292.86,-13.5 292.86,-23 292.86,-23 292.86,-27.75 288.11,-32.5 283.36,-32.5 283.36,-32.5 174.86,-32.5 174.86,-32.5 170.11,-32.5 165.36,-27.75 165.36,-23 165.36,-23 165.36,-13.5 165.36,-13.5 165.36,-8.75 170.11,-4 174.86,-4"/>
</g>
<!-- token_available&#45;&gt;token_selected -->
<g id="edge2" class="edge">
<title>token_available&#45;&gt;token_selected</title>
<path fill="none" stroke="black" d="M61.06,-296.53C53.89,-291.79 47.42,-285.85 43.11,-278.5 -7.25,-192.62 -20.4,-131.17 43.11,-54.5 56.56,-38.26 103.27,-29.44 146.51,-24.69"/>
<polygon fill="black" stroke="black" points="146.6,-28.2 156.19,-23.69 145.88,-21.23 146.6,-28.2"/>
<polygon fill="none" stroke="black" points="46.11,-256.75 46.11,-275.5 400.11,-275.5 400.11,-256.75 46.11,-256.75"/>
<text text-anchor="start" x="199.11" y="-264" font-family="Courier New" font-weight="bold" font-size="10.00" fill="orange">CLICK(,)</text>
<polygon fill="none" stroke="black" points="46.11,-57.5 46.11,-254.75 400.11,-254.75 400.11,-57.5 46.11,-57.5"/>
<text text-anchor="start" x="49.11" y="-242.25" font-family="Courier New" font-size="10.00" fill="blue"> &#160;&#160;&#160;&#160;&#160;&#160;predicate active_character(name);</text>
<text text-anchor="start" x="49.11" y="-229.5" font-family="Courier New" font-size="10.00" fill="blue"> &#160;&#160;&#160;&#160;&#160;&#160;active_character(?myname)?</text>
<text text-anchor="start" x="49.11" y="-216.75" font-family="Courier New" font-size="10.00" fill="blue"> &#160;&#160;&#160;&#160;&#160;&#160;predicate PlayerList(name,pid);</text>
<text text-anchor="start" x="49.11" y="-204" font-family="Courier New" font-size="10.00" fill="blue"> &#160;&#160;&#160;&#160;&#160;&#160;PlayerList(myname,?player_pid)?</text>
<text text-anchor="start" x="49.11" y="-191.25" font-family="Courier New" font-size="10.00" fill="blue"> &#160;&#160;&#160;&#160;predicate compete(name,token,address,partner,square);</text>
<text text-anchor="start" x="49.11" y="-178.5" font-family="Courier New" font-size="10.00" fill="blue"> &#160;&#160;&#160;&#160;compete(&quot;%&quot;)~</text>
<text text-anchor="start" x="49.11" y="-165.75" font-family="Courier New" font-size="10.00" fill="blue"> &#160;&#160;&#160;&#160;compete(myname,WIP1,player_pid,&quot;&quot;,&quot;&quot;).</text>
<text text-anchor="start" x="49.11" y="-153" font-family="Courier New" font-size="10.00" fill="blue"> &#160;&#160;&#160;if(WIP1 == IDD_PLAYER_W){</text>
<text text-anchor="start" x="49.11" y="-140.25" font-family="Courier New" font-size="10.00" fill="blue"> &#160;&#160;&#160;&#160;&#160;&#160;&#160;&#160;SIGNAL(S19_TOKENSHOW_W,SIG_HIDE);</text>
<text text-anchor="start" x="49.11" y="-127.5" font-family="Courier New" font-size="10.00" fill="blue"> &#160;&#160;&#160;&#160;&#160;&#160;&#160;// SIGNAL(sq_0_t,SIG_RESET);</text>
<text text-anchor="start" x="49.11" y="-114.75" font-family="Courier New" font-size="10.00" fill="blue"> &#160;&#160;&#160;}</text>
<text text-anchor="start" x="49.11" y="-102" font-family="Courier New" font-size="10.00" fill="blue"> &#160;&#160;&#160;if(WIP1 == IDD_PLAYER_B){</text>
<text text-anchor="start" x="49.11" y="-89.25" font-family="Courier New" font-size="10.00" fill="blue"> &#160;&#160;&#160;&#160;&#160;&#160;&#160;&#160;SIGNAL(S19_TOKENSHOW_B,SIG_HIDE);</text>
<text text-anchor="start" x="49.11" y="-76.5" font-family="Courier New" font-size="10.00" fill="blue"> &#160;&#160;&#160;&#160;&#160;&#160;&#160;// SIGNAL(sq_0_b,SIG_RESET);</text>
<text text-anchor="start" x="49.11" y="-63.75" font-family="Courier New" font-size="10.00" fill="blue"> &#160;&#160;&#160;} </text>
<polygon fill="none" stroke="black" points="43.11,-54.5 43.11,-278.5 403.11,-278.5 403.11,-54.5 43.11,-54.5"/>
</g>
<!-- token_selected&#45;&gt;0 -->
<g id="edge3" class="edge">
<title>token_selected&#45;&gt;0</title>
<path fill="none" stroke="black" d="M300.62,-24.69C342.62,-29.54 389.99,-38.45 403.11,-54.5 493,-164.43 433.12,-247.09 365.11,-371.75 360.24,-380.67 354.25,-389.89 348.41,-398.23"/>
<polygon fill="black" stroke="black" points="345.58,-396.18 342.57,-406.34 351.26,-400.27 345.58,-396.18"/>
<text text-anchor="start" x="410.11" y="-312.62" font-family="Courier New" font-weight="bold" font-size="10.00" fill="blue">Z_EPSILON(,)</text>
</g>
<!-- status -->
<g id="node5" class="node">
<title>status</title>
<polygon fill="none" stroke="black" points="370.11,-390.25 370.11,-469.25 890.11,-469.25 890.11,-390.25 370.11,-390.25"/>
<polygon fill="none" stroke="black" points="381.11,-443.5 381.11,-462.25 879.11,-462.25 879.11,-443.5 381.11,-443.5"/>
<text text-anchor="start" x="585.11" y="-450.75" font-family="Courier New" font-weight="bold" font-size="10.00">S19_TOKENPICK_B</text>
<polygon fill="none" stroke="black" points="381.11,-397.25 381.11,-441.5 879.11,-441.5 879.11,-397.25 381.11,-397.25"/>
<text text-anchor="start" x="384.11" y="-429" font-family="Courier New" font-size="10.00" fill="green">VIEW::IDV_RACEPAN @pos(x:76, y:21, w:31, h:30)</text>
<text text-anchor="start" x="384.11" y="-416.25" font-family="Courier New" font-size="10.00" fill="green">S19_TOKENPICK_B::M19_TOKENRECORDER(&#39;IDD_PLAYER_B&#39;,&#39;IDS_CHOOSETOKEN_B&#39;,&#39;&#39;,&#39;&#39;,&#39;&#39;,&#39;&#39;)</text>
<text text-anchor="start" x="384.11" y="-403.5" font-family="Courier New" font-size="10.00" fill="green">{state:&#39;0&#39;: Top:21 Left:76 Z:3</text>
<polygon fill="none" stroke="black" points="378.11,-394.25 378.11,-465.25 882.11,-465.25 882.11,-394.25 378.11,-394.25"/>
</g>
</g>
</svg>
