<?xml version="1.0" encoding="UTF-8" standalone="no"?>
<!DOCTYPE svg PUBLIC "-//W3C//DTD SVG 1.1//EN"
 "http://www.w3.org/Graphics/SVG/1.1/DTD/svg11.dtd">
<!-- Generated by graphviz version 10.0.1 (20240210.2158)
 -->
<!-- Title: Automaton Pages: 1 -->
<svg width="622pt" height="283pt"
 viewBox="0.00 0.00 622.00 282.50" xmlns="http://www.w3.org/2000/svg" xmlns:xlink="http://www.w3.org/1999/xlink">
<g id="graph0" class="graph" transform="scale(1 1) rotate(0) translate(4 278.5)">
<title>Automaton</title>
<polygon fill="white" stroke="none" points="-4,4 -4,-278.5 618,-278.5 618,4 -4,4"/>
<!-- filename -->
<g id="node1" class="node">
<title>filename</title>
<polygon fill="none" stroke="black" points="0,-207.75 0,-261.25 172,-261.25 172,-207.75 0,-207.75"/>
<polygon fill="none" stroke="black" points="11,-235.5 11,-254.25 161,-254.25 161,-235.5 11,-235.5"/>
<text text-anchor="start" x="14" y="-242.75" font-family="Courier New" font-weight="bold" font-size="10.00">S19_RACEGATE::M_RACEGATE</text>
<polygon fill="none" stroke="black" points="11,-214.75 11,-233.5 161,-233.5 161,-214.75 11,-214.75"/>
<text text-anchor="start" x="41" y="-221" font-family="Courier New" font-size="10.00" fill="brown">start state = 0</text>
<polygon fill="none" stroke="black" points="8,-211.75 8,-257.25 164,-257.25 164,-211.75 8,-211.75"/>
</g>
<!-- 0 -->
<g id="node2" class="node">
<title>0</title>
<polyline fill="none" stroke="darkred" stroke-width="3" points="209.38,-222.75 224.62,-222.75"/>
<text text-anchor="start" x="212.88" y="-230.45" font-family="Courier New" font-weight="bold" font-size="14.00">0</text>
<path fill="none" stroke="darkred" stroke-width="3" d="M212.79,-217.75C212.79,-217.75 221.21,-217.75 221.21,-217.75 225.42,-217.75 229.62,-221.96 229.62,-226.17 229.62,-226.17 229.62,-242.83 229.62,-242.83 229.62,-247.04 225.42,-251.25 221.21,-251.25 221.21,-251.25 212.79,-251.25 212.79,-251.25 208.58,-251.25 204.38,-247.04 204.38,-242.83 204.38,-242.83 204.38,-226.17 204.38,-226.17 204.38,-221.96 208.58,-217.75 212.79,-217.75"/>
</g>
<!-- 1 -->
<g id="node3" class="node">
<title>1</title>
<polyline fill="none" stroke="darkred" points="209.88,-7 224.12,-7"/>
<text text-anchor="start" x="212.88" y="-14.2" font-family="Courier New" font-weight="bold" font-size="14.00">1</text>
<path fill="none" stroke="darkred" d="M213.62,-4C213.62,-4 220.38,-4 220.38,-4 223.75,-4 227.12,-7.38 227.12,-10.75 227.12,-10.75 227.12,-25.75 227.12,-25.75 227.12,-29.12 223.75,-32.5 220.38,-32.5 220.38,-32.5 213.62,-32.5 213.62,-32.5 210.25,-32.5 206.88,-29.12 206.88,-25.75 206.88,-25.75 206.88,-10.75 206.88,-10.75 206.88,-7.38 210.25,-4 213.62,-4"/>
</g>
<!-- 0&#45;&gt;1 -->
<g id="edge1" class="edge">
<title>0&#45;&gt;1</title>
<path fill="none" stroke="black" d="M202.25,-212.52C196.41,-205.72 189.14,-198.82 181,-194.5 134.15,-169.61 97.57,-216.74 63,-176.5 27.67,-135.37 29.21,-96.9 63,-54.5 77.2,-36.69 137.8,-27.15 178.62,-22.65"/>
<polygon fill="black" stroke="black" points="178.97,-26.13 188.56,-21.61 178.25,-19.17 178.97,-26.13"/>
<polygon fill="none" stroke="black" points="66,-154.75 66,-173.5 348,-173.5 348,-154.75 66,-154.75"/>
<text text-anchor="start" x="180" y="-162" font-family="Courier New" font-weight="bold" font-size="10.00" fill="orange">CLICK(0,)</text>
<polygon fill="none" stroke="black" points="66,-57.5 66,-152.75 348,-152.75 348,-57.5 66,-57.5"/>
<text text-anchor="start" x="69" y="-140.25" font-family="Courier New" font-size="10.00" fill="blue"> &#160;&#160;&#160;REF_MACHINE(S19_COVER1);</text>
<text text-anchor="start" x="69" y="-127.5" font-family="Courier New" font-size="10.00" fill="blue"> &#160;&#160;&#160;if( (IFSTATE(done,S19_COVER1)) </text>
<text text-anchor="start" x="69" y="-114.75" font-family="Courier New" font-size="10.00" fill="blue"> &#160;&#160;&#160;&#160;&amp;&amp; ( IFSTATE(done,S19_COVER2)) </text>
<text text-anchor="start" x="69" y="-102" font-family="Courier New" font-size="10.00" fill="blue"> &#160;&#160;&#160;&#160;&amp;&amp; ( IFSTATE(done,S19_COVER3)) ){</text>
<text text-anchor="start" x="69" y="-89.25" font-family="Courier New" font-size="10.00" fill="blue"> &#160;&#160;&#160;&#160;&#160;&#160;&#160;LOADVIEW(WIP1);</text>
<text text-anchor="start" x="69" y="-76.5" font-family="Courier New" font-size="10.00" fill="blue"> &#160;&#160;&#160;&#160;&#160;&#160;&#160;SIGNAL(S16_CONTINENTPOINT,SIG_UNLOCK);</text>
<text text-anchor="start" x="69" y="-63.75" font-family="Courier New" font-size="10.00" fill="blue"> &#160;&#160;&#160;&#160;}</text>
<polygon fill="none" stroke="black" points="63,-54.5 63,-176.5 351,-176.5 351,-54.5 63,-54.5"/>
</g>
<!-- 1&#45;&gt;0 -->
<g id="edge2" class="edge">
<title>1&#45;&gt;0</title>
<path fill="none" stroke="black" d="M243.99,-22.47C279.25,-27.3 338.04,-37.69 351,-54.5 384.11,-97.44 385.71,-134.84 351,-176.5 322.66,-210.52 291.79,-173.13 253,-194.5 248.21,-197.14 243.7,-200.65 239.61,-204.49"/>
<polygon fill="black" stroke="black" points="237.23,-201.91 232.87,-211.56 242.3,-206.74 237.23,-201.91"/>
<text text-anchor="start" x="380" y="-113.38" font-family="Courier New" font-weight="bold" font-size="10.00" fill="blue">Z_EPSILON(0,)</text>
</g>
<!-- status -->
<g id="node4" class="node">
<title>status</title>
<polygon fill="none" stroke="black" points="262,-195 262,-274 614,-274 614,-195 262,-195"/>
<polygon fill="none" stroke="black" points="273,-248.25 273,-267 603,-267 603,-248.25 273,-248.25"/>
<text text-anchor="start" x="402" y="-255.5" font-family="Courier New" font-weight="bold" font-size="10.00">S19_RACEGATE</text>
<polygon fill="none" stroke="black" points="273,-202 273,-246.25 603,-246.25 603,-202 273,-202"/>
<text text-anchor="start" x="276" y="-233.75" font-family="Courier New" font-size="10.00" fill="green">VIEW::IDV_NAT1D @pos(x:2710, y:112, w:113, h:245)</text>
<text text-anchor="start" x="276" y="-221" font-family="Courier New" font-size="10.00" fill="green">S19_RACEGATE::M_RACEGATE(&#39;IDV_RACEPAN&#39;,&#39;&#39;,&#39;&#39;,&#39;&#39;,&#39;&#39;,&#39;&#39;)</text>
<text text-anchor="start" x="276" y="-208.25" font-family="Courier New" font-size="10.00" fill="green">{state:&#39;0&#39;: Top:112 Left:2710</text>
<polygon fill="none" stroke="black" points="270,-199 270,-270 606,-270 606,-199 270,-199"/>
</g>
</g>
</svg>
