<?xml version="1.0" encoding="UTF-8" standalone="no"?>
<!DOCTYPE svg PUBLIC "-//W3C//DTD SVG 1.1//EN"
 "http://www.w3.org/Graphics/SVG/1.1/DTD/svg11.dtd">
<!-- Generated by graphviz version 10.0.1 (20240210.2158)
 -->
<!-- Title: Automaton Pages: 1 -->
<svg width="694pt" height="661pt"
 viewBox="0.00 0.00 694.00 660.50" xmlns="http://www.w3.org/2000/svg" xmlns:xlink="http://www.w3.org/1999/xlink">
<g id="graph0" class="graph" transform="scale(1 1) rotate(0) translate(4 656.5)">
<title>Automaton</title>
<polygon fill="white" stroke="none" points="-4,4 -4,-656.5 690,-656.5 690,4 -4,4"/>
<!-- filename -->
<g id="node1" class="node">
<title>filename</title>
<polygon fill="none" stroke="black" points="0,-585.75 0,-639.25 208,-639.25 208,-585.75 0,-585.75"/>
<polygon fill="none" stroke="black" points="11,-613.5 11,-632.25 197,-632.25 197,-613.5 11,-613.5"/>
<text text-anchor="start" x="14" y="-620.75" font-family="Courier New" font-weight="bold" font-size="10.00">S19_SPINNER_TOP_SPIN::M19_SPIN</text>
<polygon fill="none" stroke="black" points="11,-592.75 11,-611.5 197,-611.5 197,-592.75 11,-592.75"/>
<text text-anchor="start" x="59" y="-599" font-family="Courier New" font-size="10.00" fill="brown">start state = 0</text>
<polygon fill="none" stroke="black" points="8,-589.75 8,-635.25 200,-635.25 200,-589.75 8,-589.75"/>
</g>
<!-- 0 -->
<g id="node2" class="node">
<title>0</title>
<polyline fill="none" stroke="darkred" stroke-width="3" points="245.38,-600.75 260.62,-600.75"/>
<text text-anchor="start" x="248.88" y="-608.45" font-family="Courier New" font-weight="bold" font-size="14.00">0</text>
<path fill="none" stroke="darkred" stroke-width="3" d="M248.79,-595.75C248.79,-595.75 257.21,-595.75 257.21,-595.75 261.42,-595.75 265.62,-599.96 265.62,-604.17 265.62,-604.17 265.62,-620.83 265.62,-620.83 265.62,-625.04 261.42,-629.25 257.21,-629.25 257.21,-629.25 248.79,-629.25 248.79,-629.25 244.58,-629.25 240.38,-625.04 240.38,-620.83 240.38,-620.83 240.38,-604.17 240.38,-604.17 240.38,-599.96 244.58,-595.75 248.79,-595.75"/>
</g>
<!-- 1 -->
<g id="node3" class="node">
<title>1</title>
<polyline fill="none" stroke="darkred" points="174.88,-461.5 189.12,-461.5"/>
<text text-anchor="start" x="177.88" y="-468.7" font-family="Courier New" font-weight="bold" font-size="14.00">1</text>
<path fill="none" stroke="darkred" d="M178.62,-458.5C178.62,-458.5 185.38,-458.5 185.38,-458.5 188.75,-458.5 192.12,-461.88 192.12,-465.25 192.12,-465.25 192.12,-480.25 192.12,-480.25 192.12,-483.62 188.75,-487 185.38,-487 185.38,-487 178.62,-487 178.62,-487 175.25,-487 171.88,-483.62 171.88,-480.25 171.88,-480.25 171.88,-465.25 171.88,-465.25 171.88,-461.88 175.25,-458.5 178.62,-458.5"/>
</g>
<!-- 0&#45;&gt;1 -->
<g id="edge1" class="edge">
<title>0&#45;&gt;1</title>
<path fill="none" stroke="black" d="M236.44,-590.49C230.75,-584.16 224.03,-577.56 217,-572.5 201.18,-561.11 187.59,-570.87 177,-554.5 166.96,-538.97 168.57,-518.07 172.5,-501.42"/>
<polygon fill="black" stroke="black" points="175.77,-502.72 175.07,-492.15 169.02,-500.85 175.77,-502.72"/>
<polygon fill="none" stroke="black" points="180,-532.75 180,-551.5 312,-551.5 312,-532.75 180,-532.75"/>
<text text-anchor="start" x="198" y="-540" font-family="Courier New" font-weight="bold" font-size="10.00" fill="orange">WAIT(0,SIG_SPIN)</text>
<polygon fill="none" stroke="black" points="180,-512 180,-530.75 312,-530.75 312,-512 180,-512"/>
<text text-anchor="start" x="183" y="-518.25" font-family="Courier New" font-size="10.00" fill="blue">PLAYWAVE(SOUND_SPIN);</text>
<polygon fill="none" stroke="black" points="177,-509 177,-554.5 315,-554.5 315,-509 177,-509"/>
</g>
<!-- 2 -->
<g id="node4" class="node">
<title>2</title>
<polyline fill="none" stroke="darkred" points="192.88,-280.88 207.12,-280.88"/>
<text text-anchor="start" x="195.88" y="-288.07" font-family="Courier New" font-weight="bold" font-size="14.00">2</text>
<path fill="none" stroke="darkred" d="M196.62,-277.88C196.62,-277.88 203.38,-277.88 203.38,-277.88 206.75,-277.88 210.12,-281.25 210.12,-284.62 210.12,-284.62 210.12,-299.62 210.12,-299.62 210.12,-303 206.75,-306.38 203.38,-306.38 203.38,-306.38 196.62,-306.38 196.62,-306.38 193.25,-306.38 189.88,-303 189.88,-299.62 189.88,-299.62 189.88,-284.62 189.88,-284.62 189.88,-281.25 193.25,-277.88 196.62,-277.88"/>
</g>
<!-- 1&#45;&gt;2 -->
<g id="edge2" class="edge">
<title>1&#45;&gt;2</title>
<path fill="none" stroke="black" d="M183.73,-454.62C186.83,-423.81 193.38,-358.78 197.16,-321.32"/>
<polygon fill="black" stroke="black" points="200.61,-322.01 198.13,-311.71 193.64,-321.31 200.61,-322.01"/>
<text text-anchor="start" x="192" y="-424" font-family="Courier New" font-weight="bold" font-size="10.00" fill="blue">ASHOW(WIP1,V_LOOP)</text>
</g>
<!-- 3 -->
<g id="node5" class="node">
<title>3</title>
<polyline fill="none" stroke="darkred" points="205.88,-100.25 220.12,-100.25"/>
<text text-anchor="start" x="208.88" y="-107.45" font-family="Courier New" font-weight="bold" font-size="14.00">3</text>
<path fill="none" stroke="darkred" d="M209.62,-97.25C209.62,-97.25 216.38,-97.25 216.38,-97.25 219.75,-97.25 223.12,-100.62 223.12,-104 223.12,-104 223.12,-119 223.12,-119 223.12,-122.38 219.75,-125.75 216.38,-125.75 216.38,-125.75 209.62,-125.75 209.62,-125.75 206.25,-125.75 202.88,-122.38 202.88,-119 202.88,-119 202.88,-104 202.88,-104 202.88,-100.62 206.25,-97.25 209.62,-97.25"/>
</g>
<!-- 2&#45;&gt;3 -->
<g id="edge3" class="edge">
<title>2&#45;&gt;3</title>
<path fill="none" stroke="black" d="M201.25,-274C203.49,-243.19 208.22,-178.15 210.95,-140.69"/>
<polygon fill="black" stroke="black" points="214.41,-141.31 211.65,-131.09 207.43,-140.8 214.41,-141.31"/>
<text text-anchor="start" x="215" y="-156" font-family="Courier New" font-weight="bold" font-size="10.00" fill="blue">ESTIME(,4)</text>
</g>
<!-- reveal -->
<g id="node6" class="node">
<title>reveal</title>
<polyline fill="none" stroke="darkred" points="243.25,-7 298.75,-7"/>
<text text-anchor="start" x="246.25" y="-14.2" font-family="Courier New" font-weight="bold" font-size="14.00">reveal</text>
<path fill="none" stroke="darkred" d="M249.75,-4C249.75,-4 292.25,-4 292.25,-4 297,-4 301.75,-8.75 301.75,-13.5 301.75,-13.5 301.75,-23 301.75,-23 301.75,-27.75 297,-32.5 292.25,-32.5 292.25,-32.5 249.75,-32.5 249.75,-32.5 245,-32.5 240.25,-27.75 240.25,-23 240.25,-23 240.25,-13.5 240.25,-13.5 240.25,-8.75 245,-4 249.75,-4"/>
</g>
<!-- 3&#45;&gt;reveal -->
<g id="edge4" class="edge">
<title>3&#45;&gt;reveal</title>
<path fill="none" stroke="black" d="M210.44,-93.42C209.54,-81.68 210.13,-66.18 217,-54.5 219.4,-50.43 222.47,-46.74 225.93,-43.42"/>
<polygon fill="black" stroke="black" points="227.89,-46.35 233.4,-37.3 223.45,-40.93 227.89,-46.35"/>
<text text-anchor="start" x="221" y="-62.75" font-family="Courier New" font-weight="bold" font-size="10.00" fill="blue">CLEAR(WSPRITE,)</text>
</g>
<!-- reveal&#45;&gt;0 -->
<g id="edge5" class="edge">
<title>reveal&#45;&gt;0</title>
<path fill="none" stroke="black" d="M297.89,-36.23C304.3,-41.4 310.56,-47.58 315,-54.5 328.85,-76.1 329,-84.85 329,-110.5 329,-473.75 329,-473.75 329,-473.75 329,-510.17 334.61,-523.8 315,-554.5 307.43,-566.34 299.61,-563.28 289,-572.5 285.58,-575.47 282.14,-578.75 278.82,-582.09"/>
<polygon fill="black" stroke="black" points="276.28,-579.68 271.93,-589.34 281.36,-584.5 276.28,-579.68"/>
<polygon fill="none" stroke="black" points="332,-376 332,-394.75 638,-394.75 638,-376 332,-376"/>
<text text-anchor="start" x="458" y="-383.25" font-family="Courier New" font-weight="bold" font-size="10.00" fill="blue">SHOW(0,0)</text>
<polygon fill="none" stroke="black" points="332,-189.5 332,-374 638,-374 638,-189.5 332,-189.5"/>
<text text-anchor="start" x="335" y="-361.5" font-family="Courier New" font-size="10.00" fill="blue"> &#160;&#160;</text>
<text text-anchor="start" x="335" y="-348.75" font-family="Courier New" font-size="10.00" fill="blue"> &#160;&#160;&#160;if(WIP1 == IDS_BOTSPIN){</text>
<text text-anchor="start" x="335" y="-336" font-family="Courier New" font-size="10.00" fill="blue"> &#160;&#160;&#160;&#160;&#160;&#160;&#160;REF_MACHINE(S19_SPINNER_BOTTOM_PICK);</text>
<text text-anchor="start" x="335" y="-323.25" font-family="Courier New" font-size="10.00" fill="blue"> &#160;&#160;&#160;&#160;&#160;&#160;&#160;if(R_WPARM == 2){WPARM = &quot;Bomb&quot;;}</text>
<text text-anchor="start" x="335" y="-310.5" font-family="Courier New" font-size="10.00" fill="blue"> &#160;&#160;&#160;&#160;&#160;&#160;&#160;if(R_WPARM == 5){WPARM = &quot;Gopa Vial&quot;;}</text>
<text text-anchor="start" x="335" y="-297.75" font-family="Courier New" font-size="10.00" fill="blue"> &#160;&#160;&#160;&#160;&#160;&#160;&#160;if(R_WPARM == 8){WPARM = &quot;Bomb&quot;;}</text>
<text text-anchor="start" x="335" y="-285" font-family="Courier New" font-size="10.00" fill="blue"> &#160;&#160;&#160;&#160;&#160;&#160;&#160;if(R_WPARM == 11){WPARM = &quot;Wealth&quot;;}</text>
<text text-anchor="start" x="335" y="-272.25" font-family="Courier New" font-size="10.00" fill="blue"> &#160;&#160;&#160;&#160;&#160;&#160;&#160;if(R_WPARM == 14){WPARM = &quot;Bomb&quot;;}</text>
<text text-anchor="start" x="335" y="-259.5" font-family="Courier New" font-size="10.00" fill="blue"> &#160;&#160;&#160;&#160;&#160;&#160;&#160;if(R_WPARM == 17){WPARM = &quot;Transfer&quot;;}</text>
<text text-anchor="start" x="335" y="-246.75" font-family="Courier New" font-size="10.00" fill="blue"> &#160;&#160;&#160;&#160;&#160;&#160;&#160;if(R_WPARM == 20){WPARM = &quot;Banish&quot;;}</text>
<text text-anchor="start" x="335" y="-234" font-family="Courier New" font-size="10.00" fill="blue"> &#160;&#160;&#160;&#160;&#160;&#160;&#160;if(R_WPARM == 0){WPARM = &quot;Gopa&quot;;}</text>
<text text-anchor="start" x="335" y="-221.25" font-family="Courier New" font-size="10.00" fill="blue"> &#160;&#160;&#160;&#160;&#160;&#160;&#160;set_control_value(IDV_RACEPAN, 200,WPARM);</text>
<text text-anchor="start" x="335" y="-208.5" font-family="Courier New" font-size="10.00" fill="blue"> &#160;&#160;&#160;&#160;&#160;&#160;&#160;SIGNALi(S19_SPELLCASTER,SIG_START);</text>
<text text-anchor="start" x="335" y="-195.75" font-family="Courier New" font-size="10.00" fill="blue"> &#160;&#160;&#160;}</text>
<polygon fill="none" stroke="black" points="329,-186.5 329,-397.75 641,-397.75 641,-186.5 329,-186.5"/>
</g>
<!-- status -->
<g id="node7" class="node">
<title>status</title>
<polygon fill="none" stroke="black" points="298,-573 298,-652 686,-652 686,-573 298,-573"/>
<polygon fill="none" stroke="black" points="309,-626.25 309,-645 675,-645 675,-626.25 309,-626.25"/>
<text text-anchor="start" x="432" y="-633.5" font-family="Courier New" font-weight="bold" font-size="10.00">S19_SPINNER_TOP_SPIN</text>
<polygon fill="none" stroke="black" points="309,-580 309,-624.25 675,-624.25 675,-580 309,-580"/>
<text text-anchor="start" x="312" y="-611.75" font-family="Courier New" font-size="10.00" fill="green">VIEW::IDV_RACEPAN @pos(x:435, y:0, w:30, h:117)</text>
<text text-anchor="start" x="312" y="-599" font-family="Courier New" font-size="10.00" fill="green">S19_SPINNER_TOP_SPIN::M19_SPIN(&#39;IDS_TOPSPIN&#39;,&#39;&#39;,&#39;&#39;,&#39;&#39;,&#39;&#39;,&#39;&#39;)</text>
<text text-anchor="start" x="312" y="-586.25" font-family="Courier New" font-size="10.00" fill="green">{state:&#39;0&#39;: dEtime:0 Top:0 Left:435 Z:4</text>
<polygon fill="none" stroke="black" points="306,-577 306,-648 678,-648 678,-577 306,-577"/>
</g>
</g>
</svg>
