<?xml version="1.0" encoding="UTF-8" standalone="no"?>
<!DOCTYPE svg PUBLIC "-//W3C//DTD SVG 1.1//EN"
 "http://www.w3.org/Graphics/SVG/1.1/DTD/svg11.dtd">
<!-- Generated by graphviz version 10.0.1 (20240210.2158)
 -->
<!-- Title: Automaton Pages: 1 -->
<svg width="532pt" height="88pt"
 viewBox="0.00 0.00 532.00 88.00" xmlns="http://www.w3.org/2000/svg" xmlns:xlink="http://www.w3.org/1999/xlink">
<g id="graph0" class="graph" transform="scale(1 1) rotate(0) translate(4 84)">
<title>Automaton</title>
<polygon fill="white" stroke="none" points="-4,4 -4,-84 528,-84 528,4 -4,4"/>
<!-- filename -->
<g id="node1" class="node">
<title>filename</title>
<polygon fill="none" stroke="black" points="0,-13.25 0,-66.75 118,-66.75 118,-13.25 0,-13.25"/>
<polygon fill="none" stroke="black" points="11,-41 11,-59.75 107,-59.75 107,-41 11,-41"/>
<text text-anchor="start" x="14" y="-48.25" font-family="Courier New" font-weight="bold" font-size="10.00">S19_TOKENPICK::</text>
<polygon fill="none" stroke="black" points="11,-20.25 11,-39 107,-39 107,-20.25 11,-20.25"/>
<text text-anchor="start" x="14" y="-26.5" font-family="Courier New" font-size="10.00" fill="brown">start state = 0</text>
<polygon fill="none" stroke="black" points="8,-17.25 8,-62.75 110,-62.75 110,-17.25 8,-17.25"/>
</g>
<!-- status -->
<g id="node2" class="node">
<title>status</title>
<polygon fill="none" stroke="black" points="136,-0.5 136,-79.5 524,-79.5 524,-0.5 136,-0.5"/>
<polygon fill="none" stroke="black" points="147,-53.75 147,-72.5 513,-72.5 513,-53.75 147,-53.75"/>
<text text-anchor="start" x="291" y="-61" font-family="Courier New" font-weight="bold" font-size="10.00">S19_TOKENPICK</text>
<polygon fill="none" stroke="black" points="147,-7.5 147,-51.75 513,-51.75 513,-7.5 147,-7.5"/>
<text text-anchor="start" x="150" y="-39.25" font-family="Courier New" font-size="10.00" fill="green">VIEW::IDV_RACEPAN @pos(x:25, y:25, w:50, h:125)</text>
<text text-anchor="start" x="150" y="-26.5" font-family="Courier New" font-size="10.00" fill="green">S19_TOKENPICK::M19_TOKENPICK(&#39;IDS_TOKENPICK&#39;,&#39;&#39;,&#39;&#39;,&#39;&#39;,&#39;&#39;,&#39;&#39;)</text>
<text text-anchor="start" x="150" y="-13.75" font-family="Courier New" font-size="10.00" fill="green">{state:&#39;0&#39;: Top:25 Left:25 Z:1</text>
<polygon fill="none" stroke="black" points="144,-4.5 144,-75.5 516,-75.5 516,-4.5 144,-4.5"/>
</g>
</g>
</svg>
