<?xml version="1.0" encoding="UTF-8" standalone="no"?>
<!DOCTYPE svg PUBLIC "-//W3C//DTD SVG 1.1//EN"
 "http://www.w3.org/Graphics/SVG/1.1/DTD/svg11.dtd">
<!-- Generated by graphviz version 10.0.1 (20240210.2158)
 -->
<!-- Title: Automaton Pages: 1 -->
<svg width="928pt" height="476pt"
 viewBox="0.00 0.00 928.00 476.25" xmlns="http://www.w3.org/2000/svg" xmlns:xlink="http://www.w3.org/1999/xlink">
<g id="graph0" class="graph" transform="scale(1 1) rotate(0) translate(4 472.25)">
<title>Automaton</title>
<polygon fill="white" stroke="none" points="-4,4 -4,-472.25 924,-472.25 924,4 -4,4"/>
<!-- filename -->
<g id="node1" class="node">
<title>filename</title>
<polygon fill="none" stroke="black" points="0,-401.5 0,-455 208,-455 208,-401.5 0,-401.5"/>
<polygon fill="none" stroke="black" points="11,-429.25 11,-448 197,-448 197,-429.25 11,-429.25"/>
<text text-anchor="start" x="14" y="-436.5" font-family="Courier New" font-weight="bold" font-size="10.00">S19_SPINNER_TOP_PICK::M19_PICK</text>
<polygon fill="none" stroke="black" points="11,-408.5 11,-427.25 197,-427.25 197,-408.5 11,-408.5"/>
<text text-anchor="start" x="59" y="-414.75" font-family="Courier New" font-size="10.00" fill="brown">start state = 0</text>
<polygon fill="none" stroke="black" points="8,-405.5 8,-451 200,-451 200,-405.5 8,-405.5"/>
</g>
<!-- 0 -->
<g id="node2" class="node">
<title>0</title>
<polyline fill="none" stroke="darkred" points="245.88,-417 260.12,-417"/>
<text text-anchor="start" x="248.88" y="-424.2" font-family="Courier New" font-weight="bold" font-size="14.00">0</text>
<path fill="none" stroke="darkred" d="M249.62,-414C249.62,-414 256.38,-414 256.38,-414 259.75,-414 263.12,-417.38 263.12,-420.75 263.12,-420.75 263.12,-435.75 263.12,-435.75 263.12,-439.12 259.75,-442.5 256.38,-442.5 256.38,-442.5 249.62,-442.5 249.62,-442.5 246.25,-442.5 242.88,-439.12 242.88,-435.75 242.88,-435.75 242.88,-420.75 242.88,-420.75 242.88,-417.38 246.25,-414 249.62,-414"/>
</g>
<!-- setup -->
<g id="node3" class="node">
<title>setup</title>
<polyline fill="none" stroke="darkred" points="151.38,-277.25 198.62,-277.25"/>
<text text-anchor="start" x="154.38" y="-284.45" font-family="Courier New" font-weight="bold" font-size="14.00">setup</text>
<path fill="none" stroke="darkred" d="M157.88,-274.25C157.88,-274.25 192.12,-274.25 192.12,-274.25 196.88,-274.25 201.62,-279 201.62,-283.75 201.62,-283.75 201.62,-293.25 201.62,-293.25 201.62,-298 196.88,-302.75 192.12,-302.75 192.12,-302.75 157.88,-302.75 157.88,-302.75 153.12,-302.75 148.38,-298 148.38,-293.25 148.38,-293.25 148.38,-283.75 148.38,-283.75 148.38,-279 153.12,-274.25 157.88,-274.25"/>
</g>
<!-- 0&#45;&gt;setup -->
<g id="edge1" class="edge">
<title>0&#45;&gt;setup</title>
<path fill="none" stroke="black" d="M239.9,-410.27C233.56,-402.84 225.49,-394.43 217,-388.25 201.56,-377.02 188.59,-386.14 178,-370.25 167.86,-355.03 167.27,-334.37 169.13,-317.76"/>
<polygon fill="black" stroke="black" points="172.57,-318.42 170.59,-308.01 165.65,-317.38 172.57,-318.42"/>
<polygon fill="none" stroke="black" points="181,-348.5 181,-367.25 313,-367.25 313,-348.5 181,-348.5"/>
<text text-anchor="start" x="196" y="-355.75" font-family="Courier New" font-weight="bold" font-size="10.00" fill="blue">MOV(WSPRITE,WIP1)</text>
<polygon fill="none" stroke="black" points="181,-327.75 181,-346.5 313,-346.5 313,-327.75 181,-327.75"/>
<text text-anchor="start" x="184" y="-334" font-family="Courier New" font-size="10.00" fill="blue"> &#160;&#160;&#160;ASSIGN(WTEMP1,0);</text>
<polygon fill="none" stroke="black" points="178,-324.75 178,-370.25 316,-370.25 316,-324.75 178,-324.75"/>
</g>
<!-- randomGenned -->
<g id="node5" class="node">
<title>randomGenned</title>
<polyline fill="none" stroke="darkred" points="113.5,-184 218.5,-184"/>
<text text-anchor="start" x="116.5" y="-191.2" font-family="Courier New" font-weight="bold" font-size="14.00">randomGenned</text>
<path fill="none" stroke="darkred" d="M120,-181C120,-181 212,-181 212,-181 216.75,-181 221.5,-185.75 221.5,-190.5 221.5,-190.5 221.5,-200 221.5,-200 221.5,-204.75 216.75,-209.5 212,-209.5 212,-209.5 120,-209.5 120,-209.5 115.25,-209.5 110.5,-204.75 110.5,-200 110.5,-200 110.5,-190.5 110.5,-190.5 110.5,-185.75 115.25,-181 120,-181"/>
</g>
<!-- setup&#45;&gt;randomGenned -->
<g id="edge4" class="edge">
<title>setup&#45;&gt;randomGenned</title>
<path fill="none" stroke="black" d="M173.31,-270.34C172.04,-257.46 170.27,-239.56 168.79,-224.57"/>
<polygon fill="black" stroke="black" points="172.3,-224.45 167.83,-214.84 165.33,-225.14 172.3,-224.45"/>
<text text-anchor="start" x="176" y="-239.75" font-family="Courier New" font-weight="bold" font-size="10.00" fill="blue">RAND(1,8)</text>
</g>
<!-- frameMapped -->
<g id="node4" class="node">
<title>frameMapped</title>
<polyline fill="none" stroke="darkred" stroke-width="3" points="198.12,-10.5 295.88,-10.5"/>
<text text-anchor="start" x="201.62" y="-18.2" font-family="Courier New" font-weight="bold" font-size="14.00">frameMapped</text>
<path fill="none" stroke="darkred" stroke-width="3" d="M204.29,-5.5C204.29,-5.5 289.71,-5.5 289.71,-5.5 295.29,-5.5 300.88,-11.08 300.88,-16.67 300.88,-16.67 300.88,-27.83 300.88,-27.83 300.88,-33.42 295.29,-39 289.71,-39 289.71,-39 204.29,-39 204.29,-39 198.71,-39 193.12,-33.42 193.12,-27.83 193.12,-27.83 193.12,-16.67 193.12,-16.67 193.12,-11.08 198.71,-5.5 204.29,-5.5"/>
</g>
<!-- frameMapped&#45;&gt;0 -->
<g id="edge2" class="edge">
<title>frameMapped&#45;&gt;0</title>
<path fill="none" stroke="black" d="M299.09,-44.47C305.84,-49.4 311.84,-55.35 316,-62.5 384.77,-180.73 380.54,-249.66 316,-370.25 309.19,-382.97 299.97,-378.89 289,-388.25 284.18,-392.36 279.36,-397.08 274.87,-401.78"/>
<polygon fill="black" stroke="black" points="272.46,-399.24 268.27,-408.97 277.61,-403.97 272.46,-399.24"/>
<text text-anchor="start" x="369" y="-239.75" font-family="Courier New" font-weight="bold" font-size="10.00" fill="orange">WAIT(0,SIG_SPIN)</text>
</g>
<!-- randomGenned&#45;&gt;frameMapped -->
<g id="edge3" class="edge">
<title>randomGenned&#45;&gt;frameMapped</title>
<path fill="none" stroke="black" d="M160.7,-177.31C153.43,-150.62 143.65,-98.16 166,-62.5 168.57,-58.4 171.7,-54.72 175.22,-51.42"/>
<polygon fill="black" stroke="black" points="177.23,-54.29 182.87,-45.32 172.87,-48.82 177.23,-54.29"/>
<polygon fill="none" stroke="black" points="169,-137.25 169,-156 313,-156 313,-137.25 169,-137.25"/>
<text text-anchor="start" x="190" y="-144.5" font-family="Courier New" font-weight="bold" font-size="10.00" fill="blue">MOV(WTEMP1,WRAND)</text>
<polygon fill="none" stroke="black" points="169,-65.5 169,-135.25 313,-135.25 313,-65.5 169,-65.5"/>
<text text-anchor="start" x="172" y="-122.75" font-family="Courier New" font-size="10.00" fill="blue"> &#160;&#160;&#160;MAPi(WTEMP1,WIP3);</text>
<text text-anchor="start" x="172" y="-110" font-family="Courier New" font-size="10.00" fill="blue"> &#160;&#160;&#160;MOV(BFRAME,WTEMP1);</text>
<text text-anchor="start" x="172" y="-97.25" font-family="Courier New" font-size="10.00" fill="blue"> &#160;&#160;&#160;SHOW(WSPRITE);</text>
<text text-anchor="start" x="172" y="-84.5" font-family="Courier New" font-size="10.00" fill="blue"> &#160;&#160;&#160;MOV(WPARM,WTEMP1);</text>
<text text-anchor="start" x="172" y="-71.75" font-family="Courier New" font-size="10.00" fill="blue"> &#160;&#160;</text>
<polygon fill="none" stroke="black" points="166,-62.5 166,-159 316,-159 316,-62.5 166,-62.5"/>
</g>
<!-- status -->
<g id="node6" class="node">
<title>status</title>
<polygon fill="none" stroke="black" points="298,-388.75 298,-467.75 920,-467.75 920,-388.75 298,-388.75"/>
<polygon fill="none" stroke="black" points="309,-442 309,-460.75 909,-460.75 909,-442 309,-442"/>
<text text-anchor="start" x="549" y="-449.25" font-family="Courier New" font-weight="bold" font-size="10.00">S19_SPINNER_TOP_PICK</text>
<polygon fill="none" stroke="black" points="309,-395.75 309,-440 909,-440 909,-395.75 309,-395.75"/>
<text text-anchor="start" x="312" y="-427.5" font-family="Courier New" font-size="10.00" fill="green">VIEW::IDV_RACEPAN @pos(x:435, y:0, w:30, h:117)</text>
<text text-anchor="start" x="312" y="-414.75" font-family="Courier New" font-size="10.00" fill="green">S19_SPINNER_TOP_PICK::M19_PICK(&#39;IDS_TOPSPIN&#39;,&#39;3&#39;,&#39;S19_TOPSPIN_MAP&#39;,&#39;&#39;,&#39;&#39;,&#39;&#39;)</text>
<text text-anchor="start" x="312" y="-402" font-family="Courier New" font-size="10.00" fill="green">{state:&#39;frameMapped&#39;: wParm:2 wSprite:IDS_TOPSPIN bFrame:2 wRand:4 Seed:28925691 Top:0 Left:435 Z:2</text>
<polygon fill="none" stroke="black" points="306,-392.75 306,-463.75 912,-463.75 912,-392.75 306,-392.75"/>
</g>
</g>
</svg>
