<?xml version="1.0" encoding="UTF-8" standalone="no"?>
<!DOCTYPE svg PUBLIC "-//W3C//DTD SVG 1.1//EN"
 "http://www.w3.org/Graphics/SVG/1.1/DTD/svg11.dtd">
<!-- Generated by graphviz version 10.0.1 (20240210.2158)
 -->
<!-- Title: Automaton Pages: 1 -->
<svg width="897pt" height="486pt"
 viewBox="0.00 0.00 897.41 485.75" xmlns="http://www.w3.org/2000/svg" xmlns:xlink="http://www.w3.org/1999/xlink">
<g id="graph0" class="graph" transform="scale(1 1) rotate(0) translate(4 481.75)">
<title>Automaton</title>
<polygon fill="white" stroke="none" points="-4,4 -4,-481.75 893.41,-481.75 893.41,4 -4,4"/>
<!-- filename -->
<g id="node1" class="node">
<title>filename</title>
<polygon fill="none" stroke="black" points="47.41,-411 47.41,-464.5 279.41,-464.5 279.41,-411 47.41,-411"/>
<polygon fill="none" stroke="black" points="58.41,-438.75 58.41,-457.5 268.41,-457.5 268.41,-438.75 58.41,-438.75"/>
<text text-anchor="start" x="61.41" y="-446" font-family="Courier New" font-weight="bold" font-size="10.00">S19_TOKENPICK_W::M19_TOKENRECORDER</text>
<polygon fill="none" stroke="black" points="58.41,-418 58.41,-436.75 268.41,-436.75 268.41,-418 58.41,-418"/>
<text text-anchor="start" x="118.41" y="-424.25" font-family="Courier New" font-size="10.00" fill="brown">start state = 0</text>
<polygon fill="none" stroke="black" points="55.41,-415 55.41,-460.5 271.41,-460.5 271.41,-415 55.41,-415"/>
</g>
<!-- 0 -->
<g id="node2" class="node">
<title>0</title>
<polyline fill="none" stroke="darkred" points="317.29,-426.5 331.54,-426.5"/>
<text text-anchor="start" x="320.29" y="-433.7" font-family="Courier New" font-weight="bold" font-size="14.00">0</text>
<path fill="none" stroke="darkred" d="M321.04,-423.5C321.04,-423.5 327.79,-423.5 327.79,-423.5 331.16,-423.5 334.54,-426.88 334.54,-430.25 334.54,-430.25 334.54,-445.25 334.54,-445.25 334.54,-448.62 331.16,-452 327.79,-452 327.79,-452 321.04,-452 321.04,-452 317.66,-452 314.29,-448.62 314.29,-445.25 314.29,-445.25 314.29,-430.25 314.29,-430.25 314.29,-426.88 317.66,-423.5 321.04,-423.5"/>
</g>
<!-- token_available -->
<g id="node3" class="node">
<title>token_available</title>
<polyline fill="none" stroke="darkred" stroke-width="3" points="40.04,-307 170.79,-307"/>
<text text-anchor="start" x="43.54" y="-314.7" font-family="Courier New" font-weight="bold" font-size="14.00">token_available</text>
<path fill="none" stroke="darkred" stroke-width="3" d="M46.2,-302C46.2,-302 164.62,-302 164.62,-302 170.2,-302 175.79,-307.58 175.79,-313.17 175.79,-313.17 175.79,-324.33 175.79,-324.33 175.79,-329.92 170.2,-335.5 164.62,-335.5 164.62,-335.5 46.2,-335.5 46.2,-335.5 40.62,-335.5 35.04,-329.92 35.04,-324.33 35.04,-324.33 35.04,-313.17 35.04,-313.17 35.04,-307.58 40.62,-302 46.2,-302"/>
</g>
<!-- 0&#45;&gt;token_available -->
<g id="edge1" class="edge">
<title>0&#45;&gt;token_available</title>
<path fill="none" stroke="black" d="M311.39,-419.65C305.07,-412.2 297,-403.8 288.41,-397.75 256.83,-375.48 217.89,-357.78 184.07,-344.9"/>
<polygon fill="black" stroke="black" points="185.29,-341.63 174.7,-341.42 182.85,-348.19 185.29,-341.63"/>
<text text-anchor="start" x="260.41" y="-367.25" font-family="Courier New" font-weight="bold" font-size="10.00" fill="orange">WAIT(,SIG_RESET)</text>
</g>
<!-- token_selected -->
<g id="node4" class="node">
<title>token_selected</title>
<polyline fill="none" stroke="darkred" points="167.66,-7 289.16,-7"/>
<text text-anchor="start" x="170.66" y="-14.2" font-family="Courier New" font-weight="bold" font-size="14.00">token_selected</text>
<path fill="none" stroke="darkred" d="M174.16,-4C174.16,-4 282.66,-4 282.66,-4 287.41,-4 292.16,-8.75 292.16,-13.5 292.16,-13.5 292.16,-23 292.16,-23 292.16,-27.75 287.41,-32.5 282.66,-32.5 282.66,-32.5 174.16,-32.5 174.16,-32.5 169.41,-32.5 164.66,-27.75 164.66,-23 164.66,-23 164.66,-13.5 164.66,-13.5 164.66,-8.75 169.41,-4 174.16,-4"/>
</g>
<!-- token_available&#45;&gt;token_selected -->
<g id="edge2" class="edge">
<title>token_available&#45;&gt;token_selected</title>
<path fill="none" stroke="black" d="M58.7,-296.56C52.17,-291.58 46.35,-285.6 42.41,-278.5 -5.91,-191.46 -21.09,-131.17 42.41,-54.5 55.86,-38.26 102.57,-29.44 145.81,-24.69"/>
<polygon fill="black" stroke="black" points="145.9,-28.2 155.49,-23.69 145.18,-21.23 145.9,-28.2"/>
<polygon fill="none" stroke="black" points="45.41,-256.75 45.41,-275.5 399.41,-275.5 399.41,-256.75 45.41,-256.75"/>
<text text-anchor="start" x="198.41" y="-264" font-family="Courier New" font-weight="bold" font-size="10.00" fill="orange">CLICK(,)</text>
<polygon fill="none" stroke="black" points="45.41,-57.5 45.41,-254.75 399.41,-254.75 399.41,-57.5 45.41,-57.5"/>
<text text-anchor="start" x="48.41" y="-242.25" font-family="Courier New" font-size="10.00" fill="blue"> &#160;&#160;&#160;&#160;&#160;&#160;predicate active_character(name);</text>
<text text-anchor="start" x="48.41" y="-229.5" font-family="Courier New" font-size="10.00" fill="blue"> &#160;&#160;&#160;&#160;&#160;&#160;active_character(?myname)?</text>
<text text-anchor="start" x="48.41" y="-216.75" font-family="Courier New" font-size="10.00" fill="blue"> &#160;&#160;&#160;&#160;&#160;&#160;predicate PlayerList(name,pid);</text>
<text text-anchor="start" x="48.41" y="-204" font-family="Courier New" font-size="10.00" fill="blue"> &#160;&#160;&#160;&#160;&#160;&#160;PlayerList(myname,?player_pid)?</text>
<text text-anchor="start" x="48.41" y="-191.25" font-family="Courier New" font-size="10.00" fill="blue"> &#160;&#160;&#160;&#160;predicate compete(name,token,address,partner,square);</text>
<text text-anchor="start" x="48.41" y="-178.5" font-family="Courier New" font-size="10.00" fill="blue"> &#160;&#160;&#160;&#160;compete(&quot;%&quot;)~</text>
<text text-anchor="start" x="48.41" y="-165.75" font-family="Courier New" font-size="10.00" fill="blue"> &#160;&#160;&#160;&#160;compete(myname,WIP1,player_pid,&quot;&quot;,&quot;&quot;).</text>
<text text-anchor="start" x="48.41" y="-153" font-family="Courier New" font-size="10.00" fill="blue"> &#160;&#160;&#160;if(WIP1 == IDD_PLAYER_W){</text>
<text text-anchor="start" x="48.41" y="-140.25" font-family="Courier New" font-size="10.00" fill="blue"> &#160;&#160;&#160;&#160;&#160;&#160;&#160;&#160;SIGNAL(S19_TOKENSHOW_W,SIG_HIDE);</text>
<text text-anchor="start" x="48.41" y="-127.5" font-family="Courier New" font-size="10.00" fill="blue"> &#160;&#160;&#160;&#160;&#160;&#160;&#160;&#160;SIGNAL(sq_0_t,SIG_RESET);</text>
<text text-anchor="start" x="48.41" y="-114.75" font-family="Courier New" font-size="10.00" fill="blue"> &#160;&#160;&#160;}</text>
<text text-anchor="start" x="48.41" y="-102" font-family="Courier New" font-size="10.00" fill="blue"> &#160;&#160;&#160;if(WIP1 == IDD_PLAYER_B){</text>
<text text-anchor="start" x="48.41" y="-89.25" font-family="Courier New" font-size="10.00" fill="blue"> &#160;&#160;&#160;&#160;&#160;&#160;&#160;&#160;SIGNAL(S19_TOKENSHOW_B,SIG_HIDE);</text>
<text text-anchor="start" x="48.41" y="-76.5" font-family="Courier New" font-size="10.00" fill="blue"> &#160;&#160;&#160;&#160;&#160;&#160;&#160;&#160;SIGNAL(sq_0_b,SIG_RESET);</text>
<text text-anchor="start" x="48.41" y="-63.75" font-family="Courier New" font-size="10.00" fill="blue"> &#160;&#160;&#160;} </text>
<polygon fill="none" stroke="black" points="42.41,-54.5 42.41,-278.5 402.41,-278.5 402.41,-54.5 42.41,-54.5"/>
</g>
<!-- token_selected&#45;&gt;0 -->
<g id="edge3" class="edge">
<title>token_selected&#45;&gt;0</title>
<path fill="none" stroke="black" d="M299.92,-24.69C341.93,-29.54 389.29,-38.45 402.41,-54.5 494.54,-167.17 432.32,-251.03 364.41,-379.75 358.88,-390.23 351.73,-401.03 345,-410.38"/>
<polygon fill="black" stroke="black" points="342.27,-408.18 339.13,-418.3 347.9,-412.35 342.27,-408.18"/>
<text text-anchor="start" x="411.41" y="-316.62" font-family="Courier New" font-weight="bold" font-size="10.00" fill="blue">Z_EPSILON(,)</text>
</g>
<!-- status -->
<g id="node5" class="node">
<title>status</title>
<polygon fill="none" stroke="black" points="369.41,-398.25 369.41,-477.25 889.41,-477.25 889.41,-398.25 369.41,-398.25"/>
<polygon fill="none" stroke="black" points="380.41,-451.5 380.41,-470.25 878.41,-470.25 878.41,-451.5 380.41,-451.5"/>
<text text-anchor="start" x="584.41" y="-458.75" font-family="Courier New" font-weight="bold" font-size="10.00">S19_TOKENPICK_W</text>
<polygon fill="none" stroke="black" points="380.41,-405.25 380.41,-449.5 878.41,-449.5 878.41,-405.25 380.41,-405.25"/>
<text text-anchor="start" x="383.41" y="-437" font-family="Courier New" font-size="10.00" fill="green">VIEW::IDV_RACEPAN @pos(x:39, y:21, w:31, h:34)</text>
<text text-anchor="start" x="383.41" y="-424.25" font-family="Courier New" font-size="10.00" fill="green">S19_TOKENPICK_W::M19_TOKENRECORDER(&#39;IDD_PLAYER_W&#39;,&#39;IDS_CHOOSETOKEN_W&#39;,&#39;&#39;,&#39;&#39;,&#39;&#39;,&#39;&#39;)</text>
<text text-anchor="start" x="383.41" y="-411.5" font-family="Courier New" font-size="10.00" fill="green">{state:&#39;token_available&#39;: Top:21 Left:39 Z:3</text>
<polygon fill="none" stroke="black" points="377.41,-402.25 377.41,-473.25 881.41,-473.25 881.41,-402.25 377.41,-402.25"/>
</g>
</g>
</svg>
