<?xml version="1.0" encoding="UTF-8" standalone="no"?>
<!DOCTYPE svg PUBLIC "-//W3C//DTD SVG 1.1//EN"
 "http://www.w3.org/Graphics/SVG/1.1/DTD/svg11.dtd">
<!-- Generated by graphviz version 10.0.1 (20240210.2158)
 -->
<!-- Title: Automaton Pages: 1 -->
<svg width="958pt" height="476pt"
 viewBox="0.00 0.00 958.00 476.25" xmlns="http://www.w3.org/2000/svg" xmlns:xlink="http://www.w3.org/1999/xlink">
<g id="graph0" class="graph" transform="scale(1 1) rotate(0) translate(4 472.25)">
<title>Automaton</title>
<polygon fill="white" stroke="none" points="-4,4 -4,-472.25 954,-472.25 954,4 -4,4"/>
<!-- filename -->
<g id="node1" class="node">
<title>filename</title>
<polygon fill="none" stroke="black" points="0,-401.5 0,-455 226,-455 226,-401.5 0,-401.5"/>
<polygon fill="none" stroke="black" points="11,-429.25 11,-448 215,-448 215,-429.25 11,-429.25"/>
<text text-anchor="start" x="14" y="-436.5" font-family="Courier New" font-weight="bold" font-size="10.00">S19_SPINNER_BOTTOM_PICK::M19_PICK</text>
<polygon fill="none" stroke="black" points="11,-408.5 11,-427.25 215,-427.25 215,-408.5 11,-408.5"/>
<text text-anchor="start" x="68" y="-414.75" font-family="Courier New" font-size="10.00" fill="brown">start state = 0</text>
<polygon fill="none" stroke="black" points="8,-405.5 8,-451 218,-451 218,-405.5 8,-405.5"/>
</g>
<!-- 0 -->
<g id="node2" class="node">
<title>0</title>
<polyline fill="none" stroke="darkred" points="263.88,-417 278.12,-417"/>
<text text-anchor="start" x="266.88" y="-424.2" font-family="Courier New" font-weight="bold" font-size="14.00">0</text>
<path fill="none" stroke="darkred" d="M267.62,-414C267.62,-414 274.38,-414 274.38,-414 277.75,-414 281.12,-417.38 281.12,-420.75 281.12,-420.75 281.12,-435.75 281.12,-435.75 281.12,-439.12 277.75,-442.5 274.38,-442.5 274.38,-442.5 267.62,-442.5 267.62,-442.5 264.25,-442.5 260.88,-439.12 260.88,-435.75 260.88,-435.75 260.88,-420.75 260.88,-420.75 260.88,-417.38 264.25,-414 267.62,-414"/>
</g>
<!-- setup -->
<g id="node3" class="node">
<title>setup</title>
<polyline fill="none" stroke="darkred" points="169.38,-277.25 216.62,-277.25"/>
<text text-anchor="start" x="172.38" y="-284.45" font-family="Courier New" font-weight="bold" font-size="14.00">setup</text>
<path fill="none" stroke="darkred" d="M175.88,-274.25C175.88,-274.25 210.12,-274.25 210.12,-274.25 214.88,-274.25 219.62,-279 219.62,-283.75 219.62,-283.75 219.62,-293.25 219.62,-293.25 219.62,-298 214.88,-302.75 210.12,-302.75 210.12,-302.75 175.88,-302.75 175.88,-302.75 171.12,-302.75 166.38,-298 166.38,-293.25 166.38,-293.25 166.38,-283.75 166.38,-283.75 166.38,-279 171.12,-274.25 175.88,-274.25"/>
</g>
<!-- 0&#45;&gt;setup -->
<g id="edge1" class="edge">
<title>0&#45;&gt;setup</title>
<path fill="none" stroke="black" d="M257.9,-410.27C251.56,-402.84 243.49,-394.43 235,-388.25 219.56,-377.02 206.59,-386.14 196,-370.25 185.86,-355.03 185.27,-334.37 187.13,-317.76"/>
<polygon fill="black" stroke="black" points="190.57,-318.42 188.59,-308.01 183.65,-317.38 190.57,-318.42"/>
<polygon fill="none" stroke="black" points="199,-348.5 199,-367.25 331,-367.25 331,-348.5 199,-348.5"/>
<text text-anchor="start" x="214" y="-355.75" font-family="Courier New" font-weight="bold" font-size="10.00" fill="blue">MOV(WSPRITE,WIP1)</text>
<polygon fill="none" stroke="black" points="199,-327.75 199,-346.5 331,-346.5 331,-327.75 199,-327.75"/>
<text text-anchor="start" x="202" y="-334" font-family="Courier New" font-size="10.00" fill="blue"> &#160;&#160;&#160;ASSIGN(WTEMP1,0);</text>
<polygon fill="none" stroke="black" points="196,-324.75 196,-370.25 334,-370.25 334,-324.75 196,-324.75"/>
</g>
<!-- randomGenned -->
<g id="node5" class="node">
<title>randomGenned</title>
<polyline fill="none" stroke="darkred" points="131.5,-184 236.5,-184"/>
<text text-anchor="start" x="134.5" y="-191.2" font-family="Courier New" font-weight="bold" font-size="14.00">randomGenned</text>
<path fill="none" stroke="darkred" d="M138,-181C138,-181 230,-181 230,-181 234.75,-181 239.5,-185.75 239.5,-190.5 239.5,-190.5 239.5,-200 239.5,-200 239.5,-204.75 234.75,-209.5 230,-209.5 230,-209.5 138,-209.5 138,-209.5 133.25,-209.5 128.5,-204.75 128.5,-200 128.5,-200 128.5,-190.5 128.5,-190.5 128.5,-185.75 133.25,-181 138,-181"/>
</g>
<!-- setup&#45;&gt;randomGenned -->
<g id="edge4" class="edge">
<title>setup&#45;&gt;randomGenned</title>
<path fill="none" stroke="black" d="M191.31,-270.34C190.04,-257.46 188.27,-239.56 186.79,-224.57"/>
<polygon fill="black" stroke="black" points="190.3,-224.45 185.83,-214.84 183.33,-225.14 190.3,-224.45"/>
<text text-anchor="start" x="194" y="-239.75" font-family="Courier New" font-weight="bold" font-size="10.00" fill="blue">RAND(1,8)</text>
</g>
<!-- frameMapped -->
<g id="node4" class="node">
<title>frameMapped</title>
<polyline fill="none" stroke="darkred" stroke-width="3" points="216.12,-10.5 313.88,-10.5"/>
<text text-anchor="start" x="219.62" y="-18.2" font-family="Courier New" font-weight="bold" font-size="14.00">frameMapped</text>
<path fill="none" stroke="darkred" stroke-width="3" d="M222.29,-5.5C222.29,-5.5 307.71,-5.5 307.71,-5.5 313.29,-5.5 318.88,-11.08 318.88,-16.67 318.88,-16.67 318.88,-27.83 318.88,-27.83 318.88,-33.42 313.29,-39 307.71,-39 307.71,-39 222.29,-39 222.29,-39 216.71,-39 211.12,-33.42 211.12,-27.83 211.12,-27.83 211.12,-16.67 211.12,-16.67 211.12,-11.08 216.71,-5.5 222.29,-5.5"/>
</g>
<!-- frameMapped&#45;&gt;0 -->
<g id="edge2" class="edge">
<title>frameMapped&#45;&gt;0</title>
<path fill="none" stroke="black" d="M317.09,-44.47C323.84,-49.4 329.84,-55.35 334,-62.5 402.77,-180.73 398.54,-249.66 334,-370.25 327.19,-382.97 317.97,-378.89 307,-388.25 302.18,-392.36 297.36,-397.08 292.87,-401.78"/>
<polygon fill="black" stroke="black" points="290.46,-399.24 286.27,-408.97 295.61,-403.97 290.46,-399.24"/>
<text text-anchor="start" x="387" y="-239.75" font-family="Courier New" font-weight="bold" font-size="10.00" fill="orange">WAIT(0,SIG_SPIN)</text>
</g>
<!-- randomGenned&#45;&gt;frameMapped -->
<g id="edge3" class="edge">
<title>randomGenned&#45;&gt;frameMapped</title>
<path fill="none" stroke="black" d="M178.7,-177.31C171.43,-150.62 161.65,-98.16 184,-62.5 186.57,-58.4 189.7,-54.72 193.22,-51.42"/>
<polygon fill="black" stroke="black" points="195.23,-54.29 200.87,-45.32 190.87,-48.82 195.23,-54.29"/>
<polygon fill="none" stroke="black" points="187,-137.25 187,-156 331,-156 331,-137.25 187,-137.25"/>
<text text-anchor="start" x="208" y="-144.5" font-family="Courier New" font-weight="bold" font-size="10.00" fill="blue">MOV(WTEMP1,WRAND)</text>
<polygon fill="none" stroke="black" points="187,-65.5 187,-135.25 331,-135.25 331,-65.5 187,-65.5"/>
<text text-anchor="start" x="190" y="-122.75" font-family="Courier New" font-size="10.00" fill="blue"> &#160;&#160;&#160;MAPi(WTEMP1,WIP3);</text>
<text text-anchor="start" x="190" y="-110" font-family="Courier New" font-size="10.00" fill="blue"> &#160;&#160;&#160;MOV(BFRAME,WTEMP1);</text>
<text text-anchor="start" x="190" y="-97.25" font-family="Courier New" font-size="10.00" fill="blue"> &#160;&#160;&#160;SHOW(WSPRITE);</text>
<text text-anchor="start" x="190" y="-84.5" font-family="Courier New" font-size="10.00" fill="blue"> &#160;&#160;&#160;MOV(WPARM,WTEMP1);</text>
<text text-anchor="start" x="190" y="-71.75" font-family="Courier New" font-size="10.00" fill="blue"> &#160;&#160;</text>
<polygon fill="none" stroke="black" points="184,-62.5 184,-159 334,-159 334,-62.5 184,-62.5"/>
</g>
<!-- status -->
<g id="node6" class="node">
<title>status</title>
<polygon fill="none" stroke="black" points="316,-388.75 316,-467.75 950,-467.75 950,-388.75 316,-388.75"/>
<polygon fill="none" stroke="black" points="327,-442 327,-460.75 939,-460.75 939,-442 327,-442"/>
<text text-anchor="start" x="564" y="-449.25" font-family="Courier New" font-weight="bold" font-size="10.00">S19_SPINNER_BOTTOM_PICK</text>
<polygon fill="none" stroke="black" points="327,-395.75 327,-440 939,-440 939,-395.75 327,-395.75"/>
<text text-anchor="start" x="330" y="-427.5" font-family="Courier New" font-size="10.00" fill="green">VIEW::IDV_RACEPAN @pos(x:435, y:0, w:30, h:117)</text>
<text text-anchor="start" x="330" y="-414.75" font-family="Courier New" font-size="10.00" fill="green">S19_SPINNER_BOTTOM_PICK::M19_PICK(&#39;IDS_BOTSPIN&#39;,&#39;8&#39;,&#39;S19_BOTSPIN_MAP&#39;,&#39;&#39;,&#39;&#39;,&#39;&#39;)</text>
<text text-anchor="start" x="330" y="-402" font-family="Courier New" font-size="10.00" fill="green">{state:&#39;frameMapped&#39;: wParm:11 wSprite:IDS_BOTSPIN bFrame:11 wRand:4 Seed:28925691 Top:0 Left:435 Z:1</text>
<polygon fill="none" stroke="black" points="324,-392.75 324,-463.75 942,-463.75 942,-392.75 324,-392.75"/>
</g>
</g>
</svg>
