<?xml version="1.0" encoding="UTF-8" standalone="no"?>
<!DOCTYPE svg PUBLIC "-//W3C//DTD SVG 1.1//EN"
 "http://www.w3.org/Graphics/SVG/1.1/DTD/svg11.dtd">
<!-- Generated by graphviz version 10.0.1 (20240210.2158)
 -->
<!-- Title: Automaton Pages: 1 -->
<svg width="586pt" height="680pt"
 viewBox="0.00 0.00 586.00 680.25" xmlns="http://www.w3.org/2000/svg" xmlns:xlink="http://www.w3.org/1999/xlink">
<g id="graph0" class="graph" transform="scale(1 1) rotate(0) translate(4 676.25)">
<title>Automaton</title>
<polygon fill="white" stroke="none" points="-4,4 -4,-676.25 582,-676.25 582,4 -4,4"/>
<!-- filename -->
<g id="node1" class="node">
<title>filename</title>
<polygon fill="none" stroke="black" points="0,-605.5 0,-659 160,-659 160,-605.5 0,-605.5"/>
<polygon fill="none" stroke="black" points="11,-633.25 11,-652 149,-652 149,-633.25 11,-633.25"/>
<text text-anchor="start" x="14" y="-640.5" font-family="Courier New" font-weight="bold" font-size="10.00">S21_LEVSTOP::M_LEVSTOP</text>
<polygon fill="none" stroke="black" points="11,-612.5 11,-631.25 149,-631.25 149,-612.5 11,-612.5"/>
<text text-anchor="start" x="35" y="-618.75" font-family="Courier New" font-size="10.00" fill="brown">start state = 0</text>
<polygon fill="none" stroke="black" points="8,-609.5 8,-655 152,-655 152,-609.5 8,-609.5"/>
</g>
<!-- 0 -->
<g id="node2" class="node">
<title>0</title>
<polyline fill="none" stroke="darkred" points="197.88,-621 212.12,-621"/>
<text text-anchor="start" x="200.88" y="-628.2" font-family="Courier New" font-weight="bold" font-size="14.00">0</text>
<path fill="none" stroke="darkred" d="M201.62,-618C201.62,-618 208.38,-618 208.38,-618 211.75,-618 215.12,-621.38 215.12,-624.75 215.12,-624.75 215.12,-639.75 215.12,-639.75 215.12,-643.12 211.75,-646.5 208.38,-646.5 208.38,-646.5 201.62,-646.5 201.62,-646.5 198.25,-646.5 194.88,-643.12 194.88,-639.75 194.88,-639.75 194.88,-624.75 194.88,-624.75 194.88,-621.38 198.25,-618 201.62,-618"/>
</g>
<!-- 10 -->
<g id="node3" class="node">
<title>10</title>
<polyline fill="none" stroke="darkred" stroke-width="3" points="193.25,-501.5 216.75,-501.5"/>
<text text-anchor="start" x="196.75" y="-509.2" font-family="Courier New" font-weight="bold" font-size="14.00">10</text>
<path fill="none" stroke="darkred" stroke-width="3" d="M199.42,-496.5C199.42,-496.5 210.58,-496.5 210.58,-496.5 216.17,-496.5 221.75,-502.08 221.75,-507.67 221.75,-507.67 221.75,-518.83 221.75,-518.83 221.75,-524.42 216.17,-530 210.58,-530 210.58,-530 199.42,-530 199.42,-530 193.83,-530 188.25,-524.42 188.25,-518.83 188.25,-518.83 188.25,-507.67 188.25,-507.67 188.25,-502.08 193.83,-496.5 199.42,-496.5"/>
</g>
<!-- 0&#45;&gt;10 -->
<g id="edge1" class="edge">
<title>0&#45;&gt;10</title>
<path fill="none" stroke="black" d="M205,-614.24C205,-596.59 205,-568.57 205,-546.67"/>
<polygon fill="black" stroke="black" points="208.5,-546.76 205,-536.76 201.5,-546.76 208.5,-546.76"/>
<text text-anchor="start" x="209" y="-561.75" font-family="Courier New" font-weight="bold" font-size="10.00" fill="blue">Z_EPSILON(,)</text>
</g>
<!-- 30 -->
<g id="node4" class="node">
<title>30</title>
<polyline fill="none" stroke="darkred" points="80.75,-380 103.25,-380"/>
<text text-anchor="start" x="83.75" y="-387.2" font-family="Courier New" font-weight="bold" font-size="14.00">30</text>
<path fill="none" stroke="darkred" d="M87.25,-377C87.25,-377 96.75,-377 96.75,-377 101.5,-377 106.25,-381.75 106.25,-386.5 106.25,-386.5 106.25,-396 106.25,-396 106.25,-400.75 101.5,-405.5 96.75,-405.5 96.75,-405.5 87.25,-405.5 87.25,-405.5 82.5,-405.5 77.75,-400.75 77.75,-396 77.75,-396 77.75,-386.5 77.75,-386.5 77.75,-381.75 82.5,-377 87.25,-377"/>
</g>
<!-- 10&#45;&gt;30 -->
<g id="edge2" class="edge">
<title>10&#45;&gt;30</title>
<path fill="none" stroke="black" d="M178.22,-511.72C150.51,-509.56 108.46,-501.44 88,-473 77.21,-458 78.57,-437.08 82.45,-420.29"/>
<polygon fill="black" stroke="black" points="85.75,-421.48 85.01,-410.91 79,-419.63 85.75,-421.48"/>
<polygon fill="none" stroke="black" points="91,-451.25 91,-470 307,-470 307,-451.25 91,-451.25"/>
<text text-anchor="start" x="154" y="-458.5" font-family="Courier New" font-weight="bold" font-size="10.00" fill="orange">DROP(IDD_ROCK,)</text>
<polygon fill="none" stroke="black" points="91,-430.5 91,-449.25 307,-449.25 307,-430.5 91,-430.5"/>
<text text-anchor="start" x="94" y="-436.75" font-family="Courier New" font-size="10.00" fill="blue">ADDI(LWISDOM,1); SIGNALi(0,SID_ID);</text>
<polygon fill="none" stroke="black" points="88,-427.5 88,-473 310,-473 310,-427.5 88,-427.5"/>
</g>
<!-- 40 -->
<g id="node5" class="node">
<title>40</title>
<polyline fill="none" stroke="darkred" points="131.75,-286.75 154.25,-286.75"/>
<text text-anchor="start" x="134.75" y="-293.95" font-family="Courier New" font-weight="bold" font-size="14.00">40</text>
<path fill="none" stroke="darkred" d="M138.25,-283.75C138.25,-283.75 147.75,-283.75 147.75,-283.75 152.5,-283.75 157.25,-288.5 157.25,-293.25 157.25,-293.25 157.25,-302.75 157.25,-302.75 157.25,-307.5 152.5,-312.25 147.75,-312.25 147.75,-312.25 138.25,-312.25 138.25,-312.25 133.5,-312.25 128.75,-307.5 128.75,-302.75 128.75,-302.75 128.75,-293.25 128.75,-293.25 128.75,-288.5 133.5,-283.75 138.25,-283.75"/>
</g>
<!-- 30&#45;&gt;40 -->
<g id="edge3" class="edge">
<title>30&#45;&gt;40</title>
<path fill="none" stroke="black" d="M101.59,-373.09C109,-359.83 119.39,-341.24 127.91,-326"/>
<polygon fill="black" stroke="black" points="130.89,-327.84 132.71,-317.41 124.78,-324.43 130.89,-327.84"/>
<text text-anchor="start" x="127" y="-342.5" font-family="Courier New" font-weight="bold" font-size="10.00" fill="blue">SHOW(WOBJECT,)</text>
</g>
<!-- 50 -->
<g id="node6" class="node">
<title>50</title>
<polyline fill="none" stroke="darkred" points="160.75,-193.5 183.25,-193.5"/>
<text text-anchor="start" x="163.75" y="-200.7" font-family="Courier New" font-weight="bold" font-size="14.00">50</text>
<path fill="none" stroke="darkred" d="M167.25,-190.5C167.25,-190.5 176.75,-190.5 176.75,-190.5 181.5,-190.5 186.25,-195.25 186.25,-200 186.25,-200 186.25,-209.5 186.25,-209.5 186.25,-214.25 181.5,-219 176.75,-219 176.75,-219 167.25,-219 167.25,-219 162.5,-219 157.75,-214.25 157.75,-209.5 157.75,-209.5 157.75,-200 157.75,-200 157.75,-195.25 162.5,-190.5 167.25,-190.5"/>
</g>
<!-- 40&#45;&gt;50 -->
<g id="edge4" class="edge">
<title>40&#45;&gt;50</title>
<path fill="none" stroke="black" d="M146.07,-279.85C148.29,-268.63 151.67,-253.76 156,-241 156.87,-238.42 157.87,-235.78 158.93,-233.15"/>
<polygon fill="black" stroke="black" points="162.1,-234.64 162.89,-224.07 155.69,-231.85 162.1,-234.64"/>
<text text-anchor="start" x="160" y="-249.25" font-family="Courier New" font-weight="bold" font-size="10.00" fill="blue">PLAYWAVE(0,SOUND_CLICK)</text>
</g>
<!-- 60 -->
<g id="node7" class="node">
<title>60</title>
<polyline fill="none" stroke="darkred" points="217.75,-100.25 240.25,-100.25"/>
<text text-anchor="start" x="220.75" y="-107.45" font-family="Courier New" font-weight="bold" font-size="14.00">60</text>
<path fill="none" stroke="darkred" d="M224.25,-97.25C224.25,-97.25 233.75,-97.25 233.75,-97.25 238.5,-97.25 243.25,-102 243.25,-106.75 243.25,-106.75 243.25,-116.25 243.25,-116.25 243.25,-121 238.5,-125.75 233.75,-125.75 233.75,-125.75 224.25,-125.75 224.25,-125.75 219.5,-125.75 214.75,-121 214.75,-116.25 214.75,-116.25 214.75,-106.75 214.75,-106.75 214.75,-102 219.5,-97.25 224.25,-97.25"/>
</g>
<!-- 50&#45;&gt;60 -->
<g id="edge5" class="edge">
<title>50&#45;&gt;60</title>
<path fill="none" stroke="black" d="M182.72,-186.59C191.08,-173.2 202.84,-154.38 212.41,-139.06"/>
<polygon fill="black" stroke="black" points="215.2,-141.21 217.52,-130.87 209.26,-137.5 215.2,-141.21"/>
<text text-anchor="start" x="209" y="-156" font-family="Courier New" font-weight="bold" font-size="10.00" fill="blue">SIGNAL(WIP2,)</text>
</g>
<!-- 70 -->
<g id="node8" class="node">
<title>70</title>
<polyline fill="none" stroke="darkred" points="267.75,-7 290.25,-7"/>
<text text-anchor="start" x="270.75" y="-14.2" font-family="Courier New" font-weight="bold" font-size="14.00">70</text>
<path fill="none" stroke="darkred" d="M274.25,-4C274.25,-4 283.75,-4 283.75,-4 288.5,-4 293.25,-8.75 293.25,-13.5 293.25,-13.5 293.25,-23 293.25,-23 293.25,-27.75 288.5,-32.5 283.75,-32.5 283.75,-32.5 274.25,-32.5 274.25,-32.5 269.5,-32.5 264.75,-27.75 264.75,-23 264.75,-23 264.75,-13.5 264.75,-13.5 264.75,-8.75 269.5,-4 274.25,-4"/>
</g>
<!-- 60&#45;&gt;70 -->
<g id="edge6" class="edge">
<title>60&#45;&gt;70</title>
<path fill="none" stroke="black" d="M232.87,-93.59C235.94,-82.08 240.91,-66.77 248,-54.5 249.84,-51.33 251.98,-48.18 254.28,-45.14"/>
<polygon fill="black" stroke="black" points="256.8,-47.59 260.47,-37.65 251.4,-43.13 256.8,-47.59"/>
<text text-anchor="start" x="252" y="-62.75" font-family="Courier New" font-weight="bold" font-size="10.00" fill="orange">GRAB(0,0)</text>
</g>
<!-- 70&#45;&gt;10 -->
<g id="edge7" class="edge">
<title>70&#45;&gt;10</title>
<path fill="none" stroke="black" d="M296.9,-36.3C301.75,-41.72 306.59,-48 310,-54.5 321.92,-77.22 324,-84.85 324,-110.5 324,-392.25 324,-392.25 324,-392.25 324,-428.67 333.25,-444.96 310,-473 293.42,-492.99 265.59,-502.81 242.75,-507.62"/>
<polygon fill="black" stroke="black" points="242.37,-504.13 233.17,-509.39 243.63,-511.02 242.37,-504.13"/>
<text text-anchor="start" x="328" y="-249.25" font-family="Courier New" font-weight="bold" font-size="10.00" fill="blue">SHOW(0,0)</text>
</g>
<!-- status -->
<g id="node9" class="node">
<title>status</title>
<polygon fill="none" stroke="black" points="250,-592.75 250,-671.75 578,-671.75 578,-592.75 250,-592.75"/>
<polygon fill="none" stroke="black" points="261,-646 261,-664.75 567,-664.75 567,-646 261,-646"/>
<text text-anchor="start" x="381" y="-653.25" font-family="Courier New" font-weight="bold" font-size="10.00">S21_LEVSTOP</text>
<polygon fill="none" stroke="black" points="261,-599.75 261,-644 567,-644 567,-599.75 261,-599.75"/>
<text text-anchor="start" x="264" y="-631.5" font-family="Courier New" font-size="10.00" fill="green">VIEW::IDV_LEVERCU @pos(x:295, y:210, w:50, h:65)</text>
<text text-anchor="start" x="264" y="-618.75" font-family="Courier New" font-size="10.00" fill="green">S21_LEVSTOP::M_LEVSTOP(&#39;&#39;,&#39;S21_LEVER&#39;,&#39;&#39;,&#39;&#39;,&#39;&#39;,&#39;&#39;)</text>
<text text-anchor="start" x="264" y="-606" font-family="Courier New" font-size="10.00" fill="green">{state:&#39;10&#39;: Top:210 Left:295</text>
<polygon fill="none" stroke="black" points="258,-596.75 258,-667.75 570,-667.75 570,-596.75 258,-596.75"/>
</g>
</g>
</svg>
