<?xml version="1.0" encoding="UTF-8" standalone="no"?>
<!DOCTYPE svg PUBLIC "-//W3C//DTD SVG 1.1//EN"
 "http://www.w3.org/Graphics/SVG/1.1/DTD/svg11.dtd">
<!-- Generated by graphviz version 10.0.1 (20240210.2158)
 -->
<!-- Title: Automaton Pages: 1 -->
<svg width="652pt" height="283pt"
 viewBox="0.00 0.00 652.00 282.50" xmlns="http://www.w3.org/2000/svg" xmlns:xlink="http://www.w3.org/1999/xlink">
<g id="graph0" class="graph" transform="scale(1 1) rotate(0) translate(4 278.5)">
<title>Automaton</title>
<polygon fill="white" stroke="none" points="-4,4 -4,-278.5 648,-278.5 648,4 -4,4"/>
<!-- filename -->
<g id="node1" class="node">
<title>filename</title>
<polygon fill="none" stroke="black" points="0,-207.75 0,-261.25 154,-261.25 154,-207.75 0,-207.75"/>
<polygon fill="none" stroke="black" points="11,-235.5 11,-254.25 143,-254.25 143,-235.5 11,-235.5"/>
<text text-anchor="start" x="14" y="-242.75" font-family="Courier New" font-weight="bold" font-size="10.00">S21_BUGBAIT::M_ANIBIN</text>
<polygon fill="none" stroke="black" points="11,-214.75 11,-233.5 143,-233.5 143,-214.75 11,-214.75"/>
<text text-anchor="start" x="32" y="-221" font-family="Courier New" font-size="10.00" fill="brown">start state = 0</text>
<polygon fill="none" stroke="black" points="8,-211.75 8,-257.25 146,-257.25 146,-211.75 8,-211.75"/>
</g>
<!-- 0 -->
<g id="node2" class="node">
<title>0</title>
<polyline fill="none" stroke="darkred" points="191.88,-223.25 206.12,-223.25"/>
<text text-anchor="start" x="194.88" y="-230.45" font-family="Courier New" font-weight="bold" font-size="14.00">0</text>
<path fill="none" stroke="darkred" d="M195.62,-220.25C195.62,-220.25 202.38,-220.25 202.38,-220.25 205.75,-220.25 209.12,-223.62 209.12,-227 209.12,-227 209.12,-242 209.12,-242 209.12,-245.38 205.75,-248.75 202.38,-248.75 202.38,-248.75 195.62,-248.75 195.62,-248.75 192.25,-248.75 188.88,-245.38 188.88,-242 188.88,-242 188.88,-227 188.88,-227 188.88,-223.62 192.25,-220.25 195.62,-220.25"/>
</g>
<!-- 1 -->
<g id="node3" class="node">
<title>1</title>
<polyline fill="none" stroke="darkred" points="191.88,-108.25 206.12,-108.25"/>
<text text-anchor="start" x="194.88" y="-115.45" font-family="Courier New" font-weight="bold" font-size="14.00">1</text>
<path fill="none" stroke="darkred" d="M195.62,-105.25C195.62,-105.25 202.38,-105.25 202.38,-105.25 205.75,-105.25 209.12,-108.62 209.12,-112 209.12,-112 209.12,-127 209.12,-127 209.12,-130.38 205.75,-133.75 202.38,-133.75 202.38,-133.75 195.62,-133.75 195.62,-133.75 192.25,-133.75 188.88,-130.38 188.88,-127 188.88,-127 188.88,-112 188.88,-112 188.88,-108.62 192.25,-105.25 195.62,-105.25"/>
</g>
<!-- 0&#45;&gt;1 -->
<g id="edge1" class="edge">
<title>0&#45;&gt;1</title>
<path fill="none" stroke="black" d="M199,-216.34C199,-198.4 199,-169.95 199,-148.7"/>
<polygon fill="black" stroke="black" points="202.5,-148.97 199,-138.97 195.5,-148.97 202.5,-148.97"/>
<text text-anchor="start" x="203" y="-164" font-family="Courier New" font-weight="bold" font-size="10.00" fill="blue">MOV(WSPRITE,WIP1)</text>
</g>
<!-- 2 -->
<g id="node4" class="node">
<title>2</title>
<polyline fill="none" stroke="darkred" stroke-width="3" points="191.38,-10.5 206.62,-10.5"/>
<text text-anchor="start" x="194.88" y="-18.2" font-family="Courier New" font-weight="bold" font-size="14.00">2</text>
<path fill="none" stroke="darkred" stroke-width="3" d="M194.79,-5.5C194.79,-5.5 203.21,-5.5 203.21,-5.5 207.42,-5.5 211.62,-9.71 211.62,-13.92 211.62,-13.92 211.62,-30.58 211.62,-30.58 211.62,-34.79 207.42,-39 203.21,-39 203.21,-39 194.79,-39 194.79,-39 190.58,-39 186.38,-34.79 186.38,-30.58 186.38,-30.58 186.38,-13.92 186.38,-13.92 186.38,-9.71 190.58,-5.5 194.79,-5.5"/>
</g>
<!-- 1&#45;&gt;2 -->
<g id="edge2" class="edge">
<title>1&#45;&gt;2</title>
<path fill="none" stroke="black" d="M199,-101.47C199,-88.76 199,-71.02 199,-55.64"/>
<polygon fill="black" stroke="black" points="202.5,-55.98 199,-45.98 195.5,-55.98 202.5,-55.98"/>
<text text-anchor="start" x="203" y="-70.75" font-family="Courier New" font-weight="bold" font-size="10.00" fill="blue">ASHOW(WSPRITE,V_LOOP)</text>
</g>
<!-- 2&#45;&gt;2 -->
<g id="edge3" class="edge">
<title>2&#45;&gt;2</title>
<path fill="none" stroke="black" d="M225.79,-31.72C235.78,-32.03 244,-28.87 244,-22.25 244,-18.42 241.25,-15.75 237.01,-14.24"/>
<polygon fill="black" stroke="black" points="237.66,-10.79 227.3,-12.97 236.76,-17.73 237.66,-10.79"/>
<text text-anchor="start" x="248" y="-20.12" font-family="Courier New" font-weight="bold" font-size="10.00" fill="orange">GRAB(WIP2,)</text>
</g>
<!-- status -->
<g id="node5" class="node">
<title>status</title>
<polygon fill="none" stroke="black" points="244,-195 244,-274 644,-274 644,-195 244,-195"/>
<polygon fill="none" stroke="black" points="255,-248.25 255,-267 633,-267 633,-248.25 255,-248.25"/>
<text text-anchor="start" x="411" y="-255.5" font-family="Courier New" font-weight="bold" font-size="10.00">S21_BUGBAIT</text>
<polygon fill="none" stroke="black" points="255,-202 255,-246.25 633,-246.25 633,-202 255,-202"/>
<text text-anchor="start" x="258" y="-233.75" font-family="Courier New" font-size="10.00" fill="green">VIEW::IDV_N2D2 @pos(x:577, y:16, h:168, w:108)</text>
<text text-anchor="start" x="258" y="-221" font-family="Courier New" font-size="10.00" fill="green">S21_BUGBAIT::M_ANIBIN(&#39;IDS_BUGTREE&#39;,&#39;IDD_BAIT1&#39;,&#39;60&#39;,&#39;&#39;,&#39;&#39;,&#39;&#39;)</text>
<text text-anchor="start" x="258" y="-208.25" font-family="Courier New" font-size="10.00" fill="green">{state:&#39;2&#39;: wSprite:IDS_BUGTREE Top:16 Left:577 Z:0</text>
<polygon fill="none" stroke="black" points="252,-199 252,-270 636,-270 636,-199 252,-199"/>
</g>
</g>
</svg>
