<?xml version="1.0" encoding="UTF-8" standalone="no"?>
<!DOCTYPE svg PUBLIC "-//W3C//DTD SVG 1.1//EN"
 "http://www.w3.org/Graphics/SVG/1.1/DTD/svg11.dtd">
<!-- Generated by graphviz version 10.0.1 (20240210.2158)
 -->
<!-- Title: Automaton Pages: 1 -->
<svg width="889pt" height="1646pt"
 viewBox="0.00 0.00 888.75 1645.50" xmlns="http://www.w3.org/2000/svg" xmlns:xlink="http://www.w3.org/1999/xlink">
<g id="graph0" class="graph" transform="scale(1 1) rotate(0) translate(4 1641.5)">
<title>Automaton</title>
<polygon fill="white" stroke="none" points="-4,4 -4,-1641.5 884.75,-1641.5 884.75,4 -4,4"/>
<!-- filename -->
<g id="node1" class="node">
<title>filename</title>
<polygon fill="none" stroke="black" points="56.75,-1570.75 56.75,-1624.25 240.75,-1624.25 240.75,-1570.75 56.75,-1570.75"/>
<polygon fill="none" stroke="black" points="67.75,-1598.5 67.75,-1617.25 229.75,-1617.25 229.75,-1598.5 67.75,-1598.5"/>
<text text-anchor="start" x="70.75" y="-1605.75" font-family="Courier New" font-weight="bold" font-size="10.00">S21_HIDDEN_01::M_DIGDIRECT</text>
<polygon fill="none" stroke="black" points="67.75,-1577.75 67.75,-1596.5 229.75,-1596.5 229.75,-1577.75 67.75,-1577.75"/>
<text text-anchor="start" x="103.75" y="-1584" font-family="Courier New" font-size="10.00" fill="brown">start state = 0</text>
<polygon fill="none" stroke="black" points="64.75,-1574.75 64.75,-1620.25 232.75,-1620.25 232.75,-1574.75 64.75,-1574.75"/>
</g>
<!-- 0 -->
<g id="node2" class="node">
<title>0</title>
<polyline fill="none" stroke="darkred" points="278.62,-1586.25 292.88,-1586.25"/>
<text text-anchor="start" x="281.62" y="-1593.45" font-family="Courier New" font-weight="bold" font-size="14.00">0</text>
<path fill="none" stroke="darkred" d="M282.38,-1583.25C282.38,-1583.25 289.12,-1583.25 289.12,-1583.25 292.5,-1583.25 295.88,-1586.62 295.88,-1590 295.88,-1590 295.88,-1605 295.88,-1605 295.88,-1608.38 292.5,-1611.75 289.12,-1611.75 289.12,-1611.75 282.38,-1611.75 282.38,-1611.75 279,-1611.75 275.62,-1608.38 275.62,-1605 275.62,-1605 275.62,-1590 275.62,-1590 275.62,-1586.62 279,-1583.25 282.38,-1583.25"/>
</g>
<!-- determinedItem -->
<g id="node3" class="node">
<title>determinedItem</title>
<polyline fill="none" stroke="darkred" points="142,-1471.25 263.5,-1471.25"/>
<text text-anchor="start" x="145" y="-1478.45" font-family="Courier New" font-weight="bold" font-size="14.00">determinedItem</text>
<path fill="none" stroke="darkred" d="M148.5,-1468.25C148.5,-1468.25 257,-1468.25 257,-1468.25 261.75,-1468.25 266.5,-1473 266.5,-1477.75 266.5,-1477.75 266.5,-1487.25 266.5,-1487.25 266.5,-1492 261.75,-1496.75 257,-1496.75 257,-1496.75 148.5,-1496.75 148.5,-1496.75 143.75,-1496.75 139,-1492 139,-1487.25 139,-1487.25 139,-1477.75 139,-1477.75 139,-1473 143.75,-1468.25 148.5,-1468.25"/>
</g>
<!-- 0&#45;&gt;determinedItem -->
<g id="edge1" class="edge">
<title>0&#45;&gt;determinedItem</title>
<path fill="none" stroke="black" d="M270.75,-1579.39C264.44,-1572.43 256.92,-1564.41 249.75,-1557.5 240.9,-1548.97 236.17,-1549.3 228.75,-1539.5 222.33,-1531.03 216.98,-1520.71 212.84,-1511.26"/>
<polygon fill="black" stroke="black" points="216.13,-1510.05 209.11,-1502.11 209.64,-1512.69 216.13,-1510.05"/>
<text text-anchor="start" x="232.75" y="-1527" font-family="Courier New" font-weight="bold" font-size="10.00" fill="blue">MOV(WOBJECT,WIP1)</text>
</g>
<!-- coverActive -->
<g id="node5" class="node">
<title>coverActive</title>
<polyline fill="none" stroke="darkred" points="127.38,-1353.25 224.12,-1353.25"/>
<text text-anchor="start" x="130.38" y="-1360.45" font-family="Courier New" font-weight="bold" font-size="14.00">coverActive</text>
<path fill="none" stroke="darkred" d="M133.88,-1350.25C133.88,-1350.25 217.62,-1350.25 217.62,-1350.25 222.38,-1350.25 227.12,-1355 227.12,-1359.75 227.12,-1359.75 227.12,-1369.25 227.12,-1369.25 227.12,-1374 222.38,-1378.75 217.62,-1378.75 217.62,-1378.75 133.88,-1378.75 133.88,-1378.75 129.12,-1378.75 124.38,-1374 124.38,-1369.25 124.38,-1369.25 124.38,-1359.75 124.38,-1359.75 124.38,-1355 129.12,-1350.25 133.88,-1350.25"/>
</g>
<!-- determinedItem&#45;&gt;coverActive -->
<g id="edge4" class="edge">
<title>determinedItem&#45;&gt;coverActive</title>
<path fill="none" stroke="black" d="M198.77,-1464.38C194.44,-1445.79 187.46,-1415.8 182.32,-1393.72"/>
<polygon fill="black" stroke="black" points="185.77,-1393.11 180.09,-1384.16 178.95,-1394.69 185.77,-1393.11"/>
<polygon fill="none" stroke="black" points="197.75,-1424.5 197.75,-1443.25 335.75,-1443.25 335.75,-1424.5 197.75,-1424.5"/>
<text text-anchor="start" x="215.75" y="-1431.75" font-family="Courier New" font-weight="bold" font-size="10.00" fill="blue">MOV(WSPRITE,WIP2)</text>
<polygon fill="none" stroke="black" points="197.75,-1403.75 197.75,-1422.5 335.75,-1422.5 335.75,-1403.75 197.75,-1403.75"/>
<text text-anchor="start" x="200.75" y="-1410" font-family="Courier New" font-size="10.00" fill="blue"> &#160;&#160;&#160;&#160;&#160;&#160;&#160;SHOW(WSPRITE);</text>
<polygon fill="none" stroke="black" points="194.75,-1400.75 194.75,-1446.25 338.75,-1446.25 338.75,-1400.75 194.75,-1400.75"/>
</g>
<!-- chestview -->
<g id="node4" class="node">
<title>chestview</title>
<polyline fill="none" stroke="darkred" points="210.62,-7 290.88,-7"/>
<text text-anchor="start" x="213.62" y="-14.2" font-family="Courier New" font-weight="bold" font-size="14.00">chestview</text>
<path fill="none" stroke="darkred" d="M217.12,-4C217.12,-4 284.38,-4 284.38,-4 289.12,-4 293.88,-8.75 293.88,-13.5 293.88,-13.5 293.88,-23 293.88,-23 293.88,-27.75 289.12,-32.5 284.38,-32.5 284.38,-32.5 217.12,-32.5 217.12,-32.5 212.38,-32.5 207.62,-27.75 207.62,-23 207.62,-23 207.62,-13.5 207.62,-13.5 207.62,-8.75 212.38,-4 217.12,-4"/>
</g>
<!-- chestview&#45;&gt;0 -->
<g id="edge2" class="edge">
<title>chestview&#45;&gt;0</title>
<path fill="none" stroke="black" d="M291.65,-36.41C320.03,-51.35 352.75,-76.05 352.75,-110.5 352.75,-1483.5 352.75,-1483.5 352.75,-1483.5 352.75,-1509.15 351.07,-1517 338.75,-1539.5 333.47,-1549.15 329.26,-1549.46 321.75,-1557.5 317.69,-1561.85 313.38,-1566.49 309.22,-1570.99"/>
<polygon fill="black" stroke="black" points="306.72,-1568.54 302.51,-1578.26 311.86,-1573.29 306.72,-1568.54"/>
<polygon fill="none" stroke="black" points="355.75,-838.62 355.75,-857.38 583.75,-857.38 583.75,-838.62 355.75,-838.62"/>
<text text-anchor="start" x="433.75" y="-845.88" font-family="Courier New" font-weight="bold" font-size="10.00" fill="blue">Z_EPSILON(,)</text>
<polygon fill="none" stroke="black" points="355.75,-779.62 355.75,-836.62 583.75,-836.62 583.75,-779.62 355.75,-779.62"/>
<text text-anchor="start" x="358.75" y="-824.12" font-family="Courier New" font-size="10.00" fill="blue"> &#160;&#160;MOV(WPARM,LVIEW);</text>
<text text-anchor="start" x="358.75" y="-811.38" font-family="Courier New" font-size="10.00" fill="blue"> &#160;&#160;SHOW(0);</text>
<text text-anchor="start" x="358.75" y="-798.62" font-family="Courier New" font-size="10.00" fill="blue"> &#160;&#160;LOADVIEW(IDV_CHESTVIEW);</text>
<text text-anchor="start" x="358.75" y="-785.88" font-family="Courier New" font-size="10.00" fill="blue"> &#160;&#160;SIGNALi(SIG_SHOW,S00_CHESTWAITER);</text>
<polygon fill="none" stroke="black" points="352.75,-776.62 352.75,-860.38 586.75,-860.38 586.75,-776.62 352.75,-776.62"/>
</g>
<!-- firstWhack -->
<g id="node6" class="node">
<title>firstWhack</title>
<polyline fill="none" stroke="darkred" stroke-width="3" points="59,-1255.5 148.5,-1255.5"/>
<text text-anchor="start" x="62.5" y="-1263.2" font-family="Courier New" font-weight="bold" font-size="14.00">firstWhack</text>
<path fill="none" stroke="darkred" stroke-width="3" d="M65.17,-1250.5C65.17,-1250.5 142.33,-1250.5 142.33,-1250.5 147.92,-1250.5 153.5,-1256.08 153.5,-1261.67 153.5,-1261.67 153.5,-1272.83 153.5,-1272.83 153.5,-1278.42 147.92,-1284 142.33,-1284 142.33,-1284 65.17,-1284 65.17,-1284 59.58,-1284 54,-1278.42 54,-1272.83 54,-1272.83 54,-1261.67 54,-1261.67 54,-1256.08 59.58,-1250.5 65.17,-1250.5"/>
</g>
<!-- coverActive&#45;&gt;firstWhack -->
<g id="edge3" class="edge">
<title>coverActive&#45;&gt;firstWhack</title>
<path fill="none" stroke="black" d="M162.88,-1346.47C152.8,-1333.14 138.53,-1314.27 126.54,-1298.4"/>
<polygon fill="black" stroke="black" points="129.52,-1296.54 120.7,-1290.67 123.94,-1300.76 129.52,-1296.54"/>
<text text-anchor="start" x="152.75" y="-1315.75" font-family="Courier New" font-weight="bold" font-size="10.00" fill="blue">Z_EPSILON(,)</text>
</g>
<!-- secondWhack -->
<g id="node8" class="node">
<title>secondWhack</title>
<polyline fill="none" stroke="darkred" points="43.38,-955.5 140.12,-955.5"/>
<text text-anchor="start" x="46.38" y="-962.7" font-family="Courier New" font-weight="bold" font-size="14.00">secondWhack</text>
<path fill="none" stroke="darkred" d="M49.88,-952.5C49.88,-952.5 133.62,-952.5 133.62,-952.5 138.38,-952.5 143.12,-957.25 143.12,-962 143.12,-962 143.12,-971.5 143.12,-971.5 143.12,-976.25 138.38,-981 133.62,-981 133.62,-981 49.88,-981 49.88,-981 45.12,-981 40.38,-976.25 40.38,-971.5 40.38,-971.5 40.38,-962 40.38,-962 40.38,-957.25 45.12,-952.5 49.88,-952.5"/>
</g>
<!-- firstWhack&#45;&gt;secondWhack -->
<g id="edge6" class="edge">
<title>firstWhack&#45;&gt;secondWhack</title>
<path fill="none" stroke="black" d="M100.66,-1245.1C99.92,-1239.25 99.2,-1232.89 98.75,-1227 92.29,-1143.17 91.53,-1043.69 91.59,-996"/>
<polygon fill="black" stroke="black" points="95.09,-996.29 91.62,-986.28 88.09,-996.27 95.09,-996.29"/>
<polygon fill="none" stroke="black" points="101.75,-1205.25 101.75,-1224 335.75,-1224 335.75,-1205.25 101.75,-1205.25"/>
<text text-anchor="start" x="185.75" y="-1212.5" font-family="Courier New" font-weight="bold" font-size="10.00" fill="orange">DRAG(WIP3,)</text>
<polygon fill="none" stroke="black" points="101.75,-1006 101.75,-1203.25 335.75,-1203.25 335.75,-1006 101.75,-1006"/>
<text text-anchor="start" x="104.75" y="-1190.75" font-family="Courier New" font-size="10.00" fill="blue"> &#160;&#160;&#160;&#160;&#160;&#160;&#160;if(WIP3 == ISA_TOOL_DIGGER){</text>
<text text-anchor="start" x="104.75" y="-1178" font-family="Courier New" font-size="10.00" fill="blue"> &#160;&#160;&#160;&#160;&#160;&#160;&#160;&#160;&#160;&#160;&#160;SHOW(0,IDS_SANDPILE1);</text>
<text text-anchor="start" x="104.75" y="-1165.25" font-family="Courier New" font-size="10.00" fill="blue"> &#160;&#160;&#160;&#160;&#160;&#160;&#160;&#160;&#160;&#160;&#160;ANIMATE();</text>
<text text-anchor="start" x="104.75" y="-1152.5" font-family="Courier New" font-size="10.00" fill="blue"> &#160;&#160;&#160;&#160;&#160;&#160;&#160;&#160;&#160;&#160;&#160;PLAYWAVE(SOUND_DIG);</text>
<text text-anchor="start" x="104.75" y="-1139.75" font-family="Courier New" font-size="10.00" fill="blue"> &#160;&#160;&#160;&#160;&#160;&#160;&#160;&#160;} &#160;&#160;</text>
<text text-anchor="start" x="104.75" y="-1127" font-family="Courier New" font-size="10.00" fill="blue"> &#160;&#160;&#160;&#160;&#160;&#160;&#160;&#160;if(WIP3 == ISA_TOOL_STRIKER){</text>
<text text-anchor="start" x="104.75" y="-1114.25" font-family="Courier New" font-size="10.00" fill="blue"> &#160;&#160;&#160;&#160;&#160;&#160;&#160;&#160;&#160;&#160;&#160;SHOW(0,IDS_SANDSTRIKE);</text>
<text text-anchor="start" x="104.75" y="-1101.5" font-family="Courier New" font-size="10.00" fill="blue"> &#160;&#160;&#160;&#160;&#160;&#160;&#160;&#160;&#160;&#160;&#160;ANIMATE();</text>
<text text-anchor="start" x="104.75" y="-1088.75" font-family="Courier New" font-size="10.00" fill="blue"> &#160;&#160;&#160;&#160;&#160;&#160;&#160;&#160;&#160;&#160;&#160;PLAYWAVE(SOUND_DIG);</text>
<text text-anchor="start" x="104.75" y="-1076" font-family="Courier New" font-size="10.00" fill="blue"> &#160;&#160;&#160;&#160;&#160;&#160;&#160;&#160;} &#160;&#160;</text>
<text text-anchor="start" x="104.75" y="-1063.25" font-family="Courier New" font-size="10.00" fill="blue"> &#160;&#160;&#160;&#160;&#160;&#160;&#160;&#160;&#160;if(WIP3 == ISA_TOOL_PRYER){</text>
<text text-anchor="start" x="104.75" y="-1050.5" font-family="Courier New" font-size="10.00" fill="blue"> &#160;&#160;&#160;&#160;&#160;&#160;&#160;&#160;&#160;&#160;&#160;SHOW(0,IDS_SANDWOBBLE);</text>
<text text-anchor="start" x="104.75" y="-1037.75" font-family="Courier New" font-size="10.00" fill="blue"> &#160;&#160;&#160;&#160;&#160;&#160;&#160;&#160;&#160;&#160;&#160;ANIMATE();</text>
<text text-anchor="start" x="104.75" y="-1025" font-family="Courier New" font-size="10.00" fill="blue"> &#160;&#160;&#160;&#160;&#160;&#160;&#160;&#160;&#160;&#160;&#160;PLAYWAVE(SOUND_THUMP);</text>
<text text-anchor="start" x="104.75" y="-1012.25" font-family="Courier New" font-size="10.00" fill="blue"> &#160;&#160;&#160;&#160;&#160;&#160;&#160;&#160;} &#160;&#160;</text>
<polygon fill="none" stroke="black" points="98.75,-1003 98.75,-1227 338.75,-1227 338.75,-1003 98.75,-1003"/>
</g>
<!-- displaychest -->
<g id="node7" class="node">
<title>displaychest</title>
<polyline fill="none" stroke="darkred" points="97.25,-100.25 202.25,-100.25"/>
<text text-anchor="start" x="100.25" y="-107.45" font-family="Courier New" font-weight="bold" font-size="14.00">displaychest</text>
<path fill="none" stroke="darkred" d="M103.75,-97.25C103.75,-97.25 195.75,-97.25 195.75,-97.25 200.5,-97.25 205.25,-102 205.25,-106.75 205.25,-106.75 205.25,-116.25 205.25,-116.25 205.25,-121 200.5,-125.75 195.75,-125.75 195.75,-125.75 103.75,-125.75 103.75,-125.75 99,-125.75 94.25,-121 94.25,-116.25 94.25,-116.25 94.25,-106.75 94.25,-106.75 94.25,-102 99,-97.25 103.75,-97.25"/>
</g>
<!-- displaychest&#45;&gt;chestview -->
<g id="edge5" class="edge">
<title>displaychest&#45;&gt;chestview</title>
<path fill="none" stroke="black" d="M168.75,-93.34C184.27,-79.32 206.39,-59.33 223.75,-43.64"/>
<polygon fill="black" stroke="black" points="225.64,-46.65 230.71,-37.35 220.95,-41.46 225.64,-46.65"/>
<text text-anchor="start" x="213.75" y="-62.75" font-family="Courier New" font-weight="bold" font-size="10.00" fill="orange">CLICK(,)</text>
</g>
<!-- thirdWhack -->
<g id="node11" class="node">
<title>thirdWhack</title>
<polyline fill="none" stroke="darkred" points="42.5,-659 131,-659"/>
<text text-anchor="start" x="45.5" y="-666.2" font-family="Courier New" font-weight="bold" font-size="14.00">thirdWhack</text>
<path fill="none" stroke="darkred" d="M49,-656C49,-656 124.5,-656 124.5,-656 129.25,-656 134,-660.75 134,-665.5 134,-665.5 134,-675 134,-675 134,-679.75 129.25,-684.5 124.5,-684.5 124.5,-684.5 49,-684.5 49,-684.5 44.25,-684.5 39.5,-679.75 39.5,-675 39.5,-675 39.5,-665.5 39.5,-665.5 39.5,-660.75 44.25,-656 49,-656"/>
</g>
<!-- secondWhack&#45;&gt;thirdWhack -->
<g id="edge9" class="edge">
<title>secondWhack&#45;&gt;thirdWhack</title>
<path fill="none" stroke="black" d="M91.22,-948.54C91.05,-942.8 90.88,-936.38 90.75,-930.5 88.91,-846.46 87.63,-747.08 87.07,-699.45"/>
<polygon fill="black" stroke="black" points="90.57,-699.71 86.95,-689.75 83.57,-699.79 90.57,-699.71"/>
<polygon fill="none" stroke="black" points="93.75,-908.75 93.75,-927.5 327.75,-927.5 327.75,-908.75 93.75,-908.75"/>
<text text-anchor="start" x="189.75" y="-916" font-family="Courier New" font-weight="bold" font-size="10.00" fill="orange">DRAG(,)</text>
<polygon fill="none" stroke="black" points="93.75,-709.5 93.75,-906.75 327.75,-906.75 327.75,-709.5 93.75,-709.5"/>
<text text-anchor="start" x="96.75" y="-894.25" font-family="Courier New" font-size="10.00" fill="blue"> &#160;&#160;&#160;&#160;&#160;&#160;&#160;if(WIP3 == ISA_TOOL_DIGGER){</text>
<text text-anchor="start" x="96.75" y="-881.5" font-family="Courier New" font-size="10.00" fill="blue"> &#160;&#160;&#160;&#160;&#160;&#160;&#160;&#160;&#160;&#160;&#160;SHOW(0,IDS_SANDPILE2);</text>
<text text-anchor="start" x="96.75" y="-868.75" font-family="Courier New" font-size="10.00" fill="blue"> &#160;&#160;&#160;&#160;&#160;&#160;&#160;&#160;&#160;&#160;&#160;ANIMATE();</text>
<text text-anchor="start" x="96.75" y="-856" font-family="Courier New" font-size="10.00" fill="blue"> &#160;&#160;&#160;&#160;&#160;&#160;&#160;&#160;&#160;&#160;&#160;PLAYWAVE(SOUND_DIG);</text>
<text text-anchor="start" x="96.75" y="-843.25" font-family="Courier New" font-size="10.00" fill="blue"> &#160;&#160;&#160;&#160;&#160;&#160;&#160;&#160;} &#160;&#160;</text>
<text text-anchor="start" x="96.75" y="-830.5" font-family="Courier New" font-size="10.00" fill="blue"> &#160;&#160;&#160;&#160;&#160;&#160;&#160;&#160;if(WIP3 == ISA_TOOL_STRIKER){</text>
<text text-anchor="start" x="96.75" y="-817.75" font-family="Courier New" font-size="10.00" fill="blue"> &#160;&#160;&#160;&#160;&#160;&#160;&#160;&#160;&#160;&#160;&#160;SHOW(0,IDS_SANDSTRIKE);</text>
<text text-anchor="start" x="96.75" y="-805" font-family="Courier New" font-size="10.00" fill="blue"> &#160;&#160;&#160;&#160;&#160;&#160;&#160;&#160;&#160;&#160;&#160;ANIMATE();</text>
<text text-anchor="start" x="96.75" y="-792.25" font-family="Courier New" font-size="10.00" fill="blue"> &#160;&#160;&#160;&#160;&#160;&#160;&#160;&#160;&#160;&#160;&#160;PLAYWAVE(SOUND_DIG);</text>
<text text-anchor="start" x="96.75" y="-779.5" font-family="Courier New" font-size="10.00" fill="blue"> &#160;&#160;&#160;&#160;&#160;&#160;&#160;&#160;} &#160;&#160;</text>
<text text-anchor="start" x="96.75" y="-766.75" font-family="Courier New" font-size="10.00" fill="blue"> &#160;&#160;&#160;&#160;&#160;&#160;&#160;&#160;&#160;&#160;if(WIP3 == ISA_TOOL_PRYER){</text>
<text text-anchor="start" x="96.75" y="-754" font-family="Courier New" font-size="10.00" fill="blue"> &#160;&#160;&#160;&#160;&#160;&#160;&#160;&#160;&#160;&#160;&#160;SHOW(0,IDS_SANDFLIP);</text>
<text text-anchor="start" x="96.75" y="-741.25" font-family="Courier New" font-size="10.00" fill="blue"> &#160;&#160;&#160;&#160;&#160;&#160;&#160;&#160;&#160;&#160;&#160;ANIMATE();</text>
<text text-anchor="start" x="96.75" y="-728.5" font-family="Courier New" font-size="10.00" fill="blue"> &#160;&#160;&#160;&#160;&#160;&#160;&#160;&#160;&#160;&#160;&#160;PLAYWAVE(SOUND_THUMP);</text>
<text text-anchor="start" x="96.75" y="-715.75" font-family="Courier New" font-size="10.00" fill="blue"> &#160;&#160;&#160;&#160;&#160;&#160;&#160;&#160;} &#160;&#160;</text>
<polygon fill="none" stroke="black" points="90.75,-706.5 90.75,-930.5 330.75,-930.5 330.75,-706.5 90.75,-706.5"/>
</g>
<!-- fourthWhack -->
<g id="node9" class="node">
<title>fourthWhack</title>
<polyline fill="none" stroke="darkred" points="29.38,-362.5 126.12,-362.5"/>
<text text-anchor="start" x="32.38" y="-369.7" font-family="Courier New" font-weight="bold" font-size="14.00">fourthWhack</text>
<path fill="none" stroke="darkred" d="M35.88,-359.5C35.88,-359.5 119.62,-359.5 119.62,-359.5 124.38,-359.5 129.12,-364.25 129.12,-369 129.12,-369 129.12,-378.5 129.12,-378.5 129.12,-383.25 124.38,-388 119.62,-388 119.62,-388 35.88,-388 35.88,-388 31.12,-388 26.38,-383.25 26.38,-378.5 26.38,-378.5 26.38,-369 26.38,-369 26.38,-364.25 31.12,-359.5 35.88,-359.5"/>
</g>
<!-- moveMe -->
<g id="node10" class="node">
<title>moveMe</title>
<polyline fill="none" stroke="darkred" points="11,-269.25 66.5,-269.25"/>
<text text-anchor="start" x="14" y="-276.45" font-family="Courier New" font-weight="bold" font-size="14.00">moveMe</text>
<path fill="none" stroke="darkred" d="M17.5,-266.25C17.5,-266.25 60,-266.25 60,-266.25 64.75,-266.25 69.5,-271 69.5,-275.75 69.5,-275.75 69.5,-285.25 69.5,-285.25 69.5,-290 64.75,-294.75 60,-294.75 60,-294.75 17.5,-294.75 17.5,-294.75 12.75,-294.75 8,-290 8,-285.25 8,-285.25 8,-275.75 8,-275.75 8,-271 12.75,-266.25 17.5,-266.25"/>
</g>
<!-- fourthWhack&#45;&gt;moveMe -->
<g id="edge7" class="edge">
<title>fourthWhack&#45;&gt;moveMe</title>
<path fill="none" stroke="black" d="M70.41,-355.59C64.8,-342.46 56.96,-324.1 50.48,-308.94"/>
<polygon fill="black" stroke="black" points="53.8,-307.8 46.65,-299.98 47.36,-310.55 53.8,-307.8"/>
<text text-anchor="start" x="65.75" y="-325" font-family="Courier New" font-weight="bold" font-size="10.00" fill="orange">DRAG(,)</text>
</g>
<!-- moveMe&#45;&gt;displaychest -->
<g id="edge8" class="edge">
<title>moveMe&#45;&gt;displaychest</title>
<path fill="none" stroke="black" d="M32.98,-262.6C24.89,-235.5 13.76,-181.9 38.75,-147.75 47.83,-135.34 61.31,-127.19 75.77,-121.87"/>
<polygon fill="black" stroke="black" points="76.52,-125.31 84.99,-118.93 74.4,-118.64 76.52,-125.31"/>
<polygon fill="none" stroke="black" points="41.75,-222.5 41.75,-241.25 335.75,-241.25 335.75,-222.5 41.75,-222.5"/>
<text text-anchor="start" x="131.75" y="-229.75" font-family="Courier New" font-weight="bold" font-size="10.00" fill="blue">SET_XOFFSET(ADD,10)</text>
<polygon fill="none" stroke="black" points="41.75,-150.75 41.75,-220.5 335.75,-220.5 335.75,-150.75 41.75,-150.75"/>
<text text-anchor="start" x="44.75" y="-208" font-family="Courier New" font-size="10.00" fill="blue"> &#160;&#160;&#160;&#160;&#160;&#160;&#160;PLAYWAVE(SOUND_CHIMES);</text>
<text text-anchor="start" x="44.75" y="-195.25" font-family="Courier New" font-size="10.00" fill="blue"> &#160;&#160;&#160;&#160;&#160;&#160;&#160;SHOW(0,IDS_CHESTBAK);</text>
<text text-anchor="start" x="44.75" y="-182.5" font-family="Courier New" font-size="10.00" fill="blue"> &#160;&#160;&#160;&#160;&#160;&#160;&#160;SIGNALi(S21_HIDDEN_01,S00_HIDERCURRENT);</text>
<text text-anchor="start" x="44.75" y="-169.75" font-family="Courier New" font-size="10.00" fill="blue"> &#160;&#160;&#160;&#160;&#160;&#160;&#160;ADDI(LWISDOM,1); </text>
<text text-anchor="start" x="44.75" y="-157" font-family="Courier New" font-size="10.00" fill="blue"> &#160;&#160;&#160;&#160;&#160;&#160;&#160;SIGNALi(0,SID_ID);</text>
<polygon fill="none" stroke="black" points="38.75,-147.75 38.75,-244.25 338.75,-244.25 338.75,-147.75 38.75,-147.75"/>
</g>
<!-- thirdWhack&#45;&gt;fourthWhack -->
<g id="edge10" class="edge">
<title>thirdWhack&#45;&gt;fourthWhack</title>
<path fill="none" stroke="black" d="M86.23,-652.14C84.74,-603.45 80.47,-463.7 78.62,-403.22"/>
<polygon fill="black" stroke="black" points="82.12,-403.3 78.32,-393.42 75.13,-403.52 82.12,-403.3"/>
<polygon fill="none" stroke="black" points="88.75,-612.25 88.75,-631 322.75,-631 322.75,-612.25 88.75,-612.25"/>
<text text-anchor="start" x="184.75" y="-619.5" font-family="Courier New" font-weight="bold" font-size="10.00" fill="orange">DRAG(,)</text>
<polygon fill="none" stroke="black" points="88.75,-413 88.75,-610.25 322.75,-610.25 322.75,-413 88.75,-413"/>
<text text-anchor="start" x="91.75" y="-597.75" font-family="Courier New" font-size="10.00" fill="blue"> &#160;&#160;&#160;&#160;&#160;&#160;&#160;if(WIP3 == ISA_TOOL_DIGGER){</text>
<text text-anchor="start" x="91.75" y="-585" font-family="Courier New" font-size="10.00" fill="blue"> &#160;&#160;&#160;&#160;&#160;&#160;&#160;&#160;&#160;&#160;&#160;SHOW(0,IDS_SANDPILE3);</text>
<text text-anchor="start" x="91.75" y="-572.25" font-family="Courier New" font-size="10.00" fill="blue"> &#160;&#160;&#160;&#160;&#160;&#160;&#160;&#160;&#160;&#160;&#160;ANIMATE();</text>
<text text-anchor="start" x="91.75" y="-559.5" font-family="Courier New" font-size="10.00" fill="blue"> &#160;&#160;&#160;&#160;&#160;&#160;&#160;&#160;&#160;&#160;&#160;PLAYWAVE(SOUND_DIG);</text>
<text text-anchor="start" x="91.75" y="-546.75" font-family="Courier New" font-size="10.00" fill="blue"> &#160;&#160;&#160;&#160;&#160;&#160;&#160;&#160;} &#160;&#160;</text>
<text text-anchor="start" x="91.75" y="-534" font-family="Courier New" font-size="10.00" fill="blue"> &#160;&#160;&#160;&#160;&#160;&#160;&#160;&#160;if(WIP3 == ISA_TOOL_STRIKER){</text>
<text text-anchor="start" x="91.75" y="-521.25" font-family="Courier New" font-size="10.00" fill="blue"> &#160;&#160;&#160;&#160;&#160;&#160;&#160;&#160;&#160;&#160;&#160;SHOW(0,IDS_SANDSTRIKE);</text>
<text text-anchor="start" x="91.75" y="-508.5" font-family="Courier New" font-size="10.00" fill="blue"> &#160;&#160;&#160;&#160;&#160;&#160;&#160;&#160;&#160;&#160;&#160;ANIMATE();</text>
<text text-anchor="start" x="91.75" y="-495.75" font-family="Courier New" font-size="10.00" fill="blue"> &#160;&#160;&#160;&#160;&#160;&#160;&#160;&#160;&#160;&#160;&#160;PLAYWAVE(SOUND_DIG);</text>
<text text-anchor="start" x="91.75" y="-483" font-family="Courier New" font-size="10.00" fill="blue"> &#160;&#160;&#160;&#160;&#160;&#160;&#160;&#160;} &#160;&#160;</text>
<text text-anchor="start" x="91.75" y="-470.25" font-family="Courier New" font-size="10.00" fill="blue"> &#160;&#160;&#160;&#160;&#160;&#160;&#160;&#160;&#160;&#160;if(WIP3 == ISA_TOOL_PRYER){</text>
<text text-anchor="start" x="91.75" y="-457.5" font-family="Courier New" font-size="10.00" fill="blue"> &#160;&#160;&#160;&#160;&#160;&#160;&#160;&#160;&#160;&#160;&#160;SHOW(0,IDS_SANDFLIP);</text>
<text text-anchor="start" x="91.75" y="-444.75" font-family="Courier New" font-size="10.00" fill="blue"> &#160;&#160;&#160;&#160;&#160;&#160;&#160;&#160;&#160;&#160;&#160;ANIMATE();</text>
<text text-anchor="start" x="91.75" y="-432" font-family="Courier New" font-size="10.00" fill="blue"> &#160;&#160;&#160;&#160;&#160;&#160;&#160;&#160;&#160;&#160;&#160;PLAYWAVE(SOUND_THUMP);</text>
<text text-anchor="start" x="91.75" y="-419.25" font-family="Courier New" font-size="10.00" fill="blue"> &#160;&#160;&#160;&#160;&#160;&#160;&#160;&#160;} &#160;&#160;</text>
<polygon fill="none" stroke="black" points="85.75,-410 85.75,-634 325.75,-634 325.75,-410 85.75,-410"/>
</g>
<!-- status -->
<g id="node12" class="node">
<title>status</title>
<polygon fill="none" stroke="black" points="330.75,-1558 330.75,-1637 880.75,-1637 880.75,-1558 330.75,-1558"/>
<polygon fill="none" stroke="black" points="341.75,-1611.25 341.75,-1630 869.75,-1630 869.75,-1611.25 341.75,-1611.25"/>
<text text-anchor="start" x="566.75" y="-1618.5" font-family="Courier New" font-weight="bold" font-size="10.00">S21_HIDDEN_01</text>
<polygon fill="none" stroke="black" points="341.75,-1565 341.75,-1609.25 869.75,-1609.25 869.75,-1565 341.75,-1565"/>
<text text-anchor="start" x="344.75" y="-1596.75" font-family="Courier New" font-size="10.00" fill="green">VIEW::IDV_N2D2 @pos(x:2935, y:200, w:120, h:100)</text>
<text text-anchor="start" x="344.75" y="-1584" font-family="Courier New" font-size="10.00" fill="green">S21_HIDDEN_01::M_DIGDIRECT(&#39;IDD_AMULET&#39;,&#39;IDS_SANDDIRTGRSDK&#39;,&#39;ISA_TOOL_DIGGER&#39;,&#39;&#39;,&#39;&#39;,&#39;&#39;)</text>
<text text-anchor="start" x="344.75" y="-1571.25" font-family="Courier New" font-size="10.00" fill="green">{state:&#39;firstWhack&#39;: wObject:IDD_AMULET wSprite:IDS_SANDDIRTGRSDK Top:200 Left:2935</text>
<polygon fill="none" stroke="black" points="338.75,-1562 338.75,-1633 872.75,-1633 872.75,-1562 338.75,-1562"/>
</g>
</g>
</svg>
