<?xml version="1.0" encoding="UTF-8" standalone="no"?>
<!DOCTYPE svg PUBLIC "-//W3C//DTD SVG 1.1//EN"
 "http://www.w3.org/Graphics/SVG/1.1/DTD/svg11.dtd">
<!-- Generated by graphviz version 10.0.1 (20240210.2158)
 -->
<!-- Title: Automaton Pages: 1 -->
<svg width="628pt" height="206pt"
 viewBox="0.00 0.00 628.00 206.00" xmlns="http://www.w3.org/2000/svg" xmlns:xlink="http://www.w3.org/1999/xlink">
<g id="graph0" class="graph" transform="scale(1 1) rotate(0) translate(4 202)">
<title>Automaton</title>
<polygon fill="white" stroke="none" points="-4,4 -4,-202 624,-202 624,4 -4,4"/>
<!-- filename -->
<g id="node1" class="node">
<title>filename</title>
<polygon fill="none" stroke="black" points="0,-131.25 0,-184.75 172,-184.75 172,-131.25 0,-131.25"/>
<polygon fill="none" stroke="black" points="11,-159 11,-177.75 161,-177.75 161,-159 11,-159"/>
<text text-anchor="start" x="14" y="-166.25" font-family="Courier New" font-weight="bold" font-size="10.00">S21_ALT_LEVER2::M_PORTAL</text>
<polygon fill="none" stroke="black" points="11,-138.25 11,-157 161,-157 161,-138.25 11,-138.25"/>
<text text-anchor="start" x="41" y="-144.5" font-family="Courier New" font-size="10.00" fill="brown">start state = 0</text>
<polygon fill="none" stroke="black" points="8,-135.25 8,-180.75 164,-180.75 164,-135.25 8,-135.25"/>
</g>
<!-- 0 -->
<g id="node2" class="node">
<title>0</title>
<polyline fill="none" stroke="darkred" stroke-width="3" points="209.38,-146.25 224.62,-146.25"/>
<text text-anchor="start" x="212.88" y="-153.95" font-family="Courier New" font-weight="bold" font-size="14.00">0</text>
<path fill="none" stroke="darkred" stroke-width="3" d="M212.79,-141.25C212.79,-141.25 221.21,-141.25 221.21,-141.25 225.42,-141.25 229.62,-145.46 229.62,-149.67 229.62,-149.67 229.62,-166.33 229.62,-166.33 229.62,-170.54 225.42,-174.75 221.21,-174.75 221.21,-174.75 212.79,-174.75 212.79,-174.75 208.58,-174.75 204.38,-170.54 204.38,-166.33 204.38,-166.33 204.38,-149.67 204.38,-149.67 204.38,-145.46 208.58,-141.25 212.79,-141.25"/>
</g>
<!-- portal -->
<g id="node3" class="node">
<title>portal</title>
<polyline fill="none" stroke="darkred" points="188.25,-7 243.75,-7"/>
<text text-anchor="start" x="191.25" y="-14.2" font-family="Courier New" font-weight="bold" font-size="14.00">portal</text>
<path fill="none" stroke="darkred" d="M194.75,-4C194.75,-4 237.25,-4 237.25,-4 242,-4 246.75,-8.75 246.75,-13.5 246.75,-13.5 246.75,-23 246.75,-23 246.75,-27.75 242,-32.5 237.25,-32.5 237.25,-32.5 194.75,-32.5 194.75,-32.5 190,-32.5 185.25,-27.75 185.25,-23 185.25,-23 185.25,-13.5 185.25,-13.5 185.25,-8.75 190,-4 194.75,-4"/>
</g>
<!-- 0&#45;&gt;portal -->
<g id="edge1" class="edge">
<title>0&#45;&gt;portal</title>
<path fill="none" stroke="black" d="M201.63,-136.09C195.82,-129.47 188.74,-122.66 181,-118 154.22,-101.87 132.07,-124.77 113,-100 100.67,-83.98 101.24,-70.95 113,-54.5 125.23,-37.39 146.29,-28.49 166.19,-23.9"/>
<polygon fill="black" stroke="black" points="166.75,-27.36 175.9,-22.01 165.41,-20.49 166.75,-27.36"/>
<polygon fill="none" stroke="black" points="116,-78.25 116,-97 296,-97 296,-78.25 116,-78.25"/>
<text text-anchor="start" x="182" y="-85.5" font-family="Courier New" font-weight="bold" font-size="10.00" fill="orange">CLICK(,)</text>
<polygon fill="none" stroke="black" points="116,-57.5 116,-76.25 296,-76.25 296,-57.5 116,-57.5"/>
<text text-anchor="start" x="119" y="-63.75" font-family="Courier New" font-size="10.00" fill="blue"> &#160;&#160;&#160;&#160;&#160;&#160;&#160;LOADVIEW(WIP1, WIP2);</text>
<polygon fill="none" stroke="black" points="113,-54.5 113,-100 299,-100 299,-54.5 113,-54.5"/>
</g>
<!-- portal&#45;&gt;0 -->
<g id="edge2" class="edge">
<title>portal&#45;&gt;0</title>
<path fill="none" stroke="black" d="M254.33,-25.76C271,-30.7 288.98,-39.36 299,-54.5 310.16,-71.36 310.4,-83.3 299,-100 286.62,-118.13 271.13,-105.62 253,-118 248.86,-120.82 244.86,-124.21 241.12,-127.78"/>
<polygon fill="black" stroke="black" points="238.88,-125.06 234.46,-134.69 243.92,-129.92 238.88,-125.06"/>
<text text-anchor="start" x="311" y="-75.12" font-family="Courier New" font-weight="bold" font-size="10.00" fill="blue">Z_EPSILON(0,)</text>
</g>
<!-- status -->
<g id="node4" class="node">
<title>status</title>
<polygon fill="none" stroke="black" points="262,-118.5 262,-197.5 620,-197.5 620,-118.5 262,-118.5"/>
<polygon fill="none" stroke="black" points="273,-171.75 273,-190.5 609,-190.5 609,-171.75 273,-171.75"/>
<text text-anchor="start" x="399" y="-179" font-family="Courier New" font-weight="bold" font-size="10.00">S21_ALT_LEVER2</text>
<polygon fill="none" stroke="black" points="273,-125.5 273,-169.75 609,-169.75 609,-125.5 273,-125.5"/>
<text text-anchor="start" x="276" y="-157.25" font-family="Courier New" font-size="10.00" fill="green">VIEW::IDV_N2C @pos(x:2105, y:159, h:45, w:41)</text>
<text text-anchor="start" x="276" y="-144.5" font-family="Courier New" font-size="10.00" fill="green">S21_ALT_LEVER2::M_PORTAL(&#39;IDV_N2B&#39;,&#39;17400&#39;,&#39;&#39;,&#39;&#39;,&#39;&#39;,&#39;&#39;)</text>
<text text-anchor="start" x="276" y="-131.75" font-family="Courier New" font-size="10.00" fill="green">{state:&#39;0&#39;: Top:159 Left:2105 Z:0</text>
<polygon fill="none" stroke="black" points="270,-122.5 270,-193.5 612,-193.5 612,-122.5 270,-122.5"/>
</g>
</g>
</svg>
