<?xml version="1.0" encoding="UTF-8" standalone="no"?>
<!DOCTYPE svg PUBLIC "-//W3C//DTD SVG 1.1//EN"
 "http://www.w3.org/Graphics/SVG/1.1/DTD/svg11.dtd">
<!-- Generated by graphviz version 10.0.1 (20240210.2158)
 -->
<!-- Title: Automaton Pages: 1 -->
<svg width="684pt" height="88pt"
 viewBox="0.00 0.00 684.00 88.00" xmlns="http://www.w3.org/2000/svg" xmlns:xlink="http://www.w3.org/1999/xlink">
<g id="graph0" class="graph" transform="scale(1 1) rotate(0) translate(4 84)">
<title>Automaton</title>
<polygon fill="white" stroke="none" points="-4,4 -4,-84 680,-84 680,4 -4,4"/>
<!-- filename -->
<g id="node1" class="node">
<title>filename</title>
<polygon fill="none" stroke="black" points="0,-13.25 0,-66.75 154,-66.75 154,-13.25 0,-13.25"/>
<polygon fill="none" stroke="black" points="11,-41 11,-59.75 143,-59.75 143,-41 11,-41"/>
<text text-anchor="start" x="14" y="-48.25" font-family="Courier New" font-weight="bold" font-size="10.00">S21_MAPBIN::M_BINGRAB</text>
<polygon fill="none" stroke="black" points="11,-20.25 11,-39 143,-39 143,-20.25 11,-20.25"/>
<text text-anchor="start" x="32" y="-26.5" font-family="Courier New" font-size="10.00" fill="brown">start state = 0</text>
<polygon fill="none" stroke="black" points="8,-17.25 8,-62.75 146,-62.75 146,-17.25 8,-17.25"/>
</g>
<!-- 0 -->
<g id="node2" class="node">
<title>0</title>
<polyline fill="none" stroke="darkred" stroke-width="3" points="191.38,-28.25 206.62,-28.25"/>
<text text-anchor="start" x="194.88" y="-35.95" font-family="Courier New" font-weight="bold" font-size="14.00">0</text>
<path fill="none" stroke="darkred" stroke-width="3" d="M194.79,-23.25C194.79,-23.25 203.21,-23.25 203.21,-23.25 207.42,-23.25 211.62,-27.46 211.62,-31.67 211.62,-31.67 211.62,-48.33 211.62,-48.33 211.62,-52.54 207.42,-56.75 203.21,-56.75 203.21,-56.75 194.79,-56.75 194.79,-56.75 190.58,-56.75 186.38,-52.54 186.38,-48.33 186.38,-48.33 186.38,-31.67 186.38,-31.67 186.38,-27.46 190.58,-23.25 194.79,-23.25"/>
</g>
<!-- 0&#45;&gt;0 -->
<g id="edge1" class="edge">
<title>0&#45;&gt;0</title>
<path fill="none" stroke="black" d="M225.79,-48.33C235.78,-48.6 244,-45.82 244,-40 244,-36.63 241.25,-34.29 237.01,-32.96"/>
<polygon fill="black" stroke="black" points="237.63,-29.51 227.3,-31.85 236.84,-36.46 237.63,-29.51"/>
<text text-anchor="start" x="248" y="-37.88" font-family="Courier New" font-weight="bold" font-size="10.00" fill="orange">GRAB(WIP1,)</text>
</g>
<!-- status -->
<g id="node3" class="node">
<title>status</title>
<polygon fill="none" stroke="black" points="336,-0.5 336,-79.5 676,-79.5 676,-0.5 336,-0.5"/>
<polygon fill="none" stroke="black" points="347,-53.75 347,-72.5 665,-72.5 665,-53.75 347,-53.75"/>
<text text-anchor="start" x="476" y="-61" font-family="Courier New" font-weight="bold" font-size="10.00">S21_MAPBIN</text>
<polygon fill="none" stroke="black" points="347,-7.5 347,-51.75 665,-51.75 665,-7.5 347,-7.5"/>
<text text-anchor="start" x="350" y="-39.25" font-family="Courier New" font-size="10.00" fill="green">VIEW::IDV_MAPROOM @pos(x:2708, y:7, h:218, w:172)</text>
<text text-anchor="start" x="350" y="-26.5" font-family="Courier New" font-size="10.00" fill="green">S21_MAPBIN::M_BINGRAB(&#39;IDD_MAPBTN&#39;,&#39;&#39;,&#39;60&#39;,&#39;&#39;,&#39;&#39;,&#39;&#39;)</text>
<text text-anchor="start" x="350" y="-13.75" font-family="Courier New" font-size="10.00" fill="green">{state:&#39;0&#39;: Top:7 Left:2708 Z:0</text>
<polygon fill="none" stroke="black" points="344,-4.5 344,-75.5 668,-75.5 668,-4.5 344,-4.5"/>
</g>
</g>
</svg>
