<?xml version="1.0" encoding="UTF-8" standalone="no"?>
<!DOCTYPE svg PUBLIC "-//W3C//DTD SVG 1.1//EN"
 "http://www.w3.org/Graphics/SVG/1.1/DTD/svg11.dtd">
<!-- Generated by graphviz version 10.0.1 (20240210.2158)
 -->
<!-- Title: Automaton Pages: 1 -->
<svg width="731pt" height="1495pt"
 viewBox="0.00 0.00 730.56 1494.75" xmlns="http://www.w3.org/2000/svg" xmlns:xlink="http://www.w3.org/1999/xlink">
<g id="graph0" class="graph" transform="scale(1 1) rotate(0) translate(4 1490.75)">
<title>Automaton</title>
<polygon fill="white" stroke="none" points="-4,4 -4,-1490.75 726.56,-1490.75 726.56,4 -4,4"/>
<!-- filename -->
<g id="node1" class="node">
<title>filename</title>
<polygon fill="none" stroke="black" points="48.56,-1420 48.56,-1473.5 184.56,-1473.5 184.56,-1420 48.56,-1420"/>
<polygon fill="none" stroke="black" points="59.56,-1447.75 59.56,-1466.5 173.56,-1466.5 173.56,-1447.75 59.56,-1447.75"/>
<text text-anchor="start" x="62.56" y="-1455" font-family="Courier New" font-weight="bold" font-size="10.00">S21_LEVER::M_LEVER</text>
<polygon fill="none" stroke="black" points="59.56,-1427 59.56,-1445.75 173.56,-1445.75 173.56,-1427 59.56,-1427"/>
<text text-anchor="start" x="71.56" y="-1433.25" font-family="Courier New" font-size="10.00" fill="brown">start state = 0</text>
<polygon fill="none" stroke="black" points="56.56,-1424 56.56,-1469.5 176.56,-1469.5 176.56,-1424 56.56,-1424"/>
</g>
<!-- 0 -->
<g id="node2" class="node">
<title>0</title>
<polyline fill="none" stroke="darkred" points="222.43,-1435.5 236.68,-1435.5"/>
<text text-anchor="start" x="225.43" y="-1442.7" font-family="Courier New" font-weight="bold" font-size="14.00">0</text>
<path fill="none" stroke="darkred" d="M226.18,-1432.5C226.18,-1432.5 232.93,-1432.5 232.93,-1432.5 236.31,-1432.5 239.68,-1435.88 239.68,-1439.25 239.68,-1439.25 239.68,-1454.25 239.68,-1454.25 239.68,-1457.62 236.31,-1461 232.93,-1461 232.93,-1461 226.18,-1461 226.18,-1461 222.81,-1461 219.43,-1457.62 219.43,-1454.25 219.43,-1454.25 219.43,-1439.25 219.43,-1439.25 219.43,-1435.88 222.81,-1432.5 226.18,-1432.5"/>
</g>
<!-- 1 -->
<g id="node3" class="node">
<title>1</title>
<polyline fill="none" stroke="darkred" points="222.43,-1320.5 236.68,-1320.5"/>
<text text-anchor="start" x="225.43" y="-1327.7" font-family="Courier New" font-weight="bold" font-size="14.00">1</text>
<path fill="none" stroke="darkred" d="M226.18,-1317.5C226.18,-1317.5 232.93,-1317.5 232.93,-1317.5 236.31,-1317.5 239.68,-1320.88 239.68,-1324.25 239.68,-1324.25 239.68,-1339.25 239.68,-1339.25 239.68,-1342.62 236.31,-1346 232.93,-1346 232.93,-1346 226.18,-1346 226.18,-1346 222.81,-1346 219.43,-1342.62 219.43,-1339.25 219.43,-1339.25 219.43,-1324.25 219.43,-1324.25 219.43,-1320.88 222.81,-1317.5 226.18,-1317.5"/>
</g>
<!-- 0&#45;&gt;1 -->
<g id="edge1" class="edge">
<title>0&#45;&gt;1</title>
<path fill="none" stroke="black" d="M229.56,-1428.59C229.56,-1410.65 229.56,-1382.2 229.56,-1360.95"/>
<polygon fill="black" stroke="black" points="233.06,-1361.22 229.56,-1351.22 226.06,-1361.22 233.06,-1361.22"/>
<text text-anchor="start" x="233.56" y="-1376.25" font-family="Courier New" font-weight="bold" font-size="10.00" fill="blue">MOV(BFRAME,0)</text>
</g>
<!-- 2 -->
<g id="node4" class="node">
<title>2</title>
<polyline fill="none" stroke="darkred" points="222.43,-1227.25 236.68,-1227.25"/>
<text text-anchor="start" x="225.43" y="-1234.45" font-family="Courier New" font-weight="bold" font-size="14.00">2</text>
<path fill="none" stroke="darkred" d="M226.18,-1224.25C226.18,-1224.25 232.93,-1224.25 232.93,-1224.25 236.31,-1224.25 239.68,-1227.62 239.68,-1231 239.68,-1231 239.68,-1246 239.68,-1246 239.68,-1249.38 236.31,-1252.75 232.93,-1252.75 232.93,-1252.75 226.18,-1252.75 226.18,-1252.75 222.81,-1252.75 219.43,-1249.38 219.43,-1246 219.43,-1246 219.43,-1231 219.43,-1231 219.43,-1227.62 222.81,-1224.25 226.18,-1224.25"/>
</g>
<!-- 1&#45;&gt;2 -->
<g id="edge2" class="edge">
<title>1&#45;&gt;2</title>
<path fill="none" stroke="black" d="M229.56,-1313.59C229.56,-1300.71 229.56,-1282.81 229.56,-1267.82"/>
<polygon fill="black" stroke="black" points="233.06,-1268.1 229.56,-1258.1 226.06,-1268.1 233.06,-1268.1"/>
<text text-anchor="start" x="233.56" y="-1283" font-family="Courier New" font-weight="bold" font-size="10.00" fill="blue">SHOW(WIP1,)</text>
</g>
<!-- 3 -->
<g id="node13" class="node">
<title>3</title>
<polyline fill="none" stroke="darkred" points="142.43,-1134 156.68,-1134"/>
<text text-anchor="start" x="145.43" y="-1141.2" font-family="Courier New" font-weight="bold" font-size="14.00">3</text>
<path fill="none" stroke="darkred" d="M146.18,-1131C146.18,-1131 152.93,-1131 152.93,-1131 156.31,-1131 159.68,-1134.38 159.68,-1137.75 159.68,-1137.75 159.68,-1152.75 159.68,-1152.75 159.68,-1156.12 156.31,-1159.5 152.93,-1159.5 152.93,-1159.5 146.18,-1159.5 146.18,-1159.5 142.81,-1159.5 139.43,-1156.12 139.43,-1152.75 139.43,-1152.75 139.43,-1137.75 139.43,-1137.75 139.43,-1134.38 142.81,-1131 146.18,-1131"/>
</g>
<!-- 2&#45;&gt;3 -->
<g id="edge11" class="edge">
<title>2&#45;&gt;3</title>
<path fill="none" stroke="black" d="M214.51,-1220.34C202.55,-1206.7 185.64,-1187.41 172.08,-1171.94"/>
<polygon fill="black" stroke="black" points="174.76,-1169.69 165.53,-1164.47 169.49,-1174.3 174.76,-1169.69"/>
<text text-anchor="start" x="200.56" y="-1189.75" font-family="Courier New" font-weight="bold" font-size="10.00" fill="orange">CLICK(0,0)</text>
</g>
<!-- 10 -->
<g id="node5" class="node">
<title>10</title>
<polyline fill="none" stroke="darkred" points="64.31,-566.5 86.81,-566.5"/>
<text text-anchor="start" x="67.31" y="-573.7" font-family="Courier New" font-weight="bold" font-size="14.00">10</text>
<path fill="none" stroke="darkred" d="M70.81,-563.5C70.81,-563.5 80.31,-563.5 80.31,-563.5 85.06,-563.5 89.81,-568.25 89.81,-573 89.81,-573 89.81,-582.5 89.81,-582.5 89.81,-587.25 85.06,-592 80.31,-592 80.31,-592 70.81,-592 70.81,-592 66.06,-592 61.31,-587.25 61.31,-582.5 61.31,-582.5 61.31,-573 61.31,-573 61.31,-568.25 66.06,-563.5 70.81,-563.5"/>
</g>
<!-- 9 -->
<g id="node6" class="node">
<title>9</title>
<polyline fill="none" stroke="darkred" stroke-width="3" points="67.93,-663.25 83.18,-663.25"/>
<text text-anchor="start" x="71.43" y="-670.95" font-family="Courier New" font-weight="bold" font-size="14.00">9</text>
<path fill="none" stroke="darkred" stroke-width="3" d="M71.35,-658.25C71.35,-658.25 79.76,-658.25 79.76,-658.25 83.97,-658.25 88.18,-662.46 88.18,-666.67 88.18,-666.67 88.18,-683.33 88.18,-683.33 88.18,-687.54 83.97,-691.75 79.76,-691.75 79.76,-691.75 71.35,-691.75 71.35,-691.75 67.14,-691.75 62.93,-687.54 62.93,-683.33 62.93,-683.33 62.93,-666.67 62.93,-666.67 62.93,-662.46 67.14,-658.25 71.35,-658.25"/>
</g>
<!-- 10&#45;&gt;9 -->
<g id="edge3" class="edge">
<title>10&#45;&gt;9</title>
<path fill="none" stroke="black" d="M75.56,-595.71C75.56,-608.43 75.56,-626.24 75.56,-641.66"/>
<polygon fill="black" stroke="black" points="72.06,-641.35 75.56,-651.35 79.06,-641.35 72.06,-641.35"/>
<text text-anchor="start" x="79.56" y="-622.25" font-family="Courier New" font-weight="bold" font-size="10.00" fill="blue">IFSTATEi(60,S21_LEVSTOP)</text>
</g>
<!-- 11 -->
<g id="node7" class="node">
<title>11</title>
<polyline fill="none" stroke="darkred" points="64.31,-473.25 86.81,-473.25"/>
<text text-anchor="start" x="67.31" y="-480.45" font-family="Courier New" font-weight="bold" font-size="14.00">11</text>
<path fill="none" stroke="darkred" d="M70.81,-470.25C70.81,-470.25 80.31,-470.25 80.31,-470.25 85.06,-470.25 89.81,-475 89.81,-479.75 89.81,-479.75 89.81,-489.25 89.81,-489.25 89.81,-494 85.06,-498.75 80.31,-498.75 80.31,-498.75 70.81,-498.75 70.81,-498.75 66.06,-498.75 61.31,-494 61.31,-489.25 61.31,-489.25 61.31,-479.75 61.31,-479.75 61.31,-475 66.06,-470.25 70.81,-470.25"/>
</g>
<!-- 10&#45;&gt;11 -->
<g id="edge4" class="edge">
<title>10&#45;&gt;11</title>
<path fill="none" stroke="black" d="M75.56,-559.59C75.56,-546.71 75.56,-528.81 75.56,-513.82"/>
<polygon fill="black" stroke="black" points="79.06,-514.1 75.56,-504.1 72.06,-514.1 79.06,-514.1"/>
<text text-anchor="start" x="79.56" y="-529" font-family="Courier New" font-weight="bold" font-size="10.00" fill="blue">Z_EPSILON(,)</text>
</g>
<!-- 9&#45;&gt;10 -->
<g id="edge17" class="edge">
<title>9&#45;&gt;10</title>
<path fill="none" stroke="black" d="M48.87,-665.09C22.95,-654.9 -10.57,-636.64 3.56,-614 11.34,-601.51 24.98,-593.33 38.31,-588.02"/>
<polygon fill="black" stroke="black" points="39.09,-591.45 47.38,-584.85 36.79,-584.85 39.09,-591.45"/>
<text text-anchor="start" x="7.56" y="-622.25" font-family="Courier New" font-weight="bold" font-size="10.00" fill="blue">ESTIME(,3)</text>
</g>
<!-- 12 -->
<g id="node8" class="node">
<title>12</title>
<polyline fill="none" stroke="darkred" points="64.31,-380 86.81,-380"/>
<text text-anchor="start" x="67.31" y="-387.2" font-family="Courier New" font-weight="bold" font-size="14.00">12</text>
<path fill="none" stroke="darkred" d="M70.81,-377C70.81,-377 80.31,-377 80.31,-377 85.06,-377 89.81,-381.75 89.81,-386.5 89.81,-386.5 89.81,-396 89.81,-396 89.81,-400.75 85.06,-405.5 80.31,-405.5 80.31,-405.5 70.81,-405.5 70.81,-405.5 66.06,-405.5 61.31,-400.75 61.31,-396 61.31,-396 61.31,-386.5 61.31,-386.5 61.31,-381.75 66.06,-377 70.81,-377"/>
</g>
<!-- 11&#45;&gt;12 -->
<g id="edge5" class="edge">
<title>11&#45;&gt;12</title>
<path fill="none" stroke="black" d="M75.56,-466.34C75.56,-453.46 75.56,-435.56 75.56,-420.57"/>
<polygon fill="black" stroke="black" points="79.06,-420.85 75.56,-410.85 72.06,-420.85 79.06,-420.85"/>
<text text-anchor="start" x="79.56" y="-435.75" font-family="Courier New" font-weight="bold" font-size="10.00" fill="blue">SUBI(BFRAME,1)</text>
</g>
<!-- 13 -->
<g id="node9" class="node">
<title>13</title>
<polyline fill="none" stroke="darkred" points="64.31,-286.75 86.81,-286.75"/>
<text text-anchor="start" x="67.31" y="-293.95" font-family="Courier New" font-weight="bold" font-size="14.00">13</text>
<path fill="none" stroke="darkred" d="M70.81,-283.75C70.81,-283.75 80.31,-283.75 80.31,-283.75 85.06,-283.75 89.81,-288.5 89.81,-293.25 89.81,-293.25 89.81,-302.75 89.81,-302.75 89.81,-307.5 85.06,-312.25 80.31,-312.25 80.31,-312.25 70.81,-312.25 70.81,-312.25 66.06,-312.25 61.31,-307.5 61.31,-302.75 61.31,-302.75 61.31,-293.25 61.31,-293.25 61.31,-288.5 66.06,-283.75 70.81,-283.75"/>
</g>
<!-- 12&#45;&gt;13 -->
<g id="edge6" class="edge">
<title>12&#45;&gt;13</title>
<path fill="none" stroke="black" d="M75.56,-373.09C75.56,-360.21 75.56,-342.31 75.56,-327.32"/>
<polygon fill="black" stroke="black" points="79.06,-327.6 75.56,-317.6 72.06,-327.6 79.06,-327.6"/>
<text text-anchor="start" x="79.56" y="-342.5" font-family="Courier New" font-weight="bold" font-size="10.00" fill="blue">SIGNALi(SIG_CLOSE,S21_MAPOPEN)</text>
</g>
<!-- 14 -->
<g id="node10" class="node">
<title>14</title>
<polyline fill="none" stroke="darkred" points="66.31,-193.5 88.81,-193.5"/>
<text text-anchor="start" x="69.31" y="-200.7" font-family="Courier New" font-weight="bold" font-size="14.00">14</text>
<path fill="none" stroke="darkred" d="M72.81,-190.5C72.81,-190.5 82.31,-190.5 82.31,-190.5 87.06,-190.5 91.81,-195.25 91.81,-200 91.81,-200 91.81,-209.5 91.81,-209.5 91.81,-214.25 87.06,-219 82.31,-219 82.31,-219 72.81,-219 72.81,-219 68.06,-219 63.31,-214.25 63.31,-209.5 63.31,-209.5 63.31,-200 63.31,-200 63.31,-195.25 68.06,-190.5 72.81,-190.5"/>
</g>
<!-- 13&#45;&gt;14 -->
<g id="edge7" class="edge">
<title>13&#45;&gt;14</title>
<path fill="none" stroke="black" d="M75.82,-279.84C75.99,-268.76 76.25,-254.03 76.56,-241 76.61,-238.8 76.66,-236.52 76.72,-234.22"/>
<polygon fill="black" stroke="black" points="80.21,-234.57 76.99,-224.47 73.22,-234.37 80.21,-234.57"/>
<text text-anchor="start" x="80.56" y="-249.25" font-family="Courier New" font-weight="bold" font-size="10.00" fill="blue">SIGNALi(SIG_HIDE,S21_ALT_MAPBOX)</text>
</g>
<!-- 15 -->
<g id="node11" class="node">
<title>15</title>
<polyline fill="none" stroke="darkred" points="82.31,-100.25 104.81,-100.25"/>
<text text-anchor="start" x="85.31" y="-107.45" font-family="Courier New" font-weight="bold" font-size="14.00">15</text>
<path fill="none" stroke="darkred" d="M88.81,-97.25C88.81,-97.25 98.31,-97.25 98.31,-97.25 103.06,-97.25 107.81,-102 107.81,-106.75 107.81,-106.75 107.81,-116.25 107.81,-116.25 107.81,-121 103.06,-125.75 98.31,-125.75 98.31,-125.75 88.81,-125.75 88.81,-125.75 84.06,-125.75 79.31,-121 79.31,-116.25 79.31,-116.25 79.31,-106.75 79.31,-106.75 79.31,-102 84.06,-97.25 88.81,-97.25"/>
</g>
<!-- 14&#45;&gt;15 -->
<g id="edge8" class="edge">
<title>14&#45;&gt;15</title>
<path fill="none" stroke="black" d="M78.13,-186.71C78.74,-175.54 79.99,-160.68 82.56,-147.75 83.02,-145.39 83.59,-142.97 84.22,-140.55"/>
<polygon fill="black" stroke="black" points="87.57,-141.56 87.01,-130.98 80.85,-139.59 87.57,-141.56"/>
<text text-anchor="start" x="86.56" y="-156" font-family="Courier New" font-weight="bold" font-size="10.00" fill="blue">SIGNALi(SIG_HIDE,S21_ALT_LEVER)</text>
</g>
<!-- 16 -->
<g id="node12" class="node">
<title>16</title>
<polyline fill="none" stroke="darkred" points="186.31,-7 208.81,-7"/>
<text text-anchor="start" x="189.31" y="-14.2" font-family="Courier New" font-weight="bold" font-size="14.00">16</text>
<path fill="none" stroke="darkred" d="M192.81,-4C192.81,-4 202.31,-4 202.31,-4 207.06,-4 211.81,-8.75 211.81,-13.5 211.81,-13.5 211.81,-23 211.81,-23 211.81,-27.75 207.06,-32.5 202.31,-32.5 202.31,-32.5 192.81,-32.5 192.81,-32.5 188.06,-32.5 183.31,-27.75 183.31,-23 183.31,-23 183.31,-13.5 183.31,-13.5 183.31,-8.75 188.06,-4 192.81,-4"/>
</g>
<!-- 15&#45;&gt;16 -->
<g id="edge9" class="edge">
<title>15&#45;&gt;16</title>
<path fill="none" stroke="black" d="M101.87,-93.43C108.39,-81.39 118.37,-65.53 130.56,-54.5 139.33,-46.56 150.21,-39.85 160.64,-34.48"/>
<polygon fill="black" stroke="black" points="161.97,-37.72 169.46,-30.22 158.93,-31.42 161.97,-37.72"/>
<text text-anchor="start" x="134.56" y="-62.75" font-family="Courier New" font-weight="bold" font-size="10.00" fill="blue">PLAYWAVE(0,SOUND_LEVER)</text>
</g>
<!-- 16&#45;&gt;2 -->
<g id="edge10" class="edge">
<title>16&#45;&gt;2</title>
<path fill="none" stroke="black" d="M224.32,-24.8C241.64,-29.75 263.33,-38.74 276.56,-54.5 293.04,-74.15 290.56,-84.85 290.56,-110.5 290.56,-1146.25 290.56,-1146.25 290.56,-1146.25 290.56,-1172.99 283.77,-1180.26 268.56,-1202.25 266.06,-1205.86 263.12,-1209.36 260,-1212.66"/>
<polygon fill="black" stroke="black" points="257.83,-1209.89 253.08,-1219.36 262.7,-1214.92 257.83,-1209.89"/>
<text text-anchor="start" x="294.56" y="-622.25" font-family="Courier New" font-weight="bold" font-size="10.00" fill="blue">SHOW(WIP1,)</text>
</g>
<!-- 4 -->
<g id="node14" class="node">
<title>4</title>
<polyline fill="none" stroke="darkred" points="116.43,-1040.75 130.68,-1040.75"/>
<text text-anchor="start" x="119.43" y="-1047.95" font-family="Courier New" font-weight="bold" font-size="14.00">4</text>
<path fill="none" stroke="darkred" d="M120.18,-1037.75C120.18,-1037.75 126.93,-1037.75 126.93,-1037.75 130.31,-1037.75 133.68,-1041.12 133.68,-1044.5 133.68,-1044.5 133.68,-1059.5 133.68,-1059.5 133.68,-1062.88 130.31,-1066.25 126.93,-1066.25 126.93,-1066.25 120.18,-1066.25 120.18,-1066.25 116.81,-1066.25 113.43,-1062.88 113.43,-1059.5 113.43,-1059.5 113.43,-1044.5 113.43,-1044.5 113.43,-1041.12 116.81,-1037.75 120.18,-1037.75"/>
</g>
<!-- 3&#45;&gt;4 -->
<g id="edge12" class="edge">
<title>3&#45;&gt;4</title>
<path fill="none" stroke="black" d="M138.75,-1127.25C135.64,-1121.63 132.55,-1115.22 130.56,-1109 127.73,-1100.17 126.04,-1090.23 125.03,-1081.19"/>
<polygon fill="black" stroke="black" points="128.54,-1081.18 124.19,-1071.52 121.57,-1081.79 128.54,-1081.18"/>
<text text-anchor="start" x="134.56" y="-1096.5" font-family="Courier New" font-weight="bold" font-size="10.00" fill="blue">PLAYWAVE(0,SOUND_LEVER)</text>
</g>
<!-- 6 -->
<g id="node15" class="node">
<title>6</title>
<polyline fill="none" stroke="darkred" points="89.43,-947.5 103.68,-947.5"/>
<text text-anchor="start" x="92.43" y="-954.7" font-family="Courier New" font-weight="bold" font-size="14.00">6</text>
<path fill="none" stroke="darkred" d="M93.18,-944.5C93.18,-944.5 99.93,-944.5 99.93,-944.5 103.31,-944.5 106.68,-947.88 106.68,-951.25 106.68,-951.25 106.68,-966.25 106.68,-966.25 106.68,-969.62 103.31,-973 99.93,-973 99.93,-973 93.18,-973 93.18,-973 89.81,-973 86.43,-969.62 86.43,-966.25 86.43,-966.25 86.43,-951.25 86.43,-951.25 86.43,-947.88 89.81,-944.5 93.18,-944.5"/>
</g>
<!-- 4&#45;&gt;6 -->
<g id="edge13" class="edge">
<title>4&#45;&gt;6</title>
<path fill="none" stroke="black" d="M118.48,-1033.84C114.63,-1020.84 109.26,-1002.7 104.81,-987.63"/>
<polygon fill="black" stroke="black" points="108.23,-986.88 102.04,-978.29 101.52,-988.87 108.23,-986.88"/>
<text text-anchor="start" x="115.56" y="-1003.25" font-family="Courier New" font-weight="bold" font-size="10.00" fill="blue">ADDI(BFRAME,1)</text>
</g>
<!-- 7 -->
<g id="node16" class="node">
<title>7</title>
<polyline fill="none" stroke="darkred" points="73.43,-854.25 87.68,-854.25"/>
<text text-anchor="start" x="76.43" y="-861.45" font-family="Courier New" font-weight="bold" font-size="14.00">7</text>
<path fill="none" stroke="darkred" d="M77.18,-851.25C77.18,-851.25 83.93,-851.25 83.93,-851.25 87.31,-851.25 90.68,-854.62 90.68,-858 90.68,-858 90.68,-873 90.68,-873 90.68,-876.38 87.31,-879.75 83.93,-879.75 83.93,-879.75 77.18,-879.75 77.18,-879.75 73.81,-879.75 70.43,-876.38 70.43,-873 70.43,-873 70.43,-858 70.43,-858 70.43,-854.62 73.81,-851.25 77.18,-851.25"/>
</g>
<!-- 6&#45;&gt;7 -->
<g id="edge14" class="edge">
<title>6&#45;&gt;7</title>
<path fill="none" stroke="black" d="M93.55,-940.59C91.29,-927.71 88.15,-909.81 85.52,-894.82"/>
<polygon fill="black" stroke="black" points="88.99,-894.32 83.81,-885.08 82.09,-895.53 88.99,-894.32"/>
<text text-anchor="start" x="93.56" y="-910" font-family="Courier New" font-weight="bold" font-size="10.00" fill="blue">SIGNALi(SIG_OPEN,S21_MAPOPEN)</text>
</g>
<!-- 8 -->
<g id="node17" class="node">
<title>8</title>
<polyline fill="none" stroke="darkred" points="68.43,-761 82.68,-761"/>
<text text-anchor="start" x="71.43" y="-768.2" font-family="Courier New" font-weight="bold" font-size="14.00">8</text>
<path fill="none" stroke="darkred" d="M72.18,-758C72.18,-758 78.93,-758 78.93,-758 82.31,-758 85.68,-761.38 85.68,-764.75 85.68,-764.75 85.68,-779.75 85.68,-779.75 85.68,-783.12 82.31,-786.5 78.93,-786.5 78.93,-786.5 72.18,-786.5 72.18,-786.5 68.81,-786.5 65.43,-783.12 65.43,-779.75 65.43,-779.75 65.43,-764.75 65.43,-764.75 65.43,-761.38 68.81,-758 72.18,-758"/>
</g>
<!-- 7&#45;&gt;8 -->
<g id="edge15" class="edge">
<title>7&#45;&gt;8</title>
<path fill="none" stroke="black" d="M78.27,-847.32C77.6,-841.58 76.94,-835.15 76.56,-829.25 75.97,-820.31 75.68,-810.55 75.54,-801.72"/>
<polygon fill="black" stroke="black" points="79.04,-801.91 75.45,-791.94 72.04,-801.97 79.04,-801.91"/>
<text text-anchor="start" x="80.56" y="-816.75" font-family="Courier New" font-weight="bold" font-size="10.00" fill="blue">SIGNALi(SIG_SHOW,S21_ALT_MAPBOX)</text>
</g>
<!-- 8&#45;&gt;9 -->
<g id="edge16" class="edge">
<title>8&#45;&gt;9</title>
<path fill="none" stroke="black" d="M75.56,-754.22C75.56,-741.51 75.56,-723.77 75.56,-708.39"/>
<polygon fill="black" stroke="black" points="79.06,-708.73 75.56,-698.73 72.06,-708.73 79.06,-708.73"/>
<text text-anchor="start" x="79.56" y="-723.5" font-family="Courier New" font-weight="bold" font-size="10.00" fill="blue">SIGNALi(SIG_SHOW,S21_ALT_LEVER)</text>
</g>
<!-- status -->
<g id="node18" class="node">
<title>status</title>
<polygon fill="none" stroke="black" points="274.56,-1407.25 274.56,-1486.25 722.56,-1486.25 722.56,-1407.25 274.56,-1407.25"/>
<polygon fill="none" stroke="black" points="285.56,-1460.5 285.56,-1479.25 711.56,-1479.25 711.56,-1460.5 285.56,-1460.5"/>
<text text-anchor="start" x="471.56" y="-1467.75" font-family="Courier New" font-weight="bold" font-size="10.00">S21_LEVER</text>
<polygon fill="none" stroke="black" points="285.56,-1414.25 285.56,-1458.5 711.56,-1458.5 711.56,-1414.25 285.56,-1414.25"/>
<text text-anchor="start" x="288.56" y="-1446" font-family="Courier New" font-size="10.00" fill="green">VIEW::IDV_LEVERCU @pos(x:32, y:42, w:145, h:268)</text>
<text text-anchor="start" x="288.56" y="-1433.25" font-family="Courier New" font-size="10.00" fill="green">S21_LEVER::M_LEVER(&#39;IDS_LEVANI&#39;,&#39;2&#39;,&#39;S21_LEVSTOP&#39;,&#39;SOUND_LEVER&#39;,&#39;&#39;,&#39;&#39;)</text>
<text text-anchor="start" x="288.56" y="-1420.5" font-family="Courier New" font-size="10.00" fill="green">{state:&#39;9&#39;: wSprite:IDS_LEVANI bFrame:1 dEtime:1556 Top:42 Left:32</text>
<polygon fill="none" stroke="black" points="282.56,-1411.25 282.56,-1482.25 714.56,-1482.25 714.56,-1411.25 282.56,-1411.25"/>
</g>
</g>
</svg>
