<?xml version="1.0" encoding="UTF-8" standalone="no"?>
<!DOCTYPE svg PUBLIC "-//W3C//DTD SVG 1.1//EN"
 "http://www.w3.org/Graphics/SVG/1.1/DTD/svg11.dtd">
<!-- Generated by graphviz version 10.0.1 (20240210.2158)
 -->
<!-- Title: Automaton Pages: 1 -->
<svg width="685pt" height="275pt"
 viewBox="0.00 0.00 684.55 274.50" xmlns="http://www.w3.org/2000/svg" xmlns:xlink="http://www.w3.org/1999/xlink">
<g id="graph0" class="graph" transform="scale(1 1) rotate(0) translate(4 270.5)">
<title>Automaton</title>
<polygon fill="white" stroke="none" points="-4,4 -4,-270.5 680.55,-270.5 680.55,4 -4,4"/>
<!-- filename -->
<g id="node1" class="node">
<title>filename</title>
<polygon fill="none" stroke="black" points="56.55,-199.75 56.55,-253.25 228.55,-253.25 228.55,-199.75 56.55,-199.75"/>
<polygon fill="none" stroke="black" points="67.55,-227.5 67.55,-246.25 217.55,-246.25 217.55,-227.5 67.55,-227.5"/>
<text text-anchor="start" x="70.55" y="-234.75" font-family="Courier New" font-weight="bold" font-size="10.00">S24_EYETEXT::M24_EYETEXT</text>
<polygon fill="none" stroke="black" points="67.55,-206.75 67.55,-225.5 217.55,-225.5 217.55,-206.75 67.55,-206.75"/>
<text text-anchor="start" x="97.55" y="-213" font-family="Courier New" font-size="10.00" fill="brown">start state = 0</text>
<polygon fill="none" stroke="black" points="64.55,-203.75 64.55,-249.25 220.55,-249.25 220.55,-203.75 64.55,-203.75"/>
</g>
<!-- 0 -->
<g id="node2" class="node">
<title>0</title>
<polyline fill="none" stroke="darkred" stroke-width="3" points="265.93,-214.75 281.18,-214.75"/>
<text text-anchor="start" x="269.43" y="-222.45" font-family="Courier New" font-weight="bold" font-size="14.00">0</text>
<path fill="none" stroke="darkred" stroke-width="3" d="M269.35,-209.75C269.35,-209.75 277.76,-209.75 277.76,-209.75 281.97,-209.75 286.18,-213.96 286.18,-218.17 286.18,-218.17 286.18,-234.83 286.18,-234.83 286.18,-239.04 281.97,-243.25 277.76,-243.25 277.76,-243.25 269.35,-243.25 269.35,-243.25 265.14,-243.25 260.93,-239.04 260.93,-234.83 260.93,-234.83 260.93,-218.17 260.93,-218.17 260.93,-213.96 265.14,-209.75 269.35,-209.75"/>
</g>
<!-- 10 -->
<g id="node3" class="node">
<title>10</title>
<polyline fill="none" stroke="darkred" points="84.3,-100.25 106.8,-100.25"/>
<text text-anchor="start" x="87.3" y="-107.45" font-family="Courier New" font-weight="bold" font-size="14.00">10</text>
<path fill="none" stroke="darkred" d="M90.8,-97.25C90.8,-97.25 100.3,-97.25 100.3,-97.25 105.05,-97.25 109.8,-102 109.8,-106.75 109.8,-106.75 109.8,-116.25 109.8,-116.25 109.8,-121 105.05,-125.75 100.3,-125.75 100.3,-125.75 90.8,-125.75 90.8,-125.75 86.05,-125.75 81.3,-121 81.3,-116.25 81.3,-116.25 81.3,-106.75 81.3,-106.75 81.3,-102 86.05,-97.25 90.8,-97.25"/>
</g>
<!-- 0&#45;&gt;10 -->
<g id="edge1" class="edge">
<title>0&#45;&gt;10</title>
<path fill="none" stroke="black" d="M259.33,-204.59C253.44,-197.62 246.01,-190.6 237.55,-186.5 191.02,-163.94 40.68,-206.45 5.55,-168.5 -14.32,-147.02 25.22,-130.62 58.04,-121.27"/>
<polygon fill="black" stroke="black" points="58.6,-124.75 67.35,-118.77 56.78,-117.99 58.6,-124.75"/>
<text text-anchor="start" x="9.55" y="-156" font-family="Courier New" font-weight="bold" font-size="10.00" fill="orange">DRAG(0,IDD_EYEWAND)</text>
</g>
<!-- 20 -->
<g id="node4" class="node">
<title>20</title>
<polyline fill="none" stroke="darkred" points="262.3,-100.25 284.8,-100.25"/>
<text text-anchor="start" x="265.3" y="-107.45" font-family="Courier New" font-weight="bold" font-size="14.00">20</text>
<path fill="none" stroke="darkred" d="M268.8,-97.25C268.8,-97.25 278.3,-97.25 278.3,-97.25 283.05,-97.25 287.8,-102 287.8,-106.75 287.8,-106.75 287.8,-116.25 287.8,-116.25 287.8,-121 283.05,-125.75 278.3,-125.75 278.3,-125.75 268.8,-125.75 268.8,-125.75 264.05,-125.75 259.3,-121 259.3,-116.25 259.3,-116.25 259.3,-106.75 259.3,-106.75 259.3,-102 264.05,-97.25 268.8,-97.25"/>
</g>
<!-- 0&#45;&gt;20 -->
<g id="edge2" class="edge">
<title>0&#45;&gt;20</title>
<path fill="none" stroke="black" d="M258.75,-204.63C252.9,-197.84 245.64,-190.92 237.55,-186.5 197.16,-164.43 165.14,-203.77 135.55,-168.5 129.63,-161.43 129.9,-155.03 135.55,-147.75 147.74,-132.07 198.95,-122.19 235.43,-117"/>
<polygon fill="black" stroke="black" points="235.75,-120.49 245.19,-115.68 234.81,-113.55 235.75,-120.49"/>
<text text-anchor="start" x="139.55" y="-156" font-family="Courier New" font-weight="bold" font-size="10.00" fill="orange">DRAGFOCUS(0,FALSE)</text>
</g>
<!-- 0&#45;&gt;20 -->
<g id="edge3" class="edge">
<title>0&#45;&gt;20</title>
<path fill="none" stroke="black" d="M273.55,-204.51C273.55,-186.65 273.55,-160.81 273.55,-141.07"/>
<polygon fill="black" stroke="black" points="277.05,-141.2 273.55,-131.2 270.05,-141.2 277.05,-141.2"/>
<text text-anchor="start" x="277.55" y="-156" font-family="Courier New" font-weight="bold" font-size="10.00" fill="orange">WAIT(0,SIG_INIT)</text>
</g>
<!-- 11 -->
<g id="node5" class="node">
<title>11</title>
<polyline fill="none" stroke="darkred" points="275.3,-7 297.8,-7"/>
<text text-anchor="start" x="278.3" y="-14.2" font-family="Courier New" font-weight="bold" font-size="14.00">11</text>
<path fill="none" stroke="darkred" d="M281.8,-4C281.8,-4 291.3,-4 291.3,-4 296.05,-4 300.8,-8.75 300.8,-13.5 300.8,-13.5 300.8,-23 300.8,-23 300.8,-27.75 296.05,-32.5 291.3,-32.5 291.3,-32.5 281.8,-32.5 281.8,-32.5 277.05,-32.5 272.3,-27.75 272.3,-23 272.3,-23 272.3,-13.5 272.3,-13.5 272.3,-8.75 277.05,-4 281.8,-4"/>
</g>
<!-- 10&#45;&gt;11 -->
<g id="edge4" class="edge">
<title>10&#45;&gt;11</title>
<path fill="none" stroke="black" d="M122.51,-97.62C155.79,-81.72 212.52,-54.62 249.78,-36.82"/>
<polygon fill="black" stroke="black" points="250.85,-40.19 258.37,-32.72 247.83,-33.87 250.85,-40.19"/>
<text text-anchor="start" x="212.55" y="-62.75" font-family="Courier New" font-weight="bold" font-size="10.00" fill="blue">MOV(WSPRITE,WIP1)</text>
</g>
<!-- 20&#45;&gt;0 -->
<g id="edge6" class="edge">
<title>20&#45;&gt;0</title>
<path fill="none" stroke="black" d="M300.14,-113.2C324.98,-115.44 360.82,-123.08 378.55,-147.75 383.94,-155.24 384.19,-161.2 378.55,-168.5 359.18,-193.58 336.73,-170.2 309.55,-186.5 304.96,-189.26 300.59,-192.78 296.58,-196.57"/>
<polygon fill="black" stroke="black" points="294.35,-193.84 289.96,-203.48 299.41,-198.68 294.35,-193.84"/>
<text text-anchor="start" x="386.55" y="-156" font-family="Courier New" font-weight="bold" font-size="10.00" fill="blue">SHOW(0,0)</text>
</g>
<!-- 11&#45;&gt;0 -->
<g id="edge5" class="edge">
<title>11&#45;&gt;0</title>
<path fill="none" stroke="black" d="M313.23,-29.13C371.13,-51.98 499.17,-110.91 448.55,-168.5 427.99,-191.9 337.22,-172.2 309.55,-186.5 304.69,-189.01 300.15,-192.46 296.04,-196.27"/>
<polygon fill="black" stroke="black" points="293.68,-193.68 289.29,-203.32 298.73,-198.51 293.68,-193.68"/>
<text text-anchor="start" x="461.55" y="-109.38" font-family="Courier New" font-weight="bold" font-size="10.00" fill="blue">SHOW(WSPRITE,)</text>
</g>
<!-- status -->
<g id="node6" class="node">
<title>status</title>
<polygon fill="none" stroke="black" points="318.55,-187 318.55,-266 676.55,-266 676.55,-187 318.55,-187"/>
<polygon fill="none" stroke="black" points="329.55,-240.25 329.55,-259 665.55,-259 665.55,-240.25 329.55,-240.25"/>
<text text-anchor="start" x="464.55" y="-247.5" font-family="Courier New" font-weight="bold" font-size="10.00">S24_EYETEXT</text>
<polygon fill="none" stroke="black" points="329.55,-194 329.55,-238.25 665.55,-238.25 665.55,-194 329.55,-194"/>
<text text-anchor="start" x="332.55" y="-225.75" font-family="Courier New" font-size="10.00" fill="green">VIEW::IDV_EYEC1P @pos(x:54, y:155, w:38, h:499)</text>
<text text-anchor="start" x="332.55" y="-213" font-family="Courier New" font-size="10.00" fill="green">S24_EYETEXT::M24_EYETEXT(&#39;IDS_EYENGLSH&#39;,&#39;&#39;,&#39;&#39;,&#39;&#39;,&#39;&#39;,&#39;&#39;)</text>
<text text-anchor="start" x="332.55" y="-200.25" font-family="Courier New" font-size="10.00" fill="green">{state:&#39;0&#39;: Top:155 Left:54</text>
<polygon fill="none" stroke="black" points="326.55,-191 326.55,-262 668.55,-262 668.55,-191 326.55,-191"/>
</g>
</g>
</svg>
