<?xml version="1.0" encoding="UTF-8" standalone="no"?>
<!DOCTYPE svg PUBLIC "-//W3C//DTD SVG 1.1//EN"
 "http://www.w3.org/Graphics/SVG/1.1/DTD/svg11.dtd">
<!-- Generated by graphviz version 10.0.1 (20240210.2158)
 -->
<!-- Title: Automaton Pages: 1 -->
<svg width="808pt" height="1358pt"
 viewBox="0.00 0.00 808.00 1357.75" xmlns="http://www.w3.org/2000/svg" xmlns:xlink="http://www.w3.org/1999/xlink">
<g id="graph0" class="graph" transform="scale(1 1) rotate(0) translate(4 1353.75)">
<title>Automaton</title>
<polygon fill="white" stroke="none" points="-4,4 -4,-1353.75 804,-1353.75 804,4 -4,4"/>
<!-- filename -->
<g id="node1" class="node">
<title>filename</title>
<polygon fill="none" stroke="black" points="0,-1283 0,-1336.5 190,-1336.5 190,-1283 0,-1283"/>
<polygon fill="none" stroke="black" points="11,-1310.75 11,-1329.5 179,-1329.5 179,-1310.75 11,-1310.75"/>
<text text-anchor="start" x="14" y="-1318" font-family="Courier New" font-weight="bold" font-size="10.00">S24_EYEPLATE1::M24_EYEPLATE</text>
<polygon fill="none" stroke="black" points="11,-1290 11,-1308.75 179,-1308.75 179,-1290 11,-1290"/>
<text text-anchor="start" x="50" y="-1296.25" font-family="Courier New" font-size="10.00" fill="brown">start state = 0</text>
<polygon fill="none" stroke="black" points="8,-1287 8,-1332.5 182,-1332.5 182,-1287 8,-1287"/>
</g>
<!-- 0 -->
<g id="node2" class="node">
<title>0</title>
<polyline fill="none" stroke="darkred" points="227.88,-1298.5 242.12,-1298.5"/>
<text text-anchor="start" x="230.88" y="-1305.7" font-family="Courier New" font-weight="bold" font-size="14.00">0</text>
<path fill="none" stroke="darkred" d="M231.62,-1295.5C231.62,-1295.5 238.38,-1295.5 238.38,-1295.5 241.75,-1295.5 245.12,-1298.88 245.12,-1302.25 245.12,-1302.25 245.12,-1317.25 245.12,-1317.25 245.12,-1320.62 241.75,-1324 238.38,-1324 238.38,-1324 231.62,-1324 231.62,-1324 228.25,-1324 224.88,-1320.62 224.88,-1317.25 224.88,-1317.25 224.88,-1302.25 224.88,-1302.25 224.88,-1298.88 228.25,-1295.5 231.62,-1295.5"/>
</g>
<!-- 1 -->
<g id="node3" class="node">
<title>1</title>
<polyline fill="none" stroke="darkred" points="96.88,-1158.75 111.12,-1158.75"/>
<text text-anchor="start" x="99.88" y="-1165.95" font-family="Courier New" font-weight="bold" font-size="14.00">1</text>
<path fill="none" stroke="darkred" d="M100.62,-1155.75C100.62,-1155.75 107.38,-1155.75 107.38,-1155.75 110.75,-1155.75 114.12,-1159.12 114.12,-1162.5 114.12,-1162.5 114.12,-1177.5 114.12,-1177.5 114.12,-1180.88 110.75,-1184.25 107.38,-1184.25 107.38,-1184.25 100.62,-1184.25 100.62,-1184.25 97.25,-1184.25 93.88,-1180.88 93.88,-1177.5 93.88,-1177.5 93.88,-1162.5 93.88,-1162.5 93.88,-1159.12 97.25,-1155.75 100.62,-1155.75"/>
</g>
<!-- 0&#45;&gt;1 -->
<g id="edge1" class="edge">
<title>0&#45;&gt;1</title>
<path fill="none" stroke="black" d="M223.04,-1291.82C216.72,-1284.03 208.34,-1275.31 199,-1269.75 171.03,-1253.1 151.48,-1274.3 128,-1251.75 113.86,-1238.17 107.95,-1216.67 105.52,-1199.27"/>
<polygon fill="black" stroke="black" points="109.02,-1199.11 104.5,-1189.53 102.06,-1199.84 109.02,-1199.11"/>
<polygon fill="none" stroke="black" points="131,-1230 131,-1248.75 347,-1248.75 347,-1230 131,-1230"/>
<text text-anchor="start" x="185" y="-1237.25" font-family="Courier New" font-weight="bold" font-size="10.00" fill="orange">DROP(IDD_EYEFUSE,)</text>
<polygon fill="none" stroke="black" points="131,-1209.25 131,-1228 347,-1228 347,-1209.25 131,-1209.25"/>
<text text-anchor="start" x="134" y="-1215.5" font-family="Courier New" font-size="10.00" fill="blue">ADDI(LWISDOM,2); SIGNALi(0,SID_ID);</text>
<polygon fill="none" stroke="black" points="128,-1206.25 128,-1251.75 350,-1251.75 350,-1206.25 128,-1206.25"/>
</g>
<!-- 2 -->
<g id="node4" class="node">
<title>2</title>
<polyline fill="none" stroke="darkred" points="80.88,-1065.5 95.12,-1065.5"/>
<text text-anchor="start" x="83.88" y="-1072.7" font-family="Courier New" font-weight="bold" font-size="14.00">2</text>
<path fill="none" stroke="darkred" d="M84.62,-1062.5C84.62,-1062.5 91.38,-1062.5 91.38,-1062.5 94.75,-1062.5 98.12,-1065.88 98.12,-1069.25 98.12,-1069.25 98.12,-1084.25 98.12,-1084.25 98.12,-1087.62 94.75,-1091 91.38,-1091 91.38,-1091 84.62,-1091 84.62,-1091 81.25,-1091 77.88,-1087.62 77.88,-1084.25 77.88,-1084.25 77.88,-1069.25 77.88,-1069.25 77.88,-1065.88 81.25,-1062.5 84.62,-1062.5"/>
</g>
<!-- 1&#45;&gt;2 -->
<g id="edge2" class="edge">
<title>1&#45;&gt;2</title>
<path fill="none" stroke="black" d="M100.99,-1151.84C98.73,-1138.96 95.59,-1121.06 92.97,-1106.07"/>
<polygon fill="black" stroke="black" points="96.43,-1105.57 91.26,-1096.33 89.54,-1106.78 96.43,-1105.57"/>
<text text-anchor="start" x="102" y="-1121.25" font-family="Courier New" font-weight="bold" font-size="10.00" fill="blue">SIGNALi(0,S24_BIGEYE)</text>
</g>
<!-- 3 -->
<g id="node5" class="node">
<title>3</title>
<polyline fill="none" stroke="darkred" points="76.88,-972.25 91.12,-972.25"/>
<text text-anchor="start" x="79.88" y="-979.45" font-family="Courier New" font-weight="bold" font-size="14.00">3</text>
<path fill="none" stroke="darkred" d="M80.62,-969.25C80.62,-969.25 87.38,-969.25 87.38,-969.25 90.75,-969.25 94.12,-972.62 94.12,-976 94.12,-976 94.12,-991 94.12,-991 94.12,-994.38 90.75,-997.75 87.38,-997.75 87.38,-997.75 80.62,-997.75 80.62,-997.75 77.25,-997.75 73.88,-994.38 73.88,-991 73.88,-991 73.88,-976 73.88,-976 73.88,-972.62 77.25,-969.25 80.62,-969.25"/>
</g>
<!-- 2&#45;&gt;3 -->
<g id="edge3" class="edge">
<title>2&#45;&gt;3</title>
<path fill="none" stroke="black" d="M87.25,-1058.59C86.68,-1045.71 85.9,-1027.81 85.24,-1012.82"/>
<polygon fill="black" stroke="black" points="88.75,-1012.94 84.82,-1003.1 81.76,-1013.24 88.75,-1012.94"/>
<text text-anchor="start" x="91" y="-1028" font-family="Courier New" font-weight="bold" font-size="10.00" fill="blue">Z_EPSILON(,)</text>
</g>
<!-- 4 -->
<g id="node6" class="node">
<title>4</title>
<polyline fill="none" stroke="darkred" points="75.88,-879 90.12,-879"/>
<text text-anchor="start" x="78.88" y="-886.2" font-family="Courier New" font-weight="bold" font-size="14.00">4</text>
<path fill="none" stroke="darkred" d="M79.62,-876C79.62,-876 86.38,-876 86.38,-876 89.75,-876 93.12,-879.38 93.12,-882.75 93.12,-882.75 93.12,-897.75 93.12,-897.75 93.12,-901.12 89.75,-904.5 86.38,-904.5 86.38,-904.5 79.62,-904.5 79.62,-904.5 76.25,-904.5 72.88,-901.12 72.88,-897.75 72.88,-897.75 72.88,-882.75 72.88,-882.75 72.88,-879.38 76.25,-876 79.62,-876"/>
</g>
<!-- 3&#45;&gt;4 -->
<g id="edge4" class="edge">
<title>3&#45;&gt;4</title>
<path fill="none" stroke="black" d="M83.81,-965.34C83.67,-952.46 83.47,-934.56 83.31,-919.57"/>
<polygon fill="black" stroke="black" points="86.81,-919.81 83.2,-909.85 79.81,-919.89 86.81,-919.81"/>
<text text-anchor="start" x="88" y="-934.75" font-family="Courier New" font-weight="bold" font-size="10.00" fill="blue">ASHOW(0,IDS_EYEPLATE)</text>
</g>
<!-- 5 -->
<g id="node7" class="node">
<title>5</title>
<polyline fill="none" stroke="darkred" points="75.88,-785.75 90.12,-785.75"/>
<text text-anchor="start" x="78.88" y="-792.95" font-family="Courier New" font-weight="bold" font-size="14.00">5</text>
<path fill="none" stroke="darkred" d="M79.62,-782.75C79.62,-782.75 86.38,-782.75 86.38,-782.75 89.75,-782.75 93.12,-786.12 93.12,-789.5 93.12,-789.5 93.12,-804.5 93.12,-804.5 93.12,-807.88 89.75,-811.25 86.38,-811.25 86.38,-811.25 79.62,-811.25 79.62,-811.25 76.25,-811.25 72.88,-807.88 72.88,-804.5 72.88,-804.5 72.88,-789.5 72.88,-789.5 72.88,-786.12 76.25,-782.75 79.62,-782.75"/>
</g>
<!-- 4&#45;&gt;5 -->
<g id="edge5" class="edge">
<title>4&#45;&gt;5</title>
<path fill="none" stroke="black" d="M83,-872.09C83,-859.21 83,-841.31 83,-826.32"/>
<polygon fill="black" stroke="black" points="86.5,-826.6 83,-816.6 79.5,-826.6 86.5,-826.6"/>
<text text-anchor="start" x="87" y="-841.5" font-family="Courier New" font-weight="bold" font-size="10.00" fill="blue">SIGNAL(WIP1,SIG_SHOW)</text>
</g>
<!-- 6 -->
<g id="node8" class="node">
<title>6</title>
<polyline fill="none" stroke="darkred" stroke-width="3" points="75.38,-688 90.62,-688"/>
<text text-anchor="start" x="78.88" y="-695.7" font-family="Courier New" font-weight="bold" font-size="14.00">6</text>
<path fill="none" stroke="darkred" stroke-width="3" d="M78.79,-683C78.79,-683 87.21,-683 87.21,-683 91.42,-683 95.62,-687.21 95.62,-691.42 95.62,-691.42 95.62,-708.08 95.62,-708.08 95.62,-712.29 91.42,-716.5 87.21,-716.5 87.21,-716.5 78.79,-716.5 78.79,-716.5 74.58,-716.5 70.38,-712.29 70.38,-708.08 70.38,-708.08 70.38,-691.42 70.38,-691.42 70.38,-687.21 74.58,-683 78.79,-683"/>
</g>
<!-- 5&#45;&gt;6 -->
<g id="edge6" class="edge">
<title>5&#45;&gt;6</title>
<path fill="none" stroke="black" d="M83,-778.97C83,-766.26 83,-748.52 83,-733.14"/>
<polygon fill="black" stroke="black" points="86.5,-733.48 83,-723.48 79.5,-733.48 86.5,-733.48"/>
<text text-anchor="start" x="87" y="-748.25" font-family="Courier New" font-weight="bold" font-size="10.00" fill="blue">SIGNAL(WIP2,SIG_SHOW)</text>
</g>
<!-- 50 -->
<g id="node9" class="node">
<title>50</title>
<polyline fill="none" stroke="darkred" points="78.75,-566.5 101.25,-566.5"/>
<text text-anchor="start" x="81.75" y="-573.7" font-family="Courier New" font-weight="bold" font-size="14.00">50</text>
<path fill="none" stroke="darkred" d="M85.25,-563.5C85.25,-563.5 94.75,-563.5 94.75,-563.5 99.5,-563.5 104.25,-568.25 104.25,-573 104.25,-573 104.25,-582.5 104.25,-582.5 104.25,-587.25 99.5,-592 94.75,-592 94.75,-592 85.25,-592 85.25,-592 80.5,-592 75.75,-587.25 75.75,-582.5 75.75,-582.5 75.75,-573 75.75,-573 75.75,-568.25 80.5,-563.5 85.25,-563.5"/>
</g>
<!-- 6&#45;&gt;50 -->
<g id="edge14" class="edge">
<title>6&#45;&gt;50</title>
<path fill="none" stroke="black" d="M82.34,-677.81C82.01,-660.63 82.04,-635.69 84,-614 84.2,-611.77 84.46,-609.48 84.77,-607.17"/>
<polygon fill="black" stroke="black" points="88.21,-607.81 86.29,-597.39 81.3,-606.73 88.21,-607.81"/>
<polygon fill="none" stroke="black" points="87,-637.75 87,-656.5 339,-656.5 339,-637.75 87,-637.75"/>
<text text-anchor="start" x="168" y="-645" font-family="Courier New" font-weight="bold" font-size="10.00" fill="orange">DROP(IDC_BOMB,)</text>
<polygon fill="none" stroke="black" points="87,-617 87,-635.75 339,-635.75 339,-617 87,-617"/>
<text text-anchor="start" x="90" y="-623.25" font-family="Courier New" font-size="10.00" fill="blue">SUBI(LKARMA,1); SIGNAL(SID_HALO,SIG_ADD);</text>
<polygon fill="none" stroke="black" points="84,-614 84,-659.5 342,-659.5 342,-614 84,-614"/>
</g>
<!-- 51 -->
<g id="node10" class="node">
<title>51</title>
<polyline fill="none" stroke="darkred" points="159.75,-473.25 182.25,-473.25"/>
<text text-anchor="start" x="162.75" y="-480.45" font-family="Courier New" font-weight="bold" font-size="14.00">51</text>
<path fill="none" stroke="darkred" d="M166.25,-470.25C166.25,-470.25 175.75,-470.25 175.75,-470.25 180.5,-470.25 185.25,-475 185.25,-479.75 185.25,-479.75 185.25,-489.25 185.25,-489.25 185.25,-494 180.5,-498.75 175.75,-498.75 175.75,-498.75 166.25,-498.75 166.25,-498.75 161.5,-498.75 156.75,-494 156.75,-489.25 156.75,-489.25 156.75,-479.75 156.75,-479.75 156.75,-475 161.5,-470.25 166.25,-470.25"/>
</g>
<!-- 50&#45;&gt;51 -->
<g id="edge7" class="edge">
<title>50&#45;&gt;51</title>
<path fill="none" stroke="black" d="M105.24,-559.59C117.34,-545.95 134.46,-526.66 148.2,-511.19"/>
<polygon fill="black" stroke="black" points="150.81,-513.52 154.83,-503.72 145.57,-508.87 150.81,-513.52"/>
<text text-anchor="start" x="142" y="-529" font-family="Courier New" font-weight="bold" font-size="10.00" fill="blue">VIDEO(0,IDS_EXPLODE1)</text>
</g>
<!-- 52 -->
<g id="node11" class="node">
<title>52</title>
<polyline fill="none" stroke="darkred" points="181.75,-380 204.25,-380"/>
<text text-anchor="start" x="184.75" y="-387.2" font-family="Courier New" font-weight="bold" font-size="14.00">52</text>
<path fill="none" stroke="darkred" d="M188.25,-377C188.25,-377 197.75,-377 197.75,-377 202.5,-377 207.25,-381.75 207.25,-386.5 207.25,-386.5 207.25,-396 207.25,-396 207.25,-400.75 202.5,-405.5 197.75,-405.5 197.75,-405.5 188.25,-405.5 188.25,-405.5 183.5,-405.5 178.75,-400.75 178.75,-396 178.75,-396 178.75,-386.5 178.75,-386.5 178.75,-381.75 183.5,-377 188.25,-377"/>
</g>
<!-- 51&#45;&gt;52 -->
<g id="edge8" class="edge">
<title>51&#45;&gt;52</title>
<path fill="none" stroke="black" d="M175.14,-466.34C178.27,-453.34 182.64,-435.2 186.28,-420.13"/>
<polygon fill="black" stroke="black" points="189.58,-421.35 188.53,-410.81 182.78,-419.71 189.58,-421.35"/>
<text text-anchor="start" x="188" y="-435.75" font-family="Courier New" font-weight="bold" font-size="10.00" fill="blue">PLAYWAVE(0,SOUND_EXPLODE)</text>
</g>
<!-- 53 -->
<g id="node12" class="node">
<title>53</title>
<polyline fill="none" stroke="darkred" points="199.75,-286.75 222.25,-286.75"/>
<text text-anchor="start" x="202.75" y="-293.95" font-family="Courier New" font-weight="bold" font-size="14.00">53</text>
<path fill="none" stroke="darkred" d="M206.25,-283.75C206.25,-283.75 215.75,-283.75 215.75,-283.75 220.5,-283.75 225.25,-288.5 225.25,-293.25 225.25,-293.25 225.25,-302.75 225.25,-302.75 225.25,-307.5 220.5,-312.25 215.75,-312.25 215.75,-312.25 206.25,-312.25 206.25,-312.25 201.5,-312.25 196.75,-307.5 196.75,-302.75 196.75,-302.75 196.75,-293.25 196.75,-293.25 196.75,-288.5 201.5,-283.75 206.25,-283.75"/>
</g>
<!-- 52&#45;&gt;53 -->
<g id="edge9" class="edge">
<title>52&#45;&gt;53</title>
<path fill="none" stroke="black" d="M196.39,-373.09C198.92,-360.21 202.46,-342.31 205.41,-327.32"/>
<polygon fill="black" stroke="black" points="208.84,-328.06 207.34,-317.57 201.97,-326.7 208.84,-328.06"/>
<text text-anchor="start" x="208" y="-342.5" font-family="Courier New" font-weight="bold" font-size="10.00" fill="blue">SHOW(0,0)</text>
</g>
<!-- 54 -->
<g id="node13" class="node">
<title>54</title>
<polyline fill="none" stroke="darkred" points="203.75,-193.5 226.25,-193.5"/>
<text text-anchor="start" x="206.75" y="-200.7" font-family="Courier New" font-weight="bold" font-size="14.00">54</text>
<path fill="none" stroke="darkred" d="M210.25,-190.5C210.25,-190.5 219.75,-190.5 219.75,-190.5 224.5,-190.5 229.25,-195.25 229.25,-200 229.25,-200 229.25,-209.5 229.25,-209.5 229.25,-214.25 224.5,-219 219.75,-219 219.75,-219 210.25,-219 210.25,-219 205.5,-219 200.75,-214.25 200.75,-209.5 200.75,-209.5 200.75,-200 200.75,-200 200.75,-195.25 205.5,-190.5 210.25,-190.5"/>
</g>
<!-- 53&#45;&gt;54 -->
<g id="edge10" class="edge">
<title>53&#45;&gt;54</title>
<path fill="none" stroke="black" d="M211.75,-279.84C212.32,-266.96 213.1,-249.06 213.76,-234.07"/>
<polygon fill="black" stroke="black" points="217.24,-234.49 214.18,-224.35 210.25,-234.19 217.24,-234.49"/>
<text text-anchor="start" x="218" y="-249.25" font-family="Courier New" font-weight="bold" font-size="10.00" fill="blue">SIGNAL(WIP1,SIG_HIDE)</text>
</g>
<!-- 55 -->
<g id="node14" class="node">
<title>55</title>
<polyline fill="none" stroke="darkred" points="217.75,-100.25 240.25,-100.25"/>
<text text-anchor="start" x="220.75" y="-107.45" font-family="Courier New" font-weight="bold" font-size="14.00">55</text>
<path fill="none" stroke="darkred" d="M224.25,-97.25C224.25,-97.25 233.75,-97.25 233.75,-97.25 238.5,-97.25 243.25,-102 243.25,-106.75 243.25,-106.75 243.25,-116.25 243.25,-116.25 243.25,-121 238.5,-125.75 233.75,-125.75 233.75,-125.75 224.25,-125.75 224.25,-125.75 219.5,-125.75 214.75,-121 214.75,-116.25 214.75,-116.25 214.75,-106.75 214.75,-106.75 214.75,-102 219.5,-97.25 224.25,-97.25"/>
</g>
<!-- 54&#45;&gt;55 -->
<g id="edge11" class="edge">
<title>54&#45;&gt;55</title>
<path fill="none" stroke="black" d="M213.84,-186.69C213.43,-175.52 213.58,-160.65 216,-147.75 216.44,-145.4 217.02,-142.99 217.7,-140.6"/>
<polygon fill="black" stroke="black" points="221,-141.77 220.85,-131.18 214.36,-139.55 221,-141.77"/>
<text text-anchor="start" x="220" y="-156" font-family="Courier New" font-weight="bold" font-size="10.00" fill="blue">SIGNAL(WIP2,SIG_HIDE)</text>
</g>
<!-- 56 -->
<g id="node15" class="node">
<title>56</title>
<polyline fill="none" stroke="darkred" points="291.75,-7 314.25,-7"/>
<text text-anchor="start" x="294.75" y="-14.2" font-family="Courier New" font-weight="bold" font-size="14.00">56</text>
<path fill="none" stroke="darkred" d="M298.25,-4C298.25,-4 307.75,-4 307.75,-4 312.5,-4 317.25,-8.75 317.25,-13.5 317.25,-13.5 317.25,-23 317.25,-23 317.25,-27.75 312.5,-32.5 307.75,-32.5 307.75,-32.5 298.25,-32.5 298.25,-32.5 293.5,-32.5 288.75,-27.75 288.75,-23 288.75,-23 288.75,-13.5 288.75,-13.5 288.75,-8.75 293.5,-4 298.25,-4"/>
</g>
<!-- 55&#45;&gt;56 -->
<g id="edge12" class="edge">
<title>55&#45;&gt;56</title>
<path fill="none" stroke="black" d="M240.69,-93.44C248.62,-82.13 259.54,-67.12 270,-54.5 272.67,-51.28 275.56,-47.97 278.47,-44.74"/>
<polygon fill="black" stroke="black" points="280.89,-47.28 285.1,-37.56 275.74,-42.53 280.89,-47.28"/>
<text text-anchor="start" x="274" y="-62.75" font-family="Courier New" font-weight="bold" font-size="10.00" fill="blue">Z_EPSILON(,)</text>
</g>
<!-- 56&#45;&gt;0 -->
<g id="edge13" class="edge">
<title>56&#45;&gt;0</title>
<path fill="none" stroke="black" d="M329.76,-34.49C337.28,-39.93 344.81,-46.68 350,-54.5 364.19,-75.87 364,-84.85 364,-110.5 364,-1171 364,-1171 364,-1171 364,-1207.42 375.07,-1225.33 350,-1251.75 325.21,-1277.87 302.17,-1251.71 271,-1269.75 264.97,-1273.24 259.36,-1278.07 254.46,-1283.14"/>
<polygon fill="black" stroke="black" points="251.89,-1280.76 247.9,-1290.58 257.14,-1285.39 251.89,-1280.76"/>
<text text-anchor="start" x="368" y="-634.62" font-family="Courier New" font-weight="bold" font-size="10.00" fill="blue">SIGNALi(SIG_BOMB,S24_BIGEYE)</text>
</g>
<!-- status -->
<g id="node16" class="node">
<title>status</title>
<polygon fill="none" stroke="black" points="280,-1270.25 280,-1349.25 800,-1349.25 800,-1270.25 280,-1270.25"/>
<polygon fill="none" stroke="black" points="291,-1323.5 291,-1342.25 789,-1342.25 789,-1323.5 291,-1323.5"/>
<text text-anchor="start" x="501" y="-1330.75" font-family="Courier New" font-weight="bold" font-size="10.00">S24_EYEPLATE1</text>
<polygon fill="none" stroke="black" points="291,-1277.25 291,-1321.5 789,-1321.5 789,-1277.25 291,-1277.25"/>
<text text-anchor="start" x="294" y="-1309" font-family="Courier New" font-size="10.00" fill="green">VIEW::IDV_EYEC1P @pos(x:200, y:28, w:35, h:60)</text>
<text text-anchor="start" x="294" y="-1296.25" font-family="Courier New" font-size="10.00" fill="green">S24_EYEPLATE1::M24_EYEPLATE(&#39;S24_ALTa_EYEPLATE1&#39;,&#39;S24_ALTb_EYEPLATE1&#39;,&#39;&#39;,&#39;&#39;,&#39;&#39;,&#39;&#39;)</text>
<text text-anchor="start" x="294" y="-1283.5" font-family="Courier New" font-size="10.00" fill="green">{state:&#39;6&#39;: wObject:IDD_EYEFUSE wSprite:IDS_EYEPLATE Top:28 Left:200</text>
<polygon fill="none" stroke="black" points="288,-1274.25 288,-1345.25 792,-1345.25 792,-1274.25 288,-1274.25"/>
</g>
</g>
</svg>
