<?xml version="1.0" encoding="UTF-8" standalone="no"?>
<!DOCTYPE svg PUBLIC "-//W3C//DTD SVG 1.1//EN"
 "http://www.w3.org/Graphics/SVG/1.1/DTD/svg11.dtd">
<!-- Generated by graphviz version 10.0.1 (20240210.2158)
 -->
<!-- Title: Automaton Pages: 1 -->
<svg width="3497pt" height="1195pt"
 viewBox="0.00 0.00 3497.00 1194.50" xmlns="http://www.w3.org/2000/svg" xmlns:xlink="http://www.w3.org/1999/xlink">
<g id="graph0" class="graph" transform="scale(1 1) rotate(0) translate(4 1190.5)">
<title>Automaton</title>
<polygon fill="white" stroke="none" points="-4,4 -4,-1190.5 3493,-1190.5 3493,4 -4,4"/>
<!-- filename -->
<g id="node1" class="node">
<title>filename</title>
<polygon fill="none" stroke="black" points="1549,-1119.75 1549,-1173.25 1709,-1173.25 1709,-1119.75 1549,-1119.75"/>
<polygon fill="none" stroke="black" points="1560,-1147.5 1560,-1166.25 1698,-1166.25 1698,-1147.5 1560,-1147.5"/>
<text text-anchor="start" x="1563" y="-1154.75" font-family="Courier New" font-weight="bold" font-size="10.00">S24_BIGEYE::M24_BIGEYE</text>
<polygon fill="none" stroke="black" points="1560,-1126.75 1560,-1145.5 1698,-1145.5 1698,-1126.75 1560,-1126.75"/>
<text text-anchor="start" x="1584" y="-1133" font-family="Courier New" font-size="10.00" fill="brown">start state = 0</text>
<polygon fill="none" stroke="black" points="1557,-1123.75 1557,-1169.25 1701,-1169.25 1701,-1123.75 1557,-1123.75"/>
</g>
<!-- 0 -->
<g id="node2" class="node">
<title>0</title>
<polyline fill="none" stroke="darkred" points="1746.88,-1135.25 1761.12,-1135.25"/>
<text text-anchor="start" x="1749.88" y="-1142.45" font-family="Courier New" font-weight="bold" font-size="14.00">0</text>
<path fill="none" stroke="darkred" d="M1750.62,-1132.25C1750.62,-1132.25 1757.38,-1132.25 1757.38,-1132.25 1760.75,-1132.25 1764.12,-1135.62 1764.12,-1139 1764.12,-1139 1764.12,-1154 1764.12,-1154 1764.12,-1157.38 1760.75,-1160.75 1757.38,-1160.75 1757.38,-1160.75 1750.62,-1160.75 1750.62,-1160.75 1747.25,-1160.75 1743.88,-1157.38 1743.88,-1154 1743.88,-1154 1743.88,-1139 1743.88,-1139 1743.88,-1135.62 1747.25,-1132.25 1750.62,-1132.25"/>
</g>
<!-- 1 -->
<g id="node3" class="node">
<title>1</title>
<polyline fill="none" stroke="darkred" points="1464.88,-1020.25 1479.12,-1020.25"/>
<text text-anchor="start" x="1467.88" y="-1027.45" font-family="Courier New" font-weight="bold" font-size="14.00">1</text>
<path fill="none" stroke="darkred" d="M1468.62,-1017.25C1468.62,-1017.25 1475.38,-1017.25 1475.38,-1017.25 1478.75,-1017.25 1482.12,-1020.62 1482.12,-1024 1482.12,-1024 1482.12,-1039 1482.12,-1039 1482.12,-1042.38 1478.75,-1045.75 1475.38,-1045.75 1475.38,-1045.75 1468.62,-1045.75 1468.62,-1045.75 1465.25,-1045.75 1461.88,-1042.38 1461.88,-1039 1461.88,-1039 1461.88,-1024 1461.88,-1024 1461.88,-1020.62 1465.25,-1017.25 1468.62,-1017.25"/>
</g>
<!-- 0&#45;&gt;1 -->
<g id="edge1" class="edge">
<title>0&#45;&gt;1</title>
<path fill="none" stroke="black" d="M1743.1,-1128.55C1736.83,-1120.35 1728.18,-1111.27 1718,-1106.5 1682.34,-1089.79 1391.13,-1117.05 1364,-1088.5 1339.51,-1062.74 1393.89,-1046.65 1434.03,-1038.64"/>
<polygon fill="black" stroke="black" points="1434.48,-1042.12 1443.66,-1036.83 1433.19,-1035.24 1434.48,-1042.12"/>
<text text-anchor="start" x="1368" y="-1076" font-family="Courier New" font-weight="bold" font-size="10.00" fill="blue">MOV(WSPRITE,WIP1)</text>
</g>
<!-- 0&#45;&gt;1 -->
<g id="edge2" class="edge">
<title>0&#45;&gt;1</title>
<path fill="none" stroke="black" d="M1742.73,-1128.27C1736.47,-1120.21 1727.94,-1111.34 1718,-1106.5 1673.7,-1084.92 1537.21,-1116.97 1497,-1088.5 1487.68,-1081.9 1481.79,-1071.01 1478.08,-1060.57"/>
<polygon fill="black" stroke="black" points="1481.47,-1059.71 1475.28,-1051.11 1474.76,-1061.69 1481.47,-1059.71"/>
<text text-anchor="start" x="1501" y="-1076" font-family="Courier New" font-weight="bold" font-size="10.00" fill="blue">MOV(WSPRITE,WIP1)</text>
</g>
<!-- 0&#45;&gt;1 -->
<g id="edge3" class="edge">
<title>0&#45;&gt;1</title>
<path fill="none" stroke="black" d="M1742.15,-1128.38C1735.86,-1120.55 1727.47,-1111.84 1718,-1106.5 1683.23,-1086.89 1665.63,-1106.5 1630,-1088.5 1617.71,-1082.29 1619.12,-1074.29 1607,-1067.75 1576.59,-1051.35 1538.16,-1042.28 1510.09,-1037.47"/>
<polygon fill="black" stroke="black" points="1510.67,-1034.01 1500.24,-1035.89 1509.56,-1040.93 1510.67,-1034.01"/>
<text text-anchor="start" x="1634" y="-1076" font-family="Courier New" font-weight="bold" font-size="10.00" fill="blue">MOV(WSPRITE,WIP1)</text>
</g>
<!-- 2 -->
<g id="node4" class="node">
<title>2</title>
<polyline fill="none" stroke="darkred" points="1440.88,-927 1455.12,-927"/>
<text text-anchor="start" x="1443.88" y="-934.2" font-family="Courier New" font-weight="bold" font-size="14.00">2</text>
<path fill="none" stroke="darkred" d="M1444.62,-924C1444.62,-924 1451.38,-924 1451.38,-924 1454.75,-924 1458.12,-927.38 1458.12,-930.75 1458.12,-930.75 1458.12,-945.75 1458.12,-945.75 1458.12,-949.12 1454.75,-952.5 1451.38,-952.5 1451.38,-952.5 1444.62,-952.5 1444.62,-952.5 1441.25,-952.5 1437.88,-949.12 1437.88,-945.75 1437.88,-945.75 1437.88,-930.75 1437.88,-930.75 1437.88,-927.38 1441.25,-924 1444.62,-924"/>
</g>
<!-- 1&#45;&gt;2 -->
<g id="edge4" class="edge">
<title>1&#45;&gt;2</title>
<path fill="none" stroke="black" d="M1445.04,-1029.27C1399.65,-1026.58 1311.07,-1018.42 1292,-995.25 1258.37,-954.39 1353.58,-943.34 1409.86,-940.35"/>
<polygon fill="black" stroke="black" points="1409.88,-943.85 1419.71,-939.9 1409.56,-936.86 1409.88,-943.85"/>
<text text-anchor="start" x="1296" y="-982.75" font-family="Courier New" font-weight="bold" font-size="10.00" fill="blue">ASHOW(WSPRITE,V_LOOP)</text>
</g>
<!-- 1&#45;&gt;2 -->
<g id="edge5" class="edge">
<title>1&#45;&gt;2</title>
<path fill="none" stroke="black" d="M1458.21,-1013.55C1454.5,-1008.04 1450.97,-1001.68 1449,-995.25 1446.33,-986.56 1445.48,-976.75 1445.47,-967.79"/>
<polygon fill="black" stroke="black" points="1448.97,-967.93 1445.84,-957.81 1441.97,-967.67 1448.97,-967.93"/>
<text text-anchor="start" x="1453" y="-982.75" font-family="Courier New" font-weight="bold" font-size="10.00" fill="blue">ASHOW(WSPRITE,V_LOOP)</text>
</g>
<!-- 1&#45;&gt;2 -->
<g id="edge6" class="edge">
<title>1&#45;&gt;2</title>
<path fill="none" stroke="black" d="M1498.84,-1027.21C1538.94,-1021.19 1607.34,-1006.02 1583,-974.5 1571.18,-959.19 1521.56,-949.26 1485.91,-943.96"/>
<polygon fill="black" stroke="black" points="1486.78,-940.55 1476.39,-942.61 1485.8,-947.48 1486.78,-940.55"/>
<text text-anchor="start" x="1592" y="-982.75" font-family="Courier New" font-weight="bold" font-size="10.00" fill="blue">ASHOW(WSPRITE,V_LOOP)</text>
</g>
<!-- 5 -->
<g id="node8" class="node">
<title>5</title>
<polyline fill="none" stroke="darkred" points="1440.88,-833.75 1455.12,-833.75"/>
<text text-anchor="start" x="1443.88" y="-840.95" font-family="Courier New" font-weight="bold" font-size="14.00">5</text>
<path fill="none" stroke="darkred" d="M1444.62,-830.75C1444.62,-830.75 1451.38,-830.75 1451.38,-830.75 1454.75,-830.75 1458.12,-834.12 1458.12,-837.5 1458.12,-837.5 1458.12,-852.5 1458.12,-852.5 1458.12,-855.88 1454.75,-859.25 1451.38,-859.25 1451.38,-859.25 1444.62,-859.25 1444.62,-859.25 1441.25,-859.25 1437.88,-855.88 1437.88,-852.5 1437.88,-852.5 1437.88,-837.5 1437.88,-837.5 1437.88,-834.12 1441.25,-830.75 1444.62,-830.75"/>
</g>
<!-- 2&#45;&gt;5 -->
<g id="edge25" class="edge">
<title>2&#45;&gt;5</title>
<path fill="none" stroke="black" d="M1421.11,-933.92C1386.34,-929.01 1328.71,-918.55 1316,-902 1289.25,-867.16 1362.08,-853.75 1409.93,-848.77"/>
<polygon fill="black" stroke="black" points="1410.06,-852.27 1419.68,-847.85 1409.4,-845.31 1410.06,-852.27"/>
<text text-anchor="start" x="1320" y="-889.5" font-family="Courier New" font-weight="bold" font-size="10.00" fill="blue">ANIMATE(0,V_LOOP)</text>
</g>
<!-- 2&#45;&gt;5 -->
<g id="edge26" class="edge">
<title>2&#45;&gt;5</title>
<path fill="none" stroke="black" d="M1448,-920.09C1448,-907.21 1448,-889.31 1448,-874.32"/>
<polygon fill="black" stroke="black" points="1451.5,-874.6 1448,-864.6 1444.5,-874.6 1451.5,-874.6"/>
<text text-anchor="start" x="1452" y="-889.5" font-family="Courier New" font-weight="bold" font-size="10.00" fill="blue">ANIMATE(0,V_LOOP)</text>
</g>
<!-- 2&#45;&gt;5 -->
<g id="edge27" class="edge">
<title>2&#45;&gt;5</title>
<path fill="none" stroke="black" d="M1474.57,-937.14C1500.83,-935.44 1539.78,-928.27 1559,-902 1580.34,-872.83 1526.26,-857.86 1486.3,-850.99"/>
<polygon fill="black" stroke="black" points="1486.89,-847.54 1476.46,-849.43 1485.79,-854.46 1486.89,-847.54"/>
<text text-anchor="start" x="1567" y="-889.5" font-family="Courier New" font-weight="bold" font-size="10.00" fill="blue">ANIMATE(0,V_LOOP)</text>
</g>
<!-- 10 -->
<g id="node5" class="node">
<title>10</title>
<polyline fill="none" stroke="darkred" points="1507.75,-546 1530.25,-546"/>
<text text-anchor="start" x="1510.75" y="-553.2" font-family="Courier New" font-weight="bold" font-size="14.00">10</text>
<path fill="none" stroke="darkred" d="M1514.25,-543C1514.25,-543 1523.75,-543 1523.75,-543 1528.5,-543 1533.25,-547.75 1533.25,-552.5 1533.25,-552.5 1533.25,-562 1533.25,-562 1533.25,-566.75 1528.5,-571.5 1523.75,-571.5 1523.75,-571.5 1514.25,-571.5 1514.25,-571.5 1509.5,-571.5 1504.75,-566.75 1504.75,-562 1504.75,-562 1504.75,-552.5 1504.75,-552.5 1504.75,-547.75 1509.5,-543 1514.25,-543"/>
</g>
<!-- 50 -->
<g id="node6" class="node">
<title>50</title>
<polyline fill="none" stroke="darkred" points="1364.75,-193.5 1387.25,-193.5"/>
<text text-anchor="start" x="1367.75" y="-200.7" font-family="Courier New" font-weight="bold" font-size="14.00">50</text>
<path fill="none" stroke="darkred" d="M1371.25,-190.5C1371.25,-190.5 1380.75,-190.5 1380.75,-190.5 1385.5,-190.5 1390.25,-195.25 1390.25,-200 1390.25,-200 1390.25,-209.5 1390.25,-209.5 1390.25,-214.25 1385.5,-219 1380.75,-219 1380.75,-219 1371.25,-219 1371.25,-219 1366.5,-219 1361.75,-214.25 1361.75,-209.5 1361.75,-209.5 1361.75,-200 1361.75,-200 1361.75,-195.25 1366.5,-190.5 1371.25,-190.5"/>
</g>
<!-- 10&#45;&gt;50 -->
<g id="edge7" class="edge">
<title>10&#45;&gt;50</title>
<path fill="none" stroke="black" d="M1545.66,-554.55C1594.87,-551.03 1703.06,-541.5 1792,-521 1918.58,-491.82 1947.07,-472.56 2069,-427.75 2092.36,-419.17 2096.85,-413.02 2121,-407 2156.79,-398.08 2261.37,-416.46 2286,-389 2318.42,-352.85 2318.91,-315.45 2286,-279.75 2226.06,-214.73 1579.09,-206.84 1414.11,-205.88"/>
<polygon fill="black" stroke="black" points="1414.18,-202.38 1404.16,-205.83 1414.14,-209.38 1414.18,-202.38"/>
<text text-anchor="start" x="2125" y="-415.25" font-family="Courier New" font-weight="bold" font-size="10.00" fill="blue">IFSTATEi(0,S24_EYEPLATE1)</text>
</g>
<!-- 10&#45;&gt;50 -->
<g id="edge8" class="edge">
<title>10&#45;&gt;50</title>
<path fill="none" stroke="black" d="M1545.63,-554.33C1664.96,-545.35 2150.34,-504.61 2279,-427.75 2288.71,-421.95 2308.09,-399.61 2312,-389 2328.77,-343.43 2339.37,-319.86 2312,-279.75 2285.36,-240.72 2259.24,-250.74 2213,-241 2057.27,-208.2 1556.11,-205.72 1413.93,-205.69"/>
<polygon fill="black" stroke="black" points="1414.32,-202.19 1404.32,-205.69 1414.32,-209.19 1414.32,-202.19"/>
<text text-anchor="start" x="2304" y="-415.25" font-family="Courier New" font-weight="bold" font-size="10.00" fill="blue">IFSTATEi(0,S24_EYEPLATE2)</text>
</g>
<!-- 10&#45;&gt;50 -->
<g id="edge9" class="edge">
<title>10&#45;&gt;50</title>
<path fill="none" stroke="black" d="M1545.99,-554.87C1614.75,-551.19 1801.97,-540.09 1957,-521 2061.19,-508.17 2086.76,-501.25 2190,-482.25 2312.52,-459.7 2507.39,-522.21 2460,-407 2417.09,-302.68 2376.25,-272.74 2268,-241 2185.3,-216.75 1572.89,-208.03 1413.72,-206.16"/>
<polygon fill="black" stroke="black" points="1414.19,-202.66 1404.15,-206.05 1414.11,-209.66 1414.19,-202.66"/>
<text text-anchor="start" x="2470" y="-415.25" font-family="Courier New" font-weight="bold" font-size="10.00" fill="blue">IFSTATEi(0,S24_EYEPLATE3)</text>
</g>
<!-- 10&#45;&gt;50 -->
<g id="edge10" class="edge">
<title>10&#45;&gt;50</title>
<path fill="none" stroke="black" d="M1545.84,-555C1622.76,-551.28 1850.56,-539.42 2039,-521 2174.12,-507.79 2207.92,-503.58 2342,-482.25 2471.81,-461.6 2692.02,-521.79 2628,-407 2575.58,-313.01 2519.15,-326.04 2422,-279.75 2374.83,-257.28 2362.34,-250.7 2311,-241 2134.81,-207.7 1567.14,-205.62 1414.24,-205.68"/>
<polygon fill="black" stroke="black" points="1414.25,-202.18 1404.26,-205.68 1414.26,-209.18 1414.25,-202.18"/>
<text text-anchor="start" x="2640" y="-415.25" font-family="Courier New" font-weight="bold" font-size="10.00" fill="blue">IFSTATEi(0,S24_EYESPELL1)</text>
</g>
<!-- 10&#45;&gt;50 -->
<g id="edge11" class="edge">
<title>10&#45;&gt;50</title>
<path fill="none" stroke="black" d="M1545.79,-555.62C1661.12,-552.6 2126.46,-537.48 2504,-482.25 2637.46,-462.73 2869.82,-521.16 2798,-407 2728.43,-296.41 2656.41,-322.66 2533,-279.75 2458.99,-254.01 2438.71,-251.06 2361,-241 2172.87,-216.66 1571.73,-208.04 1414.13,-206.17"/>
<polygon fill="black" stroke="black" points="1414.28,-202.67 1404.24,-206.05 1414.2,-209.67 1414.28,-202.67"/>
<text text-anchor="start" x="2811" y="-415.25" font-family="Courier New" font-weight="bold" font-size="10.00" fill="blue">IFSTATEi(0,S24_EYESPELL3)</text>
</g>
<!-- 10&#45;&gt;50 -->
<g id="edge12" class="edge">
<title>10&#45;&gt;50</title>
<path fill="none" stroke="black" d="M1546,-555.94C1750.92,-553.3 3051.08,-531.63 2969,-407 2890.24,-287.41 2810.51,-319.7 2673,-279.75 2568.82,-249.49 2539.98,-251.44 2432,-241 2035.44,-202.65 1551.65,-204 1414.1,-205.29"/>
<polygon fill="black" stroke="black" points="1414.08,-201.79 1404.12,-205.39 1414.15,-208.79 1414.08,-201.79"/>
<text text-anchor="start" x="2976" y="-415.25" font-family="Courier New" font-weight="bold" font-size="10.00" fill="blue">IFSTATEi(0,S24_EYEPLATE1)</text>
</g>
<!-- 10&#45;&gt;50 -->
<g id="edge13" class="edge">
<title>10&#45;&gt;50</title>
<path fill="none" stroke="black" d="M1492.19,-556.3C1316.52,-556.56 333.14,-556.37 205,-521 123.43,-498.48 81.74,-500.78 39,-427.75 10.84,-379.63 0.33,-329.41 205,-241 258.09,-218.07 1141.5,-208.06 1337.63,-206.11"/>
<polygon fill="black" stroke="black" points="1337.55,-209.61 1347.52,-206.01 1337.49,-202.61 1337.55,-209.61"/>
<text text-anchor="start" x="43" y="-415.25" font-family="Courier New" font-weight="bold" font-size="10.00" fill="blue">IFSTATEi(0,S24_EYEPLATE2)</text>
</g>
<!-- 10&#45;&gt;50 -->
<g id="edge14" class="edge">
<title>10&#45;&gt;50</title>
<path fill="none" stroke="black" d="M1492.09,-556.18C1330.8,-555.66 495.55,-551.49 386,-521 304.48,-498.31 262.74,-500.78 220,-427.75 163.73,-331.61 -22.71,-418.88 386,-241 474.36,-202.55 1166.79,-204.41 1337.88,-205.46"/>
<polygon fill="black" stroke="black" points="1337.74,-208.96 1347.77,-205.53 1337.79,-201.96 1337.74,-208.96"/>
<text text-anchor="start" x="224" y="-415.25" font-family="Courier New" font-weight="bold" font-size="10.00" fill="blue">IFSTATEi(0,S24_EYEPLATE3)</text>
</g>
<!-- 10&#45;&gt;50 -->
<g id="edge15" class="edge">
<title>10&#45;&gt;50</title>
<path fill="none" stroke="black" d="M1492.03,-556.01C1346.5,-554.6 658.04,-546.63 567,-521 485.54,-498.07 443.74,-500.78 401,-427.75 344.81,-331.74 159.19,-420.42 567,-241 637.94,-209.79 1187,-206.19 1337.79,-205.79"/>
<polygon fill="black" stroke="black" points="1337.64,-209.3 1347.64,-205.77 1337.63,-202.3 1337.64,-209.3"/>
<text text-anchor="start" x="405" y="-415.25" font-family="Courier New" font-weight="bold" font-size="10.00" fill="blue">IFSTATEi(0,S24_EYESPELL1)</text>
</g>
<!-- 10&#45;&gt;50 -->
<g id="edge16" class="edge">
<title>10&#45;&gt;50</title>
<path fill="none" stroke="black" d="M1492.29,-555.76C1364.74,-553.33 820.7,-541.81 748,-521 666.64,-497.72 624.74,-500.78 582,-427.75 525.94,-331.96 341.6,-422.84 748,-241 801.71,-216.97 1210.09,-208.42 1337.89,-206.31"/>
<polygon fill="black" stroke="black" points="1337.56,-209.82 1347.51,-206.16 1337.45,-202.82 1337.56,-209.82"/>
<text text-anchor="start" x="586" y="-415.25" font-family="Courier New" font-weight="bold" font-size="10.00" fill="blue">IFSTATEi(0,S24_EYESPELL3)</text>
</g>
<!-- 10&#45;&gt;50 -->
<g id="edge17" class="edge">
<title>10&#45;&gt;50</title>
<path fill="none" stroke="black" d="M1492.34,-556.24C1391.94,-555.95 1036.81,-552.67 929,-521 847.81,-497.15 805.74,-500.78 763,-427.75 636.65,-211.84 1185.37,-203.27 1337.7,-204.96"/>
<polygon fill="black" stroke="black" points="1337.63,-208.46 1347.67,-205.09 1337.72,-201.46 1337.63,-208.46"/>
<text text-anchor="start" x="767" y="-415.25" font-family="Courier New" font-weight="bold" font-size="10.00" fill="blue">IFSTATEi(0,S24_EYEPLATE1)</text>
</g>
<!-- 10&#45;&gt;50 -->
<g id="edge18" class="edge">
<title>10&#45;&gt;50</title>
<path fill="none" stroke="black" d="M1492.19,-555.42C1413.11,-552.73 1181.86,-543.14 1110,-521 1029.13,-496.08 986.74,-500.78 944,-427.75 888.69,-333.25 712.13,-437.42 1110,-241 1149.32,-221.59 1274.69,-211.66 1338.26,-207.77"/>
<polygon fill="black" stroke="black" points="1338.09,-211.29 1347.87,-207.2 1337.68,-204.3 1338.09,-211.29"/>
<text text-anchor="start" x="948" y="-415.25" font-family="Courier New" font-weight="bold" font-size="10.00" fill="blue">IFSTATEi(0,S24_EYEPLATE2)</text>
</g>
<!-- 10&#45;&gt;50 -->
<g id="edge19" class="edge">
<title>10&#45;&gt;50</title>
<path fill="none" stroke="black" d="M1492.28,-555.2C1448.92,-552.83 1361.04,-545.19 1291,-521 1211.02,-493.37 1167.74,-500.78 1125,-427.75 1065.87,-326.7 1254.82,-247.33 1338.35,-218"/>
<polygon fill="black" stroke="black" points="1339.42,-221.34 1347.74,-214.77 1337.14,-214.72 1339.42,-221.34"/>
<text text-anchor="start" x="1129" y="-415.25" font-family="Courier New" font-weight="bold" font-size="10.00" fill="blue">IFSTATEi(0,S24_EYEPLATE3)</text>
</g>
<!-- 10&#45;&gt;50 -->
<g id="edge20" class="edge">
<title>10&#45;&gt;50</title>
<path fill="none" stroke="black" d="M1492.25,-549.39C1444.65,-535.57 1346.45,-499.39 1306,-427.75 1294.42,-407.24 1251.44,-372.62 1329,-241 1331.97,-235.97 1335.96,-231.42 1340.37,-227.4"/>
<polygon fill="black" stroke="black" points="1342.41,-230.24 1348.02,-221.26 1338.03,-224.78 1342.41,-230.24"/>
<text text-anchor="start" x="1310" y="-415.25" font-family="Courier New" font-weight="bold" font-size="10.00" fill="blue">IFSTATEi(0,S24_EYESPELL1)</text>
</g>
<!-- 10&#45;&gt;50 -->
<g id="edge21" class="edge">
<title>10&#45;&gt;50</title>
<path fill="none" stroke="black" d="M1513.21,-539.16C1500.19,-500.92 1469.32,-411.45 1464,-407 1428.68,-377.48 1391.59,-424.27 1362,-389 1325.15,-345.08 1346.93,-272.53 1363.19,-233.19"/>
<polygon fill="black" stroke="black" points="1366.32,-234.75 1367.07,-224.18 1359.9,-231.97 1366.32,-234.75"/>
<text text-anchor="start" x="1477" y="-415.25" font-family="Courier New" font-weight="bold" font-size="10.00" fill="blue">IFSTATEi(0,S24_EYESPELL3)</text>
</g>
<!-- 20 -->
<g id="node7" class="node">
<title>20</title>
<polyline fill="none" stroke="darkred" points="1684.75,-452.75 1707.25,-452.75"/>
<text text-anchor="start" x="1687.75" y="-459.95" font-family="Courier New" font-weight="bold" font-size="14.00">20</text>
<path fill="none" stroke="darkred" d="M1691.25,-449.75C1691.25,-449.75 1700.75,-449.75 1700.75,-449.75 1705.5,-449.75 1710.25,-454.5 1710.25,-459.25 1710.25,-459.25 1710.25,-468.75 1710.25,-468.75 1710.25,-473.5 1705.5,-478.25 1700.75,-478.25 1700.75,-478.25 1691.25,-478.25 1691.25,-478.25 1686.5,-478.25 1681.75,-473.5 1681.75,-468.75 1681.75,-468.75 1681.75,-459.25 1681.75,-459.25 1681.75,-454.5 1686.5,-449.75 1691.25,-449.75"/>
</g>
<!-- 10&#45;&gt;20 -->
<g id="edge22" class="edge">
<title>10&#45;&gt;20</title>
<path fill="none" stroke="black" d="M1514.15,-539.13C1511.81,-526.92 1511.15,-510.85 1520,-500.25 1537.27,-479.56 1611.53,-470.74 1657.9,-467.19"/>
<polygon fill="black" stroke="black" points="1658.08,-470.69 1667.81,-466.49 1657.58,-463.7 1658.08,-470.69"/>
<text text-anchor="start" x="1524" y="-508.5" font-family="Courier New" font-weight="bold" font-size="10.00" fill="blue">Z_EPSILON(,)</text>
</g>
<!-- 10&#45;&gt;20 -->
<g id="edge23" class="edge">
<title>10&#45;&gt;20</title>
<path fill="none" stroke="black" d="M1546,-547.03C1562.3,-540.85 1583.11,-531.88 1600,-521 1611.57,-513.54 1611.57,-507.93 1623,-500.25 1634.2,-492.72 1647.26,-485.88 1659.2,-480.28"/>
<polygon fill="black" stroke="black" points="1660.3,-483.62 1667.96,-476.31 1657.41,-477.25 1660.3,-483.62"/>
<text text-anchor="start" x="1627" y="-508.5" font-family="Courier New" font-weight="bold" font-size="10.00" fill="blue">Z_EPSILON(,)</text>
</g>
<!-- 10&#45;&gt;20 -->
<g id="edge24" class="edge">
<title>10&#45;&gt;20</title>
<path fill="none" stroke="black" d="M1545.82,-555.16C1591.98,-552.66 1683.37,-544.75 1703,-521 1709.37,-513.29 1709.55,-502.83 1707.46,-493.03"/>
<polygon fill="black" stroke="black" points="1710.83,-492.09 1704.63,-483.5 1704.12,-494.08 1710.83,-492.09"/>
<text text-anchor="start" x="1712" y="-508.5" font-family="Courier New" font-weight="bold" font-size="10.00" fill="blue">Z_EPSILON(,)</text>
</g>
<!-- 51 -->
<g id="node11" class="node">
<title>51</title>
<polyline fill="none" stroke="darkred" points="1448.75,-100.25 1471.25,-100.25"/>
<text text-anchor="start" x="1451.75" y="-107.45" font-family="Courier New" font-weight="bold" font-size="14.00">51</text>
<path fill="none" stroke="darkred" d="M1455.25,-97.25C1455.25,-97.25 1464.75,-97.25 1464.75,-97.25 1469.5,-97.25 1474.25,-102 1474.25,-106.75 1474.25,-106.75 1474.25,-116.25 1474.25,-116.25 1474.25,-121 1469.5,-125.75 1464.75,-125.75 1464.75,-125.75 1455.25,-125.75 1455.25,-125.75 1450.5,-125.75 1445.75,-121 1445.75,-116.25 1445.75,-116.25 1445.75,-106.75 1445.75,-106.75 1445.75,-102 1450.5,-97.25 1455.25,-97.25"/>
</g>
<!-- 50&#45;&gt;51 -->
<g id="edge40" class="edge">
<title>50&#45;&gt;51</title>
<path fill="none" stroke="black" d="M1349.77,-186.56C1336.13,-175.46 1324.16,-160.72 1334,-147.75 1344.68,-133.67 1388.95,-123.68 1422.02,-118.01"/>
<polygon fill="black" stroke="black" points="1422.38,-121.5 1431.68,-116.43 1421.25,-114.59 1422.38,-121.5"/>
<text text-anchor="start" x="1338" y="-156" font-family="Courier New" font-weight="bold" font-size="10.00" fill="blue">SHOW(0,0)</text>
</g>
<!-- 50&#45;&gt;51 -->
<g id="edge41" class="edge">
<title>50&#45;&gt;51</title>
<path fill="none" stroke="black" d="M1387.58,-186.86C1395.79,-175.35 1407.37,-160.04 1419,-147.75 1422.43,-144.12 1426.21,-140.48 1430.04,-136.99"/>
<polygon fill="black" stroke="black" points="1432.05,-139.87 1437.25,-130.64 1427.43,-134.62 1432.05,-139.87"/>
<text text-anchor="start" x="1423" y="-156" font-family="Courier New" font-weight="bold" font-size="10.00" fill="blue">SHOW(0,0)</text>
</g>
<!-- 50&#45;&gt;51 -->
<g id="edge42" class="edge">
<title>50&#45;&gt;51</title>
<path fill="none" stroke="black" d="M1402.58,-203.05C1427.42,-200.81 1463.26,-193.17 1481,-168.5 1487.25,-159.8 1485.06,-149.02 1480.2,-139.25"/>
<polygon fill="black" stroke="black" points="1483.33,-137.66 1475.2,-130.86 1477.32,-141.24 1483.33,-137.66"/>
<text text-anchor="start" x="1488" y="-156" font-family="Courier New" font-weight="bold" font-size="10.00" fill="blue">SHOW(0,0)</text>
</g>
<!-- 30 -->
<g id="node9" class="node">
<title>30</title>
<polyline fill="none" stroke="darkred" points="1386.75,-323.12 1409.25,-323.12"/>
<text text-anchor="start" x="1389.75" y="-330.32" font-family="Courier New" font-weight="bold" font-size="14.00">30</text>
<path fill="none" stroke="darkred" d="M1393.25,-320.12C1393.25,-320.12 1402.75,-320.12 1402.75,-320.12 1407.5,-320.12 1412.25,-324.88 1412.25,-329.62 1412.25,-329.62 1412.25,-339.12 1412.25,-339.12 1412.25,-343.88 1407.5,-348.62 1402.75,-348.62 1402.75,-348.62 1393.25,-348.62 1393.25,-348.62 1388.5,-348.62 1383.75,-343.88 1383.75,-339.12 1383.75,-339.12 1383.75,-329.62 1383.75,-329.62 1383.75,-324.88 1388.5,-320.12 1393.25,-320.12"/>
</g>
<!-- 20&#45;&gt;30 -->
<g id="edge28" class="edge">
<title>20&#45;&gt;30</title>
<path fill="none" stroke="black" d="M1682.26,-445.96C1670.3,-431.53 1653.59,-412.35 1645,-407 1578.38,-365.49 1486.77,-347.22 1435.92,-339.84"/>
<polygon fill="black" stroke="black" points="1436.69,-336.41 1426.3,-338.51 1435.73,-343.35 1436.69,-336.41"/>
<text text-anchor="start" x="1670" y="-415.25" font-family="Courier New" font-weight="bold" font-size="10.00" fill="blue">ASHOW(0,IDS_BIGEYE1)</text>
</g>
<!-- 20&#45;&gt;30 -->
<g id="edge29" class="edge">
<title>20&#45;&gt;30</title>
<path fill="none" stroke="black" d="M1722.97,-458.45C1759.88,-451.09 1819.04,-434.55 1796,-407 1750.32,-352.36 1527.05,-339.34 1436.38,-336.29"/>
<polygon fill="black" stroke="black" points="1436.62,-332.79 1426.51,-335.98 1436.4,-339.79 1436.62,-332.79"/>
<text text-anchor="start" x="1805" y="-415.25" font-family="Courier New" font-weight="bold" font-size="10.00" fill="blue">ASHOW(0,IDS_BIGEYE1)</text>
</g>
<!-- 20&#45;&gt;30 -->
<g id="edge30" class="edge">
<title>20&#45;&gt;30</title>
<path fill="none" stroke="black" d="M1722.84,-463.19C1779.04,-462.97 1906.11,-458.94 1933,-427.75 1939.02,-420.77 1939.07,-413.94 1933,-407 1900.19,-369.5 1552.59,-344.87 1435.93,-337.61"/>
<polygon fill="black" stroke="black" points="1436.46,-334.14 1426.26,-337.02 1436.03,-341.12 1436.46,-334.14"/>
<text text-anchor="start" x="1941" y="-415.25" font-family="Courier New" font-weight="bold" font-size="10.00" fill="blue">ASHOW(0,IDS_BIGEYE1)</text>
</g>
<!-- 6 -->
<g id="node10" class="node">
<title>6</title>
<polyline fill="none" stroke="darkred" points="1440.88,-740.5 1455.12,-740.5"/>
<text text-anchor="start" x="1443.88" y="-747.7" font-family="Courier New" font-weight="bold" font-size="14.00">6</text>
<path fill="none" stroke="darkred" d="M1444.62,-737.5C1444.62,-737.5 1451.38,-737.5 1451.38,-737.5 1454.75,-737.5 1458.12,-740.88 1458.12,-744.25 1458.12,-744.25 1458.12,-759.25 1458.12,-759.25 1458.12,-762.62 1454.75,-766 1451.38,-766 1451.38,-766 1444.62,-766 1444.62,-766 1441.25,-766 1437.88,-762.62 1437.88,-759.25 1437.88,-759.25 1437.88,-744.25 1437.88,-744.25 1437.88,-740.88 1441.25,-737.5 1444.62,-737.5"/>
</g>
<!-- 5&#45;&gt;6 -->
<g id="edge37" class="edge">
<title>5&#45;&gt;6</title>
<path fill="none" stroke="black" d="M1421.05,-841.88C1380.76,-838.08 1307.86,-828.6 1292,-808.75 1258.96,-767.41 1353.91,-756.57 1410,-753.74"/>
<polygon fill="black" stroke="black" points="1409.97,-757.24 1419.81,-753.31 1409.67,-750.25 1409.97,-757.24"/>
<text text-anchor="start" x="1296" y="-796.25" font-family="Courier New" font-weight="bold" font-size="10.00" fill="blue">SIGNAL(WIP2,SIG_SHOW)</text>
</g>
<!-- 5&#45;&gt;6 -->
<g id="edge38" class="edge">
<title>5&#45;&gt;6</title>
<path fill="none" stroke="black" d="M1448,-826.84C1448,-813.96 1448,-796.06 1448,-781.07"/>
<polygon fill="black" stroke="black" points="1451.5,-781.35 1448,-771.35 1444.5,-781.35 1451.5,-781.35"/>
<text text-anchor="start" x="1452" y="-796.25" font-family="Courier New" font-weight="bold" font-size="10.00" fill="blue">SIGNAL(WIP2,SIG_SHOW)</text>
</g>
<!-- 5&#45;&gt;6 -->
<g id="edge39" class="edge">
<title>5&#45;&gt;6</title>
<path fill="none" stroke="black" d="M1474.89,-840.85C1510.38,-836.07 1569.9,-825.72 1583,-808.75 1610.57,-773.06 1534.77,-759.93 1485.86,-755.24"/>
<polygon fill="black" stroke="black" points="1486.45,-751.78 1476.19,-754.4 1485.84,-758.76 1486.45,-751.78"/>
<text text-anchor="start" x="1592" y="-796.25" font-family="Courier New" font-weight="bold" font-size="10.00" fill="blue">SIGNAL(WIP2,SIG_SHOW)</text>
</g>
<!-- 30&#45;&gt;50 -->
<g id="edge34" class="edge">
<title>30&#45;&gt;50</title>
<path fill="none" stroke="black" d="M1391.59,-316.3C1386.55,-301.97 1379.91,-280.84 1377,-261.75 1375.64,-252.83 1375.13,-243.02 1375.04,-234.13"/>
<polygon fill="black" stroke="black" points="1378.54,-234.3 1375.12,-224.27 1371.54,-234.24 1378.54,-234.3"/>
<text text-anchor="start" x="1381" y="-249.25" font-family="Courier New" font-weight="bold" font-size="10.00" fill="orange">WAIT(0,SIG_BOMB)</text>
</g>
<!-- 30&#45;&gt;50 -->
<g id="edge35" class="edge">
<title>30&#45;&gt;50</title>
<path fill="none" stroke="black" d="M1424.83,-320.39C1456.69,-303.19 1502.9,-271.46 1481,-241 1465.83,-219.9 1437.4,-211.25 1413.95,-207.79"/>
<polygon fill="black" stroke="black" points="1414.43,-204.32 1404.09,-206.63 1413.61,-211.28 1414.43,-204.32"/>
<text text-anchor="start" x="1490" y="-249.25" font-family="Courier New" font-weight="bold" font-size="10.00" fill="orange">WAIT(0,SIG_BOMB)</text>
</g>
<!-- 30&#45;&gt;50 -->
<g id="edge36" class="edge">
<title>30&#45;&gt;50</title>
<path fill="none" stroke="black" d="M1424.66,-330.78C1488.99,-323.52 1643.87,-299.58 1594,-241 1571.32,-214.36 1470.17,-207.79 1413.97,-206.21"/>
<polygon fill="black" stroke="black" points="1414.29,-202.72 1404.21,-205.98 1414.13,-209.72 1414.29,-202.72"/>
<text text-anchor="start" x="1607" y="-249.25" font-family="Courier New" font-weight="bold" font-size="10.00" fill="orange">WAIT(0,SIG_BOMB)</text>
</g>
<!-- 30&#45;&gt;30 -->
<g id="edge31" class="edge">
<title>30&#45;&gt;30</title>
<path fill="none" stroke="black" d="M1424.79,-339.55C1434.78,-339.72 1443,-338 1443,-334.38 1443,-332.28 1440.25,-330.82 1436.01,-330"/>
<polygon fill="black" stroke="black" points="1436.53,-326.52 1426.3,-329.31 1436.03,-333.51 1436.53,-326.52"/>
<polygon fill="none" stroke="black" points="1446,-335.38 1446,-354.12 1644,-354.12 1644,-335.38 1446,-335.38"/>
<text text-anchor="start" x="1488" y="-342.62" font-family="Courier New" font-weight="bold" font-size="10.00" fill="orange">GRAB(0,IDD_EYEWAND)</text>
<polygon fill="none" stroke="black" points="1446,-314.62 1446,-333.38 1644,-333.38 1644,-314.62 1446,-314.62"/>
<text text-anchor="start" x="1449" y="-320.88" font-family="Courier New" font-size="10.00" fill="blue">SIGNALi(SIG_COMPLETE,REC_EYEOG);</text>
<polygon fill="none" stroke="black" points="1443,-311.62 1443,-357.12 1647,-357.12 1647,-311.62 1443,-311.62"/>
</g>
<!-- 30&#45;&gt;30 -->
<g id="edge32" class="edge">
<title>30&#45;&gt;30</title>
<path fill="none" stroke="black" d="M1424.96,-340.28C1490.64,-347.8 1647,-345.83 1647,-334.38 1647,-323.52 1506.7,-321.18 1436.07,-327.36"/>
<polygon fill="black" stroke="black" points="1436.07,-323.84 1426.47,-328.32 1436.77,-330.81 1436.07,-323.84"/>
<polygon fill="none" stroke="black" points="1650,-335.38 1650,-354.12 1866,-354.12 1866,-335.38 1650,-335.38"/>
<text text-anchor="start" x="1701" y="-342.62" font-family="Courier New" font-weight="bold" font-size="10.00" fill="orange">GRAB(0,IDD_EYEWAND)</text>
<polygon fill="none" stroke="black" points="1650,-314.62 1650,-333.38 1866,-333.38 1866,-314.62 1650,-314.62"/>
<text text-anchor="start" x="1653" y="-320.88" font-family="Courier New" font-size="10.00" fill="blue">ADDI(LWISDOM,2); SIGNALi(0,SID_ID);</text>
<polygon fill="none" stroke="black" points="1647,-311.62 1647,-357.12 1869,-357.12 1869,-311.62 1647,-311.62"/>
</g>
<!-- 30&#45;&gt;30 -->
<g id="edge33" class="edge">
<title>30&#45;&gt;30</title>
<path fill="none" stroke="black" d="M1424.96,-341.05C1526.78,-354.82 1869,-352.59 1869,-334.38 1869,-316.78 1549.78,-314.1 1436.22,-326.35"/>
<polygon fill="black" stroke="black" points="1435.98,-322.85 1426.47,-327.52 1436.81,-329.8 1435.98,-322.85"/>
<polygon fill="none" stroke="black" points="1872,-367.25 1872,-386 2238,-386 2238,-367.25 1872,-367.25"/>
<text text-anchor="start" x="1998" y="-374.5" font-family="Courier New" font-weight="bold" font-size="10.00" fill="orange">GRAB(0,IDD_EYEWAND)</text>
<polygon fill="none" stroke="black" points="1872,-282.75 1872,-365.25 2238,-365.25 2238,-282.75 1872,-282.75"/>
<text text-anchor="start" x="1875" y="-352.75" font-family="Courier New" font-size="10.00" fill="blue"> &#160;&#160;&#160;ADDI(LWISDOM,2);</text>
<text text-anchor="start" x="1875" y="-340" font-family="Courier New" font-size="10.00" fill="blue"> &#160;&#160;&#160;SIGNALi(0,SID_ID);</text>
<text text-anchor="start" x="1875" y="-327.25" font-family="Courier New" font-size="10.00" fill="blue"> &#160;&#160;&#160;&#160;&#160;q_local_active(?BPARM, &quot;5&quot;);</text>
<text text-anchor="start" x="1875" y="-314.5" font-family="Courier New" font-size="10.00" fill="blue"> &#160;&#160;&#160;&#160;&#160;&#160;&#160;&#160;&#160;&#160;&#160;if(BPARM != &quot; Read the signs of the ancients.&quot;){</text>
<text text-anchor="start" x="1875" y="-301.75" font-family="Courier New" font-size="10.00" fill="blue"> &#160;&#160;&#160;&#160;&#160;&#160;&#160;&#160;&#160;&#160;&#160;&#160;&#160;&#160;SIGNAL(QL_MANAGER,Q5_START);</text>
<text text-anchor="start" x="1875" y="-289" font-family="Courier New" font-size="10.00" fill="blue"> &#160;&#160;&#160;&#160;&#160;&#160;&#160;&#160;&#160;&#160;&#160;}</text>
<polygon fill="none" stroke="black" points="1869,-279.75 1869,-389 2241,-389 2241,-279.75 1869,-279.75"/>
</g>
<!-- 7 -->
<g id="node13" class="node">
<title>7</title>
<polyline fill="none" stroke="darkred" stroke-width="3" points="1597.38,-642.75 1612.62,-642.75"/>
<text text-anchor="start" x="1600.88" y="-650.45" font-family="Courier New" font-weight="bold" font-size="14.00">7</text>
<path fill="none" stroke="darkred" stroke-width="3" d="M1600.79,-637.75C1600.79,-637.75 1609.21,-637.75 1609.21,-637.75 1613.42,-637.75 1617.62,-641.96 1617.62,-646.17 1617.62,-646.17 1617.62,-662.83 1617.62,-662.83 1617.62,-667.04 1613.42,-671.25 1609.21,-671.25 1609.21,-671.25 1600.79,-671.25 1600.79,-671.25 1596.58,-671.25 1592.38,-667.04 1592.38,-662.83 1592.38,-662.83 1592.38,-646.17 1592.38,-646.17 1592.38,-641.96 1596.58,-637.75 1600.79,-637.75"/>
</g>
<!-- 6&#45;&gt;7 -->
<g id="edge49" class="edge">
<title>6&#45;&gt;7</title>
<path fill="none" stroke="black" d="M1421.39,-749.99C1367.66,-747.56 1254.4,-737.36 1292,-694.75 1309.92,-674.44 1487.09,-662.08 1566.65,-657.51"/>
<polygon fill="black" stroke="black" points="1566.8,-661.01 1576.59,-656.95 1566.41,-654.02 1566.8,-661.01"/>
<text text-anchor="start" x="1296" y="-703" font-family="Courier New" font-weight="bold" font-size="10.00" fill="blue">SIGNAL(WIP3,SIG_SHOW)</text>
</g>
<!-- 6&#45;&gt;7 -->
<g id="edge50" class="edge">
<title>6&#45;&gt;7</title>
<path fill="none" stroke="black" d="M1443.26,-733.5C1441.04,-721.39 1440.47,-705.49 1449,-694.75 1463.49,-676.5 1525.41,-665.36 1566.74,-659.82"/>
<polygon fill="black" stroke="black" points="1567.08,-663.31 1576.55,-658.56 1566.19,-656.36 1567.08,-663.31"/>
<text text-anchor="start" x="1453" y="-703" font-family="Courier New" font-weight="bold" font-size="10.00" fill="blue">SIGNAL(WIP3,SIG_SHOW)</text>
</g>
<!-- 6&#45;&gt;7 -->
<g id="edge51" class="edge">
<title>6&#45;&gt;7</title>
<path fill="none" stroke="black" d="M1474.75,-750.79C1504.73,-749.41 1553.06,-742.7 1583,-715.5 1591,-708.24 1596.09,-697.82 1599.34,-687.7"/>
<polygon fill="black" stroke="black" points="1602.72,-688.61 1601.88,-678.05 1595.95,-686.82 1602.72,-688.61"/>
<text text-anchor="start" x="1600" y="-703" font-family="Courier New" font-weight="bold" font-size="10.00" fill="blue">SIGNAL(WIP3,SIG_SHOW)</text>
</g>
<!-- 52 -->
<g id="node12" class="node">
<title>52</title>
<polyline fill="none" stroke="darkred" points="1604.75,-7 1627.25,-7"/>
<text text-anchor="start" x="1607.75" y="-14.2" font-family="Courier New" font-weight="bold" font-size="14.00">52</text>
<path fill="none" stroke="darkred" d="M1611.25,-4C1611.25,-4 1620.75,-4 1620.75,-4 1625.5,-4 1630.25,-8.75 1630.25,-13.5 1630.25,-13.5 1630.25,-23 1630.25,-23 1630.25,-27.75 1625.5,-32.5 1620.75,-32.5 1620.75,-32.5 1611.25,-32.5 1611.25,-32.5 1606.5,-32.5 1601.75,-27.75 1601.75,-23 1601.75,-23 1601.75,-13.5 1601.75,-13.5 1601.75,-8.75 1606.5,-4 1611.25,-4"/>
</g>
<!-- 51&#45;&gt;52 -->
<g id="edge43" class="edge">
<title>51&#45;&gt;52</title>
<path fill="none" stroke="black" d="M1433.25,-103.06C1403.98,-93.63 1363.51,-75.98 1382,-54.5 1406.81,-25.67 1518.14,-20.1 1577.86,-19.23"/>
<polygon fill="black" stroke="black" points="1577.6,-22.73 1587.56,-19.13 1577.52,-15.73 1577.6,-22.73"/>
<text text-anchor="start" x="1386" y="-62.75" font-family="Courier New" font-weight="bold" font-size="10.00" fill="blue">SIGNAL(WIP2,SIG_HIDE)</text>
</g>
<!-- 51&#45;&gt;52 -->
<g id="edge44" class="edge">
<title>51&#45;&gt;52</title>
<path fill="none" stroke="black" d="M1486.84,-94.91C1496.29,-89.08 1506.84,-82.18 1516,-75.25 1526.98,-66.94 1527.5,-62.06 1539,-54.5 1551.28,-46.42 1565.72,-39.28 1578.75,-33.57"/>
<polygon fill="black" stroke="black" points="1580.05,-36.82 1587.9,-29.71 1577.32,-30.37 1580.05,-36.82"/>
<text text-anchor="start" x="1543" y="-62.75" font-family="Courier New" font-weight="bold" font-size="10.00" fill="blue">SIGNAL(WIP2,SIG_HIDE)</text>
</g>
<!-- 51&#45;&gt;52 -->
<g id="edge45" class="edge">
<title>51&#45;&gt;52</title>
<path fill="none" stroke="black" d="M1486.89,-110.19C1538.72,-108.95 1649.42,-103.05 1673,-75.25 1684.58,-61.59 1669.99,-47.47 1652.67,-36.82"/>
<polygon fill="black" stroke="black" points="1654.67,-33.93 1644.24,-32.04 1651.21,-40.02 1654.67,-33.93"/>
<text text-anchor="start" x="1681" y="-62.75" font-family="Courier New" font-weight="bold" font-size="10.00" fill="blue">SIGNAL(WIP2,SIG_HIDE)</text>
</g>
<!-- 52&#45;&gt;0 -->
<g id="edge46" class="edge">
<title>52&#45;&gt;0</title>
<path fill="none" stroke="black" d="M1589.3,-19.31C1379.19,-19.97 0,-27.43 0,-110.5 0,-1032.5 0,-1032.5 0,-1032.5 0,-1128.03 1631.33,-1066.31 1718,-1106.5 1724.69,-1109.6 1730.72,-1114.58 1735.84,-1119.96"/>
<polygon fill="black" stroke="black" points="1733,-1122.01 1742.14,-1127.36 1738.33,-1117.48 1733,-1122.01"/>
<text text-anchor="start" x="4" y="-601.75" font-family="Courier New" font-weight="bold" font-size="10.00" fill="blue">SIGNAL(WIP3,SIG_HIDE)</text>
</g>
<!-- 52&#45;&gt;0 -->
<g id="edge47" class="edge">
<title>52&#45;&gt;0</title>
<path fill="none" stroke="black" d="M1642.79,-19.34C1850.68,-20.25 3198,-29.26 3198,-110.5 3198,-1032.5 3198,-1032.5 3198,-1032.5 3198,-1110.83 1860.9,-1073.21 1790,-1106.5 1783.32,-1109.64 1777.3,-1114.62 1772.18,-1120"/>
<polygon fill="black" stroke="black" points="1769.69,-1117.52 1765.88,-1127.4 1775.03,-1122.05 1769.69,-1117.52"/>
<text text-anchor="start" x="3202" y="-601.75" font-family="Courier New" font-weight="bold" font-size="10.00" fill="blue">SIGNAL(WIP3,SIG_HIDE)</text>
</g>
<!-- 52&#45;&gt;0 -->
<g id="edge48" class="edge">
<title>52&#45;&gt;0</title>
<path fill="none" stroke="black" d="M1642.97,-19.2C1862.98,-19 3355,-20.89 3355,-110.5 3355,-1032.5 3355,-1032.5 3355,-1032.5 3355,-1102.26 3268.45,-1043.17 3199,-1049.75 2981.07,-1070.39 2926.64,-1077.74 2708,-1088.5 2657.05,-1091.01 1836.52,-1085.58 1790,-1106.5 1783.27,-1109.52 1777.23,-1114.47 1772.1,-1119.84"/>
<polygon fill="black" stroke="black" points="1769.61,-1117.37 1765.82,-1127.26 1774.95,-1121.9 1769.61,-1117.37"/>
<text text-anchor="start" x="3359" y="-601.75" font-family="Courier New" font-weight="bold" font-size="10.00" fill="blue">SIGNAL(WIP3,SIG_HIDE)</text>
</g>
<!-- 7&#45;&gt;0 -->
<g id="edge52" class="edge">
<title>7&#45;&gt;0</title>
<path fill="none" stroke="black" d="M1631.98,-656.77C1660.81,-659.55 1706.13,-668.18 1734,-694.75 1753.13,-712.99 1754,-724.32 1754,-750.75 1754,-1032.5 1754,-1032.5 1754,-1032.5 1754,-1061.27 1754,-1094.16 1754,-1117.01"/>
<polygon fill="black" stroke="black" points="1750.5,-1116.76 1754,-1126.76 1757.5,-1116.76 1750.5,-1116.76"/>
<text text-anchor="start" x="1758" y="-889.5" font-family="Courier New" font-weight="bold" font-size="10.00" fill="orange">CLICK(,)</text>
</g>
<!-- 7&#45;&gt;0 -->
<g id="edge53" class="edge">
<title>7&#45;&gt;0</title>
<path fill="none" stroke="black" d="M1631.6,-654.86C1691.74,-654.93 1833,-664.31 1833,-750.75 1833,-1032.5 1833,-1032.5 1833,-1032.5 1833,-1052.18 1800.41,-1093.19 1777.1,-1120.02"/>
<polygon fill="black" stroke="black" points="1774.59,-1117.57 1770.61,-1127.38 1779.85,-1122.19 1774.59,-1117.57"/>
<text text-anchor="start" x="1837" y="-889.5" font-family="Courier New" font-weight="bold" font-size="10.00" fill="orange">CLICK(,)</text>
</g>
<!-- 7&#45;&gt;0 -->
<g id="edge54" class="edge">
<title>7&#45;&gt;0</title>
<path fill="none" stroke="black" d="M1631.98,-658.03C1706.89,-665.79 1912,-692.36 1912,-750.75 1912,-1032.5 1912,-1032.5 1912,-1032.5 1912,-1095.92 1840.25,-1067.81 1790,-1106.5 1784.89,-1110.43 1779.88,-1115.13 1775.3,-1119.88"/>
<polygon fill="black" stroke="black" points="1772.77,-1117.47 1768.62,-1127.22 1777.94,-1122.19 1772.77,-1117.47"/>
<text text-anchor="start" x="1916" y="-889.5" font-family="Courier New" font-weight="bold" font-size="10.00" fill="orange">CLICK(,)</text>
</g>
<!-- 7&#45;&gt;10 -->
<g id="edge55" class="edge">
<title>7&#45;&gt;10</title>
<path fill="none" stroke="black" d="M1578.19,-653.82C1548.23,-652.56 1500.95,-645.36 1478,-614.25 1470.51,-604.1 1476,-592.88 1485.11,-583.18"/>
<polygon fill="black" stroke="black" points="1487.38,-585.85 1492.3,-576.46 1482.61,-580.73 1487.38,-585.85"/>
<text text-anchor="start" x="1482" y="-601.75" font-family="Courier New" font-weight="bold" font-size="10.00" fill="orange">WAIT(0,0)</text>
</g>
<!-- 7&#45;&gt;10 -->
<g id="edge56" class="edge">
<title>7&#45;&gt;10</title>
<path fill="none" stroke="black" d="M1581.28,-632.52C1575.14,-626.77 1568.67,-620.43 1563,-614.25 1554.47,-604.96 1545.75,-594.18 1538.35,-584.58"/>
<polygon fill="black" stroke="black" points="1541.19,-582.52 1532.36,-576.67 1535.61,-586.75 1541.19,-582.52"/>
<text text-anchor="start" x="1567" y="-601.75" font-family="Courier New" font-weight="bold" font-size="10.00" fill="orange">WAIT(0,0)</text>
</g>
<!-- 7&#45;&gt;10 -->
<g id="edge57" class="edge">
<title>7&#45;&gt;10</title>
<path fill="none" stroke="black" d="M1621,-632.33C1628.14,-620.13 1633.29,-604.99 1625,-593.5 1609.6,-572.14 1580.71,-563.52 1556.98,-560.14"/>
<polygon fill="black" stroke="black" points="1557.66,-556.7 1547.33,-559.04 1556.87,-563.65 1557.66,-556.7"/>
<text text-anchor="start" x="1633" y="-601.75" font-family="Courier New" font-weight="bold" font-size="10.00" fill="orange">WAIT(0,0)</text>
</g>
<!-- status -->
<g id="node14" class="node">
<title>status</title>
<polygon fill="none" stroke="black" points="1799,-1107 1799,-1186 2355,-1186 2355,-1107 1799,-1107"/>
<polygon fill="none" stroke="black" points="1810,-1160.25 1810,-1179 2344,-1179 2344,-1160.25 1810,-1160.25"/>
<text text-anchor="start" x="2047" y="-1167.5" font-family="Courier New" font-weight="bold" font-size="10.00">S24_BIGEYE</text>
<polygon fill="none" stroke="black" points="1810,-1114 1810,-1158.25 2344,-1158.25 2344,-1114 1810,-1114"/>
<text text-anchor="start" x="1813" y="-1145.75" font-family="Courier New" font-size="10.00" fill="green">VIEW::IDV_EYEC1P @pos(x:295, y:60, w:52, h:73)</text>
<text text-anchor="start" x="1813" y="-1133" font-family="Courier New" font-size="10.00" fill="green">S24_BIGEYE::M24_BIGEYE(&#39;IDS_BIGEYE1&#39;,&#39;S24_ALTa_EYESPELL2&#39;,&#39;S24_ALTb_EYESPELL2&#39;,&#39;&#39;,&#39;&#39;,&#39;&#39;)</text>
<text text-anchor="start" x="1813" y="-1120.25" font-family="Courier New" font-size="10.00" fill="green">{state:&#39;7&#39;: wSprite:IDS_BIGEYE1 Top:60 Left:295</text>
<polygon fill="none" stroke="black" points="1807,-1111 1807,-1182 2347,-1182 2347,-1111 1807,-1111"/>
</g>
</g>
</svg>
