<?xml version="1.0" encoding="UTF-8" standalone="no"?>
<!DOCTYPE svg PUBLIC "-//W3C//DTD SVG 1.1//EN"
 "http://www.w3.org/Graphics/SVG/1.1/DTD/svg11.dtd">
<!-- Generated by graphviz version 10.0.1 (20240210.2158)
 -->
<!-- Title: Automaton Pages: 1 -->
<svg width="802pt" height="401pt"
 viewBox="0.00 0.00 802.00 400.50" xmlns="http://www.w3.org/2000/svg" xmlns:xlink="http://www.w3.org/1999/xlink">
<g id="graph0" class="graph" transform="scale(1 1) rotate(0) translate(4 396.5)">
<title>Automaton</title>
<polygon fill="white" stroke="none" points="-4,4 -4,-396.5 798,-396.5 798,4 -4,4"/>
<!-- filename -->
<g id="node1" class="node">
<title>filename</title>
<polygon fill="none" stroke="black" points="0,-325.75 0,-379.25 226,-379.25 226,-325.75 0,-325.75"/>
<polygon fill="none" stroke="black" points="11,-353.5 11,-372.25 215,-372.25 215,-353.5 11,-353.5"/>
<text text-anchor="start" x="14" y="-360.75" font-family="Courier New" font-weight="bold" font-size="10.00">S_CFGNWSERVERLOADER::M_LOADERVIEW</text>
<polygon fill="none" stroke="black" points="11,-332.75 11,-351.5 215,-351.5 215,-332.75 11,-332.75"/>
<text text-anchor="start" x="68" y="-339" font-family="Courier New" font-size="10.00" fill="brown">start state = 0</text>
<polygon fill="none" stroke="black" points="8,-329.75 8,-375.25 218,-375.25 218,-329.75 8,-329.75"/>
</g>
<!-- 0 -->
<g id="node2" class="node">
<title>0</title>
<polyline fill="none" stroke="darkred" points="263.88,-341.25 278.12,-341.25"/>
<text text-anchor="start" x="266.88" y="-348.45" font-family="Courier New" font-weight="bold" font-size="14.00">0</text>
<path fill="none" stroke="darkred" d="M267.62,-338.25C267.62,-338.25 274.38,-338.25 274.38,-338.25 277.75,-338.25 281.12,-341.62 281.12,-345 281.12,-345 281.12,-360 281.12,-360 281.12,-363.38 277.75,-366.75 274.38,-366.75 274.38,-366.75 267.62,-366.75 267.62,-366.75 264.25,-366.75 260.88,-363.38 260.88,-360 260.88,-360 260.88,-345 260.88,-345 260.88,-341.62 264.25,-338.25 267.62,-338.25"/>
</g>
<!-- 1 -->
<g id="node3" class="node">
<title>1</title>
<polyline fill="none" stroke="darkred" stroke-width="3" points="200.38,-221.75 215.62,-221.75"/>
<text text-anchor="start" x="203.88" y="-229.45" font-family="Courier New" font-weight="bold" font-size="14.00">1</text>
<path fill="none" stroke="darkred" stroke-width="3" d="M203.79,-216.75C203.79,-216.75 212.21,-216.75 212.21,-216.75 216.42,-216.75 220.62,-220.96 220.62,-225.17 220.62,-225.17 220.62,-241.83 220.62,-241.83 220.62,-246.04 216.42,-250.25 212.21,-250.25 212.21,-250.25 203.79,-250.25 203.79,-250.25 199.58,-250.25 195.38,-246.04 195.38,-241.83 195.38,-241.83 195.38,-225.17 195.38,-225.17 195.38,-220.96 199.58,-216.75 203.79,-216.75"/>
</g>
<!-- 0&#45;&gt;1 -->
<g id="edge1" class="edge">
<title>0&#45;&gt;1</title>
<path fill="none" stroke="black" d="M255.87,-334.53C246.81,-323.68 235.61,-308.98 228,-294.5 223.42,-285.79 219.6,-275.83 216.56,-266.56"/>
<polygon fill="black" stroke="black" points="219.97,-265.72 213.7,-257.18 213.27,-267.76 219.97,-265.72"/>
<text text-anchor="start" x="232" y="-282" font-family="Courier New" font-weight="bold" font-size="10.00" fill="blue">ASHOW(,WIP1)</text>
</g>
<!-- 2 -->
<g id="node4" class="node">
<title>2</title>
<polyline fill="none" stroke="darkred" points="189.88,-125 204.12,-125"/>
<text text-anchor="start" x="192.88" y="-132.2" font-family="Courier New" font-weight="bold" font-size="14.00">2</text>
<path fill="none" stroke="darkred" d="M193.62,-122C193.62,-122 200.38,-122 200.38,-122 203.75,-122 207.12,-125.38 207.12,-128.75 207.12,-128.75 207.12,-143.75 207.12,-143.75 207.12,-147.12 203.75,-150.5 200.38,-150.5 200.38,-150.5 193.62,-150.5 193.62,-150.5 190.25,-150.5 186.88,-147.12 186.88,-143.75 186.88,-143.75 186.88,-128.75 186.88,-128.75 186.88,-125.38 190.25,-122 193.62,-122"/>
</g>
<!-- 1&#45;&gt;2 -->
<g id="edge2" class="edge">
<title>1&#45;&gt;2</title>
<path fill="none" stroke="black" d="M205.56,-211.36C203.99,-197.78 201.94,-179.99 200.23,-165.24"/>
<polygon fill="black" stroke="black" points="203.76,-165.24 199.13,-155.71 196.8,-166.05 203.76,-165.24"/>
<text text-anchor="start" x="208" y="-180.75" font-family="Courier New" font-weight="bold" font-size="10.00" fill="blue">ESTIME(,WIP3)</text>
</g>
<!-- 3 -->
<g id="node5" class="node">
<title>3</title>
<polyline fill="none" stroke="darkred" points="243.88,-7 258.12,-7"/>
<text text-anchor="start" x="246.88" y="-14.2" font-family="Courier New" font-weight="bold" font-size="14.00">3</text>
<path fill="none" stroke="darkred" d="M247.62,-4C247.62,-4 254.38,-4 254.38,-4 257.75,-4 261.12,-7.38 261.12,-10.75 261.12,-10.75 261.12,-25.75 261.12,-25.75 261.12,-29.12 257.75,-32.5 254.38,-32.5 254.38,-32.5 247.62,-32.5 247.62,-32.5 244.25,-32.5 240.88,-29.12 240.88,-25.75 240.88,-25.75 240.88,-10.75 240.88,-10.75 240.88,-7.38 244.25,-4 247.62,-4"/>
</g>
<!-- 2&#45;&gt;3 -->
<g id="edge3" class="edge">
<title>2&#45;&gt;3</title>
<path fill="none" stroke="black" d="M187.38,-118.23C179.04,-100.97 170.02,-74.08 182,-54.5 189.12,-42.88 201.41,-34.93 213.66,-29.57"/>
<polygon fill="black" stroke="black" points="214.79,-32.89 222.88,-26.05 212.29,-26.35 214.79,-32.89"/>
<polygon fill="none" stroke="black" points="185,-78.25 185,-97 305,-97 305,-78.25 185,-78.25"/>
<text text-anchor="start" x="209" y="-85.5" font-family="Courier New" font-weight="bold" font-size="10.00" fill="blue">Z_EPSILON(,)</text>
<polygon fill="none" stroke="black" points="185,-57.5 185,-76.25 305,-76.25 305,-57.5 185,-57.5"/>
<text text-anchor="start" x="188" y="-63.75" font-family="Courier New" font-size="10.00" fill="blue"> &#160;&#160;&#160;LOADVIEW(WIP2);</text>
<polygon fill="none" stroke="black" points="182,-54.5 182,-100 308,-100 308,-54.5 182,-54.5"/>
</g>
<!-- 3&#45;&gt;0 -->
<g id="edge4" class="edge">
<title>3&#45;&gt;0</title>
<path fill="none" stroke="black" d="M277.9,-28.91C289.32,-34.51 301.49,-42.81 308,-54.5 359.93,-147.67 338.28,-192.22 308,-294.5 304.8,-305.3 298.84,-315.97 292.63,-325.11"/>
<polygon fill="black" stroke="black" points="289.84,-322.99 286.79,-333.13 295.51,-327.1 289.84,-322.99"/>
<text text-anchor="start" x="342" y="-180.75" font-family="Courier New" font-weight="bold" font-size="10.00" fill="blue">ESTIME(,4)</text>
</g>
<!-- status -->
<g id="node6" class="node">
<title>status</title>
<polygon fill="none" stroke="black" points="316,-313 316,-392 794,-392 794,-313 316,-313"/>
<polygon fill="none" stroke="black" points="327,-366.25 327,-385 783,-385 783,-366.25 327,-366.25"/>
<text text-anchor="start" x="498" y="-373.5" font-family="Courier New" font-weight="bold" font-size="10.00">S_CFGNWSERVERLOADER</text>
<polygon fill="none" stroke="black" points="327,-320 327,-364.25 783,-364.25 783,-320 327,-320"/>
<text text-anchor="start" x="330" y="-351.75" font-family="Courier New" font-size="10.00" fill="green">VIEW::IDV_ROOMRELOADER @pos(x:400, y:200, h:150, w:100)</text>
<text text-anchor="start" x="330" y="-339" font-family="Courier New" font-size="10.00" fill="green">S_CFGNWSERVERLOADER::M_LOADERVIEW(&#39;IDS_SPRINGS&#39;,&#39;IDV_CFGNW1C&#39;,&#39;1&#39;,&#39;&#39;,&#39;&#39;,&#39;&#39;)</text>
<text text-anchor="start" x="330" y="-326.25" font-family="Courier New" font-size="10.00" fill="green">{state:&#39;1&#39;: wSprite:IDS_SPRINGS dEtime:27 Top:200 Left:400 Z:0</text>
<polygon fill="none" stroke="black" points="324,-317 324,-388 786,-388 786,-317 324,-317"/>
</g>
</g>
</svg>
