<?xml version="1.0" encoding="UTF-8" standalone="no"?>
<!DOCTYPE svg PUBLIC "-//W3C//DTD SVG 1.1//EN"
 "http://www.w3.org/Graphics/SVG/1.1/DTD/svg11.dtd">
<!-- Generated by graphviz version 10.0.1 (20240210.2158)
 -->
<!-- Title: Automaton Pages: 1 -->
<svg width="807pt" height="692pt"
 viewBox="0.00 0.00 806.96 692.25" xmlns="http://www.w3.org/2000/svg" xmlns:xlink="http://www.w3.org/1999/xlink">
<g id="graph0" class="graph" transform="scale(1 1) rotate(0) translate(4 688.25)">
<title>Automaton</title>
<polygon fill="white" stroke="none" points="-4,4 -4,-688.25 802.96,-688.25 802.96,4 -4,4"/>
<!-- filename -->
<g id="node1" class="node">
<title>filename</title>
<polygon fill="none" stroke="black" points="64.96,-617.5 64.96,-671 206.96,-671 206.96,-617.5 64.96,-617.5"/>
<polygon fill="none" stroke="black" points="75.96,-645.25 75.96,-664 195.96,-664 195.96,-645.25 75.96,-645.25"/>
<text text-anchor="start" x="78.96" y="-652.5" font-family="Courier New" font-weight="bold" font-size="10.00">S_SHEEP_1::M_PESTER</text>
<polygon fill="none" stroke="black" points="75.96,-624.5 75.96,-643.25 195.96,-643.25 195.96,-624.5 75.96,-624.5"/>
<text text-anchor="start" x="90.96" y="-630.75" font-family="Courier New" font-size="10.00" fill="brown">start state = 0</text>
<polygon fill="none" stroke="black" points="72.96,-621.5 72.96,-667 198.96,-667 198.96,-621.5 72.96,-621.5"/>
</g>
<!-- 0 -->
<g id="node2" class="node">
<title>0</title>
<polyline fill="none" stroke="darkred" points="244.83,-633 259.08,-633"/>
<text text-anchor="start" x="247.83" y="-640.2" font-family="Courier New" font-weight="bold" font-size="14.00">0</text>
<path fill="none" stroke="darkred" d="M248.58,-630C248.58,-630 255.33,-630 255.33,-630 258.71,-630 262.08,-633.38 262.08,-636.75 262.08,-636.75 262.08,-651.75 262.08,-651.75 262.08,-655.12 258.71,-658.5 255.33,-658.5 255.33,-658.5 248.58,-658.5 248.58,-658.5 245.21,-658.5 241.83,-655.12 241.83,-651.75 241.83,-651.75 241.83,-636.75 241.83,-636.75 241.83,-633.38 245.21,-630 248.58,-630"/>
</g>
<!-- 1 -->
<g id="node3" class="node">
<title>1</title>
<polyline fill="none" stroke="darkred" points="244.83,-518 259.08,-518"/>
<text text-anchor="start" x="247.83" y="-525.2" font-family="Courier New" font-weight="bold" font-size="14.00">1</text>
<path fill="none" stroke="darkred" d="M248.58,-515C248.58,-515 255.33,-515 255.33,-515 258.71,-515 262.08,-518.38 262.08,-521.75 262.08,-521.75 262.08,-536.75 262.08,-536.75 262.08,-540.12 258.71,-543.5 255.33,-543.5 255.33,-543.5 248.58,-543.5 248.58,-543.5 245.21,-543.5 241.83,-540.12 241.83,-536.75 241.83,-536.75 241.83,-521.75 241.83,-521.75 241.83,-518.38 245.21,-515 248.58,-515"/>
</g>
<!-- 0&#45;&gt;1 -->
<g id="edge1" class="edge">
<title>0&#45;&gt;1</title>
<path fill="none" stroke="black" d="M251.96,-626.09C251.96,-608.15 251.96,-579.7 251.96,-558.45"/>
<polygon fill="black" stroke="black" points="255.46,-558.72 251.96,-548.72 248.46,-558.72 255.46,-558.72"/>
<text text-anchor="start" x="255.96" y="-573.75" font-family="Courier New" font-weight="bold" font-size="10.00" fill="blue">MOV(BFRAME,0)</text>
</g>
<!-- rightidle -->
<g id="node4" class="node">
<title>rightidle</title>
<polyline fill="none" stroke="darkred" points="211.83,-424.75 292.08,-424.75"/>
<text text-anchor="start" x="214.83" y="-431.95" font-family="Courier New" font-weight="bold" font-size="14.00">rightidle</text>
<path fill="none" stroke="darkred" d="M218.33,-421.75C218.33,-421.75 285.58,-421.75 285.58,-421.75 290.33,-421.75 295.08,-426.5 295.08,-431.25 295.08,-431.25 295.08,-440.75 295.08,-440.75 295.08,-445.5 290.33,-450.25 285.58,-450.25 285.58,-450.25 218.33,-450.25 218.33,-450.25 213.58,-450.25 208.83,-445.5 208.83,-440.75 208.83,-440.75 208.83,-431.25 208.83,-431.25 208.83,-426.5 213.58,-421.75 218.33,-421.75"/>
</g>
<!-- 1&#45;&gt;rightidle -->
<g id="edge2" class="edge">
<title>1&#45;&gt;rightidle</title>
<path fill="none" stroke="black" d="M251.96,-511.09C251.96,-498.21 251.96,-480.31 251.96,-465.32"/>
<polygon fill="black" stroke="black" points="255.46,-465.6 251.96,-455.6 248.46,-465.6 255.46,-465.6"/>
<text text-anchor="start" x="255.96" y="-480.5" font-family="Courier New" font-weight="bold" font-size="10.00" fill="blue">ASHOW(WIP1,)</text>
</g>
<!-- captured -->
<g id="node7" class="node">
<title>captured</title>
<ellipse fill="none" stroke="black" cx="55.96" cy="-18.25" rx="55.96" ry="18"/>
<text text-anchor="middle" x="55.96" y="-13.2" font-family="Courier New" font-size="14.00">captured</text>
</g>
<!-- rightidle&#45;&gt;captured -->
<g id="edge6" class="edge">
<title>rightidle&#45;&gt;captured</title>
<path fill="none" stroke="black" d="M223.88,-417.83C183.33,-391.37 109.37,-336.55 73.96,-269 36.1,-196.77 44.06,-96.28 51.02,-47.74"/>
<polygon fill="black" stroke="black" points="54.44,-48.48 52.51,-38.06 47.53,-47.41 54.44,-48.48"/>
<polygon fill="none" stroke="black" points="76.96,-247.25 76.96,-266 244.96,-266 244.96,-247.25 76.96,-247.25"/>
<text text-anchor="start" x="103.96" y="-254.5" font-family="Courier New" font-weight="bold" font-size="10.00" fill="orange">DROP(IDD_ROOTBLUE,)</text>
<polygon fill="none" stroke="black" points="76.96,-201 76.96,-245.25 244.96,-245.25 244.96,-201 76.96,-201"/>
<text text-anchor="start" x="79.96" y="-232.75" font-family="Courier New" font-size="10.00" fill="blue"> &#160;&#160;&#160;PLAYWAVE(SOUND_BAA);</text>
<text text-anchor="start" x="79.96" y="-220" font-family="Courier New" font-size="10.00" fill="blue"> &#160;&#160;&#160;SHOW(0);</text>
<text text-anchor="start" x="79.96" y="-207.25" font-family="Courier New" font-size="10.00" fill="blue"> &#160;&#160;&#160;HANDOFF(0,IDD_SHEEP_I);</text>
<polygon fill="none" stroke="black" points="73.96,-198 73.96,-269 247.96,-269 247.96,-198 73.96,-198"/>
</g>
<!-- startled -->
<g id="node8" class="node">
<title>startled</title>
<polyline fill="none" stroke="darkred" points="215.96,-294 287.96,-294"/>
<text text-anchor="start" x="218.96" y="-301.2" font-family="Courier New" font-weight="bold" font-size="14.00">startled</text>
<path fill="none" stroke="darkred" d="M222.46,-291C222.46,-291 281.46,-291 281.46,-291 286.21,-291 290.96,-295.75 290.96,-300.5 290.96,-300.5 290.96,-310 290.96,-310 290.96,-314.75 286.21,-319.5 281.46,-319.5 281.46,-319.5 222.46,-319.5 222.46,-319.5 217.71,-319.5 212.96,-314.75 212.96,-310 212.96,-310 212.96,-300.5 212.96,-300.5 212.96,-295.75 217.71,-291 222.46,-291"/>
</g>
<!-- rightidle&#45;&gt;startled -->
<g id="edge5" class="edge">
<title>rightidle&#45;&gt;startled</title>
<path fill="none" stroke="black" d="M251.96,-417.9C251.96,-396.74 251.96,-360.39 251.96,-334.93"/>
<polygon fill="black" stroke="black" points="255.46,-334.93 251.96,-324.93 248.46,-334.93 255.46,-334.93"/>
<polygon fill="none" stroke="black" points="254.96,-378 254.96,-396.75 380.96,-396.75 380.96,-378 254.96,-378"/>
<text text-anchor="start" x="293.96" y="-385.25" font-family="Courier New" font-weight="bold" font-size="10.00" fill="orange">CLICK(,)</text>
<polygon fill="none" stroke="black" points="254.96,-344.5 254.96,-376 380.96,-376 380.96,-344.5 254.96,-344.5"/>
<text text-anchor="start" x="257.96" y="-363.5" font-family="Courier New" font-size="10.00" fill="blue">PLAYWAVE(SOUND_BAA);</text>
<text text-anchor="start" x="257.96" y="-350.75" font-family="Courier New" font-size="10.00" fill="blue"> ASHOW(WIP2);</text>
<polygon fill="none" stroke="black" points="251.96,-341.5 251.96,-399.75 383.96,-399.75 383.96,-341.5 251.96,-341.5"/>
</g>
<!-- leftidle -->
<g id="node5" class="node">
<title>leftidle</title>
<polyline fill="none" stroke="darkred" points="215.96,-150.5 287.96,-150.5"/>
<text text-anchor="start" x="218.96" y="-157.7" font-family="Courier New" font-weight="bold" font-size="14.00">leftidle</text>
<path fill="none" stroke="darkred" d="M222.46,-147.5C222.46,-147.5 281.46,-147.5 281.46,-147.5 286.21,-147.5 290.96,-152.25 290.96,-157 290.96,-157 290.96,-166.5 290.96,-166.5 290.96,-171.25 286.21,-176 281.46,-176 281.46,-176 222.46,-176 222.46,-176 217.71,-176 212.96,-171.25 212.96,-166.5 212.96,-166.5 212.96,-157 212.96,-157 212.96,-152.25 217.71,-147.5 222.46,-147.5"/>
</g>
<!-- runback -->
<g id="node6" class="node">
<title>runback</title>
<polyline fill="none" stroke="darkred" points="319.08,-7 382.83,-7"/>
<text text-anchor="start" x="322.08" y="-14.2" font-family="Courier New" font-weight="bold" font-size="14.00">runback</text>
<path fill="none" stroke="darkred" d="M325.58,-4C325.58,-4 376.33,-4 376.33,-4 381.08,-4 385.83,-8.75 385.83,-13.5 385.83,-13.5 385.83,-23 385.83,-23 385.83,-27.75 381.08,-32.5 376.33,-32.5 376.33,-32.5 325.58,-32.5 325.58,-32.5 320.83,-32.5 316.08,-27.75 316.08,-23 316.08,-23 316.08,-13.5 316.08,-13.5 316.08,-8.75 320.83,-4 325.58,-4"/>
</g>
<!-- leftidle&#45;&gt;runback -->
<g id="edge3" class="edge">
<title>leftidle&#45;&gt;runback</title>
<path fill="none" stroke="black" d="M250.19,-143.7C248.77,-120.93 249.66,-80.43 269.96,-54.5 277.19,-45.26 287.34,-38.39 298.02,-33.3"/>
<polygon fill="black" stroke="black" points="299.08,-36.65 306.94,-29.54 296.36,-30.2 299.08,-36.65"/>
<polygon fill="none" stroke="black" points="272.96,-103.75 272.96,-122.5 416.96,-122.5 416.96,-103.75 272.96,-103.75"/>
<text text-anchor="start" x="320.96" y="-111" font-family="Courier New" font-weight="bold" font-size="10.00" fill="orange">CLICK(,)</text>
<polygon fill="none" stroke="black" points="272.96,-57.5 272.96,-101.75 416.96,-101.75 416.96,-57.5 272.96,-57.5"/>
<text text-anchor="start" x="275.96" y="-89.25" font-family="Courier New" font-size="10.00" fill="blue">PLAYWAVE(SOUND_BAA);</text>
<text text-anchor="start" x="275.96" y="-76.5" font-family="Courier New" font-size="10.00" fill="blue">PLAYWAVE(SOUND_GALLOP);</text>
<text text-anchor="start" x="275.96" y="-63.75" font-family="Courier New" font-size="10.00" fill="blue"> ASHOW(WIP4);</text>
<polygon fill="none" stroke="black" points="269.96,-54.5 269.96,-125.5 419.96,-125.5 419.96,-54.5 269.96,-54.5"/>
</g>
<!-- leftidle&#45;&gt;captured -->
<g id="edge4" class="edge">
<title>leftidle&#45;&gt;captured</title>
<path fill="none" stroke="black" d="M205.06,-157.6C157.97,-153.41 89.9,-144.25 71.96,-125.5 52.43,-105.09 50.4,-71.66 52.01,-47.74"/>
<polygon fill="black" stroke="black" points="55.47,-48.34 52.92,-38.05 48.5,-47.68 55.47,-48.34"/>
<polygon fill="none" stroke="black" points="74.96,-103.75 74.96,-122.5 242.96,-122.5 242.96,-103.75 74.96,-103.75"/>
<text text-anchor="start" x="101.96" y="-111" font-family="Courier New" font-weight="bold" font-size="10.00" fill="orange">DROP(IDD_ROOTBLUE,)</text>
<polygon fill="none" stroke="black" points="74.96,-57.5 74.96,-101.75 242.96,-101.75 242.96,-57.5 74.96,-57.5"/>
<text text-anchor="start" x="77.96" y="-89.25" font-family="Courier New" font-size="10.00" fill="blue"> &#160;&#160;&#160;PLAYWAVE(SOUND_BAA);</text>
<text text-anchor="start" x="77.96" y="-76.5" font-family="Courier New" font-size="10.00" fill="blue"> &#160;&#160;&#160;SHOW(0);</text>
<text text-anchor="start" x="77.96" y="-63.75" font-family="Courier New" font-size="10.00" fill="blue"> &#160;&#160;&#160;HANDOFF(0,IDD_SHEEP_I);</text>
<polygon fill="none" stroke="black" points="71.96,-54.5 71.96,-125.5 245.96,-125.5 245.96,-54.5 71.96,-54.5"/>
</g>
<!-- runback&#45;&gt;rightidle -->
<g id="edge7" class="edge">
<title>runback&#45;&gt;rightidle</title>
<path fill="none" stroke="black" d="M393.48,-32C403.92,-37.25 413.85,-44.52 419.96,-54.5 500.41,-185.94 489.18,-283.56 387.96,-399.75 377.9,-411.3 344.98,-420 314.05,-425.87"/>
<polygon fill="black" stroke="black" points="313.5,-422.41 304.29,-427.63 314.75,-429.3 313.5,-422.41"/>
<polygon fill="none" stroke="black" points="475.96,-240.88 475.96,-259.62 589.96,-259.62 589.96,-240.88 475.96,-240.88"/>
<text text-anchor="start" x="478.96" y="-248.12" font-family="Courier New" font-weight="bold" font-size="10.00" fill="blue">MOVETO(mark1,2500)</text>
<polygon fill="none" stroke="black" points="475.96,-207.38 475.96,-238.88 589.96,-238.88 589.96,-207.38 475.96,-207.38"/>
<text text-anchor="start" x="496.96" y="-226.38" font-family="Courier New" font-size="10.00" fill="blue">STOPWAVE();</text>
<text text-anchor="start" x="496.96" y="-213.62" font-family="Courier New" font-size="10.00" fill="blue">ASHOW(WIP1);</text>
<polygon fill="none" stroke="black" points="472.96,-204.38 472.96,-262.62 592.96,-262.62 592.96,-204.38 472.96,-204.38"/>
</g>
<!-- startled&#45;&gt;leftidle -->
<g id="edge8" class="edge">
<title>startled&#45;&gt;leftidle</title>
<path fill="none" stroke="black" d="M251.96,-287.18C251.96,-263.38 251.96,-219.93 251.96,-191.19"/>
<polygon fill="black" stroke="black" points="255.46,-191.39 251.96,-181.39 248.46,-191.39 255.46,-191.39"/>
<polygon fill="none" stroke="black" points="254.96,-240.88 254.96,-259.62 368.96,-259.62 368.96,-240.88 254.96,-240.88"/>
<text text-anchor="start" x="257.96" y="-248.12" font-family="Courier New" font-weight="bold" font-size="10.00" fill="blue">MOVETO(mark2,4000)</text>
<polygon fill="none" stroke="black" points="254.96,-207.38 254.96,-238.88 368.96,-238.88 368.96,-207.38 254.96,-207.38"/>
<text text-anchor="start" x="272.96" y="-226.38" font-family="Courier New" font-size="10.00" fill="blue">STOPWAVE();</text>
<text text-anchor="start" x="272.96" y="-213.62" font-family="Courier New" font-size="10.00" fill="blue"> ASHOW(WIP3);</text>
<polygon fill="none" stroke="black" points="251.96,-204.38 251.96,-262.62 371.96,-262.62 371.96,-204.38 251.96,-204.38"/>
</g>
<!-- status -->
<g id="node9" class="node">
<title>status</title>
<polygon fill="none" stroke="black" points="296.96,-604.75 296.96,-683.75 798.96,-683.75 798.96,-604.75 296.96,-604.75"/>
<polygon fill="none" stroke="black" points="307.96,-658 307.96,-676.75 787.96,-676.75 787.96,-658 307.96,-658"/>
<text text-anchor="start" x="520.96" y="-665.25" font-family="Courier New" font-weight="bold" font-size="10.00">S_SHEEP_1</text>
<polygon fill="none" stroke="black" points="307.96,-611.75 307.96,-656 787.96,-656 787.96,-611.75 307.96,-611.75"/>
<text text-anchor="start" x="310.96" y="-643.5" font-family="Courier New" font-size="10.00" fill="green">VIEW::IDV_PATH1 @pos(x:957, y:163, h:100, w:87)</text>
<text text-anchor="start" x="310.96" y="-630.75" font-family="Courier New" font-size="10.00" fill="green">S_SHEEP_1::M_PESTER(&#39;IDS_SHEEPQ&#39;,&#39;IDS_SHEEPR&#39;,&#39;IDS_SHEEPQ&#39;,&#39;IDS_SHEEPRB&#39;,&#39;&#39;,&#39;&#39;)</text>
<text text-anchor="start" x="310.96" y="-618" font-family="Courier New" font-size="10.00" fill="green">{state:&#39;captured&#39;: wObject:IDD_ROOTBLUE bFrame:0 dEtime:0 Top:163 Left:957 Z:0</text>
<polygon fill="none" stroke="black" points="304.96,-608.75 304.96,-679.75 790.96,-679.75 790.96,-608.75 304.96,-608.75"/>
</g>
</g>
</svg>
