<?xml version="1.0" encoding="UTF-8" standalone="no"?>
<!DOCTYPE svg PUBLIC "-//W3C//DTD SVG 1.1//EN"
 "http://www.w3.org/Graphics/SVG/1.1/DTD/svg11.dtd">
<!-- Generated by graphviz version 10.0.1 (20240210.2158)
 -->
<!-- Title: Automaton Pages: 1 -->
<svg width="978pt" height="763pt"
 viewBox="0.00 0.00 978.30 763.25" xmlns="http://www.w3.org/2000/svg" xmlns:xlink="http://www.w3.org/1999/xlink">
<g id="graph0" class="graph" transform="scale(1 1) rotate(0) translate(4 759.25)">
<title>Automaton</title>
<polygon fill="white" stroke="none" points="-4,4 -4,-759.25 974.3,-759.25 974.3,4 -4,4"/>
<!-- filename -->
<g id="node1" class="node">
<title>filename</title>
<polygon fill="none" stroke="black" points="62.3,-688.5 62.3,-742 204.3,-742 204.3,-688.5 62.3,-688.5"/>
<polygon fill="none" stroke="black" points="73.3,-716.25 73.3,-735 193.3,-735 193.3,-716.25 73.3,-716.25"/>
<text text-anchor="start" x="76.3" y="-723.5" font-family="Courier New" font-weight="bold" font-size="10.00">S_SHEEP_2::M_PESTER</text>
<polygon fill="none" stroke="black" points="73.3,-695.5 73.3,-714.25 193.3,-714.25 193.3,-695.5 73.3,-695.5"/>
<text text-anchor="start" x="88.3" y="-701.75" font-family="Courier New" font-size="10.00" fill="brown">start state = 0</text>
<polygon fill="none" stroke="black" points="70.3,-692.5 70.3,-738 196.3,-738 196.3,-692.5 70.3,-692.5"/>
</g>
<!-- 0 -->
<g id="node2" class="node">
<title>0</title>
<polyline fill="none" stroke="darkred" points="242.18,-704 256.43,-704"/>
<text text-anchor="start" x="245.18" y="-711.2" font-family="Courier New" font-weight="bold" font-size="14.00">0</text>
<path fill="none" stroke="darkred" d="M245.93,-701C245.93,-701 252.68,-701 252.68,-701 256.05,-701 259.43,-704.38 259.43,-707.75 259.43,-707.75 259.43,-722.75 259.43,-722.75 259.43,-726.12 256.05,-729.5 252.68,-729.5 252.68,-729.5 245.93,-729.5 245.93,-729.5 242.55,-729.5 239.18,-726.12 239.18,-722.75 239.18,-722.75 239.18,-707.75 239.18,-707.75 239.18,-704.38 242.55,-701 245.93,-701"/>
</g>
<!-- 1 -->
<g id="node3" class="node">
<title>1</title>
<polyline fill="none" stroke="darkred" points="242.18,-551.5 256.43,-551.5"/>
<text text-anchor="start" x="245.18" y="-558.7" font-family="Courier New" font-weight="bold" font-size="14.00">1</text>
<path fill="none" stroke="darkred" d="M245.93,-548.5C245.93,-548.5 252.68,-548.5 252.68,-548.5 256.05,-548.5 259.43,-551.88 259.43,-555.25 259.43,-555.25 259.43,-570.25 259.43,-570.25 259.43,-573.62 256.05,-577 252.68,-577 252.68,-577 245.93,-577 245.93,-577 242.55,-577 239.18,-573.62 239.18,-570.25 239.18,-570.25 239.18,-555.25 239.18,-555.25 239.18,-551.88 242.55,-548.5 245.93,-548.5"/>
</g>
<!-- 0&#45;&gt;1 -->
<g id="edge1" class="edge">
<title>0&#45;&gt;1</title>
<path fill="none" stroke="black" d="M249.3,-697.28C249.3,-671.76 249.3,-623.21 249.3,-592.21"/>
<polygon fill="black" stroke="black" points="252.8,-592.4 249.3,-582.4 245.8,-592.4 252.8,-592.4"/>
<polygon fill="none" stroke="black" points="252.3,-635.5 252.3,-654.25 378.3,-654.25 378.3,-635.5 252.3,-635.5"/>
<text text-anchor="start" x="276.3" y="-642.75" font-family="Courier New" font-weight="bold" font-size="10.00" fill="blue">MOV(BFRAME,0)</text>
<polygon fill="none" stroke="black" points="252.3,-602 252.3,-633.5 378.3,-633.5 378.3,-602 252.3,-602"/>
<text text-anchor="start" x="255.3" y="-621" font-family="Courier New" font-size="10.00" fill="blue"> BPARM = WIP6 + &quot;1&quot;;</text>
<text text-anchor="start" x="255.3" y="-608.25" font-family="Courier New" font-size="10.00" fill="blue"> WPARM = WIP6 + &quot;2&quot;;</text>
<polygon fill="none" stroke="black" points="249.3,-599 249.3,-657.25 381.3,-657.25 381.3,-599 249.3,-599"/>
</g>
<!-- rightidle -->
<g id="node4" class="node">
<title>rightidle</title>
<polyline fill="none" stroke="darkred" points="209.18,-458.25 289.43,-458.25"/>
<text text-anchor="start" x="212.18" y="-465.45" font-family="Courier New" font-weight="bold" font-size="14.00">rightidle</text>
<path fill="none" stroke="darkred" d="M215.68,-455.25C215.68,-455.25 282.93,-455.25 282.93,-455.25 287.68,-455.25 292.43,-460 292.43,-464.75 292.43,-464.75 292.43,-474.25 292.43,-474.25 292.43,-479 287.68,-483.75 282.93,-483.75 282.93,-483.75 215.68,-483.75 215.68,-483.75 210.93,-483.75 206.18,-479 206.18,-474.25 206.18,-474.25 206.18,-464.75 206.18,-464.75 206.18,-460 210.93,-455.25 215.68,-455.25"/>
</g>
<!-- 1&#45;&gt;rightidle -->
<g id="edge2" class="edge">
<title>1&#45;&gt;rightidle</title>
<path fill="none" stroke="black" d="M249.3,-544.59C249.3,-531.71 249.3,-513.81 249.3,-498.82"/>
<polygon fill="black" stroke="black" points="252.8,-499.1 249.3,-489.1 245.8,-499.1 252.8,-499.1"/>
<text text-anchor="start" x="253.3" y="-514" font-family="Courier New" font-weight="bold" font-size="10.00" fill="blue">ASHOW(WIP1,)</text>
</g>
<!-- captured -->
<g id="node5" class="node">
<title>captured</title>
<polyline fill="none" stroke="darkred" points="148.3,-7 220.3,-7"/>
<text text-anchor="start" x="151.3" y="-14.2" font-family="Courier New" font-weight="bold" font-size="14.00">captured</text>
<path fill="none" stroke="darkred" d="M154.8,-4C154.8,-4 213.8,-4 213.8,-4 218.55,-4 223.3,-8.75 223.3,-13.5 223.3,-13.5 223.3,-23 223.3,-23 223.3,-27.75 218.55,-32.5 213.8,-32.5 213.8,-32.5 154.8,-32.5 154.8,-32.5 150.05,-32.5 145.3,-27.75 145.3,-23 145.3,-23 145.3,-13.5 145.3,-13.5 145.3,-8.75 150.05,-4 154.8,-4"/>
</g>
<!-- rightidle&#45;&gt;captured -->
<g id="edge7" class="edge">
<title>rightidle&#45;&gt;captured</title>
<path fill="none" stroke="black" d="M202.38,-451.37C145.47,-427.73 52.19,-379.14 12.3,-302.5 -39.47,-203.03 87.3,-90.83 150.75,-42.95"/>
<polygon fill="black" stroke="black" points="152.47,-46.03 158.41,-37.26 148.3,-40.41 152.47,-46.03"/>
<polygon fill="none" stroke="black" points="15.3,-280.75 15.3,-299.5 165.3,-299.5 165.3,-280.75 15.3,-280.75"/>
<text text-anchor="start" x="36.3" y="-288" font-family="Courier New" font-weight="bold" font-size="10.00" fill="orange">DROP(IDD_ENCHANT,)</text>
<polygon fill="none" stroke="black" points="15.3,-209 15.3,-278.75 165.3,-278.75 165.3,-209 15.3,-209"/>
<text text-anchor="start" x="18.3" y="-266.25" font-family="Courier New" font-size="10.00" fill="blue"> &#160;&#160;&#160;ADDI(LWISDOM,1); </text>
<text text-anchor="start" x="18.3" y="-253.5" font-family="Courier New" font-size="10.00" fill="blue"> &#160;&#160;&#160;SIGNALi(0,SID_ID);</text>
<text text-anchor="start" x="18.3" y="-240.75" font-family="Courier New" font-size="10.00" fill="blue"> &#160;&#160;&#160;PLAYWAVE(SOUND_BAA);</text>
<text text-anchor="start" x="18.3" y="-228" font-family="Courier New" font-size="10.00" fill="blue"> &#160;&#160;&#160;SHOW(0);</text>
<text text-anchor="start" x="18.3" y="-215.25" font-family="Courier New" font-size="10.00" fill="blue"> &#160;&#160;&#160;HANDOFF(0,WIP5);</text>
<polygon fill="none" stroke="black" points="12.3,-206 12.3,-302.5 168.3,-302.5 168.3,-206 12.3,-206"/>
</g>
<!-- startled -->
<g id="node8" class="node">
<title>startled</title>
<polyline fill="none" stroke="darkred" points="251.3,-327.5 323.3,-327.5"/>
<text text-anchor="start" x="254.3" y="-334.7" font-family="Courier New" font-weight="bold" font-size="14.00">startled</text>
<path fill="none" stroke="darkred" d="M257.8,-324.5C257.8,-324.5 316.8,-324.5 316.8,-324.5 321.55,-324.5 326.3,-329.25 326.3,-334 326.3,-334 326.3,-343.5 326.3,-343.5 326.3,-348.25 321.55,-353 316.8,-353 316.8,-353 257.8,-353 257.8,-353 253.05,-353 248.3,-348.25 248.3,-343.5 248.3,-343.5 248.3,-334 248.3,-334 248.3,-329.25 253.05,-324.5 257.8,-324.5"/>
</g>
<!-- rightidle&#45;&gt;startled -->
<g id="edge6" class="edge">
<title>rightidle&#45;&gt;startled</title>
<path fill="none" stroke="black" d="M254.35,-451.4C260.65,-430.05 271.52,-393.22 279.04,-367.74"/>
<polygon fill="black" stroke="black" points="282.33,-368.95 281.81,-358.37 275.62,-366.97 282.33,-368.95"/>
<polygon fill="none" stroke="black" points="279.3,-411.5 279.3,-430.25 405.3,-430.25 405.3,-411.5 279.3,-411.5"/>
<text text-anchor="start" x="318.3" y="-418.75" font-family="Courier New" font-weight="bold" font-size="10.00" fill="orange">CLICK(,)</text>
<polygon fill="none" stroke="black" points="279.3,-378 279.3,-409.5 405.3,-409.5 405.3,-378 279.3,-378"/>
<text text-anchor="start" x="282.3" y="-397" font-family="Courier New" font-size="10.00" fill="blue">PLAYWAVE(SOUND_BAA);</text>
<text text-anchor="start" x="282.3" y="-384.25" font-family="Courier New" font-size="10.00" fill="blue"> ASHOW(WIP2);</text>
<polygon fill="none" stroke="black" points="276.3,-375 276.3,-433.25 408.3,-433.25 408.3,-375 276.3,-375"/>
</g>
<!-- captured&#45;&gt;rightidle -->
<g id="edge3" class="edge">
<title>captured&#45;&gt;rightidle</title>
<path fill="none" stroke="black" d="M181.72,-36.39C175.53,-80.86 161.78,-203.34 181.3,-302.5 191.41,-353.84 217.54,-409.29 234.31,-441.34"/>
<polygon fill="black" stroke="black" points="231.1,-442.76 238.89,-449.94 237.27,-439.47 231.1,-442.76"/>
<polygon fill="none" stroke="black" points="184.3,-255.25 184.3,-274 286.3,-274 286.3,-255.25 184.3,-255.25"/>
<text text-anchor="start" x="202.3" y="-262.5" font-family="Courier New" font-weight="bold" font-size="10.00" fill="orange">DROP(WIP5,)</text>
<polygon fill="none" stroke="black" points="184.3,-234.5 184.3,-253.25 286.3,-253.25 286.3,-234.5 184.3,-234.5"/>
<text text-anchor="start" x="187.3" y="-240.75" font-family="Courier New" font-size="10.00" fill="blue"> &#160;&#160;&#160;ASHOW(WIP1);</text>
<polygon fill="none" stroke="black" points="181.3,-231.5 181.3,-277 289.3,-277 289.3,-231.5 181.3,-231.5"/>
</g>
<!-- leftidle -->
<g id="node6" class="node">
<title>leftidle</title>
<polyline fill="none" stroke="darkred" stroke-width="3" points="278.8,-154 351.8,-154"/>
<text text-anchor="start" x="282.3" y="-161.7" font-family="Courier New" font-weight="bold" font-size="14.00">leftidle</text>
<path fill="none" stroke="darkred" stroke-width="3" d="M284.97,-149C284.97,-149 345.64,-149 345.64,-149 351.22,-149 356.8,-154.58 356.8,-160.17 356.8,-160.17 356.8,-171.33 356.8,-171.33 356.8,-176.92 351.22,-182.5 345.64,-182.5 345.64,-182.5 284.97,-182.5 284.97,-182.5 279.39,-182.5 273.8,-176.92 273.8,-171.33 273.8,-171.33 273.8,-160.17 273.8,-160.17 273.8,-154.58 279.39,-149 284.97,-149"/>
</g>
<!-- leftidle&#45;&gt;captured -->
<g id="edge5" class="edge">
<title>leftidle&#45;&gt;captured</title>
<path fill="none" stroke="black" d="M264.41,-153.45C247.81,-147.54 230.54,-138.68 218.3,-125.5 217.6,-124.75 202.82,-78.08 192.98,-46.85"/>
<polygon fill="black" stroke="black" points="196.41,-46.09 190.07,-37.6 189.73,-48.19 196.41,-46.09"/>
<polygon fill="none" stroke="black" points="221.3,-103.75 221.3,-122.5 371.3,-122.5 371.3,-103.75 221.3,-103.75"/>
<text text-anchor="start" x="242.3" y="-111" font-family="Courier New" font-weight="bold" font-size="10.00" fill="orange">DROP(IDD_ENCHANT,)</text>
<polygon fill="none" stroke="black" points="221.3,-57.5 221.3,-101.75 371.3,-101.75 371.3,-57.5 221.3,-57.5"/>
<text text-anchor="start" x="224.3" y="-89.25" font-family="Courier New" font-size="10.00" fill="blue"> &#160;&#160;&#160;PLAYWAVE(SOUND_BAA);</text>
<text text-anchor="start" x="224.3" y="-76.5" font-family="Courier New" font-size="10.00" fill="blue"> &#160;&#160;&#160;SHOW(0);</text>
<text text-anchor="start" x="224.3" y="-63.75" font-family="Courier New" font-size="10.00" fill="blue"> &#160;&#160;&#160;HANDOFF(0,WIP5);</text>
<polygon fill="none" stroke="black" points="218.3,-54.5 218.3,-125.5 374.3,-125.5 374.3,-54.5 218.3,-54.5"/>
</g>
<!-- runback -->
<g id="node7" class="node">
<title>runback</title>
<polyline fill="none" stroke="darkred" points="446.43,-7 510.18,-7"/>
<text text-anchor="start" x="449.43" y="-14.2" font-family="Courier New" font-weight="bold" font-size="14.00">runback</text>
<path fill="none" stroke="darkred" d="M452.93,-4C452.93,-4 503.68,-4 503.68,-4 508.43,-4 513.18,-8.75 513.18,-13.5 513.18,-13.5 513.18,-23 513.18,-23 513.18,-27.75 508.43,-32.5 503.68,-32.5 503.68,-32.5 452.93,-32.5 452.93,-32.5 448.18,-32.5 443.43,-27.75 443.43,-23 443.43,-23 443.43,-13.5 443.43,-13.5 443.43,-8.75 448.18,-4 452.93,-4"/>
</g>
<!-- leftidle&#45;&gt;runback -->
<g id="edge4" class="edge">
<title>leftidle&#45;&gt;runback</title>
<path fill="none" stroke="black" d="M355.24,-143.57C362.33,-138.41 369.1,-132.36 374.3,-125.5 394.34,-99.06 375.01,-79.07 397.3,-54.5 404.95,-46.07 414.98,-39.56 425.36,-34.57"/>
<polygon fill="black" stroke="black" points="426.6,-37.85 434.4,-30.67 423.83,-31.42 426.6,-37.85"/>
<polygon fill="none" stroke="black" points="400.3,-103.75 400.3,-122.5 544.3,-122.5 544.3,-103.75 400.3,-103.75"/>
<text text-anchor="start" x="448.3" y="-111" font-family="Courier New" font-weight="bold" font-size="10.00" fill="orange">CLICK(,)</text>
<polygon fill="none" stroke="black" points="400.3,-57.5 400.3,-101.75 544.3,-101.75 544.3,-57.5 400.3,-57.5"/>
<text text-anchor="start" x="403.3" y="-89.25" font-family="Courier New" font-size="10.00" fill="blue">PLAYWAVE(SOUND_BAA);</text>
<text text-anchor="start" x="403.3" y="-76.5" font-family="Courier New" font-size="10.00" fill="blue">PLAYWAVE(SOUND_GALLOP);</text>
<text text-anchor="start" x="403.3" y="-63.75" font-family="Courier New" font-size="10.00" fill="blue"> ASHOW(WIP4);</text>
<polygon fill="none" stroke="black" points="397.3,-54.5 397.3,-125.5 547.3,-125.5 547.3,-54.5 397.3,-54.5"/>
</g>
<!-- runback&#45;&gt;rightidle -->
<g id="edge8" class="edge">
<title>runback&#45;&gt;rightidle</title>
<path fill="none" stroke="black" d="M520.82,-32C531.27,-37.25 541.19,-44.52 547.3,-54.5 563.78,-81.41 553.78,-94.62 547.3,-125.5 516.65,-271.68 527.95,-338.73 412.3,-433.25 396.85,-445.88 350.75,-455.13 311.51,-460.98"/>
<polygon fill="black" stroke="black" points="311.02,-457.51 301.62,-462.4 312.02,-464.44 311.02,-457.51"/>
<polygon fill="none" stroke="black" points="534.3,-261.62 534.3,-280.38 648.3,-280.38 648.3,-261.62 534.3,-261.62"/>
<text text-anchor="start" x="537.3" y="-268.88" font-family="Courier New" font-weight="bold" font-size="10.00" fill="blue">MOVETO(BPARM,2500)</text>
<polygon fill="none" stroke="black" points="534.3,-228.12 534.3,-259.62 648.3,-259.62 648.3,-228.12 534.3,-228.12"/>
<text text-anchor="start" x="555.3" y="-247.12" font-family="Courier New" font-size="10.00" fill="blue">STOPWAVE();</text>
<text text-anchor="start" x="555.3" y="-234.38" font-family="Courier New" font-size="10.00" fill="blue">ASHOW(WIP1);</text>
<polygon fill="none" stroke="black" points="531.3,-225.12 531.3,-283.38 651.3,-283.38 651.3,-225.12 531.3,-225.12"/>
</g>
<!-- startled&#45;&gt;leftidle -->
<g id="edge9" class="edge">
<title>startled&#45;&gt;leftidle</title>
<path fill="none" stroke="black" d="M290.26,-320.54C291.24,-314.81 292.33,-308.38 293.3,-302.5 299.17,-267.21 305.7,-226.73 310.11,-199.22"/>
<polygon fill="black" stroke="black" points="313.56,-199.84 311.69,-189.42 306.65,-198.74 313.56,-199.84"/>
<polygon fill="none" stroke="black" points="312.3,-261.62 312.3,-280.38 426.3,-280.38 426.3,-261.62 312.3,-261.62"/>
<text text-anchor="start" x="315.3" y="-268.88" font-family="Courier New" font-weight="bold" font-size="10.00" fill="blue">MOVETO(WPARM,4000)</text>
<polygon fill="none" stroke="black" points="312.3,-228.12 312.3,-259.62 426.3,-259.62 426.3,-228.12 312.3,-228.12"/>
<text text-anchor="start" x="330.3" y="-247.12" font-family="Courier New" font-size="10.00" fill="blue">STOPWAVE();</text>
<text text-anchor="start" x="330.3" y="-234.38" font-family="Courier New" font-size="10.00" fill="blue"> ASHOW(WIP3);</text>
<polygon fill="none" stroke="black" points="309.3,-225.12 309.3,-283.38 429.3,-283.38 429.3,-225.12 309.3,-225.12"/>
</g>
<!-- status -->
<g id="node9" class="node">
<title>status</title>
<polygon fill="none" stroke="black" points="294.3,-675.75 294.3,-754.75 970.3,-754.75 970.3,-675.75 294.3,-675.75"/>
<polygon fill="none" stroke="black" points="305.3,-729 305.3,-747.75 959.3,-747.75 959.3,-729 305.3,-729"/>
<text text-anchor="start" x="605.3" y="-736.25" font-family="Courier New" font-weight="bold" font-size="10.00">S_SHEEP_2</text>
<polygon fill="none" stroke="black" points="305.3,-682.75 305.3,-727 959.3,-727 959.3,-682.75 305.3,-682.75"/>
<text text-anchor="start" x="308.3" y="-714.5" font-family="Courier New" font-size="10.00" fill="green">VIEW::IDV_MOON1 @pos(x:838, y:204, w:100, h:100)</text>
<text text-anchor="start" x="308.3" y="-701.75" font-family="Courier New" font-size="10.00" fill="green">S_SHEEP_2::M_PESTER(&#39;IDS_SHEEP_WTS&#39;,&#39;IDS_SHEEP_WRL&#39;,&#39;IDS_SHEEP_WTS&#39;,&#39;IDS_SHEEP_WRR&#39;,&#39;IDD_SHEEP_WTS&#39;,&#39;markw&#39;)</text>
<text text-anchor="start" x="308.3" y="-689" font-family="Courier New" font-size="10.00" fill="green">{state:&#39;leftidle&#39;: bParm:markw1 wParm:markw2 wSprite:IDS_SHEEP_WTS bFrame:0 dEtime:0 Top:204 Left:838</text>
<polygon fill="none" stroke="black" points="302.3,-679.75 302.3,-750.75 962.3,-750.75 962.3,-679.75 302.3,-679.75"/>
</g>
</g>
</svg>
