<?xml version="1.0" encoding="UTF-8" standalone="no"?>
<!DOCTYPE svg PUBLIC "-//W3C//DTD SVG 1.1//EN"
 "http://www.w3.org/Graphics/SVG/1.1/DTD/svg11.dtd">
<!-- Generated by graphviz version 10.0.1 (20240210.2158)
 -->
<!-- Title: Automaton Pages: 1 -->
<svg width="1084pt" height="350pt"
 viewBox="0.00 0.00 1083.84 349.50" xmlns="http://www.w3.org/2000/svg" xmlns:xlink="http://www.w3.org/1999/xlink">
<g id="graph0" class="graph" transform="scale(1 1) rotate(0) translate(4 345.5)">
<title>Automaton</title>
<polygon fill="white" stroke="none" points="-4,4 -4,-345.5 1079.84,-345.5 1079.84,4 -4,4"/>
<!-- filename -->
<g id="node1" class="node">
<title>filename</title>
<polygon fill="none" stroke="black" points="203.84,-274.75 203.84,-328.25 381.84,-328.25 381.84,-274.75 203.84,-274.75"/>
<polygon fill="none" stroke="black" points="214.84,-302.5 214.84,-321.25 370.84,-321.25 370.84,-302.5 214.84,-302.5"/>
<text text-anchor="start" x="217.84" y="-309.75" font-family="Courier New" font-weight="bold" font-size="10.00">S_SHEEP_PEN1::M_ANIMALPEN</text>
<polygon fill="none" stroke="black" points="214.84,-281.75 214.84,-300.5 370.84,-300.5 370.84,-281.75 214.84,-281.75"/>
<text text-anchor="start" x="247.84" y="-288" font-family="Courier New" font-size="10.00" fill="brown">start state = 0</text>
<polygon fill="none" stroke="black" points="211.84,-278.75 211.84,-324.25 373.84,-324.25 373.84,-278.75 211.84,-278.75"/>
</g>
<!-- 0 -->
<g id="node2" class="node">
<title>0</title>
<polyline fill="none" stroke="darkred" points="419.71,-290.25 433.96,-290.25"/>
<text text-anchor="start" x="422.71" y="-297.45" font-family="Courier New" font-weight="bold" font-size="14.00">0</text>
<path fill="none" stroke="darkred" d="M423.46,-287.25C423.46,-287.25 430.21,-287.25 430.21,-287.25 433.59,-287.25 436.96,-290.62 436.96,-294 436.96,-294 436.96,-309 436.96,-309 436.96,-312.38 433.59,-315.75 430.21,-315.75 430.21,-315.75 423.46,-315.75 423.46,-315.75 420.09,-315.75 416.71,-312.38 416.71,-309 416.71,-309 416.71,-294 416.71,-294 416.71,-290.62 420.09,-287.25 423.46,-287.25"/>
</g>
<!-- idle -->
<g id="node3" class="node">
<title>idle</title>
<polyline fill="none" stroke="darkred" points="406.34,-150.5 445.34,-150.5"/>
<text text-anchor="start" x="409.34" y="-157.7" font-family="Courier New" font-weight="bold" font-size="14.00">idle</text>
<path fill="none" stroke="darkred" d="M412.84,-147.5C412.84,-147.5 438.84,-147.5 438.84,-147.5 443.59,-147.5 448.34,-152.25 448.34,-157 448.34,-157 448.34,-166.5 448.34,-166.5 448.34,-171.25 443.59,-176 438.84,-176 438.84,-176 412.84,-176 412.84,-176 408.09,-176 403.34,-171.25 403.34,-166.5 403.34,-166.5 403.34,-157 403.34,-157 403.34,-152.25 408.09,-147.5 412.84,-147.5"/>
</g>
<!-- 0&#45;&gt;idle -->
<g id="edge1" class="edge">
<title>0&#45;&gt;idle</title>
<path fill="none" stroke="black" d="M413.03,-283.6C406.68,-276.36 398.79,-268.07 390.84,-261.5 379.14,-251.84 369.21,-256.76 361.84,-243.5 352.01,-225.83 351.55,-215.41 361.84,-198 367.24,-188.86 375.95,-181.92 385.23,-176.73"/>
<polygon fill="black" stroke="black" points="386.59,-179.97 394.04,-172.43 383.52,-173.68 386.59,-179.97"/>
<polygon fill="none" stroke="black" points="364.84,-221.75 364.84,-240.5 466.84,-240.5 466.84,-221.75 364.84,-221.75"/>
<text text-anchor="start" x="382.84" y="-229" font-family="Courier New" font-weight="bold" font-size="10.00" fill="orange">DROP(WIP5,)</text>
<polygon fill="none" stroke="black" points="364.84,-201 364.84,-219.75 466.84,-219.75 466.84,-201 364.84,-201"/>
<text text-anchor="start" x="367.84" y="-207.25" font-family="Courier New" font-size="10.00" fill="blue"> &#160;&#160;&#160;ASHOW(WIP1);</text>
<polygon fill="none" stroke="black" points="361.84,-198 361.84,-243.5 469.84,-243.5 469.84,-198 361.84,-198"/>
</g>
<!-- 0&#45;&gt;idle -->
<g id="edge2" class="edge">
<title>0&#45;&gt;idle</title>
<path fill="none" stroke="black" d="M444.56,-283.28C454.05,-272.8 464.8,-258.55 469.84,-243.5 476.26,-224.32 478.59,-216.23 469.84,-198 468.04,-194.25 465.62,-190.77 462.84,-187.58"/>
<polygon fill="black" stroke="black" points="465.53,-185.31 455.91,-180.87 460.66,-190.34 465.53,-185.31"/>
<polygon fill="none" stroke="black" points="477.84,-221.75 477.84,-240.5 579.84,-240.5 579.84,-221.75 477.84,-221.75"/>
<text text-anchor="start" x="495.84" y="-229" font-family="Courier New" font-weight="bold" font-size="10.00" fill="orange">DROP(WIP5,)</text>
<polygon fill="none" stroke="black" points="477.84,-201 477.84,-219.75 579.84,-219.75 579.84,-201 477.84,-201"/>
<text text-anchor="start" x="480.84" y="-207.25" font-family="Courier New" font-size="10.00" fill="blue"> &#160;&#160;&#160;ASHOW(WIP1);</text>
<polygon fill="none" stroke="black" points="474.84,-198 474.84,-243.5 582.84,-243.5 582.84,-198 474.84,-198"/>
</g>
<!-- captured -->
<g id="node4" class="node">
<title>captured</title>
<polyline fill="none" stroke="darkred" points="247.84,-7 319.84,-7"/>
<text text-anchor="start" x="250.84" y="-14.2" font-family="Courier New" font-weight="bold" font-size="14.00">captured</text>
<path fill="none" stroke="darkred" d="M254.34,-4C254.34,-4 313.34,-4 313.34,-4 318.09,-4 322.84,-8.75 322.84,-13.5 322.84,-13.5 322.84,-23 322.84,-23 322.84,-27.75 318.09,-32.5 313.34,-32.5 313.34,-32.5 254.34,-32.5 254.34,-32.5 249.59,-32.5 244.84,-27.75 244.84,-23 244.84,-23 244.84,-13.5 244.84,-13.5 244.84,-8.75 249.59,-4 254.34,-4"/>
</g>
<!-- idle&#45;&gt;captured -->
<g id="edge7" class="edge">
<title>idle&#45;&gt;captured</title>
<path fill="none" stroke="black" d="M395.61,-160.45C305.19,-159.25 41.41,-153.36 15.84,-125.5 -5.5,-102.25 -4.97,-78.22 15.84,-54.5 42.55,-24.05 155.11,-18.64 225.59,-18.34"/>
<polygon fill="black" stroke="black" points="225.43,-21.84 235.43,-18.34 225.43,-14.84 225.43,-21.84"/>
<polygon fill="none" stroke="black" points="18.84,-103.75 18.84,-122.5 168.84,-122.5 168.84,-103.75 18.84,-103.75"/>
<text text-anchor="start" x="36.84" y="-111" font-family="Courier New" font-weight="bold" font-size="10.00" fill="orange">DROP(IDD_ROOTBLUE,)</text>
<polygon fill="none" stroke="black" points="18.84,-57.5 18.84,-101.75 168.84,-101.75 168.84,-57.5 18.84,-57.5"/>
<text text-anchor="start" x="21.84" y="-89.25" font-family="Courier New" font-size="10.00" fill="blue"> &#160;&#160;&#160;PLAYWAVE(SOUND_BAA);</text>
<text text-anchor="start" x="21.84" y="-76.5" font-family="Courier New" font-size="10.00" fill="blue"> &#160;&#160;&#160;SHOW(0);</text>
<text text-anchor="start" x="21.84" y="-63.75" font-family="Courier New" font-size="10.00" fill="blue"> &#160;&#160;&#160;HANDOFF(0,WIP5);</text>
<polygon fill="none" stroke="black" points="15.84,-54.5 15.84,-125.5 171.84,-125.5 171.84,-54.5 15.84,-54.5"/>
</g>
<!-- idle&#45;&gt;captured -->
<g id="edge8" class="edge">
<title>idle&#45;&gt;captured</title>
<path fill="none" stroke="black" d="M395.76,-160.88C338.44,-160.43 216.95,-155.82 190.84,-125.5 170.25,-101.59 172.91,-80.47 190.84,-54.5 199.28,-42.27 212.56,-34.28 226.46,-29.06"/>
<polygon fill="black" stroke="black" points="227.28,-32.47 235.71,-26.05 225.12,-25.82 227.28,-32.47"/>
<polygon fill="none" stroke="black" points="193.84,-103.75 193.84,-122.5 343.84,-122.5 343.84,-103.75 193.84,-103.75"/>
<text text-anchor="start" x="211.84" y="-111" font-family="Courier New" font-weight="bold" font-size="10.00" fill="orange">DROP(IDD_ROOTBLUE,)</text>
<polygon fill="none" stroke="black" points="193.84,-57.5 193.84,-101.75 343.84,-101.75 343.84,-57.5 193.84,-57.5"/>
<text text-anchor="start" x="196.84" y="-89.25" font-family="Courier New" font-size="10.00" fill="blue"> &#160;&#160;&#160;PLAYWAVE(SOUND_BAA);</text>
<text text-anchor="start" x="196.84" y="-76.5" font-family="Courier New" font-size="10.00" fill="blue"> &#160;&#160;&#160;SHOW(0);</text>
<text text-anchor="start" x="196.84" y="-63.75" font-family="Courier New" font-size="10.00" fill="blue"> &#160;&#160;&#160;HANDOFF(0,WIP5);</text>
<polygon fill="none" stroke="black" points="190.84,-54.5 190.84,-125.5 346.84,-125.5 346.84,-54.5 190.84,-54.5"/>
</g>
<!-- annoyed -->
<g id="node5" class="node">
<title>annoyed</title>
<ellipse fill="none" stroke="black" cx="663.84" cy="-18.25" rx="50.33" ry="18"/>
<text text-anchor="middle" x="663.84" y="-13.2" font-family="Courier New" font-size="14.00">annoyed</text>
</g>
<!-- idle&#45;&gt;annoyed -->
<g id="edge5" class="edge">
<title>idle&#45;&gt;annoyed</title>
<path fill="none" stroke="black" d="M456.34,-159.88C485.35,-157.52 528.64,-149.78 556.84,-125.5 582.93,-103.03 563.77,-79.12 587.84,-54.5 595.61,-46.55 605.52,-40.2 615.59,-35.21"/>
<polygon fill="black" stroke="black" points="617.01,-38.41 624.69,-31.12 614.13,-32.03 617.01,-38.41"/>
<polygon fill="none" stroke="black" points="590.84,-91 590.84,-109.75 716.84,-109.75 716.84,-91 590.84,-91"/>
<text text-anchor="start" x="629.84" y="-98.25" font-family="Courier New" font-weight="bold" font-size="10.00" fill="orange">CLICK(,)</text>
<polygon fill="none" stroke="black" points="590.84,-70.25 590.84,-89 716.84,-89 716.84,-70.25 590.84,-70.25"/>
<text text-anchor="start" x="593.84" y="-76.5" font-family="Courier New" font-size="10.00" fill="blue">PLAYWAVE(SOUND_BAA);</text>
<polygon fill="none" stroke="black" points="587.84,-67.25 587.84,-112.75 719.84,-112.75 719.84,-67.25 587.84,-67.25"/>
</g>
<!-- idle&#45;&gt;annoyed -->
<g id="edge6" class="edge">
<title>idle&#45;&gt;annoyed</title>
<path fill="none" stroke="black" d="M456.2,-159.35C527.8,-155.75 702.52,-145.02 719.84,-125.5 740.78,-101.9 735.09,-82.12 719.84,-54.5 716.41,-48.3 711.39,-43.04 705.73,-38.62"/>
<polygon fill="black" stroke="black" points="707.96,-35.91 697.72,-33.22 704.05,-41.71 707.96,-35.91"/>
<polygon fill="none" stroke="black" points="735.84,-91 735.84,-109.75 861.84,-109.75 861.84,-91 735.84,-91"/>
<text text-anchor="start" x="774.84" y="-98.25" font-family="Courier New" font-weight="bold" font-size="10.00" fill="orange">CLICK(,)</text>
<polygon fill="none" stroke="black" points="735.84,-70.25 735.84,-89 861.84,-89 861.84,-70.25 735.84,-70.25"/>
<text text-anchor="start" x="738.84" y="-76.5" font-family="Courier New" font-size="10.00" fill="blue">PLAYWAVE(SOUND_BAA);</text>
<polygon fill="none" stroke="black" points="732.84,-67.25 732.84,-112.75 864.84,-112.75 864.84,-67.25 732.84,-67.25"/>
</g>
<!-- captured&#45;&gt;idle -->
<g id="edge3" class="edge">
<title>captured&#45;&gt;idle</title>
<path fill="none" stroke="black" d="M328.47,-36.48C336.77,-41.31 344.74,-47.26 350.84,-54.5 372.2,-79.87 353.92,-98.98 373.84,-125.5 377.35,-130.18 381.67,-134.44 386.31,-138.26"/>
<polygon fill="black" stroke="black" points="384.15,-141.02 394.28,-144.15 388.31,-135.39 384.15,-141.02"/>
<polygon fill="none" stroke="black" points="376.84,-97.38 376.84,-116.12 454.84,-116.12 454.84,-97.38 376.84,-97.38"/>
<text text-anchor="start" x="382.84" y="-104.62" font-family="Courier New" font-weight="bold" font-size="10.00" fill="orange">DROP(WIP5,)</text>
<polygon fill="none" stroke="black" points="376.84,-63.88 376.84,-95.38 454.84,-95.38 454.84,-63.88 376.84,-63.88"/>
<text text-anchor="start" x="379.84" y="-82.88" font-family="Courier New" font-size="10.00" fill="blue">STOPWAVE();</text>
<text text-anchor="start" x="379.84" y="-70.12" font-family="Courier New" font-size="10.00" fill="blue">ASHOW(WIP1);</text>
<polygon fill="none" stroke="black" points="373.84,-60.88 373.84,-119.12 457.84,-119.12 457.84,-60.88 373.84,-60.88"/>
</g>
<!-- captured&#45;&gt;idle -->
<g id="edge4" class="edge">
<title>captured&#45;&gt;idle</title>
<path fill="none" stroke="black" d="M330.6,-22.2C376.55,-26.19 442.03,-35.17 457.84,-54.5 477.81,-78.93 469.21,-96.06 457.84,-125.5 456.6,-128.71 454.91,-131.81 452.96,-134.75"/>
<polygon fill="black" stroke="black" points="450.42,-132.32 446.98,-142.34 455.92,-136.66 450.42,-132.32"/>
<polygon fill="none" stroke="black" points="471.84,-97.38 471.84,-116.12 549.84,-116.12 549.84,-97.38 471.84,-97.38"/>
<text text-anchor="start" x="477.84" y="-104.62" font-family="Courier New" font-weight="bold" font-size="10.00" fill="orange">DROP(WIP5,)</text>
<polygon fill="none" stroke="black" points="471.84,-63.88 471.84,-95.38 549.84,-95.38 549.84,-63.88 471.84,-63.88"/>
<text text-anchor="start" x="474.84" y="-82.88" font-family="Courier New" font-size="10.00" fill="blue">STOPWAVE();</text>
<text text-anchor="start" x="474.84" y="-70.12" font-family="Courier New" font-size="10.00" fill="blue">ASHOW(WIP1);</text>
<polygon fill="none" stroke="black" points="468.84,-60.88 468.84,-119.12 552.84,-119.12 552.84,-60.88 468.84,-60.88"/>
</g>
<!-- status -->
<g id="node6" class="node">
<title>status</title>
<polygon fill="none" stroke="black" points="471.84,-262 471.84,-341 1075.84,-341 1075.84,-262 471.84,-262"/>
<polygon fill="none" stroke="black" points="482.84,-315.25 482.84,-334 1064.84,-334 1064.84,-315.25 482.84,-315.25"/>
<text text-anchor="start" x="737.84" y="-322.5" font-family="Courier New" font-weight="bold" font-size="10.00">S_SHEEP_PEN1</text>
<polygon fill="none" stroke="black" points="482.84,-269 482.84,-313.25 1064.84,-313.25 1064.84,-269 482.84,-269"/>
<text text-anchor="start" x="485.84" y="-300.75" font-family="Courier New" font-size="10.00" fill="green">VIEW::IDV_VIL4 @pos(x:44, y:150, h:80, w:63)</text>
<text text-anchor="start" x="485.84" y="-288" font-family="Courier New" font-size="10.00" fill="green">S_SHEEP_PEN1::M_ANIMALPEN(&#39;IDS_SHEEPQ&#39;,&#39;IDS_SHEEPR&#39;,&#39;IDS_SHEEPQ&#39;,&#39;IDS_SHEEPRB&#39;,&#39;IDD_SHEEP_I&#39;,&#39;&#39;)</text>
<text text-anchor="start" x="485.84" y="-275.25" font-family="Courier New" font-size="10.00" fill="green">{state:&#39;annoyed&#39;: wObject:IDD_SHEEP_I wSprite:IDS_SHEEPQ Top:150 Left:44 Z:0</text>
<polygon fill="none" stroke="black" points="479.84,-266 479.84,-337 1067.84,-337 1067.84,-266 479.84,-266"/>
</g>
</g>
</svg>
