<?xml version="1.0" encoding="UTF-8" standalone="no"?>
<!DOCTYPE svg PUBLIC "-//W3C//DTD SVG 1.1//EN"
 "http://www.w3.org/Graphics/SVG/1.1/DTD/svg11.dtd">
<!-- Generated by graphviz version 10.0.1 (20240210.2158)
 -->
<!-- Title: Automaton Pages: 1 -->
<svg width="952pt" height="700pt"
 viewBox="0.00 0.00 952.16 700.25" xmlns="http://www.w3.org/2000/svg" xmlns:xlink="http://www.w3.org/1999/xlink">
<g id="graph0" class="graph" transform="scale(1 1) rotate(0) translate(4 696.25)">
<title>Automaton</title>
<polygon fill="white" stroke="none" points="-4,4 -4,-696.25 948.16,-696.25 948.16,4 -4,4"/>
<!-- filename -->
<g id="node1" class="node">
<title>filename</title>
<polygon fill="none" stroke="black" points="66.16,-625.5 66.16,-679 208.16,-679 208.16,-625.5 66.16,-625.5"/>
<polygon fill="none" stroke="black" points="77.16,-653.25 77.16,-672 197.16,-672 197.16,-653.25 77.16,-653.25"/>
<text text-anchor="start" x="80.16" y="-660.5" font-family="Courier New" font-weight="bold" font-size="10.00">S_SHEEP_2::M_PESTER</text>
<polygon fill="none" stroke="black" points="77.16,-632.5 77.16,-651.25 197.16,-651.25 197.16,-632.5 77.16,-632.5"/>
<text text-anchor="start" x="92.16" y="-638.75" font-family="Courier New" font-size="10.00" fill="brown">start state = 0</text>
<polygon fill="none" stroke="black" points="74.16,-629.5 74.16,-675 200.16,-675 200.16,-629.5 74.16,-629.5"/>
</g>
<!-- 0 -->
<g id="node2" class="node">
<title>0</title>
<polyline fill="none" stroke="darkred" points="246.04,-641 260.29,-641"/>
<text text-anchor="start" x="249.04" y="-648.2" font-family="Courier New" font-weight="bold" font-size="14.00">0</text>
<path fill="none" stroke="darkred" d="M249.79,-638C249.79,-638 256.54,-638 256.54,-638 259.91,-638 263.29,-641.38 263.29,-644.75 263.29,-644.75 263.29,-659.75 263.29,-659.75 263.29,-663.12 259.91,-666.5 256.54,-666.5 256.54,-666.5 249.79,-666.5 249.79,-666.5 246.41,-666.5 243.04,-663.12 243.04,-659.75 243.04,-659.75 243.04,-644.75 243.04,-644.75 243.04,-641.38 246.41,-638 249.79,-638"/>
</g>
<!-- 1 -->
<g id="node3" class="node">
<title>1</title>
<polyline fill="none" stroke="darkred" points="246.04,-526 260.29,-526"/>
<text text-anchor="start" x="249.04" y="-533.2" font-family="Courier New" font-weight="bold" font-size="14.00">1</text>
<path fill="none" stroke="darkred" d="M249.79,-523C249.79,-523 256.54,-523 256.54,-523 259.91,-523 263.29,-526.38 263.29,-529.75 263.29,-529.75 263.29,-544.75 263.29,-544.75 263.29,-548.12 259.91,-551.5 256.54,-551.5 256.54,-551.5 249.79,-551.5 249.79,-551.5 246.41,-551.5 243.04,-548.12 243.04,-544.75 243.04,-544.75 243.04,-529.75 243.04,-529.75 243.04,-526.38 246.41,-523 249.79,-523"/>
</g>
<!-- 0&#45;&gt;1 -->
<g id="edge1" class="edge">
<title>0&#45;&gt;1</title>
<path fill="none" stroke="black" d="M253.16,-634.09C253.16,-616.15 253.16,-587.7 253.16,-566.45"/>
<polygon fill="black" stroke="black" points="256.66,-566.72 253.16,-556.72 249.66,-566.72 256.66,-566.72"/>
<text text-anchor="start" x="257.16" y="-581.75" font-family="Courier New" font-weight="bold" font-size="10.00" fill="blue">MOV(BFRAME,0)</text>
</g>
<!-- rightidle -->
<g id="node4" class="node">
<title>rightidle</title>
<polyline fill="none" stroke="darkred" stroke-width="3" points="212.54,-428.25 293.79,-428.25"/>
<text text-anchor="start" x="216.04" y="-435.95" font-family="Courier New" font-weight="bold" font-size="14.00">rightidle</text>
<path fill="none" stroke="darkred" stroke-width="3" d="M218.71,-423.25C218.71,-423.25 287.62,-423.25 287.62,-423.25 293.21,-423.25 298.79,-428.83 298.79,-434.42 298.79,-434.42 298.79,-445.58 298.79,-445.58 298.79,-451.17 293.21,-456.75 287.62,-456.75 287.62,-456.75 218.71,-456.75 218.71,-456.75 213.12,-456.75 207.54,-451.17 207.54,-445.58 207.54,-445.58 207.54,-434.42 207.54,-434.42 207.54,-428.83 213.12,-423.25 218.71,-423.25"/>
</g>
<!-- 1&#45;&gt;rightidle -->
<g id="edge2" class="edge">
<title>1&#45;&gt;rightidle</title>
<path fill="none" stroke="black" d="M253.16,-519.22C253.16,-506.51 253.16,-488.77 253.16,-473.39"/>
<polygon fill="black" stroke="black" points="256.66,-473.73 253.16,-463.73 249.66,-473.73 256.66,-473.73"/>
<text text-anchor="start" x="257.16" y="-488.5" font-family="Courier New" font-weight="bold" font-size="10.00" fill="blue">ASHOW(WIP1,)</text>
</g>
<!-- captured -->
<g id="node5" class="node">
<title>captured</title>
<polyline fill="none" stroke="darkred" points="146.16,-7 218.16,-7"/>
<text text-anchor="start" x="149.16" y="-14.2" font-family="Courier New" font-weight="bold" font-size="14.00">captured</text>
<path fill="none" stroke="darkred" d="M152.66,-4C152.66,-4 211.66,-4 211.66,-4 216.41,-4 221.16,-8.75 221.16,-13.5 221.16,-13.5 221.16,-23 221.16,-23 221.16,-27.75 216.41,-32.5 211.66,-32.5 211.66,-32.5 152.66,-32.5 152.66,-32.5 147.91,-32.5 143.16,-27.75 143.16,-23 143.16,-23 143.16,-13.5 143.16,-13.5 143.16,-8.75 147.91,-4 152.66,-4"/>
</g>
<!-- rightidle&#45;&gt;captured -->
<g id="edge7" class="edge">
<title>rightidle&#45;&gt;captured</title>
<path fill="none" stroke="black" d="M198.24,-418.44C139.74,-393.21 50.28,-344.29 11.16,-269 -34.93,-180.29 81.91,-85.51 144.98,-42.67"/>
<polygon fill="black" stroke="black" points="146.61,-45.79 152.98,-37.33 142.72,-39.97 146.61,-45.79"/>
<polygon fill="none" stroke="black" points="14.16,-247.25 14.16,-266 164.16,-266 164.16,-247.25 14.16,-247.25"/>
<text text-anchor="start" x="32.16" y="-254.5" font-family="Courier New" font-weight="bold" font-size="10.00" fill="orange">DROP(IDD_ROOTBLUE,)</text>
<polygon fill="none" stroke="black" points="14.16,-201 14.16,-245.25 164.16,-245.25 164.16,-201 14.16,-201"/>
<text text-anchor="start" x="17.16" y="-232.75" font-family="Courier New" font-size="10.00" fill="blue"> &#160;&#160;&#160;PLAYWAVE(SOUND_BAA);</text>
<text text-anchor="start" x="17.16" y="-220" font-family="Courier New" font-size="10.00" fill="blue"> &#160;&#160;&#160;SHOW(0);</text>
<text text-anchor="start" x="17.16" y="-207.25" font-family="Courier New" font-size="10.00" fill="blue"> &#160;&#160;&#160;HANDOFF(0,WIP5);</text>
<polygon fill="none" stroke="black" points="11.16,-198 11.16,-269 167.16,-269 167.16,-198 11.16,-198"/>
</g>
<!-- startled -->
<g id="node8" class="node">
<title>startled</title>
<polyline fill="none" stroke="darkred" points="255.16,-294 327.16,-294"/>
<text text-anchor="start" x="258.16" y="-301.2" font-family="Courier New" font-weight="bold" font-size="14.00">startled</text>
<path fill="none" stroke="darkred" d="M261.66,-291C261.66,-291 320.66,-291 320.66,-291 325.41,-291 330.16,-295.75 330.16,-300.5 330.16,-300.5 330.16,-310 330.16,-310 330.16,-314.75 325.41,-319.5 320.66,-319.5 320.66,-319.5 261.66,-319.5 261.66,-319.5 256.91,-319.5 252.16,-314.75 252.16,-310 252.16,-310 252.16,-300.5 252.16,-300.5 252.16,-295.75 256.91,-291 261.66,-291"/>
</g>
<!-- rightidle&#45;&gt;startled -->
<g id="edge6" class="edge">
<title>rightidle&#45;&gt;startled</title>
<path fill="none" stroke="black" d="M259.18,-417.97C265.65,-395.37 275.96,-359.35 283.12,-334.34"/>
<polygon fill="black" stroke="black" points="286.45,-335.42 285.84,-324.84 279.72,-333.49 286.45,-335.42"/>
<polygon fill="none" stroke="black" points="284.16,-378 284.16,-396.75 410.16,-396.75 410.16,-378 284.16,-378"/>
<text text-anchor="start" x="323.16" y="-385.25" font-family="Courier New" font-weight="bold" font-size="10.00" fill="orange">CLICK(,)</text>
<polygon fill="none" stroke="black" points="284.16,-344.5 284.16,-376 410.16,-376 410.16,-344.5 284.16,-344.5"/>
<text text-anchor="start" x="287.16" y="-363.5" font-family="Courier New" font-size="10.00" fill="blue">PLAYWAVE(SOUND_BAA);</text>
<text text-anchor="start" x="287.16" y="-350.75" font-family="Courier New" font-size="10.00" fill="blue"> ASHOW(WIP2);</text>
<polygon fill="none" stroke="black" points="281.16,-341.5 281.16,-399.75 413.16,-399.75 413.16,-341.5 281.16,-341.5"/>
</g>
<!-- captured&#45;&gt;rightidle -->
<g id="edge3" class="edge">
<title>captured&#45;&gt;rightidle</title>
<path fill="none" stroke="black" d="M179.44,-36.45C173.5,-77.32 161.31,-183.25 179.16,-269 189.82,-320.18 216.74,-374.85 235,-407.98"/>
<polygon fill="black" stroke="black" points="231.91,-409.62 239.85,-416.63 238.01,-406.19 231.91,-409.62"/>
<polygon fill="none" stroke="black" points="182.16,-234.5 182.16,-253.25 296.16,-253.25 296.16,-234.5 182.16,-234.5"/>
<text text-anchor="start" x="185.16" y="-241.75" font-family="Courier New" font-weight="bold" font-size="10.00" fill="orange">DROP(IDD_SHEEP_I,)</text>
<polygon fill="none" stroke="black" points="182.16,-213.75 182.16,-232.5 296.16,-232.5 296.16,-213.75 182.16,-213.75"/>
<text text-anchor="start" x="191.16" y="-220" font-family="Courier New" font-size="10.00" fill="blue"> &#160;&#160;&#160;ASHOW(WIP1);</text>
<polygon fill="none" stroke="black" points="179.16,-210.75 179.16,-256.25 299.16,-256.25 299.16,-210.75 179.16,-210.75"/>
</g>
<!-- leftidle -->
<g id="node6" class="node">
<title>leftidle</title>
<polyline fill="none" stroke="darkred" points="289.16,-150.5 361.16,-150.5"/>
<text text-anchor="start" x="292.16" y="-157.7" font-family="Courier New" font-weight="bold" font-size="14.00">leftidle</text>
<path fill="none" stroke="darkred" d="M295.66,-147.5C295.66,-147.5 354.66,-147.5 354.66,-147.5 359.41,-147.5 364.16,-152.25 364.16,-157 364.16,-157 364.16,-166.5 364.16,-166.5 364.16,-171.25 359.41,-176 354.66,-176 354.66,-176 295.66,-176 295.66,-176 290.91,-176 286.16,-171.25 286.16,-166.5 286.16,-166.5 286.16,-157 286.16,-157 286.16,-152.25 290.91,-147.5 295.66,-147.5"/>
</g>
<!-- leftidle&#45;&gt;captured -->
<g id="edge5" class="edge">
<title>leftidle&#45;&gt;captured</title>
<path fill="none" stroke="black" d="M278.19,-155.43C256.77,-150.76 232.59,-141.98 216.16,-125.5 215.44,-124.77 200.66,-78.1 190.83,-46.86"/>
<polygon fill="black" stroke="black" points="194.26,-46.1 187.92,-37.61 187.58,-48.2 194.26,-46.1"/>
<polygon fill="none" stroke="black" points="219.16,-103.75 219.16,-122.5 369.16,-122.5 369.16,-103.75 219.16,-103.75"/>
<text text-anchor="start" x="237.16" y="-111" font-family="Courier New" font-weight="bold" font-size="10.00" fill="orange">DROP(IDD_ROOTBLUE,)</text>
<polygon fill="none" stroke="black" points="219.16,-57.5 219.16,-101.75 369.16,-101.75 369.16,-57.5 219.16,-57.5"/>
<text text-anchor="start" x="222.16" y="-89.25" font-family="Courier New" font-size="10.00" fill="blue"> &#160;&#160;&#160;PLAYWAVE(SOUND_BAA);</text>
<text text-anchor="start" x="222.16" y="-76.5" font-family="Courier New" font-size="10.00" fill="blue"> &#160;&#160;&#160;SHOW(0);</text>
<text text-anchor="start" x="222.16" y="-63.75" font-family="Courier New" font-size="10.00" fill="blue"> &#160;&#160;&#160;HANDOFF(0,WIP5);</text>
<polygon fill="none" stroke="black" points="216.16,-54.5 216.16,-125.5 372.16,-125.5 372.16,-54.5 216.16,-54.5"/>
</g>
<!-- runback -->
<g id="node7" class="node">
<title>runback</title>
<polyline fill="none" stroke="darkred" points="444.29,-7 508.04,-7"/>
<text text-anchor="start" x="447.29" y="-14.2" font-family="Courier New" font-weight="bold" font-size="14.00">runback</text>
<path fill="none" stroke="darkred" d="M450.79,-4C450.79,-4 501.54,-4 501.54,-4 506.29,-4 511.04,-8.75 511.04,-13.5 511.04,-13.5 511.04,-23 511.04,-23 511.04,-27.75 506.29,-32.5 501.54,-32.5 501.54,-32.5 450.79,-32.5 450.79,-32.5 446.04,-32.5 441.29,-27.75 441.29,-23 441.29,-23 441.29,-13.5 441.29,-13.5 441.29,-8.75 446.04,-4 450.79,-4"/>
</g>
<!-- leftidle&#45;&gt;runback -->
<g id="edge4" class="edge">
<title>leftidle&#45;&gt;runback</title>
<path fill="none" stroke="black" d="M353.56,-143.84C360.41,-138.66 367.18,-132.47 372.16,-125.5 391.44,-98.51 372.88,-79.07 395.16,-54.5 402.81,-46.07 412.84,-39.56 423.22,-34.57"/>
<polygon fill="black" stroke="black" points="424.46,-37.85 432.26,-30.67 421.69,-31.42 424.46,-37.85"/>
<polygon fill="none" stroke="black" points="398.16,-103.75 398.16,-122.5 542.16,-122.5 542.16,-103.75 398.16,-103.75"/>
<text text-anchor="start" x="446.16" y="-111" font-family="Courier New" font-weight="bold" font-size="10.00" fill="orange">CLICK(,)</text>
<polygon fill="none" stroke="black" points="398.16,-57.5 398.16,-101.75 542.16,-101.75 542.16,-57.5 398.16,-57.5"/>
<text text-anchor="start" x="401.16" y="-89.25" font-family="Courier New" font-size="10.00" fill="blue">PLAYWAVE(SOUND_BAA);</text>
<text text-anchor="start" x="401.16" y="-76.5" font-family="Courier New" font-size="10.00" fill="blue">PLAYWAVE(SOUND_GALLOP);</text>
<text text-anchor="start" x="401.16" y="-63.75" font-family="Courier New" font-size="10.00" fill="blue"> ASHOW(WIP4);</text>
<polygon fill="none" stroke="black" points="395.16,-54.5 395.16,-125.5 545.16,-125.5 545.16,-54.5 395.16,-54.5"/>
</g>
<!-- runback&#45;&gt;rightidle -->
<g id="edge8" class="edge">
<title>runback&#45;&gt;rightidle</title>
<path fill="none" stroke="black" d="M518.69,-32C529.13,-37.25 539.05,-44.52 545.16,-54.5 561.64,-81.41 552,-94.69 545.16,-125.5 516.03,-256.82 521.37,-314.7 417.16,-399.75 389.77,-422.1 351.73,-432.1 319.18,-436.43"/>
<polygon fill="black" stroke="black" points="318.96,-432.93 309.43,-437.56 319.76,-439.88 318.96,-432.93"/>
<polygon fill="none" stroke="black" points="533.16,-240.88 533.16,-259.62 647.16,-259.62 647.16,-240.88 533.16,-240.88"/>
<text text-anchor="start" x="536.16" y="-248.12" font-family="Courier New" font-weight="bold" font-size="10.00" fill="blue">MOVETO(mark1,2500)</text>
<polygon fill="none" stroke="black" points="533.16,-207.38 533.16,-238.88 647.16,-238.88 647.16,-207.38 533.16,-207.38"/>
<text text-anchor="start" x="554.16" y="-226.38" font-family="Courier New" font-size="10.00" fill="blue">STOPWAVE();</text>
<text text-anchor="start" x="554.16" y="-213.62" font-family="Courier New" font-size="10.00" fill="blue">ASHOW(WIP1);</text>
<polygon fill="none" stroke="black" points="530.16,-204.38 530.16,-262.62 650.16,-262.62 650.16,-204.38 530.16,-204.38"/>
</g>
<!-- startled&#45;&gt;leftidle -->
<g id="edge9" class="edge">
<title>startled&#45;&gt;leftidle</title>
<path fill="none" stroke="black" d="M297.45,-287.17C299.44,-281.44 301.53,-274.99 303.16,-269 310.28,-242.9 316.33,-212.65 320.28,-191.11"/>
<polygon fill="black" stroke="black" points="323.72,-191.78 322.03,-181.32 316.83,-190.55 323.72,-191.78"/>
<polygon fill="none" stroke="black" points="322.16,-240.88 322.16,-259.62 436.16,-259.62 436.16,-240.88 322.16,-240.88"/>
<text text-anchor="start" x="325.16" y="-248.12" font-family="Courier New" font-weight="bold" font-size="10.00" fill="blue">MOVETO(mark2,4000)</text>
<polygon fill="none" stroke="black" points="322.16,-207.38 322.16,-238.88 436.16,-238.88 436.16,-207.38 322.16,-207.38"/>
<text text-anchor="start" x="340.16" y="-226.38" font-family="Courier New" font-size="10.00" fill="blue">STOPWAVE();</text>
<text text-anchor="start" x="340.16" y="-213.62" font-family="Courier New" font-size="10.00" fill="blue"> ASHOW(WIP3);</text>
<polygon fill="none" stroke="black" points="319.16,-204.38 319.16,-262.62 439.16,-262.62 439.16,-204.38 319.16,-204.38"/>
</g>
<!-- status -->
<g id="node9" class="node">
<title>status</title>
<polygon fill="none" stroke="black" points="298.16,-612.75 298.16,-691.75 944.16,-691.75 944.16,-612.75 298.16,-612.75"/>
<polygon fill="none" stroke="black" points="309.16,-666 309.16,-684.75 933.16,-684.75 933.16,-666 309.16,-666"/>
<text text-anchor="start" x="594.16" y="-673.25" font-family="Courier New" font-weight="bold" font-size="10.00">S_SHEEP_2</text>
<polygon fill="none" stroke="black" points="309.16,-619.75 309.16,-664 933.16,-664 933.16,-619.75 309.16,-619.75"/>
<text text-anchor="start" x="312.16" y="-651.5" font-family="Courier New" font-size="10.00" fill="green">VIEW::IDV_MOON1 @pos(x:1205, y:186, h:100, w:100)</text>
<text text-anchor="start" x="312.16" y="-638.75" font-family="Courier New" font-size="10.00" fill="green">S_SHEEP_2::M_PESTER(&#39;IDS_SHEEP_WTS&#39;,&#39;IDS_SHEEP_WRL&#39;,&#39;IDS_SHEEP_WTS&#39;,&#39;IDS_SHEEP_WRR&#39;,&#39;IDD_SHEEP_WTS&#39;,&#39;&#39;)</text>
<text text-anchor="start" x="312.16" y="-626" font-family="Courier New" font-size="10.00" fill="green">{state:&#39;rightidle&#39;: wSprite:IDS_SHEEP_WTS bFrame:0 Top:186 Left:1205 Z:0</text>
<polygon fill="none" stroke="black" points="306.16,-616.75 306.16,-687.75 936.16,-687.75 936.16,-616.75 306.16,-616.75"/>
</g>
</g>
</svg>
