<?xml version="1.0" encoding="UTF-8" standalone="no"?>
<!DOCTYPE svg PUBLIC "-//W3C//DTD SVG 1.1//EN"
 "http://www.w3.org/Graphics/SVG/1.1/DTD/svg11.dtd">
<!-- Generated by graphviz version 10.0.1 (20240210.2158)
 -->
<!-- Title: Automaton Pages: 1 -->
<svg width="941pt" height="514pt"
 viewBox="0.00 0.00 940.79 514.44" xmlns="http://www.w3.org/2000/svg" xmlns:xlink="http://www.w3.org/1999/xlink">
<g id="graph0" class="graph" transform="scale(1 1) rotate(0) translate(4 510.44)">
<title>Automaton</title>
<polygon fill="white" stroke="none" points="-4,4 -4,-510.44 936.79,-510.44 936.79,4 -4,4"/>
<!-- filename -->
<g id="node1" class="node">
<title>filename</title>
<polygon fill="none" stroke="black" points="264.79,-439.69 264.79,-493.19 388.79,-493.19 388.79,-439.69 264.79,-439.69"/>
<polygon fill="none" stroke="black" points="275.79,-467.44 275.79,-486.19 377.79,-486.19 377.79,-467.44 275.79,-467.44"/>
<text text-anchor="start" x="278.79" y="-474.69" font-family="Courier New" font-weight="bold" font-size="10.00">SID_AURA::M_AURA</text>
<polygon fill="none" stroke="black" points="275.79,-446.69 275.79,-465.44 377.79,-465.44 377.79,-446.69 275.79,-446.69"/>
<text text-anchor="start" x="281.79" y="-452.94" font-family="Courier New" font-size="10.00" fill="brown">start state = 0</text>
<polygon fill="none" stroke="black" points="272.79,-443.69 272.79,-489.19 380.79,-489.19 380.79,-443.69 272.79,-443.69"/>
</g>
<!-- 0 -->
<g id="node2" class="node">
<title>0</title>
<polyline fill="none" stroke="darkred" points="426.67,-455.19 440.92,-455.19"/>
<text text-anchor="start" x="429.67" y="-462.39" font-family="Courier New" font-weight="bold" font-size="14.00">0</text>
<path fill="none" stroke="darkred" d="M430.42,-452.19C430.42,-452.19 437.17,-452.19 437.17,-452.19 440.54,-452.19 443.92,-455.56 443.92,-458.94 443.92,-458.94 443.92,-473.94 443.92,-473.94 443.92,-477.31 440.54,-480.69 437.17,-480.69 437.17,-480.69 430.42,-480.69 430.42,-480.69 427.04,-480.69 423.67,-477.31 423.67,-473.94 423.67,-473.94 423.67,-458.94 423.67,-458.94 423.67,-455.56 427.04,-452.19 430.42,-452.19"/>
</g>
<!-- energyChange -->
<g id="node3" class="node">
<title>energyChange</title>
<polyline fill="none" stroke="darkred" points="381.29,-340.19 486.29,-340.19"/>
<text text-anchor="start" x="384.29" y="-347.39" font-family="Courier New" font-weight="bold" font-size="14.00">energyChange</text>
<path fill="none" stroke="darkred" d="M387.79,-337.19C387.79,-337.19 479.79,-337.19 479.79,-337.19 484.54,-337.19 489.29,-341.94 489.29,-346.69 489.29,-346.69 489.29,-356.19 489.29,-356.19 489.29,-360.94 484.54,-365.69 479.79,-365.69 479.79,-365.69 387.79,-365.69 387.79,-365.69 383.04,-365.69 378.29,-360.94 378.29,-356.19 378.29,-356.19 378.29,-346.69 378.29,-346.69 378.29,-341.94 383.04,-337.19 387.79,-337.19"/>
</g>
<!-- 0&#45;&gt;energyChange -->
<g id="edge1" class="edge">
<title>0&#45;&gt;energyChange</title>
<path fill="none" stroke="black" d="M433.79,-448.28C433.79,-430.33 433.79,-401.89 433.79,-380.64"/>
<polygon fill="black" stroke="black" points="437.29,-380.91 433.79,-370.91 430.29,-380.91 437.29,-380.91"/>
<text text-anchor="start" x="437.79" y="-395.94" font-family="Courier New" font-weight="bold" font-size="10.00" fill="orange">WAIT(0,SIG_MYAURA)</text>
</g>
<!-- 1 -->
<g id="node4" class="node">
<title>1</title>
<polyline fill="none" stroke="darkred" stroke-width="3" points="426.17,-19.56 441.42,-19.56"/>
<text text-anchor="start" x="429.67" y="-27.26" font-family="Courier New" font-weight="bold" font-size="14.00">1</text>
<path fill="none" stroke="darkred" stroke-width="3" d="M429.58,-14.56C429.58,-14.56 438,-14.56 438,-14.56 442.21,-14.56 446.42,-18.77 446.42,-22.98 446.42,-22.98 446.42,-39.65 446.42,-39.65 446.42,-43.85 442.21,-48.06 438,-48.06 438,-48.06 429.58,-48.06 429.58,-48.06 425.37,-48.06 421.17,-43.85 421.17,-39.65 421.17,-39.65 421.17,-22.98 421.17,-22.98 421.17,-18.77 425.37,-14.56 429.58,-14.56"/>
</g>
<!-- energyChange&#45;&gt;1 -->
<g id="edge7" class="edge">
<title>energyChange&#45;&gt;1</title>
<path fill="none" stroke="black" d="M370.65,-349.15C267.88,-346.39 73.74,-338.17 52.79,-315.19 -18.1,-237.43 -17,-157.19 52.79,-78.44 75.31,-53.03 303.47,-38.84 395.56,-34.11"/>
<polygon fill="black" stroke="black" points="395.53,-37.62 405.34,-33.62 395.18,-30.63 395.53,-37.62"/>
<polygon fill="none" stroke="black" points="55.79,-293.44 55.79,-312.19 277.79,-312.19 277.79,-293.44 55.79,-293.44"/>
<text text-anchor="start" x="97.79" y="-300.69" font-family="Courier New" font-weight="bold" font-size="10.00" fill="blue">ASSIGN(WPARM,V_REVERSE)</text>
<polygon fill="none" stroke="black" points="55.79,-81.44 55.79,-291.44 277.79,-291.44 277.79,-81.44 55.79,-81.44"/>
<text text-anchor="start" x="58.79" y="-278.94" font-family="Courier New" font-size="10.00" fill="blue"> &#160;&#160;&#160;&#160;&#160;&#160;if(LENERGY &gt; 23){</text>
<text text-anchor="start" x="58.79" y="-266.19" font-family="Courier New" font-size="10.00" fill="blue"> &#160;&#160;&#160;&#160;&#160;&#160;&#160;&#160;&#160;&#160;&#160;&#160;ASSIGN(LENERGY,23);</text>
<text text-anchor="start" x="58.79" y="-253.44" font-family="Courier New" font-size="10.00" fill="blue"> &#160;&#160;&#160;&#160;&#160;&#160;}</text>
<text text-anchor="start" x="58.79" y="-240.69" font-family="Courier New" font-size="10.00" fill="blue"> &#160;&#160;&#160;&#160;&#160;&#160;&#160;ASSIGN(BPARM,LENERGY);</text>
<text text-anchor="start" x="58.79" y="-227.94" font-family="Courier New" font-size="10.00" fill="blue"> &#160;&#160;&#160;&#160;&#160;&#160;&#160;MOV(WSPRITE,BPARM);</text>
<text text-anchor="start" x="58.79" y="-215.19" font-family="Courier New" font-size="10.00" fill="blue"> &#160;&#160;&#160;&#160;&#160;&#160;&#160;MAPi(WSPRITE,S00_AURA_MAP);</text>
<text text-anchor="start" x="58.79" y="-202.44" font-family="Courier New" font-size="10.00" fill="blue"> &#160;&#160;&#160;&#160;&#160;&#160;&#160;SHOW(WSPRITE);</text>
<text text-anchor="start" x="58.79" y="-189.69" font-family="Courier New" font-size="10.00" fill="blue"> &#160;&#160;&#160;&#160;&#160;&#160;&#160;ANIMATE(WPARM);</text>
<text text-anchor="start" x="58.79" y="-176.94" font-family="Courier New" font-size="10.00" fill="blue"> &#160;&#160;&#160;&#160;&#160;&#160;&#160;SIGNALi(0,SID_ID);</text>
<text text-anchor="start" x="58.79" y="-164.19" font-family="Courier New" font-size="10.00" fill="blue"> &#160;&#160;&#160;&#160;&#160;&#160;&#160;&#160;if(LENERGY &lt;= 1){</text>
<text text-anchor="start" x="58.79" y="-151.44" font-family="Courier New" font-size="10.00" fill="blue"> &#160;&#160;&#160;&#160;&#160;&#160;&#160;&#160;&#160;&#160;&#160;ASSIGN(LENERGY,1);</text>
<text text-anchor="start" x="58.79" y="-138.69" font-family="Courier New" font-size="10.00" fill="blue"> &#160;&#160;&#160;&#160;&#160;&#160;&#160;&#160;&#160;&#160;&#160;SIGNAL(SID_ID,SIG_DEAD);</text>
<text text-anchor="start" x="58.79" y="-125.94" font-family="Courier New" font-size="10.00" fill="blue"> &#160;&#160;&#160;&#160;&#160;&#160;&#160;&#160;&#160;&#160;&#160;}</text>
<text text-anchor="start" x="58.79" y="-113.19" font-family="Courier New" font-size="10.00" fill="blue"> &#160;&#160;&#160;&#160;&#160;&#160;&#160;if(OENERGY &gt; 1){</text>
<text text-anchor="start" x="58.79" y="-100.44" font-family="Courier New" font-size="10.00" fill="blue"> &#160;&#160;&#160;&#160;&#160;&#160;&#160;&#160;&#160;&#160;&#160;SIGNALi(0,SID_ID);</text>
<text text-anchor="start" x="58.79" y="-87.69" font-family="Courier New" font-size="10.00" fill="blue"> &#160;&#160;&#160;&#160;&#160;&#160;&#160;&#160;&#160;&#160;&#160;}; &#160;</text>
<polygon fill="none" stroke="black" points="52.79,-78.44 52.79,-315.19 280.79,-315.19 280.79,-78.44 52.79,-78.44"/>
</g>
<!-- 1&#45;&gt;energyChange -->
<g id="edge2" class="edge">
<title>1&#45;&gt;energyChange</title>
<path fill="none" stroke="black" d="M406.89,-32.58C374.44,-34.53 321.11,-43.28 295.79,-78.44 280.42,-99.78 279.65,-294.41 295.79,-315.19 304.23,-326.05 331.39,-334.13 359.4,-339.79"/>
<polygon fill="black" stroke="black" points="358.6,-343.2 369.08,-341.63 359.91,-336.32 358.6,-343.2"/>
<text text-anchor="start" x="299.79" y="-194.69" font-family="Courier New" font-weight="bold" font-size="10.00" fill="orange">WAIT(0,SIG_MYAURA)</text>
</g>
<!-- 1&#45;&gt;energyChange -->
<g id="edge3" class="edge">
<title>1&#45;&gt;energyChange</title>
<path fill="none" stroke="black" d="M433.79,-53.15C433.79,-108.41 433.79,-258.79 433.79,-321.92"/>
<polygon fill="black" stroke="black" points="430.29,-321.82 433.79,-331.82 437.29,-321.82 430.29,-321.82"/>
<text text-anchor="start" x="437.79" y="-194.69" font-family="Courier New" font-weight="bold" font-size="10.00" fill="orange">WAIT(0,SIG_ADD)</text>
</g>
<!-- 1&#45;&gt;energyChange -->
<g id="edge4" class="edge">
<title>1&#45;&gt;energyChange</title>
<path fill="none" stroke="black" d="M460.48,-36.61C484.03,-41.97 517,-53.65 532.79,-78.44 561.07,-122.81 563.12,-272.2 532.79,-315.19 526.36,-324.3 517.36,-331.07 507.38,-336.1"/>
<polygon fill="black" stroke="black" points="506.28,-332.76 498.52,-339.96 509.08,-339.17 506.28,-332.76"/>
<text text-anchor="start" x="557.79" y="-194.69" font-family="Courier New" font-weight="bold" font-size="10.00" fill="orange">WAIT(0,SIG_SUB)</text>
</g>
<!-- 1&#45;&gt;energyChange -->
<g id="edge6" class="edge">
<title>1&#45;&gt;energyChange</title>
<path fill="none" stroke="black" d="M460.41,-33.83C513.53,-37.48 629.68,-48.75 653.79,-78.44 720.12,-160.12 722.05,-235.12 653.79,-315.19 635.24,-336.94 564.77,-345.33 508.51,-348.53"/>
<polygon fill="black" stroke="black" points="508.43,-345.03 498.62,-349.04 508.79,-352.02 508.43,-345.03"/>
<text text-anchor="start" x="707.79" y="-194.69" font-family="Courier New" font-weight="bold" font-size="10.00" fill="orange">WAIT(0,0)</text>
</g>
<!-- 1&#45;&gt;1 -->
<g id="edge5" class="edge">
<title>1&#45;&gt;1</title>
<path fill="none" stroke="black" d="M446,-53.33C461.03,-70.49 478.79,-63.15 478.79,-31.31 478.79,-5.44 467.06,4.25 454.61,-2.23"/>
<polygon fill="black" stroke="black" points="452.67,0.71 447.17,-8.34 457.12,-4.69 452.67,0.71"/>
<polygon fill="none" stroke="black" points="481.79,-38.69 481.79,-57.44 655.79,-57.44 655.79,-38.69 481.79,-38.69"/>
<text text-anchor="start" x="517.79" y="-45.94" font-family="Courier New" font-weight="bold" font-size="10.00" fill="orange">WAIT(0,SIG_CLEAR)</text>
<polygon fill="none" stroke="black" points="481.79,-5.19 481.79,-36.69 655.79,-36.69 655.79,-5.19 481.79,-5.19"/>
<text text-anchor="start" x="484.79" y="-24.19" font-family="Courier New" font-size="10.00" fill="blue"> &#160;WRITE(&quot;Clear the aura&quot;); &#160;</text>
<text text-anchor="start" x="484.79" y="-11.44" font-family="Courier New" font-size="10.00" fill="blue"> &#160;SHOW(0);</text>
<polygon fill="none" stroke="black" points="478.79,-2.19 478.79,-60.44 658.79,-60.44 658.79,-2.19 478.79,-2.19"/>
</g>
<!-- status -->
<g id="node5" class="node">
<title>status</title>
<polygon fill="none" stroke="black" points="478.79,-426.94 478.79,-505.94 932.79,-505.94 932.79,-426.94 478.79,-426.94"/>
<polygon fill="none" stroke="black" points="489.79,-480.19 489.79,-498.94 921.79,-498.94 921.79,-480.19 489.79,-480.19"/>
<text text-anchor="start" x="681.79" y="-487.44" font-family="Courier New" font-weight="bold" font-size="10.00">SID_AURA</text>
<polygon fill="none" stroke="black" points="489.79,-433.94 489.79,-478.19 921.79,-478.19 921.79,-433.94 489.79,-433.94"/>
<text text-anchor="start" x="492.79" y="-465.69" font-family="Courier New" font-size="10.00" fill="green">VIEW::IDV_ID @pos(x:0, y:0, h:112, w:100)</text>
<text text-anchor="start" x="492.79" y="-452.94" font-family="Courier New" font-size="10.00" fill="green">SID_AURA::M_AURA(&#39;&#39;,&#39;&#39;,&#39;&#39;,&#39;&#39;,&#39;&#39;,&#39;&#39;)</text>
<text text-anchor="start" x="492.79" y="-440.19" font-family="Courier New" font-size="10.00" fill="green">{state:&#39;1&#39;: bParm:1 wParm:8 wSprite:IDS_AURA1 bFrame:0 Top:0 Left:0 Z:0</text>
<polygon fill="none" stroke="black" points="486.79,-430.94 486.79,-501.94 924.79,-501.94 924.79,-430.94 486.79,-430.94"/>
</g>
</g>
</svg>
