<?xml version="1.0" encoding="UTF-8" standalone="no"?>
<!DOCTYPE svg PUBLIC "-//W3C//DTD SVG 1.1//EN"
 "http://www.w3.org/Graphics/SVG/1.1/DTD/svg11.dtd">
<!-- Generated by graphviz version 10.0.1 (20240210.2158)
 -->
<!-- Title: Automaton Pages: 1 -->
<svg width="668pt" height="711pt"
 viewBox="0.00 0.00 668.33 710.50" xmlns="http://www.w3.org/2000/svg" xmlns:xlink="http://www.w3.org/1999/xlink">
<g id="graph0" class="graph" transform="scale(1 1) rotate(0) translate(4 706.5)">
<title>Automaton</title>
<polygon fill="white" stroke="none" points="-4,4 -4,-706.5 664.33,-706.5 664.33,4 -4,4"/>
<!-- filename -->
<g id="node1" class="node">
<title>filename</title>
<polygon fill="none" stroke="black" points="146.33,-635.75 146.33,-689.25 270.33,-689.25 270.33,-635.75 146.33,-635.75"/>
<polygon fill="none" stroke="black" points="157.33,-663.5 157.33,-682.25 259.33,-682.25 259.33,-663.5 157.33,-663.5"/>
<text text-anchor="start" x="160.33" y="-670.75" font-family="Courier New" font-weight="bold" font-size="10.00">SID_AURA::M_AURA</text>
<polygon fill="none" stroke="black" points="157.33,-642.75 157.33,-661.5 259.33,-661.5 259.33,-642.75 157.33,-642.75"/>
<text text-anchor="start" x="163.33" y="-649" font-family="Courier New" font-size="10.00" fill="brown">start state = 0</text>
<polygon fill="none" stroke="black" points="154.33,-639.75 154.33,-685.25 262.33,-685.25 262.33,-639.75 154.33,-639.75"/>
</g>
<!-- 0 -->
<g id="node2" class="node">
<title>0</title>
<polyline fill="none" stroke="darkred" stroke-width="3" points="307.71,-650.75 322.96,-650.75"/>
<text text-anchor="start" x="311.21" y="-658.45" font-family="Courier New" font-weight="bold" font-size="14.00">0</text>
<path fill="none" stroke="darkred" stroke-width="3" d="M311.13,-645.75C311.13,-645.75 319.54,-645.75 319.54,-645.75 323.75,-645.75 327.96,-649.96 327.96,-654.17 327.96,-654.17 327.96,-670.83 327.96,-670.83 327.96,-675.04 323.75,-679.25 319.54,-679.25 319.54,-679.25 311.13,-679.25 311.13,-679.25 306.92,-679.25 302.71,-675.04 302.71,-670.83 302.71,-670.83 302.71,-654.17 302.71,-654.17 302.71,-649.96 306.92,-645.75 311.13,-645.75"/>
</g>
<!-- energyBoost -->
<g id="node3" class="node">
<title>energyBoost</title>
<polyline fill="none" stroke="darkred" points="266.96,-536.25 363.71,-536.25"/>
<text text-anchor="start" x="269.96" y="-543.45" font-family="Courier New" font-weight="bold" font-size="14.00">energyBoost</text>
<path fill="none" stroke="darkred" d="M273.46,-533.25C273.46,-533.25 357.21,-533.25 357.21,-533.25 361.96,-533.25 366.71,-538 366.71,-542.75 366.71,-542.75 366.71,-552.25 366.71,-552.25 366.71,-557 361.96,-561.75 357.21,-561.75 357.21,-561.75 273.46,-561.75 273.46,-561.75 268.71,-561.75 263.96,-557 263.96,-552.25 263.96,-552.25 263.96,-542.75 263.96,-542.75 263.96,-538 268.71,-533.25 273.46,-533.25"/>
</g>
<!-- 0&#45;&gt;energyBoost -->
<g id="edge1" class="edge">
<title>0&#45;&gt;energyBoost</title>
<path fill="none" stroke="black" d="M315.33,-640.51C315.33,-622.65 315.33,-596.81 315.33,-577.07"/>
<polygon fill="black" stroke="black" points="318.83,-577.2 315.33,-567.2 311.83,-577.2 318.83,-577.2"/>
<text text-anchor="start" x="319.33" y="-592" font-family="Courier New" font-weight="bold" font-size="10.00" fill="orange">WAIT(0,SIG_MYAURA)</text>
</g>
<!-- 1 -->
<g id="node4" class="node">
<title>1</title>
<polyline fill="none" stroke="darkred" points="308.21,-303.5 322.46,-303.5"/>
<text text-anchor="start" x="311.21" y="-310.7" font-family="Courier New" font-weight="bold" font-size="14.00">1</text>
<path fill="none" stroke="darkred" d="M311.96,-300.5C311.96,-300.5 318.71,-300.5 318.71,-300.5 322.08,-300.5 325.46,-303.88 325.46,-307.25 325.46,-307.25 325.46,-322.25 325.46,-322.25 325.46,-325.62 322.08,-329 318.71,-329 318.71,-329 311.96,-329 311.96,-329 308.58,-329 305.21,-325.62 305.21,-322.25 305.21,-322.25 305.21,-307.25 305.21,-307.25 305.21,-303.88 308.58,-300.5 311.96,-300.5"/>
</g>
<!-- energyBoost&#45;&gt;1 -->
<g id="edge5" class="edge">
<title>energyBoost&#45;&gt;1</title>
<path fill="none" stroke="black" d="M256.22,-543.17C178.4,-538.17 49.69,-527.53 35.33,-511.25 -11.78,-457.84 -11.78,-404.41 35.33,-351 51.07,-333.16 204.04,-322.1 277,-317.8"/>
<polygon fill="black" stroke="black" points="277.11,-321.3 286.89,-317.23 276.71,-314.31 277.11,-321.3"/>
<polygon fill="none" stroke="black" points="38.33,-489.5 38.33,-508.25 308.33,-508.25 308.33,-489.5 38.33,-489.5"/>
<text text-anchor="start" x="131.33" y="-496.75" font-family="Courier New" font-weight="bold" font-size="10.00" fill="blue">ASSIGN(WPARM,)</text>
<polygon fill="none" stroke="black" points="38.33,-354 38.33,-487.5 308.33,-487.5 308.33,-354 38.33,-354"/>
<text text-anchor="start" x="41.33" y="-475" font-family="Courier New" font-size="10.00" fill="blue"> &#160;&#160;&#160;&#160;&#160;&#160;if(LENERGY &gt; (MAX_AURAS &#45; 1)){</text>
<text text-anchor="start" x="41.33" y="-462.25" font-family="Courier New" font-size="10.00" fill="blue"> &#160;&#160;&#160;&#160;&#160;&#160;&#160;&#160;&#160;&#160;&#160;&#160;ASSIGN(LENERGY,(MAX_AURAS &#45;1));</text>
<text text-anchor="start" x="41.33" y="-449.5" font-family="Courier New" font-size="10.00" fill="blue"> &#160;&#160;&#160;&#160;&#160;&#160;}</text>
<text text-anchor="start" x="41.33" y="-436.75" font-family="Courier New" font-size="10.00" fill="blue"> &#160;&#160;&#160;&#160;&#160;&#160;&#160;ASSIGN(BPARM,LENERGY);</text>
<text text-anchor="start" x="41.33" y="-424" font-family="Courier New" font-size="10.00" fill="blue"> &#160;&#160;&#160;&#160;&#160;&#160;&#160;MOV(WSPRITE,BPARM);</text>
<text text-anchor="start" x="41.33" y="-411.25" font-family="Courier New" font-size="10.00" fill="blue"> &#160;&#160;&#160;&#160;&#160;&#160;&#160;MAPi(WSPRITE,S00_AURA_MAP);</text>
<text text-anchor="start" x="41.33" y="-398.5" font-family="Courier New" font-size="10.00" fill="blue"> &#160;&#160;&#160;&#160;&#160;&#160;&#160;SHOW(WSPRITE);</text>
<text text-anchor="start" x="41.33" y="-385.75" font-family="Courier New" font-size="10.00" fill="blue"> &#160;&#160;&#160;&#160;&#160;&#160;&#160;ANIMATE(WPARM);</text>
<text text-anchor="start" x="41.33" y="-373" font-family="Courier New" font-size="10.00" fill="blue"> &#160;&#160;&#160;&#160;&#160;&#160;&#160;SIGNALi(0,SID_ID);</text>
<text text-anchor="start" x="41.33" y="-360.25" font-family="Courier New" font-size="10.00" fill="blue"> &#160;&#160;&#160;&#160;&#160;&#160;</text>
<polygon fill="none" stroke="black" points="35.33,-351 35.33,-511.25 311.33,-511.25 311.33,-351 35.33,-351"/>
</g>
<!-- 1&#45;&gt;energyBoost -->
<g id="edge2" class="edge">
<title>1&#45;&gt;energyBoost</title>
<path fill="none" stroke="black" d="M315.33,-332.74C315.33,-372.02 315.33,-469.46 315.33,-518.03"/>
<polygon fill="black" stroke="black" points="311.83,-518.02 315.33,-528.02 318.83,-518.02 311.83,-518.02"/>
<text text-anchor="start" x="319.33" y="-429" font-family="Courier New" font-weight="bold" font-size="10.00" fill="orange">WAIT(0,SIG_ADD)</text>
</g>
<!-- 1&#45;&gt;energyBoost -->
<g id="edge4" class="edge">
<title>1&#45;&gt;energyBoost</title>
<path fill="none" stroke="black" d="M342.25,-317.14C365.6,-319.95 398.14,-328.04 414.33,-351 455.39,-409.2 455.39,-453.05 414.33,-511.25 407.13,-521.47 396.69,-528.74 385.26,-533.91"/>
<polygon fill="black" stroke="black" points="384,-530.64 375.96,-537.54 386.55,-537.16 384,-530.64"/>
<text text-anchor="start" x="448.33" y="-429" font-family="Courier New" font-weight="bold" font-size="10.00" fill="orange">WAIT(0,0)</text>
</g>
<!-- energyDrain -->
<g id="node5" class="node">
<title>energyDrain</title>
<polyline fill="none" stroke="darkred" points="266.96,-7 363.71,-7"/>
<text text-anchor="start" x="269.96" y="-14.2" font-family="Courier New" font-weight="bold" font-size="14.00">energyDrain</text>
<path fill="none" stroke="darkred" d="M273.46,-4C273.46,-4 357.21,-4 357.21,-4 361.96,-4 366.71,-8.75 366.71,-13.5 366.71,-13.5 366.71,-23 366.71,-23 366.71,-27.75 361.96,-32.5 357.21,-32.5 357.21,-32.5 273.46,-32.5 273.46,-32.5 268.71,-32.5 263.96,-27.75 263.96,-23 263.96,-23 263.96,-13.5 263.96,-13.5 263.96,-8.75 268.71,-4 273.46,-4"/>
</g>
<!-- 1&#45;&gt;energyDrain -->
<g id="edge3" class="edge">
<title>1&#45;&gt;energyDrain</title>
<path fill="none" stroke="black" d="M288.44,-304.74C276.36,-299.19 263.28,-290.75 256.33,-278.5 207.2,-191.91 207.2,-141.09 256.33,-54.5 258.69,-50.36 261.74,-46.65 265.22,-43.34"/>
<polygon fill="black" stroke="black" points="267.18,-46.25 272.8,-37.27 262.8,-40.79 267.18,-46.25"/>
<text text-anchor="start" x="260.33" y="-164.38" font-family="Courier New" font-weight="bold" font-size="10.00" fill="orange">WAIT(0,SIG_SUB)</text>
</g>
<!-- energyDrain&#45;&gt;1 -->
<g id="edge6" class="edge">
<title>energyDrain&#45;&gt;1</title>
<path fill="none" stroke="black" d="M340.68,-36.49C346.2,-41.59 351.3,-47.66 354.33,-54.5 394.74,-145.49 394.74,-187.51 354.33,-278.5 352.81,-281.92 350.78,-285.15 348.44,-288.16"/>
<polygon fill="black" stroke="black" points="345.95,-285.69 341.71,-295.4 351.08,-290.46 345.95,-285.69"/>
<polygon fill="none" stroke="black" points="387.33,-256.75 387.33,-275.5 657.33,-275.5 657.33,-256.75 387.33,-256.75"/>
<text text-anchor="start" x="453.33" y="-264" font-family="Courier New" font-weight="bold" font-size="10.00" fill="blue">ASSIGN(WPARM,V_REVERSE)</text>
<polygon fill="none" stroke="black" points="387.33,-57.5 387.33,-254.75 657.33,-254.75 657.33,-57.5 387.33,-57.5"/>
<text text-anchor="start" x="390.33" y="-242.25" font-family="Courier New" font-size="10.00" fill="blue"> &#160;&#160;&#160;&#160;&#160;&#160;&#160;if(LENERGY &lt;= 1){</text>
<text text-anchor="start" x="390.33" y="-229.5" font-family="Courier New" font-size="10.00" fill="blue"> &#160;&#160;&#160;&#160;&#160;&#160;&#160;&#160;&#160;&#160;&#160;&#160;ASSIGN(LENERGY,1);</text>
<text text-anchor="start" x="390.33" y="-216.75" font-family="Courier New" font-size="10.00" fill="blue"> &#160;&#160;&#160;&#160;&#160;&#160;} &#160;&#160;&#160;&#160;&#160;</text>
<text text-anchor="start" x="390.33" y="-204" font-family="Courier New" font-size="10.00" fill="blue"> &#160;&#160;&#160;&#160;&#160;&#160;&#160;ASSIGN(BPARM,LENERGY);</text>
<text text-anchor="start" x="390.33" y="-191.25" font-family="Courier New" font-size="10.00" fill="blue"> &#160;&#160;&#160;&#160;&#160;&#160;&#160;MOV(WSPRITE,BPARM);</text>
<text text-anchor="start" x="390.33" y="-178.5" font-family="Courier New" font-size="10.00" fill="blue"> &#160;&#160;&#160;&#160;&#160;&#160;&#160;MAPi(WSPRITE,S00_AURA_MAP);</text>
<text text-anchor="start" x="390.33" y="-165.75" font-family="Courier New" font-size="10.00" fill="blue"> &#160;&#160;&#160;&#160;&#160;&#160;&#160;SHOW(WSPRITE);</text>
<text text-anchor="start" x="390.33" y="-153" font-family="Courier New" font-size="10.00" fill="blue"> &#160;&#160;&#160;&#160;&#160;&#160;&#160;ANIMATE(WPARM);</text>
<text text-anchor="start" x="390.33" y="-140.25" font-family="Courier New" font-size="10.00" fill="blue"> &#160;&#160;&#160;&#160;&#160;&#160;&#160;SIGNALi(0,SID_ID);</text>
<text text-anchor="start" x="390.33" y="-127.5" font-family="Courier New" font-size="10.00" fill="blue"> &#160;&#160;&#160;&#160;&#160;&#160;&#160;</text>
<text text-anchor="start" x="390.33" y="-114.75" font-family="Courier New" font-size="10.00" fill="blue"> &#160;&#160;&#160;&#160;&#160;&#160;&#160;if(LENERGY &lt;= 1){</text>
<text text-anchor="start" x="390.33" y="-102" font-family="Courier New" font-size="10.00" fill="blue"> &#160;&#160;&#160;&#160;&#160;&#160;&#160;&#160;&#160;&#160;&#160;&#160;ASSIGN(LENERGY,1);</text>
<text text-anchor="start" x="390.33" y="-89.25" font-family="Courier New" font-size="10.00" fill="blue"> &#160;&#160;&#160;&#160;&#160;&#160;&#160;&#160;&#160;&#160;&#160;&#160;SIGNAL(SID_PERSIST,SIG_UPDATE);</text>
<text text-anchor="start" x="390.33" y="-76.5" font-family="Courier New" font-size="10.00" fill="blue"> &#160;&#160;&#160;&#160;&#160;&#160;&#160;&#160;&#160;&#160;&#160;&#160;SIGNAL(SID_ID,SIG_DEAD);</text>
<text text-anchor="start" x="390.33" y="-63.75" font-family="Courier New" font-size="10.00" fill="blue"> &#160;&#160;&#160;&#160;&#160;&#160;} &#160;&#160;</text>
<polygon fill="none" stroke="black" points="384.33,-54.5 384.33,-278.5 660.33,-278.5 660.33,-54.5 384.33,-54.5"/>
</g>
<!-- status -->
<g id="node6" class="node">
<title>status</title>
<polygon fill="none" stroke="black" points="360.33,-623 360.33,-702 634.33,-702 634.33,-623 360.33,-623"/>
<polygon fill="none" stroke="black" points="371.33,-676.25 371.33,-695 623.33,-695 623.33,-676.25 371.33,-676.25"/>
<text text-anchor="start" x="473.33" y="-683.5" font-family="Courier New" font-weight="bold" font-size="10.00">SID_AURA</text>
<polygon fill="none" stroke="black" points="371.33,-630 371.33,-674.25 623.33,-674.25 623.33,-630 371.33,-630"/>
<text text-anchor="start" x="374.33" y="-661.75" font-family="Courier New" font-size="10.00" fill="green">VIEW::IDV_ID @pos(x:0, y:0, h:112, w:100)</text>
<text text-anchor="start" x="374.33" y="-649" font-family="Courier New" font-size="10.00" fill="green">SID_AURA::M_AURA(&#39;&#39;,&#39;&#39;,&#39;&#39;,&#39;&#39;,&#39;&#39;,&#39;&#39;)</text>
<text text-anchor="start" x="374.33" y="-636.25" font-family="Courier New" font-size="10.00" fill="green">{state:&#39;0&#39;: Top:0 Left:0 Z:0</text>
<polygon fill="none" stroke="black" points="368.33,-627 368.33,-698 626.33,-698 626.33,-627 368.33,-627"/>
</g>
</g>
</svg>
