<?xml version="1.0" encoding="UTF-8" standalone="no"?>
<!DOCTYPE svg PUBLIC "-//W3C//DTD SVG 1.1//EN"
 "http://www.w3.org/Graphics/SVG/1.1/DTD/svg11.dtd">
<!-- Generated by graphviz version 10.0.1 (20240210.2158)
 -->
<!-- Title: Automaton Pages: 1 -->
<svg width="834pt" height="719pt"
 viewBox="0.00 0.00 834.20 718.50" xmlns="http://www.w3.org/2000/svg" xmlns:xlink="http://www.w3.org/1999/xlink">
<g id="graph0" class="graph" transform="scale(1 1) rotate(0) translate(4 714.5)">
<title>Automaton</title>
<polygon fill="white" stroke="none" points="-4,4 -4,-714.5 830.2,-714.5 830.2,4 -4,4"/>
<!-- filename -->
<g id="node1" class="node">
<title>filename</title>
<polygon fill="none" stroke="black" points="146.2,-643.75 146.2,-697.25 270.2,-697.25 270.2,-643.75 146.2,-643.75"/>
<polygon fill="none" stroke="black" points="157.2,-671.5 157.2,-690.25 259.2,-690.25 259.2,-671.5 157.2,-671.5"/>
<text text-anchor="start" x="160.2" y="-678.75" font-family="Courier New" font-weight="bold" font-size="10.00">SID_AURA::M_AURA</text>
<polygon fill="none" stroke="black" points="157.2,-650.75 157.2,-669.5 259.2,-669.5 259.2,-650.75 157.2,-650.75"/>
<text text-anchor="start" x="163.2" y="-657" font-family="Courier New" font-size="10.00" fill="brown">start state = 0</text>
<polygon fill="none" stroke="black" points="154.2,-647.75 154.2,-693.25 262.2,-693.25 262.2,-647.75 154.2,-647.75"/>
</g>
<!-- 0 -->
<g id="node2" class="node">
<title>0</title>
<polyline fill="none" stroke="darkred" points="308.08,-659.25 322.33,-659.25"/>
<text text-anchor="start" x="311.08" y="-666.45" font-family="Courier New" font-weight="bold" font-size="14.00">0</text>
<path fill="none" stroke="darkred" d="M311.83,-656.25C311.83,-656.25 318.58,-656.25 318.58,-656.25 321.95,-656.25 325.33,-659.62 325.33,-663 325.33,-663 325.33,-678 325.33,-678 325.33,-681.38 321.95,-684.75 318.58,-684.75 318.58,-684.75 311.83,-684.75 311.83,-684.75 308.45,-684.75 305.08,-681.38 305.08,-678 305.08,-678 305.08,-663 305.08,-663 305.08,-659.62 308.45,-656.25 311.83,-656.25"/>
</g>
<!-- energyBoost -->
<g id="node3" class="node">
<title>energyBoost</title>
<polyline fill="none" stroke="darkred" points="266.83,-544.25 363.58,-544.25"/>
<text text-anchor="start" x="269.83" y="-551.45" font-family="Courier New" font-weight="bold" font-size="14.00">energyBoost</text>
<path fill="none" stroke="darkred" d="M273.33,-541.25C273.33,-541.25 357.08,-541.25 357.08,-541.25 361.83,-541.25 366.58,-546 366.58,-550.75 366.58,-550.75 366.58,-560.25 366.58,-560.25 366.58,-565 361.83,-569.75 357.08,-569.75 357.08,-569.75 273.33,-569.75 273.33,-569.75 268.58,-569.75 263.83,-565 263.83,-560.25 263.83,-560.25 263.83,-550.75 263.83,-550.75 263.83,-546 268.58,-541.25 273.33,-541.25"/>
</g>
<!-- 0&#45;&gt;energyBoost -->
<g id="edge1" class="edge">
<title>0&#45;&gt;energyBoost</title>
<path fill="none" stroke="black" d="M315.2,-652.34C315.2,-634.4 315.2,-605.95 315.2,-584.7"/>
<polygon fill="black" stroke="black" points="318.7,-584.97 315.2,-574.97 311.7,-584.97 318.7,-584.97"/>
<text text-anchor="start" x="319.2" y="-600" font-family="Courier New" font-weight="bold" font-size="10.00" fill="orange">WAIT(0,SIG_MYAURA)</text>
</g>
<!-- 1 -->
<g id="node4" class="node">
<title>1</title>
<polyline fill="none" stroke="darkred" stroke-width="3" points="307.58,-307 322.83,-307"/>
<text text-anchor="start" x="311.08" y="-314.7" font-family="Courier New" font-weight="bold" font-size="14.00">1</text>
<path fill="none" stroke="darkred" stroke-width="3" d="M311,-302C311,-302 319.41,-302 319.41,-302 323.62,-302 327.83,-306.21 327.83,-310.42 327.83,-310.42 327.83,-327.08 327.83,-327.08 327.83,-331.29 323.62,-335.5 319.41,-335.5 319.41,-335.5 311,-335.5 311,-335.5 306.79,-335.5 302.58,-331.29 302.58,-327.08 302.58,-327.08 302.58,-310.42 302.58,-310.42 302.58,-306.21 306.79,-302 311,-302"/>
</g>
<!-- energyBoost&#45;&gt;1 -->
<g id="edge5" class="edge">
<title>energyBoost&#45;&gt;1</title>
<path fill="none" stroke="black" d="M256.09,-551.17C178.27,-546.17 49.57,-535.53 35.2,-519.25 -11.91,-465.84 -11.53,-412.74 35.2,-359 66.11,-323.46 208.02,-319.15 277.14,-319.22"/>
<polygon fill="black" stroke="black" points="276.84,-322.71 286.86,-319.26 276.88,-315.71 276.84,-322.71"/>
<polygon fill="none" stroke="black" points="38.2,-497.5 38.2,-516.25 308.2,-516.25 308.2,-497.5 38.2,-497.5"/>
<text text-anchor="start" x="131.2" y="-504.75" font-family="Courier New" font-weight="bold" font-size="10.00" fill="blue">ASSIGN(WPARM,)</text>
<polygon fill="none" stroke="black" points="38.2,-362 38.2,-495.5 308.2,-495.5 308.2,-362 38.2,-362"/>
<text text-anchor="start" x="41.2" y="-483" font-family="Courier New" font-size="10.00" fill="blue"> &#160;&#160;&#160;&#160;&#160;&#160;if(LENERGY &gt; (MAX_AURAS &#45; 1)){</text>
<text text-anchor="start" x="41.2" y="-470.25" font-family="Courier New" font-size="10.00" fill="blue"> &#160;&#160;&#160;&#160;&#160;&#160;&#160;&#160;&#160;&#160;&#160;&#160;ASSIGN(LENERGY,(MAX_AURAS &#45;1));</text>
<text text-anchor="start" x="41.2" y="-457.5" font-family="Courier New" font-size="10.00" fill="blue"> &#160;&#160;&#160;&#160;&#160;&#160;}</text>
<text text-anchor="start" x="41.2" y="-444.75" font-family="Courier New" font-size="10.00" fill="blue"> &#160;&#160;&#160;&#160;&#160;&#160;&#160;ASSIGN(BPARM,LENERGY);</text>
<text text-anchor="start" x="41.2" y="-432" font-family="Courier New" font-size="10.00" fill="blue"> &#160;&#160;&#160;&#160;&#160;&#160;&#160;MOV(WSPRITE,BPARM);</text>
<text text-anchor="start" x="41.2" y="-419.25" font-family="Courier New" font-size="10.00" fill="blue"> &#160;&#160;&#160;&#160;&#160;&#160;&#160;MAPi(WSPRITE,S00_AURA_MAP);</text>
<text text-anchor="start" x="41.2" y="-406.5" font-family="Courier New" font-size="10.00" fill="blue"> &#160;&#160;&#160;&#160;&#160;&#160;&#160;SHOW(WSPRITE);</text>
<text text-anchor="start" x="41.2" y="-393.75" font-family="Courier New" font-size="10.00" fill="blue"> &#160;&#160;&#160;&#160;&#160;&#160;&#160;ANIMATE(WPARM);</text>
<text text-anchor="start" x="41.2" y="-381" font-family="Courier New" font-size="10.00" fill="blue"> &#160;&#160;&#160;&#160;&#160;&#160;&#160;SIGNALi(0,SID_ID);</text>
<text text-anchor="start" x="41.2" y="-368.25" font-family="Courier New" font-size="10.00" fill="blue"> &#160;&#160;&#160;&#160;&#160;&#160;</text>
<polygon fill="none" stroke="black" points="35.2,-359 35.2,-519.25 311.2,-519.25 311.2,-359 35.2,-359"/>
</g>
<!-- 1&#45;&gt;energyBoost -->
<g id="edge2" class="edge">
<title>1&#45;&gt;energyBoost</title>
<path fill="none" stroke="black" d="M315.2,-340.77C315.2,-383.11 315.2,-478.64 315.2,-526.32"/>
<polygon fill="black" stroke="black" points="311.7,-526.1 315.2,-536.1 318.7,-526.1 311.7,-526.1"/>
<text text-anchor="start" x="319.2" y="-437" font-family="Courier New" font-weight="bold" font-size="10.00" fill="orange">WAIT(0,SIG_ADD)</text>
</g>
<!-- 1&#45;&gt;energyBoost -->
<g id="edge4" class="edge">
<title>1&#45;&gt;energyBoost</title>
<path fill="none" stroke="black" d="M341.76,-322.19C365.21,-325.91 398.1,-335.29 414.2,-359 454.22,-417.92 455.26,-461.05 414.2,-519.25 407,-529.47 396.56,-536.74 385.13,-541.91"/>
<polygon fill="black" stroke="black" points="383.87,-538.64 375.83,-545.54 386.42,-545.16 383.87,-538.64"/>
<text text-anchor="start" x="448.2" y="-437" font-family="Courier New" font-weight="bold" font-size="10.00" fill="orange">WAIT(0,0)</text>
</g>
<!-- energyDrain -->
<g id="node5" class="node">
<title>energyDrain</title>
<polyline fill="none" stroke="darkred" points="266.83,-7 363.58,-7"/>
<text text-anchor="start" x="269.83" y="-14.2" font-family="Courier New" font-weight="bold" font-size="14.00">energyDrain</text>
<path fill="none" stroke="darkred" d="M273.33,-4C273.33,-4 357.08,-4 357.08,-4 361.83,-4 366.58,-8.75 366.58,-13.5 366.58,-13.5 366.58,-23 366.58,-23 366.58,-27.75 361.83,-32.5 357.08,-32.5 357.08,-32.5 273.33,-32.5 273.33,-32.5 268.58,-32.5 263.83,-27.75 263.83,-23 263.83,-23 263.83,-13.5 263.83,-13.5 263.83,-8.75 268.58,-4 273.33,-4"/>
</g>
<!-- 1&#45;&gt;energyDrain -->
<g id="edge3" class="edge">
<title>1&#45;&gt;energyDrain</title>
<path fill="none" stroke="black" d="M288.23,-306.98C276.13,-300.63 263.06,-291.3 256.2,-278.5 209.19,-190.75 207.07,-141.09 256.2,-54.5 258.56,-50.36 261.61,-46.65 265.09,-43.34"/>
<polygon fill="black" stroke="black" points="267.05,-46.25 272.67,-37.27 262.68,-40.79 267.05,-46.25"/>
<text text-anchor="start" x="260.2" y="-164.38" font-family="Courier New" font-weight="bold" font-size="10.00" fill="orange">WAIT(0,SIG_SUB)</text>
</g>
<!-- energyDrain&#45;&gt;1 -->
<g id="edge6" class="edge">
<title>energyDrain&#45;&gt;1</title>
<path fill="none" stroke="black" d="M340.55,-36.49C346.07,-41.59 351.17,-47.66 354.2,-54.5 394.61,-145.49 392.16,-186.46 354.2,-278.5 352.86,-281.77 351.09,-284.91 349.05,-287.89"/>
<polygon fill="black" stroke="black" points="346.33,-285.69 342.76,-295.66 351.77,-290.09 346.33,-285.69"/>
<polygon fill="none" stroke="black" points="386.2,-256.75 386.2,-275.5 656.2,-275.5 656.2,-256.75 386.2,-256.75"/>
<text text-anchor="start" x="452.2" y="-264" font-family="Courier New" font-weight="bold" font-size="10.00" fill="blue">ASSIGN(WPARM,V_REVERSE)</text>
<polygon fill="none" stroke="black" points="386.2,-57.5 386.2,-254.75 656.2,-254.75 656.2,-57.5 386.2,-57.5"/>
<text text-anchor="start" x="389.2" y="-242.25" font-family="Courier New" font-size="10.00" fill="blue"> &#160;&#160;&#160;&#160;&#160;&#160;&#160;if(LENERGY &lt;= 1){</text>
<text text-anchor="start" x="389.2" y="-229.5" font-family="Courier New" font-size="10.00" fill="blue"> &#160;&#160;&#160;&#160;&#160;&#160;&#160;&#160;&#160;&#160;&#160;&#160;ASSIGN(LENERGY,1);</text>
<text text-anchor="start" x="389.2" y="-216.75" font-family="Courier New" font-size="10.00" fill="blue"> &#160;&#160;&#160;&#160;&#160;&#160;} &#160;&#160;&#160;&#160;&#160;</text>
<text text-anchor="start" x="389.2" y="-204" font-family="Courier New" font-size="10.00" fill="blue"> &#160;&#160;&#160;&#160;&#160;&#160;&#160;ASSIGN(BPARM,LENERGY);</text>
<text text-anchor="start" x="389.2" y="-191.25" font-family="Courier New" font-size="10.00" fill="blue"> &#160;&#160;&#160;&#160;&#160;&#160;&#160;MOV(WSPRITE,BPARM);</text>
<text text-anchor="start" x="389.2" y="-178.5" font-family="Courier New" font-size="10.00" fill="blue"> &#160;&#160;&#160;&#160;&#160;&#160;&#160;MAPi(WSPRITE,S00_AURA_MAP);</text>
<text text-anchor="start" x="389.2" y="-165.75" font-family="Courier New" font-size="10.00" fill="blue"> &#160;&#160;&#160;&#160;&#160;&#160;&#160;SHOW(WSPRITE);</text>
<text text-anchor="start" x="389.2" y="-153" font-family="Courier New" font-size="10.00" fill="blue"> &#160;&#160;&#160;&#160;&#160;&#160;&#160;ANIMATE(WPARM);</text>
<text text-anchor="start" x="389.2" y="-140.25" font-family="Courier New" font-size="10.00" fill="blue"> &#160;&#160;&#160;&#160;&#160;&#160;&#160;SIGNALi(0,SID_ID);</text>
<text text-anchor="start" x="389.2" y="-127.5" font-family="Courier New" font-size="10.00" fill="blue"> &#160;&#160;&#160;&#160;&#160;&#160;&#160;</text>
<text text-anchor="start" x="389.2" y="-114.75" font-family="Courier New" font-size="10.00" fill="blue"> &#160;&#160;&#160;&#160;&#160;&#160;&#160;if(LENERGY &lt;= 1){</text>
<text text-anchor="start" x="389.2" y="-102" font-family="Courier New" font-size="10.00" fill="blue"> &#160;&#160;&#160;&#160;&#160;&#160;&#160;&#160;&#160;&#160;&#160;&#160;ASSIGN(LENERGY,1);</text>
<text text-anchor="start" x="389.2" y="-89.25" font-family="Courier New" font-size="10.00" fill="blue"> &#160;&#160;&#160;&#160;&#160;&#160;&#160;&#160;&#160;&#160;&#160;&#160;SIGNAL(SID_PERSIST,SIG_UPDATE);</text>
<text text-anchor="start" x="389.2" y="-76.5" font-family="Courier New" font-size="10.00" fill="blue"> &#160;&#160;&#160;&#160;&#160;&#160;&#160;&#160;&#160;&#160;&#160;&#160;SIGNAL(SID_ID,SIG_DEAD);</text>
<text text-anchor="start" x="389.2" y="-63.75" font-family="Courier New" font-size="10.00" fill="blue"> &#160;&#160;&#160;&#160;&#160;&#160;} &#160;&#160;</text>
<polygon fill="none" stroke="black" points="383.2,-54.5 383.2,-278.5 659.2,-278.5 659.2,-54.5 383.2,-54.5"/>
</g>
<!-- status -->
<g id="node6" class="node">
<title>status</title>
<polygon fill="none" stroke="black" points="360.2,-631 360.2,-710 826.2,-710 826.2,-631 360.2,-631"/>
<polygon fill="none" stroke="black" points="371.2,-684.25 371.2,-703 815.2,-703 815.2,-684.25 371.2,-684.25"/>
<text text-anchor="start" x="569.2" y="-691.5" font-family="Courier New" font-weight="bold" font-size="10.00">SID_AURA</text>
<polygon fill="none" stroke="black" points="371.2,-638 371.2,-682.25 815.2,-682.25 815.2,-638 371.2,-638"/>
<text text-anchor="start" x="374.2" y="-669.75" font-family="Courier New" font-size="10.00" fill="green">VIEW::IDV_ID @pos(x:0, y:0, h:112, w:100)</text>
<text text-anchor="start" x="374.2" y="-657" font-family="Courier New" font-size="10.00" fill="green">SID_AURA::M_AURA(&#39;&#39;,&#39;&#39;,&#39;&#39;,&#39;&#39;,&#39;&#39;,&#39;&#39;)</text>
<text text-anchor="start" x="374.2" y="-644.25" font-family="Courier New" font-size="10.00" fill="green">{state:&#39;1&#39;: bParm:11 wParm:8 wSprite:IDS_AURA11 bFrame:0 Top:0 Left:0 Z:0</text>
<polygon fill="none" stroke="black" points="368.2,-635 368.2,-706 818.2,-706 818.2,-635 368.2,-635"/>
</g>
</g>
</svg>
