<?xml version="1.0" encoding="UTF-8" standalone="no"?>
<!DOCTYPE svg PUBLIC "-//W3C//DTD SVG 1.1//EN"
 "http://www.w3.org/Graphics/SVG/1.1/DTD/svg11.dtd">
<!-- Generated by graphviz version 10.0.1 (20240210.2158)
 -->
<!-- Title: Automaton Pages: 1 -->
<svg width="963pt" height="426pt"
 viewBox="0.00 0.00 962.56 426.00" xmlns="http://www.w3.org/2000/svg" xmlns:xlink="http://www.w3.org/1999/xlink">
<g id="graph0" class="graph" transform="scale(1 1) rotate(0) translate(4 422)">
<title>Automaton</title>
<polygon fill="white" stroke="none" points="-4,4 -4,-422 958.56,-422 958.56,4 -4,4"/>
<!-- filename -->
<g id="node1" class="node">
<title>filename</title>
<polygon fill="none" stroke="black" points="239.56,-351.25 239.56,-404.75 417.56,-404.75 417.56,-351.25 239.56,-351.25"/>
<polygon fill="none" stroke="black" points="250.56,-379 250.56,-397.75 406.56,-397.75 406.56,-379 250.56,-379"/>
<text text-anchor="start" x="253.56" y="-386.25" font-family="Courier New" font-weight="bold" font-size="10.00">SID_PERSIST::M_ID_PERSIST</text>
<polygon fill="none" stroke="black" points="250.56,-358.25 250.56,-377 406.56,-377 406.56,-358.25 250.56,-358.25"/>
<text text-anchor="start" x="283.56" y="-364.5" font-family="Courier New" font-size="10.00" fill="brown">start state = 0</text>
<polygon fill="none" stroke="black" points="247.56,-355.25 247.56,-400.75 409.56,-400.75 409.56,-355.25 247.56,-355.25"/>
</g>
<!-- 0 -->
<g id="node2" class="node">
<title>0</title>
<polyline fill="none" stroke="darkred" stroke-width="3" points="454.94,-366.25 470.19,-366.25"/>
<text text-anchor="start" x="458.44" y="-373.95" font-family="Courier New" font-weight="bold" font-size="14.00">0</text>
<path fill="none" stroke="darkred" stroke-width="3" d="M458.35,-361.25C458.35,-361.25 466.77,-361.25 466.77,-361.25 470.98,-361.25 475.19,-365.46 475.19,-369.67 475.19,-369.67 475.19,-386.33 475.19,-386.33 475.19,-390.54 470.98,-394.75 466.77,-394.75 466.77,-394.75 458.35,-394.75 458.35,-394.75 454.14,-394.75 449.94,-390.54 449.94,-386.33 449.94,-386.33 449.94,-369.67 449.94,-369.67 449.94,-365.46 454.14,-361.25 458.35,-361.25"/>
</g>
<!-- updated -->
<g id="node3" class="node">
<title>updated</title>
<polyline fill="none" stroke="darkred" points="324.69,-137.75 388.44,-137.75"/>
<text text-anchor="start" x="327.69" y="-144.95" font-family="Courier New" font-weight="bold" font-size="14.00">updated</text>
<path fill="none" stroke="darkred" d="M331.19,-134.75C331.19,-134.75 381.94,-134.75 381.94,-134.75 386.69,-134.75 391.44,-139.5 391.44,-144.25 391.44,-144.25 391.44,-153.75 391.44,-153.75 391.44,-158.5 386.69,-163.25 381.94,-163.25 381.94,-163.25 331.19,-163.25 331.19,-163.25 326.44,-163.25 321.69,-158.5 321.69,-153.75 321.69,-153.75 321.69,-144.25 321.69,-144.25 321.69,-139.5 326.44,-134.75 331.19,-134.75"/>
</g>
<!-- 0&#45;&gt;updated -->
<g id="edge1" class="edge">
<title>0&#45;&gt;updated</title>
<path fill="none" stroke="black" d="M448.4,-355.94C442.53,-348.96 435.08,-341.96 426.56,-338 386.62,-319.42 60.99,-351.84 30.56,-320 -10.81,-276.7 -9.45,-229.82 30.56,-185.25 48.37,-165.41 214.69,-155.73 302.63,-151.97"/>
<polygon fill="black" stroke="black" points="302.62,-155.47 312.47,-151.56 302.33,-148.47 302.62,-155.47"/>
<polygon fill="none" stroke="black" points="33.56,-298.25 33.56,-317 879.56,-317 879.56,-298.25 33.56,-298.25"/>
<text text-anchor="start" x="405.56" y="-305.5" font-family="Courier New" font-weight="bold" font-size="10.00" fill="orange">WAIT(,SIG_UPDATE)</text>
<polygon fill="none" stroke="black" points="33.56,-188.25 33.56,-296.25 879.56,-296.25 879.56,-188.25 33.56,-188.25"/>
<text text-anchor="start" x="36.56" y="-283.75" font-family="Courier New" font-size="10.00" fill="blue"> &#160;&#160;&#160;predicate env(account_id, key, value);</text>
<text text-anchor="start" x="36.56" y="-271" font-family="Courier New" font-size="10.00" fill="blue"> &#160;&#160;&#160;env(&quot;0&quot;,&quot;my_account_id&quot;,?address);</text>
<text text-anchor="start" x="36.56" y="-258.25" font-family="Courier New" font-size="10.00" fill="blue"> &#160;&#160;&#160;predicate localplayer(account_id,name,viewname,wealth,karma,energy,strength,wisdom,gender,culture, knowsparent, knowsvillage,knowscity);</text>
<text text-anchor="start" x="36.56" y="-245.5" font-family="Courier New" font-size="10.00" fill="blue"> &#160;&#160;&#160;localplayer(?address,?name,?viewname,?wealth,?karma,?energy,?strength,?wisdom,?gender,?BPARM,?knowsparent,?knowsvillage,?knowscity)?</text>
<text text-anchor="start" x="36.56" y="-232.75" font-family="Courier New" font-size="10.00" fill="blue"> &#160;&#160;&#160;localplayer(address)~</text>
<text text-anchor="start" x="36.56" y="-220" font-family="Courier New" font-size="10.00" fill="blue"> &#160;&#160;&#160;predicate active_character(name);</text>
<text text-anchor="start" x="36.56" y="-207.25" font-family="Courier New" font-size="10.00" fill="blue"> &#160;&#160;&#160;active_character(?WPARM)?</text>
<text text-anchor="start" x="36.56" y="-194.5" font-family="Courier New" font-size="10.00" fill="blue"> &#160;&#160;&#160;localplayer(address,WPARM,LVIEW,LWEALTH,LKARMA,LENERGY,10,LWISDOM,LSEX,BPARM,knowsparent,knowsvillage,knowscity).</text>
<polygon fill="none" stroke="black" points="30.56,-185.25 30.56,-320 882.56,-320 882.56,-185.25 30.56,-185.25"/>
</g>
<!-- toldEveryone -->
<g id="node4" class="node">
<title>toldEveryone</title>
<polyline fill="none" stroke="darkred" points="574.06,-7 679.06,-7"/>
<text text-anchor="start" x="577.06" y="-14.2" font-family="Courier New" font-weight="bold" font-size="14.00">toldEveryone</text>
<path fill="none" stroke="darkred" d="M580.56,-4C580.56,-4 672.56,-4 672.56,-4 677.31,-4 682.06,-8.75 682.06,-13.5 682.06,-13.5 682.06,-23 682.06,-23 682.06,-27.75 677.31,-32.5 672.56,-32.5 672.56,-32.5 580.56,-32.5 580.56,-32.5 575.81,-32.5 571.06,-27.75 571.06,-23 571.06,-23 571.06,-13.5 571.06,-13.5 571.06,-8.75 575.81,-4 580.56,-4"/>
</g>
<!-- updated&#45;&gt;toldEveryone -->
<g id="edge3" class="edge">
<title>updated&#45;&gt;toldEveryone</title>
<path fill="none" stroke="black" d="M392.69,-130.77C441.19,-107.64 527.37,-66.55 580.48,-41.22"/>
<polygon fill="black" stroke="black" points="581.76,-44.49 589.28,-37.03 578.74,-38.17 581.76,-44.49"/>
<polygon fill="none" stroke="black" points="550.56,-91 550.56,-109.75 742.56,-109.75 742.56,-91 550.56,-91"/>
<text text-anchor="start" x="610.56" y="-98.25" font-family="Courier New" font-weight="bold" font-size="10.00" fill="blue">Z_EPSILON(,)</text>
<polygon fill="none" stroke="black" points="550.56,-57.5 550.56,-89 742.56,-89 742.56,-57.5 550.56,-57.5"/>
<text text-anchor="start" x="553.56" y="-76.5" font-family="Courier New" font-size="10.00" fill="blue"> &#160;&#160;&#160;write(&quot;telling everyone&quot;);</text>
<text text-anchor="start" x="553.56" y="-63.75" font-family="Courier New" font-size="10.00" fill="blue"> &#160;&#160;&#160;replay(system/send_update);</text>
<polygon fill="none" stroke="black" points="547.56,-54.5 547.56,-112.75 745.56,-112.75 745.56,-54.5 547.56,-54.5"/>
</g>
<!-- toldEveryone&#45;&gt;0 -->
<g id="edge2" class="edge">
<title>toldEveryone&#45;&gt;0</title>
<path fill="none" stroke="black" d="M690,-31.01C709.92,-36.35 731.43,-43.92 749.56,-54.5 821.16,-96.26 850.51,-108.8 882.56,-185.25 905.72,-240.48 923.91,-276.67 882.56,-320 853.07,-350.9 537.28,-319.96 498.56,-338 493.5,-340.36 488.82,-343.78 484.63,-347.64"/>
<polygon fill="black" stroke="black" points="482.12,-345.19 477.76,-354.85 487.19,-350.02 482.12,-345.19"/>
<text text-anchor="start" x="878.56" y="-146.88" font-family="Courier New" font-weight="bold" font-size="10.00" fill="blue">Z_EPSILON(,)</text>
</g>
<!-- status -->
<g id="node5" class="node">
<title>status</title>
<polygon fill="none" stroke="black" points="507.56,-338.5 507.56,-417.5 823.56,-417.5 823.56,-338.5 507.56,-338.5"/>
<polygon fill="none" stroke="black" points="518.56,-391.75 518.56,-410.5 812.56,-410.5 812.56,-391.75 518.56,-391.75"/>
<text text-anchor="start" x="632.56" y="-399" font-family="Courier New" font-weight="bold" font-size="10.00">SID_PERSIST</text>
<polygon fill="none" stroke="black" points="518.56,-345.5 518.56,-389.75 812.56,-389.75 812.56,-345.5 518.56,-345.5"/>
<text text-anchor="start" x="521.56" y="-377.25" font-family="Courier New" font-size="10.00" fill="green">VIEW::IDV_ID @pos(x:0, y:0, h:1, w:1)</text>
<text text-anchor="start" x="521.56" y="-364.5" font-family="Courier New" font-size="10.00" fill="green">SID_PERSIST::M_ID_PERSIST(&#39;&#39;,&#39;&#39;,&#39;&#39;,&#39;&#39;,&#39;&#39;,&#39;&#39;)</text>
<text text-anchor="start" x="521.56" y="-351.75" font-family="Courier New" font-size="10.00" fill="green">{state:&#39;0&#39;: bParm:1 wParm:Tommy Top:0 Left:0 Z:0</text>
<polygon fill="none" stroke="black" points="515.56,-342.5 515.56,-413.5 815.56,-413.5 815.56,-342.5 515.56,-342.5"/>
</g>
</g>
</svg>
