<?xml version="1.0" encoding="UTF-8" standalone="no"?>
<!DOCTYPE svg PUBLIC "-//W3C//DTD SVG 1.1//EN"
 "http://www.w3.org/Graphics/SVG/1.1/DTD/svg11.dtd">
<!-- Generated by graphviz version 10.0.1 (20240210.2158)
 -->
<!-- Title: Automaton Pages: 1 -->
<svg width="2080pt" height="1549pt"
 viewBox="0.00 0.00 2080.00 1549.00" xmlns="http://www.w3.org/2000/svg" xmlns:xlink="http://www.w3.org/1999/xlink">
<g id="graph0" class="graph" transform="scale(1 1) rotate(0) translate(4 1545)">
<title>Automaton</title>
<polygon fill="white" stroke="none" points="-4,4 -4,-1545 2076,-1545 2076,4 -4,4"/>
<!-- filename -->
<g id="node1" class="node">
<title>filename</title>
<polygon fill="none" stroke="black" points="770,-1474.25 770,-1527.75 888,-1527.75 888,-1474.25 770,-1474.25"/>
<polygon fill="none" stroke="black" points="781,-1502 781,-1520.75 877,-1520.75 877,-1502 781,-1502"/>
<text text-anchor="start" x="793" y="-1509.25" font-family="Courier New" font-weight="bold" font-size="10.00">SID_ID::M_ID</text>
<polygon fill="none" stroke="black" points="781,-1481.25 781,-1500 877,-1500 877,-1481.25 781,-1481.25"/>
<text text-anchor="start" x="784" y="-1487.5" font-family="Courier New" font-size="10.00" fill="brown">start state = 0</text>
<polygon fill="none" stroke="black" points="778,-1478.25 778,-1523.75 880,-1523.75 880,-1478.25 778,-1478.25"/>
</g>
<!-- 0 -->
<g id="node2" class="node">
<title>0</title>
<polyline fill="none" stroke="darkred" points="925.88,-1489.75 940.12,-1489.75"/>
<text text-anchor="start" x="928.88" y="-1496.95" font-family="Courier New" font-weight="bold" font-size="14.00">0</text>
<path fill="none" stroke="darkred" d="M929.62,-1486.75C929.62,-1486.75 936.38,-1486.75 936.38,-1486.75 939.75,-1486.75 943.12,-1490.12 943.12,-1493.5 943.12,-1493.5 943.12,-1508.5 943.12,-1508.5 943.12,-1511.88 939.75,-1515.25 936.38,-1515.25 936.38,-1515.25 929.62,-1515.25 929.62,-1515.25 926.25,-1515.25 922.88,-1511.88 922.88,-1508.5 922.88,-1508.5 922.88,-1493.5 922.88,-1493.5 922.88,-1490.12 926.25,-1486.75 929.62,-1486.75"/>
</g>
<!-- present -->
<g id="node3" class="node">
<title>present</title>
<polyline fill="none" stroke="darkred" points="901.12,-1248 964.88,-1248"/>
<text text-anchor="start" x="904.12" y="-1255.2" font-family="Courier New" font-weight="bold" font-size="14.00">present</text>
<path fill="none" stroke="darkred" d="M907.62,-1245C907.62,-1245 958.38,-1245 958.38,-1245 963.12,-1245 967.88,-1249.75 967.88,-1254.5 967.88,-1254.5 967.88,-1264 967.88,-1264 967.88,-1268.75 963.12,-1273.5 958.38,-1273.5 958.38,-1273.5 907.62,-1273.5 907.62,-1273.5 902.88,-1273.5 898.12,-1268.75 898.12,-1264 898.12,-1264 898.12,-1254.5 898.12,-1254.5 898.12,-1249.75 902.88,-1245 907.62,-1245"/>
</g>
<!-- 0&#45;&gt;present -->
<g id="edge1" class="edge">
<title>0&#45;&gt;present</title>
<path fill="none" stroke="black" d="M933,-1482.76C933,-1441.89 933,-1338.82 933,-1288.61"/>
<polygon fill="black" stroke="black" points="936.5,-1288.85 933,-1278.85 929.5,-1288.85 936.5,-1288.85"/>
<polygon fill="none" stroke="black" points="936,-1421.25 936,-1440 1506,-1440 1506,-1421.25 936,-1421.25"/>
<text text-anchor="start" x="1173" y="-1428.5" font-family="Courier New" font-weight="bold" font-size="10.00" fill="orange">WAIT(0,SIG_MYID)</text>
<polygon fill="none" stroke="black" points="936,-1298.5 936,-1419.25 1506,-1419.25 1506,-1298.5 936,-1298.5"/>
<text text-anchor="start" x="939" y="-1406.75" font-family="Courier New" font-size="10.00" fill="blue"> &#160;&#160;&#160;&#160;CLEAR(WSPRITE);</text>
<text text-anchor="start" x="939" y="-1394" font-family="Courier New" font-size="10.00" fill="blue"> &#160;&#160;&#160;&#160;SHOW(0);</text>
<text text-anchor="start" x="939" y="-1381.25" font-family="Courier New" font-size="10.00" fill="blue"> &#160;&#160;&#160;&#160;predicate active_character(name);</text>
<text text-anchor="start" x="939" y="-1368.5" font-family="Courier New" font-size="10.00" fill="blue"> &#160;&#160;&#160;&#160;active_character(?WPARM)?</text>
<text text-anchor="start" x="939" y="-1355.75" font-family="Courier New" font-size="10.00" fill="blue"> &#160;&#160;&#160;&#160;predicate players(name,viewname, wealth,karma, energy,strength, wisdom, gender, culture);</text>
<text text-anchor="start" x="939" y="-1343" font-family="Courier New" font-size="10.00" fill="blue"> &#160;&#160;&#160;&#160;players(WPARM, ?WTEMP1, ?LWEALTH, ?LKARMA,?WTEMP3,?LSTRENGTH, ?LWISDOM, ?LSEX, ?WTEMP2)?</text>
<text text-anchor="start" x="939" y="-1330.25" font-family="Courier New" font-size="10.00" fill="blue"> &#160;&#160;&#160;&#160;ASSIGN(LENERGY,WTEMP3);</text>
<text text-anchor="start" x="939" y="-1317.5" font-family="Courier New" font-size="10.00" fill="blue"> &#160;&#160;&#160;&#160;SIGNAL(SID_AURA, SIG_MYAURA);</text>
<text text-anchor="start" x="939" y="-1304.75" font-family="Courier New" font-size="10.00" fill="blue"> &#160;&#160;&#160;&#160;SIGNAL(SID_HALO, SIG_MYHALO);</text>
<polygon fill="none" stroke="black" points="933,-1295.5 933,-1443 1509,-1443 1509,-1295.5 933,-1295.5"/>
</g>
<!-- setId -->
<g id="node21" class="node">
<title>setId</title>
<polyline fill="none" stroke="darkred" points="600.38,-819.5 647.62,-819.5"/>
<text text-anchor="start" x="603.38" y="-826.7" font-family="Courier New" font-weight="bold" font-size="14.00">setId</text>
<path fill="none" stroke="darkred" d="M606.88,-816.5C606.88,-816.5 641.12,-816.5 641.12,-816.5 645.88,-816.5 650.62,-821.25 650.62,-826 650.62,-826 650.62,-835.5 650.62,-835.5 650.62,-840.25 645.88,-845 641.12,-845 641.12,-845 606.88,-845 606.88,-845 602.12,-845 597.38,-840.25 597.38,-835.5 597.38,-835.5 597.38,-826 597.38,-826 597.38,-821.25 602.12,-816.5 606.88,-816.5"/>
</g>
<!-- present&#45;&gt;setId -->
<g id="edge18" class="edge">
<title>present&#45;&gt;setId</title>
<path fill="none" stroke="black" d="M890.38,-1258.14C783.09,-1257.43 508.46,-1252.68 481,-1223 390.31,-1124.96 416.66,-1039.54 481,-922.5 501.71,-884.83 545.39,-860.59 579.06,-846.73"/>
<polygon fill="black" stroke="black" points="580.16,-850.06 588.19,-843.14 577.6,-843.54 580.16,-850.06"/>
<polygon fill="none" stroke="black" points="484,-1201.25 484,-1220 916,-1220 916,-1201.25 484,-1201.25"/>
<text text-anchor="start" x="664" y="-1208.5" font-family="Courier New" font-weight="bold" font-size="10.00" fill="blue">Z_EPSILON(,)</text>
<polygon fill="none" stroke="black" points="484,-925.5 484,-1199.25 916,-1199.25 916,-925.5 484,-925.5"/>
<text text-anchor="start" x="487" y="-1186.75" font-family="Courier New" font-size="10.00" fill="blue"> &#160;&#160;&#160;&#160;&#160;&#160;</text>
<text text-anchor="start" x="487" y="-1174" font-family="Courier New" font-size="10.00" fill="blue"> &#160;//for back to back {statements} do not use semi&#45;colons between them, </text>
<text text-anchor="start" x="487" y="-1161.25" font-family="Courier New" font-size="10.00" fill="blue"> &#160;//only at the end of the code segment!</text>
<text text-anchor="start" x="487" y="-1148.5" font-family="Courier New" font-size="10.00" fill="blue"> &#160;if(LSEX == 1){</text>
<text text-anchor="start" x="487" y="-1135.75" font-family="Courier New" font-size="10.00" fill="blue"> &#160;&#160;&#160;WPARM = F1;</text>
<text text-anchor="start" x="487" y="-1123" font-family="Courier New" font-size="10.00" fill="blue"> &#160;&#160;&#160;&#160;if(LWISDOM &gt;= 30){</text>
<text text-anchor="start" x="487" y="-1110.25" font-family="Courier New" font-size="10.00" fill="blue"> &#160;&#160;&#160;&#160;&#160;&#160;WPARM = F3;</text>
<text text-anchor="start" x="487" y="-1097.5" font-family="Courier New" font-size="10.00" fill="blue"> &#160;&#160;&#160;}</text>
<text text-anchor="start" x="487" y="-1084.75" font-family="Courier New" font-size="10.00" fill="blue"> &#160;&#160;&#160;&#160;if(LWISDOM &gt;= 20 &amp;&amp; LWISDOM &lt; 30){</text>
<text text-anchor="start" x="487" y="-1072" font-family="Courier New" font-size="10.00" fill="blue"> &#160;&#160;&#160;&#160;&#160;&#160;WPARM = F2;</text>
<text text-anchor="start" x="487" y="-1059.25" font-family="Courier New" font-size="10.00" fill="blue"> &#160;&#160;&#160;}</text>
<text text-anchor="start" x="487" y="-1046.5" font-family="Courier New" font-size="10.00" fill="blue"> &#160;}</text>
<text text-anchor="start" x="487" y="-1033.75" font-family="Courier New" font-size="10.00" fill="blue"> &#160;if(LSEX == 0){</text>
<text text-anchor="start" x="487" y="-1021" font-family="Courier New" font-size="10.00" fill="blue"> &#160;&#160;&#160;WPARM = M1;</text>
<text text-anchor="start" x="487" y="-1008.25" font-family="Courier New" font-size="10.00" fill="blue"> &#160;&#160;&#160;&#160;&#160;if(LWISDOM &gt;= 30){</text>
<text text-anchor="start" x="487" y="-995.5" font-family="Courier New" font-size="10.00" fill="blue"> &#160;&#160;&#160;&#160;&#160;&#160;WPARM = M3;</text>
<text text-anchor="start" x="487" y="-982.75" font-family="Courier New" font-size="10.00" fill="blue"> &#160;&#160;&#160;}</text>
<text text-anchor="start" x="487" y="-970" font-family="Courier New" font-size="10.00" fill="blue"> &#160;&#160;&#160;if(LWISDOM &gt;= 20 &amp;&amp; LWISDOM &lt; 30){</text>
<text text-anchor="start" x="487" y="-957.25" font-family="Courier New" font-size="10.00" fill="blue"> &#160;&#160;&#160;&#160;&#160;&#160;&#160;WPARM = M2;</text>
<text text-anchor="start" x="487" y="-944.5" font-family="Courier New" font-size="10.00" fill="blue"> &#160;&#160;&#160;}</text>
<text text-anchor="start" x="487" y="-931.75" font-family="Courier New" font-size="10.00" fill="blue"> &#160;}; </text>
<polygon fill="none" stroke="black" points="481,-922.5 481,-1223 919,-1223 919,-922.5 481,-922.5"/>
</g>
<!-- 100 -->
<g id="node4" class="node">
<title>100</title>
<polyline fill="none" stroke="darkred" points="153.62,-445.38 184.38,-445.38"/>
<text text-anchor="start" x="156.62" y="-452.57" font-family="Courier New" font-weight="bold" font-size="14.00">100</text>
<path fill="none" stroke="darkred" d="M160.12,-442.38C160.12,-442.38 177.88,-442.38 177.88,-442.38 182.62,-442.38 187.38,-447.12 187.38,-451.88 187.38,-451.88 187.38,-461.38 187.38,-461.38 187.38,-466.12 182.62,-470.88 177.88,-470.88 177.88,-470.88 160.12,-470.88 160.12,-470.88 155.38,-470.88 150.62,-466.12 150.62,-461.38 150.62,-461.38 150.62,-451.88 150.62,-451.88 150.62,-447.12 155.38,-442.38 160.12,-442.38"/>
</g>
<!-- empty -->
<g id="node5" class="node">
<title>empty</title>
<polyline fill="none" stroke="darkred" points="335.38,-248.25 382.62,-248.25"/>
<text text-anchor="start" x="338.38" y="-255.45" font-family="Courier New" font-weight="bold" font-size="14.00">empty</text>
<path fill="none" stroke="darkred" d="M341.88,-245.25C341.88,-245.25 376.12,-245.25 376.12,-245.25 380.88,-245.25 385.62,-250 385.62,-254.75 385.62,-254.75 385.62,-264.25 385.62,-264.25 385.62,-269 380.88,-273.75 376.12,-273.75 376.12,-273.75 341.88,-273.75 341.88,-273.75 337.12,-273.75 332.38,-269 332.38,-264.25 332.38,-264.25 332.38,-254.75 332.38,-254.75 332.38,-250 337.12,-245.25 341.88,-245.25"/>
</g>
<!-- 100&#45;&gt;empty -->
<g id="edge2" class="edge">
<title>100&#45;&gt;empty</title>
<path fill="none" stroke="black" d="M160.02,-438.65C145.79,-409.13 122.69,-348.13 154,-313 177.22,-286.95 277.39,-307.43 310,-295 316.89,-292.37 323.72,-288.56 330,-284.41"/>
<polygon fill="black" stroke="black" points="331.99,-287.29 338.1,-278.63 327.93,-281.59 331.99,-287.29"/>
<polygon fill="none" stroke="black" points="157,-349.5 157,-368.25 325,-368.25 325,-349.5 157,-349.5"/>
<text text-anchor="start" x="205" y="-356.75" font-family="Courier New" font-weight="bold" font-size="10.00" fill="blue">Z_EPSILON(,)</text>
<polygon fill="none" stroke="black" points="157,-316 157,-347.5 325,-347.5 325,-316 157,-316"/>
<text text-anchor="start" x="160" y="-335" font-family="Courier New" font-size="10.00" fill="blue"> &#160;&#160;&#160;SHOW(0);</text>
<text text-anchor="start" x="160" y="-322.25" font-family="Courier New" font-size="10.00" fill="blue"> &#160;&#160;&#160;SIGNAL(WIP4,SIG_CLEAR);</text>
<polygon fill="none" stroke="black" points="154,-313 154,-371.25 328,-371.25 328,-313 154,-313"/>
</g>
<!-- sitting -->
<g id="node20" class="node">
<title>sitting</title>
<polyline fill="none" stroke="darkred" stroke-width="3" points="900.62,-616 965.38,-616"/>
<text text-anchor="start" x="904.12" y="-623.7" font-family="Courier New" font-weight="bold" font-size="14.00">sitting</text>
<path fill="none" stroke="darkred" stroke-width="3" d="M906.79,-611C906.79,-611 959.21,-611 959.21,-611 964.79,-611 970.38,-616.58 970.38,-622.17 970.38,-622.17 970.38,-633.33 970.38,-633.33 970.38,-638.92 964.79,-644.5 959.21,-644.5 959.21,-644.5 906.79,-644.5 906.79,-644.5 901.21,-644.5 895.62,-638.92 895.62,-633.33 895.62,-633.33 895.62,-622.17 895.62,-622.17 895.62,-616.58 901.21,-611 906.79,-611"/>
</g>
<!-- empty&#45;&gt;sitting -->
<g id="edge14" class="edge">
<title>empty&#45;&gt;sitting</title>
<path fill="none" stroke="black" d="M354.43,-277.6C343.56,-322.22 320.65,-444.23 371,-524 403,-574.69 432.54,-570.4 490,-587.5 560.54,-608.5 771.72,-619.99 874.93,-624.49"/>
<polygon fill="black" stroke="black" points="874.71,-627.98 884.86,-624.91 875.01,-620.99 874.71,-627.98"/>
<text text-anchor="start" x="375" y="-454.5" font-family="Courier New" font-weight="bold" font-size="10.00" fill="orange">WAIT(,SIG_SHOW)</text>
</g>
<!-- 20 -->
<g id="node6" class="node">
<title>20</title>
<polyline fill="none" stroke="darkred" points="714.75,-330.88 737.25,-330.88"/>
<text text-anchor="start" x="717.75" y="-338.07" font-family="Courier New" font-weight="bold" font-size="14.00">20</text>
<path fill="none" stroke="darkred" d="M721.25,-327.88C721.25,-327.88 730.75,-327.88 730.75,-327.88 735.5,-327.88 740.25,-332.62 740.25,-337.38 740.25,-337.38 740.25,-346.88 740.25,-346.88 740.25,-351.62 735.5,-356.38 730.75,-356.38 730.75,-356.38 721.25,-356.38 721.25,-356.38 716.5,-356.38 711.75,-351.62 711.75,-346.88 711.75,-346.88 711.75,-337.38 711.75,-337.38 711.75,-332.62 716.5,-327.88 721.25,-327.88"/>
</g>
<!-- playForward -->
<g id="node7" class="node">
<title>playForward</title>
<polyline fill="none" stroke="darkred" points="1167.62,-7 1264.38,-7"/>
<text text-anchor="start" x="1170.62" y="-14.2" font-family="Courier New" font-weight="bold" font-size="14.00">playForward</text>
<path fill="none" stroke="darkred" d="M1174.12,-4C1174.12,-4 1257.88,-4 1257.88,-4 1262.62,-4 1267.38,-8.75 1267.38,-13.5 1267.38,-13.5 1267.38,-23 1267.38,-23 1267.38,-27.75 1262.62,-32.5 1257.88,-32.5 1257.88,-32.5 1174.12,-32.5 1174.12,-32.5 1169.38,-32.5 1164.62,-27.75 1164.62,-23 1164.62,-23 1164.62,-13.5 1164.62,-13.5 1164.62,-8.75 1169.38,-4 1174.12,-4"/>
</g>
<!-- 20&#45;&gt;playForward -->
<g id="edge3" class="edge">
<title>20&#45;&gt;playForward</title>
<path fill="none" stroke="black" d="M724.68,-324.04C722.79,-286.77 723.81,-197.53 771,-147.75 869.72,-43.63 1047.02,-22.22 1145.39,-18.81"/>
<polygon fill="black" stroke="black" points="1145.28,-22.32 1155.18,-18.53 1145.08,-15.32 1145.28,-22.32"/>
<text text-anchor="start" x="775" y="-174.75" font-family="Courier New" font-weight="bold" font-size="10.00" fill="blue">ASSIGN(WSPRITE,happy)</text>
</g>
<!-- playForward&#45;&gt;sitting -->
<g id="edge16" class="edge">
<title>playForward&#45;&gt;sitting</title>
<path fill="none" stroke="black" d="M1156.94,-20.55C913.42,-26.3 0,-51.79 0,-110.5 0,-457.62 0,-457.62 0,-457.62 0,-557 88.18,-554.74 182,-587.5 246.66,-610.08 709.9,-622.02 874.86,-625.58"/>
<polygon fill="black" stroke="black" points="874.62,-629.08 884.7,-625.79 874.77,-622.08 874.62,-629.08"/>
<polygon fill="none" stroke="black" points="3,-273.25 3,-292 303,-292 303,-273.25 3,-273.25"/>
<text text-anchor="start" x="105" y="-280.5" font-family="Courier New" font-weight="bold" font-size="10.00" fill="blue">ASSIGN(BFRAME,0)</text>
<polygon fill="none" stroke="black" points="3,-227 3,-271.25 303,-271.25 303,-227 3,-227"/>
<text text-anchor="start" x="6" y="-258.75" font-family="Courier New" font-size="10.00" fill="blue"> &#160;&#160;&#160;MAP(WSPRITE,WPARM);</text>
<text text-anchor="start" x="6" y="-246" font-family="Courier New" font-size="10.00" fill="blue"> &#160;&#160;&#160;SHOW(WSPRITE);</text>
<text text-anchor="start" x="6" y="-233.25" font-family="Courier New" font-size="10.00" fill="blue"> &#160;&#160;&#160;ANIMATE(0,V_REWIND); //PLAY FORWARD THEN BACK</text>
<polygon fill="none" stroke="black" points="0,-224 0,-295 306,-295 306,-224 0,-224"/>
</g>
<!-- 21 -->
<g id="node8" class="node">
<title>21</title>
<polyline fill="none" stroke="darkred" points="1288.75,-100.25 1311.25,-100.25"/>
<text text-anchor="start" x="1291.75" y="-107.45" font-family="Courier New" font-weight="bold" font-size="14.00">21</text>
<path fill="none" stroke="darkred" d="M1295.25,-97.25C1295.25,-97.25 1304.75,-97.25 1304.75,-97.25 1309.5,-97.25 1314.25,-102 1314.25,-106.75 1314.25,-106.75 1314.25,-116.25 1314.25,-116.25 1314.25,-121 1309.5,-125.75 1304.75,-125.75 1304.75,-125.75 1295.25,-125.75 1295.25,-125.75 1290.5,-125.75 1285.75,-121 1285.75,-116.25 1285.75,-116.25 1285.75,-106.75 1285.75,-106.75 1285.75,-102 1290.5,-97.25 1295.25,-97.25"/>
</g>
<!-- 21&#45;&gt;playForward -->
<g id="edge4" class="edge">
<title>21&#45;&gt;playForward</title>
<path fill="none" stroke="black" d="M1284.2,-93.34C1271.53,-79.57 1253.56,-60.05 1239.25,-44.5"/>
<polygon fill="black" stroke="black" points="1242.1,-42.44 1232.75,-37.45 1236.95,-47.18 1242.1,-42.44"/>
<text text-anchor="start" x="1269" y="-62.75" font-family="Courier New" font-weight="bold" font-size="10.00" fill="blue">ASSIGN(WSPRITE,hurt)</text>
</g>
<!-- 22 -->
<g id="node9" class="node">
<title>22</title>
<polyline fill="none" stroke="darkred" points="659.75,-445.38 682.25,-445.38"/>
<text text-anchor="start" x="662.75" y="-452.57" font-family="Courier New" font-weight="bold" font-size="14.00">22</text>
<path fill="none" stroke="darkred" d="M666.25,-442.38C666.25,-442.38 675.75,-442.38 675.75,-442.38 680.5,-442.38 685.25,-447.12 685.25,-451.88 685.25,-451.88 685.25,-461.38 685.25,-461.38 685.25,-466.12 680.5,-470.88 675.75,-470.88 675.75,-470.88 666.25,-470.88 666.25,-470.88 661.5,-470.88 656.75,-466.12 656.75,-461.38 656.75,-461.38 656.75,-451.88 656.75,-451.88 656.75,-447.12 661.5,-442.38 666.25,-442.38"/>
</g>
<!-- playOnce -->
<g id="node10" class="node">
<title>playOnce</title>
<polyline fill="none" stroke="darkred" points="485,-248.25 557,-248.25"/>
<text text-anchor="start" x="488" y="-255.45" font-family="Courier New" font-weight="bold" font-size="14.00">playOnce</text>
<path fill="none" stroke="darkred" d="M491.5,-245.25C491.5,-245.25 550.5,-245.25 550.5,-245.25 555.25,-245.25 560,-250 560,-254.75 560,-254.75 560,-264.25 560,-264.25 560,-269 555.25,-273.75 550.5,-273.75 550.5,-273.75 491.5,-273.75 491.5,-273.75 486.75,-273.75 482,-269 482,-264.25 482,-264.25 482,-254.75 482,-254.75 482,-250 486.75,-245.25 491.5,-245.25"/>
</g>
<!-- 22&#45;&gt;playOnce -->
<g id="edge5" class="edge">
<title>22&#45;&gt;playOnce</title>
<path fill="none" stroke="black" d="M664.76,-438.62C658.34,-423.45 646.86,-401.76 630,-389.25 604.89,-370.63 585.14,-392.27 562,-371.25 538.53,-349.92 528.45,-313.93 524.15,-288.79"/>
<polygon fill="black" stroke="black" points="527.62,-288.3 522.69,-278.92 520.69,-289.33 527.62,-288.3"/>
<text text-anchor="start" x="566" y="-340" font-family="Courier New" font-weight="bold" font-size="10.00" fill="blue">ASSIGN(WSPRITE,kiss)</text>
</g>
<!-- playOnce&#45;&gt;sitting -->
<g id="edge17" class="edge">
<title>playOnce&#45;&gt;sitting</title>
<path fill="none" stroke="black" d="M514.57,-277.67C505.83,-302.06 490.61,-348.32 485,-389.25 476.86,-448.58 462.19,-468.62 485,-524 500.14,-560.76 512.12,-570.37 548,-587.5 604.33,-614.39 781.7,-622.93 874.74,-625.58"/>
<polygon fill="black" stroke="black" points="874.59,-629.08 884.68,-625.85 874.78,-622.08 874.59,-629.08"/>
<polygon fill="none" stroke="black" points="488,-470.38 488,-489.12 632,-489.12 632,-470.38 488,-470.38"/>
<text text-anchor="start" x="512" y="-477.62" font-family="Courier New" font-weight="bold" font-size="10.00" fill="blue">ASSIGN(BFRAME,0)</text>
<polygon fill="none" stroke="black" points="488,-424.12 488,-468.38 632,-468.38 632,-424.12 488,-424.12"/>
<text text-anchor="start" x="491" y="-455.88" font-family="Courier New" font-size="10.00" fill="blue"> &#160;&#160;&#160;MAP(WSPRITE,WPARM);</text>
<text text-anchor="start" x="491" y="-443.12" font-family="Courier New" font-size="10.00" fill="blue"> &#160;&#160;&#160;SHOW(0,WSPRITE);</text>
<text text-anchor="start" x="491" y="-430.38" font-family="Courier New" font-size="10.00" fill="blue"> &#160;&#160;&#160;ANIMATE(0,0);</text>
<polygon fill="none" stroke="black" points="485,-421.12 485,-492.12 635,-492.12 635,-421.12 485,-421.12"/>
</g>
<!-- 23 -->
<g id="node11" class="node">
<title>23</title>
<polyline fill="none" stroke="darkred" points="773.75,-330.88 796.25,-330.88"/>
<text text-anchor="start" x="776.75" y="-338.07" font-family="Courier New" font-weight="bold" font-size="14.00">23</text>
<path fill="none" stroke="darkred" d="M780.25,-327.88C780.25,-327.88 789.75,-327.88 789.75,-327.88 794.5,-327.88 799.25,-332.62 799.25,-337.38 799.25,-337.38 799.25,-346.88 799.25,-346.88 799.25,-351.62 794.5,-356.38 789.75,-356.38 789.75,-356.38 780.25,-356.38 780.25,-356.38 775.5,-356.38 770.75,-351.62 770.75,-346.88 770.75,-346.88 770.75,-337.38 770.75,-337.38 770.75,-332.62 775.5,-327.88 780.25,-327.88"/>
</g>
<!-- 23&#45;&gt;playForward -->
<g id="edge6" class="edge">
<title>23&#45;&gt;playForward</title>
<path fill="none" stroke="black" d="M798.79,-323.89C828.26,-287.85 900.74,-203.27 975,-147.75 1035.45,-102.55 1113.9,-63.88 1164.6,-41.09"/>
<polygon fill="black" stroke="black" points="1165.88,-44.35 1173.59,-37.09 1163.03,-37.96 1165.88,-44.35"/>
<text text-anchor="start" x="979" y="-174.75" font-family="Courier New" font-weight="bold" font-size="10.00" fill="blue">ASSIGN(WSPRITE,mad)</text>
</g>
<!-- 24 -->
<g id="node12" class="node">
<title>24</title>
<polyline fill="none" stroke="darkred" points="1121.75,-165.62 1144.25,-165.62"/>
<text text-anchor="start" x="1124.75" y="-172.82" font-family="Courier New" font-weight="bold" font-size="14.00">24</text>
<path fill="none" stroke="darkred" d="M1128.25,-162.62C1128.25,-162.62 1137.75,-162.62 1137.75,-162.62 1142.5,-162.62 1147.25,-167.38 1147.25,-172.12 1147.25,-172.12 1147.25,-181.62 1147.25,-181.62 1147.25,-186.38 1142.5,-191.12 1137.75,-191.12 1137.75,-191.12 1128.25,-191.12 1128.25,-191.12 1123.5,-191.12 1118.75,-186.38 1118.75,-181.62 1118.75,-181.62 1118.75,-172.12 1118.75,-172.12 1118.75,-167.38 1123.5,-162.62 1128.25,-162.62"/>
</g>
<!-- 24&#45;&gt;playForward -->
<g id="edge7" class="edge">
<title>24&#45;&gt;playForward</title>
<path fill="none" stroke="black" d="M1131.65,-158.84C1130.99,-141.48 1131.96,-114.2 1142,-93.25 1151.32,-73.8 1167.91,-56.48 1183.02,-43.49"/>
<polygon fill="black" stroke="black" points="1185.02,-46.38 1190.51,-37.33 1180.57,-40.98 1185.02,-46.38"/>
<text text-anchor="start" x="1146" y="-109.38" font-family="Courier New" font-weight="bold" font-size="10.00" fill="blue">ASSIGN(WSPRITE,sad)</text>
</g>
<!-- 25 -->
<g id="node13" class="node">
<title>25</title>
<polyline fill="none" stroke="darkred" points="1611.75,-330.88 1634.25,-330.88"/>
<text text-anchor="start" x="1614.75" y="-338.07" font-family="Courier New" font-weight="bold" font-size="14.00">25</text>
<path fill="none" stroke="darkred" d="M1618.25,-327.88C1618.25,-327.88 1627.75,-327.88 1627.75,-327.88 1632.5,-327.88 1637.25,-332.62 1637.25,-337.38 1637.25,-337.38 1637.25,-346.88 1637.25,-346.88 1637.25,-351.62 1632.5,-356.38 1627.75,-356.38 1627.75,-356.38 1618.25,-356.38 1618.25,-356.38 1613.5,-356.38 1608.75,-351.62 1608.75,-346.88 1608.75,-346.88 1608.75,-337.38 1608.75,-337.38 1608.75,-332.62 1613.5,-327.88 1618.25,-327.88"/>
</g>
<!-- 25&#45;&gt;playForward -->
<g id="edge8" class="edge">
<title>25&#45;&gt;playForward</title>
<path fill="none" stroke="black" d="M1622.44,-323.88C1620.41,-287.45 1611.04,-201.6 1568,-147.75 1499.33,-61.84 1367.86,-33.36 1286.47,-23.92"/>
<polygon fill="black" stroke="black" points="1287.16,-20.48 1276.84,-22.88 1286.4,-27.43 1287.16,-20.48"/>
<text text-anchor="start" x="1602" y="-174.75" font-family="Courier New" font-weight="bold" font-size="10.00" fill="blue">ASSIGN(WSPRITE,surprised)</text>
</g>
<!-- 26 -->
<g id="node14" class="node">
<title>26</title>
<polyline fill="none" stroke="darkred" points="1784.75,-165.62 1807.25,-165.62"/>
<text text-anchor="start" x="1787.75" y="-172.82" font-family="Courier New" font-weight="bold" font-size="14.00">26</text>
<path fill="none" stroke="darkred" d="M1791.25,-162.62C1791.25,-162.62 1800.75,-162.62 1800.75,-162.62 1805.5,-162.62 1810.25,-167.38 1810.25,-172.12 1810.25,-172.12 1810.25,-181.62 1810.25,-181.62 1810.25,-186.38 1805.5,-191.12 1800.75,-191.12 1800.75,-191.12 1791.25,-191.12 1791.25,-191.12 1786.5,-191.12 1781.75,-186.38 1781.75,-181.62 1781.75,-181.62 1781.75,-172.12 1781.75,-172.12 1781.75,-167.38 1786.5,-162.62 1791.25,-162.62"/>
</g>
<!-- 26&#45;&gt;playForward -->
<g id="edge9" class="edge">
<title>26&#45;&gt;playForward</title>
<path fill="none" stroke="black" d="M1770.18,-158.76C1764.55,-155.08 1758.59,-151.26 1753,-147.75 1739.82,-139.49 1736.22,-137.93 1723,-129.75 1670.1,-97.02 1663.86,-74.6 1605,-54.5 1547.88,-35 1382.1,-25.57 1286.4,-21.64"/>
<polygon fill="black" stroke="black" points="1286.74,-18.15 1276.6,-21.25 1286.46,-25.15 1286.74,-18.15"/>
<text text-anchor="start" x="1727" y="-109.38" font-family="Courier New" font-weight="bold" font-size="10.00" fill="blue">ASSIGN(WSPRITE,stress)</text>
</g>
<!-- 27 -->
<g id="node15" class="node">
<title>27</title>
<polyline fill="none" stroke="darkred" points="1887.75,-100.25 1910.25,-100.25"/>
<text text-anchor="start" x="1890.75" y="-107.45" font-family="Courier New" font-weight="bold" font-size="14.00">27</text>
<path fill="none" stroke="darkred" d="M1894.25,-97.25C1894.25,-97.25 1903.75,-97.25 1903.75,-97.25 1908.5,-97.25 1913.25,-102 1913.25,-106.75 1913.25,-106.75 1913.25,-116.25 1913.25,-116.25 1913.25,-121 1908.5,-125.75 1903.75,-125.75 1903.75,-125.75 1894.25,-125.75 1894.25,-125.75 1889.5,-125.75 1884.75,-121 1884.75,-116.25 1884.75,-116.25 1884.75,-106.75 1884.75,-106.75 1884.75,-102 1889.5,-97.25 1894.25,-97.25"/>
</g>
<!-- 27&#45;&gt;playForward -->
<g id="edge10" class="edge">
<title>27&#45;&gt;playForward</title>
<path fill="none" stroke="black" d="M1872,-100.92C1834.43,-88.02 1763.98,-65.44 1702,-54.5 1555.85,-28.71 1381.77,-21.71 1286.68,-19.86"/>
<polygon fill="black" stroke="black" points="1286.78,-16.36 1276.72,-19.68 1286.65,-23.36 1286.78,-16.36"/>
<text text-anchor="start" x="1793" y="-62.75" font-family="Courier New" font-weight="bold" font-size="10.00" fill="blue">ASSIGN(WSPRITE,wave)</text>
</g>
<!-- 30 -->
<g id="node16" class="node">
<title>30</title>
<polyline fill="none" stroke="darkred" points="1058.75,-445.38 1081.25,-445.38"/>
<text text-anchor="start" x="1061.75" y="-452.57" font-family="Courier New" font-weight="bold" font-size="14.00">30</text>
<path fill="none" stroke="darkred" d="M1065.25,-442.38C1065.25,-442.38 1074.75,-442.38 1074.75,-442.38 1079.5,-442.38 1084.25,-447.12 1084.25,-451.88 1084.25,-451.88 1084.25,-461.38 1084.25,-461.38 1084.25,-466.12 1079.5,-470.88 1074.75,-470.88 1074.75,-470.88 1065.25,-470.88 1065.25,-470.88 1060.5,-470.88 1055.75,-466.12 1055.75,-461.38 1055.75,-461.38 1055.75,-451.88 1055.75,-451.88 1055.75,-447.12 1060.5,-442.38 1065.25,-442.38"/>
</g>
<!-- playDead -->
<g id="node17" class="node">
<title>playDead</title>
<polyline fill="none" stroke="darkred" points="948,-248.25 1020,-248.25"/>
<text text-anchor="start" x="951" y="-255.45" font-family="Courier New" font-weight="bold" font-size="14.00">playDead</text>
<path fill="none" stroke="darkred" d="M954.5,-245.25C954.5,-245.25 1013.5,-245.25 1013.5,-245.25 1018.25,-245.25 1023,-250 1023,-254.75 1023,-254.75 1023,-264.25 1023,-264.25 1023,-269 1018.25,-273.75 1013.5,-273.75 1013.5,-273.75 954.5,-273.75 954.5,-273.75 949.75,-273.75 945,-269 945,-264.25 945,-264.25 945,-254.75 945,-254.75 945,-250 949.75,-245.25 954.5,-245.25"/>
</g>
<!-- 30&#45;&gt;playDead -->
<g id="edge11" class="edge">
<title>30&#45;&gt;playDead</title>
<path fill="none" stroke="black" d="M1062.79,-438.46C1055.92,-423.8 1044.34,-402.98 1029,-389.25 1015.07,-376.79 1001.49,-386.72 991,-371.25 974.63,-347.1 975.18,-312.78 978.35,-288.76"/>
<polygon fill="black" stroke="black" points="981.78,-289.49 979.89,-279.06 974.87,-288.39 981.78,-289.49"/>
<text text-anchor="start" x="995" y="-340" font-family="Courier New" font-weight="bold" font-size="10.00" fill="blue">ASSIGN(WSPRITE,dead)</text>
</g>
<!-- playDead&#45;&gt;sitting -->
<g id="edge15" class="edge">
<title>playDead&#45;&gt;sitting</title>
<path fill="none" stroke="black" d="M951.32,-277.6C915.37,-298.47 859.58,-337.49 836,-389.25 811.17,-443.75 798.41,-477.38 836,-524 859.69,-553.38 892.98,-514.65 919,-542 932.09,-555.76 935.62,-576.81 935.86,-594.48"/>
<polygon fill="black" stroke="black" points="932.37,-594.18 935.64,-604.26 939.37,-594.34 932.37,-594.18"/>
<polygon fill="none" stroke="black" points="839,-502.25 839,-521 1031,-521 1031,-502.25 839,-502.25"/>
<text text-anchor="start" x="887" y="-509.5" font-family="Courier New" font-weight="bold" font-size="10.00" fill="blue">ASSIGN(BFRAME,0)</text>
<polygon fill="none" stroke="black" points="839,-392.25 839,-500.25 1031,-500.25 1031,-392.25 839,-392.25"/>
<text text-anchor="start" x="842" y="-487.75" font-family="Courier New" font-size="10.00" fill="blue"> &#160;&#160;&#160;MAP(WSPRITE,WPARM);</text>
<text text-anchor="start" x="842" y="-475" font-family="Courier New" font-size="10.00" fill="blue"> &#160;&#160;&#160;SHOW(0,WSPRITE);</text>
<text text-anchor="start" x="842" y="-462.25" font-family="Courier New" font-size="10.00" fill="blue"> &#160;&#160;&#160;VIDEO(0,WSPRITE);</text>
<text text-anchor="start" x="842" y="-449.5" font-family="Courier New" font-size="10.00" fill="blue"> &#160;&#160;&#160;ANIMATE(0,0);</text>
<text text-anchor="start" x="842" y="-436.75" font-family="Courier New" font-size="10.00" fill="blue"> &#160;&#160;&#160;ASSIGN(LENERGY,1);</text>
<text text-anchor="start" x="842" y="-424" font-family="Courier New" font-size="10.00" fill="blue"> &#160;&#160;&#160;ASSIGN(LWEALTH,0);</text>
<text text-anchor="start" x="842" y="-411.25" font-family="Courier New" font-size="10.00" fill="blue"> &#160;&#160;&#160;SIGNAL(SMP_VIAL,SIG_DRAIN);</text>
<text text-anchor="start" x="842" y="-398.5" font-family="Courier New" font-size="10.00" fill="blue"> &#160;&#160;&#160;LOADVIEW(IDV_VIL8);</text>
<polygon fill="none" stroke="black" points="836,-389.25 836,-524 1034,-524 1034,-389.25 836,-389.25"/>
</g>
<!-- 50 -->
<g id="node18" class="node">
<title>50</title>
<polyline fill="none" stroke="darkred" points="1338.75,-445.38 1361.25,-445.38"/>
<text text-anchor="start" x="1341.75" y="-452.57" font-family="Courier New" font-weight="bold" font-size="14.00">50</text>
<path fill="none" stroke="darkred" d="M1345.25,-442.38C1345.25,-442.38 1354.75,-442.38 1354.75,-442.38 1359.5,-442.38 1364.25,-447.12 1364.25,-451.88 1364.25,-451.88 1364.25,-461.38 1364.25,-461.38 1364.25,-466.12 1359.5,-470.88 1354.75,-470.88 1354.75,-470.88 1345.25,-470.88 1345.25,-470.88 1340.5,-470.88 1335.75,-466.12 1335.75,-461.38 1335.75,-461.38 1335.75,-451.88 1335.75,-451.88 1335.75,-447.12 1340.5,-442.38 1345.25,-442.38"/>
</g>
<!-- 51 -->
<g id="node19" class="node">
<title>51</title>
<polyline fill="none" stroke="darkred" points="1338.75,-248.25 1361.25,-248.25"/>
<text text-anchor="start" x="1341.75" y="-255.45" font-family="Courier New" font-weight="bold" font-size="14.00">51</text>
<path fill="none" stroke="darkred" d="M1345.25,-245.25C1345.25,-245.25 1354.75,-245.25 1354.75,-245.25 1359.5,-245.25 1364.25,-250 1364.25,-254.75 1364.25,-254.75 1364.25,-264.25 1364.25,-264.25 1364.25,-269 1359.5,-273.75 1354.75,-273.75 1354.75,-273.75 1345.25,-273.75 1345.25,-273.75 1340.5,-273.75 1335.75,-269 1335.75,-264.25 1335.75,-264.25 1335.75,-254.75 1335.75,-254.75 1335.75,-250 1340.5,-245.25 1345.25,-245.25"/>
</g>
<!-- 50&#45;&gt;51 -->
<g id="edge12" class="edge">
<title>50&#45;&gt;51</title>
<path fill="none" stroke="black" d="M1354.21,-438.46C1360.22,-411.63 1369.92,-358.14 1364,-313 1362.93,-304.83 1360.96,-296.12 1358.83,-288.2"/>
<polygon fill="black" stroke="black" points="1362.24,-287.39 1356.1,-278.75 1355.51,-289.33 1362.24,-287.39"/>
<text text-anchor="start" x="1369" y="-340" font-family="Courier New" font-weight="bold" font-size="10.00" fill="blue">VIDEO(0,IDS_EXPLODE1)</text>
</g>
<!-- 51&#45;&gt;21 -->
<g id="edge13" class="edge">
<title>51&#45;&gt;21</title>
<path fill="none" stroke="black" d="M1344.17,-241.47C1335.62,-216.52 1319.62,-169.78 1309.4,-139.95"/>
<polygon fill="black" stroke="black" points="1312.84,-139.18 1306.29,-130.86 1306.22,-141.45 1312.84,-139.18"/>
<polygon fill="none" stroke="black" points="1333,-184.25 1333,-203 1561,-203 1561,-184.25 1333,-184.25"/>
<text text-anchor="start" x="1372" y="-191.5" font-family="Courier New" font-weight="bold" font-size="10.00" fill="blue">PLAYWAVE(0,SOUND_EXPLODE)</text>
<polygon fill="none" stroke="black" points="1333,-150.75 1333,-182.25 1561,-182.25 1561,-150.75 1333,-150.75"/>
<text text-anchor="start" x="1336" y="-169.75" font-family="Courier New" font-size="10.00" fill="blue"> &#160;&#160;&#160;&#160;&#160;&#160;&#160;&#160;&#160;&#160;&#160;SUBI(LENERGY,1);</text>
<text text-anchor="start" x="1336" y="-157" font-family="Courier New" font-size="10.00" fill="blue"> &#160;&#160;&#160;&#160;&#160;&#160;&#160;&#160;&#160;&#160;&#160;SIGNAL(SID_AURA,SIG_SUB);</text>
<polygon fill="none" stroke="black" points="1330,-147.75 1330,-206 1564,-206 1564,-147.75 1330,-147.75"/>
</g>
<!-- sitting&#45;&gt;present -->
<g id="edge20" class="edge">
<title>sitting&#45;&gt;present</title>
<path fill="none" stroke="black" d="M933,-649.94C933,-743.78 933,-1122.11 933,-1229.62"/>
<polygon fill="black" stroke="black" points="929.5,-1229.57 933,-1239.57 936.5,-1229.57 929.5,-1229.57"/>
<polygon fill="none" stroke="black" points="936,-882.75 936,-901.5 1506,-901.5 1506,-882.75 936,-882.75"/>
<text text-anchor="start" x="1173" y="-890" font-family="Courier New" font-weight="bold" font-size="10.00" fill="orange">WAIT(0,SIG_MYID)</text>
<polygon fill="none" stroke="black" points="936,-760 936,-880.75 1506,-880.75 1506,-760 936,-760"/>
<text text-anchor="start" x="939" y="-868.25" font-family="Courier New" font-size="10.00" fill="blue"> &#160;&#160;&#160;CLEAR(WSPRITE);</text>
<text text-anchor="start" x="939" y="-855.5" font-family="Courier New" font-size="10.00" fill="blue"> &#160;&#160;&#160;&#160;SHOW(0);</text>
<text text-anchor="start" x="939" y="-842.75" font-family="Courier New" font-size="10.00" fill="blue"> &#160;&#160;&#160;&#160;predicate active_character(name);</text>
<text text-anchor="start" x="939" y="-830" font-family="Courier New" font-size="10.00" fill="blue"> &#160;&#160;&#160;&#160;active_character(?BPARM)?</text>
<text text-anchor="start" x="939" y="-817.25" font-family="Courier New" font-size="10.00" fill="blue"> &#160;&#160;&#160;&#160;predicate players(name,viewname, wealth,karma, energy,strength, wisdom, gender, culture);</text>
<text text-anchor="start" x="939" y="-804.5" font-family="Courier New" font-size="10.00" fill="blue"> &#160;&#160;&#160;&#160;players(BPARM, ?WTEMP1, ?LWEALTH, ?LKARMA,?LENERGY,?LSTRENGTH, ?LWISDOM, ?LSEX, ?WTEMP2)?</text>
<text text-anchor="start" x="939" y="-791.75" font-family="Courier New" font-size="10.00" fill="blue"> &#160;&#160;</text>
<text text-anchor="start" x="939" y="-779" font-family="Courier New" font-size="10.00" fill="blue"> &#160;&#160;&#160;&#160;SIGNAL(SID_AURA,SIG_ADD);</text>
<text text-anchor="start" x="939" y="-766.25" font-family="Courier New" font-size="10.00" fill="blue"> &#160;&#160;&#160;&#160;SIGNAL(SID_HALO,SIG_ADD);</text>
<polygon fill="none" stroke="black" points="933,-757 933,-904.5 1509,-904.5 1509,-757 933,-757"/>
</g>
<!-- sitting&#45;&gt;present -->
<g id="edge32" class="edge">
<title>sitting&#45;&gt;present</title>
<path fill="none" stroke="black" d="M979.44,-631.77C1104.93,-640.98 1445.85,-673.37 1513,-757 1692.28,-980.25 1160.62,-1182.27 986.32,-1241.08"/>
<polygon fill="black" stroke="black" points="985.42,-1237.69 977.05,-1244.18 987.64,-1244.33 985.42,-1237.69"/>
<text text-anchor="start" x="1553" y="-828.62" font-family="Courier New" font-weight="bold" font-size="10.00" fill="orange">WAIT(0,0)</text>
</g>
<!-- sitting&#45;&gt;100 -->
<g id="edge31" class="edge">
<title>sitting&#45;&gt;100</title>
<path fill="none" stroke="black" d="M886.17,-627.1C735.78,-627.83 271.68,-626.84 218,-587.5 185.74,-563.86 174.71,-516.28 170.95,-485.74"/>
<polygon fill="black" stroke="black" points="174.46,-485.67 169.95,-476.08 167.5,-486.39 174.46,-485.67"/>
<text text-anchor="start" x="222" y="-562.62" font-family="Courier New" font-weight="bold" font-size="10.00" fill="orange">WAIT(0,SIG_CLEAR)</text>
</g>
<!-- sitting&#45;&gt;20 -->
<g id="edge21" class="edge">
<title>sitting&#45;&gt;20</title>
<path fill="none" stroke="black" d="M886.28,-626.15C822.66,-624.23 713.83,-616.65 689,-587.5 675.89,-572.11 681.26,-560.68 689,-542 693.33,-531.55 702.13,-534.21 707,-524 730.63,-474.45 730.93,-408.79 728.69,-371.74"/>
<polygon fill="black" stroke="black" points="732.18,-371.57 727.97,-361.85 725.2,-372.08 732.18,-371.57"/>
<text text-anchor="start" x="693" y="-562.62" font-family="Courier New" font-weight="bold" font-size="10.00" fill="orange">WAIT(0,SIG_HAPPY)</text>
</g>
<!-- sitting&#45;&gt;21 -->
<g id="edge22" class="edge">
<title>sitting&#45;&gt;21</title>
<path fill="none" stroke="black" d="M979.85,-622.16C1032.4,-616.27 1113.61,-604.71 1139,-587.5 1158.85,-574.04 1148.43,-555.87 1168,-542 1196.67,-521.68 1222.45,-550.96 1245,-524 1260.06,-505.99 1252.86,-336.27 1256,-313 1264.4,-250.72 1282.1,-179.11 1292.31,-140.57"/>
<polygon fill="black" stroke="black" points="1295.68,-141.52 1294.89,-130.96 1288.92,-139.71 1295.68,-141.52"/>
<text text-anchor="start" x="1260" y="-340" font-family="Courier New" font-weight="bold" font-size="10.00" fill="orange">WAIT(0,SIG_HURT)</text>
</g>
<!-- sitting&#45;&gt;22 -->
<g id="edge23" class="edge">
<title>sitting&#45;&gt;22</title>
<path fill="none" stroke="black" d="M886.24,-625.24C791.15,-621.7 582.4,-611.27 561,-587.5 547.47,-572.47 548.64,-558 561,-542 580.38,-516.92 604.51,-542.83 630,-524 643.32,-514.16 653.27,-498.57 660.03,-484.97"/>
<polygon fill="black" stroke="black" points="663.15,-486.57 664.14,-476.02 656.79,-483.65 663.15,-486.57"/>
<text text-anchor="start" x="565" y="-562.62" font-family="Courier New" font-weight="bold" font-size="10.00" fill="orange">WAIT(0,SIG_KISS)</text>
</g>
<!-- sitting&#45;&gt;23 -->
<g id="edge24" class="edge">
<title>sitting&#45;&gt;23</title>
<path fill="none" stroke="black" d="M886.16,-620.81C863.54,-615.6 837.75,-605.83 821,-587.5 792.57,-556.38 786.57,-428.96 785.32,-371.48"/>
<polygon fill="black" stroke="black" points="788.82,-371.48 785.14,-361.54 781.82,-371.6 788.82,-371.48"/>
<text text-anchor="start" x="825" y="-562.62" font-family="Courier New" font-weight="bold" font-size="10.00" fill="orange">WAIT(0,SIG_MAD)</text>
</g>
<!-- sitting&#45;&gt;24 -->
<g id="edge25" class="edge">
<title>sitting&#45;&gt;24</title>
<path fill="none" stroke="black" d="M979.56,-623.08C1027.59,-618.23 1097.85,-607.81 1115,-587.5 1163.42,-530.14 1144.28,-289.28 1136.03,-206.19"/>
<polygon fill="black" stroke="black" points="1139.53,-206.01 1135.03,-196.41 1132.56,-206.72 1139.53,-206.01"/>
<text text-anchor="start" x="1151" y="-454.5" font-family="Courier New" font-weight="bold" font-size="10.00" fill="orange">WAIT(0,SIG_SAD)</text>
</g>
<!-- sitting&#45;&gt;25 -->
<g id="edge26" class="edge">
<title>sitting&#45;&gt;25</title>
<path fill="none" stroke="black" d="M979.85,-625.87C1132.89,-622.76 1609.59,-611.21 1632,-587.5 1660.73,-557.11 1639.92,-428.79 1628.79,-371.25"/>
<polygon fill="black" stroke="black" points="1632.26,-370.72 1626.88,-361.59 1625.39,-372.08 1632.26,-370.72"/>
<text text-anchor="start" x="1649" y="-562.62" font-family="Courier New" font-weight="bold" font-size="10.00" fill="orange">WAIT(0,SIG_SURPRISED)</text>
</g>
<!-- sitting&#45;&gt;26 -->
<g id="edge27" class="edge">
<title>sitting&#45;&gt;26</title>
<path fill="none" stroke="black" d="M979.65,-626.33C1153.43,-624.54 1754.63,-616.28 1783,-587.5 1835.79,-533.94 1810.27,-289.56 1799.76,-205.99"/>
<polygon fill="black" stroke="black" points="1803.25,-205.63 1798.5,-196.16 1796.3,-206.52 1803.25,-205.63"/>
<text text-anchor="start" x="1819" y="-454.5" font-family="Courier New" font-weight="bold" font-size="10.00" fill="orange">WAIT(0,SIG_STRESS)</text>
</g>
<!-- sitting&#45;&gt;27 -->
<g id="edge28" class="edge">
<title>sitting&#45;&gt;27</title>
<path fill="none" stroke="black" d="M979.81,-627.22C1137.57,-628.42 1648.67,-628.92 1807,-587.5 1867.67,-571.63 1900.12,-577.4 1933,-524 2010.25,-398.56 1941.56,-209.34 1911.46,-139.57"/>
<polygon fill="black" stroke="black" points="1914.84,-138.55 1907.6,-130.81 1908.43,-141.38 1914.84,-138.55"/>
<text text-anchor="start" x="1972" y="-340" font-family="Courier New" font-weight="bold" font-size="10.00" fill="orange">WAIT(0,SIG_WAVE)</text>
</g>
<!-- sitting&#45;&gt;30 -->
<g id="edge29" class="edge">
<title>sitting&#45;&gt;30</title>
<path fill="none" stroke="black" d="M951.99,-605.63C967.64,-588.35 990.51,-563.36 1011,-542 1018.83,-533.84 1021.98,-532.87 1029,-524 1038.72,-511.72 1048.02,-496.99 1055.3,-484.53"/>
<polygon fill="black" stroke="black" points="1058.24,-486.44 1060.16,-476.02 1052.16,-482.97 1058.24,-486.44"/>
<text text-anchor="start" x="1015" y="-562.62" font-family="Courier New" font-weight="bold" font-size="10.00" fill="orange">WAIT(0,SIG_DEAD)</text>
</g>
<!-- sitting&#45;&gt;50 -->
<g id="edge30" class="edge">
<title>sitting&#45;&gt;50</title>
<path fill="none" stroke="black" d="M979.85,-623.78C1038.94,-619.2 1136.31,-608.65 1165,-587.5 1183.24,-574.06 1170.04,-555.82 1188,-542 1218.61,-518.45 1238.4,-541.15 1273,-524 1293.49,-513.85 1312.96,-496.97 1327.2,-482.77"/>
<polygon fill="black" stroke="black" points="1329.44,-485.49 1333.89,-475.88 1324.42,-480.62 1329.44,-485.49"/>
<polygon fill="none" stroke="black" points="1191,-565.75 1191,-584.5 1629,-584.5 1629,-565.75 1191,-565.75"/>
<text text-anchor="start" x="1362" y="-573" font-family="Courier New" font-weight="bold" font-size="10.00" fill="orange">WAIT(0,SIG_BOMB)</text>
<polygon fill="none" stroke="black" points="1191,-545 1191,-563.75 1629,-563.75 1629,-545 1191,-545"/>
<text text-anchor="start" x="1194" y="-551.25" font-family="Courier New" font-size="10.00" fill="blue"> &#160;&#160;&#160;&#160;WRITE(&quot;I am S_ID and I receive signals! This one is a SIG_BOMB! &quot;);</text>
<polygon fill="none" stroke="black" points="1188,-542 1188,-587.5 1632,-587.5 1632,-542 1188,-542"/>
</g>
<!-- setId&#45;&gt;sitting -->
<g id="edge19" class="edge">
<title>setId&#45;&gt;sitting</title>
<path fill="none" stroke="black" d="M634.17,-812.73C655.02,-779.41 705.99,-705.55 769,-668 801.17,-648.83 842.14,-639.02 875.08,-634"/>
<polygon fill="black" stroke="black" points="875.45,-637.48 884.87,-632.62 874.48,-630.55 875.45,-637.48"/>
<polygon fill="none" stroke="black" points="772,-717.25 772,-736 916,-736 916,-717.25 772,-717.25"/>
<text text-anchor="start" x="781" y="-724.5" font-family="Courier New" font-weight="bold" font-size="10.00" fill="blue">ASSIGN(WSPRITE,happy)</text>
<polygon fill="none" stroke="black" points="772,-671 772,-715.25 916,-715.25 916,-671 772,-671"/>
<text text-anchor="start" x="775" y="-702.75" font-family="Courier New" font-size="10.00" fill="blue"> &#160;&#160;&#160;MAP(WSPRITE,WPARM);</text>
<text text-anchor="start" x="775" y="-690" font-family="Courier New" font-size="10.00" fill="blue"> &#160;&#160;&#160;ASSIGN(BFRAME,0);</text>
<text text-anchor="start" x="775" y="-677.25" font-family="Courier New" font-size="10.00" fill="blue"> &#160;&#160;&#160;SHOW(WSPRITE);</text>
<polygon fill="none" stroke="black" points="769,-668 769,-739 919,-739 919,-668 769,-668"/>
</g>
<!-- status -->
<g id="node22" class="node">
<title>status</title>
<polygon fill="none" stroke="black" points="978,-1461.5 978,-1540.5 1450,-1540.5 1450,-1461.5 978,-1461.5"/>
<polygon fill="none" stroke="black" points="989,-1514.75 989,-1533.5 1439,-1533.5 1439,-1514.75 989,-1514.75"/>
<text text-anchor="start" x="1196" y="-1522" font-family="Courier New" font-weight="bold" font-size="10.00">SID_ID</text>
<polygon fill="none" stroke="black" points="989,-1468.5 989,-1512.75 1439,-1512.75 1439,-1468.5 989,-1468.5"/>
<text text-anchor="start" x="992" y="-1500.25" font-family="Courier New" font-size="10.00" fill="green">VIEW::IDV_ID @pos(x:0, y:0, h:101, w:171)</text>
<text text-anchor="start" x="992" y="-1487.5" font-family="Courier New" font-size="10.00" fill="green">SID_ID::M_ID(&#39;&#39;,&#39;&#39;,&#39;0&#39;,&#39;SID_AURA&#39;,&#39;&#39;,&#39;&#39;)</text>
<text text-anchor="start" x="992" y="-1474.75" font-family="Courier New" font-size="10.00" fill="green">{state:&#39;sitting&#39;: wParm:F1 wSprite:IDS_FID1HAPPY bFrame:0 Top:0 Left:0 Z:0</text>
<polygon fill="none" stroke="black" points="986,-1465.5 986,-1536.5 1442,-1536.5 1442,-1465.5 986,-1465.5"/>
</g>
</g>
</svg>
