<?xml version="1.0" encoding="UTF-8" standalone="no"?>
<!DOCTYPE svg PUBLIC "-//W3C//DTD SVG 1.1//EN"
 "http://www.w3.org/Graphics/SVG/1.1/DTD/svg11.dtd">
<!-- Generated by graphviz version 10.0.1 (20240210.2158)
 -->
<!-- Title: Automaton Pages: 1 -->
<svg width="2458pt" height="1913pt"
 viewBox="0.00 0.00 2458.00 1912.50" xmlns="http://www.w3.org/2000/svg" xmlns:xlink="http://www.w3.org/1999/xlink">
<g id="graph0" class="graph" transform="scale(1 1) rotate(0) translate(4 1908.5)">
<title>Automaton</title>
<polygon fill="white" stroke="none" points="-4,4 -4,-1908.5 2454,-1908.5 2454,4 -4,4"/>
<!-- filename -->
<g id="node1" class="node">
<title>filename</title>
<polygon fill="none" stroke="black" points="1770,-1837.75 1770,-1891.25 1888,-1891.25 1888,-1837.75 1770,-1837.75"/>
<polygon fill="none" stroke="black" points="1781,-1865.5 1781,-1884.25 1877,-1884.25 1877,-1865.5 1781,-1865.5"/>
<text text-anchor="start" x="1793" y="-1872.75" font-family="Courier New" font-weight="bold" font-size="10.00">SID_ID::M_ID</text>
<polygon fill="none" stroke="black" points="1781,-1844.75 1781,-1863.5 1877,-1863.5 1877,-1844.75 1781,-1844.75"/>
<text text-anchor="start" x="1784" y="-1851" font-family="Courier New" font-size="10.00" fill="brown">start state = 0</text>
<polygon fill="none" stroke="black" points="1778,-1841.75 1778,-1887.25 1880,-1887.25 1880,-1841.75 1778,-1841.75"/>
</g>
<!-- 0 -->
<g id="node2" class="node">
<title>0</title>
<polyline fill="none" stroke="darkred" points="1925.88,-1853.25 1940.12,-1853.25"/>
<text text-anchor="start" x="1928.88" y="-1860.45" font-family="Courier New" font-weight="bold" font-size="14.00">0</text>
<path fill="none" stroke="darkred" d="M1929.62,-1850.25C1929.62,-1850.25 1936.38,-1850.25 1936.38,-1850.25 1939.75,-1850.25 1943.12,-1853.62 1943.12,-1857 1943.12,-1857 1943.12,-1872 1943.12,-1872 1943.12,-1875.38 1939.75,-1878.75 1936.38,-1878.75 1936.38,-1878.75 1929.62,-1878.75 1929.62,-1878.75 1926.25,-1878.75 1922.88,-1875.38 1922.88,-1872 1922.88,-1872 1922.88,-1857 1922.88,-1857 1922.88,-1853.62 1926.25,-1850.25 1929.62,-1850.25"/>
</g>
<!-- present -->
<g id="node3" class="node">
<title>present</title>
<polyline fill="none" stroke="darkred" points="1286.12,-1637 1349.88,-1637"/>
<text text-anchor="start" x="1289.12" y="-1644.2" font-family="Courier New" font-weight="bold" font-size="14.00">present</text>
<path fill="none" stroke="darkred" d="M1292.62,-1634C1292.62,-1634 1343.38,-1634 1343.38,-1634 1348.12,-1634 1352.88,-1638.75 1352.88,-1643.5 1352.88,-1643.5 1352.88,-1653 1352.88,-1653 1352.88,-1657.75 1348.12,-1662.5 1343.38,-1662.5 1343.38,-1662.5 1292.62,-1662.5 1292.62,-1662.5 1287.88,-1662.5 1283.12,-1657.75 1283.12,-1653 1283.12,-1653 1283.12,-1643.5 1283.12,-1643.5 1283.12,-1638.75 1287.88,-1634 1292.62,-1634"/>
</g>
<!-- 0&#45;&gt;present -->
<g id="edge1" class="edge">
<title>0&#45;&gt;present</title>
<path fill="none" stroke="black" d="M1922.14,-1846.47C1915.88,-1838.24 1907.23,-1829.17 1897,-1824.5 1867.77,-1811.16 1341.43,-1829.5 1319,-1806.5 1285.94,-1772.61 1297.21,-1712.49 1307.92,-1677.22"/>
<polygon fill="black" stroke="black" points="1311.24,-1678.31 1311,-1667.72 1304.59,-1676.15 1311.24,-1678.31"/>
<polygon fill="none" stroke="black" points="1322,-1784.75 1322,-1803.5 1916,-1803.5 1916,-1784.75 1322,-1784.75"/>
<text text-anchor="start" x="1571" y="-1792" font-family="Courier New" font-weight="bold" font-size="10.00" fill="orange">WAIT(0,SIG_MYID)</text>
<polygon fill="none" stroke="black" points="1322,-1687.5 1322,-1782.75 1916,-1782.75 1916,-1687.5 1322,-1687.5"/>
<text text-anchor="start" x="1325" y="-1770.25" font-family="Courier New" font-size="10.00" fill="blue"> &#160;&#160;&#160;&#160;CLEAR(WSPRITE);</text>
<text text-anchor="start" x="1325" y="-1757.5" font-family="Courier New" font-size="10.00" fill="blue"> &#160;&#160;&#160;&#160;SHOW(0);</text>
<text text-anchor="start" x="1325" y="-1744.75" font-family="Courier New" font-size="10.00" fill="blue"> &#160;&#160;&#160;&#160;predicate active_character(name);</text>
<text text-anchor="start" x="1325" y="-1732" font-family="Courier New" font-size="10.00" fill="blue"> &#160;&#160;&#160;&#160;active_character(?WPARM)?</text>
<text text-anchor="start" x="1325" y="-1719.25" font-family="Courier New" font-size="10.00" fill="blue"> &#160;&#160;&#160;&#160;predicate localplayer(name,viewname, wealth,karma, energy,strength, wisdom, gender, culture);</text>
<text text-anchor="start" x="1325" y="-1706.5" font-family="Courier New" font-size="10.00" fill="blue"> &#160;&#160;&#160;&#160;localplayer(WPARM, ?WTEMP1, ?LWEALTH, ?LKARMA,?WTEMP3,?LSTRENGTH, ?LWISDOM, ?LSEX, ?WTEMP2)?</text>
<text text-anchor="start" x="1325" y="-1693.75" font-family="Courier New" font-size="10.00" fill="blue"> &#160;&#160;&#160;&#160;ASSIGN(LENERGY,WTEMP3);</text>
<polygon fill="none" stroke="black" points="1319,-1684.5 1319,-1806.5 1919,-1806.5 1919,-1684.5 1319,-1684.5"/>
</g>
<!-- setId -->
<g id="node22" class="node">
<title>setId</title>
<polyline fill="none" stroke="darkred" points="704.38,-1214.88 751.62,-1214.88"/>
<text text-anchor="start" x="707.38" y="-1222.08" font-family="Courier New" font-weight="bold" font-size="14.00">setId</text>
<path fill="none" stroke="darkred" d="M710.88,-1211.88C710.88,-1211.88 745.12,-1211.88 745.12,-1211.88 749.88,-1211.88 754.62,-1216.62 754.62,-1221.38 754.62,-1221.38 754.62,-1230.88 754.62,-1230.88 754.62,-1235.62 749.88,-1240.38 745.12,-1240.38 745.12,-1240.38 710.88,-1240.38 710.88,-1240.38 706.12,-1240.38 701.38,-1235.62 701.38,-1230.88 701.38,-1230.88 701.38,-1221.38 701.38,-1221.38 701.38,-1216.62 706.12,-1211.88 710.88,-1211.88"/>
</g>
<!-- present&#45;&gt;setId -->
<g id="edge21" class="edge">
<title>present&#45;&gt;setId</title>
<path fill="none" stroke="black" d="M1275.21,-1646.69C1127.03,-1644.55 643.61,-1635.78 621,-1612 528.98,-1515.21 562.72,-1431.67 621,-1311.5 634.1,-1284.49 660.49,-1263.53 683.79,-1249.26"/>
<polygon fill="black" stroke="black" points="685.37,-1252.39 692.23,-1244.31 681.83,-1246.35 685.37,-1252.39"/>
<polygon fill="none" stroke="black" points="624,-1590.25 624,-1609 1056,-1609 1056,-1590.25 624,-1590.25"/>
<text text-anchor="start" x="804" y="-1597.5" font-family="Courier New" font-weight="bold" font-size="10.00" fill="blue">Z_EPSILON(,)</text>
<polygon fill="none" stroke="black" points="624,-1314.5 624,-1588.25 1056,-1588.25 1056,-1314.5 624,-1314.5"/>
<text text-anchor="start" x="627" y="-1575.75" font-family="Courier New" font-size="10.00" fill="blue"> &#160;&#160;&#160;&#160;&#160;&#160;</text>
<text text-anchor="start" x="627" y="-1563" font-family="Courier New" font-size="10.00" fill="blue"> &#160;//for back to back {statements} do not use semi&#45;colons between them, </text>
<text text-anchor="start" x="627" y="-1550.25" font-family="Courier New" font-size="10.00" fill="blue"> &#160;//only at the end of the code segment!</text>
<text text-anchor="start" x="627" y="-1537.5" font-family="Courier New" font-size="10.00" fill="blue"> &#160;if(LSEX == 1){</text>
<text text-anchor="start" x="627" y="-1524.75" font-family="Courier New" font-size="10.00" fill="blue"> &#160;&#160;&#160;WPARM = F1;</text>
<text text-anchor="start" x="627" y="-1512" font-family="Courier New" font-size="10.00" fill="blue"> &#160;&#160;&#160;&#160;if(LWISDOM &gt;= 30){</text>
<text text-anchor="start" x="627" y="-1499.25" font-family="Courier New" font-size="10.00" fill="blue"> &#160;&#160;&#160;&#160;&#160;&#160;WPARM = F3;</text>
<text text-anchor="start" x="627" y="-1486.5" font-family="Courier New" font-size="10.00" fill="blue"> &#160;&#160;&#160;}</text>
<text text-anchor="start" x="627" y="-1473.75" font-family="Courier New" font-size="10.00" fill="blue"> &#160;&#160;&#160;&#160;if(LWISDOM &gt;= 20 &amp;&amp; LWISDOM &lt; 30){</text>
<text text-anchor="start" x="627" y="-1461" font-family="Courier New" font-size="10.00" fill="blue"> &#160;&#160;&#160;&#160;&#160;&#160;WPARM = F2;</text>
<text text-anchor="start" x="627" y="-1448.25" font-family="Courier New" font-size="10.00" fill="blue"> &#160;&#160;&#160;}</text>
<text text-anchor="start" x="627" y="-1435.5" font-family="Courier New" font-size="10.00" fill="blue"> &#160;}</text>
<text text-anchor="start" x="627" y="-1422.75" font-family="Courier New" font-size="10.00" fill="blue"> &#160;if(LSEX == 0){</text>
<text text-anchor="start" x="627" y="-1410" font-family="Courier New" font-size="10.00" fill="blue"> &#160;&#160;&#160;WPARM = M1;</text>
<text text-anchor="start" x="627" y="-1397.25" font-family="Courier New" font-size="10.00" fill="blue"> &#160;&#160;&#160;&#160;&#160;if(LWISDOM &gt;= 30){</text>
<text text-anchor="start" x="627" y="-1384.5" font-family="Courier New" font-size="10.00" fill="blue"> &#160;&#160;&#160;&#160;&#160;&#160;WPARM = M3;</text>
<text text-anchor="start" x="627" y="-1371.75" font-family="Courier New" font-size="10.00" fill="blue"> &#160;&#160;&#160;}</text>
<text text-anchor="start" x="627" y="-1359" font-family="Courier New" font-size="10.00" fill="blue"> &#160;&#160;&#160;if(LWISDOM &gt;= 20 &amp;&amp; LWISDOM &lt; 30){</text>
<text text-anchor="start" x="627" y="-1346.25" font-family="Courier New" font-size="10.00" fill="blue"> &#160;&#160;&#160;&#160;&#160;&#160;&#160;WPARM = M2;</text>
<text text-anchor="start" x="627" y="-1333.5" font-family="Courier New" font-size="10.00" fill="blue"> &#160;&#160;&#160;}</text>
<text text-anchor="start" x="627" y="-1320.75" font-family="Courier New" font-size="10.00" fill="blue"> &#160;}; </text>
<polygon fill="none" stroke="black" points="621,-1311.5 621,-1612 1059,-1612 1059,-1311.5 621,-1311.5"/>
</g>
<!-- 100 -->
<g id="node4" class="node">
<title>100</title>
<polyline fill="none" stroke="darkred" points="1622.62,-840.75 1653.38,-840.75"/>
<text text-anchor="start" x="1625.62" y="-847.95" font-family="Courier New" font-weight="bold" font-size="14.00">100</text>
<path fill="none" stroke="darkred" d="M1629.12,-837.75C1629.12,-837.75 1646.88,-837.75 1646.88,-837.75 1651.62,-837.75 1656.38,-842.5 1656.38,-847.25 1656.38,-847.25 1656.38,-856.75 1656.38,-856.75 1656.38,-861.5 1651.62,-866.25 1646.88,-866.25 1646.88,-866.25 1629.12,-866.25 1629.12,-866.25 1624.38,-866.25 1619.62,-861.5 1619.62,-856.75 1619.62,-856.75 1619.62,-847.25 1619.62,-847.25 1619.62,-842.5 1624.38,-837.75 1629.12,-837.75"/>
</g>
<!-- empty -->
<g id="node5" class="node">
<title>empty</title>
<polyline fill="none" stroke="darkred" points="1934.38,-656.38 1981.62,-656.38"/>
<text text-anchor="start" x="1937.38" y="-663.58" font-family="Courier New" font-weight="bold" font-size="14.00">empty</text>
<path fill="none" stroke="darkred" d="M1940.88,-653.38C1940.88,-653.38 1975.12,-653.38 1975.12,-653.38 1979.88,-653.38 1984.62,-658.12 1984.62,-662.88 1984.62,-662.88 1984.62,-672.38 1984.62,-672.38 1984.62,-677.12 1979.88,-681.88 1975.12,-681.88 1975.12,-681.88 1940.88,-681.88 1940.88,-681.88 1936.12,-681.88 1931.38,-677.12 1931.38,-672.38 1931.38,-672.38 1931.38,-662.88 1931.38,-662.88 1931.38,-658.12 1936.12,-653.38 1940.88,-653.38"/>
</g>
<!-- 100&#45;&gt;empty -->
<g id="edge2" class="edge">
<title>100&#45;&gt;empty</title>
<path fill="none" stroke="black" d="M1647.14,-833.85C1662.96,-806.1 1698.27,-752.01 1745,-727.5 1809.94,-693.44 1841.53,-738.21 1909,-709.5 1918.09,-705.63 1926.78,-699.51 1934.26,-693.16"/>
<polygon fill="black" stroke="black" points="1936.27,-696.07 1941.31,-686.75 1931.56,-690.89 1936.27,-696.07"/>
<polygon fill="none" stroke="black" points="1748,-776.75 1748,-795.5 1916,-795.5 1916,-776.75 1748,-776.75"/>
<text text-anchor="start" x="1796" y="-784" font-family="Courier New" font-weight="bold" font-size="10.00" fill="blue">Z_EPSILON(,)</text>
<polygon fill="none" stroke="black" points="1748,-730.5 1748,-774.75 1916,-774.75 1916,-730.5 1748,-730.5"/>
<text text-anchor="start" x="1751" y="-762.25" font-family="Courier New" font-size="10.00" fill="blue"> &#160;&#160;&#160;SHOW(0);</text>
<text text-anchor="start" x="1751" y="-749.5" font-family="Courier New" font-size="10.00" fill="blue"> &#160;&#160;&#160;SIGNAL(WIP3,SIG_CLEAR);</text>
<text text-anchor="start" x="1751" y="-736.75" font-family="Courier New" font-size="10.00" fill="blue"> &#160;&#160;&#160;SIGNAL(WIP4,SIG_CLEAR);</text>
<polygon fill="none" stroke="black" points="1745,-727.5 1745,-798.5 1919,-798.5 1919,-727.5 1745,-727.5"/>
</g>
<!-- empty&#45;&gt;0 -->
<g id="edge16" class="edge">
<title>empty&#45;&gt;0</title>
<path fill="none" stroke="black" d="M1954.04,-685.87C1946.99,-718.11 1933,-789.8 1933,-851 1933,-1649.25 1933,-1649.25 1933,-1649.25 1933,-1715.8 1933,-1793.98 1933,-1835.02"/>
<polygon fill="black" stroke="black" points="1929.5,-1834.77 1933,-1844.77 1936.5,-1834.77 1929.5,-1834.77"/>
<text text-anchor="start" x="1937" y="-1084" font-family="Courier New" font-weight="bold" font-size="10.00" fill="orange">WAIT(,SIG_SHOW)</text>
</g>
<!-- 20 -->
<g id="node6" class="node">
<title>20</title>
<polyline fill="none" stroke="darkred" points="753.75,-561 776.25,-561"/>
<text text-anchor="start" x="756.75" y="-568.2" font-family="Courier New" font-weight="bold" font-size="14.00">20</text>
<path fill="none" stroke="darkred" d="M760.25,-558C760.25,-558 769.75,-558 769.75,-558 774.5,-558 779.25,-562.75 779.25,-567.5 779.25,-567.5 779.25,-577 779.25,-577 779.25,-581.75 774.5,-586.5 769.75,-586.5 769.75,-586.5 760.25,-586.5 760.25,-586.5 755.5,-586.5 750.75,-581.75 750.75,-577 750.75,-577 750.75,-567.5 750.75,-567.5 750.75,-562.75 755.5,-558 760.25,-558"/>
</g>
<!-- playForward -->
<g id="node7" class="node">
<title>playForward</title>
<polyline fill="none" stroke="darkred" points="940.62,-396 1037.38,-396"/>
<text text-anchor="start" x="943.62" y="-403.2" font-family="Courier New" font-weight="bold" font-size="14.00">playForward</text>
<path fill="none" stroke="darkred" d="M947.12,-393C947.12,-393 1030.88,-393 1030.88,-393 1035.62,-393 1040.38,-397.75 1040.38,-402.5 1040.38,-402.5 1040.38,-412 1040.38,-412 1040.38,-416.75 1035.62,-421.5 1030.88,-421.5 1030.88,-421.5 947.12,-421.5 947.12,-421.5 942.38,-421.5 937.62,-416.75 937.62,-412 937.62,-412 937.62,-402.5 937.62,-402.5 937.62,-397.75 942.38,-393 947.12,-393"/>
</g>
<!-- 20&#45;&gt;playForward -->
<g id="edge3" class="edge">
<title>20&#45;&gt;playForward</title>
<path fill="none" stroke="black" d="M760.68,-554.29C756.86,-535.7 753.37,-505.43 764,-482.25 775,-458.26 785.26,-455.03 809,-443.5 842.97,-427 884.1,-418.22 918.46,-413.55"/>
<polygon fill="black" stroke="black" points="918.84,-417.03 928.33,-412.31 917.97,-410.09 918.84,-417.03"/>
<text text-anchor="start" x="768" y="-498.38" font-family="Courier New" font-weight="bold" font-size="10.00" fill="blue">ASSIGN(WSPRITE,happy)</text>
</g>
<!-- playDead -->
<g id="node17" class="node">
<title>playDead</title>
<polyline fill="none" stroke="darkred" points="1513,-239.75 1585,-239.75"/>
<text text-anchor="start" x="1516" y="-246.95" font-family="Courier New" font-weight="bold" font-size="14.00">playDead</text>
<path fill="none" stroke="darkred" d="M1519.5,-236.75C1519.5,-236.75 1578.5,-236.75 1578.5,-236.75 1583.25,-236.75 1588,-241.5 1588,-246.25 1588,-246.25 1588,-255.75 1588,-255.75 1588,-260.5 1583.25,-265.25 1578.5,-265.25 1578.5,-265.25 1519.5,-265.25 1519.5,-265.25 1514.75,-265.25 1510,-260.5 1510,-255.75 1510,-255.75 1510,-246.25 1510,-246.25 1510,-241.5 1514.75,-236.75 1519.5,-236.75"/>
</g>
<!-- playForward&#45;&gt;playDead -->
<g id="edge18" class="edge">
<title>playForward&#45;&gt;playDead</title>
<path fill="none" stroke="black" d="M1015.79,-389.02C1058.82,-362.26 1146.88,-311.31 1229,-287.25 1317.93,-261.2 1425.89,-254.1 1490.93,-252.34"/>
<polygon fill="black" stroke="black" points="1490.74,-255.85 1500.66,-252.11 1490.58,-248.85 1490.74,-255.85"/>
<polygon fill="none" stroke="black" points="1232,-349.25 1232,-368 1532,-368 1532,-349.25 1232,-349.25"/>
<text text-anchor="start" x="1331" y="-356.5" font-family="Courier New" font-weight="bold" font-size="10.00" fill="blue">EQUALi(LENERGY,0)</text>
<polygon fill="none" stroke="black" points="1232,-290.25 1232,-347.25 1532,-347.25 1532,-290.25 1232,-290.25"/>
<text text-anchor="start" x="1235" y="-334.75" font-family="Courier New" font-size="10.00" fill="blue"> &#160;&#160;&#160;ASSIGN(WSPRITE, dead);</text>
<text text-anchor="start" x="1235" y="-322" font-family="Courier New" font-size="10.00" fill="blue"> &#160;&#160;&#160;MAP(WSPRITE,WPARM);</text>
<text text-anchor="start" x="1235" y="-309.25" font-family="Courier New" font-size="10.00" fill="blue"> &#160;&#160;&#160;SHOW(WSPRITE);</text>
<text text-anchor="start" x="1235" y="-296.5" font-family="Courier New" font-size="10.00" fill="blue"> &#160;&#160;&#160;ANIMATE(0,V_REWIND); //PLAY FORWARD THEN BACK</text>
<polygon fill="none" stroke="black" points="1229,-287.25 1229,-371 1535,-371 1535,-287.25 1229,-287.25"/>
</g>
<!-- sitting -->
<g id="node21" class="node">
<title>sitting</title>
<polyline fill="none" stroke="darkred" stroke-width="3" points="1024.62,-979.5 1089.38,-979.5"/>
<text text-anchor="start" x="1028.12" y="-987.2" font-family="Courier New" font-weight="bold" font-size="14.00">sitting</text>
<path fill="none" stroke="darkred" stroke-width="3" d="M1030.79,-974.5C1030.79,-974.5 1083.21,-974.5 1083.21,-974.5 1088.79,-974.5 1094.38,-980.08 1094.38,-985.67 1094.38,-985.67 1094.38,-996.83 1094.38,-996.83 1094.38,-1002.42 1088.79,-1008 1083.21,-1008 1083.21,-1008 1030.79,-1008 1030.79,-1008 1025.21,-1008 1019.62,-1002.42 1019.62,-996.83 1019.62,-996.83 1019.62,-985.67 1019.62,-985.67 1019.62,-980.08 1025.21,-974.5 1030.79,-974.5"/>
</g>
<!-- playForward&#45;&gt;sitting -->
<g id="edge19" class="edge">
<title>playForward&#45;&gt;sitting</title>
<path fill="none" stroke="black" d="M988.47,-425.45C987.37,-462.21 984.86,-551.16 984,-625.75 983.57,-662.97 960.43,-680.69 984,-709.5 1009.55,-740.74 1047.45,-696.26 1073,-727.5 1127.55,-794.18 1093.08,-905.14 1071.12,-959"/>
<polygon fill="black" stroke="black" points="1068.03,-957.32 1067.38,-967.89 1074.49,-960.03 1068.03,-957.32"/>
<polygon fill="none" stroke="black" points="987,-687.75 987,-706.5 1287,-706.5 1287,-687.75 987,-687.75"/>
<text text-anchor="start" x="1083" y="-695" font-family="Courier New" font-weight="bold" font-size="10.00" fill="blue">NEQUALi(LENERGY,0)</text>
<polygon fill="none" stroke="black" points="987,-628.75 987,-685.75 1287,-685.75 1287,-628.75 987,-628.75"/>
<text text-anchor="start" x="990" y="-673.25" font-family="Courier New" font-size="10.00" fill="blue"> &#160;&#160;&#160;ASSIGN(BFRAME, 0);</text>
<text text-anchor="start" x="990" y="-660.5" font-family="Courier New" font-size="10.00" fill="blue"> &#160;&#160;&#160;MAP(WSPRITE,WPARM);</text>
<text text-anchor="start" x="990" y="-647.75" font-family="Courier New" font-size="10.00" fill="blue"> &#160;&#160;&#160;SHOW(WSPRITE);</text>
<text text-anchor="start" x="990" y="-635" font-family="Courier New" font-size="10.00" fill="blue"> &#160;&#160;&#160;ANIMATE(0,V_REWIND); //PLAY FORWARD THEN BACK</text>
<polygon fill="none" stroke="black" points="984,-625.75 984,-709.5 1290,-709.5 1290,-625.75 984,-625.75"/>
</g>
<!-- 21 -->
<g id="node8" class="node">
<title>21</title>
<polyline fill="none" stroke="darkred" points="456.75,-489.25 479.25,-489.25"/>
<text text-anchor="start" x="459.75" y="-496.45" font-family="Courier New" font-weight="bold" font-size="14.00">21</text>
<path fill="none" stroke="darkred" d="M463.25,-486.25C463.25,-486.25 472.75,-486.25 472.75,-486.25 477.5,-486.25 482.25,-491 482.25,-495.75 482.25,-495.75 482.25,-505.25 482.25,-505.25 482.25,-510 477.5,-514.75 472.75,-514.75 472.75,-514.75 463.25,-514.75 463.25,-514.75 458.5,-514.75 453.75,-510 453.75,-505.25 453.75,-505.25 453.75,-495.75 453.75,-495.75 453.75,-491 458.5,-486.25 463.25,-486.25"/>
</g>
<!-- 21&#45;&gt;playForward -->
<g id="edge4" class="edge">
<title>21&#45;&gt;playForward</title>
<path fill="none" stroke="black" d="M462.81,-482.29C460.23,-469.87 459.42,-453.57 469,-443.5 499.3,-411.65 783.26,-407.84 918.3,-407.86"/>
<polygon fill="black" stroke="black" points="918.2,-411.36 928.2,-407.87 918.2,-404.36 918.2,-411.36"/>
<text text-anchor="start" x="473" y="-451.75" font-family="Courier New" font-weight="bold" font-size="10.00" fill="blue">ASSIGN(WSPRITE,hurt)</text>
</g>
<!-- 22 -->
<g id="node9" class="node">
<title>22</title>
<polyline fill="none" stroke="darkred" points="796.75,-840.75 819.25,-840.75"/>
<text text-anchor="start" x="799.75" y="-847.95" font-family="Courier New" font-weight="bold" font-size="14.00">22</text>
<path fill="none" stroke="darkred" d="M803.25,-837.75C803.25,-837.75 812.75,-837.75 812.75,-837.75 817.5,-837.75 822.25,-842.5 822.25,-847.25 822.25,-847.25 822.25,-856.75 822.25,-856.75 822.25,-861.5 817.5,-866.25 812.75,-866.25 812.75,-866.25 803.25,-866.25 803.25,-866.25 798.5,-866.25 793.75,-861.5 793.75,-856.75 793.75,-856.75 793.75,-847.25 793.75,-847.25 793.75,-842.5 798.5,-837.75 803.25,-837.75"/>
</g>
<!-- playOnce -->
<g id="node10" class="node">
<title>playOnce</title>
<polyline fill="none" stroke="darkred" points="759,-656.38 831,-656.38"/>
<text text-anchor="start" x="762" y="-663.58" font-family="Courier New" font-weight="bold" font-size="14.00">playOnce</text>
<path fill="none" stroke="darkred" d="M765.5,-653.38C765.5,-653.38 824.5,-653.38 824.5,-653.38 829.25,-653.38 834,-658.12 834,-662.88 834,-662.88 834,-672.38 834,-672.38 834,-677.12 829.25,-681.88 824.5,-681.88 824.5,-681.88 765.5,-681.88 765.5,-681.88 760.75,-681.88 756,-677.12 756,-672.38 756,-672.38 756,-662.88 756,-662.88 756,-658.12 760.75,-653.38 765.5,-653.38"/>
</g>
<!-- 22&#45;&gt;playOnce -->
<g id="edge5" class="edge">
<title>22&#45;&gt;playOnce</title>
<path fill="none" stroke="black" d="M789.6,-833.78C782.8,-827.89 774.83,-821.53 767,-816.5 751.28,-806.4 738.99,-814.29 729,-798.5 712.13,-771.84 716.1,-756.3 729,-727.5 735.09,-713.9 746.05,-702.15 757.31,-692.8"/>
<polygon fill="black" stroke="black" points="759.36,-695.64 765.12,-686.76 755.07,-690.11 759.36,-695.64"/>
<text text-anchor="start" x="733" y="-760.88" font-family="Courier New" font-weight="bold" font-size="10.00" fill="blue">ASSIGN(WSPRITE,kiss)</text>
</g>
<!-- playOnce&#45;&gt;sitting -->
<g id="edge20" class="edge">
<title>playOnce&#45;&gt;sitting</title>
<path fill="none" stroke="black" d="M819.58,-685.75C832.76,-696.27 848.09,-710.89 857,-727.5 891.12,-791.12 844.07,-828.03 885,-887.5 912.49,-927.44 961.04,-954.35 999.56,-970.58"/>
<polygon fill="black" stroke="black" points="998.15,-973.78 1008.73,-974.3 1000.79,-967.3 998.15,-973.78"/>
<polygon fill="none" stroke="black" points="888,-865.75 888,-884.5 1032,-884.5 1032,-865.75 888,-865.75"/>
<text text-anchor="start" x="912" y="-873" font-family="Courier New" font-weight="bold" font-size="10.00" fill="blue">ASSIGN(BFRAME,0)</text>
<polygon fill="none" stroke="black" points="888,-819.5 888,-863.75 1032,-863.75 1032,-819.5 888,-819.5"/>
<text text-anchor="start" x="891" y="-851.25" font-family="Courier New" font-size="10.00" fill="blue"> &#160;&#160;&#160;MAP(WSPRITE,WPARM);</text>
<text text-anchor="start" x="891" y="-838.5" font-family="Courier New" font-size="10.00" fill="blue"> &#160;&#160;&#160;SHOW(0,WSPRITE);</text>
<text text-anchor="start" x="891" y="-825.75" font-family="Courier New" font-size="10.00" fill="blue"> &#160;&#160;&#160;ANIMATE(0,0);</text>
<polygon fill="none" stroke="black" points="885,-816.5 885,-887.5 1035,-887.5 1035,-816.5 885,-816.5"/>
</g>
<!-- 23 -->
<g id="node11" class="node">
<title>23</title>
<polyline fill="none" stroke="darkred" points="599.75,-751.75 622.25,-751.75"/>
<text text-anchor="start" x="602.75" y="-758.95" font-family="Courier New" font-weight="bold" font-size="14.00">23</text>
<path fill="none" stroke="darkred" d="M606.25,-748.75C606.25,-748.75 615.75,-748.75 615.75,-748.75 620.5,-748.75 625.25,-753.5 625.25,-758.25 625.25,-758.25 625.25,-767.75 625.25,-767.75 625.25,-772.5 620.5,-777.25 615.75,-777.25 615.75,-777.25 606.25,-777.25 606.25,-777.25 601.5,-777.25 596.75,-772.5 596.75,-767.75 596.75,-767.75 596.75,-758.25 596.75,-758.25 596.75,-753.5 601.5,-748.75 606.25,-748.75"/>
</g>
<!-- 23&#45;&gt;playForward -->
<g id="edge6" class="edge">
<title>23&#45;&gt;playForward</title>
<path fill="none" stroke="black" d="M605.13,-744.98C592.57,-705.28 567.28,-604.82 607,-536.75 649.45,-464 692.52,-471.41 772,-443.5 819.44,-426.84 875.51,-417.99 918.77,-413.33"/>
<polygon fill="black" stroke="black" points="918.95,-416.83 928.55,-412.33 918.24,-409.86 918.95,-416.83"/>
<text text-anchor="start" x="611" y="-570.12" font-family="Courier New" font-weight="bold" font-size="10.00" fill="blue">ASSIGN(WSPRITE,mad)</text>
</g>
<!-- 24 -->
<g id="node12" class="node">
<title>24</title>
<polyline fill="none" stroke="darkred" points="1104.75,-561 1127.25,-561"/>
<text text-anchor="start" x="1107.75" y="-568.2" font-family="Courier New" font-weight="bold" font-size="14.00">24</text>
<path fill="none" stroke="darkred" d="M1111.25,-558C1111.25,-558 1120.75,-558 1120.75,-558 1125.5,-558 1130.25,-562.75 1130.25,-567.5 1130.25,-567.5 1130.25,-577 1130.25,-577 1130.25,-581.75 1125.5,-586.5 1120.75,-586.5 1120.75,-586.5 1111.25,-586.5 1111.25,-586.5 1106.5,-586.5 1101.75,-581.75 1101.75,-577 1101.75,-577 1101.75,-567.5 1101.75,-567.5 1101.75,-562.75 1106.5,-558 1111.25,-558"/>
</g>
<!-- 24&#45;&gt;playForward -->
<g id="edge7" class="edge">
<title>24&#45;&gt;playForward</title>
<path fill="none" stroke="black" d="M1102.65,-554.11C1080.3,-525.42 1035.18,-467.52 1009.01,-433.94"/>
<polygon fill="black" stroke="black" points="1012.01,-432.09 1003.1,-426.35 1006.49,-436.39 1012.01,-432.09"/>
<text text-anchor="start" x="1078" y="-498.38" font-family="Courier New" font-weight="bold" font-size="10.00" fill="blue">ASSIGN(WSPRITE,sad)</text>
</g>
<!-- 25 -->
<g id="node13" class="node">
<title>25</title>
<polyline fill="none" stroke="darkred" points="922.75,-489.25 945.25,-489.25"/>
<text text-anchor="start" x="925.75" y="-496.45" font-family="Courier New" font-weight="bold" font-size="14.00">25</text>
<path fill="none" stroke="darkred" d="M929.25,-486.25C929.25,-486.25 938.75,-486.25 938.75,-486.25 943.5,-486.25 948.25,-491 948.25,-495.75 948.25,-495.75 948.25,-505.25 948.25,-505.25 948.25,-510 943.5,-514.75 938.75,-514.75 938.75,-514.75 929.25,-514.75 929.25,-514.75 924.5,-514.75 919.75,-510 919.75,-505.25 919.75,-505.25 919.75,-495.75 919.75,-495.75 919.75,-491 924.5,-486.25 929.25,-486.25"/>
</g>
<!-- 25&#45;&gt;playForward -->
<g id="edge8" class="edge">
<title>25&#45;&gt;playForward</title>
<path fill="none" stroke="black" d="M907.34,-487.53C902.61,-485.63 897.7,-483.78 893,-482.25 860,-471.48 838.53,-491.48 817,-464.25 811.28,-457.02 811.17,-450.65 817,-443.5 829.97,-427.6 876.89,-418.67 918.44,-413.78"/>
<polygon fill="black" stroke="black" points="918.65,-417.28 928.21,-412.7 917.88,-410.32 918.65,-417.28"/>
<text text-anchor="start" x="821" y="-451.75" font-family="Courier New" font-weight="bold" font-size="10.00" fill="blue">ASSIGN(WSPRITE,surprised)</text>
</g>
<!-- 26 -->
<g id="node14" class="node">
<title>26</title>
<polyline fill="none" stroke="darkred" points="1431.75,-751.75 1454.25,-751.75"/>
<text text-anchor="start" x="1434.75" y="-758.95" font-family="Courier New" font-weight="bold" font-size="14.00">26</text>
<path fill="none" stroke="darkred" d="M1438.25,-748.75C1438.25,-748.75 1447.75,-748.75 1447.75,-748.75 1452.5,-748.75 1457.25,-753.5 1457.25,-758.25 1457.25,-758.25 1457.25,-767.75 1457.25,-767.75 1457.25,-772.5 1452.5,-777.25 1447.75,-777.25 1447.75,-777.25 1438.25,-777.25 1438.25,-777.25 1433.5,-777.25 1428.75,-772.5 1428.75,-767.75 1428.75,-767.75 1428.75,-758.25 1428.75,-758.25 1428.75,-753.5 1433.5,-748.75 1438.25,-748.75"/>
</g>
<!-- 26&#45;&gt;playForward -->
<g id="edge9" class="edge">
<title>26&#45;&gt;playForward</title>
<path fill="none" stroke="black" d="M1436.82,-745.11C1426.73,-716.98 1406.69,-658.59 1395,-607.75 1388.68,-580.26 1395.56,-502.58 1376,-482.25 1333.29,-437.85 1159.1,-419.3 1059.59,-412.2"/>
<polygon fill="black" stroke="black" points="1059.86,-408.71 1049.64,-411.51 1059.38,-415.69 1059.86,-408.71"/>
<text text-anchor="start" x="1399" y="-570.12" font-family="Courier New" font-weight="bold" font-size="10.00" fill="blue">ASSIGN(WSPRITE,stress)</text>
</g>
<!-- 27 -->
<g id="node15" class="node">
<title>27</title>
<polyline fill="none" stroke="darkred" points="1276.75,-561 1299.25,-561"/>
<text text-anchor="start" x="1279.75" y="-568.2" font-family="Courier New" font-weight="bold" font-size="14.00">27</text>
<path fill="none" stroke="darkred" d="M1283.25,-558C1283.25,-558 1292.75,-558 1292.75,-558 1297.5,-558 1302.25,-562.75 1302.25,-567.5 1302.25,-567.5 1302.25,-577 1302.25,-577 1302.25,-581.75 1297.5,-586.5 1292.75,-586.5 1292.75,-586.5 1283.25,-586.5 1283.25,-586.5 1278.5,-586.5 1273.75,-581.75 1273.75,-577 1273.75,-577 1273.75,-567.5 1273.75,-567.5 1273.75,-562.75 1278.5,-558 1283.25,-558"/>
</g>
<!-- 27&#45;&gt;playForward -->
<g id="edge10" class="edge">
<title>27&#45;&gt;playForward</title>
<path fill="none" stroke="black" d="M1275.17,-554.2C1259.44,-534.38 1231.03,-501.89 1200,-482.25 1156.7,-454.85 1101.95,-436.03 1059.07,-424.23"/>
<polygon fill="black" stroke="black" points="1060.19,-420.9 1049.62,-421.7 1058.37,-427.67 1060.19,-420.9"/>
<text text-anchor="start" x="1248" y="-498.38" font-family="Courier New" font-weight="bold" font-size="10.00" fill="blue">ASSIGN(WSPRITE,wave)</text>
</g>
<!-- 30 -->
<g id="node16" class="node">
<title>30</title>
<polyline fill="none" stroke="darkred" points="1533.75,-751.75 1556.25,-751.75"/>
<text text-anchor="start" x="1536.75" y="-758.95" font-family="Courier New" font-weight="bold" font-size="14.00">30</text>
<path fill="none" stroke="darkred" d="M1540.25,-748.75C1540.25,-748.75 1549.75,-748.75 1549.75,-748.75 1554.5,-748.75 1559.25,-753.5 1559.25,-758.25 1559.25,-758.25 1559.25,-767.75 1559.25,-767.75 1559.25,-772.5 1554.5,-777.25 1549.75,-777.25 1549.75,-777.25 1540.25,-777.25 1540.25,-777.25 1535.5,-777.25 1530.75,-772.5 1530.75,-767.75 1530.75,-767.75 1530.75,-758.25 1530.75,-758.25 1530.75,-753.5 1535.5,-748.75 1540.25,-748.75"/>
</g>
<!-- 30&#45;&gt;playDead -->
<g id="edge11" class="edge">
<title>30&#45;&gt;playDead</title>
<path fill="none" stroke="black" d="M1545.61,-744.83C1546.73,-711.67 1549,-636.51 1549,-573.25 1549,-573.25 1549,-573.25 1549,-406.25 1549,-362.28 1549,-311.25 1549,-280.31"/>
<polygon fill="black" stroke="black" points="1552.5,-280.63 1549,-270.63 1545.5,-280.63 1552.5,-280.63"/>
<text text-anchor="start" x="1553" y="-498.38" font-family="Courier New" font-weight="bold" font-size="10.00" fill="blue">ASSIGN(WSPRITE,dead)</text>
</g>
<!-- dead -->
<g id="node20" class="node">
<title>dead</title>
<polyline fill="none" stroke="darkred" points="1775.5,-7 1814.5,-7"/>
<text text-anchor="start" x="1778.5" y="-14.2" font-family="Courier New" font-weight="bold" font-size="14.00">dead</text>
<path fill="none" stroke="darkred" d="M1782,-4C1782,-4 1808,-4 1808,-4 1812.75,-4 1817.5,-8.75 1817.5,-13.5 1817.5,-13.5 1817.5,-23 1817.5,-23 1817.5,-27.75 1812.75,-32.5 1808,-32.5 1808,-32.5 1782,-32.5 1782,-32.5 1777.25,-32.5 1772.5,-27.75 1772.5,-23 1772.5,-23 1772.5,-13.5 1772.5,-13.5 1772.5,-8.75 1777.25,-4 1782,-4"/>
</g>
<!-- playDead&#45;&gt;dead -->
<g id="edge17" class="edge">
<title>playDead&#45;&gt;dead</title>
<path fill="none" stroke="black" d="M1543.59,-232.97C1532.82,-195.39 1513.44,-104.71 1559,-54.5 1584.31,-26.6 1692.78,-20.55 1753.47,-19.39"/>
<polygon fill="black" stroke="black" points="1753.47,-22.89 1763.42,-19.24 1753.36,-15.89 1753.47,-22.89"/>
<polygon fill="none" stroke="black" points="1562,-193 1562,-211.75 1778,-211.75 1778,-193 1562,-193"/>
<text text-anchor="start" x="1622" y="-200.25" font-family="Courier New" font-weight="bold" font-size="10.00" fill="blue">ASSIGN(BFRAME,0)</text>
<polygon fill="none" stroke="black" points="1562,-57.5 1562,-191 1778,-191 1778,-57.5 1562,-57.5"/>
<text text-anchor="start" x="1565" y="-178.5" font-family="Courier New" font-size="10.00" fill="blue"> &#160;&#160;&#160;WRITE(&quot;HERE I DIE&quot;);</text>
<text text-anchor="start" x="1565" y="-165.75" font-family="Courier New" font-size="10.00" fill="blue"> &#160;&#160;&#160;MAP(WSPRITE,WPARM);</text>
<text text-anchor="start" x="1565" y="-153" font-family="Courier New" font-size="10.00" fill="blue"> &#160;&#160;&#160;SHOW(0,WSPRITE);</text>
<text text-anchor="start" x="1565" y="-140.25" font-family="Courier New" font-size="10.00" fill="blue"> &#160;&#160;&#160;VIDEO(0,WSPRITE);</text>
<text text-anchor="start" x="1565" y="-127.5" font-family="Courier New" font-size="10.00" fill="blue"> &#160;&#160;&#160;ANIMATE(0,0);</text>
<text text-anchor="start" x="1565" y="-114.75" font-family="Courier New" font-size="10.00" fill="blue"> &#160;&#160;&#160;ASSIGN(LENERGY,0);</text>
<text text-anchor="start" x="1565" y="-102" font-family="Courier New" font-size="10.00" fill="blue"> &#160;&#160;&#160;ASSIGN(LWEALTH,0);</text>
<text text-anchor="start" x="1565" y="-89.25" font-family="Courier New" font-size="10.00" fill="blue"> &#160;&#160;&#160;SIGNAL(SMP_VIAL,SIG_DRAIN);</text>
<text text-anchor="start" x="1565" y="-76.5" font-family="Courier New" font-size="10.00" fill="blue"> &#160;&#160;&#160;SIGNAL(SID_PERSIST,SIG_UPDATE);</text>
<text text-anchor="start" x="1565" y="-63.75" font-family="Courier New" font-size="10.00" fill="blue"> &#160;&#160;&#160;LOADVIEW(IDV_VIL8);</text>
<polygon fill="none" stroke="black" points="1559,-54.5 1559,-214.75 1781,-214.75 1781,-54.5 1559,-54.5"/>
</g>
<!-- 50 -->
<g id="node18" class="node">
<title>50</title>
<polyline fill="none" stroke="darkred" points="15.75,-840.75 38.25,-840.75"/>
<text text-anchor="start" x="18.75" y="-847.95" font-family="Courier New" font-weight="bold" font-size="14.00">50</text>
<path fill="none" stroke="darkred" d="M22.25,-837.75C22.25,-837.75 31.75,-837.75 31.75,-837.75 36.5,-837.75 41.25,-842.5 41.25,-847.25 41.25,-847.25 41.25,-856.75 41.25,-856.75 41.25,-861.5 36.5,-866.25 31.75,-866.25 31.75,-866.25 22.25,-866.25 22.25,-866.25 17.5,-866.25 12.75,-861.5 12.75,-856.75 12.75,-856.75 12.75,-847.25 12.75,-847.25 12.75,-842.5 17.5,-837.75 22.25,-837.75"/>
</g>
<!-- 51 -->
<g id="node19" class="node">
<title>51</title>
<polyline fill="none" stroke="darkred" points="113.75,-656.38 136.25,-656.38"/>
<text text-anchor="start" x="116.75" y="-663.58" font-family="Courier New" font-weight="bold" font-size="14.00">51</text>
<path fill="none" stroke="darkred" d="M120.25,-653.38C120.25,-653.38 129.75,-653.38 129.75,-653.38 134.5,-653.38 139.25,-658.12 139.25,-662.88 139.25,-662.88 139.25,-672.38 139.25,-672.38 139.25,-677.12 134.5,-681.88 129.75,-681.88 129.75,-681.88 120.25,-681.88 120.25,-681.88 115.5,-681.88 110.75,-677.12 110.75,-672.38 110.75,-672.38 110.75,-662.88 110.75,-662.88 110.75,-658.12 115.5,-653.38 120.25,-653.38"/>
</g>
<!-- 50&#45;&gt;51 -->
<g id="edge12" class="edge">
<title>50&#45;&gt;51</title>
<path fill="none" stroke="black" d="M36.22,-833.84C53.29,-802.07 89.95,-733.85 110.42,-695.76"/>
<polygon fill="black" stroke="black" points="113.37,-697.67 115.02,-687.2 107.2,-694.35 113.37,-697.67"/>
<text text-anchor="start" x="98" y="-760.88" font-family="Courier New" font-weight="bold" font-size="10.00" fill="blue">VIDEO(0,IDS_EXPLODE1)</text>
</g>
<!-- 51&#45;&gt;21 -->
<g id="edge13" class="edge">
<title>51&#45;&gt;21</title>
<path fill="none" stroke="black" d="M128.27,-649.8C134.75,-621.34 152.12,-564.13 191,-536.75 228.67,-510.22 363.12,-503.65 429.86,-502.03"/>
<polygon fill="black" stroke="black" points="429.68,-505.54 439.6,-501.82 429.53,-498.54 429.68,-505.54"/>
<polygon fill="none" stroke="black" points="194,-586 194,-604.75 458,-604.75 458,-586 194,-586"/>
<text text-anchor="start" x="251" y="-593.25" font-family="Courier New" font-weight="bold" font-size="10.00" fill="blue">PLAYWAVE(0,SOUND_EXPLODE)</text>
<polygon fill="none" stroke="black" points="194,-539.75 194,-584 458,-584 458,-539.75 194,-539.75"/>
<text text-anchor="start" x="197" y="-571.5" font-family="Courier New" font-size="10.00" fill="blue"> &#160;&#160;&#160;&#160;&#160;&#160;&#160;&#160;&#160;&#160;&#160;SUBI(LENERGY,1);</text>
<text text-anchor="start" x="197" y="-558.75" font-family="Courier New" font-size="10.00" fill="blue"> &#160;&#160;&#160;&#160;&#160;&#160;&#160;&#160;&#160;&#160;&#160;SIGNAL(SID_PERSIST,SIG_UPDATE);</text>
<text text-anchor="start" x="197" y="-546" font-family="Courier New" font-size="10.00" fill="blue"> &#160;&#160;&#160;&#160;&#160;&#160;&#160;&#160;&#160;&#160;&#160;SIGNAL(SID_AURA,SIG_SUB);</text>
<polygon fill="none" stroke="black" points="191,-536.75 191,-607.75 461,-607.75 461,-536.75 191,-536.75"/>
</g>
<!-- dead&#45;&gt;0 -->
<g id="edge15" class="edge">
<title>dead&#45;&gt;0</title>
<path fill="none" stroke="black" d="M1825.28,-30.35C1892.03,-57 2046,-131.32 2046,-250 2046,-1649.25 2046,-1649.25 2046,-1649.25 2046,-1724.97 1990.09,-1800.17 1956.93,-1838.12"/>
<polygon fill="black" stroke="black" points="1954.49,-1835.59 1950.44,-1845.38 1959.71,-1840.25 1954.49,-1835.59"/>
<text text-anchor="start" x="2050" y="-760.88" font-family="Courier New" font-weight="bold" font-size="10.00" fill="orange">WAIT(,SIG_MYID)</text>
</g>
<!-- dead&#45;&gt;present -->
<g id="edge14" class="edge">
<title>dead&#45;&gt;present</title>
<path fill="none" stroke="black" d="M1795,-36.33C1795,-74.59 1795,-170.08 1795,-250 1795,-1227.12 1795,-1227.12 1795,-1227.12 1795,-1428.95 1725.74,-1505.98 1554,-1612 1524.36,-1630.3 1431.83,-1639.77 1371.82,-1644.11"/>
<polygon fill="black" stroke="black" points="1371.89,-1640.6 1362.16,-1644.78 1372.37,-1647.58 1371.89,-1640.6"/>
<text text-anchor="start" x="1799" y="-665.5" font-family="Courier New" font-weight="bold" font-size="10.00" fill="orange">WAIT(,SIG_REVIVE)</text>
</g>
<!-- sitting&#45;&gt;present -->
<g id="edge23" class="edge">
<title>sitting&#45;&gt;present</title>
<path fill="none" stroke="black" d="M1058.5,-1013.11C1063.17,-1076.98 1077.72,-1267.17 1087,-1293.5 1135.16,-1430.13 1246.5,-1566.5 1294.87,-1621.68"/>
<polygon fill="black" stroke="black" points="1292.09,-1623.82 1301.34,-1629 1297.34,-1619.19 1292.09,-1623.82"/>
<polygon fill="none" stroke="black" points="1090,-1271.75 1090,-1290.5 1678,-1290.5 1678,-1271.75 1090,-1271.75"/>
<text text-anchor="start" x="1336" y="-1279" font-family="Courier New" font-weight="bold" font-size="10.00" fill="orange">WAIT(0,SIG_MYID)</text>
<polygon fill="none" stroke="black" points="1090,-1161.75 1090,-1269.75 1678,-1269.75 1678,-1161.75 1090,-1161.75"/>
<text text-anchor="start" x="1093" y="-1257.25" font-family="Courier New" font-size="10.00" fill="blue"> &#160;&#160;&#160;CLEAR(WSPRITE);</text>
<text text-anchor="start" x="1093" y="-1244.5" font-family="Courier New" font-size="10.00" fill="blue"> &#160;&#160;&#160;&#160;SHOW(0);</text>
<text text-anchor="start" x="1093" y="-1231.75" font-family="Courier New" font-size="10.00" fill="blue"> &#160;&#160;&#160;predicate active_character(name);</text>
<text text-anchor="start" x="1093" y="-1219" font-family="Courier New" font-size="10.00" fill="blue"> &#160;&#160;&#160;active_character(?BPARM)?</text>
<text text-anchor="start" x="1093" y="-1206.25" font-family="Courier New" font-size="10.00" fill="blue"> &#160;&#160;&#160;predicate localplayer(name,viewname, wealth,karma, energy,strength, wisdom, gender, culture);</text>
<text text-anchor="start" x="1093" y="-1193.5" font-family="Courier New" font-size="10.00" fill="blue"> &#160;&#160;&#160;localplayer(BPARM, ?WTEMP1, ?LWEALTH, ?LKARMA,?LENERGY,?LSTRENGTH, ?LWISDOM, ?LSEX, ?WTEMP2)?</text>
<text text-anchor="start" x="1093" y="-1180.75" font-family="Courier New" font-size="10.00" fill="blue"> &#160;&#160;&#160;&#160;SIGNAL(SID_AURA, SIG_MYAURA);</text>
<text text-anchor="start" x="1093" y="-1168" font-family="Courier New" font-size="10.00" fill="blue"> &#160;&#160;&#160;&#160;SIGNAL(SID_HALO, SIG_MYHALO);</text>
<polygon fill="none" stroke="black" points="1087,-1158.75 1087,-1293.5 1681,-1293.5 1681,-1158.75 1087,-1158.75"/>
</g>
<!-- sitting&#45;&gt;present -->
<g id="edge35" class="edge">
<title>sitting&#45;&gt;present</title>
<path fill="none" stroke="black" d="M1103.73,-997.46C1236.22,-1013.28 1609.37,-1065.5 1681,-1158.75 1817.32,-1336.22 1479.62,-1554.4 1358.93,-1624.46"/>
<polygon fill="black" stroke="black" points="1357.51,-1621.24 1350.59,-1629.26 1361,-1627.3 1357.51,-1621.24"/>
<text text-anchor="start" x="1716" y="-1224" font-family="Courier New" font-weight="bold" font-size="10.00" fill="orange">WAIT(0,0)</text>
</g>
<!-- sitting&#45;&gt;100 -->
<g id="edge34" class="edge">
<title>sitting&#45;&gt;100</title>
<path fill="none" stroke="black" d="M1103.82,-990.72C1237.05,-991.58 1611.11,-990.42 1648,-951 1665.31,-932.5 1659.24,-902.58 1651.04,-880.66"/>
<polygon fill="black" stroke="black" points="1654.29,-879.36 1647.25,-871.44 1647.81,-882.02 1654.29,-879.36"/>
<text text-anchor="start" x="1663" y="-926.12" font-family="Courier New" font-weight="bold" font-size="10.00" fill="orange">WAIT(0,SIG_CLEAR)</text>
</g>
<!-- sitting&#45;&gt;20 -->
<g id="edge24" class="edge">
<title>sitting&#45;&gt;20</title>
<path fill="none" stroke="black" d="M1010.27,-987.58C934.49,-982.74 788.48,-971.09 741,-951 699.51,-933.44 681.47,-928.12 662,-887.5 612.98,-785.21 700.97,-653.63 743.69,-598.9"/>
<polygon fill="black" stroke="black" points="746.19,-601.39 749.67,-591.38 740.71,-597.03 746.19,-601.39"/>
<text text-anchor="start" x="666" y="-849.88" font-family="Courier New" font-weight="bold" font-size="10.00" fill="orange">WAIT(0,SIG_HAPPY)</text>
</g>
<!-- sitting&#45;&gt;21 -->
<g id="edge25" class="edge">
<title>sitting&#45;&gt;21</title>
<path fill="none" stroke="black" d="M1010.41,-989.55C889.09,-987.35 570.1,-978.93 532,-951 473.12,-907.85 485.17,-870.11 471,-798.5 460.94,-747.65 464.83,-593.5 466.96,-529.66"/>
<polygon fill="black" stroke="black" points="470.45,-530.12 467.3,-520 463.45,-529.87 470.45,-530.12"/>
<text text-anchor="start" x="475" y="-760.88" font-family="Courier New" font-weight="bold" font-size="10.00" fill="orange">WAIT(0,SIG_HURT)</text>
</g>
<!-- sitting&#45;&gt;22 -->
<g id="edge26" class="edge">
<title>sitting&#45;&gt;22</title>
<path fill="none" stroke="black" d="M1010.13,-987.55C929.06,-982.41 769.69,-969.98 753,-951 739.65,-935.81 745.04,-924.09 753,-905.5 755.92,-898.68 766.87,-887.74 778.24,-877.6"/>
<polygon fill="black" stroke="black" points="780.49,-880.28 785.75,-871.08 775.9,-874.99 780.49,-880.28"/>
<text text-anchor="start" x="757" y="-926.12" font-family="Courier New" font-weight="bold" font-size="10.00" fill="orange">WAIT(0,SIG_KISS)</text>
</g>
<!-- sitting&#45;&gt;23 -->
<g id="edge27" class="edge">
<title>sitting&#45;&gt;23</title>
<path fill="none" stroke="black" d="M1010.56,-990.23C889.7,-989.71 572.57,-985.06 541,-951 518.76,-927 567.39,-836.69 594.46,-790.93"/>
<polygon fill="black" stroke="black" points="597.44,-792.78 599.57,-782.4 591.43,-789.18 597.44,-792.78"/>
<text text-anchor="start" x="545" y="-926.12" font-family="Courier New" font-weight="bold" font-size="10.00" fill="orange">WAIT(0,SIG_MAD)</text>
</g>
<!-- sitting&#45;&gt;24 -->
<g id="edge28" class="edge">
<title>sitting&#45;&gt;24</title>
<path fill="none" stroke="black" d="M1085.18,-969.05C1138.66,-926.77 1253.17,-825.98 1294,-709.5 1306.31,-674.37 1316.29,-655.56 1294,-625.75 1289.7,-619.99 1204.85,-596.74 1153.88,-583.19"/>
<polygon fill="black" stroke="black" points="1154.97,-579.86 1144.41,-580.68 1153.18,-586.62 1154.97,-579.86"/>
<text text-anchor="start" x="1240" y="-849.88" font-family="Courier New" font-weight="bold" font-size="10.00" fill="orange">WAIT(0,SIG_SAD)</text>
</g>
<!-- sitting&#45;&gt;25 -->
<g id="edge29" class="edge">
<title>sitting&#45;&gt;25</title>
<path fill="none" stroke="black" d="M1061.42,-969.08C1067.66,-932.7 1074.31,-858.21 1035,-816.5 1005.23,-784.91 967,-831.67 939,-798.5 873.49,-720.9 905.81,-586.93 924.21,-529.24"/>
<polygon fill="black" stroke="black" points="927.49,-530.48 927.31,-519.89 920.84,-528.28 927.49,-530.48"/>
<text text-anchor="start" x="943" y="-760.88" font-family="Courier New" font-weight="bold" font-size="10.00" fill="orange">WAIT(0,SIG_SURPRISED)</text>
</g>
<!-- sitting&#45;&gt;26 -->
<g id="edge30" class="edge">
<title>sitting&#45;&gt;26</title>
<path fill="none" stroke="black" d="M1103.58,-988.76C1179.42,-985.63 1325.62,-976.41 1370,-951 1392.14,-938.32 1384.02,-920.02 1405,-905.5 1427.54,-889.89 1447.69,-909.53 1464,-887.5 1484.79,-859.42 1471.21,-817.94 1458.22,-790.94"/>
<polygon fill="black" stroke="black" points="1461.51,-789.68 1453.84,-782.37 1455.27,-792.86 1461.51,-789.68"/>
<text text-anchor="start" x="1409" y="-926.12" font-family="Courier New" font-weight="bold" font-size="10.00" fill="orange">WAIT(0,SIG_STRESS)</text>
</g>
<!-- sitting&#45;&gt;27 -->
<g id="edge31" class="edge">
<title>sitting&#45;&gt;27</title>
<path fill="none" stroke="black" d="M1103.68,-988.34C1167.99,-982.9 1281.79,-962.55 1334,-887.5 1356.75,-854.8 1347.96,-737.35 1315,-625.75 1312.42,-617 1308.37,-607.99 1304.18,-599.96"/>
<polygon fill="black" stroke="black" points="1307.35,-598.45 1299.45,-591.39 1301.22,-601.83 1307.35,-598.45"/>
<text text-anchor="start" x="1351" y="-849.88" font-family="Courier New" font-weight="bold" font-size="10.00" fill="orange">WAIT(0,SIG_WAVE)</text>
</g>
<!-- sitting&#45;&gt;30 -->
<g id="edge32" class="edge">
<title>sitting&#45;&gt;30</title>
<path fill="none" stroke="black" d="M1103.79,-989.56C1215.61,-987.47 1491.3,-979.45 1521,-951 1543.13,-929.8 1545.73,-839.55 1545.53,-792.62"/>
<polygon fill="black" stroke="black" points="1549.03,-792.63 1545.43,-782.67 1542.03,-792.7 1549.03,-792.63"/>
<text text-anchor="start" x="1541" y="-926.12" font-family="Courier New" font-weight="bold" font-size="10.00" fill="orange">WAIT(0,SIG_DEAD)</text>
</g>
<!-- sitting&#45;&gt;50 -->
<g id="edge33" class="edge">
<title>sitting&#45;&gt;50</title>
<path fill="none" stroke="black" d="M1010.36,-990.27C812.6,-990.13 51.88,-987.22 17,-951 -0.66,-932.66 5.6,-902.52 13.93,-880.5"/>
<polygon fill="black" stroke="black" points="17.05,-882.1 17.65,-871.52 10.59,-879.42 17.05,-882.1"/>
<polygon fill="none" stroke="black" points="20,-929.25 20,-948 458,-948 458,-929.25 20,-929.25"/>
<text text-anchor="start" x="191" y="-936.5" font-family="Courier New" font-weight="bold" font-size="10.00" fill="orange">WAIT(0,SIG_BOMB)</text>
<polygon fill="none" stroke="black" points="20,-908.5 20,-927.25 458,-927.25 458,-908.5 20,-908.5"/>
<text text-anchor="start" x="23" y="-914.75" font-family="Courier New" font-size="10.00" fill="blue"> &#160;&#160;&#160;&#160;WRITE(&quot;I am S_ID and I receive signals! This one is a SIG_BOMB! &quot;);</text>
<polygon fill="none" stroke="black" points="17,-905.5 17,-951 461,-951 461,-905.5 17,-905.5"/>
</g>
<!-- setId&#45;&gt;sitting -->
<g id="edge22" class="edge">
<title>setId&#45;&gt;sitting</title>
<path fill="none" stroke="black" d="M732.25,-1208.08C742.79,-1169.68 773.93,-1076.27 837,-1031.5 862.45,-1013.43 942.83,-1002.57 999.03,-996.99"/>
<polygon fill="black" stroke="black" points="999.15,-1000.5 1008.77,-996.06 998.48,-993.53 999.15,-1000.5"/>
<polygon fill="none" stroke="black" points="840,-1119 840,-1137.75 1056,-1137.75 1056,-1119 840,-1119"/>
<text text-anchor="start" x="885" y="-1126.25" font-family="Courier New" font-weight="bold" font-size="10.00" fill="blue">ASSIGN(WSPRITE,happy)</text>
<polygon fill="none" stroke="black" points="840,-1034.5 840,-1117 1056,-1117 1056,-1034.5 840,-1034.5"/>
<text text-anchor="start" x="843" y="-1104.5" font-family="Courier New" font-size="10.00" fill="blue"> &#160;&#160;&#160;MAP(WSPRITE,WPARM);</text>
<text text-anchor="start" x="843" y="-1091.75" font-family="Courier New" font-size="10.00" fill="blue"> &#160;&#160;&#160;ASSIGN(BFRAME,0);</text>
<text text-anchor="start" x="843" y="-1079" font-family="Courier New" font-size="10.00" fill="blue"> &#160;&#160;&#160;SHOW(WSPRITE);</text>
<text text-anchor="start" x="843" y="-1066.25" font-family="Courier New" font-size="10.00" fill="blue"> &#160;&#160;&#160;SIGNAL(SID_AURA, SIG_MYAURA);</text>
<text text-anchor="start" x="843" y="-1053.5" font-family="Courier New" font-size="10.00" fill="blue"> &#160;&#160;&#160;SIGNAL(SID_HALO, SIG_MYHALO);</text>
<text text-anchor="start" x="843" y="-1040.75" font-family="Courier New" font-size="10.00" fill="blue"> &#160;&#160;&#160;SIGNAL(SID_PERSIST,SIG_UPDATE);</text>
<polygon fill="none" stroke="black" points="837,-1031.5 837,-1140.75 1059,-1140.75 1059,-1031.5 837,-1031.5"/>
</g>
<!-- status -->
<g id="node23" class="node">
<title>status</title>
<polygon fill="none" stroke="black" points="1978,-1825 1978,-1904 2450,-1904 2450,-1825 1978,-1825"/>
<polygon fill="none" stroke="black" points="1989,-1878.25 1989,-1897 2439,-1897 2439,-1878.25 1989,-1878.25"/>
<text text-anchor="start" x="2196" y="-1885.5" font-family="Courier New" font-weight="bold" font-size="10.00">SID_ID</text>
<polygon fill="none" stroke="black" points="1989,-1832 1989,-1876.25 2439,-1876.25 2439,-1832 1989,-1832"/>
<text text-anchor="start" x="1992" y="-1863.75" font-family="Courier New" font-size="10.00" fill="green">VIEW::IDV_ID @pos(x:0, y:0, h:101, w:171)</text>
<text text-anchor="start" x="1992" y="-1851" font-family="Courier New" font-size="10.00" fill="green">SID_ID::M_ID(&#39;&#39;,&#39;&#39;,&#39;0&#39;,&#39;SID_AURA&#39;,&#39;&#39;,&#39;&#39;)</text>
<text text-anchor="start" x="1992" y="-1838.25" font-family="Courier New" font-size="10.00" fill="green">{state:&#39;sitting&#39;: wParm:F1 wSprite:IDS_FID1HAPPY bFrame:0 Top:0 Left:0 Z:0</text>
<polygon fill="none" stroke="black" points="1986,-1829 1986,-1900 2442,-1900 2442,-1829 1986,-1829"/>
</g>
</g>
</svg>
