<?xml version="1.0" encoding="UTF-8" standalone="no"?>
<!DOCTYPE svg PUBLIC "-//W3C//DTD SVG 1.1//EN"
 "http://www.w3.org/Graphics/SVG/1.1/DTD/svg11.dtd">
<!-- Generated by graphviz version 10.0.1 (20240210.2158)
 -->
<!-- Title: Automaton Pages: 1 -->
<svg width="1012pt" height="409pt"
 viewBox="0.00 0.00 1012.05 409.25" xmlns="http://www.w3.org/2000/svg" xmlns:xlink="http://www.w3.org/1999/xlink">
<g id="graph0" class="graph" transform="scale(1 1) rotate(0) translate(4 405.25)">
<title>Automaton</title>
<polygon fill="white" stroke="none" points="-4,4 -4,-405.25 1008.05,-405.25 1008.05,4 -4,4"/>
<!-- filename -->
<g id="node1" class="node">
<title>filename</title>
<polygon fill="none" stroke="black" points="164.05,-334.5 164.05,-388 288.05,-388 288.05,-334.5 164.05,-334.5"/>
<polygon fill="none" stroke="black" points="175.05,-362.25 175.05,-381 277.05,-381 277.05,-362.25 175.05,-362.25"/>
<text text-anchor="start" x="178.05" y="-369.5" font-family="Courier New" font-weight="bold" font-size="10.00">SID_HALO::M_HALO</text>
<polygon fill="none" stroke="black" points="175.05,-341.5 175.05,-360.25 277.05,-360.25 277.05,-341.5 175.05,-341.5"/>
<text text-anchor="start" x="181.05" y="-347.75" font-family="Courier New" font-size="10.00" fill="brown">start state = 0</text>
<polygon fill="none" stroke="black" points="172.05,-338.5 172.05,-384 280.05,-384 280.05,-338.5 172.05,-338.5"/>
</g>
<!-- 0 -->
<g id="node2" class="node">
<title>0</title>
<polyline fill="none" stroke="darkred" points="325.93,-350 340.18,-350"/>
<text text-anchor="start" x="328.93" y="-357.2" font-family="Courier New" font-weight="bold" font-size="14.00">0</text>
<path fill="none" stroke="darkred" d="M329.68,-347C329.68,-347 336.43,-347 336.43,-347 339.8,-347 343.18,-350.38 343.18,-353.75 343.18,-353.75 343.18,-368.75 343.18,-368.75 343.18,-372.12 339.8,-375.5 336.43,-375.5 336.43,-375.5 329.68,-375.5 329.68,-375.5 326.3,-375.5 322.93,-372.12 322.93,-368.75 322.93,-368.75 322.93,-353.75 322.93,-353.75 322.93,-350.38 326.3,-347 329.68,-347"/>
</g>
<!-- 1 -->
<g id="node3" class="node">
<title>1</title>
<polyline fill="none" stroke="darkred" stroke-width="3" points="325.43,-230.5 340.68,-230.5"/>
<text text-anchor="start" x="328.93" y="-238.2" font-family="Courier New" font-weight="bold" font-size="14.00">1</text>
<path fill="none" stroke="darkred" stroke-width="3" d="M328.84,-225.5C328.84,-225.5 337.26,-225.5 337.26,-225.5 341.47,-225.5 345.68,-229.71 345.68,-233.92 345.68,-233.92 345.68,-250.58 345.68,-250.58 345.68,-254.79 341.47,-259 337.26,-259 337.26,-259 328.84,-259 328.84,-259 324.63,-259 320.43,-254.79 320.43,-250.58 320.43,-250.58 320.43,-233.92 320.43,-233.92 320.43,-229.71 324.63,-225.5 328.84,-225.5"/>
</g>
<!-- 0&#45;&gt;1 -->
<g id="edge1" class="edge">
<title>0&#45;&gt;1</title>
<path fill="none" stroke="black" d="M333.05,-343.24C333.05,-325.59 333.05,-297.57 333.05,-275.67"/>
<polygon fill="black" stroke="black" points="336.55,-275.76 333.05,-265.76 329.55,-275.76 336.55,-275.76"/>
<text text-anchor="start" x="337.05" y="-290.75" font-family="Courier New" font-weight="bold" font-size="10.00" fill="blue">Z_EPSILON(0,)</text>
</g>
<!-- karmaBoost -->
<g id="node4" class="node">
<title>karmaBoost</title>
<polyline fill="none" stroke="darkred" points="186.8,-7 275.3,-7"/>
<text text-anchor="start" x="189.8" y="-14.2" font-family="Courier New" font-weight="bold" font-size="14.00">karmaBoost</text>
<path fill="none" stroke="darkred" d="M193.3,-4C193.3,-4 268.8,-4 268.8,-4 273.55,-4 278.3,-8.75 278.3,-13.5 278.3,-13.5 278.3,-23 278.3,-23 278.3,-27.75 273.55,-32.5 268.8,-32.5 268.8,-32.5 193.3,-32.5 193.3,-32.5 188.55,-32.5 183.8,-27.75 183.8,-23 183.8,-23 183.8,-13.5 183.8,-13.5 183.8,-8.75 188.55,-4 193.3,-4"/>
</g>
<!-- 1&#45;&gt;karmaBoost -->
<g id="edge2" class="edge">
<title>1&#45;&gt;karmaBoost</title>
<path fill="none" stroke="black" d="M306.17,-239.74C235.74,-235.51 50.04,-222.49 32.05,-202 -11.2,-152.74 -10.07,-104.73 32.05,-54.5 48.87,-34.44 113.69,-25.79 164.84,-22.06"/>
<polygon fill="black" stroke="black" points="164.93,-25.56 174.67,-21.4 164.46,-18.58 164.93,-25.56"/>
<text text-anchor="start" x="36.05" y="-126.12" font-family="Courier New" font-weight="bold" font-size="10.00" fill="orange">WAIT(0,SIG_MYHALO)</text>
</g>
<!-- 1&#45;&gt;karmaBoost -->
<g id="edge3" class="edge">
<title>1&#45;&gt;karmaBoost</title>
<path fill="none" stroke="black" d="M306.06,-238.69C264.42,-234.11 187.56,-222.98 171.05,-202 150.78,-176.24 154.77,-82.95 171.05,-54.5 173.41,-50.37 176.47,-46.68 179.95,-43.39"/>
<polygon fill="black" stroke="black" points="181.88,-46.32 187.52,-37.35 177.52,-40.84 181.88,-46.32"/>
<text text-anchor="start" x="175.05" y="-126.12" font-family="Courier New" font-weight="bold" font-size="10.00" fill="orange">WAIT(0,SIG_ADD)</text>
</g>
<!-- 1&#45;&gt;karmaBoost -->
<g id="edge5" class="edge">
<title>1&#45;&gt;karmaBoost</title>
<path fill="none" stroke="black" d="M306.31,-220.59C300.8,-215.12 295.61,-208.81 292.05,-202 261.36,-143.18 300.21,-113.08 269.05,-54.5 267.18,-50.98 264.81,-47.62 262.18,-44.47"/>
<polygon fill="black" stroke="black" points="264.75,-42.09 255.31,-37.29 259.7,-46.93 264.75,-42.09"/>
<text text-anchor="start" x="296.05" y="-126.12" font-family="Courier New" font-weight="bold" font-size="10.00" fill="orange">WAIT(0,0)</text>
</g>
<!-- karmaDrain -->
<g id="node5" class="node">
<title>karmaDrain</title>
<polyline fill="none" stroke="darkred" points="666.8,-7 755.3,-7"/>
<text text-anchor="start" x="669.8" y="-14.2" font-family="Courier New" font-weight="bold" font-size="14.00">karmaDrain</text>
<path fill="none" stroke="darkred" d="M673.3,-4C673.3,-4 748.8,-4 748.8,-4 753.55,-4 758.3,-8.75 758.3,-13.5 758.3,-13.5 758.3,-23 758.3,-23 758.3,-27.75 753.55,-32.5 748.8,-32.5 748.8,-32.5 673.3,-32.5 673.3,-32.5 668.55,-32.5 663.8,-27.75 663.8,-23 663.8,-23 663.8,-13.5 663.8,-13.5 663.8,-8.75 668.55,-4 673.3,-4"/>
</g>
<!-- 1&#45;&gt;karmaDrain -->
<g id="edge4" class="edge">
<title>1&#45;&gt;karmaDrain</title>
<path fill="none" stroke="black" d="M360.05,-241.62C425.73,-241.94 591.24,-238.96 629.05,-202 676.5,-155.62 614.95,-109.5 652.05,-54.5 654.87,-50.33 658.36,-46.57 662.22,-43.21"/>
<polygon fill="black" stroke="black" points="664.08,-46.19 669.97,-37.38 659.87,-40.6 664.08,-46.19"/>
<text text-anchor="start" x="656.05" y="-126.12" font-family="Courier New" font-weight="bold" font-size="10.00" fill="orange">WAIT(0,SIG_SUB)</text>
</g>
<!-- karmaBoost&#45;&gt;1 -->
<g id="edge6" class="edge">
<title>karmaBoost&#45;&gt;1</title>
<path fill="none" stroke="black" d="M285.99,-20.69C310.91,-24.44 338.27,-33.57 354.05,-54.5 393.51,-106.85 369.99,-138.41 354.05,-202 353.4,-204.59 352.54,-207.2 351.54,-209.78"/>
<polygon fill="black" stroke="black" points="348.46,-208.1 347.46,-218.65 354.82,-211.02 348.46,-208.1"/>
<polygon fill="none" stroke="black" points="379.05,-180.25 379.05,-199 625.05,-199 625.05,-180.25 379.05,-180.25"/>
<text text-anchor="start" x="460.05" y="-187.5" font-family="Courier New" font-weight="bold" font-size="10.00" fill="blue">ASSIGN(WPARM,)</text>
<polygon fill="none" stroke="black" points="379.05,-57.5 379.05,-178.25 625.05,-178.25 625.05,-57.5 379.05,-57.5"/>
<text text-anchor="start" x="382.05" y="-165.75" font-family="Courier New" font-size="10.00" fill="blue"> &#160;&#160;&#160;&#160;&#160;&#160;if(WIP2 &gt; (MAX_KARMA &#45; 1)){</text>
<text text-anchor="start" x="382.05" y="-153" font-family="Courier New" font-size="10.00" fill="blue"> &#160;&#160;&#160;&#160;&#160;&#160;&#160;&#160;&#160;&#160;&#160;&#160;ASSIGN(LKARMA,(MAX_KARMA));</text>
<text text-anchor="start" x="382.05" y="-140.25" font-family="Courier New" font-size="10.00" fill="blue"> &#160;&#160;&#160;&#160;&#160;&#160;}</text>
<text text-anchor="start" x="382.05" y="-127.5" font-family="Courier New" font-size="10.00" fill="blue"> &#160;&#160;&#160;&#160;&#160;&#160;&#160;ASSIGN(BPARM,LKARMA);</text>
<text text-anchor="start" x="382.05" y="-114.75" font-family="Courier New" font-size="10.00" fill="blue"> &#160;&#160;&#160;&#160;&#160;&#160;&#160;MOV(WSPRITE,BPARM);</text>
<text text-anchor="start" x="382.05" y="-102" font-family="Courier New" font-size="10.00" fill="blue"> &#160;&#160;&#160;&#160;&#160;&#160;&#160;DIV(WSPRITE,2);</text>
<text text-anchor="start" x="382.05" y="-89.25" font-family="Courier New" font-size="10.00" fill="blue"> &#160;&#160;&#160;&#160;&#160;&#160;&#160;MAPi(WSPRITE,S00_KARMA_MAP);</text>
<text text-anchor="start" x="382.05" y="-76.5" font-family="Courier New" font-size="10.00" fill="blue"> &#160;&#160;&#160;&#160;&#160;&#160;&#160;ASHOW(WSPRITE);</text>
<text text-anchor="start" x="382.05" y="-63.75" font-family="Courier New" font-size="10.00" fill="blue"> &#160;&#160;&#160;&#160;&#160;&#160;&#160;SIGNALi(0,WIP1);</text>
<polygon fill="none" stroke="black" points="376.05,-54.5 376.05,-202 628.05,-202 628.05,-54.5 376.05,-54.5"/>
</g>
<!-- karmaDrain&#45;&gt;1 -->
<g id="edge7" class="edge">
<title>karmaDrain&#45;&gt;1</title>
<path fill="none" stroke="black" d="M736.4,-36.49C741.92,-41.59 747.01,-47.66 750.05,-54.5 776.66,-114.41 794.18,-153.52 750.05,-202 724.82,-229.71 469.81,-238.25 371.46,-240.52"/>
<polygon fill="black" stroke="black" points="371.43,-237.02 361.51,-240.74 371.58,-244.02 371.43,-237.02"/>
<polygon fill="none" stroke="black" points="779.05,-180.25 779.05,-199 1001.05,-199 1001.05,-180.25 779.05,-180.25"/>
<text text-anchor="start" x="848.05" y="-187.5" font-family="Courier New" font-weight="bold" font-size="10.00" fill="blue">ASSIGN(WPARM,)</text>
<polygon fill="none" stroke="black" points="779.05,-57.5 779.05,-178.25 1001.05,-178.25 1001.05,-57.5 779.05,-57.5"/>
<text text-anchor="start" x="782.05" y="-165.75" font-family="Courier New" font-size="10.00" fill="blue"> &#160;&#160;&#160;&#160;&#160;&#160;&#160;if(LKARMA &lt;= 0){</text>
<text text-anchor="start" x="782.05" y="-153" font-family="Courier New" font-size="10.00" fill="blue"> &#160;&#160;&#160;&#160;&#160;&#160;&#160;&#160;&#160;&#160;&#160;&#160;ASSIGN(LKARMA,1);</text>
<text text-anchor="start" x="782.05" y="-140.25" font-family="Courier New" font-size="10.00" fill="blue"> &#160;&#160;&#160;&#160;&#160;&#160;} &#160;&#160;&#160;&#160;&#160;</text>
<text text-anchor="start" x="782.05" y="-127.5" font-family="Courier New" font-size="10.00" fill="blue"> &#160;&#160;&#160;&#160;&#160;&#160;&#160;ASSIGN(BPARM,LKARMA);</text>
<text text-anchor="start" x="782.05" y="-114.75" font-family="Courier New" font-size="10.00" fill="blue"> &#160;&#160;&#160;&#160;&#160;&#160;&#160;MOV(WSPRITE,BPARM);</text>
<text text-anchor="start" x="782.05" y="-102" font-family="Courier New" font-size="10.00" fill="blue"> &#160;&#160;&#160;&#160;&#160;&#160;&#160;DIV(WSPRITE,2);</text>
<text text-anchor="start" x="782.05" y="-89.25" font-family="Courier New" font-size="10.00" fill="blue"> &#160;&#160;&#160;&#160;&#160;&#160;&#160;MAPi(WSPRITE,S00_KARMA_MAP);</text>
<text text-anchor="start" x="782.05" y="-76.5" font-family="Courier New" font-size="10.00" fill="blue"> &#160;&#160;&#160;&#160;&#160;&#160;&#160;ASHOW(WSPRITE);</text>
<text text-anchor="start" x="782.05" y="-63.75" font-family="Courier New" font-size="10.00" fill="blue"> &#160;&#160;&#160;&#160;&#160;&#160;&#160;SIGNALi(0,WIP1);</text>
<polygon fill="none" stroke="black" points="776.05,-54.5 776.05,-202 1004.05,-202 1004.05,-54.5 776.05,-54.5"/>
</g>
<!-- status -->
<g id="node6" class="node">
<title>status</title>
<polygon fill="none" stroke="black" points="378.05,-321.75 378.05,-400.75 652.05,-400.75 652.05,-321.75 378.05,-321.75"/>
<polygon fill="none" stroke="black" points="389.05,-375 389.05,-393.75 641.05,-393.75 641.05,-375 389.05,-375"/>
<text text-anchor="start" x="491.05" y="-382.25" font-family="Courier New" font-weight="bold" font-size="10.00">SID_HALO</text>
<polygon fill="none" stroke="black" points="389.05,-328.75 389.05,-373 641.05,-373 641.05,-328.75 389.05,-328.75"/>
<text text-anchor="start" x="392.05" y="-360.5" font-family="Courier New" font-size="10.00" fill="green">VIEW::IDV_ID @pos(x:30, y:0, h:40, w:40)</text>
<text text-anchor="start" x="392.05" y="-347.75" font-family="Courier New" font-size="10.00" fill="green">SID_HALO::M_HALO(&#39;SID_ID&#39;,&#39;&#39;,&#39;&#39;,&#39;&#39;,&#39;&#39;,&#39;&#39;)</text>
<text text-anchor="start" x="392.05" y="-335" font-family="Courier New" font-size="10.00" fill="green">{state:&#39;1&#39;: Top:0 Left:30 Z:0</text>
<polygon fill="none" stroke="black" points="386.05,-325.75 386.05,-396.75 644.05,-396.75 644.05,-325.75 386.05,-325.75"/>
</g>
</g>
</svg>
