<?xml version="1.0" encoding="UTF-8" standalone="no"?>
<!DOCTYPE svg PUBLIC "-//W3C//DTD SVG 1.1//EN"
 "http://www.w3.org/Graphics/SVG/1.1/DTD/svg11.dtd">
<!-- Generated by graphviz version 10.0.1 (20240210.2158)
 -->
<!-- Title: Automaton Pages: 1 -->
<svg width="2105pt" height="1562pt"
 viewBox="0.00 0.00 2105.00 1561.75" xmlns="http://www.w3.org/2000/svg" xmlns:xlink="http://www.w3.org/1999/xlink">
<g id="graph0" class="graph" transform="scale(1 1) rotate(0) translate(4 1557.75)">
<title>Automaton</title>
<polygon fill="white" stroke="none" points="-4,4 -4,-1557.75 2101,-1557.75 2101,4 -4,4"/>
<!-- filename -->
<g id="node1" class="node">
<title>filename</title>
<polygon fill="none" stroke="black" points="770,-1487 770,-1540.5 888,-1540.5 888,-1487 770,-1487"/>
<polygon fill="none" stroke="black" points="781,-1514.75 781,-1533.5 877,-1533.5 877,-1514.75 781,-1514.75"/>
<text text-anchor="start" x="793" y="-1522" font-family="Courier New" font-weight="bold" font-size="10.00">SID_ID::M_ID</text>
<polygon fill="none" stroke="black" points="781,-1494 781,-1512.75 877,-1512.75 877,-1494 781,-1494"/>
<text text-anchor="start" x="784" y="-1500.25" font-family="Courier New" font-size="10.00" fill="brown">start state = 0</text>
<polygon fill="none" stroke="black" points="778,-1491 778,-1536.5 880,-1536.5 880,-1491 778,-1491"/>
</g>
<!-- 0 -->
<g id="node2" class="node">
<title>0</title>
<polyline fill="none" stroke="darkred" points="925.88,-1502.5 940.12,-1502.5"/>
<text text-anchor="start" x="928.88" y="-1509.7" font-family="Courier New" font-weight="bold" font-size="14.00">0</text>
<path fill="none" stroke="darkred" d="M929.62,-1499.5C929.62,-1499.5 936.38,-1499.5 936.38,-1499.5 939.75,-1499.5 943.12,-1502.88 943.12,-1506.25 943.12,-1506.25 943.12,-1521.25 943.12,-1521.25 943.12,-1524.62 939.75,-1528 936.38,-1528 936.38,-1528 929.62,-1528 929.62,-1528 926.25,-1528 922.88,-1524.62 922.88,-1521.25 922.88,-1521.25 922.88,-1506.25 922.88,-1506.25 922.88,-1502.88 926.25,-1499.5 929.62,-1499.5"/>
</g>
<!-- present -->
<g id="node3" class="node">
<title>present</title>
<polyline fill="none" stroke="darkred" points="901.12,-1260.75 964.88,-1260.75"/>
<text text-anchor="start" x="904.12" y="-1267.95" font-family="Courier New" font-weight="bold" font-size="14.00">present</text>
<path fill="none" stroke="darkred" d="M907.62,-1257.75C907.62,-1257.75 958.38,-1257.75 958.38,-1257.75 963.12,-1257.75 967.88,-1262.5 967.88,-1267.25 967.88,-1267.25 967.88,-1276.75 967.88,-1276.75 967.88,-1281.5 963.12,-1286.25 958.38,-1286.25 958.38,-1286.25 907.62,-1286.25 907.62,-1286.25 902.88,-1286.25 898.12,-1281.5 898.12,-1276.75 898.12,-1276.75 898.12,-1267.25 898.12,-1267.25 898.12,-1262.5 902.88,-1257.75 907.62,-1257.75"/>
</g>
<!-- 0&#45;&gt;present -->
<g id="edge1" class="edge">
<title>0&#45;&gt;present</title>
<path fill="none" stroke="black" d="M933,-1495.51C933,-1454.64 933,-1351.57 933,-1301.36"/>
<polygon fill="black" stroke="black" points="936.5,-1301.6 933,-1291.6 929.5,-1301.6 936.5,-1301.6"/>
<polygon fill="none" stroke="black" points="936,-1434 936,-1452.75 1530,-1452.75 1530,-1434 936,-1434"/>
<text text-anchor="start" x="1185" y="-1441.25" font-family="Courier New" font-weight="bold" font-size="10.00" fill="orange">WAIT(0,SIG_MYID)</text>
<polygon fill="none" stroke="black" points="936,-1311.25 936,-1432 1530,-1432 1530,-1311.25 936,-1311.25"/>
<text text-anchor="start" x="939" y="-1419.5" font-family="Courier New" font-size="10.00" fill="blue"> &#160;&#160;&#160;&#160;CLEAR(WSPRITE);</text>
<text text-anchor="start" x="939" y="-1406.75" font-family="Courier New" font-size="10.00" fill="blue"> &#160;&#160;&#160;&#160;SHOW(0);</text>
<text text-anchor="start" x="939" y="-1394" font-family="Courier New" font-size="10.00" fill="blue"> &#160;&#160;&#160;&#160;predicate active_character(name);</text>
<text text-anchor="start" x="939" y="-1381.25" font-family="Courier New" font-size="10.00" fill="blue"> &#160;&#160;&#160;&#160;active_character(?WPARM)?</text>
<text text-anchor="start" x="939" y="-1368.5" font-family="Courier New" font-size="10.00" fill="blue"> &#160;&#160;&#160;&#160;predicate localplayer(name,viewname, wealth,karma, energy,strength, wisdom, gender, culture);</text>
<text text-anchor="start" x="939" y="-1355.75" font-family="Courier New" font-size="10.00" fill="blue"> &#160;&#160;&#160;&#160;localplayer(WPARM, ?WTEMP1, ?LWEALTH, ?LKARMA,?WTEMP3,?LSTRENGTH, ?LWISDOM, ?LSEX, ?WTEMP2)?</text>
<text text-anchor="start" x="939" y="-1343" font-family="Courier New" font-size="10.00" fill="blue"> &#160;&#160;&#160;&#160;ASSIGN(LENERGY,WTEMP3);</text>
<text text-anchor="start" x="939" y="-1330.25" font-family="Courier New" font-size="10.00" fill="blue"> &#160;&#160;&#160;&#160;SIGNAL(SID_AURA, SIG_MYAURA);</text>
<text text-anchor="start" x="939" y="-1317.5" font-family="Courier New" font-size="10.00" fill="blue"> &#160;&#160;&#160;&#160;SIGNAL(SID_HALO, SIG_MYHALO);</text>
<polygon fill="none" stroke="black" points="933,-1308.25 933,-1455.75 1533,-1455.75 1533,-1308.25 933,-1308.25"/>
</g>
<!-- setId -->
<g id="node21" class="node">
<title>setId</title>
<polyline fill="none" stroke="darkred" points="564.38,-838.62 611.62,-838.62"/>
<text text-anchor="start" x="567.38" y="-845.83" font-family="Courier New" font-weight="bold" font-size="14.00">setId</text>
<path fill="none" stroke="darkred" d="M570.88,-835.62C570.88,-835.62 605.12,-835.62 605.12,-835.62 609.88,-835.62 614.62,-840.38 614.62,-845.12 614.62,-845.12 614.62,-854.62 614.62,-854.62 614.62,-859.38 609.88,-864.12 605.12,-864.12 605.12,-864.12 570.88,-864.12 570.88,-864.12 566.12,-864.12 561.38,-859.38 561.38,-854.62 561.38,-854.62 561.38,-845.12 561.38,-845.12 561.38,-840.38 566.12,-835.62 570.88,-835.62"/>
</g>
<!-- present&#45;&gt;setId -->
<g id="edge18" class="edge">
<title>present&#45;&gt;setId</title>
<path fill="none" stroke="black" d="M890.38,-1270.89C783.09,-1270.18 508.46,-1265.43 481,-1235.75 390.31,-1137.71 422.72,-1055.42 481,-935.25 494.1,-908.24 520.49,-887.28 543.79,-873.01"/>
<polygon fill="black" stroke="black" points="545.37,-876.14 552.23,-868.06 541.83,-870.1 545.37,-876.14"/>
<polygon fill="none" stroke="black" points="484,-1214 484,-1232.75 916,-1232.75 916,-1214 484,-1214"/>
<text text-anchor="start" x="664" y="-1221.25" font-family="Courier New" font-weight="bold" font-size="10.00" fill="blue">Z_EPSILON(,)</text>
<polygon fill="none" stroke="black" points="484,-938.25 484,-1212 916,-1212 916,-938.25 484,-938.25"/>
<text text-anchor="start" x="487" y="-1199.5" font-family="Courier New" font-size="10.00" fill="blue"> &#160;&#160;&#160;&#160;&#160;&#160;</text>
<text text-anchor="start" x="487" y="-1186.75" font-family="Courier New" font-size="10.00" fill="blue"> &#160;//for back to back {statements} do not use semi&#45;colons between them, </text>
<text text-anchor="start" x="487" y="-1174" font-family="Courier New" font-size="10.00" fill="blue"> &#160;//only at the end of the code segment!</text>
<text text-anchor="start" x="487" y="-1161.25" font-family="Courier New" font-size="10.00" fill="blue"> &#160;if(LSEX == 1){</text>
<text text-anchor="start" x="487" y="-1148.5" font-family="Courier New" font-size="10.00" fill="blue"> &#160;&#160;&#160;WPARM = F1;</text>
<text text-anchor="start" x="487" y="-1135.75" font-family="Courier New" font-size="10.00" fill="blue"> &#160;&#160;&#160;&#160;if(LWISDOM &gt;= 30){</text>
<text text-anchor="start" x="487" y="-1123" font-family="Courier New" font-size="10.00" fill="blue"> &#160;&#160;&#160;&#160;&#160;&#160;WPARM = F3;</text>
<text text-anchor="start" x="487" y="-1110.25" font-family="Courier New" font-size="10.00" fill="blue"> &#160;&#160;&#160;}</text>
<text text-anchor="start" x="487" y="-1097.5" font-family="Courier New" font-size="10.00" fill="blue"> &#160;&#160;&#160;&#160;if(LWISDOM &gt;= 20 &amp;&amp; LWISDOM &lt; 30){</text>
<text text-anchor="start" x="487" y="-1084.75" font-family="Courier New" font-size="10.00" fill="blue"> &#160;&#160;&#160;&#160;&#160;&#160;WPARM = F2;</text>
<text text-anchor="start" x="487" y="-1072" font-family="Courier New" font-size="10.00" fill="blue"> &#160;&#160;&#160;}</text>
<text text-anchor="start" x="487" y="-1059.25" font-family="Courier New" font-size="10.00" fill="blue"> &#160;}</text>
<text text-anchor="start" x="487" y="-1046.5" font-family="Courier New" font-size="10.00" fill="blue"> &#160;if(LSEX == 0){</text>
<text text-anchor="start" x="487" y="-1033.75" font-family="Courier New" font-size="10.00" fill="blue"> &#160;&#160;&#160;WPARM = M1;</text>
<text text-anchor="start" x="487" y="-1021" font-family="Courier New" font-size="10.00" fill="blue"> &#160;&#160;&#160;&#160;&#160;if(LWISDOM &gt;= 30){</text>
<text text-anchor="start" x="487" y="-1008.25" font-family="Courier New" font-size="10.00" fill="blue"> &#160;&#160;&#160;&#160;&#160;&#160;WPARM = M3;</text>
<text text-anchor="start" x="487" y="-995.5" font-family="Courier New" font-size="10.00" fill="blue"> &#160;&#160;&#160;}</text>
<text text-anchor="start" x="487" y="-982.75" font-family="Courier New" font-size="10.00" fill="blue"> &#160;&#160;&#160;if(LWISDOM &gt;= 20 &amp;&amp; LWISDOM &lt; 30){</text>
<text text-anchor="start" x="487" y="-970" font-family="Courier New" font-size="10.00" fill="blue"> &#160;&#160;&#160;&#160;&#160;&#160;&#160;WPARM = M2;</text>
<text text-anchor="start" x="487" y="-957.25" font-family="Courier New" font-size="10.00" fill="blue"> &#160;&#160;&#160;}</text>
<text text-anchor="start" x="487" y="-944.5" font-family="Courier New" font-size="10.00" fill="blue"> &#160;}; </text>
<polygon fill="none" stroke="black" points="481,-935.25 481,-1235.75 919,-1235.75 919,-935.25 481,-935.25"/>
</g>
<!-- 100 -->
<g id="node4" class="node">
<title>100</title>
<polyline fill="none" stroke="darkred" points="153.62,-451.75 184.38,-451.75"/>
<text text-anchor="start" x="156.62" y="-458.95" font-family="Courier New" font-weight="bold" font-size="14.00">100</text>
<path fill="none" stroke="darkred" d="M160.12,-448.75C160.12,-448.75 177.88,-448.75 177.88,-448.75 182.62,-448.75 187.38,-453.5 187.38,-458.25 187.38,-458.25 187.38,-467.75 187.38,-467.75 187.38,-472.5 182.62,-477.25 177.88,-477.25 177.88,-477.25 160.12,-477.25 160.12,-477.25 155.38,-477.25 150.62,-472.5 150.62,-467.75 150.62,-467.75 150.62,-458.25 150.62,-458.25 150.62,-453.5 155.38,-448.75 160.12,-448.75"/>
</g>
<!-- empty -->
<g id="node5" class="node">
<title>empty</title>
<polyline fill="none" stroke="darkred" points="335.38,-248.25 382.62,-248.25"/>
<text text-anchor="start" x="338.38" y="-255.45" font-family="Courier New" font-weight="bold" font-size="14.00">empty</text>
<path fill="none" stroke="darkred" d="M341.88,-245.25C341.88,-245.25 376.12,-245.25 376.12,-245.25 380.88,-245.25 385.62,-250 385.62,-254.75 385.62,-254.75 385.62,-264.25 385.62,-264.25 385.62,-269 380.88,-273.75 376.12,-273.75 376.12,-273.75 341.88,-273.75 341.88,-273.75 337.12,-273.75 332.38,-269 332.38,-264.25 332.38,-264.25 332.38,-254.75 332.38,-254.75 332.38,-250 337.12,-245.25 341.88,-245.25"/>
</g>
<!-- 100&#45;&gt;empty -->
<g id="edge2" class="edge">
<title>100&#45;&gt;empty</title>
<path fill="none" stroke="black" d="M160.2,-445.23C145.57,-414.77 120.96,-350.07 154,-313 177.22,-286.95 277.39,-307.43 310,-295 316.89,-292.37 323.72,-288.56 330,-284.41"/>
<polygon fill="black" stroke="black" points="331.99,-287.29 338.1,-278.63 327.93,-281.59 331.99,-287.29"/>
<polygon fill="none" stroke="black" points="157,-349.5 157,-368.25 325,-368.25 325,-349.5 157,-349.5"/>
<text text-anchor="start" x="205" y="-356.75" font-family="Courier New" font-weight="bold" font-size="10.00" fill="blue">Z_EPSILON(,)</text>
<polygon fill="none" stroke="black" points="157,-316 157,-347.5 325,-347.5 325,-316 157,-316"/>
<text text-anchor="start" x="160" y="-335" font-family="Courier New" font-size="10.00" fill="blue"> &#160;&#160;&#160;SHOW(0);</text>
<text text-anchor="start" x="160" y="-322.25" font-family="Courier New" font-size="10.00" fill="blue"> &#160;&#160;&#160;SIGNAL(WIP4,SIG_CLEAR);</text>
<polygon fill="none" stroke="black" points="154,-313 154,-371.25 328,-371.25 328,-313 154,-313"/>
</g>
<!-- sitting -->
<g id="node20" class="node">
<title>sitting</title>
<polyline fill="none" stroke="darkred" stroke-width="3" points="900.62,-628.75 965.38,-628.75"/>
<text text-anchor="start" x="904.12" y="-636.45" font-family="Courier New" font-weight="bold" font-size="14.00">sitting</text>
<path fill="none" stroke="darkred" stroke-width="3" d="M906.79,-623.75C906.79,-623.75 959.21,-623.75 959.21,-623.75 964.79,-623.75 970.38,-629.33 970.38,-634.92 970.38,-634.92 970.38,-646.08 970.38,-646.08 970.38,-651.67 964.79,-657.25 959.21,-657.25 959.21,-657.25 906.79,-657.25 906.79,-657.25 901.21,-657.25 895.62,-651.67 895.62,-646.08 895.62,-646.08 895.62,-634.92 895.62,-634.92 895.62,-629.33 901.21,-623.75 906.79,-623.75"/>
</g>
<!-- empty&#45;&gt;sitting -->
<g id="edge14" class="edge">
<title>empty&#45;&gt;sitting</title>
<path fill="none" stroke="black" d="M354.68,-277.42C343.96,-323.34 320.73,-452.52 374,-536.75 405.62,-586.75 434.35,-583.17 491,-600.25 561.31,-621.45 772.04,-632.84 875.05,-637.28"/>
<polygon fill="black" stroke="black" points="874.81,-640.77 884.95,-637.7 875.1,-633.78 874.81,-640.77"/>
<text text-anchor="start" x="378" y="-460.88" font-family="Courier New" font-weight="bold" font-size="10.00" fill="orange">WAIT(,SIG_SHOW)</text>
</g>
<!-- 20 -->
<g id="node6" class="node">
<title>20</title>
<polyline fill="none" stroke="darkred" points="714.75,-330.88 737.25,-330.88"/>
<text text-anchor="start" x="717.75" y="-338.07" font-family="Courier New" font-weight="bold" font-size="14.00">20</text>
<path fill="none" stroke="darkred" d="M721.25,-327.88C721.25,-327.88 730.75,-327.88 730.75,-327.88 735.5,-327.88 740.25,-332.62 740.25,-337.38 740.25,-337.38 740.25,-346.88 740.25,-346.88 740.25,-351.62 735.5,-356.38 730.75,-356.38 730.75,-356.38 721.25,-356.38 721.25,-356.38 716.5,-356.38 711.75,-351.62 711.75,-346.88 711.75,-346.88 711.75,-337.38 711.75,-337.38 711.75,-332.62 716.5,-327.88 721.25,-327.88"/>
</g>
<!-- playForward -->
<g id="node7" class="node">
<title>playForward</title>
<polyline fill="none" stroke="darkred" points="1191.62,-7 1288.38,-7"/>
<text text-anchor="start" x="1194.62" y="-14.2" font-family="Courier New" font-weight="bold" font-size="14.00">playForward</text>
<path fill="none" stroke="darkred" d="M1198.12,-4C1198.12,-4 1281.88,-4 1281.88,-4 1286.62,-4 1291.38,-8.75 1291.38,-13.5 1291.38,-13.5 1291.38,-23 1291.38,-23 1291.38,-27.75 1286.62,-32.5 1281.88,-32.5 1281.88,-32.5 1198.12,-32.5 1198.12,-32.5 1193.38,-32.5 1188.62,-27.75 1188.62,-23 1188.62,-23 1188.62,-13.5 1188.62,-13.5 1188.62,-8.75 1193.38,-4 1198.12,-4"/>
</g>
<!-- 20&#45;&gt;playForward -->
<g id="edge3" class="edge">
<title>20&#45;&gt;playForward</title>
<path fill="none" stroke="black" d="M726.35,-323.89C728.08,-286.32 737.57,-196.53 788,-147.75 892.63,-46.54 1071,-23.99 1169.48,-19.62"/>
<polygon fill="black" stroke="black" points="1169.42,-23.12 1179.28,-19.24 1169.15,-16.13 1169.42,-23.12"/>
<text text-anchor="start" x="792" y="-174.75" font-family="Courier New" font-weight="bold" font-size="10.00" fill="blue">ASSIGN(WSPRITE,happy)</text>
</g>
<!-- playForward&#45;&gt;sitting -->
<g id="edge16" class="edge">
<title>playForward&#45;&gt;sitting</title>
<path fill="none" stroke="black" d="M1181.03,-20.46C934.6,-25.91 0,-50.53 0,-110.5 0,-464 0,-464 0,-464 0,-565.4 87.61,-565.85 183,-600.25 247.34,-623.46 710.11,-634.99 874.91,-638.4"/>
<polygon fill="black" stroke="black" points="874.67,-641.89 884.74,-638.6 874.81,-634.89 874.67,-641.89"/>
<polygon fill="none" stroke="black" points="3,-273.25 3,-292 303,-292 303,-273.25 3,-273.25"/>
<text text-anchor="start" x="105" y="-280.5" font-family="Courier New" font-weight="bold" font-size="10.00" fill="blue">ASSIGN(BFRAME,0)</text>
<polygon fill="none" stroke="black" points="3,-227 3,-271.25 303,-271.25 303,-227 3,-227"/>
<text text-anchor="start" x="6" y="-258.75" font-family="Courier New" font-size="10.00" fill="blue"> &#160;&#160;&#160;MAP(WSPRITE,WPARM);</text>
<text text-anchor="start" x="6" y="-246" font-family="Courier New" font-size="10.00" fill="blue"> &#160;&#160;&#160;SHOW(WSPRITE);</text>
<text text-anchor="start" x="6" y="-233.25" font-family="Courier New" font-size="10.00" fill="blue"> &#160;&#160;&#160;ANIMATE(0,V_REWIND); //PLAY FORWARD THEN BACK</text>
<polygon fill="none" stroke="black" points="0,-224 0,-295 306,-295 306,-224 0,-224"/>
</g>
<!-- 21 -->
<g id="node8" class="node">
<title>21</title>
<polyline fill="none" stroke="darkred" points="1312.75,-100.25 1335.25,-100.25"/>
<text text-anchor="start" x="1315.75" y="-107.45" font-family="Courier New" font-weight="bold" font-size="14.00">21</text>
<path fill="none" stroke="darkred" d="M1319.25,-97.25C1319.25,-97.25 1328.75,-97.25 1328.75,-97.25 1333.5,-97.25 1338.25,-102 1338.25,-106.75 1338.25,-106.75 1338.25,-116.25 1338.25,-116.25 1338.25,-121 1333.5,-125.75 1328.75,-125.75 1328.75,-125.75 1319.25,-125.75 1319.25,-125.75 1314.5,-125.75 1309.75,-121 1309.75,-116.25 1309.75,-116.25 1309.75,-106.75 1309.75,-106.75 1309.75,-102 1314.5,-97.25 1319.25,-97.25"/>
</g>
<!-- 21&#45;&gt;playForward -->
<g id="edge4" class="edge">
<title>21&#45;&gt;playForward</title>
<path fill="none" stroke="black" d="M1308.2,-93.34C1295.53,-79.57 1277.56,-60.05 1263.25,-44.5"/>
<polygon fill="black" stroke="black" points="1266.1,-42.44 1256.75,-37.45 1260.95,-47.18 1266.1,-42.44"/>
<text text-anchor="start" x="1294" y="-62.75" font-family="Courier New" font-weight="bold" font-size="10.00" fill="blue">ASSIGN(WSPRITE,hurt)</text>
</g>
<!-- 22 -->
<g id="node9" class="node">
<title>22</title>
<polyline fill="none" stroke="darkred" points="659.75,-451.75 682.25,-451.75"/>
<text text-anchor="start" x="662.75" y="-458.95" font-family="Courier New" font-weight="bold" font-size="14.00">22</text>
<path fill="none" stroke="darkred" d="M666.25,-448.75C666.25,-448.75 675.75,-448.75 675.75,-448.75 680.5,-448.75 685.25,-453.5 685.25,-458.25 685.25,-458.25 685.25,-467.75 685.25,-467.75 685.25,-472.5 680.5,-477.25 675.75,-477.25 675.75,-477.25 666.25,-477.25 666.25,-477.25 661.5,-477.25 656.75,-472.5 656.75,-467.75 656.75,-467.75 656.75,-458.25 656.75,-458.25 656.75,-453.5 661.5,-448.75 666.25,-448.75"/>
</g>
<!-- playOnce -->
<g id="node10" class="node">
<title>playOnce</title>
<polyline fill="none" stroke="darkred" points="485,-248.25 557,-248.25"/>
<text text-anchor="start" x="488" y="-255.45" font-family="Courier New" font-weight="bold" font-size="14.00">playOnce</text>
<path fill="none" stroke="darkred" d="M491.5,-245.25C491.5,-245.25 550.5,-245.25 550.5,-245.25 555.25,-245.25 560,-250 560,-254.75 560,-254.75 560,-264.25 560,-264.25 560,-269 555.25,-273.75 550.5,-273.75 550.5,-273.75 491.5,-273.75 491.5,-273.75 486.75,-273.75 482,-269 482,-264.25 482,-264.25 482,-254.75 482,-254.75 482,-250 486.75,-245.25 491.5,-245.25"/>
</g>
<!-- 22&#45;&gt;playOnce -->
<g id="edge5" class="edge">
<title>22&#45;&gt;playOnce</title>
<path fill="none" stroke="black" d="M665.77,-444.97C659.78,-428.31 648.35,-403.44 630,-389.25 605.27,-370.13 585.14,-392.27 562,-371.25 538.53,-349.92 528.45,-313.93 524.15,-288.79"/>
<polygon fill="black" stroke="black" points="527.62,-288.3 522.69,-278.92 520.69,-289.33 527.62,-288.3"/>
<text text-anchor="start" x="566" y="-340" font-family="Courier New" font-weight="bold" font-size="10.00" fill="blue">ASSIGN(WSPRITE,kiss)</text>
</g>
<!-- playOnce&#45;&gt;sitting -->
<g id="edge17" class="edge">
<title>playOnce&#45;&gt;sitting</title>
<path fill="none" stroke="black" d="M514.57,-277.67C505.83,-302.06 490.61,-348.32 485,-389.25 471.7,-486.21 459.68,-558.08 548,-600.25 604.33,-627.14 781.7,-635.68 874.74,-638.33"/>
<polygon fill="black" stroke="black" points="874.59,-641.83 884.68,-638.6 874.78,-634.83 874.59,-641.83"/>
<polygon fill="none" stroke="black" points="488,-476.75 488,-495.5 632,-495.5 632,-476.75 488,-476.75"/>
<text text-anchor="start" x="512" y="-484" font-family="Courier New" font-weight="bold" font-size="10.00" fill="blue">ASSIGN(BFRAME,0)</text>
<polygon fill="none" stroke="black" points="488,-430.5 488,-474.75 632,-474.75 632,-430.5 488,-430.5"/>
<text text-anchor="start" x="491" y="-462.25" font-family="Courier New" font-size="10.00" fill="blue"> &#160;&#160;&#160;MAP(WSPRITE,WPARM);</text>
<text text-anchor="start" x="491" y="-449.5" font-family="Courier New" font-size="10.00" fill="blue"> &#160;&#160;&#160;SHOW(0,WSPRITE);</text>
<text text-anchor="start" x="491" y="-436.75" font-family="Courier New" font-size="10.00" fill="blue"> &#160;&#160;&#160;ANIMATE(0,0);</text>
<polygon fill="none" stroke="black" points="485,-427.5 485,-498.5 635,-498.5 635,-427.5 485,-427.5"/>
</g>
<!-- 23 -->
<g id="node11" class="node">
<title>23</title>
<polyline fill="none" stroke="darkred" points="773.75,-330.88 796.25,-330.88"/>
<text text-anchor="start" x="776.75" y="-338.07" font-family="Courier New" font-weight="bold" font-size="14.00">23</text>
<path fill="none" stroke="darkred" d="M780.25,-327.88C780.25,-327.88 789.75,-327.88 789.75,-327.88 794.5,-327.88 799.25,-332.62 799.25,-337.38 799.25,-337.38 799.25,-346.88 799.25,-346.88 799.25,-351.62 794.5,-356.38 789.75,-356.38 789.75,-356.38 780.25,-356.38 780.25,-356.38 775.5,-356.38 770.75,-351.62 770.75,-346.88 770.75,-346.88 770.75,-337.38 770.75,-337.38 770.75,-332.62 775.5,-327.88 780.25,-327.88"/>
</g>
<!-- 23&#45;&gt;playForward -->
<g id="edge6" class="edge">
<title>23&#45;&gt;playForward</title>
<path fill="none" stroke="black" d="M801,-324.08C835.07,-288.4 918.28,-204.45 999,-147.75 1061.49,-103.86 1140.73,-64.34 1190.92,-41.06"/>
<polygon fill="black" stroke="black" points="1192.17,-44.33 1199.79,-36.97 1189.25,-37.97 1192.17,-44.33"/>
<text text-anchor="start" x="1003" y="-174.75" font-family="Courier New" font-weight="bold" font-size="10.00" fill="blue">ASSIGN(WSPRITE,mad)</text>
</g>
<!-- 24 -->
<g id="node12" class="node">
<title>24</title>
<polyline fill="none" stroke="darkred" points="1145.75,-165.62 1168.25,-165.62"/>
<text text-anchor="start" x="1148.75" y="-172.82" font-family="Courier New" font-weight="bold" font-size="14.00">24</text>
<path fill="none" stroke="darkred" d="M1152.25,-162.62C1152.25,-162.62 1161.75,-162.62 1161.75,-162.62 1166.5,-162.62 1171.25,-167.38 1171.25,-172.12 1171.25,-172.12 1171.25,-181.62 1171.25,-181.62 1171.25,-186.38 1166.5,-191.12 1161.75,-191.12 1161.75,-191.12 1152.25,-191.12 1152.25,-191.12 1147.5,-191.12 1142.75,-186.38 1142.75,-181.62 1142.75,-181.62 1142.75,-172.12 1142.75,-172.12 1142.75,-167.38 1147.5,-162.62 1152.25,-162.62"/>
</g>
<!-- 24&#45;&gt;playForward -->
<g id="edge7" class="edge">
<title>24&#45;&gt;playForward</title>
<path fill="none" stroke="black" d="M1155.65,-158.84C1154.99,-141.48 1155.96,-114.2 1166,-93.25 1175.32,-73.8 1191.91,-56.48 1207.02,-43.49"/>
<polygon fill="black" stroke="black" points="1209.02,-46.38 1214.51,-37.33 1204.57,-40.98 1209.02,-46.38"/>
<text text-anchor="start" x="1170" y="-109.38" font-family="Courier New" font-weight="bold" font-size="10.00" fill="blue">ASSIGN(WSPRITE,sad)</text>
</g>
<!-- 25 -->
<g id="node13" class="node">
<title>25</title>
<polyline fill="none" stroke="darkred" points="1635.75,-330.88 1658.25,-330.88"/>
<text text-anchor="start" x="1638.75" y="-338.07" font-family="Courier New" font-weight="bold" font-size="14.00">25</text>
<path fill="none" stroke="darkred" d="M1642.25,-327.88C1642.25,-327.88 1651.75,-327.88 1651.75,-327.88 1656.5,-327.88 1661.25,-332.62 1661.25,-337.38 1661.25,-337.38 1661.25,-346.88 1661.25,-346.88 1661.25,-351.62 1656.5,-356.38 1651.75,-356.38 1651.75,-356.38 1642.25,-356.38 1642.25,-356.38 1637.5,-356.38 1632.75,-351.62 1632.75,-346.88 1632.75,-346.88 1632.75,-337.38 1632.75,-337.38 1632.75,-332.62 1637.5,-327.88 1642.25,-327.88"/>
</g>
<!-- 25&#45;&gt;playForward -->
<g id="edge8" class="edge">
<title>25&#45;&gt;playForward</title>
<path fill="none" stroke="black" d="M1646.43,-323.89C1644.38,-287.48 1634.97,-201.65 1592,-147.75 1523.44,-61.76 1391.93,-33.3 1310.51,-23.89"/>
<polygon fill="black" stroke="black" points="1311.19,-20.45 1300.87,-22.85 1310.44,-27.4 1311.19,-20.45"/>
<text text-anchor="start" x="1626" y="-174.75" font-family="Courier New" font-weight="bold" font-size="10.00" fill="blue">ASSIGN(WSPRITE,surprised)</text>
</g>
<!-- 26 -->
<g id="node14" class="node">
<title>26</title>
<polyline fill="none" stroke="darkred" points="1808.75,-165.62 1831.25,-165.62"/>
<text text-anchor="start" x="1811.75" y="-172.82" font-family="Courier New" font-weight="bold" font-size="14.00">26</text>
<path fill="none" stroke="darkred" d="M1815.25,-162.62C1815.25,-162.62 1824.75,-162.62 1824.75,-162.62 1829.5,-162.62 1834.25,-167.38 1834.25,-172.12 1834.25,-172.12 1834.25,-181.62 1834.25,-181.62 1834.25,-186.38 1829.5,-191.12 1824.75,-191.12 1824.75,-191.12 1815.25,-191.12 1815.25,-191.12 1810.5,-191.12 1805.75,-186.38 1805.75,-181.62 1805.75,-181.62 1805.75,-172.12 1805.75,-172.12 1805.75,-167.38 1810.5,-162.62 1815.25,-162.62"/>
</g>
<!-- 26&#45;&gt;playForward -->
<g id="edge9" class="edge">
<title>26&#45;&gt;playForward</title>
<path fill="none" stroke="black" d="M1794.18,-158.76C1788.55,-155.08 1782.59,-151.26 1777,-147.75 1763.82,-139.49 1760.22,-137.93 1747,-129.75 1694.1,-97.02 1687.86,-74.6 1629,-54.5 1571.88,-35 1406.1,-25.57 1310.4,-21.64"/>
<polygon fill="black" stroke="black" points="1310.74,-18.15 1300.6,-21.25 1310.46,-25.15 1310.74,-18.15"/>
<text text-anchor="start" x="1751" y="-109.38" font-family="Courier New" font-weight="bold" font-size="10.00" fill="blue">ASSIGN(WSPRITE,stress)</text>
</g>
<!-- 27 -->
<g id="node15" class="node">
<title>27</title>
<polyline fill="none" stroke="darkred" points="1911.75,-100.25 1934.25,-100.25"/>
<text text-anchor="start" x="1914.75" y="-107.45" font-family="Courier New" font-weight="bold" font-size="14.00">27</text>
<path fill="none" stroke="darkred" d="M1918.25,-97.25C1918.25,-97.25 1927.75,-97.25 1927.75,-97.25 1932.5,-97.25 1937.25,-102 1937.25,-106.75 1937.25,-106.75 1937.25,-116.25 1937.25,-116.25 1937.25,-121 1932.5,-125.75 1927.75,-125.75 1927.75,-125.75 1918.25,-125.75 1918.25,-125.75 1913.5,-125.75 1908.75,-121 1908.75,-116.25 1908.75,-116.25 1908.75,-106.75 1908.75,-106.75 1908.75,-102 1913.5,-97.25 1918.25,-97.25"/>
</g>
<!-- 27&#45;&gt;playForward -->
<g id="edge10" class="edge">
<title>27&#45;&gt;playForward</title>
<path fill="none" stroke="black" d="M1896,-100.92C1858.43,-88.02 1787.98,-65.44 1726,-54.5 1579.85,-28.71 1405.77,-21.71 1310.68,-19.86"/>
<polygon fill="black" stroke="black" points="1310.78,-16.36 1300.72,-19.68 1310.65,-23.36 1310.78,-16.36"/>
<text text-anchor="start" x="1817" y="-62.75" font-family="Courier New" font-weight="bold" font-size="10.00" fill="blue">ASSIGN(WSPRITE,wave)</text>
</g>
<!-- 30 -->
<g id="node16" class="node">
<title>30</title>
<polyline fill="none" stroke="darkred" points="1082.75,-451.75 1105.25,-451.75"/>
<text text-anchor="start" x="1085.75" y="-458.95" font-family="Courier New" font-weight="bold" font-size="14.00">30</text>
<path fill="none" stroke="darkred" d="M1089.25,-448.75C1089.25,-448.75 1098.75,-448.75 1098.75,-448.75 1103.5,-448.75 1108.25,-453.5 1108.25,-458.25 1108.25,-458.25 1108.25,-467.75 1108.25,-467.75 1108.25,-472.5 1103.5,-477.25 1098.75,-477.25 1098.75,-477.25 1089.25,-477.25 1089.25,-477.25 1084.5,-477.25 1079.75,-472.5 1079.75,-467.75 1079.75,-467.75 1079.75,-458.25 1079.75,-458.25 1079.75,-453.5 1084.5,-448.75 1089.25,-448.75"/>
</g>
<!-- playDead -->
<g id="node17" class="node">
<title>playDead</title>
<polyline fill="none" stroke="darkred" points="968,-248.25 1040,-248.25"/>
<text text-anchor="start" x="971" y="-255.45" font-family="Courier New" font-weight="bold" font-size="14.00">playDead</text>
<path fill="none" stroke="darkred" d="M974.5,-245.25C974.5,-245.25 1033.5,-245.25 1033.5,-245.25 1038.25,-245.25 1043,-250 1043,-254.75 1043,-254.75 1043,-264.25 1043,-264.25 1043,-269 1038.25,-273.75 1033.5,-273.75 1033.5,-273.75 974.5,-273.75 974.5,-273.75 969.75,-273.75 965,-269 965,-264.25 965,-264.25 965,-254.75 965,-254.75 965,-250 969.75,-245.25 974.5,-245.25"/>
</g>
<!-- 30&#45;&gt;playDead -->
<g id="edge11" class="edge">
<title>30&#45;&gt;playDead</title>
<path fill="none" stroke="black" d="M1087.94,-445.04C1081.45,-428.92 1069.76,-404.86 1053,-389.25 1039.33,-376.51 1025.76,-386.53 1015,-371.25 998.15,-347.33 997.39,-312.96 999.57,-288.87"/>
<polygon fill="black" stroke="black" points="1003.02,-289.48 1000.7,-279.15 996.07,-288.68 1003.02,-289.48"/>
<text text-anchor="start" x="1019" y="-340" font-family="Courier New" font-weight="bold" font-size="10.00" fill="blue">ASSIGN(WSPRITE,dead)</text>
</g>
<!-- playDead&#45;&gt;sitting -->
<g id="edge15" class="edge">
<title>playDead&#45;&gt;sitting</title>
<path fill="none" stroke="black" d="M964.46,-277.68C923.74,-297.8 862.59,-335.37 836,-389.25 806.99,-448.04 794.85,-485.72 836,-536.75 859.69,-566.13 892.98,-527.4 919,-554.75 932.09,-568.51 935.62,-589.56 935.86,-607.23"/>
<polygon fill="black" stroke="black" points="932.37,-606.93 935.64,-617.01 939.37,-607.09 932.37,-606.93"/>
<polygon fill="none" stroke="black" points="839,-515 839,-533.75 1055,-533.75 1055,-515 839,-515"/>
<text text-anchor="start" x="899" y="-522.25" font-family="Courier New" font-weight="bold" font-size="10.00" fill="blue">ASSIGN(BFRAME,0)</text>
<polygon fill="none" stroke="black" points="839,-392.25 839,-513 1055,-513 1055,-392.25 839,-392.25"/>
<text text-anchor="start" x="842" y="-500.5" font-family="Courier New" font-size="10.00" fill="blue"> &#160;&#160;&#160;MAP(WSPRITE,WPARM);</text>
<text text-anchor="start" x="842" y="-487.75" font-family="Courier New" font-size="10.00" fill="blue"> &#160;&#160;&#160;SHOW(0,WSPRITE);</text>
<text text-anchor="start" x="842" y="-475" font-family="Courier New" font-size="10.00" fill="blue"> &#160;&#160;&#160;VIDEO(0,WSPRITE);</text>
<text text-anchor="start" x="842" y="-462.25" font-family="Courier New" font-size="10.00" fill="blue"> &#160;&#160;&#160;ANIMATE(0,0);</text>
<text text-anchor="start" x="842" y="-449.5" font-family="Courier New" font-size="10.00" fill="blue"> &#160;&#160;&#160;ASSIGN(LENERGY,1);</text>
<text text-anchor="start" x="842" y="-436.75" font-family="Courier New" font-size="10.00" fill="blue"> &#160;&#160;&#160;ASSIGN(LWEALTH,0);</text>
<text text-anchor="start" x="842" y="-424" font-family="Courier New" font-size="10.00" fill="blue"> &#160;&#160;&#160;SIGNAL(SMP_VIAL,SIG_DRAIN);</text>
<text text-anchor="start" x="842" y="-411.25" font-family="Courier New" font-size="10.00" fill="blue"> &#160;&#160;&#160;SIGNAL(SID_PERSIST,SIG_UPDATE);</text>
<text text-anchor="start" x="842" y="-398.5" font-family="Courier New" font-size="10.00" fill="blue"> &#160;&#160;&#160;LOADVIEW(IDV_VIL8);</text>
<polygon fill="none" stroke="black" points="836,-389.25 836,-536.75 1058,-536.75 1058,-389.25 836,-389.25"/>
</g>
<!-- 50 -->
<g id="node18" class="node">
<title>50</title>
<polyline fill="none" stroke="darkred" points="1362.75,-451.75 1385.25,-451.75"/>
<text text-anchor="start" x="1365.75" y="-458.95" font-family="Courier New" font-weight="bold" font-size="14.00">50</text>
<path fill="none" stroke="darkred" d="M1369.25,-448.75C1369.25,-448.75 1378.75,-448.75 1378.75,-448.75 1383.5,-448.75 1388.25,-453.5 1388.25,-458.25 1388.25,-458.25 1388.25,-467.75 1388.25,-467.75 1388.25,-472.5 1383.5,-477.25 1378.75,-477.25 1378.75,-477.25 1369.25,-477.25 1369.25,-477.25 1364.5,-477.25 1359.75,-472.5 1359.75,-467.75 1359.75,-467.75 1359.75,-458.25 1359.75,-458.25 1359.75,-453.5 1364.5,-448.75 1369.25,-448.75"/>
</g>
<!-- 51 -->
<g id="node19" class="node">
<title>51</title>
<polyline fill="none" stroke="darkred" points="1362.75,-248.25 1385.25,-248.25"/>
<text text-anchor="start" x="1365.75" y="-255.45" font-family="Courier New" font-weight="bold" font-size="14.00">51</text>
<path fill="none" stroke="darkred" d="M1369.25,-245.25C1369.25,-245.25 1378.75,-245.25 1378.75,-245.25 1383.5,-245.25 1388.25,-250 1388.25,-254.75 1388.25,-254.75 1388.25,-264.25 1388.25,-264.25 1388.25,-269 1383.5,-273.75 1378.75,-273.75 1378.75,-273.75 1369.25,-273.75 1369.25,-273.75 1364.5,-273.75 1359.75,-269 1359.75,-264.25 1359.75,-264.25 1359.75,-254.75 1359.75,-254.75 1359.75,-250 1364.5,-245.25 1369.25,-245.25"/>
</g>
<!-- 50&#45;&gt;51 -->
<g id="edge12" class="edge">
<title>50&#45;&gt;51</title>
<path fill="none" stroke="black" d="M1378.07,-444.97C1384.15,-417.25 1394.25,-360.66 1388,-313 1386.93,-304.83 1384.96,-296.12 1382.83,-288.2"/>
<polygon fill="black" stroke="black" points="1386.24,-287.39 1380.1,-278.75 1379.51,-289.33 1386.24,-287.39"/>
<text text-anchor="start" x="1393" y="-340" font-family="Courier New" font-weight="bold" font-size="10.00" fill="blue">VIDEO(0,IDS_EXPLODE1)</text>
</g>
<!-- 51&#45;&gt;21 -->
<g id="edge13" class="edge">
<title>51&#45;&gt;21</title>
<path fill="none" stroke="black" d="M1368.17,-241.47C1359.62,-216.52 1343.62,-169.78 1333.4,-139.95"/>
<polygon fill="black" stroke="black" points="1336.84,-139.18 1330.29,-130.86 1330.22,-141.45 1336.84,-139.18"/>
<polygon fill="none" stroke="black" points="1357,-184.25 1357,-203 1585,-203 1585,-184.25 1357,-184.25"/>
<text text-anchor="start" x="1396" y="-191.5" font-family="Courier New" font-weight="bold" font-size="10.00" fill="blue">PLAYWAVE(0,SOUND_EXPLODE)</text>
<polygon fill="none" stroke="black" points="1357,-150.75 1357,-182.25 1585,-182.25 1585,-150.75 1357,-150.75"/>
<text text-anchor="start" x="1360" y="-169.75" font-family="Courier New" font-size="10.00" fill="blue"> &#160;&#160;&#160;&#160;&#160;&#160;&#160;&#160;&#160;&#160;&#160;SUBI(LENERGY,1);</text>
<text text-anchor="start" x="1360" y="-157" font-family="Courier New" font-size="10.00" fill="blue"> &#160;&#160;&#160;&#160;&#160;&#160;&#160;&#160;&#160;&#160;&#160;SIGNAL(SID_AURA,SIG_SUB);</text>
<polygon fill="none" stroke="black" points="1354,-147.75 1354,-206 1588,-206 1588,-147.75 1354,-147.75"/>
</g>
<!-- sitting&#45;&gt;present -->
<g id="edge20" class="edge">
<title>sitting&#45;&gt;present</title>
<path fill="none" stroke="black" d="M933,-662.69C933,-756.53 933,-1134.86 933,-1242.37"/>
<polygon fill="black" stroke="black" points="929.5,-1242.32 933,-1252.32 936.5,-1242.32 929.5,-1242.32"/>
<polygon fill="none" stroke="black" points="936,-895.5 936,-914.25 1530,-914.25 1530,-895.5 936,-895.5"/>
<text text-anchor="start" x="1185" y="-902.75" font-family="Courier New" font-weight="bold" font-size="10.00" fill="orange">WAIT(0,SIG_MYID)</text>
<polygon fill="none" stroke="black" points="936,-785.5 936,-893.5 1530,-893.5 1530,-785.5 936,-785.5"/>
<text text-anchor="start" x="939" y="-881" font-family="Courier New" font-size="10.00" fill="blue"> &#160;&#160;&#160;CLEAR(WSPRITE);</text>
<text text-anchor="start" x="939" y="-868.25" font-family="Courier New" font-size="10.00" fill="blue"> &#160;&#160;&#160;&#160;SHOW(0);</text>
<text text-anchor="start" x="939" y="-855.5" font-family="Courier New" font-size="10.00" fill="blue"> &#160;&#160;&#160;&#160;predicate active_character(name);</text>
<text text-anchor="start" x="939" y="-842.75" font-family="Courier New" font-size="10.00" fill="blue"> &#160;&#160;&#160;&#160;active_character(?BPARM)?</text>
<text text-anchor="start" x="939" y="-830" font-family="Courier New" font-size="10.00" fill="blue"> &#160;&#160;&#160;&#160;predicate localplayer(name,viewname, wealth,karma, energy,strength, wisdom, gender, culture);</text>
<text text-anchor="start" x="939" y="-817.25" font-family="Courier New" font-size="10.00" fill="blue"> &#160;&#160;&#160;&#160;localplayer(BPARM, ?WTEMP1, ?LWEALTH, ?LKARMA,?LENERGY,?LSTRENGTH, ?LWISDOM, ?LSEX, ?WTEMP2)?</text>
<text text-anchor="start" x="939" y="-804.5" font-family="Courier New" font-size="10.00" fill="blue"> &#160;&#160;&#160;&#160;SIGNAL(SID_AURA, SIG_MYAURA);</text>
<text text-anchor="start" x="939" y="-791.75" font-family="Courier New" font-size="10.00" fill="blue"> &#160;&#160;&#160;&#160;SIGNAL(SID_HALO, SIG_MYHALO);</text>
<polygon fill="none" stroke="black" points="933,-782.5 933,-917.25 1533,-917.25 1533,-782.5 933,-782.5"/>
</g>
<!-- sitting&#45;&gt;present -->
<g id="edge32" class="edge">
<title>sitting&#45;&gt;present</title>
<path fill="none" stroke="black" d="M979.53,-645.1C1108.74,-656.15 1467.06,-694.35 1537,-782.5 1717.75,-1010.31 1165.51,-1200.92 986.82,-1255.38"/>
<polygon fill="black" stroke="black" points="985.86,-1252.01 977.3,-1258.26 987.88,-1258.71 985.86,-1252.01"/>
<text text-anchor="start" x="1576" y="-847.75" font-family="Courier New" font-weight="bold" font-size="10.00" fill="orange">WAIT(0,0)</text>
</g>
<!-- sitting&#45;&gt;100 -->
<g id="edge31" class="edge">
<title>sitting&#45;&gt;100</title>
<path fill="none" stroke="black" d="M886.15,-639.88C735.68,-640.72 271.37,-640 218,-600.25 184.04,-574.95 173.55,-523.94 170.36,-492.02"/>
<polygon fill="black" stroke="black" points="173.87,-492.01 169.58,-482.32 166.89,-492.57 173.87,-492.01"/>
<text text-anchor="start" x="222" y="-575.38" font-family="Courier New" font-weight="bold" font-size="10.00" fill="orange">WAIT(0,SIG_CLEAR)</text>
</g>
<!-- sitting&#45;&gt;20 -->
<g id="edge21" class="edge">
<title>sitting&#45;&gt;20</title>
<path fill="none" stroke="black" d="M886.28,-638.9C822.66,-636.98 713.83,-629.4 689,-600.25 675.89,-584.86 681.26,-573.43 689,-554.75 693.33,-544.3 702.16,-546.98 707,-536.75 732.59,-482.63 731.85,-410.63 728.98,-371.46"/>
<polygon fill="black" stroke="black" points="732.48,-371.36 728.15,-361.69 725.51,-371.95 732.48,-371.36"/>
<text text-anchor="start" x="693" y="-575.38" font-family="Courier New" font-weight="bold" font-size="10.00" fill="orange">WAIT(0,SIG_HAPPY)</text>
</g>
<!-- sitting&#45;&gt;21 -->
<g id="edge22" class="edge">
<title>sitting&#45;&gt;21</title>
<path fill="none" stroke="black" d="M979.65,-635.55C1036.84,-629.99 1129.77,-618.48 1159,-600.25 1180.2,-587.03 1171.35,-568.8 1192,-554.75 1218.56,-536.68 1241.31,-561.33 1262,-536.75 1326.25,-460.43 1265.27,-411.67 1280,-313 1289.28,-250.85 1306.65,-179.19 1316.56,-140.61"/>
<polygon fill="black" stroke="black" points="1319.94,-141.54 1319.06,-130.98 1313.16,-139.78 1319.94,-141.54"/>
<text text-anchor="start" x="1284" y="-340" font-family="Courier New" font-weight="bold" font-size="10.00" fill="orange">WAIT(0,SIG_HURT)</text>
</g>
<!-- sitting&#45;&gt;22 -->
<g id="edge23" class="edge">
<title>sitting&#45;&gt;22</title>
<path fill="none" stroke="black" d="M886.24,-637.99C791.15,-634.45 582.4,-624.02 561,-600.25 547.47,-585.22 548.64,-570.75 561,-554.75 580.38,-529.67 604.89,-556.09 630,-536.75 644.79,-525.36 655.07,-507.02 661.64,-491.61"/>
<polygon fill="black" stroke="black" points="664.84,-493.04 665.23,-482.46 658.32,-490.49 664.84,-493.04"/>
<text text-anchor="start" x="565" y="-575.38" font-family="Courier New" font-weight="bold" font-size="10.00" fill="orange">WAIT(0,SIG_KISS)</text>
</g>
<!-- sitting&#45;&gt;23 -->
<g id="edge24" class="edge">
<title>sitting&#45;&gt;23</title>
<path fill="none" stroke="black" d="M886.16,-633.56C863.54,-628.35 837.75,-618.58 821,-600.25 790.85,-567.25 785.81,-431.05 785.07,-371.36"/>
<polygon fill="black" stroke="black" points="788.57,-371.66 784.98,-361.69 781.57,-371.72 788.57,-371.66"/>
<text text-anchor="start" x="825" y="-575.38" font-family="Courier New" font-weight="bold" font-size="10.00" fill="orange">WAIT(0,SIG_MAD)</text>
</g>
<!-- sitting&#45;&gt;24 -->
<g id="edge25" class="edge">
<title>sitting&#45;&gt;24</title>
<path fill="none" stroke="black" d="M979.8,-637.15C1034.07,-633.35 1118.71,-623.74 1139,-600.25 1164.61,-570.61 1160.03,-296.74 1157.8,-206.53"/>
<polygon fill="black" stroke="black" points="1161.3,-206.49 1157.54,-196.58 1154.3,-206.67 1161.3,-206.49"/>
<text text-anchor="start" x="1164" y="-460.88" font-family="Courier New" font-weight="bold" font-size="10.00" fill="orange">WAIT(0,SIG_SAD)</text>
</g>
<!-- sitting&#45;&gt;25 -->
<g id="edge26" class="edge">
<title>sitting&#45;&gt;25</title>
<path fill="none" stroke="black" d="M979.81,-638.71C1136.3,-635.84 1632.71,-624.83 1656,-600.25 1686.46,-568.09 1664.32,-431.43 1652.8,-371.49"/>
<polygon fill="black" stroke="black" points="1656.25,-370.88 1650.88,-361.74 1649.38,-372.23 1656.25,-370.88"/>
<text text-anchor="start" x="1674" y="-575.38" font-family="Courier New" font-weight="bold" font-size="10.00" fill="orange">WAIT(0,SIG_SURPRISED)</text>
</g>
<!-- sitting&#45;&gt;26 -->
<g id="edge27" class="edge">
<title>sitting&#45;&gt;26</title>
<path fill="none" stroke="black" d="M979.81,-639.15C1157.09,-637.58 1778.76,-629.98 1808,-600.25 1862.55,-544.8 1834.96,-291.37 1823.88,-206.02"/>
<polygon fill="black" stroke="black" points="1827.36,-205.65 1822.58,-196.19 1820.42,-206.57 1827.36,-205.65"/>
<text text-anchor="start" x="1844" y="-460.88" font-family="Courier New" font-weight="bold" font-size="10.00" fill="orange">WAIT(0,SIG_STRESS)</text>
</g>
<!-- sitting&#45;&gt;27 -->
<g id="edge28" class="edge">
<title>sitting&#45;&gt;27</title>
<path fill="none" stroke="black" d="M979.61,-638.62C1152.22,-635.21 1749.41,-621.94 1832,-600.25 1892.27,-584.42 1924.41,-589.86 1957,-536.75 2036.6,-407.03 1966.1,-211.4 1935.5,-139.9"/>
<polygon fill="black" stroke="black" points="1938.78,-138.67 1931.57,-130.91 1932.37,-141.47 1938.78,-138.67"/>
<text text-anchor="start" x="1997" y="-340" font-family="Courier New" font-weight="bold" font-size="10.00" fill="orange">WAIT(0,SIG_WAVE)</text>
</g>
<!-- sitting&#45;&gt;30 -->
<g id="edge29" class="edge">
<title>sitting&#45;&gt;30</title>
<path fill="none" stroke="black" d="M958.59,-618.4C991.49,-591.14 1045.34,-546.07 1053,-536.75 1064.3,-523.01 1074.18,-505.72 1081.42,-491.45"/>
<polygon fill="black" stroke="black" points="1084.5,-493.11 1085.75,-482.59 1078.21,-490.04 1084.5,-493.11"/>
<text text-anchor="start" x="1038" y="-575.38" font-family="Courier New" font-weight="bold" font-size="10.00" fill="orange">WAIT(0,SIG_DEAD)</text>
</g>
<!-- sitting&#45;&gt;50 -->
<g id="edge30" class="edge">
<title>sitting&#45;&gt;50</title>
<path fill="none" stroke="black" d="M979.71,-637.4C1044.24,-633.65 1156.42,-623.88 1189,-600.25 1207.34,-586.95 1194.04,-568.57 1212,-554.75 1242.61,-531.2 1262.8,-554.68 1297,-536.75 1319.13,-525.15 1339.45,-505.38 1353.66,-489.37"/>
<polygon fill="black" stroke="black" points="1356.05,-491.96 1359.91,-482.09 1350.74,-487.4 1356.05,-491.96"/>
<polygon fill="none" stroke="black" points="1215,-578.5 1215,-597.25 1653,-597.25 1653,-578.5 1215,-578.5"/>
<text text-anchor="start" x="1386" y="-585.75" font-family="Courier New" font-weight="bold" font-size="10.00" fill="orange">WAIT(0,SIG_BOMB)</text>
<polygon fill="none" stroke="black" points="1215,-557.75 1215,-576.5 1653,-576.5 1653,-557.75 1215,-557.75"/>
<text text-anchor="start" x="1218" y="-564" font-family="Courier New" font-size="10.00" fill="blue"> &#160;&#160;&#160;&#160;WRITE(&quot;I am S_ID and I receive signals! This one is a SIG_BOMB! &quot;);</text>
<polygon fill="none" stroke="black" points="1212,-554.75 1212,-600.25 1656,-600.25 1656,-554.75 1212,-554.75"/>
</g>
<!-- setId&#45;&gt;sitting -->
<g id="edge19" class="edge">
<title>setId&#45;&gt;sitting</title>
<path fill="none" stroke="black" d="M593.76,-831.66C606.38,-796.82 639.98,-718.13 697,-680.75 725.56,-662.03 814.77,-651.17 874.95,-645.79"/>
<polygon fill="black" stroke="black" points="875.03,-649.3 884.69,-644.95 874.43,-642.32 875.03,-649.3"/>
<polygon fill="none" stroke="black" points="700,-742.75 700,-761.5 916,-761.5 916,-742.75 700,-742.75"/>
<text text-anchor="start" x="745" y="-750" font-family="Courier New" font-weight="bold" font-size="10.00" fill="blue">ASSIGN(WSPRITE,happy)</text>
<polygon fill="none" stroke="black" points="700,-683.75 700,-740.75 916,-740.75 916,-683.75 700,-683.75"/>
<text text-anchor="start" x="703" y="-728.25" font-family="Courier New" font-size="10.00" fill="blue"> &#160;&#160;&#160;MAP(WSPRITE,WPARM);</text>
<text text-anchor="start" x="703" y="-715.5" font-family="Courier New" font-size="10.00" fill="blue"> &#160;&#160;&#160;ASSIGN(BFRAME,0);</text>
<text text-anchor="start" x="703" y="-702.75" font-family="Courier New" font-size="10.00" fill="blue"> &#160;&#160;&#160;SHOW(WSPRITE);</text>
<text text-anchor="start" x="703" y="-690" font-family="Courier New" font-size="10.00" fill="blue"> &#160;&#160;&#160;SIGNAL(SID_PERSIST,SIG_UPDATE);</text>
<polygon fill="none" stroke="black" points="697,-680.75 697,-764.5 919,-764.5 919,-680.75 697,-680.75"/>
</g>
<!-- status -->
<g id="node22" class="node">
<title>status</title>
<polygon fill="none" stroke="black" points="978,-1474.25 978,-1553.25 1450,-1553.25 1450,-1474.25 978,-1474.25"/>
<polygon fill="none" stroke="black" points="989,-1527.5 989,-1546.25 1439,-1546.25 1439,-1527.5 989,-1527.5"/>
<text text-anchor="start" x="1196" y="-1534.75" font-family="Courier New" font-weight="bold" font-size="10.00">SID_ID</text>
<polygon fill="none" stroke="black" points="989,-1481.25 989,-1525.5 1439,-1525.5 1439,-1481.25 989,-1481.25"/>
<text text-anchor="start" x="992" y="-1513" font-family="Courier New" font-size="10.00" fill="green">VIEW::IDV_ID @pos(x:0, y:0, h:101, w:171)</text>
<text text-anchor="start" x="992" y="-1500.25" font-family="Courier New" font-size="10.00" fill="green">SID_ID::M_ID(&#39;&#39;,&#39;&#39;,&#39;0&#39;,&#39;SID_AURA&#39;,&#39;&#39;,&#39;&#39;)</text>
<text text-anchor="start" x="992" y="-1487.5" font-family="Courier New" font-size="10.00" fill="green">{state:&#39;sitting&#39;: wParm:F3 wSprite:IDS_FID3HAPPY bFrame:0 Top:0 Left:0 Z:0</text>
<polygon fill="none" stroke="black" points="986,-1478.25 986,-1549.25 1442,-1549.25 1442,-1478.25 986,-1478.25"/>
</g>
</g>
</svg>
