<?xml version="1.0" encoding="UTF-8" standalone="no"?>
<!DOCTYPE svg PUBLIC "-//W3C//DTD SVG 1.1//EN"
 "http://www.w3.org/Graphics/SVG/1.1/DTD/svg11.dtd">
<!-- Generated by graphviz version 10.0.1 (20240210.2158)
 -->
<!-- Title: Automaton Pages: 1 -->
<svg width="963pt" height="528pt"
 viewBox="0.00 0.00 962.79 528.32" xmlns="http://www.w3.org/2000/svg" xmlns:xlink="http://www.w3.org/1999/xlink">
<g id="graph0" class="graph" transform="scale(1 1) rotate(0) translate(4 524.32)">
<title>Automaton</title>
<polygon fill="white" stroke="none" points="-4,4 -4,-524.32 958.79,-524.32 958.79,4 -4,4"/>
<!-- filename -->
<g id="node1" class="node">
<title>filename</title>
<polygon fill="none" stroke="black" points="286.79,-453.57 286.79,-507.07 410.79,-507.07 410.79,-453.57 286.79,-453.57"/>
<polygon fill="none" stroke="black" points="297.79,-481.32 297.79,-500.07 399.79,-500.07 399.79,-481.32 297.79,-481.32"/>
<text text-anchor="start" x="300.79" y="-488.57" font-family="Courier New" font-weight="bold" font-size="10.00">SID_AURA::M_AURA</text>
<polygon fill="none" stroke="black" points="297.79,-460.57 297.79,-479.32 399.79,-479.32 399.79,-460.57 297.79,-460.57"/>
<text text-anchor="start" x="303.79" y="-466.82" font-family="Courier New" font-size="10.00" fill="brown">start state = 0</text>
<polygon fill="none" stroke="black" points="294.79,-457.57 294.79,-503.07 402.79,-503.07 402.79,-457.57 294.79,-457.57"/>
</g>
<!-- 0 -->
<g id="node2" class="node">
<title>0</title>
<polyline fill="none" stroke="darkred" points="448.66,-469.07 462.91,-469.07"/>
<text text-anchor="start" x="451.66" y="-476.27" font-family="Courier New" font-weight="bold" font-size="14.00">0</text>
<path fill="none" stroke="darkred" d="M452.41,-466.07C452.41,-466.07 459.16,-466.07 459.16,-466.07 462.54,-466.07 465.91,-469.44 465.91,-472.82 465.91,-472.82 465.91,-487.82 465.91,-487.82 465.91,-491.19 462.54,-494.57 459.16,-494.57 459.16,-494.57 452.41,-494.57 452.41,-494.57 449.04,-494.57 445.66,-491.19 445.66,-487.82 445.66,-487.82 445.66,-472.82 445.66,-472.82 445.66,-469.44 449.04,-466.07 452.41,-466.07"/>
</g>
<!-- energyChange -->
<g id="node3" class="node">
<title>energyChange</title>
<polyline fill="none" stroke="darkred" points="403.29,-354.07 508.29,-354.07"/>
<text text-anchor="start" x="406.29" y="-361.27" font-family="Courier New" font-weight="bold" font-size="14.00">energyChange</text>
<path fill="none" stroke="darkred" d="M409.79,-351.07C409.79,-351.07 501.79,-351.07 501.79,-351.07 506.54,-351.07 511.29,-355.82 511.29,-360.57 511.29,-360.57 511.29,-370.07 511.29,-370.07 511.29,-374.82 506.54,-379.57 501.79,-379.57 501.79,-379.57 409.79,-379.57 409.79,-379.57 405.04,-379.57 400.29,-374.82 400.29,-370.07 400.29,-370.07 400.29,-360.57 400.29,-360.57 400.29,-355.82 405.04,-351.07 409.79,-351.07"/>
</g>
<!-- 0&#45;&gt;energyChange -->
<g id="edge1" class="edge">
<title>0&#45;&gt;energyChange</title>
<path fill="none" stroke="black" d="M455.79,-462.16C455.79,-444.22 455.79,-415.77 455.79,-394.52"/>
<polygon fill="black" stroke="black" points="459.29,-394.79 455.79,-384.79 452.29,-394.79 459.29,-394.79"/>
<text text-anchor="start" x="459.79" y="-409.82" font-family="Courier New" font-weight="bold" font-size="10.00" fill="orange">WAIT(0,SIG_MYAURA)</text>
</g>
<!-- 1 -->
<g id="node4" class="node">
<title>1</title>
<polyline fill="none" stroke="darkred" stroke-width="3" points="448.16,-20.69 463.41,-20.69"/>
<text text-anchor="start" x="451.66" y="-28.39" font-family="Courier New" font-weight="bold" font-size="14.00">1</text>
<path fill="none" stroke="darkred" stroke-width="3" d="M451.58,-15.69C451.58,-15.69 460,-15.69 460,-15.69 464.2,-15.69 468.41,-19.9 468.41,-24.11 468.41,-24.11 468.41,-40.78 468.41,-40.78 468.41,-44.99 464.2,-49.19 460,-49.19 460,-49.19 451.58,-49.19 451.58,-49.19 447.37,-49.19 443.16,-44.99 443.16,-40.78 443.16,-40.78 443.16,-24.11 443.16,-24.11 443.16,-19.9 447.37,-15.69 451.58,-15.69"/>
</g>
<!-- energyChange&#45;&gt;1 -->
<g id="edge7" class="edge">
<title>energyChange&#45;&gt;1</title>
<path fill="none" stroke="black" d="M392.5,-363.33C285.45,-361 78.03,-353.36 55.79,-329.07 -19.1,-247.29 -18,-162.35 55.79,-79.57 79.65,-52.8 322.31,-39.31 417.64,-35.01"/>
<polygon fill="black" stroke="black" points="417.68,-38.51 427.52,-34.57 417.37,-31.52 417.68,-38.51"/>
<polygon fill="none" stroke="black" points="58.79,-307.32 58.79,-326.07 298.79,-326.07 298.79,-307.32 58.79,-307.32"/>
<text text-anchor="start" x="109.79" y="-314.57" font-family="Courier New" font-weight="bold" font-size="10.00" fill="blue">ASSIGN(WPARM,V_REVERSE)</text>
<polygon fill="none" stroke="black" points="58.79,-82.57 58.79,-305.32 298.79,-305.32 298.79,-82.57 58.79,-82.57"/>
<text text-anchor="start" x="61.79" y="-292.82" font-family="Courier New" font-size="10.00" fill="blue"> &#160;&#160;&#160;&#160;&#160;&#160;if(LENERGY &gt; 23){</text>
<text text-anchor="start" x="61.79" y="-280.07" font-family="Courier New" font-size="10.00" fill="blue"> &#160;&#160;&#160;&#160;&#160;&#160;&#160;&#160;&#160;&#160;&#160;&#160;ASSIGN(LENERGY,23);</text>
<text text-anchor="start" x="61.79" y="-267.32" font-family="Courier New" font-size="10.00" fill="blue"> &#160;&#160;&#160;&#160;&#160;&#160;}</text>
<text text-anchor="start" x="61.79" y="-254.57" font-family="Courier New" font-size="10.00" fill="blue"> &#160;&#160;&#160;&#160;&#160;&#160;&#160;ASSIGN(BPARM,LENERGY);</text>
<text text-anchor="start" x="61.79" y="-241.82" font-family="Courier New" font-size="10.00" fill="blue"> &#160;&#160;&#160;&#160;&#160;&#160;&#160;MOV(WSPRITE,BPARM);</text>
<text text-anchor="start" x="61.79" y="-229.07" font-family="Courier New" font-size="10.00" fill="blue"> &#160;&#160;&#160;&#160;&#160;&#160;&#160;MAPi(WSPRITE,S00_AURA_MAP);</text>
<text text-anchor="start" x="61.79" y="-216.32" font-family="Courier New" font-size="10.00" fill="blue"> &#160;&#160;&#160;&#160;&#160;&#160;&#160;SHOW(WSPRITE);</text>
<text text-anchor="start" x="61.79" y="-203.57" font-family="Courier New" font-size="10.00" fill="blue"> &#160;&#160;&#160;&#160;&#160;&#160;&#160;ANIMATE(WPARM);</text>
<text text-anchor="start" x="61.79" y="-190.82" font-family="Courier New" font-size="10.00" fill="blue"> &#160;&#160;&#160;&#160;&#160;&#160;&#160;SIGNALi(0,SID_ID);</text>
<text text-anchor="start" x="61.79" y="-178.07" font-family="Courier New" font-size="10.00" fill="blue"> &#160;&#160;&#160;&#160;&#160;&#160;&#160;&#160;if(LENERGY &lt; 1){</text>
<text text-anchor="start" x="61.79" y="-165.32" font-family="Courier New" font-size="10.00" fill="blue"> &#160;&#160;&#160;&#160;&#160;&#160;&#160;&#160;&#160;&#160;&#160;ASSIGN(LENERGY,0);</text>
<text text-anchor="start" x="61.79" y="-152.57" font-family="Courier New" font-size="10.00" fill="blue"> &#160;&#160;&#160;&#160;&#160;&#160;&#160;&#160;&#160;&#160;&#160;WRITE(&quot;SHOULD BE DEAD!!!&quot;);</text>
<text text-anchor="start" x="61.79" y="-139.82" font-family="Courier New" font-size="10.00" fill="blue"> &#160;&#160;&#160;&#160;&#160;&#160;&#160;&#160;&#160;&#160;&#160;SIGNAL(SID_ID,SIG_DEAD);</text>
<text text-anchor="start" x="61.79" y="-127.07" font-family="Courier New" font-size="10.00" fill="blue"> &#160;&#160;&#160;&#160;&#160;&#160;&#160;&#160;&#160;&#160;&#160;}</text>
<text text-anchor="start" x="61.79" y="-114.32" font-family="Courier New" font-size="10.00" fill="blue"> &#160;&#160;&#160;&#160;&#160;&#160;&#160;if(LENERGY &gt; 0){</text>
<text text-anchor="start" x="61.79" y="-101.57" font-family="Courier New" font-size="10.00" fill="blue"> &#160;&#160;&#160;&#160;&#160;&#160;&#160;&#160;&#160;&#160;&#160;SIGNALi(0,SID_ID);</text>
<text text-anchor="start" x="61.79" y="-88.82" font-family="Courier New" font-size="10.00" fill="blue"> &#160;&#160;&#160;&#160;&#160;&#160;&#160;&#160;&#160;&#160;&#160;}; &#160;</text>
<polygon fill="none" stroke="black" points="55.79,-79.57 55.79,-329.07 301.79,-329.07 301.79,-79.57 55.79,-79.57"/>
</g>
<!-- 1&#45;&gt;energyChange -->
<g id="edge2" class="edge">
<title>1&#45;&gt;energyChange</title>
<path fill="none" stroke="black" d="M428.88,-33.71C396.43,-35.66 343.1,-44.41 317.79,-79.57 301.59,-102.07 300.78,-307.18 317.79,-329.07 326.22,-339.93 353.38,-348.01 381.4,-353.67"/>
<polygon fill="black" stroke="black" points="380.6,-357.08 391.08,-355.52 381.91,-350.21 380.6,-357.08"/>
<text text-anchor="start" x="321.79" y="-202.19" font-family="Courier New" font-weight="bold" font-size="10.00" fill="orange">WAIT(0,SIG_MYAURA)</text>
</g>
<!-- 1&#45;&gt;energyChange -->
<g id="edge3" class="edge">
<title>1&#45;&gt;energyChange</title>
<path fill="none" stroke="black" d="M455.79,-54.42C455.79,-111.74 455.79,-271.06 455.79,-336.11"/>
<polygon fill="black" stroke="black" points="452.29,-335.94 455.79,-345.94 459.29,-335.94 452.29,-335.94"/>
<text text-anchor="start" x="459.79" y="-202.19" font-family="Courier New" font-weight="bold" font-size="10.00" fill="orange">WAIT(0,SIG_ADD)</text>
</g>
<!-- 1&#45;&gt;energyChange -->
<g id="edge4" class="edge">
<title>1&#45;&gt;energyChange</title>
<path fill="none" stroke="black" d="M482.48,-37.74C506.03,-43.1 538.99,-54.78 554.79,-79.57 569.69,-102.95 570.77,-306.42 554.79,-329.07 548.36,-338.18 539.36,-344.95 529.37,-349.98"/>
<polygon fill="black" stroke="black" points="528.28,-346.64 520.51,-353.84 531.08,-353.06 528.28,-346.64"/>
<text text-anchor="start" x="569.79" y="-202.19" font-family="Courier New" font-weight="bold" font-size="10.00" fill="orange">WAIT(0,SIG_SUB)</text>
</g>
<!-- 1&#45;&gt;energyChange -->
<g id="edge6" class="edge">
<title>1&#45;&gt;energyChange</title>
<path fill="none" stroke="black" d="M482.63,-35.21C534.37,-39.24 644.8,-51.05 667.79,-79.57 737.36,-165.91 739.48,-244.47 667.79,-329.07 650.25,-349.76 584.24,-358.32 530.48,-361.85"/>
<polygon fill="black" stroke="black" points="530.5,-358.35 520.72,-362.44 530.92,-365.33 530.5,-358.35"/>
<text text-anchor="start" x="723.79" y="-202.19" font-family="Courier New" font-weight="bold" font-size="10.00" fill="orange">WAIT(0,0)</text>
</g>
<!-- 1&#45;&gt;1 -->
<g id="edge5" class="edge">
<title>1&#45;&gt;1</title>
<path fill="none" stroke="black" d="M467.31,-54.47C482.48,-73.36 500.79,-66.01 500.79,-32.44 500.79,-4.91 488.47,4.98 475.67,-2.78"/>
<polygon fill="black" stroke="black" points="473.45,-0.06 468.43,-9.39 478.17,-5.23 473.45,-0.06"/>
<polygon fill="none" stroke="black" points="503.79,-39.82 503.79,-58.57 677.79,-58.57 677.79,-39.82 503.79,-39.82"/>
<text text-anchor="start" x="539.79" y="-47.07" font-family="Courier New" font-weight="bold" font-size="10.00" fill="orange">WAIT(0,SIG_CLEAR)</text>
<polygon fill="none" stroke="black" points="503.79,-6.32 503.79,-37.82 677.79,-37.82 677.79,-6.32 503.79,-6.32"/>
<text text-anchor="start" x="506.79" y="-25.32" font-family="Courier New" font-size="10.00" fill="blue"> &#160;WRITE(&quot;Clear the aura&quot;); &#160;</text>
<text text-anchor="start" x="506.79" y="-12.57" font-family="Courier New" font-size="10.00" fill="blue"> &#160;SHOW(0);</text>
<polygon fill="none" stroke="black" points="500.79,-3.32 500.79,-61.57 680.79,-61.57 680.79,-3.32 500.79,-3.32"/>
</g>
<!-- status -->
<g id="node5" class="node">
<title>status</title>
<polygon fill="none" stroke="black" points="500.79,-440.82 500.79,-519.82 954.79,-519.82 954.79,-440.82 500.79,-440.82"/>
<polygon fill="none" stroke="black" points="511.79,-494.07 511.79,-512.82 943.79,-512.82 943.79,-494.07 511.79,-494.07"/>
<text text-anchor="start" x="703.79" y="-501.32" font-family="Courier New" font-weight="bold" font-size="10.00">SID_AURA</text>
<polygon fill="none" stroke="black" points="511.79,-447.82 511.79,-492.07 943.79,-492.07 943.79,-447.82 511.79,-447.82"/>
<text text-anchor="start" x="514.79" y="-479.57" font-family="Courier New" font-size="10.00" fill="green">VIEW::IDV_ID @pos(x:0, y:0, w:100, h:112)</text>
<text text-anchor="start" x="514.79" y="-466.82" font-family="Courier New" font-size="10.00" fill="green">SID_AURA::M_AURA(&#39;&#39;,&#39;&#39;,&#39;&#39;,&#39;&#39;,&#39;&#39;,&#39;&#39;)</text>
<text text-anchor="start" x="514.79" y="-454.07" font-family="Courier New" font-size="10.00" fill="green">{state:&#39;1&#39;: bParm:4 wParm:8 wSprite:IDS_AURA4 bFrame:0 Top:0 Left:0 Z:5</text>
<polygon fill="none" stroke="black" points="508.79,-444.82 508.79,-515.82 946.79,-515.82 946.79,-444.82 508.79,-444.82"/>
</g>
</g>
</svg>
