<?xml version="1.0" encoding="UTF-8" standalone="no"?>
<!DOCTYPE svg PUBLIC "-//W3C//DTD SVG 1.1//EN"
 "http://www.w3.org/Graphics/SVG/1.1/DTD/svg11.dtd">
<!-- Generated by graphviz version 10.0.1 (20240210.2158)
 -->
<!-- Title: Automaton Pages: 1 -->
<svg width="2434pt" height="1900pt"
 viewBox="0.00 0.00 2434.00 1899.75" xmlns="http://www.w3.org/2000/svg" xmlns:xlink="http://www.w3.org/1999/xlink">
<g id="graph0" class="graph" transform="scale(1 1) rotate(0) translate(4 1895.75)">
<title>Automaton</title>
<polygon fill="white" stroke="none" points="-4,4 -4,-1895.75 2430,-1895.75 2430,4 -4,4"/>
<!-- filename -->
<g id="node1" class="node">
<title>filename</title>
<polygon fill="none" stroke="black" points="1770,-1825 1770,-1878.5 1888,-1878.5 1888,-1825 1770,-1825"/>
<polygon fill="none" stroke="black" points="1781,-1852.75 1781,-1871.5 1877,-1871.5 1877,-1852.75 1781,-1852.75"/>
<text text-anchor="start" x="1793" y="-1860" font-family="Courier New" font-weight="bold" font-size="10.00">SID_ID::M_ID</text>
<polygon fill="none" stroke="black" points="1781,-1832 1781,-1850.75 1877,-1850.75 1877,-1832 1781,-1832"/>
<text text-anchor="start" x="1784" y="-1838.25" font-family="Courier New" font-size="10.00" fill="brown">start state = 0</text>
<polygon fill="none" stroke="black" points="1778,-1829 1778,-1874.5 1880,-1874.5 1880,-1829 1778,-1829"/>
</g>
<!-- 0 -->
<g id="node2" class="node">
<title>0</title>
<polyline fill="none" stroke="darkred" points="1925.88,-1840.5 1940.12,-1840.5"/>
<text text-anchor="start" x="1928.88" y="-1847.7" font-family="Courier New" font-weight="bold" font-size="14.00">0</text>
<path fill="none" stroke="darkred" d="M1929.62,-1837.5C1929.62,-1837.5 1936.38,-1837.5 1936.38,-1837.5 1939.75,-1837.5 1943.12,-1840.88 1943.12,-1844.25 1943.12,-1844.25 1943.12,-1859.25 1943.12,-1859.25 1943.12,-1862.62 1939.75,-1866 1936.38,-1866 1936.38,-1866 1929.62,-1866 1929.62,-1866 1926.25,-1866 1922.88,-1862.62 1922.88,-1859.25 1922.88,-1859.25 1922.88,-1844.25 1922.88,-1844.25 1922.88,-1840.88 1926.25,-1837.5 1929.62,-1837.5"/>
</g>
<!-- present -->
<g id="node3" class="node">
<title>present</title>
<polyline fill="none" stroke="darkred" points="1286.12,-1624.25 1349.88,-1624.25"/>
<text text-anchor="start" x="1289.12" y="-1631.45" font-family="Courier New" font-weight="bold" font-size="14.00">present</text>
<path fill="none" stroke="darkred" d="M1292.62,-1621.25C1292.62,-1621.25 1343.38,-1621.25 1343.38,-1621.25 1348.12,-1621.25 1352.88,-1626 1352.88,-1630.75 1352.88,-1630.75 1352.88,-1640.25 1352.88,-1640.25 1352.88,-1645 1348.12,-1649.75 1343.38,-1649.75 1343.38,-1649.75 1292.62,-1649.75 1292.62,-1649.75 1287.88,-1649.75 1283.12,-1645 1283.12,-1640.25 1283.12,-1640.25 1283.12,-1630.75 1283.12,-1630.75 1283.12,-1626 1287.88,-1621.25 1292.62,-1621.25"/>
</g>
<!-- 0&#45;&gt;present -->
<g id="edge1" class="edge">
<title>0&#45;&gt;present</title>
<path fill="none" stroke="black" d="M1922.14,-1833.72C1915.88,-1825.49 1907.23,-1816.42 1897,-1811.75 1867.77,-1798.41 1341.43,-1816.75 1319,-1793.75 1285.94,-1759.86 1297.21,-1699.74 1307.92,-1664.47"/>
<polygon fill="black" stroke="black" points="1311.24,-1665.56 1311,-1654.97 1304.59,-1663.4 1311.24,-1665.56"/>
<polygon fill="none" stroke="black" points="1322,-1772 1322,-1790.75 1916,-1790.75 1916,-1772 1322,-1772"/>
<text text-anchor="start" x="1571" y="-1779.25" font-family="Courier New" font-weight="bold" font-size="10.00" fill="orange">WAIT(0,SIG_MYID)</text>
<polygon fill="none" stroke="black" points="1322,-1674.75 1322,-1770 1916,-1770 1916,-1674.75 1322,-1674.75"/>
<text text-anchor="start" x="1325" y="-1757.5" font-family="Courier New" font-size="10.00" fill="blue"> &#160;&#160;&#160;&#160;CLEAR(WSPRITE);</text>
<text text-anchor="start" x="1325" y="-1744.75" font-family="Courier New" font-size="10.00" fill="blue"> &#160;&#160;&#160;&#160;SHOW(0);</text>
<text text-anchor="start" x="1325" y="-1732" font-family="Courier New" font-size="10.00" fill="blue"> &#160;&#160;&#160;&#160;predicate active_character(name);</text>
<text text-anchor="start" x="1325" y="-1719.25" font-family="Courier New" font-size="10.00" fill="blue"> &#160;&#160;&#160;&#160;active_character(?WPARM)?</text>
<text text-anchor="start" x="1325" y="-1706.5" font-family="Courier New" font-size="10.00" fill="blue"> &#160;&#160;&#160;&#160;predicate localplayer(name,viewname, wealth,karma, energy,strength, wisdom, gender, culture);</text>
<text text-anchor="start" x="1325" y="-1693.75" font-family="Courier New" font-size="10.00" fill="blue"> &#160;&#160;&#160;&#160;localplayer(WPARM, ?WTEMP1, ?LWEALTH, ?LKARMA,?WTEMP3,?LSTRENGTH, ?LWISDOM, ?LSEX, ?WTEMP2)?</text>
<text text-anchor="start" x="1325" y="-1681" font-family="Courier New" font-size="10.00" fill="blue"> &#160;&#160;&#160;&#160;ASSIGN(LENERGY,WTEMP3);</text>
<polygon fill="none" stroke="black" points="1319,-1671.75 1319,-1793.75 1919,-1793.75 1919,-1671.75 1319,-1671.75"/>
</g>
<!-- setId -->
<g id="node22" class="node">
<title>setId</title>
<polyline fill="none" stroke="darkred" points="704.38,-1202.12 751.62,-1202.12"/>
<text text-anchor="start" x="707.38" y="-1209.33" font-family="Courier New" font-weight="bold" font-size="14.00">setId</text>
<path fill="none" stroke="darkred" d="M710.88,-1199.12C710.88,-1199.12 745.12,-1199.12 745.12,-1199.12 749.88,-1199.12 754.62,-1203.88 754.62,-1208.62 754.62,-1208.62 754.62,-1218.12 754.62,-1218.12 754.62,-1222.88 749.88,-1227.62 745.12,-1227.62 745.12,-1227.62 710.88,-1227.62 710.88,-1227.62 706.12,-1227.62 701.38,-1222.88 701.38,-1218.12 701.38,-1218.12 701.38,-1208.62 701.38,-1208.62 701.38,-1203.88 706.12,-1199.12 710.88,-1199.12"/>
</g>
<!-- present&#45;&gt;setId -->
<g id="edge21" class="edge">
<title>present&#45;&gt;setId</title>
<path fill="none" stroke="black" d="M1275.21,-1633.94C1127.03,-1631.8 643.61,-1623.03 621,-1599.25 528.98,-1502.46 562.72,-1418.92 621,-1298.75 634.1,-1271.74 660.49,-1250.78 683.79,-1236.51"/>
<polygon fill="black" stroke="black" points="685.37,-1239.64 692.23,-1231.56 681.83,-1233.6 685.37,-1239.64"/>
<polygon fill="none" stroke="black" points="624,-1577.5 624,-1596.25 1056,-1596.25 1056,-1577.5 624,-1577.5"/>
<text text-anchor="start" x="804" y="-1584.75" font-family="Courier New" font-weight="bold" font-size="10.00" fill="blue">Z_EPSILON(,)</text>
<polygon fill="none" stroke="black" points="624,-1301.75 624,-1575.5 1056,-1575.5 1056,-1301.75 624,-1301.75"/>
<text text-anchor="start" x="627" y="-1563" font-family="Courier New" font-size="10.00" fill="blue"> &#160;&#160;&#160;&#160;&#160;&#160;</text>
<text text-anchor="start" x="627" y="-1550.25" font-family="Courier New" font-size="10.00" fill="blue"> &#160;//for back to back {statements} do not use semi&#45;colons between them, </text>
<text text-anchor="start" x="627" y="-1537.5" font-family="Courier New" font-size="10.00" fill="blue"> &#160;//only at the end of the code segment!</text>
<text text-anchor="start" x="627" y="-1524.75" font-family="Courier New" font-size="10.00" fill="blue"> &#160;if(LSEX == 1){</text>
<text text-anchor="start" x="627" y="-1512" font-family="Courier New" font-size="10.00" fill="blue"> &#160;&#160;&#160;WPARM = F1;</text>
<text text-anchor="start" x="627" y="-1499.25" font-family="Courier New" font-size="10.00" fill="blue"> &#160;&#160;&#160;&#160;if(LWISDOM &gt;= 30){</text>
<text text-anchor="start" x="627" y="-1486.5" font-family="Courier New" font-size="10.00" fill="blue"> &#160;&#160;&#160;&#160;&#160;&#160;WPARM = F3;</text>
<text text-anchor="start" x="627" y="-1473.75" font-family="Courier New" font-size="10.00" fill="blue"> &#160;&#160;&#160;}</text>
<text text-anchor="start" x="627" y="-1461" font-family="Courier New" font-size="10.00" fill="blue"> &#160;&#160;&#160;&#160;if(LWISDOM &gt;= 20 &amp;&amp; LWISDOM &lt; 30){</text>
<text text-anchor="start" x="627" y="-1448.25" font-family="Courier New" font-size="10.00" fill="blue"> &#160;&#160;&#160;&#160;&#160;&#160;WPARM = F2;</text>
<text text-anchor="start" x="627" y="-1435.5" font-family="Courier New" font-size="10.00" fill="blue"> &#160;&#160;&#160;}</text>
<text text-anchor="start" x="627" y="-1422.75" font-family="Courier New" font-size="10.00" fill="blue"> &#160;}</text>
<text text-anchor="start" x="627" y="-1410" font-family="Courier New" font-size="10.00" fill="blue"> &#160;if(LSEX == 0){</text>
<text text-anchor="start" x="627" y="-1397.25" font-family="Courier New" font-size="10.00" fill="blue"> &#160;&#160;&#160;WPARM = M1;</text>
<text text-anchor="start" x="627" y="-1384.5" font-family="Courier New" font-size="10.00" fill="blue"> &#160;&#160;&#160;&#160;&#160;if(LWISDOM &gt;= 30){</text>
<text text-anchor="start" x="627" y="-1371.75" font-family="Courier New" font-size="10.00" fill="blue"> &#160;&#160;&#160;&#160;&#160;&#160;WPARM = M3;</text>
<text text-anchor="start" x="627" y="-1359" font-family="Courier New" font-size="10.00" fill="blue"> &#160;&#160;&#160;}</text>
<text text-anchor="start" x="627" y="-1346.25" font-family="Courier New" font-size="10.00" fill="blue"> &#160;&#160;&#160;if(LWISDOM &gt;= 20 &amp;&amp; LWISDOM &lt; 30){</text>
<text text-anchor="start" x="627" y="-1333.5" font-family="Courier New" font-size="10.00" fill="blue"> &#160;&#160;&#160;&#160;&#160;&#160;&#160;WPARM = M2;</text>
<text text-anchor="start" x="627" y="-1320.75" font-family="Courier New" font-size="10.00" fill="blue"> &#160;&#160;&#160;}</text>
<text text-anchor="start" x="627" y="-1308" font-family="Courier New" font-size="10.00" fill="blue"> &#160;}; </text>
<polygon fill="none" stroke="black" points="621,-1298.75 621,-1599.25 1059,-1599.25 1059,-1298.75 621,-1298.75"/>
</g>
<!-- 100 -->
<g id="node4" class="node">
<title>100</title>
<polyline fill="none" stroke="darkred" points="1622.62,-836 1653.38,-836"/>
<text text-anchor="start" x="1625.62" y="-843.2" font-family="Courier New" font-weight="bold" font-size="14.00">100</text>
<path fill="none" stroke="darkred" d="M1629.12,-833C1629.12,-833 1646.88,-833 1646.88,-833 1651.62,-833 1656.38,-837.75 1656.38,-842.5 1656.38,-842.5 1656.38,-852 1656.38,-852 1656.38,-856.75 1651.62,-861.5 1646.88,-861.5 1646.88,-861.5 1629.12,-861.5 1629.12,-861.5 1624.38,-861.5 1619.62,-856.75 1619.62,-852 1619.62,-852 1619.62,-842.5 1619.62,-842.5 1619.62,-837.75 1624.38,-833 1629.12,-833"/>
</g>
<!-- empty -->
<g id="node5" class="node">
<title>empty</title>
<polyline fill="none" stroke="darkred" points="1934.38,-651.62 1981.62,-651.62"/>
<text text-anchor="start" x="1937.38" y="-658.83" font-family="Courier New" font-weight="bold" font-size="14.00">empty</text>
<path fill="none" stroke="darkred" d="M1940.88,-648.62C1940.88,-648.62 1975.12,-648.62 1975.12,-648.62 1979.88,-648.62 1984.62,-653.38 1984.62,-658.12 1984.62,-658.12 1984.62,-667.62 1984.62,-667.62 1984.62,-672.38 1979.88,-677.12 1975.12,-677.12 1975.12,-677.12 1940.88,-677.12 1940.88,-677.12 1936.12,-677.12 1931.38,-672.38 1931.38,-667.62 1931.38,-667.62 1931.38,-658.12 1931.38,-658.12 1931.38,-653.38 1936.12,-648.62 1940.88,-648.62"/>
</g>
<!-- 100&#45;&gt;empty -->
<g id="edge2" class="edge">
<title>100&#45;&gt;empty</title>
<path fill="none" stroke="black" d="M1647.14,-829.1C1662.96,-801.35 1698.27,-747.26 1745,-722.75 1809.94,-688.69 1841.53,-733.46 1909,-704.75 1918.09,-700.88 1926.78,-694.76 1934.26,-688.41"/>
<polygon fill="black" stroke="black" points="1936.27,-691.32 1941.31,-682 1931.56,-686.14 1936.27,-691.32"/>
<polygon fill="none" stroke="black" points="1748,-772 1748,-790.75 1916,-790.75 1916,-772 1748,-772"/>
<text text-anchor="start" x="1796" y="-779.25" font-family="Courier New" font-weight="bold" font-size="10.00" fill="blue">Z_EPSILON(,)</text>
<polygon fill="none" stroke="black" points="1748,-725.75 1748,-770 1916,-770 1916,-725.75 1748,-725.75"/>
<text text-anchor="start" x="1751" y="-757.5" font-family="Courier New" font-size="10.00" fill="blue"> &#160;&#160;&#160;SHOW(0);</text>
<text text-anchor="start" x="1751" y="-744.75" font-family="Courier New" font-size="10.00" fill="blue"> &#160;&#160;&#160;SIGNAL(WIP3,SIG_CLEAR);</text>
<text text-anchor="start" x="1751" y="-732" font-family="Courier New" font-size="10.00" fill="blue"> &#160;&#160;&#160;SIGNAL(WIP4,SIG_CLEAR);</text>
<polygon fill="none" stroke="black" points="1745,-722.75 1745,-793.75 1919,-793.75 1919,-722.75 1745,-722.75"/>
</g>
<!-- empty&#45;&gt;0 -->
<g id="edge16" class="edge">
<title>empty&#45;&gt;0</title>
<path fill="none" stroke="black" d="M1954.04,-681.12C1946.99,-713.36 1933,-785.05 1933,-846.25 1933,-1636.5 1933,-1636.5 1933,-1636.5 1933,-1703.05 1933,-1781.23 1933,-1822.27"/>
<polygon fill="black" stroke="black" points="1929.5,-1822.02 1933,-1832.02 1936.5,-1822.02 1929.5,-1822.02"/>
<text text-anchor="start" x="1937" y="-1071.25" font-family="Courier New" font-weight="bold" font-size="10.00" fill="orange">WAIT(,SIG_SHOW)</text>
</g>
<!-- 20 -->
<g id="node6" class="node">
<title>20</title>
<polyline fill="none" stroke="darkred" points="753.75,-556.25 776.25,-556.25"/>
<text text-anchor="start" x="756.75" y="-563.45" font-family="Courier New" font-weight="bold" font-size="14.00">20</text>
<path fill="none" stroke="darkred" d="M760.25,-553.25C760.25,-553.25 769.75,-553.25 769.75,-553.25 774.5,-553.25 779.25,-558 779.25,-562.75 779.25,-562.75 779.25,-572.25 779.25,-572.25 779.25,-577 774.5,-581.75 769.75,-581.75 769.75,-581.75 760.25,-581.75 760.25,-581.75 755.5,-581.75 750.75,-577 750.75,-572.25 750.75,-572.25 750.75,-562.75 750.75,-562.75 750.75,-558 755.5,-553.25 760.25,-553.25"/>
</g>
<!-- playForward -->
<g id="node7" class="node">
<title>playForward</title>
<polyline fill="none" stroke="darkred" points="940.62,-391.25 1037.38,-391.25"/>
<text text-anchor="start" x="943.62" y="-398.45" font-family="Courier New" font-weight="bold" font-size="14.00">playForward</text>
<path fill="none" stroke="darkred" d="M947.12,-388.25C947.12,-388.25 1030.88,-388.25 1030.88,-388.25 1035.62,-388.25 1040.38,-393 1040.38,-397.75 1040.38,-397.75 1040.38,-407.25 1040.38,-407.25 1040.38,-412 1035.62,-416.75 1030.88,-416.75 1030.88,-416.75 947.12,-416.75 947.12,-416.75 942.38,-416.75 937.62,-412 937.62,-407.25 937.62,-407.25 937.62,-397.75 937.62,-397.75 937.62,-393 942.38,-388.25 947.12,-388.25"/>
</g>
<!-- 20&#45;&gt;playForward -->
<g id="edge3" class="edge">
<title>20&#45;&gt;playForward</title>
<path fill="none" stroke="black" d="M760.68,-549.54C756.86,-530.95 753.37,-500.68 764,-477.5 775,-453.51 785.26,-450.28 809,-438.75 842.97,-422.25 884.1,-413.47 918.46,-408.8"/>
<polygon fill="black" stroke="black" points="918.84,-412.28 928.33,-407.56 917.97,-405.34 918.84,-412.28"/>
<text text-anchor="start" x="768" y="-493.62" font-family="Courier New" font-weight="bold" font-size="10.00" fill="blue">ASSIGN(WSPRITE,happy)</text>
</g>
<!-- playDead -->
<g id="node17" class="node">
<title>playDead</title>
<polyline fill="none" stroke="darkred" points="1513,-247.75 1585,-247.75"/>
<text text-anchor="start" x="1516" y="-254.95" font-family="Courier New" font-weight="bold" font-size="14.00">playDead</text>
<path fill="none" stroke="darkred" d="M1519.5,-244.75C1519.5,-244.75 1578.5,-244.75 1578.5,-244.75 1583.25,-244.75 1588,-249.5 1588,-254.25 1588,-254.25 1588,-263.75 1588,-263.75 1588,-268.5 1583.25,-273.25 1578.5,-273.25 1578.5,-273.25 1519.5,-273.25 1519.5,-273.25 1514.75,-273.25 1510,-268.5 1510,-263.75 1510,-263.75 1510,-254.25 1510,-254.25 1510,-249.5 1514.75,-244.75 1519.5,-244.75"/>
</g>
<!-- playForward&#45;&gt;playDead -->
<g id="edge18" class="edge">
<title>playForward&#45;&gt;playDead</title>
<path fill="none" stroke="black" d="M1019.33,-384.41C1063.81,-360.21 1150.02,-316.53 1229,-295.25 1318.35,-271.17 1425.97,-263.49 1490.86,-261.07"/>
<polygon fill="black" stroke="black" points="1490.68,-264.58 1500.56,-260.74 1490.44,-257.59 1490.68,-264.58"/>
<polygon fill="none" stroke="black" points="1232,-344.5 1232,-363.25 1532,-363.25 1532,-344.5 1232,-344.5"/>
<text text-anchor="start" x="1334" y="-351.75" font-family="Courier New" font-weight="bold" font-size="10.00" fill="blue">EQUAL(LENERGY,0)</text>
<polygon fill="none" stroke="black" points="1232,-298.25 1232,-342.5 1532,-342.5 1532,-298.25 1232,-298.25"/>
<text text-anchor="start" x="1235" y="-330" font-family="Courier New" font-size="10.00" fill="blue"> &#160;&#160;&#160;MAP(WSPRITE,WPARM);</text>
<text text-anchor="start" x="1235" y="-317.25" font-family="Courier New" font-size="10.00" fill="blue"> &#160;&#160;&#160;SHOW(WSPRITE);</text>
<text text-anchor="start" x="1235" y="-304.5" font-family="Courier New" font-size="10.00" fill="blue"> &#160;&#160;&#160;ANIMATE(0,V_REWIND); //PLAY FORWARD THEN BACK</text>
<polygon fill="none" stroke="black" points="1229,-295.25 1229,-366.25 1535,-366.25 1535,-295.25 1229,-295.25"/>
</g>
<!-- sitting -->
<g id="node21" class="node">
<title>sitting</title>
<polyline fill="none" stroke="darkred" points="1025.12,-971.25 1088.88,-971.25"/>
<text text-anchor="start" x="1028.12" y="-978.45" font-family="Courier New" font-weight="bold" font-size="14.00">sitting</text>
<path fill="none" stroke="darkred" d="M1031.62,-968.25C1031.62,-968.25 1082.38,-968.25 1082.38,-968.25 1087.12,-968.25 1091.88,-973 1091.88,-977.75 1091.88,-977.75 1091.88,-987.25 1091.88,-987.25 1091.88,-992 1087.12,-996.75 1082.38,-996.75 1082.38,-996.75 1031.62,-996.75 1031.62,-996.75 1026.88,-996.75 1022.12,-992 1022.12,-987.25 1022.12,-987.25 1022.12,-977.75 1022.12,-977.75 1022.12,-973 1026.88,-968.25 1031.62,-968.25"/>
</g>
<!-- playForward&#45;&gt;sitting -->
<g id="edge19" class="edge">
<title>playForward&#45;&gt;sitting</title>
<path fill="none" stroke="black" d="M988.47,-420.7C987.37,-457.46 984.86,-546.41 984,-621 983.57,-658.22 960.43,-675.94 984,-704.75 1009.55,-735.99 1047.45,-691.51 1073,-722.75 1135.89,-799.64 1094,-849.16 1073,-946.25 1072.46,-948.76 1071.72,-951.3 1070.86,-953.82"/>
<polygon fill="black" stroke="black" points="1067.64,-952.45 1067.08,-963.04 1074.11,-955.11 1067.64,-952.45"/>
<polygon fill="none" stroke="black" points="987,-683 987,-701.75 1287,-701.75 1287,-683 987,-683"/>
<text text-anchor="start" x="1083" y="-690.25" font-family="Courier New" font-weight="bold" font-size="10.00" fill="blue">NEQUALi(LENERGY,0)</text>
<polygon fill="none" stroke="black" points="987,-624 987,-681 1287,-681 1287,-624 987,-624"/>
<text text-anchor="start" x="990" y="-668.5" font-family="Courier New" font-size="10.00" fill="blue"> &#160;&#160;&#160;ASSIGN(BFRAME, 0);</text>
<text text-anchor="start" x="990" y="-655.75" font-family="Courier New" font-size="10.00" fill="blue"> &#160;&#160;&#160;MAP(WSPRITE,WPARM);</text>
<text text-anchor="start" x="990" y="-643" font-family="Courier New" font-size="10.00" fill="blue"> &#160;&#160;&#160;SHOW(WSPRITE);</text>
<text text-anchor="start" x="990" y="-630.25" font-family="Courier New" font-size="10.00" fill="blue"> &#160;&#160;&#160;ANIMATE(0,V_REWIND); //PLAY FORWARD THEN BACK</text>
<polygon fill="none" stroke="black" points="984,-621 984,-704.75 1290,-704.75 1290,-621 984,-621"/>
</g>
<!-- 21 -->
<g id="node8" class="node">
<title>21</title>
<polyline fill="none" stroke="darkred" points="456.75,-484.5 479.25,-484.5"/>
<text text-anchor="start" x="459.75" y="-491.7" font-family="Courier New" font-weight="bold" font-size="14.00">21</text>
<path fill="none" stroke="darkred" d="M463.25,-481.5C463.25,-481.5 472.75,-481.5 472.75,-481.5 477.5,-481.5 482.25,-486.25 482.25,-491 482.25,-491 482.25,-500.5 482.25,-500.5 482.25,-505.25 477.5,-510 472.75,-510 472.75,-510 463.25,-510 463.25,-510 458.5,-510 453.75,-505.25 453.75,-500.5 453.75,-500.5 453.75,-491 453.75,-491 453.75,-486.25 458.5,-481.5 463.25,-481.5"/>
</g>
<!-- 21&#45;&gt;playForward -->
<g id="edge4" class="edge">
<title>21&#45;&gt;playForward</title>
<path fill="none" stroke="black" d="M462.81,-477.54C460.23,-465.12 459.42,-448.82 469,-438.75 499.3,-406.9 783.26,-403.09 918.3,-403.11"/>
<polygon fill="black" stroke="black" points="918.2,-406.61 928.2,-403.12 918.2,-399.61 918.2,-406.61"/>
<text text-anchor="start" x="473" y="-447" font-family="Courier New" font-weight="bold" font-size="10.00" fill="blue">ASSIGN(WSPRITE,hurt)</text>
</g>
<!-- 22 -->
<g id="node9" class="node">
<title>22</title>
<polyline fill="none" stroke="darkred" points="796.75,-836 819.25,-836"/>
<text text-anchor="start" x="799.75" y="-843.2" font-family="Courier New" font-weight="bold" font-size="14.00">22</text>
<path fill="none" stroke="darkred" d="M803.25,-833C803.25,-833 812.75,-833 812.75,-833 817.5,-833 822.25,-837.75 822.25,-842.5 822.25,-842.5 822.25,-852 822.25,-852 822.25,-856.75 817.5,-861.5 812.75,-861.5 812.75,-861.5 803.25,-861.5 803.25,-861.5 798.5,-861.5 793.75,-856.75 793.75,-852 793.75,-852 793.75,-842.5 793.75,-842.5 793.75,-837.75 798.5,-833 803.25,-833"/>
</g>
<!-- playOnce -->
<g id="node10" class="node">
<title>playOnce</title>
<polyline fill="none" stroke="darkred" points="759,-651.62 831,-651.62"/>
<text text-anchor="start" x="762" y="-658.83" font-family="Courier New" font-weight="bold" font-size="14.00">playOnce</text>
<path fill="none" stroke="darkred" d="M765.5,-648.62C765.5,-648.62 824.5,-648.62 824.5,-648.62 829.25,-648.62 834,-653.38 834,-658.12 834,-658.12 834,-667.62 834,-667.62 834,-672.38 829.25,-677.12 824.5,-677.12 824.5,-677.12 765.5,-677.12 765.5,-677.12 760.75,-677.12 756,-672.38 756,-667.62 756,-667.62 756,-658.12 756,-658.12 756,-653.38 760.75,-648.62 765.5,-648.62"/>
</g>
<!-- 22&#45;&gt;playOnce -->
<g id="edge5" class="edge">
<title>22&#45;&gt;playOnce</title>
<path fill="none" stroke="black" d="M789.6,-829.03C782.8,-823.14 774.83,-816.78 767,-811.75 751.28,-801.65 738.99,-809.54 729,-793.75 712.13,-767.09 716.1,-751.55 729,-722.75 735.09,-709.15 746.05,-697.4 757.31,-688.05"/>
<polygon fill="black" stroke="black" points="759.36,-690.89 765.12,-682.01 755.07,-685.36 759.36,-690.89"/>
<text text-anchor="start" x="733" y="-756.12" font-family="Courier New" font-weight="bold" font-size="10.00" fill="blue">ASSIGN(WSPRITE,kiss)</text>
</g>
<!-- playOnce&#45;&gt;sitting -->
<g id="edge20" class="edge">
<title>playOnce&#45;&gt;sitting</title>
<path fill="none" stroke="black" d="M819.58,-681C832.76,-691.52 848.09,-706.14 857,-722.75 891.12,-786.37 843.56,-823.64 885,-882.75 913.55,-923.47 964.62,-949.67 1003.73,-964.78"/>
<polygon fill="black" stroke="black" points="1002.4,-968.02 1012.99,-968.22 1004.84,-961.46 1002.4,-968.02"/>
<polygon fill="none" stroke="black" points="888,-861 888,-879.75 1032,-879.75 1032,-861 888,-861"/>
<text text-anchor="start" x="912" y="-868.25" font-family="Courier New" font-weight="bold" font-size="10.00" fill="blue">ASSIGN(BFRAME,0)</text>
<polygon fill="none" stroke="black" points="888,-814.75 888,-859 1032,-859 1032,-814.75 888,-814.75"/>
<text text-anchor="start" x="891" y="-846.5" font-family="Courier New" font-size="10.00" fill="blue"> &#160;&#160;&#160;MAP(WSPRITE,WPARM);</text>
<text text-anchor="start" x="891" y="-833.75" font-family="Courier New" font-size="10.00" fill="blue"> &#160;&#160;&#160;SHOW(0,WSPRITE);</text>
<text text-anchor="start" x="891" y="-821" font-family="Courier New" font-size="10.00" fill="blue"> &#160;&#160;&#160;ANIMATE(0,0);</text>
<polygon fill="none" stroke="black" points="885,-811.75 885,-882.75 1035,-882.75 1035,-811.75 885,-811.75"/>
</g>
<!-- 23 -->
<g id="node11" class="node">
<title>23</title>
<polyline fill="none" stroke="darkred" points="599.75,-747 622.25,-747"/>
<text text-anchor="start" x="602.75" y="-754.2" font-family="Courier New" font-weight="bold" font-size="14.00">23</text>
<path fill="none" stroke="darkred" d="M606.25,-744C606.25,-744 615.75,-744 615.75,-744 620.5,-744 625.25,-748.75 625.25,-753.5 625.25,-753.5 625.25,-763 625.25,-763 625.25,-767.75 620.5,-772.5 615.75,-772.5 615.75,-772.5 606.25,-772.5 606.25,-772.5 601.5,-772.5 596.75,-767.75 596.75,-763 596.75,-763 596.75,-753.5 596.75,-753.5 596.75,-748.75 601.5,-744 606.25,-744"/>
</g>
<!-- 23&#45;&gt;playForward -->
<g id="edge6" class="edge">
<title>23&#45;&gt;playForward</title>
<path fill="none" stroke="black" d="M605.13,-740.23C592.57,-700.53 567.28,-600.07 607,-532 649.45,-459.25 692.52,-466.66 772,-438.75 819.44,-422.09 875.51,-413.24 918.77,-408.58"/>
<polygon fill="black" stroke="black" points="918.95,-412.08 928.55,-407.58 918.24,-405.11 918.95,-412.08"/>
<text text-anchor="start" x="611" y="-565.38" font-family="Courier New" font-weight="bold" font-size="10.00" fill="blue">ASSIGN(WSPRITE,mad)</text>
</g>
<!-- 24 -->
<g id="node12" class="node">
<title>24</title>
<polyline fill="none" stroke="darkred" points="1104.75,-556.25 1127.25,-556.25"/>
<text text-anchor="start" x="1107.75" y="-563.45" font-family="Courier New" font-weight="bold" font-size="14.00">24</text>
<path fill="none" stroke="darkred" d="M1111.25,-553.25C1111.25,-553.25 1120.75,-553.25 1120.75,-553.25 1125.5,-553.25 1130.25,-558 1130.25,-562.75 1130.25,-562.75 1130.25,-572.25 1130.25,-572.25 1130.25,-577 1125.5,-581.75 1120.75,-581.75 1120.75,-581.75 1111.25,-581.75 1111.25,-581.75 1106.5,-581.75 1101.75,-577 1101.75,-572.25 1101.75,-572.25 1101.75,-562.75 1101.75,-562.75 1101.75,-558 1106.5,-553.25 1111.25,-553.25"/>
</g>
<!-- 24&#45;&gt;playForward -->
<g id="edge7" class="edge">
<title>24&#45;&gt;playForward</title>
<path fill="none" stroke="black" d="M1102.65,-549.36C1080.3,-520.67 1035.18,-462.77 1009.01,-429.19"/>
<polygon fill="black" stroke="black" points="1012.01,-427.34 1003.1,-421.6 1006.49,-431.64 1012.01,-427.34"/>
<text text-anchor="start" x="1078" y="-493.62" font-family="Courier New" font-weight="bold" font-size="10.00" fill="blue">ASSIGN(WSPRITE,sad)</text>
</g>
<!-- 25 -->
<g id="node13" class="node">
<title>25</title>
<polyline fill="none" stroke="darkred" points="922.75,-484.5 945.25,-484.5"/>
<text text-anchor="start" x="925.75" y="-491.7" font-family="Courier New" font-weight="bold" font-size="14.00">25</text>
<path fill="none" stroke="darkred" d="M929.25,-481.5C929.25,-481.5 938.75,-481.5 938.75,-481.5 943.5,-481.5 948.25,-486.25 948.25,-491 948.25,-491 948.25,-500.5 948.25,-500.5 948.25,-505.25 943.5,-510 938.75,-510 938.75,-510 929.25,-510 929.25,-510 924.5,-510 919.75,-505.25 919.75,-500.5 919.75,-500.5 919.75,-491 919.75,-491 919.75,-486.25 924.5,-481.5 929.25,-481.5"/>
</g>
<!-- 25&#45;&gt;playForward -->
<g id="edge8" class="edge">
<title>25&#45;&gt;playForward</title>
<path fill="none" stroke="black" d="M907.34,-482.78C902.61,-480.88 897.7,-479.03 893,-477.5 860,-466.73 838.53,-486.73 817,-459.5 811.28,-452.27 811.17,-445.9 817,-438.75 829.97,-422.85 876.89,-413.92 918.44,-409.03"/>
<polygon fill="black" stroke="black" points="918.65,-412.53 928.21,-407.95 917.88,-405.57 918.65,-412.53"/>
<text text-anchor="start" x="821" y="-447" font-family="Courier New" font-weight="bold" font-size="10.00" fill="blue">ASSIGN(WSPRITE,surprised)</text>
</g>
<!-- 26 -->
<g id="node14" class="node">
<title>26</title>
<polyline fill="none" stroke="darkred" points="1431.75,-747 1454.25,-747"/>
<text text-anchor="start" x="1434.75" y="-754.2" font-family="Courier New" font-weight="bold" font-size="14.00">26</text>
<path fill="none" stroke="darkred" d="M1438.25,-744C1438.25,-744 1447.75,-744 1447.75,-744 1452.5,-744 1457.25,-748.75 1457.25,-753.5 1457.25,-753.5 1457.25,-763 1457.25,-763 1457.25,-767.75 1452.5,-772.5 1447.75,-772.5 1447.75,-772.5 1438.25,-772.5 1438.25,-772.5 1433.5,-772.5 1428.75,-767.75 1428.75,-763 1428.75,-763 1428.75,-753.5 1428.75,-753.5 1428.75,-748.75 1433.5,-744 1438.25,-744"/>
</g>
<!-- 26&#45;&gt;playForward -->
<g id="edge9" class="edge">
<title>26&#45;&gt;playForward</title>
<path fill="none" stroke="black" d="M1436.82,-740.36C1426.73,-712.23 1406.69,-653.84 1395,-603 1388.68,-575.51 1395.56,-497.83 1376,-477.5 1333.29,-433.1 1159.1,-414.55 1059.59,-407.45"/>
<polygon fill="black" stroke="black" points="1059.86,-403.96 1049.64,-406.76 1059.38,-410.94 1059.86,-403.96"/>
<text text-anchor="start" x="1399" y="-565.38" font-family="Courier New" font-weight="bold" font-size="10.00" fill="blue">ASSIGN(WSPRITE,stress)</text>
</g>
<!-- 27 -->
<g id="node15" class="node">
<title>27</title>
<polyline fill="none" stroke="darkred" points="1276.75,-556.25 1299.25,-556.25"/>
<text text-anchor="start" x="1279.75" y="-563.45" font-family="Courier New" font-weight="bold" font-size="14.00">27</text>
<path fill="none" stroke="darkred" d="M1283.25,-553.25C1283.25,-553.25 1292.75,-553.25 1292.75,-553.25 1297.5,-553.25 1302.25,-558 1302.25,-562.75 1302.25,-562.75 1302.25,-572.25 1302.25,-572.25 1302.25,-577 1297.5,-581.75 1292.75,-581.75 1292.75,-581.75 1283.25,-581.75 1283.25,-581.75 1278.5,-581.75 1273.75,-577 1273.75,-572.25 1273.75,-572.25 1273.75,-562.75 1273.75,-562.75 1273.75,-558 1278.5,-553.25 1283.25,-553.25"/>
</g>
<!-- 27&#45;&gt;playForward -->
<g id="edge10" class="edge">
<title>27&#45;&gt;playForward</title>
<path fill="none" stroke="black" d="M1275.17,-549.45C1259.44,-529.63 1231.03,-497.14 1200,-477.5 1156.7,-450.1 1101.95,-431.28 1059.07,-419.48"/>
<polygon fill="black" stroke="black" points="1060.19,-416.15 1049.62,-416.95 1058.37,-422.92 1060.19,-416.15"/>
<text text-anchor="start" x="1248" y="-493.62" font-family="Courier New" font-weight="bold" font-size="10.00" fill="blue">ASSIGN(WSPRITE,wave)</text>
</g>
<!-- 30 -->
<g id="node16" class="node">
<title>30</title>
<polyline fill="none" stroke="darkred" points="1533.75,-747 1556.25,-747"/>
<text text-anchor="start" x="1536.75" y="-754.2" font-family="Courier New" font-weight="bold" font-size="14.00">30</text>
<path fill="none" stroke="darkred" d="M1540.25,-744C1540.25,-744 1549.75,-744 1549.75,-744 1554.5,-744 1559.25,-748.75 1559.25,-753.5 1559.25,-753.5 1559.25,-763 1559.25,-763 1559.25,-767.75 1554.5,-772.5 1549.75,-772.5 1549.75,-772.5 1540.25,-772.5 1540.25,-772.5 1535.5,-772.5 1530.75,-767.75 1530.75,-763 1530.75,-763 1530.75,-753.5 1530.75,-753.5 1530.75,-748.75 1535.5,-744 1540.25,-744"/>
</g>
<!-- 30&#45;&gt;playDead -->
<g id="edge11" class="edge">
<title>30&#45;&gt;playDead</title>
<path fill="none" stroke="black" d="M1545.61,-740.08C1546.73,-706.92 1549,-631.76 1549,-568.5 1549,-568.5 1549,-568.5 1549,-401.5 1549,-362.16 1549,-316.68 1549,-288.12"/>
<polygon fill="black" stroke="black" points="1552.5,-288.5 1549,-278.5 1545.5,-288.5 1552.5,-288.5"/>
<text text-anchor="start" x="1553" y="-493.62" font-family="Courier New" font-weight="bold" font-size="10.00" fill="blue">ASSIGN(WSPRITE,dead)</text>
</g>
<!-- dead -->
<g id="node20" class="node">
<title>dead</title>
<polyline fill="none" stroke="darkred" stroke-width="3" points="1775,-10.5 1815,-10.5"/>
<text text-anchor="start" x="1778.5" y="-18.2" font-family="Courier New" font-weight="bold" font-size="14.00">dead</text>
<path fill="none" stroke="darkred" stroke-width="3" d="M1781.17,-5.5C1781.17,-5.5 1808.83,-5.5 1808.83,-5.5 1814.42,-5.5 1820,-11.08 1820,-16.67 1820,-16.67 1820,-27.83 1820,-27.83 1820,-33.42 1814.42,-39 1808.83,-39 1808.83,-39 1781.17,-39 1781.17,-39 1775.58,-39 1770,-33.42 1770,-27.83 1770,-27.83 1770,-16.67 1770,-16.67 1770,-11.08 1775.58,-5.5 1781.17,-5.5"/>
</g>
<!-- playDead&#45;&gt;dead -->
<g id="edge17" class="edge">
<title>playDead&#45;&gt;dead</title>
<path fill="none" stroke="black" d="M1543.65,-241.03C1533,-203.56 1513.86,-113.09 1559,-62.5 1583.62,-34.91 1688.13,-26.71 1749.51,-24.28"/>
<polygon fill="black" stroke="black" points="1749.42,-27.78 1759.29,-23.93 1749.17,-20.79 1749.42,-27.78"/>
<polygon fill="none" stroke="black" points="1562,-201 1562,-219.75 1778,-219.75 1778,-201 1562,-201"/>
<text text-anchor="start" x="1622" y="-208.25" font-family="Courier New" font-weight="bold" font-size="10.00" fill="blue">ASSIGN(BFRAME,0)</text>
<polygon fill="none" stroke="black" points="1562,-65.5 1562,-199 1778,-199 1778,-65.5 1562,-65.5"/>
<text text-anchor="start" x="1565" y="-186.5" font-family="Courier New" font-size="10.00" fill="blue"> &#160;&#160;&#160;WRITE(&quot;HERE I DIE&quot;);</text>
<text text-anchor="start" x="1565" y="-173.75" font-family="Courier New" font-size="10.00" fill="blue"> &#160;&#160;&#160;MAP(WSPRITE,WPARM);</text>
<text text-anchor="start" x="1565" y="-161" font-family="Courier New" font-size="10.00" fill="blue"> &#160;&#160;&#160;SHOW(0,WSPRITE);</text>
<text text-anchor="start" x="1565" y="-148.25" font-family="Courier New" font-size="10.00" fill="blue"> &#160;&#160;&#160;VIDEO(0,WSPRITE);</text>
<text text-anchor="start" x="1565" y="-135.5" font-family="Courier New" font-size="10.00" fill="blue"> &#160;&#160;&#160;ANIMATE(0,0);</text>
<text text-anchor="start" x="1565" y="-122.75" font-family="Courier New" font-size="10.00" fill="blue"> &#160;&#160;&#160;ASSIGN(LENERGY,0);</text>
<text text-anchor="start" x="1565" y="-110" font-family="Courier New" font-size="10.00" fill="blue"> &#160;&#160;&#160;ASSIGN(LWEALTH,0);</text>
<text text-anchor="start" x="1565" y="-97.25" font-family="Courier New" font-size="10.00" fill="blue"> &#160;&#160;&#160;SIGNAL(SMP_VIAL,SIG_DRAIN);</text>
<text text-anchor="start" x="1565" y="-84.5" font-family="Courier New" font-size="10.00" fill="blue"> &#160;&#160;&#160;SIGNAL(SID_PERSIST,SIG_UPDATE);</text>
<text text-anchor="start" x="1565" y="-71.75" font-family="Courier New" font-size="10.00" fill="blue"> &#160;&#160;&#160;LOADVIEW(IDV_VIL8);</text>
<polygon fill="none" stroke="black" points="1559,-62.5 1559,-222.75 1781,-222.75 1781,-62.5 1559,-62.5"/>
</g>
<!-- 50 -->
<g id="node18" class="node">
<title>50</title>
<polyline fill="none" stroke="darkred" points="15.75,-836 38.25,-836"/>
<text text-anchor="start" x="18.75" y="-843.2" font-family="Courier New" font-weight="bold" font-size="14.00">50</text>
<path fill="none" stroke="darkred" d="M22.25,-833C22.25,-833 31.75,-833 31.75,-833 36.5,-833 41.25,-837.75 41.25,-842.5 41.25,-842.5 41.25,-852 41.25,-852 41.25,-856.75 36.5,-861.5 31.75,-861.5 31.75,-861.5 22.25,-861.5 22.25,-861.5 17.5,-861.5 12.75,-856.75 12.75,-852 12.75,-852 12.75,-842.5 12.75,-842.5 12.75,-837.75 17.5,-833 22.25,-833"/>
</g>
<!-- 51 -->
<g id="node19" class="node">
<title>51</title>
<polyline fill="none" stroke="darkred" points="113.75,-651.62 136.25,-651.62"/>
<text text-anchor="start" x="116.75" y="-658.83" font-family="Courier New" font-weight="bold" font-size="14.00">51</text>
<path fill="none" stroke="darkred" d="M120.25,-648.62C120.25,-648.62 129.75,-648.62 129.75,-648.62 134.5,-648.62 139.25,-653.38 139.25,-658.12 139.25,-658.12 139.25,-667.62 139.25,-667.62 139.25,-672.38 134.5,-677.12 129.75,-677.12 129.75,-677.12 120.25,-677.12 120.25,-677.12 115.5,-677.12 110.75,-672.38 110.75,-667.62 110.75,-667.62 110.75,-658.12 110.75,-658.12 110.75,-653.38 115.5,-648.62 120.25,-648.62"/>
</g>
<!-- 50&#45;&gt;51 -->
<g id="edge12" class="edge">
<title>50&#45;&gt;51</title>
<path fill="none" stroke="black" d="M36.22,-829.09C53.29,-797.32 89.95,-729.1 110.42,-691.01"/>
<polygon fill="black" stroke="black" points="113.37,-692.92 115.02,-682.45 107.2,-689.6 113.37,-692.92"/>
<text text-anchor="start" x="98" y="-756.12" font-family="Courier New" font-weight="bold" font-size="10.00" fill="blue">VIDEO(0,IDS_EXPLODE1)</text>
</g>
<!-- 51&#45;&gt;21 -->
<g id="edge13" class="edge">
<title>51&#45;&gt;21</title>
<path fill="none" stroke="black" d="M128.27,-645.05C134.75,-616.59 152.12,-559.38 191,-532 228.67,-505.47 363.12,-498.9 429.86,-497.28"/>
<polygon fill="black" stroke="black" points="429.68,-500.79 439.6,-497.07 429.53,-493.79 429.68,-500.79"/>
<polygon fill="none" stroke="black" points="194,-581.25 194,-600 458,-600 458,-581.25 194,-581.25"/>
<text text-anchor="start" x="251" y="-588.5" font-family="Courier New" font-weight="bold" font-size="10.00" fill="blue">PLAYWAVE(0,SOUND_EXPLODE)</text>
<polygon fill="none" stroke="black" points="194,-535 194,-579.25 458,-579.25 458,-535 194,-535"/>
<text text-anchor="start" x="197" y="-566.75" font-family="Courier New" font-size="10.00" fill="blue"> &#160;&#160;&#160;&#160;&#160;&#160;&#160;&#160;&#160;&#160;&#160;SUBI(LENERGY,1);</text>
<text text-anchor="start" x="197" y="-554" font-family="Courier New" font-size="10.00" fill="blue"> &#160;&#160;&#160;&#160;&#160;&#160;&#160;&#160;&#160;&#160;&#160;SIGNAL(SID_PERSIST,SIG_UPDATE);</text>
<text text-anchor="start" x="197" y="-541.25" font-family="Courier New" font-size="10.00" fill="blue"> &#160;&#160;&#160;&#160;&#160;&#160;&#160;&#160;&#160;&#160;&#160;SIGNAL(SID_AURA,SIG_SUB);</text>
<polygon fill="none" stroke="black" points="191,-532 191,-603 461,-603 461,-532 191,-532"/>
</g>
<!-- dead&#45;&gt;0 -->
<g id="edge15" class="edge">
<title>dead&#45;&gt;0</title>
<path fill="none" stroke="black" d="M1829.37,-36.4C1898.12,-65.19 2046,-140.76 2046,-258 2046,-1636.5 2046,-1636.5 2046,-1636.5 2046,-1712.22 1990.09,-1787.42 1956.93,-1825.37"/>
<polygon fill="black" stroke="black" points="1954.49,-1822.84 1950.44,-1832.63 1959.71,-1827.5 1954.49,-1822.84"/>
<text text-anchor="start" x="2050" y="-756.12" font-family="Courier New" font-weight="bold" font-size="10.00" fill="orange">WAIT(,SIG_MYID)</text>
</g>
<!-- dead&#45;&gt;present -->
<g id="edge14" class="edge">
<title>dead&#45;&gt;present</title>
<path fill="none" stroke="black" d="M1795,-44.29C1795,-85.38 1795,-179.14 1795,-258 1795,-1214.38 1795,-1214.38 1795,-1214.38 1795,-1416.2 1725.85,-1493.41 1554,-1599.25 1524.34,-1617.52 1431.81,-1627 1371.81,-1631.35"/>
<polygon fill="black" stroke="black" points="1371.88,-1627.84 1362.15,-1632.02 1372.37,-1634.82 1371.88,-1627.84"/>
<text text-anchor="start" x="1799" y="-660.75" font-family="Courier New" font-weight="bold" font-size="10.00" fill="orange">WAIT(,SIG_REVIVE)</text>
</g>
<!-- sitting&#45;&gt;present -->
<g id="edge23" class="edge">
<title>sitting&#45;&gt;present</title>
<path fill="none" stroke="black" d="M1058.25,-1000.66C1062.66,-1059.98 1077.65,-1254.28 1087,-1280.75 1135.25,-1417.35 1246.54,-1553.73 1294.89,-1608.93"/>
<polygon fill="black" stroke="black" points="1292.11,-1611.07 1301.35,-1616.24 1297.35,-1606.43 1292.11,-1611.07"/>
<polygon fill="none" stroke="black" points="1090,-1259 1090,-1277.75 1678,-1277.75 1678,-1259 1090,-1259"/>
<text text-anchor="start" x="1336" y="-1266.25" font-family="Courier New" font-weight="bold" font-size="10.00" fill="orange">WAIT(0,SIG_MYID)</text>
<polygon fill="none" stroke="black" points="1090,-1149 1090,-1257 1678,-1257 1678,-1149 1090,-1149"/>
<text text-anchor="start" x="1093" y="-1244.5" font-family="Courier New" font-size="10.00" fill="blue"> &#160;&#160;&#160;CLEAR(WSPRITE);</text>
<text text-anchor="start" x="1093" y="-1231.75" font-family="Courier New" font-size="10.00" fill="blue"> &#160;&#160;&#160;&#160;SHOW(0);</text>
<text text-anchor="start" x="1093" y="-1219" font-family="Courier New" font-size="10.00" fill="blue"> &#160;&#160;&#160;predicate active_character(name);</text>
<text text-anchor="start" x="1093" y="-1206.25" font-family="Courier New" font-size="10.00" fill="blue"> &#160;&#160;&#160;active_character(?BPARM)?</text>
<text text-anchor="start" x="1093" y="-1193.5" font-family="Courier New" font-size="10.00" fill="blue"> &#160;&#160;&#160;predicate localplayer(name,viewname, wealth,karma, energy,strength, wisdom, gender, culture);</text>
<text text-anchor="start" x="1093" y="-1180.75" font-family="Courier New" font-size="10.00" fill="blue"> &#160;&#160;&#160;localplayer(BPARM, ?WTEMP1, ?LWEALTH, ?LKARMA,?LENERGY,?LSTRENGTH, ?LWISDOM, ?LSEX, ?WTEMP2)?</text>
<text text-anchor="start" x="1093" y="-1168" font-family="Courier New" font-size="10.00" fill="blue"> &#160;&#160;&#160;&#160;SIGNAL(SID_AURA, SIG_MYAURA);</text>
<text text-anchor="start" x="1093" y="-1155.25" font-family="Courier New" font-size="10.00" fill="blue"> &#160;&#160;&#160;&#160;SIGNAL(SID_HALO, SIG_MYHALO);</text>
<polygon fill="none" stroke="black" points="1087,-1146 1087,-1280.75 1681,-1280.75 1681,-1146 1087,-1146"/>
</g>
<!-- sitting&#45;&gt;present -->
<g id="edge35" class="edge">
<title>sitting&#45;&gt;present</title>
<path fill="none" stroke="black" d="M1099.53,-987.93C1228.12,-1002.29 1608.43,-1052.11 1681,-1146 1818.01,-1323.26 1479.02,-1542.01 1358.56,-1611.91"/>
<polygon fill="black" stroke="black" points="1357.17,-1608.68 1350.24,-1616.7 1360.66,-1614.74 1357.17,-1608.68"/>
<text text-anchor="start" x="1717" y="-1211.25" font-family="Courier New" font-weight="bold" font-size="10.00" fill="orange">WAIT(0,0)</text>
</g>
<!-- sitting&#45;&gt;100 -->
<g id="edge34" class="edge">
<title>sitting&#45;&gt;100</title>
<path fill="none" stroke="black" d="M1099.83,-980.54C1232.56,-977.34 1629.23,-966.17 1648,-946.25 1665.38,-927.81 1659.29,-897.88 1651.08,-875.95"/>
<polygon fill="black" stroke="black" points="1654.32,-874.62 1647.28,-866.71 1647.84,-877.29 1654.32,-874.62"/>
<text text-anchor="start" x="1663" y="-921.38" font-family="Courier New" font-weight="bold" font-size="10.00" fill="orange">WAIT(0,SIG_CLEAR)</text>
</g>
<!-- sitting&#45;&gt;20 -->
<g id="edge24" class="edge">
<title>sitting&#45;&gt;20</title>
<path fill="none" stroke="black" d="M1014.18,-979.68C939.64,-976.02 789.36,-966.36 741,-946.25 699.41,-928.95 681.47,-923.37 662,-882.75 612.98,-780.46 700.97,-648.88 743.69,-594.15"/>
<polygon fill="black" stroke="black" points="746.19,-596.64 749.67,-586.63 740.71,-592.28 746.19,-596.64"/>
<text text-anchor="start" x="666" y="-845.12" font-family="Courier New" font-weight="bold" font-size="10.00" fill="orange">WAIT(0,SIG_HAPPY)</text>
</g>
<!-- sitting&#45;&gt;21 -->
<g id="edge25" class="edge">
<title>sitting&#45;&gt;21</title>
<path fill="none" stroke="black" d="M1014.31,-981.21C896.1,-980.05 570.61,-974.32 532,-946.25 472.96,-903.32 485.17,-865.36 471,-793.75 460.94,-742.9 464.83,-588.75 466.96,-524.91"/>
<polygon fill="black" stroke="black" points="470.45,-525.37 467.3,-515.25 463.45,-525.12 470.45,-525.37"/>
<text text-anchor="start" x="475" y="-756.12" font-family="Courier New" font-weight="bold" font-size="10.00" fill="orange">WAIT(0,SIG_HURT)</text>
</g>
<!-- sitting&#45;&gt;22 -->
<g id="edge26" class="edge">
<title>sitting&#45;&gt;22</title>
<path fill="none" stroke="black" d="M1014.24,-979.64C934.6,-975.73 770.07,-965.42 753,-946.25 739.55,-931.15 745.04,-919.34 753,-900.75 755.92,-893.93 766.87,-882.99 778.24,-872.85"/>
<polygon fill="black" stroke="black" points="780.49,-875.53 785.75,-866.33 775.9,-870.24 780.49,-875.53"/>
<text text-anchor="start" x="757" y="-921.38" font-family="Courier New" font-weight="bold" font-size="10.00" fill="orange">WAIT(0,SIG_KISS)</text>
</g>
<!-- sitting&#45;&gt;23 -->
<g id="edge27" class="edge">
<title>sitting&#45;&gt;23</title>
<path fill="none" stroke="black" d="M1014.45,-981.84C896.68,-982.33 573.02,-980.54 541,-946.25 518.66,-922.34 567.34,-831.99 594.44,-786.2"/>
<polygon fill="black" stroke="black" points="597.42,-788.04 599.56,-777.66 591.42,-784.44 597.42,-788.04"/>
<text text-anchor="start" x="545" y="-921.38" font-family="Courier New" font-weight="bold" font-size="10.00" fill="orange">WAIT(0,SIG_MAD)</text>
</g>
<!-- sitting&#45;&gt;24 -->
<g id="edge28" class="edge">
<title>sitting&#45;&gt;24</title>
<path fill="none" stroke="black" d="M1080.44,-964.41C1131.64,-925.39 1252.26,-823.84 1294,-704.75 1306.31,-669.62 1316.29,-650.81 1294,-621 1289.7,-615.24 1204.85,-591.99 1153.88,-578.44"/>
<polygon fill="black" stroke="black" points="1154.97,-575.11 1144.41,-575.93 1153.18,-581.87 1154.97,-575.11"/>
<text text-anchor="start" x="1238" y="-845.12" font-family="Courier New" font-weight="bold" font-size="10.00" fill="orange">WAIT(0,SIG_SAD)</text>
</g>
<!-- sitting&#45;&gt;25 -->
<g id="edge29" class="edge">
<title>sitting&#45;&gt;25</title>
<path fill="none" stroke="black" d="M1060.63,-964.35C1066.73,-930.31 1074.8,-853.87 1035,-811.75 1005.18,-780.2 967,-826.92 939,-793.75 873.49,-716.15 905.81,-582.18 924.21,-524.49"/>
<polygon fill="black" stroke="black" points="927.49,-525.73 927.31,-515.14 920.84,-523.53 927.49,-525.73"/>
<text text-anchor="start" x="943" y="-756.12" font-family="Courier New" font-weight="bold" font-size="10.00" fill="orange">WAIT(0,SIG_SURPRISED)</text>
</g>
<!-- sitting&#45;&gt;26 -->
<g id="edge30" class="edge">
<title>sitting&#45;&gt;26</title>
<path fill="none" stroke="black" d="M1099.66,-980.77C1174.26,-978.83 1324.75,-971.77 1370,-946.25 1392.22,-933.71 1384.02,-915.27 1405,-900.75 1427.54,-885.14 1447.69,-904.78 1464,-882.75 1484.79,-854.67 1471.21,-813.19 1458.22,-786.19"/>
<polygon fill="black" stroke="black" points="1461.51,-784.93 1453.84,-777.62 1455.27,-788.11 1461.51,-784.93"/>
<text text-anchor="start" x="1409" y="-921.38" font-family="Courier New" font-weight="bold" font-size="10.00" fill="orange">WAIT(0,SIG_STRESS)</text>
</g>
<!-- sitting&#45;&gt;27 -->
<g id="edge31" class="edge">
<title>sitting&#45;&gt;27</title>
<path fill="none" stroke="black" d="M1099.63,-980.55C1163.04,-976.56 1280.45,-958.69 1334,-882.75 1356.84,-850.36 1348.2,-733.44 1315,-621 1312.42,-612.25 1308.37,-603.24 1304.18,-595.21"/>
<polygon fill="black" stroke="black" points="1307.35,-593.7 1299.45,-586.64 1301.22,-597.08 1307.35,-593.7"/>
<text text-anchor="start" x="1351" y="-845.12" font-family="Courier New" font-weight="bold" font-size="10.00" fill="orange">WAIT(0,SIG_WAVE)</text>
</g>
<!-- sitting&#45;&gt;30 -->
<g id="edge32" class="edge">
<title>sitting&#45;&gt;30</title>
<path fill="none" stroke="black" d="M1099.73,-981.27C1208.76,-980.27 1490.83,-974.9 1521,-946.25 1543.23,-925.15 1545.78,-834.85 1545.55,-787.89"/>
<polygon fill="black" stroke="black" points="1549.05,-787.89 1545.44,-777.93 1542.05,-787.97 1549.05,-787.89"/>
<text text-anchor="start" x="1541" y="-921.38" font-family="Courier New" font-weight="bold" font-size="10.00" fill="orange">WAIT(0,SIG_DEAD)</text>
</g>
<!-- sitting&#45;&gt;50 -->
<g id="edge33" class="edge">
<title>sitting&#45;&gt;50</title>
<path fill="none" stroke="black" d="M1014.28,-981.69C822.9,-982.33 52.18,-982.64 17,-946.25 -0.69,-927.95 5.57,-897.8 13.91,-875.76"/>
<polygon fill="black" stroke="black" points="17.04,-877.36 17.63,-866.79 10.57,-874.68 17.04,-877.36"/>
<polygon fill="none" stroke="black" points="20,-924.5 20,-943.25 458,-943.25 458,-924.5 20,-924.5"/>
<text text-anchor="start" x="191" y="-931.75" font-family="Courier New" font-weight="bold" font-size="10.00" fill="orange">WAIT(0,SIG_BOMB)</text>
<polygon fill="none" stroke="black" points="20,-903.75 20,-922.5 458,-922.5 458,-903.75 20,-903.75"/>
<text text-anchor="start" x="23" y="-910" font-family="Courier New" font-size="10.00" fill="blue"> &#160;&#160;&#160;&#160;WRITE(&quot;I am S_ID and I receive signals! This one is a SIG_BOMB! &quot;);</text>
<polygon fill="none" stroke="black" points="17,-900.75 17,-946.25 461,-946.25 461,-900.75 17,-900.75"/>
</g>
<!-- setId&#45;&gt;sitting -->
<g id="edge22" class="edge">
<title>setId&#45;&gt;sitting</title>
<path fill="none" stroke="black" d="M732.2,-1195.25C742.62,-1156.69 773.54,-1062.96 837,-1018.75 863.13,-1000.55 946.66,-991.18 1002.94,-986.81"/>
<polygon fill="black" stroke="black" points="1002.93,-990.32 1012.65,-986.09 1002.42,-983.34 1002.93,-990.32"/>
<polygon fill="none" stroke="black" points="840,-1106.25 840,-1125 1056,-1125 1056,-1106.25 840,-1106.25"/>
<text text-anchor="start" x="885" y="-1113.5" font-family="Courier New" font-weight="bold" font-size="10.00" fill="blue">ASSIGN(WSPRITE,happy)</text>
<polygon fill="none" stroke="black" points="840,-1021.75 840,-1104.25 1056,-1104.25 1056,-1021.75 840,-1021.75"/>
<text text-anchor="start" x="843" y="-1091.75" font-family="Courier New" font-size="10.00" fill="blue"> &#160;&#160;&#160;MAP(WSPRITE,WPARM);</text>
<text text-anchor="start" x="843" y="-1079" font-family="Courier New" font-size="10.00" fill="blue"> &#160;&#160;&#160;ASSIGN(BFRAME,0);</text>
<text text-anchor="start" x="843" y="-1066.25" font-family="Courier New" font-size="10.00" fill="blue"> &#160;&#160;&#160;SHOW(WSPRITE);</text>
<text text-anchor="start" x="843" y="-1053.5" font-family="Courier New" font-size="10.00" fill="blue"> &#160;&#160;&#160;SIGNAL(SID_AURA, SIG_MYAURA);</text>
<text text-anchor="start" x="843" y="-1040.75" font-family="Courier New" font-size="10.00" fill="blue"> &#160;&#160;&#160;SIGNAL(SID_HALO, SIG_MYHALO);</text>
<text text-anchor="start" x="843" y="-1028" font-family="Courier New" font-size="10.00" fill="blue"> &#160;&#160;&#160;SIGNAL(SID_PERSIST,SIG_UPDATE);</text>
<polygon fill="none" stroke="black" points="837,-1018.75 837,-1128 1059,-1128 1059,-1018.75 837,-1018.75"/>
</g>
<!-- status -->
<g id="node23" class="node">
<title>status</title>
<polygon fill="none" stroke="black" points="1978,-1812.25 1978,-1891.25 2426,-1891.25 2426,-1812.25 1978,-1812.25"/>
<polygon fill="none" stroke="black" points="1989,-1865.5 1989,-1884.25 2415,-1884.25 2415,-1865.5 1989,-1865.5"/>
<text text-anchor="start" x="2184" y="-1872.75" font-family="Courier New" font-weight="bold" font-size="10.00">SID_ID</text>
<polygon fill="none" stroke="black" points="1989,-1819.25 1989,-1863.5 2415,-1863.5 2415,-1819.25 1989,-1819.25"/>
<text text-anchor="start" x="1992" y="-1851" font-family="Courier New" font-size="10.00" fill="green">VIEW::IDV_ID @pos(x:0, y:0, h:101, w:171)</text>
<text text-anchor="start" x="1992" y="-1838.25" font-family="Courier New" font-size="10.00" fill="green">SID_ID::M_ID(&#39;&#39;,&#39;&#39;,&#39;0&#39;,&#39;SID_AURA&#39;,&#39;&#39;,&#39;&#39;)</text>
<text text-anchor="start" x="1992" y="-1825.5" font-family="Courier New" font-size="10.00" fill="green">{state:&#39;dead&#39;: wParm:F1 wSprite:IDS_FID1HURT bFrame:9 Top:0 Left:0 Z:0</text>
<polygon fill="none" stroke="black" points="1986,-1816.25 1986,-1887.25 2418,-1887.25 2418,-1816.25 1986,-1816.25"/>
</g>
</g>
</svg>
