<?xml version="1.0" encoding="UTF-8" standalone="no"?>
<!DOCTYPE svg PUBLIC "-//W3C//DTD SVG 1.1//EN"
 "http://www.w3.org/Graphics/SVG/1.1/DTD/svg11.dtd">
<!-- Generated by graphviz version 10.0.1 (20240210.2158)
 -->
<!-- Title: Automaton Pages: 1 -->
<svg width="697pt" height="621pt"
 viewBox="0.00 0.00 696.91 621.25" xmlns="http://www.w3.org/2000/svg" xmlns:xlink="http://www.w3.org/1999/xlink">
<g id="graph0" class="graph" transform="scale(1 1) rotate(0) translate(4 617.25)">
<title>Automaton</title>
<polygon fill="white" stroke="none" points="-4,4 -4,-617.25 692.91,-617.25 692.91,4 -4,4"/>
<!-- filename -->
<g id="node1" class="node">
<title>filename</title>
<polygon fill="none" stroke="black" points="200.91,-546.5 200.91,-600 324.91,-600 324.91,-546.5 200.91,-546.5"/>
<polygon fill="none" stroke="black" points="211.91,-574.25 211.91,-593 313.91,-593 313.91,-574.25 211.91,-574.25"/>
<text text-anchor="start" x="214.91" y="-581.5" font-family="Courier New" font-weight="bold" font-size="10.00">SID_HALO::M_HALO</text>
<polygon fill="none" stroke="black" points="211.91,-553.5 211.91,-572.25 313.91,-572.25 313.91,-553.5 211.91,-553.5"/>
<text text-anchor="start" x="217.91" y="-559.75" font-family="Courier New" font-size="10.00" fill="brown">start state = 0</text>
<polygon fill="none" stroke="black" points="208.91,-550.5 208.91,-596 316.91,-596 316.91,-550.5 208.91,-550.5"/>
</g>
<!-- 0 -->
<g id="node2" class="node">
<title>0</title>
<polyline fill="none" stroke="darkred" stroke-width="3" points="362.28,-561.5 377.53,-561.5"/>
<text text-anchor="start" x="365.78" y="-569.2" font-family="Courier New" font-weight="bold" font-size="14.00">0</text>
<path fill="none" stroke="darkred" stroke-width="3" d="M365.7,-556.5C365.7,-556.5 374.12,-556.5 374.12,-556.5 378.32,-556.5 382.53,-560.71 382.53,-564.92 382.53,-564.92 382.53,-581.58 382.53,-581.58 382.53,-585.79 378.32,-590 374.12,-590 374.12,-590 365.7,-590 365.7,-590 361.49,-590 357.28,-585.79 357.28,-581.58 357.28,-581.58 357.28,-564.92 357.28,-564.92 357.28,-560.71 361.49,-556.5 365.7,-556.5"/>
</g>
<!-- karmaBoost -->
<g id="node3" class="node">
<title>karmaBoost</title>
<polyline fill="none" stroke="darkred" points="325.66,-447 414.16,-447"/>
<text text-anchor="start" x="328.66" y="-454.2" font-family="Courier New" font-weight="bold" font-size="14.00">karmaBoost</text>
<path fill="none" stroke="darkred" d="M332.16,-444C332.16,-444 407.66,-444 407.66,-444 412.41,-444 417.16,-448.75 417.16,-453.5 417.16,-453.5 417.16,-463 417.16,-463 417.16,-467.75 412.41,-472.5 407.66,-472.5 407.66,-472.5 332.16,-472.5 332.16,-472.5 327.41,-472.5 322.66,-467.75 322.66,-463 322.66,-463 322.66,-453.5 322.66,-453.5 322.66,-448.75 327.41,-444 332.16,-444"/>
</g>
<!-- 0&#45;&gt;karmaBoost -->
<g id="edge1" class="edge">
<title>0&#45;&gt;karmaBoost</title>
<path fill="none" stroke="black" d="M369.91,-551.26C369.91,-533.4 369.91,-507.56 369.91,-487.82"/>
<polygon fill="black" stroke="black" points="373.41,-487.95 369.91,-477.95 366.41,-487.95 373.41,-487.95"/>
<text text-anchor="start" x="373.91" y="-502.75" font-family="Courier New" font-weight="bold" font-size="10.00" fill="orange">WAIT(0,SIG_MYHALO)</text>
</g>
<!-- 1 -->
<g id="node4" class="node">
<title>1</title>
<polyline fill="none" stroke="darkred" points="362.78,-227 377.03,-227"/>
<text text-anchor="start" x="365.78" y="-234.2" font-family="Courier New" font-weight="bold" font-size="14.00">1</text>
<path fill="none" stroke="darkred" d="M366.53,-224C366.53,-224 373.28,-224 373.28,-224 376.66,-224 380.03,-227.38 380.03,-230.75 380.03,-230.75 380.03,-245.75 380.03,-245.75 380.03,-249.12 376.66,-252.5 373.28,-252.5 373.28,-252.5 366.53,-252.5 366.53,-252.5 363.16,-252.5 359.78,-249.12 359.78,-245.75 359.78,-245.75 359.78,-230.75 359.78,-230.75 359.78,-227.38 363.16,-224 366.53,-224"/>
</g>
<!-- karmaBoost&#45;&gt;1 -->
<g id="edge6" class="edge">
<title>karmaBoost&#45;&gt;1</title>
<path fill="none" stroke="black" d="M314.76,-455.44C224.03,-451.9 51.39,-442.51 32.91,-422 -10.97,-373.29 -10.97,-323.21 32.91,-274.5 52.63,-252.61 247.91,-243.39 331.87,-240.42"/>
<polygon fill="black" stroke="black" points="331.79,-243.92 341.67,-240.08 331.55,-236.93 331.79,-243.92"/>
<polygon fill="none" stroke="black" points="35.91,-400.25 35.91,-419 281.91,-419 281.91,-400.25 35.91,-400.25"/>
<text text-anchor="start" x="116.91" y="-407.5" font-family="Courier New" font-weight="bold" font-size="10.00" fill="blue">ASSIGN(WPARM,)</text>
<polygon fill="none" stroke="black" points="35.91,-277.5 35.91,-398.25 281.91,-398.25 281.91,-277.5 35.91,-277.5"/>
<text text-anchor="start" x="38.91" y="-385.75" font-family="Courier New" font-size="10.00" fill="blue"> &#160;&#160;&#160;&#160;&#160;&#160;if(WIP2 &gt; (MAX_KARMA &#45; 1)){</text>
<text text-anchor="start" x="38.91" y="-373" font-family="Courier New" font-size="10.00" fill="blue"> &#160;&#160;&#160;&#160;&#160;&#160;&#160;&#160;&#160;&#160;&#160;&#160;ASSIGN(LKARMA,(MAX_KARMA));</text>
<text text-anchor="start" x="38.91" y="-360.25" font-family="Courier New" font-size="10.00" fill="blue"> &#160;&#160;&#160;&#160;&#160;&#160;}</text>
<text text-anchor="start" x="38.91" y="-347.5" font-family="Courier New" font-size="10.00" fill="blue"> &#160;&#160;&#160;&#160;&#160;&#160;&#160;ASSIGN(BPARM,LKARMA);</text>
<text text-anchor="start" x="38.91" y="-334.75" font-family="Courier New" font-size="10.00" fill="blue"> &#160;&#160;&#160;&#160;&#160;&#160;&#160;MOV(WSPRITE,BPARM);</text>
<text text-anchor="start" x="38.91" y="-322" font-family="Courier New" font-size="10.00" fill="blue"> &#160;&#160;&#160;&#160;&#160;&#160;&#160;DIV(WSPRITE,2);</text>
<text text-anchor="start" x="38.91" y="-309.25" font-family="Courier New" font-size="10.00" fill="blue"> &#160;&#160;&#160;&#160;&#160;&#160;&#160;MAPi(WSPRITE,S00_KARMA_MAP);</text>
<text text-anchor="start" x="38.91" y="-296.5" font-family="Courier New" font-size="10.00" fill="blue"> &#160;&#160;&#160;&#160;&#160;&#160;&#160;ASHOW(WSPRITE);</text>
<text text-anchor="start" x="38.91" y="-283.75" font-family="Courier New" font-size="10.00" fill="blue"> &#160;&#160;&#160;&#160;&#160;&#160;&#160;SIGNALi(0,WIP1);</text>
<polygon fill="none" stroke="black" points="32.91,-274.5 32.91,-422 284.91,-422 284.91,-274.5 32.91,-274.5"/>
</g>
<!-- 1&#45;&gt;karmaBoost -->
<g id="edge2" class="edge">
<title>1&#45;&gt;karmaBoost</title>
<path fill="none" stroke="black" d="M343.23,-245.73C328.28,-250.87 310.89,-259.73 301.91,-274.5 284.88,-302.51 284.88,-393.99 301.91,-422 304.54,-426.34 307.9,-430.16 311.72,-433.53"/>
<polygon fill="black" stroke="black" points="309.35,-436.14 319.46,-439.31 313.53,-430.52 309.35,-436.14"/>
<text text-anchor="start" x="305.91" y="-346.12" font-family="Courier New" font-weight="bold" font-size="10.00" fill="orange">WAIT(0,SIG_MYHALO)</text>
</g>
<!-- 1&#45;&gt;karmaBoost -->
<g id="edge3" class="edge">
<title>1&#45;&gt;karmaBoost</title>
<path fill="none" stroke="black" d="M396.71,-252.46C405.06,-258.03 413.28,-265.37 417.91,-274.5 447.52,-332.99 447.52,-363.51 417.91,-422 415.97,-425.82 413.41,-429.33 410.46,-432.53"/>
<polygon fill="black" stroke="black" points="408.13,-429.92 403.09,-439.24 412.84,-435.1 408.13,-429.92"/>
<text text-anchor="start" x="443.91" y="-346.12" font-family="Courier New" font-weight="bold" font-size="10.00" fill="orange">WAIT(0,SIG_ADD)</text>
</g>
<!-- 1&#45;&gt;karmaBoost -->
<g id="edge5" class="edge">
<title>1&#45;&gt;karmaBoost</title>
<path fill="none" stroke="black" d="M396.61,-240.84C439.64,-244.02 521.28,-252.81 538.91,-274.5 580.26,-325.37 580.26,-371.13 538.91,-422 525.88,-438.03 477.87,-447.02 436.34,-451.9"/>
<polygon fill="black" stroke="black" points="436.17,-448.4 426.61,-452.97 436.94,-455.35 436.17,-448.4"/>
<text text-anchor="start" x="573.91" y="-346.12" font-family="Courier New" font-weight="bold" font-size="10.00" fill="orange">WAIT(0,0)</text>
</g>
<!-- karmaDrain -->
<g id="node5" class="node">
<title>karmaDrain</title>
<polyline fill="none" stroke="darkred" points="325.66,-7 414.16,-7"/>
<text text-anchor="start" x="328.66" y="-14.2" font-family="Courier New" font-weight="bold" font-size="14.00">karmaDrain</text>
<path fill="none" stroke="darkred" d="M332.16,-4C332.16,-4 407.66,-4 407.66,-4 412.41,-4 417.16,-8.75 417.16,-13.5 417.16,-13.5 417.16,-23 417.16,-23 417.16,-27.75 412.41,-32.5 407.66,-32.5 407.66,-32.5 332.16,-32.5 332.16,-32.5 327.41,-32.5 322.66,-27.75 322.66,-23 322.66,-23 322.66,-13.5 322.66,-13.5 322.66,-8.75 327.41,-4 332.16,-4"/>
</g>
<!-- 1&#45;&gt;karmaDrain -->
<g id="edge4" class="edge">
<title>1&#45;&gt;karmaDrain</title>
<path fill="none" stroke="black" d="M343.02,-228.24C330.93,-222.69 317.86,-214.25 310.91,-202 278.56,-144.98 278.56,-111.52 310.91,-54.5 313.26,-50.36 316.31,-46.65 319.79,-43.34"/>
<polygon fill="black" stroke="black" points="321.75,-46.25 327.37,-37.27 317.38,-40.79 321.75,-46.25"/>
<text text-anchor="start" x="314.91" y="-126.12" font-family="Courier New" font-weight="bold" font-size="10.00" fill="orange">WAIT(0,SIG_SUB)</text>
</g>
<!-- karmaDrain&#45;&gt;1 -->
<g id="edge7" class="edge">
<title>karmaDrain&#45;&gt;1</title>
<path fill="none" stroke="black" d="M395.26,-36.49C400.78,-41.59 405.87,-47.66 408.91,-54.5 435.52,-114.41 435.52,-142.09 408.91,-202 407.39,-205.42 405.36,-208.65 403.01,-211.66"/>
<polygon fill="black" stroke="black" points="400.53,-209.19 396.29,-218.9 405.66,-213.96 400.53,-209.19"/>
<polygon fill="none" stroke="black" points="430.91,-180.25 430.91,-199 652.91,-199 652.91,-180.25 430.91,-180.25"/>
<text text-anchor="start" x="499.91" y="-187.5" font-family="Courier New" font-weight="bold" font-size="10.00" fill="blue">ASSIGN(WPARM,)</text>
<polygon fill="none" stroke="black" points="430.91,-57.5 430.91,-178.25 652.91,-178.25 652.91,-57.5 430.91,-57.5"/>
<text text-anchor="start" x="433.91" y="-165.75" font-family="Courier New" font-size="10.00" fill="blue"> &#160;&#160;&#160;&#160;&#160;&#160;&#160;if(LKARMA &lt;= 0){</text>
<text text-anchor="start" x="433.91" y="-153" font-family="Courier New" font-size="10.00" fill="blue"> &#160;&#160;&#160;&#160;&#160;&#160;&#160;&#160;&#160;&#160;&#160;&#160;ASSIGN(LKARMA,1);</text>
<text text-anchor="start" x="433.91" y="-140.25" font-family="Courier New" font-size="10.00" fill="blue"> &#160;&#160;&#160;&#160;&#160;&#160;} &#160;&#160;&#160;&#160;&#160;</text>
<text text-anchor="start" x="433.91" y="-127.5" font-family="Courier New" font-size="10.00" fill="blue"> &#160;&#160;&#160;&#160;&#160;&#160;&#160;ASSIGN(BPARM,LKARMA);</text>
<text text-anchor="start" x="433.91" y="-114.75" font-family="Courier New" font-size="10.00" fill="blue"> &#160;&#160;&#160;&#160;&#160;&#160;&#160;MOV(WSPRITE,BPARM);</text>
<text text-anchor="start" x="433.91" y="-102" font-family="Courier New" font-size="10.00" fill="blue"> &#160;&#160;&#160;&#160;&#160;&#160;&#160;DIV(WSPRITE,2);</text>
<text text-anchor="start" x="433.91" y="-89.25" font-family="Courier New" font-size="10.00" fill="blue"> &#160;&#160;&#160;&#160;&#160;&#160;&#160;MAPi(WSPRITE,S00_KARMA_MAP);</text>
<text text-anchor="start" x="433.91" y="-76.5" font-family="Courier New" font-size="10.00" fill="blue"> &#160;&#160;&#160;&#160;&#160;&#160;&#160;ASHOW(WSPRITE);</text>
<text text-anchor="start" x="433.91" y="-63.75" font-family="Courier New" font-size="10.00" fill="blue"> &#160;&#160;&#160;&#160;&#160;&#160;&#160;SIGNALi(0,WIP1);</text>
<polygon fill="none" stroke="black" points="427.91,-54.5 427.91,-202 655.91,-202 655.91,-54.5 427.91,-54.5"/>
</g>
<!-- status -->
<g id="node6" class="node">
<title>status</title>
<polygon fill="none" stroke="black" points="414.91,-533.75 414.91,-612.75 688.91,-612.75 688.91,-533.75 414.91,-533.75"/>
<polygon fill="none" stroke="black" points="425.91,-587 425.91,-605.75 677.91,-605.75 677.91,-587 425.91,-587"/>
<text text-anchor="start" x="527.91" y="-594.25" font-family="Courier New" font-weight="bold" font-size="10.00">SID_HALO</text>
<polygon fill="none" stroke="black" points="425.91,-540.75 425.91,-585 677.91,-585 677.91,-540.75 425.91,-540.75"/>
<text text-anchor="start" x="428.91" y="-572.5" font-family="Courier New" font-size="10.00" fill="green">VIEW::IDV_ID @pos(x:30, y:0, h:40, w:40)</text>
<text text-anchor="start" x="428.91" y="-559.75" font-family="Courier New" font-size="10.00" fill="green">SID_HALO::M_HALO(&#39;SID_ID&#39;,&#39;&#39;,&#39;&#39;,&#39;&#39;,&#39;&#39;,&#39;&#39;)</text>
<text text-anchor="start" x="428.91" y="-547" font-family="Courier New" font-size="10.00" fill="green">{state:&#39;0&#39;: Top:0 Left:30 Z:0</text>
<polygon fill="none" stroke="black" points="422.91,-537.75 422.91,-608.75 680.91,-608.75 680.91,-537.75 422.91,-537.75"/>
</g>
</g>
</svg>
