<?xml version="1.0" encoding="UTF-8" standalone="no"?>
<!DOCTYPE svg PUBLIC "-//W3C//DTD SVG 1.1//EN"
 "http://www.w3.org/Graphics/SVG/1.1/DTD/svg11.dtd">
<!-- Generated by graphviz version 10.0.1 (20240210.2158)
 -->
<!-- Title: Automaton Pages: 1 -->
<svg width="787pt" height="643pt"
 viewBox="0.00 0.00 786.64 643.00" xmlns="http://www.w3.org/2000/svg" xmlns:xlink="http://www.w3.org/1999/xlink">
<g id="graph0" class="graph" transform="scale(1 1) rotate(0) translate(4 639)">
<title>Automaton</title>
<polygon fill="white" stroke="none" points="-4,4 -4,-639 782.64,-639 782.64,4 -4,4"/>
<!-- filename -->
<g id="node1" class="node">
<title>filename</title>
<polygon fill="none" stroke="black" points="200.64,-568.25 200.64,-621.75 324.64,-621.75 324.64,-568.25 200.64,-568.25"/>
<polygon fill="none" stroke="black" points="211.64,-596 211.64,-614.75 313.64,-614.75 313.64,-596 211.64,-596"/>
<text text-anchor="start" x="214.64" y="-603.25" font-family="Courier New" font-weight="bold" font-size="10.00">SID_HALO::M_HALO</text>
<polygon fill="none" stroke="black" points="211.64,-575.25 211.64,-594 313.64,-594 313.64,-575.25 211.64,-575.25"/>
<text text-anchor="start" x="217.64" y="-581.5" font-family="Courier New" font-size="10.00" fill="brown">start state = 0</text>
<polygon fill="none" stroke="black" points="208.64,-572.25 208.64,-617.75 316.64,-617.75 316.64,-572.25 208.64,-572.25"/>
</g>
<!-- 0 -->
<g id="node2" class="node">
<title>0</title>
<polyline fill="none" stroke="darkred" points="362.51,-583.75 376.76,-583.75"/>
<text text-anchor="start" x="365.51" y="-590.95" font-family="Courier New" font-weight="bold" font-size="14.00">0</text>
<path fill="none" stroke="darkred" d="M366.26,-580.75C366.26,-580.75 373.01,-580.75 373.01,-580.75 376.39,-580.75 379.76,-584.12 379.76,-587.5 379.76,-587.5 379.76,-602.5 379.76,-602.5 379.76,-605.88 376.39,-609.25 373.01,-609.25 373.01,-609.25 366.26,-609.25 366.26,-609.25 362.89,-609.25 359.51,-605.88 359.51,-602.5 359.51,-602.5 359.51,-587.5 359.51,-587.5 359.51,-584.12 362.89,-580.75 366.26,-580.75"/>
</g>
<!-- karmaBoost -->
<g id="node3" class="node">
<title>karmaBoost</title>
<polyline fill="none" stroke="darkred" points="325.39,-468.75 413.89,-468.75"/>
<text text-anchor="start" x="328.39" y="-475.95" font-family="Courier New" font-weight="bold" font-size="14.00">karmaBoost</text>
<path fill="none" stroke="darkred" d="M331.89,-465.75C331.89,-465.75 407.39,-465.75 407.39,-465.75 412.14,-465.75 416.89,-470.5 416.89,-475.25 416.89,-475.25 416.89,-484.75 416.89,-484.75 416.89,-489.5 412.14,-494.25 407.39,-494.25 407.39,-494.25 331.89,-494.25 331.89,-494.25 327.14,-494.25 322.39,-489.5 322.39,-484.75 322.39,-484.75 322.39,-475.25 322.39,-475.25 322.39,-470.5 327.14,-465.75 331.89,-465.75"/>
</g>
<!-- 0&#45;&gt;karmaBoost -->
<g id="edge1" class="edge">
<title>0&#45;&gt;karmaBoost</title>
<path fill="none" stroke="black" d="M369.64,-576.84C369.64,-558.9 369.64,-530.45 369.64,-509.2"/>
<polygon fill="black" stroke="black" points="373.14,-509.47 369.64,-499.47 366.14,-509.47 373.14,-509.47"/>
<text text-anchor="start" x="373.64" y="-524.5" font-family="Courier New" font-weight="bold" font-size="10.00" fill="orange">WAIT(0,SIG_MYHALO)</text>
</g>
<!-- 1 -->
<g id="node4" class="node">
<title>1</title>
<polyline fill="none" stroke="darkred" stroke-width="3" points="362.01,-237.38 377.26,-237.38"/>
<text text-anchor="start" x="365.51" y="-245.07" font-family="Courier New" font-weight="bold" font-size="14.00">1</text>
<path fill="none" stroke="darkred" stroke-width="3" d="M365.43,-232.38C365.43,-232.38 373.85,-232.38 373.85,-232.38 378.06,-232.38 382.26,-236.58 382.26,-240.79 382.26,-240.79 382.26,-257.46 382.26,-257.46 382.26,-261.67 378.06,-265.88 373.85,-265.88 373.85,-265.88 365.43,-265.88 365.43,-265.88 361.22,-265.88 357.01,-261.67 357.01,-257.46 357.01,-257.46 357.01,-240.79 357.01,-240.79 357.01,-236.58 361.22,-232.38 365.43,-232.38"/>
</g>
<!-- karmaBoost&#45;&gt;1 -->
<g id="edge7" class="edge">
<title>karmaBoost&#45;&gt;1</title>
<path fill="none" stroke="black" d="M314.49,-477.19C223.76,-473.65 51.12,-464.26 32.64,-443.75 -11.24,-395.04 -10.46,-345.65 32.64,-296.25 71.04,-252.23 251.37,-248.7 331.31,-249.37"/>
<polygon fill="black" stroke="black" points="331.25,-252.87 341.28,-249.48 331.33,-245.87 331.25,-252.87"/>
<polygon fill="none" stroke="black" points="35.64,-422 35.64,-440.75 281.64,-440.75 281.64,-422 35.64,-422"/>
<text text-anchor="start" x="116.64" y="-429.25" font-family="Courier New" font-weight="bold" font-size="10.00" fill="blue">ASSIGN(WPARM,)</text>
<polygon fill="none" stroke="black" points="35.64,-299.25 35.64,-420 281.64,-420 281.64,-299.25 35.64,-299.25"/>
<text text-anchor="start" x="38.64" y="-407.5" font-family="Courier New" font-size="10.00" fill="blue"> &#160;&#160;&#160;&#160;&#160;&#160;if(WIP2 &gt; (MAX_KARMA &#45; 1)){</text>
<text text-anchor="start" x="38.64" y="-394.75" font-family="Courier New" font-size="10.00" fill="blue"> &#160;&#160;&#160;&#160;&#160;&#160;&#160;&#160;&#160;&#160;&#160;&#160;ASSIGN(LKARMA,(MAX_KARMA));</text>
<text text-anchor="start" x="38.64" y="-382" font-family="Courier New" font-size="10.00" fill="blue"> &#160;&#160;&#160;&#160;&#160;&#160;}</text>
<text text-anchor="start" x="38.64" y="-369.25" font-family="Courier New" font-size="10.00" fill="blue"> &#160;&#160;&#160;&#160;&#160;&#160;&#160;ASSIGN(BPARM,LKARMA);</text>
<text text-anchor="start" x="38.64" y="-356.5" font-family="Courier New" font-size="10.00" fill="blue"> &#160;&#160;&#160;&#160;&#160;&#160;&#160;MOV(WSPRITE,BPARM);</text>
<text text-anchor="start" x="38.64" y="-343.75" font-family="Courier New" font-size="10.00" fill="blue"> &#160;&#160;&#160;&#160;&#160;&#160;&#160;DIV(WSPRITE,2);</text>
<text text-anchor="start" x="38.64" y="-331" font-family="Courier New" font-size="10.00" fill="blue"> &#160;&#160;&#160;&#160;&#160;&#160;&#160;MAPi(WSPRITE,S00_KARMA_MAP);</text>
<text text-anchor="start" x="38.64" y="-318.25" font-family="Courier New" font-size="10.00" fill="blue"> &#160;&#160;&#160;&#160;&#160;&#160;&#160;ASHOW(WSPRITE);</text>
<text text-anchor="start" x="38.64" y="-305.5" font-family="Courier New" font-size="10.00" fill="blue"> &#160;&#160;&#160;&#160;&#160;&#160;&#160;SIGNALi(0,WIP1);</text>
<polygon fill="none" stroke="black" points="32.64,-296.25 32.64,-443.75 284.64,-443.75 284.64,-296.25 32.64,-296.25"/>
</g>
<!-- 1&#45;&gt;karmaBoost -->
<g id="edge2" class="edge">
<title>1&#45;&gt;karmaBoost</title>
<path fill="none" stroke="black" d="M342.75,-260.74C327.72,-268.23 310.32,-279.86 301.64,-296.25 286.29,-325.21 284.61,-415.74 301.64,-443.75 304.28,-448.09 307.64,-451.91 311.45,-455.28"/>
<polygon fill="black" stroke="black" points="309.08,-457.89 319.19,-461.06 313.27,-452.27 309.08,-457.89"/>
<text text-anchor="start" x="305.64" y="-367.88" font-family="Courier New" font-weight="bold" font-size="10.00" fill="orange">WAIT(0,SIG_MYHALO)</text>
</g>
<!-- 1&#45;&gt;karmaBoost -->
<g id="edge3" class="edge">
<title>1&#45;&gt;karmaBoost</title>
<path fill="none" stroke="black" d="M396.6,-269.01C404.96,-276.44 413.16,-285.72 417.64,-296.25 443.33,-356.56 447.25,-385.26 417.64,-443.75 415.7,-447.57 413.14,-451.08 410.2,-454.28"/>
<polygon fill="black" stroke="black" points="407.86,-451.67 402.82,-460.99 412.57,-456.85 407.86,-451.67"/>
<text text-anchor="start" x="441.64" y="-367.88" font-family="Courier New" font-weight="bold" font-size="10.00" fill="orange">WAIT(0,SIG_ADD)</text>
</g>
<!-- 1&#45;&gt;karmaBoost -->
<g id="edge5" class="edge">
<title>1&#45;&gt;karmaBoost</title>
<path fill="none" stroke="black" d="M396.44,-253.49C439.6,-259.53 521.43,-273.71 538.64,-296.25 578.43,-348.35 579.99,-392.88 538.64,-443.75 525.61,-459.78 477.6,-468.77 436.07,-473.65"/>
<polygon fill="black" stroke="black" points="435.9,-470.15 426.34,-474.72 436.67,-477.1 435.9,-470.15"/>
<text text-anchor="start" x="572.64" y="-367.88" font-family="Courier New" font-weight="bold" font-size="10.00" fill="orange">WAIT(0,0)</text>
</g>
<!-- 1&#45;&gt;1 -->
<g id="edge6" class="edge">
<title>1&#45;&gt;1</title>
<path fill="none" stroke="black" d="M393.71,-271.34C404.88,-273.76 414.64,-266.36 414.64,-249.12 414.64,-238.08 410.64,-231.08 404.82,-228.1"/>
<polygon fill="black" stroke="black" points="405.54,-224.66 395.22,-227.07 404.79,-231.62 405.54,-224.66"/>
<polygon fill="none" stroke="black" points="417.64,-256.5 417.64,-275.25 591.64,-275.25 591.64,-256.5 417.64,-256.5"/>
<text text-anchor="start" x="453.64" y="-263.75" font-family="Courier New" font-weight="bold" font-size="10.00" fill="orange">WAIT(0,SIG_CLEAR)</text>
<polygon fill="none" stroke="black" points="417.64,-223 417.64,-254.5 591.64,-254.5 591.64,-223 417.64,-223"/>
<text text-anchor="start" x="420.64" y="-242" font-family="Courier New" font-size="10.00" fill="blue"> &#160;WRITE(&quot;Clear the Halo&quot;); &#160;</text>
<text text-anchor="start" x="420.64" y="-229.25" font-family="Courier New" font-size="10.00" fill="blue"> &#160;SHOW(0);</text>
<polygon fill="none" stroke="black" points="414.64,-220 414.64,-278.25 594.64,-278.25 594.64,-220 414.64,-220"/>
</g>
<!-- karmaDrain -->
<g id="node5" class="node">
<title>karmaDrain</title>
<polyline fill="none" stroke="darkred" points="325.39,-7 413.89,-7"/>
<text text-anchor="start" x="328.39" y="-14.2" font-family="Courier New" font-weight="bold" font-size="14.00">karmaDrain</text>
<path fill="none" stroke="darkred" d="M331.89,-4C331.89,-4 407.39,-4 407.39,-4 412.14,-4 416.89,-8.75 416.89,-13.5 416.89,-13.5 416.89,-23 416.89,-23 416.89,-27.75 412.14,-32.5 407.39,-32.5 407.39,-32.5 331.89,-32.5 331.89,-32.5 327.14,-32.5 322.39,-27.75 322.39,-23 322.39,-23 322.39,-13.5 322.39,-13.5 322.39,-8.75 327.14,-4 331.89,-4"/>
</g>
<!-- 1&#45;&gt;karmaDrain -->
<g id="edge4" class="edge">
<title>1&#45;&gt;karmaDrain</title>
<path fill="none" stroke="black" d="M342.86,-234.58C330.65,-226.85 317.42,-215.91 310.64,-202 281.91,-143.07 278.29,-111.52 310.64,-54.5 312.99,-50.36 316.05,-46.65 319.53,-43.34"/>
<polygon fill="black" stroke="black" points="321.48,-46.25 327.11,-37.27 317.11,-40.79 321.48,-46.25"/>
<text text-anchor="start" x="314.64" y="-126.12" font-family="Courier New" font-weight="bold" font-size="10.00" fill="orange">WAIT(0,SIG_SUB)</text>
</g>
<!-- karmaDrain&#45;&gt;1 -->
<g id="edge8" class="edge">
<title>karmaDrain&#45;&gt;1</title>
<path fill="none" stroke="black" d="M394.99,-36.49C400.51,-41.59 405.6,-47.66 408.64,-54.5 435.25,-114.41 431.18,-140.44 408.64,-202 406.52,-207.79 403.32,-213.34 399.65,-218.48"/>
<polygon fill="black" stroke="black" points="397.12,-216.04 393.6,-226.03 402.58,-220.41 397.12,-216.04"/>
<polygon fill="none" stroke="black" points="429.64,-180.25 429.64,-199 651.64,-199 651.64,-180.25 429.64,-180.25"/>
<text text-anchor="start" x="498.64" y="-187.5" font-family="Courier New" font-weight="bold" font-size="10.00" fill="blue">ASSIGN(WPARM,)</text>
<polygon fill="none" stroke="black" points="429.64,-57.5 429.64,-178.25 651.64,-178.25 651.64,-57.5 429.64,-57.5"/>
<text text-anchor="start" x="432.64" y="-165.75" font-family="Courier New" font-size="10.00" fill="blue"> &#160;&#160;&#160;&#160;&#160;&#160;&#160;if(LKARMA &lt;= 0){</text>
<text text-anchor="start" x="432.64" y="-153" font-family="Courier New" font-size="10.00" fill="blue"> &#160;&#160;&#160;&#160;&#160;&#160;&#160;&#160;&#160;&#160;&#160;&#160;ASSIGN(LKARMA,1);</text>
<text text-anchor="start" x="432.64" y="-140.25" font-family="Courier New" font-size="10.00" fill="blue"> &#160;&#160;&#160;&#160;&#160;&#160;} &#160;&#160;&#160;&#160;&#160;</text>
<text text-anchor="start" x="432.64" y="-127.5" font-family="Courier New" font-size="10.00" fill="blue"> &#160;&#160;&#160;&#160;&#160;&#160;&#160;ASSIGN(BPARM,LKARMA);</text>
<text text-anchor="start" x="432.64" y="-114.75" font-family="Courier New" font-size="10.00" fill="blue"> &#160;&#160;&#160;&#160;&#160;&#160;&#160;MOV(WSPRITE,BPARM);</text>
<text text-anchor="start" x="432.64" y="-102" font-family="Courier New" font-size="10.00" fill="blue"> &#160;&#160;&#160;&#160;&#160;&#160;&#160;DIV(WSPRITE,2);</text>
<text text-anchor="start" x="432.64" y="-89.25" font-family="Courier New" font-size="10.00" fill="blue"> &#160;&#160;&#160;&#160;&#160;&#160;&#160;MAPi(WSPRITE,S00_KARMA_MAP);</text>
<text text-anchor="start" x="432.64" y="-76.5" font-family="Courier New" font-size="10.00" fill="blue"> &#160;&#160;&#160;&#160;&#160;&#160;&#160;ASHOW(WSPRITE);</text>
<text text-anchor="start" x="432.64" y="-63.75" font-family="Courier New" font-size="10.00" fill="blue"> &#160;&#160;&#160;&#160;&#160;&#160;&#160;SIGNALi(0,WIP1);</text>
<polygon fill="none" stroke="black" points="426.64,-54.5 426.64,-202 654.64,-202 654.64,-54.5 426.64,-54.5"/>
</g>
<!-- status -->
<g id="node6" class="node">
<title>status</title>
<polygon fill="none" stroke="black" points="414.64,-555.5 414.64,-634.5 778.64,-634.5 778.64,-555.5 414.64,-555.5"/>
<polygon fill="none" stroke="black" points="425.64,-608.75 425.64,-627.5 767.64,-627.5 767.64,-608.75 425.64,-608.75"/>
<text text-anchor="start" x="572.64" y="-616" font-family="Courier New" font-weight="bold" font-size="10.00">SID_HALO</text>
<polygon fill="none" stroke="black" points="425.64,-562.5 425.64,-606.75 767.64,-606.75 767.64,-562.5 425.64,-562.5"/>
<text text-anchor="start" x="428.64" y="-594.25" font-family="Courier New" font-size="10.00" fill="green">VIEW::IDV_ID @pos(x:30, y:0, h:40, w:40)</text>
<text text-anchor="start" x="428.64" y="-581.5" font-family="Courier New" font-size="10.00" fill="green">SID_HALO::M_HALO(&#39;SID_ID&#39;,&#39;&#39;,&#39;&#39;,&#39;&#39;,&#39;&#39;,&#39;&#39;)</text>
<text text-anchor="start" x="428.64" y="-568.75" font-family="Courier New" font-size="10.00" fill="green">{state:&#39;1&#39;: bParm:1 wSprite:IDS_HALO00 Top:0 Left:30 Z:0</text>
<polygon fill="none" stroke="black" points="422.64,-559.5 422.64,-630.5 770.64,-630.5 770.64,-559.5 422.64,-559.5"/>
</g>
</g>
</svg>
