<?xml version="1.0" encoding="UTF-8" standalone="no"?>
<!DOCTYPE svg PUBLIC "-//W3C//DTD SVG 1.1//EN"
 "http://www.w3.org/Graphics/SVG/1.1/DTD/svg11.dtd">
<!-- Generated by graphviz version 10.0.1 (20240210.2158)
 -->
<!-- Title: Automaton Pages: 1 -->
<svg width="2278pt" height="575pt"
 viewBox="0.00 0.00 2278.14 575.25" xmlns="http://www.w3.org/2000/svg" xmlns:xlink="http://www.w3.org/1999/xlink">
<g id="graph0" class="graph" transform="scale(1 1) rotate(0) translate(4 571.25)">
<title>Automaton</title>
<polygon fill="white" stroke="none" points="-4,4 -4,-571.25 2274.14,-571.25 2274.14,4 -4,4"/>
<!-- filename -->
<g id="node1" class="node">
<title>filename</title>
<polygon fill="none" stroke="black" points="380.14,-500.5 380.14,-554 528.14,-554 528.14,-500.5 380.14,-500.5"/>
<polygon fill="none" stroke="black" points="391.14,-528.25 391.14,-547 517.14,-547 517.14,-528.25 391.14,-528.25"/>
<text text-anchor="start" x="394.14" y="-535.5" font-family="Courier New" font-weight="bold" font-size="10.00">SID_SPELL::M_IDSPELL</text>
<polygon fill="none" stroke="black" points="391.14,-507.5 391.14,-526.25 517.14,-526.25 517.14,-507.5 391.14,-507.5"/>
<text text-anchor="start" x="409.14" y="-513.75" font-family="Courier New" font-size="10.00" fill="brown">start state = 0</text>
<polygon fill="none" stroke="black" points="388.14,-504.5 388.14,-550 520.14,-550 520.14,-504.5 388.14,-504.5"/>
</g>
<!-- 0 -->
<g id="node2" class="node">
<title>0</title>
<polyline fill="none" stroke="darkred" stroke-width="3" points="565.52,-515.5 580.77,-515.5"/>
<text text-anchor="start" x="569.02" y="-523.2" font-family="Courier New" font-weight="bold" font-size="14.00">0</text>
<path fill="none" stroke="darkred" stroke-width="3" d="M568.93,-510.5C568.93,-510.5 577.35,-510.5 577.35,-510.5 581.56,-510.5 585.77,-514.71 585.77,-518.92 585.77,-518.92 585.77,-535.58 585.77,-535.58 585.77,-539.79 581.56,-544 577.35,-544 577.35,-544 568.93,-544 568.93,-544 564.72,-544 560.52,-539.79 560.52,-535.58 560.52,-535.58 560.52,-518.92 560.52,-518.92 560.52,-514.71 564.72,-510.5 568.93,-510.5"/>
</g>
<!-- 0&#45;&gt;0 -->
<g id="edge3" class="edge">
<title>0&#45;&gt;0</title>
<path fill="none" stroke="black" d="M599.94,-547.13C609.92,-547.78 618.14,-541.15 618.14,-527.25 618.14,-518.99 615.24,-513.3 610.8,-510.18"/>
<polygon fill="black" stroke="black" points="611.96,-506.87 601.4,-507.75 610.21,-513.64 611.96,-506.87"/>
<polygon fill="none" stroke="black" points="621.14,-528.25 621.14,-547 729.14,-547 729.14,-528.25 621.14,-528.25"/>
<text text-anchor="start" x="624.14" y="-535.5" font-family="Courier New" font-weight="bold" font-size="10.00" fill="orange">WAIT(0,SIG_CLEAR)</text>
<polygon fill="none" stroke="black" points="621.14,-507.5 621.14,-526.25 729.14,-526.25 729.14,-507.5 621.14,-507.5"/>
<text text-anchor="start" x="642.14" y="-513.75" font-family="Courier New" font-size="10.00" fill="blue"> &#160;&#160;&#160;SHOW();</text>
<polygon fill="none" stroke="black" points="618.14,-504.5 618.14,-550 732.14,-550 732.14,-504.5 618.14,-504.5"/>
</g>
<!-- checkObject -->
<g id="node3" class="node">
<title>checkObject</title>
<polyline fill="none" stroke="darkred" points="792.77,-231.5 889.52,-231.5"/>
<text text-anchor="start" x="795.77" y="-238.7" font-family="Courier New" font-weight="bold" font-size="14.00">checkObject</text>
<path fill="none" stroke="darkred" d="M799.27,-228.5C799.27,-228.5 883.02,-228.5 883.02,-228.5 887.77,-228.5 892.52,-233.25 892.52,-238 892.52,-238 892.52,-247.5 892.52,-247.5 892.52,-252.25 887.77,-257 883.02,-257 883.02,-257 799.27,-257 799.27,-257 794.52,-257 789.77,-252.25 789.77,-247.5 789.77,-247.5 789.77,-238 789.77,-238 789.77,-233.25 794.52,-228.5 799.27,-228.5"/>
</g>
<!-- 0&#45;&gt;checkObject -->
<g id="edge1" class="edge">
<title>0&#45;&gt;checkObject</title>
<path fill="none" stroke="black" d="M599.99,-518.92C632.98,-510.16 690.78,-495.65 741.14,-487.25 779.7,-480.82 889.95,-498.27 916.14,-469.25 968.63,-411.08 901.97,-315.11 864.05,-269.44"/>
<polygon fill="black" stroke="black" points="866.79,-267.26 857.65,-261.9 861.45,-271.79 866.79,-267.26"/>
<polygon fill="none" stroke="black" points="938.14,-428.38 938.14,-447.12 1136.14,-447.12 1136.14,-428.38 938.14,-428.38"/>
<text text-anchor="start" x="1016.14" y="-435.62" font-family="Courier New" font-weight="bold" font-size="10.00" fill="orange">DROP(,)</text>
<polygon fill="none" stroke="black" points="938.14,-394.88 938.14,-426.38 1136.14,-426.38 1136.14,-394.88 938.14,-394.88"/>
<text text-anchor="start" x="941.14" y="-413.88" font-family="Courier New" font-size="10.00" fill="blue"> &#160;&#160;&#160;CLEAR(WVIEWID);</text>
<text text-anchor="start" x="941.14" y="-401.12" font-family="Courier New" font-size="10.00" fill="blue"> &#160;&#160;&#160;WRITE(&quot;Item Dropped on ID&quot;);</text>
<polygon fill="none" stroke="black" points="935.14,-391.88 935.14,-450.12 1139.14,-450.12 1139.14,-391.88 935.14,-391.88"/>
</g>
<!-- 0&#45;&gt;checkObject -->
<g id="edge2" class="edge">
<title>0&#45;&gt;checkObject</title>
<path fill="none" stroke="black" d="M564.92,-505.05C553.83,-472.53 538.85,-410.17 570.14,-372.75 599.11,-338.1 628.15,-371.37 670.14,-354.75 724.2,-333.35 779.3,-293.7 811.84,-268.04"/>
<polygon fill="black" stroke="black" points="813.99,-270.81 819.61,-261.83 809.61,-265.34 813.99,-270.81"/>
<polygon fill="none" stroke="black" points="573.14,-447.5 573.14,-466.25 909.14,-466.25 909.14,-447.5 573.14,-447.5"/>
<text text-anchor="start" x="687.14" y="-454.75" font-family="Courier New" font-weight="bold" font-size="10.00" fill="orange">WAIT(,SIG_DROPPED)</text>
<polygon fill="none" stroke="black" points="573.14,-375.75 573.14,-445.5 909.14,-445.5 909.14,-375.75 573.14,-375.75"/>
<text text-anchor="start" x="576.14" y="-433" font-family="Courier New" font-size="10.00" fill="blue"> &#160;&#160;&#160;//NEED TO SHOW OBJECT HERE OR AT LEAST SET WOJBJECT</text>
<text text-anchor="start" x="576.14" y="-420.25" font-family="Courier New" font-size="10.00" fill="blue"> &#160;&#160;&#160;predicate inboundItem(object,id,from);</text>
<text text-anchor="start" x="576.14" y="-407.5" font-family="Courier New" font-size="10.00" fill="blue"> &#160;&#160;&#160;inboundItem(?WOBJECT,?BPARM,?from)?</text>
<text text-anchor="start" x="576.14" y="-394.75" font-family="Courier New" font-size="10.00" fill="blue"> &#160;&#160;&#160;CLEAR(WVIEWID);</text>
<text text-anchor="start" x="576.14" y="-382" font-family="Courier New" font-size="10.00" fill="blue"> &#160;&#160;&#160;WRITE(&quot;Item Dropped on ID&quot;);</text>
<polygon fill="none" stroke="black" points="570.14,-372.75 570.14,-469.25 912.14,-469.25 912.14,-372.75 570.14,-372.75"/>
</g>
<!-- itsAbomb -->
<g id="node4" class="node">
<title>itsAbomb</title>
<polyline fill="none" stroke="darkred" points="216.14,-7 288.14,-7"/>
<text text-anchor="start" x="219.14" y="-14.2" font-family="Courier New" font-weight="bold" font-size="14.00">itsAbomb</text>
<path fill="none" stroke="darkred" d="M222.64,-4C222.64,-4 281.64,-4 281.64,-4 286.39,-4 291.14,-8.75 291.14,-13.5 291.14,-13.5 291.14,-23 291.14,-23 291.14,-27.75 286.39,-32.5 281.64,-32.5 281.64,-32.5 222.64,-32.5 222.64,-32.5 217.89,-32.5 213.14,-27.75 213.14,-23 213.14,-23 213.14,-13.5 213.14,-13.5 213.14,-8.75 217.89,-4 222.64,-4"/>
</g>
<!-- checkObject&#45;&gt;itsAbomb -->
<g id="edge4" class="edge">
<title>checkObject&#45;&gt;itsAbomb</title>
<path fill="none" stroke="black" d="M820.79,-224.62C790.19,-199.8 729.54,-154.26 670.14,-130.75 628.15,-114.13 614.09,-123.13 570.14,-112.75 478.21,-91.03 373.43,-58.72 310.08,-38.34"/>
<polygon fill="black" stroke="black" points="311.16,-35.01 300.57,-35.26 309.01,-41.67 311.16,-35.01"/>
<text text-anchor="start" x="574.14" y="-81.5" font-family="Courier New" font-weight="bold" font-size="10.00" fill="blue">IS_A(WOBJECT,IDC_BOMB)</text>
</g>
<!-- itsAspell -->
<g id="node5" class="node">
<title>itsAspell</title>
<polyline fill="none" stroke="darkred" points="1430.02,-7 1510.27,-7"/>
<text text-anchor="start" x="1433.02" y="-14.2" font-family="Courier New" font-weight="bold" font-size="14.00">itsAspell</text>
<path fill="none" stroke="darkred" d="M1436.52,-4C1436.52,-4 1503.77,-4 1503.77,-4 1508.52,-4 1513.27,-8.75 1513.27,-13.5 1513.27,-13.5 1513.27,-23 1513.27,-23 1513.27,-27.75 1508.52,-32.5 1503.77,-32.5 1503.77,-32.5 1436.52,-32.5 1436.52,-32.5 1431.77,-32.5 1427.02,-27.75 1427.02,-23 1427.02,-23 1427.02,-13.5 1427.02,-13.5 1427.02,-8.75 1431.77,-4 1436.52,-4"/>
</g>
<!-- checkObject&#45;&gt;itsAspell -->
<g id="edge5" class="edge">
<title>checkObject&#45;&gt;itsAspell</title>
<path fill="none" stroke="black" d="M900.14,-234.2C1022.44,-217.48 1298.05,-173.9 1368.14,-112.75 1389.11,-94.45 1371.89,-74.61 1391.14,-54.5 1396.37,-49.03 1402.61,-44.35 1409.25,-40.36"/>
<polygon fill="black" stroke="black" points="1410.72,-43.54 1417.86,-35.71 1407.4,-37.38 1410.72,-43.54"/>
<text text-anchor="start" x="1395.14" y="-81.5" font-family="Courier New" font-weight="bold" font-size="10.00" fill="blue">IS_A(WOBJECT,IDC_SPELL)</text>
</g>
<!-- checkObject&#45;&gt;itsAspell -->
<g id="edge6" class="edge">
<title>checkObject&#45;&gt;itsAspell</title>
<path fill="none" stroke="black" d="M900.46,-236.28C979.33,-225.89 1118.19,-196.21 1199.14,-112.75 1218.1,-93.2 1197.26,-71.99 1218.14,-54.5 1246.05,-31.12 1342.52,-23.23 1407.67,-20.58"/>
<polygon fill="black" stroke="black" points="1407.67,-24.08 1417.53,-20.22 1407.41,-17.09 1407.67,-24.08"/>
<text text-anchor="start" x="1222.14" y="-81.5" font-family="Courier New" font-weight="bold" font-size="10.00" fill="blue">IS_A(WOBJECT,IDD_GVIAL)</text>
</g>
<!-- regularObject -->
<g id="node6" class="node">
<title>regularObject</title>
<polyline fill="none" stroke="darkred" points="581.52,-7 694.77,-7"/>
<text text-anchor="start" x="584.52" y="-14.2" font-family="Courier New" font-weight="bold" font-size="14.00">regularObject</text>
<path fill="none" stroke="darkred" d="M588.02,-4C588.02,-4 688.27,-4 688.27,-4 693.02,-4 697.77,-8.75 697.77,-13.5 697.77,-13.5 697.77,-23 697.77,-23 697.77,-27.75 693.02,-32.5 688.27,-32.5 688.27,-32.5 588.02,-32.5 588.02,-32.5 583.27,-32.5 578.52,-27.75 578.52,-23 578.52,-23 578.52,-13.5 578.52,-13.5 578.52,-8.75 583.27,-4 588.02,-4"/>
</g>
<!-- checkObject&#45;&gt;regularObject -->
<g id="edge7" class="edge">
<title>checkObject&#45;&gt;regularObject</title>
<path fill="none" stroke="black" d="M824.48,-224.65C802.22,-201.07 762.62,-156.5 737.14,-112.75 723.13,-88.7 733.24,-74.75 714.14,-54.5 709.66,-49.76 704.42,-45.59 698.83,-41.95"/>
<polygon fill="black" stroke="black" points="700.85,-39.08 690.44,-37.07 697.32,-45.13 700.85,-39.08"/>
<polygon fill="none" stroke="black" points="740.14,-91 740.14,-109.75 1196.14,-109.75 1196.14,-91 740.14,-91"/>
<text text-anchor="start" x="926.14" y="-98.25" font-family="Courier New" font-weight="bold" font-size="10.00" fill="blue">Z_EPSILON(0,0)</text>
<polygon fill="none" stroke="black" points="740.14,-57.5 740.14,-89 1196.14,-89 1196.14,-57.5 740.14,-57.5"/>
<text text-anchor="start" x="743.14" y="-76.5" font-family="Courier New" font-size="10.00" fill="blue"> &#160;&#160;&#160;WRITE(&quot;M_IDSPELL has detected a regular object drop from me or other&quot;);</text>
<text text-anchor="start" x="743.14" y="-63.75" font-family="Courier New" font-size="10.00" fill="blue"> &#160;&#160;&#160;SHOW(WOBJECT);</text>
<polygon fill="none" stroke="black" points="737.14,-54.5 737.14,-112.75 1199.14,-112.75 1199.14,-54.5 737.14,-54.5"/>
</g>
<!-- itsAbomb&#45;&gt;0 -->
<g id="edge8" class="edge">
<title>itsAbomb&#45;&gt;0</title>
<path fill="none" stroke="black" d="M205.22,-28.74C153.96,-41.88 74.32,-71.11 38.14,-130.75 -13.49,-215.87 -11.79,-268.62 38.14,-354.75 89.51,-443.36 139.99,-439.96 238.14,-469.25 301.92,-488.29 476.99,-458.73 537.14,-487.25 542.18,-489.64 546.85,-493.08 551.05,-496.95"/>
<polygon fill="black" stroke="black" points="548.48,-499.33 557.91,-504.16 553.56,-494.5 548.48,-499.33"/>
<polygon fill="none" stroke="black" points="41.14,-250.12 41.14,-268.88 227.14,-268.88 227.14,-250.12 41.14,-250.12"/>
<text text-anchor="start" x="44.14" y="-257.38" font-family="Courier New" font-weight="bold" font-size="10.00" fill="blue">IFSTATE(active,PROTECT_ACTIVE)</text>
<polygon fill="none" stroke="black" points="41.14,-216.62 41.14,-248.12 227.14,-248.12 227.14,-216.62 41.14,-216.62"/>
<text text-anchor="start" x="59.14" y="-235.62" font-family="Courier New" font-size="10.00" fill="blue"> </text>
<text text-anchor="start" x="59.14" y="-222.88" font-family="Courier New" font-size="10.00" fill="blue"> &#160;&#160;&#160;PLAYWAVE(SOUND_SUCK);</text>
<polygon fill="none" stroke="black" points="38.14,-213.62 38.14,-271.88 230.14,-271.88 230.14,-213.62 38.14,-213.62"/>
</g>
<!-- itsAbomb&#45;&gt;0 -->
<g id="edge9" class="edge">
<title>itsAbomb&#45;&gt;0</title>
<path fill="none" stroke="black" d="M250.99,-36.14C247.19,-96.64 237.19,-301.79 272.14,-354.75 344.67,-464.65 431.88,-408.14 537.14,-487.25 540.95,-490.11 544.69,-493.42 548.24,-496.86"/>
<polygon fill="black" stroke="black" points="545.58,-499.15 555.04,-503.92 550.62,-494.29 545.58,-499.15"/>
<polygon fill="none" stroke="black" points="275.14,-250.12 275.14,-268.88 521.14,-268.88 521.14,-250.12 275.14,-250.12"/>
<text text-anchor="start" x="362.14" y="-257.38" font-family="Courier New" font-weight="bold" font-size="10.00" fill="blue">Z_EPSILON(,)</text>
<polygon fill="none" stroke="black" points="275.14,-216.62 275.14,-248.12 521.14,-248.12 521.14,-216.62 275.14,-216.62"/>
<text text-anchor="start" x="278.14" y="-235.62" font-family="Courier New" font-size="10.00" fill="blue"> &#160;&#160;&#160;&#160;WRITE(&quot;M_IDSPELL says ITS A BOMB&quot;);</text>
<text text-anchor="start" x="278.14" y="-222.88" font-family="Courier New" font-size="10.00" fill="blue"> &#160;&#160;&#160;&#160;SIGNAL(SID_ID, SIG_BOMB);</text>
<polygon fill="none" stroke="black" points="272.14,-213.62 272.14,-271.88 524.14,-271.88 524.14,-213.62 272.14,-213.62"/>
</g>
<!-- itsAspell&#45;&gt;0 -->
<g id="edge10" class="edge">
<title>itsAspell&#45;&gt;0</title>
<path fill="none" stroke="black" d="M1518.67,-36.41C1526.03,-41.13 1532.66,-47.07 1537.14,-54.5 1550.52,-76.66 1547.64,-89.09 1537.14,-112.75 1441.35,-328.6 1361.55,-379.44 1143.14,-469.25 1060.44,-503.26 829.73,-475.09 741.14,-487.25 695.7,-493.49 644.49,-506.22 610.68,-515.45"/>
<polygon fill="black" stroke="black" points="610.08,-511.98 601.38,-518.02 611.95,-518.73 610.08,-511.98"/>
<polygon fill="none" stroke="black" points="1530.14,-250.12 1530.14,-268.88 1716.14,-268.88 1716.14,-250.12 1530.14,-250.12"/>
<text text-anchor="start" x="1533.14" y="-257.38" font-family="Courier New" font-weight="bold" font-size="10.00" fill="blue">IFSTATE(active,PROTECT_ACTIVE)</text>
<polygon fill="none" stroke="black" points="1530.14,-216.62 1530.14,-248.12 1716.14,-248.12 1716.14,-216.62 1530.14,-216.62"/>
<text text-anchor="start" x="1554.14" y="-235.62" font-family="Courier New" font-size="10.00" fill="blue"> </text>
<text text-anchor="start" x="1554.14" y="-222.88" font-family="Courier New" font-size="10.00" fill="blue"> &#160;PLAYWAVE(SOUND_SUCK);</text>
<polygon fill="none" stroke="black" points="1527.14,-213.62 1527.14,-271.88 1719.14,-271.88 1719.14,-213.62 1527.14,-213.62"/>
</g>
<!-- itsAspell&#45;&gt;0 -->
<g id="edge11" class="edge">
<title>itsAspell&#45;&gt;0</title>
<path fill="none" stroke="black" d="M1521.12,-25.23C1581.31,-35.34 1678.81,-61.95 1723.14,-130.75 1777.06,-214.44 1784.61,-276.43 1723.14,-354.75 1587.19,-527.97 959.44,-458.37 741.14,-487.25 695.67,-493.27 644.46,-506.05 610.67,-515.34"/>
<polygon fill="black" stroke="black" points="610.05,-511.88 601.36,-517.94 611.94,-518.62 610.05,-511.88"/>
<polygon fill="none" stroke="black" points="1769.14,-333 1769.14,-351.75 2267.14,-351.75 2267.14,-333 1769.14,-333"/>
<text text-anchor="start" x="1982.14" y="-340.25" font-family="Courier New" font-weight="bold" font-size="10.00" fill="blue">Z_EPSILON(,)</text>
<polygon fill="none" stroke="black" points="1769.14,-133.75 1769.14,-331 2267.14,-331 2267.14,-133.75 1769.14,-133.75"/>
<text text-anchor="start" x="1772.14" y="-318.5" font-family="Courier New" font-size="10.00" fill="blue"> &#160;&#160;&#160;if(WOBJECT == IDD_PROTECT){SHOW();SIGNAL(PROTECT_ACTIVE,SIG_SPELLME);}</text>
<text text-anchor="start" x="1772.14" y="-305.75" font-family="Courier New" font-size="10.00" fill="blue"> &#160;&#160;&#160;if(WOBJECT == IDD_NYBREATH){SHOW();SIGNAL(NYBREATH_ACTIVE,SIG_SPELLME);}</text>
<text text-anchor="start" x="1772.14" y="-293" font-family="Courier New" font-size="10.00" fill="blue"> &#160;&#160;&#160;if(WOBJECT == IDD_WETBREATH){SHOW();SIGNAL(WETBREATH_ACTIVE,SIG_SPELLME);}</text>
<text text-anchor="start" x="1772.14" y="-280.25" font-family="Courier New" font-size="10.00" fill="blue"> &#160;&#160;&#160;if(WOBJECT == IDD_TELEKINESIS){SHOW();SIGNAL(TELEKINESIS_ACTIVE,SIG_SPELLME);}</text>
<text text-anchor="start" x="1772.14" y="-267.5" font-family="Courier New" font-size="10.00" fill="blue"> &#160;&#160;&#160;if(WOBJECT == IDD_INVISIBLE){SHOW();SIGNAL(INVISIBLE_ACTIVE,SIG_SPELLME);}</text>
<text text-anchor="start" x="1772.14" y="-254.75" font-family="Courier New" font-size="10.00" fill="blue"> &#160;&#160;&#160;if(WOBJECT == IDD_ENCHANT){SHOW(WOBJECT);SIGNAL(ENCHANT_ACTIVE,SIG_SPELLME);}</text>
<text text-anchor="start" x="1772.14" y="-242" font-family="Courier New" font-size="10.00" fill="blue"> &#160;&#160;&#160;if(WOBJECT == IDD_HOLDING){SHOW(WOBJECT);SIGNAL(HOLDING_ACTIVE,SIG_SPELLME);}</text>
<text text-anchor="start" x="1772.14" y="-229.25" font-family="Courier New" font-size="10.00" fill="blue"> &#160;&#160;&#160;if(WOBJECT == IDD_STALKER){SHOW(WOBJECT);SIGNAL(STALKING_ACTIVE,SIG_SPELLME);}</text>
<text text-anchor="start" x="1772.14" y="-216.5" font-family="Courier New" font-size="10.00" fill="blue"> &#160;&#160;&#160;if(WOBJECT == IDD_TRANSFER){SHOW();SIGNAL(TRANSFER_ACTIVE,SIG_SPELLME);}</text>
<text text-anchor="start" x="1772.14" y="-203.75" font-family="Courier New" font-size="10.00" fill="blue"> &#160;&#160;&#160;if(WOBJECT == IDD_DEATH){SHOW();SIGNAL(DEATH_ACTIVE,SIG_SPELLME);}</text>
<text text-anchor="start" x="1772.14" y="-191" font-family="Courier New" font-size="10.00" fill="blue"> &#160;&#160;&#160;if(WOBJECT == IDD_BANISHMENT){SHOW();SIGNAL(BANISHMENT_ACTIVE,SIG_SPELLME);}</text>
<text text-anchor="start" x="1772.14" y="-178.25" font-family="Courier New" font-size="10.00" fill="blue"> &#160;&#160;&#160;if(WOBJECT == IDD_BLINDNESS){SHOW();SIGNAL(BLINDNESS_ACTIVE,SIG_SPELLME);}</text>
<text text-anchor="start" x="1772.14" y="-165.5" font-family="Courier New" font-size="10.00" fill="blue"> &#160;&#160;&#160;if(WOBJECT == IDD_HALLUCINATE){SHOW();SIGNAL(HALLUCINATE_ACTIVE,SIG_SPELLME);}</text>
<text text-anchor="start" x="1772.14" y="-152.75" font-family="Courier New" font-size="10.00" fill="blue"> &#160;&#160;&#160;if(WOBJECT == IDD_GVIAL){SHOW();SIGNAL(GOPA_ACTIVE,SIG_SPELLME);}</text>
<text text-anchor="start" x="1772.14" y="-140" font-family="Courier New" font-size="10.00" fill="blue"> &#160;&#160;&#160;if(WOBJECT == IDD_REVIAL){SHOW();SIGNAL(REVIVE_ACTIVE,SIG_SPELLME);}</text>
<polygon fill="none" stroke="black" points="1766.14,-130.75 1766.14,-354.75 2270.14,-354.75 2270.14,-130.75 1766.14,-130.75"/>
</g>
<!-- regularObject&#45;&gt;0 -->
<g id="edge12" class="edge">
<title>regularObject&#45;&gt;0</title>
<path fill="none" stroke="black" d="M573.83,-36.43C566.06,-41.08 559.13,-46.99 554.14,-54.5 503.11,-131.25 539.38,-378.27 554.14,-469.25 555.48,-477.51 557.85,-486.19 560.46,-494.21"/>
<polygon fill="black" stroke="black" points="557.14,-495.3 563.75,-503.58 563.74,-492.99 557.14,-495.3"/>
<polygon fill="none" stroke="black" points="541.14,-250.12 541.14,-268.88 661.14,-268.88 661.14,-250.12 541.14,-250.12"/>
<text text-anchor="start" x="580.14" y="-257.38" font-family="Courier New" font-weight="bold" font-size="10.00" fill="orange">GRAB(,)</text>
<polygon fill="none" stroke="black" points="541.14,-216.62 541.14,-248.12 661.14,-248.12 661.14,-216.62 541.14,-216.62"/>
<text text-anchor="start" x="544.14" y="-235.62" font-family="Courier New" font-size="10.00" fill="blue"> &#160;&#160;&#160;CLEAR(WOBJECT);</text>
<text text-anchor="start" x="544.14" y="-222.88" font-family="Courier New" font-size="10.00" fill="blue"> &#160;&#160;&#160;SHOW();</text>
<polygon fill="none" stroke="black" points="538.14,-213.62 538.14,-271.88 664.14,-271.88 664.14,-213.62 538.14,-213.62"/>
</g>
<!-- status -->
<g id="node7" class="node">
<title>status</title>
<polygon fill="none" stroke="black" points="750.14,-487.75 750.14,-566.75 1120.14,-566.75 1120.14,-487.75 750.14,-487.75"/>
<polygon fill="none" stroke="black" points="761.14,-541 761.14,-559.75 1109.14,-559.75 1109.14,-541 761.14,-541"/>
<text text-anchor="start" x="908.14" y="-548.25" font-family="Courier New" font-weight="bold" font-size="10.00">SID_SPELL</text>
<polygon fill="none" stroke="black" points="761.14,-494.75 761.14,-539 1109.14,-539 1109.14,-494.75 761.14,-494.75"/>
<text text-anchor="start" x="764.14" y="-526.5" font-family="Courier New" font-size="10.00" fill="green">VIEW::IDV_ID @pos(x:10, y:50, h:70, w:100)</text>
<text text-anchor="start" x="764.14" y="-513.75" font-family="Courier New" font-size="10.00" fill="green">SID_SPELL::M_IDSPELL(&#39;&#39;,&#39;&#39;,&#39;&#39;,&#39;&#39;,&#39;&#39;,&#39;&#39;)</text>
<text text-anchor="start" x="764.14" y="-501" font-family="Courier New" font-size="10.00" fill="green">{state:&#39;0&#39;: bParm:id wObject:IDD_BOMB2 Top:50 Left:10 Z:0</text>
<polygon fill="none" stroke="black" points="758.14,-491.75 758.14,-562.75 1112.14,-562.75 1112.14,-491.75 758.14,-491.75"/>
</g>
</g>
</svg>
