<?xml version="1.0" encoding="UTF-8" standalone="no"?>
<!DOCTYPE svg PUBLIC "-//W3C//DTD SVG 1.1//EN"
 "http://www.w3.org/Graphics/SVG/1.1/DTD/svg11.dtd">
<!-- Generated by graphviz version 10.0.1 (20240210.2158)
 -->
<!-- Title: Automaton Pages: 1 -->
<svg width="2428pt" height="1913pt"
 viewBox="0.00 0.00 2428.00 1912.50" xmlns="http://www.w3.org/2000/svg" xmlns:xlink="http://www.w3.org/1999/xlink">
<g id="graph0" class="graph" transform="scale(1 1) rotate(0) translate(4 1908.5)">
<title>Automaton</title>
<polygon fill="white" stroke="none" points="-4,4 -4,-1908.5 2424,-1908.5 2424,4 -4,4"/>
<!-- filename -->
<g id="node1" class="node">
<title>filename</title>
<polygon fill="none" stroke="black" points="1770,-1837.75 1770,-1891.25 1888,-1891.25 1888,-1837.75 1770,-1837.75"/>
<polygon fill="none" stroke="black" points="1781,-1865.5 1781,-1884.25 1877,-1884.25 1877,-1865.5 1781,-1865.5"/>
<text text-anchor="start" x="1793" y="-1872.75" font-family="Courier New" font-weight="bold" font-size="10.00">SID_ID::M_ID</text>
<polygon fill="none" stroke="black" points="1781,-1844.75 1781,-1863.5 1877,-1863.5 1877,-1844.75 1781,-1844.75"/>
<text text-anchor="start" x="1784" y="-1851" font-family="Courier New" font-size="10.00" fill="brown">start state = 0</text>
<polygon fill="none" stroke="black" points="1778,-1841.75 1778,-1887.25 1880,-1887.25 1880,-1841.75 1778,-1841.75"/>
</g>
<!-- 0 -->
<g id="node2" class="node">
<title>0</title>
<polyline fill="none" stroke="darkred" points="1925.88,-1853.25 1940.12,-1853.25"/>
<text text-anchor="start" x="1928.88" y="-1860.45" font-family="Courier New" font-weight="bold" font-size="14.00">0</text>
<path fill="none" stroke="darkred" d="M1929.62,-1850.25C1929.62,-1850.25 1936.38,-1850.25 1936.38,-1850.25 1939.75,-1850.25 1943.12,-1853.62 1943.12,-1857 1943.12,-1857 1943.12,-1872 1943.12,-1872 1943.12,-1875.38 1939.75,-1878.75 1936.38,-1878.75 1936.38,-1878.75 1929.62,-1878.75 1929.62,-1878.75 1926.25,-1878.75 1922.88,-1875.38 1922.88,-1872 1922.88,-1872 1922.88,-1857 1922.88,-1857 1922.88,-1853.62 1926.25,-1850.25 1929.62,-1850.25"/>
</g>
<!-- present -->
<g id="node3" class="node">
<title>present</title>
<polyline fill="none" stroke="darkred" points="1286.12,-1637 1349.88,-1637"/>
<text text-anchor="start" x="1289.12" y="-1644.2" font-family="Courier New" font-weight="bold" font-size="14.00">present</text>
<path fill="none" stroke="darkred" d="M1292.62,-1634C1292.62,-1634 1343.38,-1634 1343.38,-1634 1348.12,-1634 1352.88,-1638.75 1352.88,-1643.5 1352.88,-1643.5 1352.88,-1653 1352.88,-1653 1352.88,-1657.75 1348.12,-1662.5 1343.38,-1662.5 1343.38,-1662.5 1292.62,-1662.5 1292.62,-1662.5 1287.88,-1662.5 1283.12,-1657.75 1283.12,-1653 1283.12,-1653 1283.12,-1643.5 1283.12,-1643.5 1283.12,-1638.75 1287.88,-1634 1292.62,-1634"/>
</g>
<!-- 0&#45;&gt;present -->
<g id="edge1" class="edge">
<title>0&#45;&gt;present</title>
<path fill="none" stroke="black" d="M1922.14,-1846.47C1915.88,-1838.24 1907.23,-1829.17 1897,-1824.5 1867.77,-1811.16 1341.43,-1829.5 1319,-1806.5 1285.94,-1772.61 1297.21,-1712.49 1307.92,-1677.22"/>
<polygon fill="black" stroke="black" points="1311.24,-1678.31 1311,-1667.72 1304.59,-1676.15 1311.24,-1678.31"/>
<polygon fill="none" stroke="black" points="1322,-1784.75 1322,-1803.5 1916,-1803.5 1916,-1784.75 1322,-1784.75"/>
<text text-anchor="start" x="1571" y="-1792" font-family="Courier New" font-weight="bold" font-size="10.00" fill="orange">WAIT(0,SIG_MYID)</text>
<polygon fill="none" stroke="black" points="1322,-1687.5 1322,-1782.75 1916,-1782.75 1916,-1687.5 1322,-1687.5"/>
<text text-anchor="start" x="1325" y="-1770.25" font-family="Courier New" font-size="10.00" fill="blue"> &#160;&#160;&#160;&#160;CLEAR(WSPRITE);</text>
<text text-anchor="start" x="1325" y="-1757.5" font-family="Courier New" font-size="10.00" fill="blue"> &#160;&#160;&#160;&#160;SHOW(0);</text>
<text text-anchor="start" x="1325" y="-1744.75" font-family="Courier New" font-size="10.00" fill="blue"> &#160;&#160;&#160;&#160;predicate active_character(name);</text>
<text text-anchor="start" x="1325" y="-1732" font-family="Courier New" font-size="10.00" fill="blue"> &#160;&#160;&#160;&#160;active_character(?WPARM)?</text>
<text text-anchor="start" x="1325" y="-1719.25" font-family="Courier New" font-size="10.00" fill="blue"> &#160;&#160;&#160;&#160;predicate localplayer(name,viewname, wealth,karma, energy,strength, wisdom, gender, culture);</text>
<text text-anchor="start" x="1325" y="-1706.5" font-family="Courier New" font-size="10.00" fill="blue"> &#160;&#160;&#160;&#160;localplayer(WPARM, ?WTEMP1, ?LWEALTH, ?LKARMA,?WTEMP3,?LSTRENGTH, ?LWISDOM, ?LSEX, ?WTEMP2)?</text>
<text text-anchor="start" x="1325" y="-1693.75" font-family="Courier New" font-size="10.00" fill="blue"> &#160;&#160;&#160;&#160;ASSIGN(LENERGY,WTEMP3);</text>
<polygon fill="none" stroke="black" points="1319,-1684.5 1319,-1806.5 1919,-1806.5 1919,-1684.5 1319,-1684.5"/>
</g>
<!-- setId -->
<g id="node22" class="node">
<title>setId</title>
<polyline fill="none" stroke="darkred" points="704.38,-1214.88 751.62,-1214.88"/>
<text text-anchor="start" x="707.38" y="-1222.08" font-family="Courier New" font-weight="bold" font-size="14.00">setId</text>
<path fill="none" stroke="darkred" d="M710.88,-1211.88C710.88,-1211.88 745.12,-1211.88 745.12,-1211.88 749.88,-1211.88 754.62,-1216.62 754.62,-1221.38 754.62,-1221.38 754.62,-1230.88 754.62,-1230.88 754.62,-1235.62 749.88,-1240.38 745.12,-1240.38 745.12,-1240.38 710.88,-1240.38 710.88,-1240.38 706.12,-1240.38 701.38,-1235.62 701.38,-1230.88 701.38,-1230.88 701.38,-1221.38 701.38,-1221.38 701.38,-1216.62 706.12,-1211.88 710.88,-1211.88"/>
</g>
<!-- present&#45;&gt;setId -->
<g id="edge21" class="edge">
<title>present&#45;&gt;setId</title>
<path fill="none" stroke="black" d="M1275.21,-1646.69C1127.03,-1644.55 643.61,-1635.78 621,-1612 528.98,-1515.21 562.72,-1431.67 621,-1311.5 634.1,-1284.49 660.49,-1263.53 683.79,-1249.26"/>
<polygon fill="black" stroke="black" points="685.37,-1252.39 692.23,-1244.31 681.83,-1246.35 685.37,-1252.39"/>
<polygon fill="none" stroke="black" points="624,-1590.25 624,-1609 1056,-1609 1056,-1590.25 624,-1590.25"/>
<text text-anchor="start" x="804" y="-1597.5" font-family="Courier New" font-weight="bold" font-size="10.00" fill="blue">Z_EPSILON(,)</text>
<polygon fill="none" stroke="black" points="624,-1314.5 624,-1588.25 1056,-1588.25 1056,-1314.5 624,-1314.5"/>
<text text-anchor="start" x="627" y="-1575.75" font-family="Courier New" font-size="10.00" fill="blue"> &#160;&#160;&#160;&#160;&#160;&#160;</text>
<text text-anchor="start" x="627" y="-1563" font-family="Courier New" font-size="10.00" fill="blue"> &#160;//for back to back {statements} do not use semi&#45;colons between them, </text>
<text text-anchor="start" x="627" y="-1550.25" font-family="Courier New" font-size="10.00" fill="blue"> &#160;//only at the end of the code segment!</text>
<text text-anchor="start" x="627" y="-1537.5" font-family="Courier New" font-size="10.00" fill="blue"> &#160;if(LSEX == 1){</text>
<text text-anchor="start" x="627" y="-1524.75" font-family="Courier New" font-size="10.00" fill="blue"> &#160;&#160;&#160;WPARM = F1;</text>
<text text-anchor="start" x="627" y="-1512" font-family="Courier New" font-size="10.00" fill="blue"> &#160;&#160;&#160;&#160;if(LWISDOM &gt;= 30){</text>
<text text-anchor="start" x="627" y="-1499.25" font-family="Courier New" font-size="10.00" fill="blue"> &#160;&#160;&#160;&#160;&#160;&#160;WPARM = F3;</text>
<text text-anchor="start" x="627" y="-1486.5" font-family="Courier New" font-size="10.00" fill="blue"> &#160;&#160;&#160;}</text>
<text text-anchor="start" x="627" y="-1473.75" font-family="Courier New" font-size="10.00" fill="blue"> &#160;&#160;&#160;&#160;if(LWISDOM &gt;= 20 &amp;&amp; LWISDOM &lt; 30){</text>
<text text-anchor="start" x="627" y="-1461" font-family="Courier New" font-size="10.00" fill="blue"> &#160;&#160;&#160;&#160;&#160;&#160;WPARM = F2;</text>
<text text-anchor="start" x="627" y="-1448.25" font-family="Courier New" font-size="10.00" fill="blue"> &#160;&#160;&#160;}</text>
<text text-anchor="start" x="627" y="-1435.5" font-family="Courier New" font-size="10.00" fill="blue"> &#160;}</text>
<text text-anchor="start" x="627" y="-1422.75" font-family="Courier New" font-size="10.00" fill="blue"> &#160;if(LSEX == 0){</text>
<text text-anchor="start" x="627" y="-1410" font-family="Courier New" font-size="10.00" fill="blue"> &#160;&#160;&#160;WPARM = M1;</text>
<text text-anchor="start" x="627" y="-1397.25" font-family="Courier New" font-size="10.00" fill="blue"> &#160;&#160;&#160;&#160;&#160;if(LWISDOM &gt;= 30){</text>
<text text-anchor="start" x="627" y="-1384.5" font-family="Courier New" font-size="10.00" fill="blue"> &#160;&#160;&#160;&#160;&#160;&#160;WPARM = M3;</text>
<text text-anchor="start" x="627" y="-1371.75" font-family="Courier New" font-size="10.00" fill="blue"> &#160;&#160;&#160;}</text>
<text text-anchor="start" x="627" y="-1359" font-family="Courier New" font-size="10.00" fill="blue"> &#160;&#160;&#160;if(LWISDOM &gt;= 20 &amp;&amp; LWISDOM &lt; 30){</text>
<text text-anchor="start" x="627" y="-1346.25" font-family="Courier New" font-size="10.00" fill="blue"> &#160;&#160;&#160;&#160;&#160;&#160;&#160;WPARM = M2;</text>
<text text-anchor="start" x="627" y="-1333.5" font-family="Courier New" font-size="10.00" fill="blue"> &#160;&#160;&#160;}</text>
<text text-anchor="start" x="627" y="-1320.75" font-family="Courier New" font-size="10.00" fill="blue"> &#160;}; </text>
<polygon fill="none" stroke="black" points="621,-1311.5 621,-1612 1059,-1612 1059,-1311.5 621,-1311.5"/>
</g>
<!-- 100 -->
<g id="node4" class="node">
<title>100</title>
<polyline fill="none" stroke="darkred" points="1622.62,-848.75 1653.38,-848.75"/>
<text text-anchor="start" x="1625.62" y="-855.95" font-family="Courier New" font-weight="bold" font-size="14.00">100</text>
<path fill="none" stroke="darkred" d="M1629.12,-845.75C1629.12,-845.75 1646.88,-845.75 1646.88,-845.75 1651.62,-845.75 1656.38,-850.5 1656.38,-855.25 1656.38,-855.25 1656.38,-864.75 1656.38,-864.75 1656.38,-869.5 1651.62,-874.25 1646.88,-874.25 1646.88,-874.25 1629.12,-874.25 1629.12,-874.25 1624.38,-874.25 1619.62,-869.5 1619.62,-864.75 1619.62,-864.75 1619.62,-855.25 1619.62,-855.25 1619.62,-850.5 1624.38,-845.75 1629.12,-845.75"/>
</g>
<!-- empty -->
<g id="node5" class="node">
<title>empty</title>
<polyline fill="none" stroke="darkred" points="1934.38,-664.38 1981.62,-664.38"/>
<text text-anchor="start" x="1937.38" y="-671.58" font-family="Courier New" font-weight="bold" font-size="14.00">empty</text>
<path fill="none" stroke="darkred" d="M1940.88,-661.38C1940.88,-661.38 1975.12,-661.38 1975.12,-661.38 1979.88,-661.38 1984.62,-666.12 1984.62,-670.88 1984.62,-670.88 1984.62,-680.38 1984.62,-680.38 1984.62,-685.12 1979.88,-689.88 1975.12,-689.88 1975.12,-689.88 1940.88,-689.88 1940.88,-689.88 1936.12,-689.88 1931.38,-685.12 1931.38,-680.38 1931.38,-680.38 1931.38,-670.88 1931.38,-670.88 1931.38,-666.12 1936.12,-661.38 1940.88,-661.38"/>
</g>
<!-- 100&#45;&gt;empty -->
<g id="edge2" class="edge">
<title>100&#45;&gt;empty</title>
<path fill="none" stroke="black" d="M1647.14,-841.85C1662.96,-814.1 1698.27,-760.01 1745,-735.5 1809.94,-701.44 1841.53,-746.21 1909,-717.5 1918.09,-713.63 1926.78,-707.51 1934.26,-701.16"/>
<polygon fill="black" stroke="black" points="1936.27,-704.07 1941.31,-694.75 1931.56,-698.89 1936.27,-704.07"/>
<polygon fill="none" stroke="black" points="1748,-784.75 1748,-803.5 1916,-803.5 1916,-784.75 1748,-784.75"/>
<text text-anchor="start" x="1796" y="-792" font-family="Courier New" font-weight="bold" font-size="10.00" fill="blue">Z_EPSILON(,)</text>
<polygon fill="none" stroke="black" points="1748,-738.5 1748,-782.75 1916,-782.75 1916,-738.5 1748,-738.5"/>
<text text-anchor="start" x="1751" y="-770.25" font-family="Courier New" font-size="10.00" fill="blue"> &#160;&#160;&#160;SHOW(0);</text>
<text text-anchor="start" x="1751" y="-757.5" font-family="Courier New" font-size="10.00" fill="blue"> &#160;&#160;&#160;SIGNAL(WIP3,SIG_CLEAR);</text>
<text text-anchor="start" x="1751" y="-744.75" font-family="Courier New" font-size="10.00" fill="blue"> &#160;&#160;&#160;SIGNAL(WIP4,SIG_CLEAR);</text>
<polygon fill="none" stroke="black" points="1745,-735.5 1745,-806.5 1919,-806.5 1919,-735.5 1745,-735.5"/>
</g>
<!-- empty&#45;&gt;0 -->
<g id="edge16" class="edge">
<title>empty&#45;&gt;0</title>
<path fill="none" stroke="black" d="M1954.04,-693.87C1946.99,-726.11 1933,-797.8 1933,-859 1933,-1649.25 1933,-1649.25 1933,-1649.25 1933,-1715.8 1933,-1793.98 1933,-1835.02"/>
<polygon fill="black" stroke="black" points="1929.5,-1834.77 1933,-1844.77 1936.5,-1834.77 1929.5,-1834.77"/>
<text text-anchor="start" x="1937" y="-1084" font-family="Courier New" font-weight="bold" font-size="10.00" fill="orange">WAIT(,SIG_SHOW)</text>
</g>
<!-- 20 -->
<g id="node6" class="node">
<title>20</title>
<polyline fill="none" stroke="darkred" points="753.75,-569 776.25,-569"/>
<text text-anchor="start" x="756.75" y="-576.2" font-family="Courier New" font-weight="bold" font-size="14.00">20</text>
<path fill="none" stroke="darkred" d="M760.25,-566C760.25,-566 769.75,-566 769.75,-566 774.5,-566 779.25,-570.75 779.25,-575.5 779.25,-575.5 779.25,-585 779.25,-585 779.25,-589.75 774.5,-594.5 769.75,-594.5 769.75,-594.5 760.25,-594.5 760.25,-594.5 755.5,-594.5 750.75,-589.75 750.75,-585 750.75,-585 750.75,-575.5 750.75,-575.5 750.75,-570.75 755.5,-566 760.25,-566"/>
</g>
<!-- playForward -->
<g id="node7" class="node">
<title>playForward</title>
<polyline fill="none" stroke="darkred" points="940.62,-404 1037.38,-404"/>
<text text-anchor="start" x="943.62" y="-411.2" font-family="Courier New" font-weight="bold" font-size="14.00">playForward</text>
<path fill="none" stroke="darkred" d="M947.12,-401C947.12,-401 1030.88,-401 1030.88,-401 1035.62,-401 1040.38,-405.75 1040.38,-410.5 1040.38,-410.5 1040.38,-420 1040.38,-420 1040.38,-424.75 1035.62,-429.5 1030.88,-429.5 1030.88,-429.5 947.12,-429.5 947.12,-429.5 942.38,-429.5 937.62,-424.75 937.62,-420 937.62,-420 937.62,-410.5 937.62,-410.5 937.62,-405.75 942.38,-401 947.12,-401"/>
</g>
<!-- 20&#45;&gt;playForward -->
<g id="edge3" class="edge">
<title>20&#45;&gt;playForward</title>
<path fill="none" stroke="black" d="M760.68,-562.29C756.86,-543.7 753.37,-513.43 764,-490.25 775,-466.26 785.26,-463.03 809,-451.5 842.97,-435 884.1,-426.22 918.46,-421.55"/>
<polygon fill="black" stroke="black" points="918.84,-425.03 928.33,-420.31 917.97,-418.09 918.84,-425.03"/>
<text text-anchor="start" x="768" y="-506.38" font-family="Courier New" font-weight="bold" font-size="10.00" fill="blue">ASSIGN(WSPRITE,happy)</text>
</g>
<!-- playDead -->
<g id="node17" class="node">
<title>playDead</title>
<polyline fill="none" stroke="darkred" points="1513,-247.75 1585,-247.75"/>
<text text-anchor="start" x="1516" y="-254.95" font-family="Courier New" font-weight="bold" font-size="14.00">playDead</text>
<path fill="none" stroke="darkred" d="M1519.5,-244.75C1519.5,-244.75 1578.5,-244.75 1578.5,-244.75 1583.25,-244.75 1588,-249.5 1588,-254.25 1588,-254.25 1588,-263.75 1588,-263.75 1588,-268.5 1583.25,-273.25 1578.5,-273.25 1578.5,-273.25 1519.5,-273.25 1519.5,-273.25 1514.75,-273.25 1510,-268.5 1510,-263.75 1510,-263.75 1510,-254.25 1510,-254.25 1510,-249.5 1514.75,-244.75 1519.5,-244.75"/>
</g>
<!-- playForward&#45;&gt;playDead -->
<g id="edge18" class="edge">
<title>playForward&#45;&gt;playDead</title>
<path fill="none" stroke="black" d="M1015.79,-397.02C1058.82,-370.26 1146.88,-319.31 1229,-295.25 1317.93,-269.2 1425.89,-262.1 1490.93,-260.34"/>
<polygon fill="black" stroke="black" points="1490.74,-263.85 1500.66,-260.11 1490.58,-256.85 1490.74,-263.85"/>
<polygon fill="none" stroke="black" points="1232,-357.25 1232,-376 1532,-376 1532,-357.25 1232,-357.25"/>
<text text-anchor="start" x="1331" y="-364.5" font-family="Courier New" font-weight="bold" font-size="10.00" fill="blue">EQUALi(LENERGY,0)</text>
<polygon fill="none" stroke="black" points="1232,-298.25 1232,-355.25 1532,-355.25 1532,-298.25 1232,-298.25"/>
<text text-anchor="start" x="1235" y="-342.75" font-family="Courier New" font-size="10.00" fill="blue"> &#160;&#160;&#160;ASSIGN(WSPRITE, dead);</text>
<text text-anchor="start" x="1235" y="-330" font-family="Courier New" font-size="10.00" fill="blue"> &#160;&#160;&#160;MAP(WSPRITE,WPARM);</text>
<text text-anchor="start" x="1235" y="-317.25" font-family="Courier New" font-size="10.00" fill="blue"> &#160;&#160;&#160;SHOW(WSPRITE);</text>
<text text-anchor="start" x="1235" y="-304.5" font-family="Courier New" font-size="10.00" fill="blue"> &#160;&#160;&#160;ANIMATE(0,V_REWIND); //PLAY FORWARD THEN BACK</text>
<polygon fill="none" stroke="black" points="1229,-295.25 1229,-379 1535,-379 1535,-295.25 1229,-295.25"/>
</g>
<!-- sitting -->
<g id="node21" class="node">
<title>sitting</title>
<polyline fill="none" stroke="darkred" points="1025.12,-984 1088.88,-984"/>
<text text-anchor="start" x="1028.12" y="-991.2" font-family="Courier New" font-weight="bold" font-size="14.00">sitting</text>
<path fill="none" stroke="darkred" d="M1031.62,-981C1031.62,-981 1082.38,-981 1082.38,-981 1087.12,-981 1091.88,-985.75 1091.88,-990.5 1091.88,-990.5 1091.88,-1000 1091.88,-1000 1091.88,-1004.75 1087.12,-1009.5 1082.38,-1009.5 1082.38,-1009.5 1031.62,-1009.5 1031.62,-1009.5 1026.88,-1009.5 1022.12,-1004.75 1022.12,-1000 1022.12,-1000 1022.12,-990.5 1022.12,-990.5 1022.12,-985.75 1026.88,-981 1031.62,-981"/>
</g>
<!-- playForward&#45;&gt;sitting -->
<g id="edge19" class="edge">
<title>playForward&#45;&gt;sitting</title>
<path fill="none" stroke="black" d="M988.47,-433.45C987.37,-470.21 984.86,-559.16 984,-633.75 983.57,-670.97 960.43,-688.69 984,-717.5 1009.55,-748.74 1047.45,-704.26 1073,-735.5 1135.89,-812.39 1094,-861.91 1073,-959 1072.46,-961.51 1071.72,-964.05 1070.86,-966.57"/>
<polygon fill="black" stroke="black" points="1067.64,-965.2 1067.08,-975.79 1074.11,-967.86 1067.64,-965.2"/>
<polygon fill="none" stroke="black" points="987,-695.75 987,-714.5 1287,-714.5 1287,-695.75 987,-695.75"/>
<text text-anchor="start" x="1083" y="-703" font-family="Courier New" font-weight="bold" font-size="10.00" fill="blue">NEQUALi(LENERGY,0)</text>
<polygon fill="none" stroke="black" points="987,-636.75 987,-693.75 1287,-693.75 1287,-636.75 987,-636.75"/>
<text text-anchor="start" x="990" y="-681.25" font-family="Courier New" font-size="10.00" fill="blue"> &#160;&#160;&#160;ASSIGN(BFRAME, 0);</text>
<text text-anchor="start" x="990" y="-668.5" font-family="Courier New" font-size="10.00" fill="blue"> &#160;&#160;&#160;MAP(WSPRITE,WPARM);</text>
<text text-anchor="start" x="990" y="-655.75" font-family="Courier New" font-size="10.00" fill="blue"> &#160;&#160;&#160;SHOW(WSPRITE);</text>
<text text-anchor="start" x="990" y="-643" font-family="Courier New" font-size="10.00" fill="blue"> &#160;&#160;&#160;ANIMATE(0,V_REWIND); //PLAY FORWARD THEN BACK</text>
<polygon fill="none" stroke="black" points="984,-633.75 984,-717.5 1290,-717.5 1290,-633.75 984,-633.75"/>
</g>
<!-- 21 -->
<g id="node8" class="node">
<title>21</title>
<polyline fill="none" stroke="darkred" points="456.75,-497.25 479.25,-497.25"/>
<text text-anchor="start" x="459.75" y="-504.45" font-family="Courier New" font-weight="bold" font-size="14.00">21</text>
<path fill="none" stroke="darkred" d="M463.25,-494.25C463.25,-494.25 472.75,-494.25 472.75,-494.25 477.5,-494.25 482.25,-499 482.25,-503.75 482.25,-503.75 482.25,-513.25 482.25,-513.25 482.25,-518 477.5,-522.75 472.75,-522.75 472.75,-522.75 463.25,-522.75 463.25,-522.75 458.5,-522.75 453.75,-518 453.75,-513.25 453.75,-513.25 453.75,-503.75 453.75,-503.75 453.75,-499 458.5,-494.25 463.25,-494.25"/>
</g>
<!-- 21&#45;&gt;playForward -->
<g id="edge4" class="edge">
<title>21&#45;&gt;playForward</title>
<path fill="none" stroke="black" d="M462.81,-490.29C460.23,-477.87 459.42,-461.57 469,-451.5 499.3,-419.65 783.26,-415.84 918.3,-415.86"/>
<polygon fill="black" stroke="black" points="918.2,-419.36 928.2,-415.87 918.2,-412.36 918.2,-419.36"/>
<text text-anchor="start" x="473" y="-459.75" font-family="Courier New" font-weight="bold" font-size="10.00" fill="blue">ASSIGN(WSPRITE,hurt)</text>
</g>
<!-- 22 -->
<g id="node9" class="node">
<title>22</title>
<polyline fill="none" stroke="darkred" points="796.75,-848.75 819.25,-848.75"/>
<text text-anchor="start" x="799.75" y="-855.95" font-family="Courier New" font-weight="bold" font-size="14.00">22</text>
<path fill="none" stroke="darkred" d="M803.25,-845.75C803.25,-845.75 812.75,-845.75 812.75,-845.75 817.5,-845.75 822.25,-850.5 822.25,-855.25 822.25,-855.25 822.25,-864.75 822.25,-864.75 822.25,-869.5 817.5,-874.25 812.75,-874.25 812.75,-874.25 803.25,-874.25 803.25,-874.25 798.5,-874.25 793.75,-869.5 793.75,-864.75 793.75,-864.75 793.75,-855.25 793.75,-855.25 793.75,-850.5 798.5,-845.75 803.25,-845.75"/>
</g>
<!-- playOnce -->
<g id="node10" class="node">
<title>playOnce</title>
<polyline fill="none" stroke="darkred" points="759,-664.38 831,-664.38"/>
<text text-anchor="start" x="762" y="-671.58" font-family="Courier New" font-weight="bold" font-size="14.00">playOnce</text>
<path fill="none" stroke="darkred" d="M765.5,-661.38C765.5,-661.38 824.5,-661.38 824.5,-661.38 829.25,-661.38 834,-666.12 834,-670.88 834,-670.88 834,-680.38 834,-680.38 834,-685.12 829.25,-689.88 824.5,-689.88 824.5,-689.88 765.5,-689.88 765.5,-689.88 760.75,-689.88 756,-685.12 756,-680.38 756,-680.38 756,-670.88 756,-670.88 756,-666.12 760.75,-661.38 765.5,-661.38"/>
</g>
<!-- 22&#45;&gt;playOnce -->
<g id="edge5" class="edge">
<title>22&#45;&gt;playOnce</title>
<path fill="none" stroke="black" d="M789.6,-841.78C782.8,-835.89 774.83,-829.53 767,-824.5 751.28,-814.4 738.99,-822.29 729,-806.5 712.13,-779.84 716.1,-764.3 729,-735.5 735.09,-721.9 746.05,-710.15 757.31,-700.8"/>
<polygon fill="black" stroke="black" points="759.36,-703.64 765.12,-694.76 755.07,-698.11 759.36,-703.64"/>
<text text-anchor="start" x="733" y="-768.88" font-family="Courier New" font-weight="bold" font-size="10.00" fill="blue">ASSIGN(WSPRITE,kiss)</text>
</g>
<!-- playOnce&#45;&gt;sitting -->
<g id="edge20" class="edge">
<title>playOnce&#45;&gt;sitting</title>
<path fill="none" stroke="black" d="M819.58,-693.75C832.76,-704.27 848.09,-718.89 857,-735.5 891.12,-799.12 843.56,-836.39 885,-895.5 913.55,-936.22 964.62,-962.42 1003.73,-977.53"/>
<polygon fill="black" stroke="black" points="1002.4,-980.77 1012.99,-980.97 1004.84,-974.21 1002.4,-980.77"/>
<polygon fill="none" stroke="black" points="888,-873.75 888,-892.5 1032,-892.5 1032,-873.75 888,-873.75"/>
<text text-anchor="start" x="912" y="-881" font-family="Courier New" font-weight="bold" font-size="10.00" fill="blue">ASSIGN(BFRAME,0)</text>
<polygon fill="none" stroke="black" points="888,-827.5 888,-871.75 1032,-871.75 1032,-827.5 888,-827.5"/>
<text text-anchor="start" x="891" y="-859.25" font-family="Courier New" font-size="10.00" fill="blue"> &#160;&#160;&#160;MAP(WSPRITE,WPARM);</text>
<text text-anchor="start" x="891" y="-846.5" font-family="Courier New" font-size="10.00" fill="blue"> &#160;&#160;&#160;SHOW(0,WSPRITE);</text>
<text text-anchor="start" x="891" y="-833.75" font-family="Courier New" font-size="10.00" fill="blue"> &#160;&#160;&#160;ANIMATE(0,0);</text>
<polygon fill="none" stroke="black" points="885,-824.5 885,-895.5 1035,-895.5 1035,-824.5 885,-824.5"/>
</g>
<!-- 23 -->
<g id="node11" class="node">
<title>23</title>
<polyline fill="none" stroke="darkred" points="599.75,-759.75 622.25,-759.75"/>
<text text-anchor="start" x="602.75" y="-766.95" font-family="Courier New" font-weight="bold" font-size="14.00">23</text>
<path fill="none" stroke="darkred" d="M606.25,-756.75C606.25,-756.75 615.75,-756.75 615.75,-756.75 620.5,-756.75 625.25,-761.5 625.25,-766.25 625.25,-766.25 625.25,-775.75 625.25,-775.75 625.25,-780.5 620.5,-785.25 615.75,-785.25 615.75,-785.25 606.25,-785.25 606.25,-785.25 601.5,-785.25 596.75,-780.5 596.75,-775.75 596.75,-775.75 596.75,-766.25 596.75,-766.25 596.75,-761.5 601.5,-756.75 606.25,-756.75"/>
</g>
<!-- 23&#45;&gt;playForward -->
<g id="edge6" class="edge">
<title>23&#45;&gt;playForward</title>
<path fill="none" stroke="black" d="M605.13,-752.98C592.57,-713.28 567.28,-612.82 607,-544.75 649.45,-472 692.52,-479.41 772,-451.5 819.44,-434.84 875.51,-425.99 918.77,-421.33"/>
<polygon fill="black" stroke="black" points="918.95,-424.83 928.55,-420.33 918.24,-417.86 918.95,-424.83"/>
<text text-anchor="start" x="611" y="-578.12" font-family="Courier New" font-weight="bold" font-size="10.00" fill="blue">ASSIGN(WSPRITE,mad)</text>
</g>
<!-- 24 -->
<g id="node12" class="node">
<title>24</title>
<polyline fill="none" stroke="darkred" points="1104.75,-569 1127.25,-569"/>
<text text-anchor="start" x="1107.75" y="-576.2" font-family="Courier New" font-weight="bold" font-size="14.00">24</text>
<path fill="none" stroke="darkred" d="M1111.25,-566C1111.25,-566 1120.75,-566 1120.75,-566 1125.5,-566 1130.25,-570.75 1130.25,-575.5 1130.25,-575.5 1130.25,-585 1130.25,-585 1130.25,-589.75 1125.5,-594.5 1120.75,-594.5 1120.75,-594.5 1111.25,-594.5 1111.25,-594.5 1106.5,-594.5 1101.75,-589.75 1101.75,-585 1101.75,-585 1101.75,-575.5 1101.75,-575.5 1101.75,-570.75 1106.5,-566 1111.25,-566"/>
</g>
<!-- 24&#45;&gt;playForward -->
<g id="edge7" class="edge">
<title>24&#45;&gt;playForward</title>
<path fill="none" stroke="black" d="M1102.65,-562.11C1080.3,-533.42 1035.18,-475.52 1009.01,-441.94"/>
<polygon fill="black" stroke="black" points="1012.01,-440.09 1003.1,-434.35 1006.49,-444.39 1012.01,-440.09"/>
<text text-anchor="start" x="1078" y="-506.38" font-family="Courier New" font-weight="bold" font-size="10.00" fill="blue">ASSIGN(WSPRITE,sad)</text>
</g>
<!-- 25 -->
<g id="node13" class="node">
<title>25</title>
<polyline fill="none" stroke="darkred" points="922.75,-497.25 945.25,-497.25"/>
<text text-anchor="start" x="925.75" y="-504.45" font-family="Courier New" font-weight="bold" font-size="14.00">25</text>
<path fill="none" stroke="darkred" d="M929.25,-494.25C929.25,-494.25 938.75,-494.25 938.75,-494.25 943.5,-494.25 948.25,-499 948.25,-503.75 948.25,-503.75 948.25,-513.25 948.25,-513.25 948.25,-518 943.5,-522.75 938.75,-522.75 938.75,-522.75 929.25,-522.75 929.25,-522.75 924.5,-522.75 919.75,-518 919.75,-513.25 919.75,-513.25 919.75,-503.75 919.75,-503.75 919.75,-499 924.5,-494.25 929.25,-494.25"/>
</g>
<!-- 25&#45;&gt;playForward -->
<g id="edge8" class="edge">
<title>25&#45;&gt;playForward</title>
<path fill="none" stroke="black" d="M907.34,-495.53C902.61,-493.63 897.7,-491.78 893,-490.25 860,-479.48 838.53,-499.48 817,-472.25 811.28,-465.02 811.17,-458.65 817,-451.5 829.97,-435.6 876.89,-426.67 918.44,-421.78"/>
<polygon fill="black" stroke="black" points="918.65,-425.28 928.21,-420.7 917.88,-418.32 918.65,-425.28"/>
<text text-anchor="start" x="821" y="-459.75" font-family="Courier New" font-weight="bold" font-size="10.00" fill="blue">ASSIGN(WSPRITE,surprised)</text>
</g>
<!-- 26 -->
<g id="node14" class="node">
<title>26</title>
<polyline fill="none" stroke="darkred" points="1431.75,-759.75 1454.25,-759.75"/>
<text text-anchor="start" x="1434.75" y="-766.95" font-family="Courier New" font-weight="bold" font-size="14.00">26</text>
<path fill="none" stroke="darkred" d="M1438.25,-756.75C1438.25,-756.75 1447.75,-756.75 1447.75,-756.75 1452.5,-756.75 1457.25,-761.5 1457.25,-766.25 1457.25,-766.25 1457.25,-775.75 1457.25,-775.75 1457.25,-780.5 1452.5,-785.25 1447.75,-785.25 1447.75,-785.25 1438.25,-785.25 1438.25,-785.25 1433.5,-785.25 1428.75,-780.5 1428.75,-775.75 1428.75,-775.75 1428.75,-766.25 1428.75,-766.25 1428.75,-761.5 1433.5,-756.75 1438.25,-756.75"/>
</g>
<!-- 26&#45;&gt;playForward -->
<g id="edge9" class="edge">
<title>26&#45;&gt;playForward</title>
<path fill="none" stroke="black" d="M1436.82,-753.11C1426.73,-724.98 1406.69,-666.59 1395,-615.75 1388.68,-588.26 1395.56,-510.58 1376,-490.25 1333.29,-445.85 1159.1,-427.3 1059.59,-420.2"/>
<polygon fill="black" stroke="black" points="1059.86,-416.71 1049.64,-419.51 1059.38,-423.69 1059.86,-416.71"/>
<text text-anchor="start" x="1399" y="-578.12" font-family="Courier New" font-weight="bold" font-size="10.00" fill="blue">ASSIGN(WSPRITE,stress)</text>
</g>
<!-- 27 -->
<g id="node15" class="node">
<title>27</title>
<polyline fill="none" stroke="darkred" points="1276.75,-569 1299.25,-569"/>
<text text-anchor="start" x="1279.75" y="-576.2" font-family="Courier New" font-weight="bold" font-size="14.00">27</text>
<path fill="none" stroke="darkred" d="M1283.25,-566C1283.25,-566 1292.75,-566 1292.75,-566 1297.5,-566 1302.25,-570.75 1302.25,-575.5 1302.25,-575.5 1302.25,-585 1302.25,-585 1302.25,-589.75 1297.5,-594.5 1292.75,-594.5 1292.75,-594.5 1283.25,-594.5 1283.25,-594.5 1278.5,-594.5 1273.75,-589.75 1273.75,-585 1273.75,-585 1273.75,-575.5 1273.75,-575.5 1273.75,-570.75 1278.5,-566 1283.25,-566"/>
</g>
<!-- 27&#45;&gt;playForward -->
<g id="edge10" class="edge">
<title>27&#45;&gt;playForward</title>
<path fill="none" stroke="black" d="M1275.17,-562.2C1259.44,-542.38 1231.03,-509.89 1200,-490.25 1156.7,-462.85 1101.95,-444.03 1059.07,-432.23"/>
<polygon fill="black" stroke="black" points="1060.19,-428.9 1049.62,-429.7 1058.37,-435.67 1060.19,-428.9"/>
<text text-anchor="start" x="1248" y="-506.38" font-family="Courier New" font-weight="bold" font-size="10.00" fill="blue">ASSIGN(WSPRITE,wave)</text>
</g>
<!-- 30 -->
<g id="node16" class="node">
<title>30</title>
<polyline fill="none" stroke="darkred" points="1533.75,-759.75 1556.25,-759.75"/>
<text text-anchor="start" x="1536.75" y="-766.95" font-family="Courier New" font-weight="bold" font-size="14.00">30</text>
<path fill="none" stroke="darkred" d="M1540.25,-756.75C1540.25,-756.75 1549.75,-756.75 1549.75,-756.75 1554.5,-756.75 1559.25,-761.5 1559.25,-766.25 1559.25,-766.25 1559.25,-775.75 1559.25,-775.75 1559.25,-780.5 1554.5,-785.25 1549.75,-785.25 1549.75,-785.25 1540.25,-785.25 1540.25,-785.25 1535.5,-785.25 1530.75,-780.5 1530.75,-775.75 1530.75,-775.75 1530.75,-766.25 1530.75,-766.25 1530.75,-761.5 1535.5,-756.75 1540.25,-756.75"/>
</g>
<!-- 30&#45;&gt;playDead -->
<g id="edge11" class="edge">
<title>30&#45;&gt;playDead</title>
<path fill="none" stroke="black" d="M1545.61,-752.83C1546.73,-719.67 1549,-644.51 1549,-581.25 1549,-581.25 1549,-581.25 1549,-414.25 1549,-370.28 1549,-319.25 1549,-288.31"/>
<polygon fill="black" stroke="black" points="1552.5,-288.63 1549,-278.63 1545.5,-288.63 1552.5,-288.63"/>
<text text-anchor="start" x="1553" y="-506.38" font-family="Courier New" font-weight="bold" font-size="10.00" fill="blue">ASSIGN(WSPRITE,dead)</text>
</g>
<!-- dead -->
<g id="node20" class="node">
<title>dead</title>
<polyline fill="none" stroke="darkred" stroke-width="3" points="1775,-10.5 1815,-10.5"/>
<text text-anchor="start" x="1778.5" y="-18.2" font-family="Courier New" font-weight="bold" font-size="14.00">dead</text>
<path fill="none" stroke="darkred" stroke-width="3" d="M1781.17,-5.5C1781.17,-5.5 1808.83,-5.5 1808.83,-5.5 1814.42,-5.5 1820,-11.08 1820,-16.67 1820,-16.67 1820,-27.83 1820,-27.83 1820,-33.42 1814.42,-39 1808.83,-39 1808.83,-39 1781.17,-39 1781.17,-39 1775.58,-39 1770,-33.42 1770,-27.83 1770,-27.83 1770,-16.67 1770,-16.67 1770,-11.08 1775.58,-5.5 1781.17,-5.5"/>
</g>
<!-- playDead&#45;&gt;dead -->
<g id="edge17" class="edge">
<title>playDead&#45;&gt;dead</title>
<path fill="none" stroke="black" d="M1543.65,-241.03C1533,-203.56 1513.86,-113.09 1559,-62.5 1583.62,-34.91 1688.13,-26.71 1749.51,-24.28"/>
<polygon fill="black" stroke="black" points="1749.42,-27.78 1759.29,-23.93 1749.17,-20.79 1749.42,-27.78"/>
<polygon fill="none" stroke="black" points="1562,-201 1562,-219.75 1778,-219.75 1778,-201 1562,-201"/>
<text text-anchor="start" x="1622" y="-208.25" font-family="Courier New" font-weight="bold" font-size="10.00" fill="blue">ASSIGN(BFRAME,0)</text>
<polygon fill="none" stroke="black" points="1562,-65.5 1562,-199 1778,-199 1778,-65.5 1562,-65.5"/>
<text text-anchor="start" x="1565" y="-186.5" font-family="Courier New" font-size="10.00" fill="blue"> &#160;&#160;&#160;WRITE(&quot;HERE I DIE&quot;);</text>
<text text-anchor="start" x="1565" y="-173.75" font-family="Courier New" font-size="10.00" fill="blue"> &#160;&#160;&#160;MAP(WSPRITE,WPARM);</text>
<text text-anchor="start" x="1565" y="-161" font-family="Courier New" font-size="10.00" fill="blue"> &#160;&#160;&#160;SHOW(0,WSPRITE);</text>
<text text-anchor="start" x="1565" y="-148.25" font-family="Courier New" font-size="10.00" fill="blue"> &#160;&#160;&#160;VIDEO(0,WSPRITE);</text>
<text text-anchor="start" x="1565" y="-135.5" font-family="Courier New" font-size="10.00" fill="blue"> &#160;&#160;&#160;ANIMATE(0,0);</text>
<text text-anchor="start" x="1565" y="-122.75" font-family="Courier New" font-size="10.00" fill="blue"> &#160;&#160;&#160;ASSIGN(LENERGY,0);</text>
<text text-anchor="start" x="1565" y="-110" font-family="Courier New" font-size="10.00" fill="blue"> &#160;&#160;&#160;ASSIGN(LWEALTH,0);</text>
<text text-anchor="start" x="1565" y="-97.25" font-family="Courier New" font-size="10.00" fill="blue"> &#160;&#160;&#160;SIGNAL(SMP_VIAL,SIG_DRAIN);</text>
<text text-anchor="start" x="1565" y="-84.5" font-family="Courier New" font-size="10.00" fill="blue"> &#160;&#160;&#160;SIGNAL(SID_PERSIST,SIG_UPDATE);</text>
<text text-anchor="start" x="1565" y="-71.75" font-family="Courier New" font-size="10.00" fill="blue"> &#160;&#160;&#160;LOADVIEW(IDV_VIL8);</text>
<polygon fill="none" stroke="black" points="1559,-62.5 1559,-222.75 1781,-222.75 1781,-62.5 1559,-62.5"/>
</g>
<!-- 50 -->
<g id="node18" class="node">
<title>50</title>
<polyline fill="none" stroke="darkred" points="15.75,-848.75 38.25,-848.75"/>
<text text-anchor="start" x="18.75" y="-855.95" font-family="Courier New" font-weight="bold" font-size="14.00">50</text>
<path fill="none" stroke="darkred" d="M22.25,-845.75C22.25,-845.75 31.75,-845.75 31.75,-845.75 36.5,-845.75 41.25,-850.5 41.25,-855.25 41.25,-855.25 41.25,-864.75 41.25,-864.75 41.25,-869.5 36.5,-874.25 31.75,-874.25 31.75,-874.25 22.25,-874.25 22.25,-874.25 17.5,-874.25 12.75,-869.5 12.75,-864.75 12.75,-864.75 12.75,-855.25 12.75,-855.25 12.75,-850.5 17.5,-845.75 22.25,-845.75"/>
</g>
<!-- 51 -->
<g id="node19" class="node">
<title>51</title>
<polyline fill="none" stroke="darkred" points="113.75,-664.38 136.25,-664.38"/>
<text text-anchor="start" x="116.75" y="-671.58" font-family="Courier New" font-weight="bold" font-size="14.00">51</text>
<path fill="none" stroke="darkred" d="M120.25,-661.38C120.25,-661.38 129.75,-661.38 129.75,-661.38 134.5,-661.38 139.25,-666.12 139.25,-670.88 139.25,-670.88 139.25,-680.38 139.25,-680.38 139.25,-685.12 134.5,-689.88 129.75,-689.88 129.75,-689.88 120.25,-689.88 120.25,-689.88 115.5,-689.88 110.75,-685.12 110.75,-680.38 110.75,-680.38 110.75,-670.88 110.75,-670.88 110.75,-666.12 115.5,-661.38 120.25,-661.38"/>
</g>
<!-- 50&#45;&gt;51 -->
<g id="edge12" class="edge">
<title>50&#45;&gt;51</title>
<path fill="none" stroke="black" d="M36.22,-841.84C53.29,-810.07 89.95,-741.85 110.42,-703.76"/>
<polygon fill="black" stroke="black" points="113.37,-705.67 115.02,-695.2 107.2,-702.35 113.37,-705.67"/>
<text text-anchor="start" x="98" y="-768.88" font-family="Courier New" font-weight="bold" font-size="10.00" fill="blue">VIDEO(0,IDS_EXPLODE1)</text>
</g>
<!-- 51&#45;&gt;21 -->
<g id="edge13" class="edge">
<title>51&#45;&gt;21</title>
<path fill="none" stroke="black" d="M128.27,-657.8C134.75,-629.34 152.12,-572.13 191,-544.75 228.67,-518.22 363.12,-511.65 429.86,-510.03"/>
<polygon fill="black" stroke="black" points="429.68,-513.54 439.6,-509.82 429.53,-506.54 429.68,-513.54"/>
<polygon fill="none" stroke="black" points="194,-594 194,-612.75 458,-612.75 458,-594 194,-594"/>
<text text-anchor="start" x="251" y="-601.25" font-family="Courier New" font-weight="bold" font-size="10.00" fill="blue">PLAYWAVE(0,SOUND_EXPLODE)</text>
<polygon fill="none" stroke="black" points="194,-547.75 194,-592 458,-592 458,-547.75 194,-547.75"/>
<text text-anchor="start" x="197" y="-579.5" font-family="Courier New" font-size="10.00" fill="blue"> &#160;&#160;&#160;&#160;&#160;&#160;&#160;&#160;&#160;&#160;&#160;SUBI(LENERGY,1);</text>
<text text-anchor="start" x="197" y="-566.75" font-family="Courier New" font-size="10.00" fill="blue"> &#160;&#160;&#160;&#160;&#160;&#160;&#160;&#160;&#160;&#160;&#160;SIGNAL(SID_PERSIST,SIG_UPDATE);</text>
<text text-anchor="start" x="197" y="-554" font-family="Courier New" font-size="10.00" fill="blue"> &#160;&#160;&#160;&#160;&#160;&#160;&#160;&#160;&#160;&#160;&#160;SIGNAL(SID_AURA,SIG_SUB);</text>
<polygon fill="none" stroke="black" points="191,-544.75 191,-615.75 461,-615.75 461,-544.75 191,-544.75"/>
</g>
<!-- dead&#45;&gt;0 -->
<g id="edge15" class="edge">
<title>dead&#45;&gt;0</title>
<path fill="none" stroke="black" d="M1829.37,-36.4C1898.12,-65.19 2046,-140.76 2046,-258 2046,-1649.25 2046,-1649.25 2046,-1649.25 2046,-1724.97 1990.09,-1800.17 1956.93,-1838.12"/>
<polygon fill="black" stroke="black" points="1954.49,-1835.59 1950.44,-1845.38 1959.71,-1840.25 1954.49,-1835.59"/>
<text text-anchor="start" x="2050" y="-768.88" font-family="Courier New" font-weight="bold" font-size="10.00" fill="orange">WAIT(,SIG_MYID)</text>
</g>
<!-- dead&#45;&gt;present -->
<g id="edge14" class="edge">
<title>dead&#45;&gt;present</title>
<path fill="none" stroke="black" d="M1795,-44.29C1795,-85.38 1795,-179.14 1795,-258 1795,-1227.12 1795,-1227.12 1795,-1227.12 1795,-1428.95 1725.85,-1506.16 1554,-1612 1524.34,-1630.27 1431.81,-1639.75 1371.81,-1644.1"/>
<polygon fill="black" stroke="black" points="1371.88,-1640.59 1362.15,-1644.77 1372.37,-1647.57 1371.88,-1640.59"/>
<text text-anchor="start" x="1799" y="-673.5" font-family="Courier New" font-weight="bold" font-size="10.00" fill="orange">WAIT(,SIG_REVIVE)</text>
</g>
<!-- sitting&#45;&gt;present -->
<g id="edge23" class="edge">
<title>sitting&#45;&gt;present</title>
<path fill="none" stroke="black" d="M1058.25,-1013.41C1062.66,-1072.73 1077.65,-1267.03 1087,-1293.5 1135.25,-1430.1 1246.54,-1566.48 1294.89,-1621.68"/>
<polygon fill="black" stroke="black" points="1292.11,-1623.82 1301.35,-1628.99 1297.35,-1619.18 1292.11,-1623.82"/>
<polygon fill="none" stroke="black" points="1090,-1271.75 1090,-1290.5 1678,-1290.5 1678,-1271.75 1090,-1271.75"/>
<text text-anchor="start" x="1336" y="-1279" font-family="Courier New" font-weight="bold" font-size="10.00" fill="orange">WAIT(0,SIG_MYID)</text>
<polygon fill="none" stroke="black" points="1090,-1161.75 1090,-1269.75 1678,-1269.75 1678,-1161.75 1090,-1161.75"/>
<text text-anchor="start" x="1093" y="-1257.25" font-family="Courier New" font-size="10.00" fill="blue"> &#160;&#160;&#160;CLEAR(WSPRITE);</text>
<text text-anchor="start" x="1093" y="-1244.5" font-family="Courier New" font-size="10.00" fill="blue"> &#160;&#160;&#160;&#160;SHOW(0);</text>
<text text-anchor="start" x="1093" y="-1231.75" font-family="Courier New" font-size="10.00" fill="blue"> &#160;&#160;&#160;predicate active_character(name);</text>
<text text-anchor="start" x="1093" y="-1219" font-family="Courier New" font-size="10.00" fill="blue"> &#160;&#160;&#160;active_character(?BPARM)?</text>
<text text-anchor="start" x="1093" y="-1206.25" font-family="Courier New" font-size="10.00" fill="blue"> &#160;&#160;&#160;predicate localplayer(name,viewname, wealth,karma, energy,strength, wisdom, gender, culture);</text>
<text text-anchor="start" x="1093" y="-1193.5" font-family="Courier New" font-size="10.00" fill="blue"> &#160;&#160;&#160;localplayer(BPARM, ?WTEMP1, ?LWEALTH, ?LKARMA,?LENERGY,?LSTRENGTH, ?LWISDOM, ?LSEX, ?WTEMP2)?</text>
<text text-anchor="start" x="1093" y="-1180.75" font-family="Courier New" font-size="10.00" fill="blue"> &#160;&#160;&#160;&#160;SIGNAL(SID_AURA, SIG_MYAURA);</text>
<text text-anchor="start" x="1093" y="-1168" font-family="Courier New" font-size="10.00" fill="blue"> &#160;&#160;&#160;&#160;SIGNAL(SID_HALO, SIG_MYHALO);</text>
<polygon fill="none" stroke="black" points="1087,-1158.75 1087,-1293.5 1681,-1293.5 1681,-1158.75 1087,-1158.75"/>
</g>
<!-- sitting&#45;&gt;present -->
<g id="edge35" class="edge">
<title>sitting&#45;&gt;present</title>
<path fill="none" stroke="black" d="M1099.53,-1000.68C1228.12,-1015.04 1608.43,-1064.86 1681,-1158.75 1818.01,-1336.01 1479.02,-1554.76 1358.56,-1624.66"/>
<polygon fill="black" stroke="black" points="1357.17,-1621.43 1350.24,-1629.45 1360.66,-1627.49 1357.17,-1621.43"/>
<text text-anchor="start" x="1717" y="-1224" font-family="Courier New" font-weight="bold" font-size="10.00" fill="orange">WAIT(0,0)</text>
</g>
<!-- sitting&#45;&gt;100 -->
<g id="edge34" class="edge">
<title>sitting&#45;&gt;100</title>
<path fill="none" stroke="black" d="M1099.83,-993.29C1232.56,-990.09 1629.23,-978.92 1648,-959 1665.38,-940.56 1659.29,-910.63 1651.08,-888.7"/>
<polygon fill="black" stroke="black" points="1654.32,-887.37 1647.28,-879.46 1647.84,-890.04 1654.32,-887.37"/>
<text text-anchor="start" x="1663" y="-934.12" font-family="Courier New" font-weight="bold" font-size="10.00" fill="orange">WAIT(0,SIG_CLEAR)</text>
</g>
<!-- sitting&#45;&gt;20 -->
<g id="edge24" class="edge">
<title>sitting&#45;&gt;20</title>
<path fill="none" stroke="black" d="M1014.18,-992.43C939.64,-988.77 789.36,-979.11 741,-959 699.41,-941.7 681.47,-936.12 662,-895.5 612.98,-793.21 700.97,-661.63 743.69,-606.9"/>
<polygon fill="black" stroke="black" points="746.19,-609.39 749.67,-599.38 740.71,-605.03 746.19,-609.39"/>
<text text-anchor="start" x="666" y="-857.88" font-family="Courier New" font-weight="bold" font-size="10.00" fill="orange">WAIT(0,SIG_HAPPY)</text>
</g>
<!-- sitting&#45;&gt;21 -->
<g id="edge25" class="edge">
<title>sitting&#45;&gt;21</title>
<path fill="none" stroke="black" d="M1014.31,-993.96C896.1,-992.8 570.61,-987.07 532,-959 472.96,-916.07 485.17,-878.11 471,-806.5 460.94,-755.65 464.83,-601.5 466.96,-537.66"/>
<polygon fill="black" stroke="black" points="470.45,-538.12 467.3,-528 463.45,-537.87 470.45,-538.12"/>
<text text-anchor="start" x="475" y="-768.88" font-family="Courier New" font-weight="bold" font-size="10.00" fill="orange">WAIT(0,SIG_HURT)</text>
</g>
<!-- sitting&#45;&gt;22 -->
<g id="edge26" class="edge">
<title>sitting&#45;&gt;22</title>
<path fill="none" stroke="black" d="M1014.24,-992.39C934.6,-988.48 770.07,-978.17 753,-959 739.55,-943.9 745.04,-932.09 753,-913.5 755.92,-906.68 766.87,-895.74 778.24,-885.6"/>
<polygon fill="black" stroke="black" points="780.49,-888.28 785.75,-879.08 775.9,-882.99 780.49,-888.28"/>
<text text-anchor="start" x="757" y="-934.12" font-family="Courier New" font-weight="bold" font-size="10.00" fill="orange">WAIT(0,SIG_KISS)</text>
</g>
<!-- sitting&#45;&gt;23 -->
<g id="edge27" class="edge">
<title>sitting&#45;&gt;23</title>
<path fill="none" stroke="black" d="M1014.45,-994.59C896.68,-995.08 573.02,-993.29 541,-959 518.66,-935.09 567.34,-844.74 594.44,-798.95"/>
<polygon fill="black" stroke="black" points="597.42,-800.79 599.56,-790.41 591.42,-797.19 597.42,-800.79"/>
<text text-anchor="start" x="545" y="-934.12" font-family="Courier New" font-weight="bold" font-size="10.00" fill="orange">WAIT(0,SIG_MAD)</text>
</g>
<!-- sitting&#45;&gt;24 -->
<g id="edge28" class="edge">
<title>sitting&#45;&gt;24</title>
<path fill="none" stroke="black" d="M1080.44,-977.16C1131.64,-938.14 1252.26,-836.59 1294,-717.5 1306.31,-682.37 1316.29,-663.56 1294,-633.75 1289.7,-627.99 1204.85,-604.74 1153.88,-591.19"/>
<polygon fill="black" stroke="black" points="1154.97,-587.86 1144.41,-588.68 1153.18,-594.62 1154.97,-587.86"/>
<text text-anchor="start" x="1238" y="-857.88" font-family="Courier New" font-weight="bold" font-size="10.00" fill="orange">WAIT(0,SIG_SAD)</text>
</g>
<!-- sitting&#45;&gt;25 -->
<g id="edge29" class="edge">
<title>sitting&#45;&gt;25</title>
<path fill="none" stroke="black" d="M1060.63,-977.1C1066.73,-943.06 1074.8,-866.62 1035,-824.5 1005.18,-792.95 967,-839.67 939,-806.5 873.49,-728.9 905.81,-594.93 924.21,-537.24"/>
<polygon fill="black" stroke="black" points="927.49,-538.48 927.31,-527.89 920.84,-536.28 927.49,-538.48"/>
<text text-anchor="start" x="943" y="-768.88" font-family="Courier New" font-weight="bold" font-size="10.00" fill="orange">WAIT(0,SIG_SURPRISED)</text>
</g>
<!-- sitting&#45;&gt;26 -->
<g id="edge30" class="edge">
<title>sitting&#45;&gt;26</title>
<path fill="none" stroke="black" d="M1099.66,-993.52C1174.26,-991.58 1324.75,-984.52 1370,-959 1392.22,-946.46 1384.02,-928.02 1405,-913.5 1427.54,-897.89 1447.69,-917.53 1464,-895.5 1484.79,-867.42 1471.21,-825.94 1458.22,-798.94"/>
<polygon fill="black" stroke="black" points="1461.51,-797.68 1453.84,-790.37 1455.27,-800.86 1461.51,-797.68"/>
<text text-anchor="start" x="1409" y="-934.12" font-family="Courier New" font-weight="bold" font-size="10.00" fill="orange">WAIT(0,SIG_STRESS)</text>
</g>
<!-- sitting&#45;&gt;27 -->
<g id="edge31" class="edge">
<title>sitting&#45;&gt;27</title>
<path fill="none" stroke="black" d="M1099.63,-993.3C1163.04,-989.31 1280.45,-971.44 1334,-895.5 1356.84,-863.11 1348.2,-746.19 1315,-633.75 1312.42,-625 1308.37,-615.99 1304.18,-607.96"/>
<polygon fill="black" stroke="black" points="1307.35,-606.45 1299.45,-599.39 1301.22,-609.83 1307.35,-606.45"/>
<text text-anchor="start" x="1351" y="-857.88" font-family="Courier New" font-weight="bold" font-size="10.00" fill="orange">WAIT(0,SIG_WAVE)</text>
</g>
<!-- sitting&#45;&gt;30 -->
<g id="edge32" class="edge">
<title>sitting&#45;&gt;30</title>
<path fill="none" stroke="black" d="M1099.73,-994.02C1208.76,-993.02 1490.83,-987.65 1521,-959 1543.23,-937.9 1545.78,-847.6 1545.55,-800.64"/>
<polygon fill="black" stroke="black" points="1549.05,-800.64 1545.44,-790.68 1542.05,-800.72 1549.05,-800.64"/>
<text text-anchor="start" x="1541" y="-934.12" font-family="Courier New" font-weight="bold" font-size="10.00" fill="orange">WAIT(0,SIG_DEAD)</text>
</g>
<!-- sitting&#45;&gt;50 -->
<g id="edge33" class="edge">
<title>sitting&#45;&gt;50</title>
<path fill="none" stroke="black" d="M1014.28,-994.44C822.9,-995.08 52.18,-995.39 17,-959 -0.69,-940.7 5.57,-910.55 13.91,-888.51"/>
<polygon fill="black" stroke="black" points="17.04,-890.11 17.63,-879.54 10.57,-887.43 17.04,-890.11"/>
<polygon fill="none" stroke="black" points="20,-937.25 20,-956 458,-956 458,-937.25 20,-937.25"/>
<text text-anchor="start" x="191" y="-944.5" font-family="Courier New" font-weight="bold" font-size="10.00" fill="orange">WAIT(0,SIG_BOMB)</text>
<polygon fill="none" stroke="black" points="20,-916.5 20,-935.25 458,-935.25 458,-916.5 20,-916.5"/>
<text text-anchor="start" x="23" y="-922.75" font-family="Courier New" font-size="10.00" fill="blue"> &#160;&#160;&#160;&#160;WRITE(&quot;I am S_ID and I receive signals! This one is a SIG_BOMB! &quot;);</text>
<polygon fill="none" stroke="black" points="17,-913.5 17,-959 461,-959 461,-913.5 17,-913.5"/>
</g>
<!-- setId&#45;&gt;sitting -->
<g id="edge22" class="edge">
<title>setId&#45;&gt;sitting</title>
<path fill="none" stroke="black" d="M732.2,-1208C742.62,-1169.44 773.54,-1075.71 837,-1031.5 863.13,-1013.3 946.66,-1003.93 1002.94,-999.56"/>
<polygon fill="black" stroke="black" points="1002.93,-1003.07 1012.65,-998.84 1002.42,-996.09 1002.93,-1003.07"/>
<polygon fill="none" stroke="black" points="840,-1119 840,-1137.75 1056,-1137.75 1056,-1119 840,-1119"/>
<text text-anchor="start" x="885" y="-1126.25" font-family="Courier New" font-weight="bold" font-size="10.00" fill="blue">ASSIGN(WSPRITE,happy)</text>
<polygon fill="none" stroke="black" points="840,-1034.5 840,-1117 1056,-1117 1056,-1034.5 840,-1034.5"/>
<text text-anchor="start" x="843" y="-1104.5" font-family="Courier New" font-size="10.00" fill="blue"> &#160;&#160;&#160;MAP(WSPRITE,WPARM);</text>
<text text-anchor="start" x="843" y="-1091.75" font-family="Courier New" font-size="10.00" fill="blue"> &#160;&#160;&#160;ASSIGN(BFRAME,0);</text>
<text text-anchor="start" x="843" y="-1079" font-family="Courier New" font-size="10.00" fill="blue"> &#160;&#160;&#160;SHOW(WSPRITE);</text>
<text text-anchor="start" x="843" y="-1066.25" font-family="Courier New" font-size="10.00" fill="blue"> &#160;&#160;&#160;SIGNAL(SID_AURA, SIG_MYAURA);</text>
<text text-anchor="start" x="843" y="-1053.5" font-family="Courier New" font-size="10.00" fill="blue"> &#160;&#160;&#160;SIGNAL(SID_HALO, SIG_MYHALO);</text>
<text text-anchor="start" x="843" y="-1040.75" font-family="Courier New" font-size="10.00" fill="blue"> &#160;&#160;&#160;SIGNAL(SID_PERSIST,SIG_UPDATE);</text>
<polygon fill="none" stroke="black" points="837,-1031.5 837,-1140.75 1059,-1140.75 1059,-1031.5 837,-1031.5"/>
</g>
<!-- status -->
<g id="node23" class="node">
<title>status</title>
<polygon fill="none" stroke="black" points="1978,-1825 1978,-1904 2420,-1904 2420,-1825 1978,-1825"/>
<polygon fill="none" stroke="black" points="1989,-1878.25 1989,-1897 2409,-1897 2409,-1878.25 1989,-1878.25"/>
<text text-anchor="start" x="2181" y="-1885.5" font-family="Courier New" font-weight="bold" font-size="10.00">SID_ID</text>
<polygon fill="none" stroke="black" points="1989,-1832 1989,-1876.25 2409,-1876.25 2409,-1832 1989,-1832"/>
<text text-anchor="start" x="1992" y="-1863.75" font-family="Courier New" font-size="10.00" fill="green">VIEW::IDV_ID @pos(x:0, y:0, w:171, h:101)</text>
<text text-anchor="start" x="1992" y="-1851" font-family="Courier New" font-size="10.00" fill="green">SID_ID::M_ID(&#39;&#39;,&#39;&#39;,&#39;0&#39;,&#39;SID_AURA&#39;,&#39;&#39;,&#39;&#39;)</text>
<text text-anchor="start" x="1992" y="-1838.25" font-family="Courier New" font-size="10.00" fill="green">{state:&#39;dead&#39;: wParm:F3 wSprite:IDS_FID3EX bFrame:32 Top:0 Left:0 Z:0</text>
<polygon fill="none" stroke="black" points="1986,-1829 1986,-1900 2412,-1900 2412,-1829 1986,-1829"/>
</g>
</g>
</svg>
