<?xml version="1.0" encoding="UTF-8" standalone="no"?>
<!DOCTYPE svg PUBLIC "-//W3C//DTD SVG 1.1//EN"
 "http://www.w3.org/Graphics/SVG/1.1/DTD/svg11.dtd">
<!-- Generated by graphviz version 10.0.1 (20240210.2158)
 -->
<!-- Title: Automaton Pages: 1 -->
<svg width="2105pt" height="1579pt"
 viewBox="0.00 0.00 2105.00 1579.25" xmlns="http://www.w3.org/2000/svg" xmlns:xlink="http://www.w3.org/1999/xlink">
<g id="graph0" class="graph" transform="scale(1 1) rotate(0) translate(4 1575.25)">
<title>Automaton</title>
<polygon fill="white" stroke="none" points="-4,4 -4,-1575.25 2101,-1575.25 2101,4 -4,4"/>
<!-- filename -->
<g id="node1" class="node">
<title>filename</title>
<polygon fill="none" stroke="black" points="770,-1504.5 770,-1558 888,-1558 888,-1504.5 770,-1504.5"/>
<polygon fill="none" stroke="black" points="781,-1532.25 781,-1551 877,-1551 877,-1532.25 781,-1532.25"/>
<text text-anchor="start" x="793" y="-1539.5" font-family="Courier New" font-weight="bold" font-size="10.00">SID_ID::M_ID</text>
<polygon fill="none" stroke="black" points="781,-1511.5 781,-1530.25 877,-1530.25 877,-1511.5 781,-1511.5"/>
<text text-anchor="start" x="784" y="-1517.75" font-family="Courier New" font-size="10.00" fill="brown">start state = 0</text>
<polygon fill="none" stroke="black" points="778,-1508.5 778,-1554 880,-1554 880,-1508.5 778,-1508.5"/>
</g>
<!-- 0 -->
<g id="node2" class="node">
<title>0</title>
<polyline fill="none" stroke="darkred" stroke-width="3" points="925.38,-1519.5 940.62,-1519.5"/>
<text text-anchor="start" x="928.88" y="-1527.2" font-family="Courier New" font-weight="bold" font-size="14.00">0</text>
<path fill="none" stroke="darkred" stroke-width="3" d="M928.79,-1514.5C928.79,-1514.5 937.21,-1514.5 937.21,-1514.5 941.42,-1514.5 945.62,-1518.71 945.62,-1522.92 945.62,-1522.92 945.62,-1539.58 945.62,-1539.58 945.62,-1543.79 941.42,-1548 937.21,-1548 937.21,-1548 928.79,-1548 928.79,-1548 924.58,-1548 920.38,-1543.79 920.38,-1539.58 920.38,-1539.58 920.38,-1522.92 920.38,-1522.92 920.38,-1518.71 924.58,-1514.5 928.79,-1514.5"/>
</g>
<!-- present -->
<g id="node3" class="node">
<title>present</title>
<polyline fill="none" stroke="darkred" points="901.12,-1303.75 964.88,-1303.75"/>
<text text-anchor="start" x="904.12" y="-1310.95" font-family="Courier New" font-weight="bold" font-size="14.00">present</text>
<path fill="none" stroke="darkred" d="M907.62,-1300.75C907.62,-1300.75 958.38,-1300.75 958.38,-1300.75 963.12,-1300.75 967.88,-1305.5 967.88,-1310.25 967.88,-1310.25 967.88,-1319.75 967.88,-1319.75 967.88,-1324.5 963.12,-1329.25 958.38,-1329.25 958.38,-1329.25 907.62,-1329.25 907.62,-1329.25 902.88,-1329.25 898.12,-1324.5 898.12,-1319.75 898.12,-1319.75 898.12,-1310.25 898.12,-1310.25 898.12,-1305.5 902.88,-1300.75 907.62,-1300.75"/>
</g>
<!-- 0&#45;&gt;present -->
<g id="edge1" class="edge">
<title>0&#45;&gt;present</title>
<path fill="none" stroke="black" d="M933,-1509.32C933,-1470.71 933,-1388.25 933,-1344.55"/>
<polygon fill="black" stroke="black" points="936.5,-1344.59 933,-1334.59 929.5,-1344.59 936.5,-1344.59"/>
<polygon fill="none" stroke="black" points="936,-1451.5 936,-1470.25 1530,-1470.25 1530,-1451.5 936,-1451.5"/>
<text text-anchor="start" x="1185" y="-1458.75" font-family="Courier New" font-weight="bold" font-size="10.00" fill="orange">WAIT(0,SIG_MYID)</text>
<polygon fill="none" stroke="black" points="936,-1354.25 936,-1449.5 1530,-1449.5 1530,-1354.25 936,-1354.25"/>
<text text-anchor="start" x="939" y="-1437" font-family="Courier New" font-size="10.00" fill="blue"> &#160;&#160;&#160;&#160;CLEAR(WSPRITE);</text>
<text text-anchor="start" x="939" y="-1424.25" font-family="Courier New" font-size="10.00" fill="blue"> &#160;&#160;&#160;&#160;SHOW(0);</text>
<text text-anchor="start" x="939" y="-1411.5" font-family="Courier New" font-size="10.00" fill="blue"> &#160;&#160;&#160;&#160;predicate active_character(name);</text>
<text text-anchor="start" x="939" y="-1398.75" font-family="Courier New" font-size="10.00" fill="blue"> &#160;&#160;&#160;&#160;active_character(?WPARM)?</text>
<text text-anchor="start" x="939" y="-1386" font-family="Courier New" font-size="10.00" fill="blue"> &#160;&#160;&#160;&#160;predicate localplayer(name,viewname, wealth,karma, energy,strength, wisdom, gender, culture);</text>
<text text-anchor="start" x="939" y="-1373.25" font-family="Courier New" font-size="10.00" fill="blue"> &#160;&#160;&#160;&#160;localplayer(WPARM, ?WTEMP1, ?LWEALTH, ?LKARMA,?WTEMP3,?LSTRENGTH, ?LWISDOM, ?LSEX, ?WTEMP2)?</text>
<text text-anchor="start" x="939" y="-1360.5" font-family="Courier New" font-size="10.00" fill="blue"> &#160;&#160;&#160;&#160;ASSIGN(LENERGY,WTEMP3);</text>
<polygon fill="none" stroke="black" points="933,-1351.25 933,-1473.25 1533,-1473.25 1533,-1351.25 933,-1351.25"/>
</g>
<!-- setId -->
<g id="node21" class="node">
<title>setId</title>
<polyline fill="none" stroke="darkred" points="564.38,-881.62 611.62,-881.62"/>
<text text-anchor="start" x="567.38" y="-888.83" font-family="Courier New" font-weight="bold" font-size="14.00">setId</text>
<path fill="none" stroke="darkred" d="M570.88,-878.62C570.88,-878.62 605.12,-878.62 605.12,-878.62 609.88,-878.62 614.62,-883.38 614.62,-888.12 614.62,-888.12 614.62,-897.62 614.62,-897.62 614.62,-902.38 609.88,-907.12 605.12,-907.12 605.12,-907.12 570.88,-907.12 570.88,-907.12 566.12,-907.12 561.38,-902.38 561.38,-897.62 561.38,-897.62 561.38,-888.12 561.38,-888.12 561.38,-883.38 566.12,-878.62 570.88,-878.62"/>
</g>
<!-- present&#45;&gt;setId -->
<g id="edge18" class="edge">
<title>present&#45;&gt;setId</title>
<path fill="none" stroke="black" d="M890.38,-1313.89C783.09,-1313.18 508.46,-1308.43 481,-1278.75 390.31,-1180.71 422.72,-1098.42 481,-978.25 494.1,-951.24 520.49,-930.28 543.79,-916.01"/>
<polygon fill="black" stroke="black" points="545.37,-919.14 552.23,-911.06 541.83,-913.1 545.37,-919.14"/>
<polygon fill="none" stroke="black" points="484,-1257 484,-1275.75 916,-1275.75 916,-1257 484,-1257"/>
<text text-anchor="start" x="664" y="-1264.25" font-family="Courier New" font-weight="bold" font-size="10.00" fill="blue">Z_EPSILON(,)</text>
<polygon fill="none" stroke="black" points="484,-981.25 484,-1255 916,-1255 916,-981.25 484,-981.25"/>
<text text-anchor="start" x="487" y="-1242.5" font-family="Courier New" font-size="10.00" fill="blue"> &#160;&#160;&#160;&#160;&#160;&#160;</text>
<text text-anchor="start" x="487" y="-1229.75" font-family="Courier New" font-size="10.00" fill="blue"> &#160;//for back to back {statements} do not use semi&#45;colons between them, </text>
<text text-anchor="start" x="487" y="-1217" font-family="Courier New" font-size="10.00" fill="blue"> &#160;//only at the end of the code segment!</text>
<text text-anchor="start" x="487" y="-1204.25" font-family="Courier New" font-size="10.00" fill="blue"> &#160;if(LSEX == 1){</text>
<text text-anchor="start" x="487" y="-1191.5" font-family="Courier New" font-size="10.00" fill="blue"> &#160;&#160;&#160;WPARM = F1;</text>
<text text-anchor="start" x="487" y="-1178.75" font-family="Courier New" font-size="10.00" fill="blue"> &#160;&#160;&#160;&#160;if(LWISDOM &gt;= 30){</text>
<text text-anchor="start" x="487" y="-1166" font-family="Courier New" font-size="10.00" fill="blue"> &#160;&#160;&#160;&#160;&#160;&#160;WPARM = F3;</text>
<text text-anchor="start" x="487" y="-1153.25" font-family="Courier New" font-size="10.00" fill="blue"> &#160;&#160;&#160;}</text>
<text text-anchor="start" x="487" y="-1140.5" font-family="Courier New" font-size="10.00" fill="blue"> &#160;&#160;&#160;&#160;if(LWISDOM &gt;= 20 &amp;&amp; LWISDOM &lt; 30){</text>
<text text-anchor="start" x="487" y="-1127.75" font-family="Courier New" font-size="10.00" fill="blue"> &#160;&#160;&#160;&#160;&#160;&#160;WPARM = F2;</text>
<text text-anchor="start" x="487" y="-1115" font-family="Courier New" font-size="10.00" fill="blue"> &#160;&#160;&#160;}</text>
<text text-anchor="start" x="487" y="-1102.25" font-family="Courier New" font-size="10.00" fill="blue"> &#160;}</text>
<text text-anchor="start" x="487" y="-1089.5" font-family="Courier New" font-size="10.00" fill="blue"> &#160;if(LSEX == 0){</text>
<text text-anchor="start" x="487" y="-1076.75" font-family="Courier New" font-size="10.00" fill="blue"> &#160;&#160;&#160;WPARM = M1;</text>
<text text-anchor="start" x="487" y="-1064" font-family="Courier New" font-size="10.00" fill="blue"> &#160;&#160;&#160;&#160;&#160;if(LWISDOM &gt;= 30){</text>
<text text-anchor="start" x="487" y="-1051.25" font-family="Courier New" font-size="10.00" fill="blue"> &#160;&#160;&#160;&#160;&#160;&#160;WPARM = M3;</text>
<text text-anchor="start" x="487" y="-1038.5" font-family="Courier New" font-size="10.00" fill="blue"> &#160;&#160;&#160;}</text>
<text text-anchor="start" x="487" y="-1025.75" font-family="Courier New" font-size="10.00" fill="blue"> &#160;&#160;&#160;if(LWISDOM &gt;= 20 &amp;&amp; LWISDOM &lt; 30){</text>
<text text-anchor="start" x="487" y="-1013" font-family="Courier New" font-size="10.00" fill="blue"> &#160;&#160;&#160;&#160;&#160;&#160;&#160;WPARM = M2;</text>
<text text-anchor="start" x="487" y="-1000.25" font-family="Courier New" font-size="10.00" fill="blue"> &#160;&#160;&#160;}</text>
<text text-anchor="start" x="487" y="-987.5" font-family="Courier New" font-size="10.00" fill="blue"> &#160;}; </text>
<polygon fill="none" stroke="black" points="481,-978.25 481,-1278.75 919,-1278.75 919,-978.25 481,-978.25"/>
</g>
<!-- 100 -->
<g id="node4" class="node">
<title>100</title>
<polyline fill="none" stroke="darkred" points="153.62,-470.88 184.38,-470.88"/>
<text text-anchor="start" x="156.62" y="-478.07" font-family="Courier New" font-weight="bold" font-size="14.00">100</text>
<path fill="none" stroke="darkred" d="M160.12,-467.88C160.12,-467.88 177.88,-467.88 177.88,-467.88 182.62,-467.88 187.38,-472.62 187.38,-477.38 187.38,-477.38 187.38,-486.88 187.38,-486.88 187.38,-491.62 182.62,-496.38 177.88,-496.38 177.88,-496.38 160.12,-496.38 160.12,-496.38 155.38,-496.38 150.62,-491.62 150.62,-486.88 150.62,-486.88 150.62,-477.38 150.62,-477.38 150.62,-472.62 155.38,-467.88 160.12,-467.88"/>
</g>
<!-- empty -->
<g id="node5" class="node">
<title>empty</title>
<polyline fill="none" stroke="darkred" points="335.38,-261 382.62,-261"/>
<text text-anchor="start" x="338.38" y="-268.2" font-family="Courier New" font-weight="bold" font-size="14.00">empty</text>
<path fill="none" stroke="darkred" d="M341.88,-258C341.88,-258 376.12,-258 376.12,-258 380.88,-258 385.62,-262.75 385.62,-267.5 385.62,-267.5 385.62,-277 385.62,-277 385.62,-281.75 380.88,-286.5 376.12,-286.5 376.12,-286.5 341.88,-286.5 341.88,-286.5 337.12,-286.5 332.38,-281.75 332.38,-277 332.38,-277 332.38,-267.5 332.38,-267.5 332.38,-262.75 337.12,-258 341.88,-258"/>
</g>
<!-- 100&#45;&gt;empty -->
<g id="edge2" class="edge">
<title>100&#45;&gt;empty</title>
<path fill="none" stroke="black" d="M160.05,-463.88C144.99,-432.22 119.47,-364.49 154,-325.75 177.22,-299.7 277.39,-320.18 310,-307.75 316.89,-305.12 323.72,-301.31 330,-297.16"/>
<polygon fill="black" stroke="black" points="331.99,-300.04 338.1,-291.38 327.93,-294.34 331.99,-300.04"/>
<polygon fill="none" stroke="black" points="157,-362.25 157,-381 325,-381 325,-362.25 157,-362.25"/>
<text text-anchor="start" x="205" y="-369.5" font-family="Courier New" font-weight="bold" font-size="10.00" fill="blue">Z_EPSILON(,)</text>
<polygon fill="none" stroke="black" points="157,-328.75 157,-360.25 325,-360.25 325,-328.75 157,-328.75"/>
<text text-anchor="start" x="160" y="-347.75" font-family="Courier New" font-size="10.00" fill="blue"> &#160;&#160;&#160;SHOW(0);</text>
<text text-anchor="start" x="160" y="-335" font-family="Courier New" font-size="10.00" fill="blue"> &#160;&#160;&#160;SIGNAL(WIP4,SIG_CLEAR);</text>
<polygon fill="none" stroke="black" points="154,-325.75 154,-384 328,-384 328,-325.75 154,-325.75"/>
</g>
<!-- sitting -->
<g id="node20" class="node">
<title>sitting</title>
<polyline fill="none" stroke="darkred" points="901.12,-650.75 964.88,-650.75"/>
<text text-anchor="start" x="904.12" y="-657.95" font-family="Courier New" font-weight="bold" font-size="14.00">sitting</text>
<path fill="none" stroke="darkred" d="M907.62,-647.75C907.62,-647.75 958.38,-647.75 958.38,-647.75 963.12,-647.75 967.88,-652.5 967.88,-657.25 967.88,-657.25 967.88,-666.75 967.88,-666.75 967.88,-671.5 963.12,-676.25 958.38,-676.25 958.38,-676.25 907.62,-676.25 907.62,-676.25 902.88,-676.25 898.12,-671.5 898.12,-666.75 898.12,-666.75 898.12,-657.25 898.12,-657.25 898.12,-652.5 902.88,-647.75 907.62,-647.75"/>
</g>
<!-- empty&#45;&gt;sitting -->
<g id="edge14" class="edge">
<title>empty&#45;&gt;sitting</title>
<path fill="none" stroke="black" d="M354.51,-290.25C343.04,-337.64 317.28,-473.57 373,-562.25 404.48,-612.35 433.28,-608.93 490,-625.75 561.49,-646.95 777.59,-656.23 879.16,-659.51"/>
<polygon fill="black" stroke="black" points="878.76,-663 888.87,-659.81 878.98,-656 878.76,-663"/>
<text text-anchor="start" x="377" y="-480" font-family="Courier New" font-weight="bold" font-size="10.00" fill="orange">WAIT(,SIG_SHOW)</text>
</g>
<!-- 20 -->
<g id="node6" class="node">
<title>20</title>
<polyline fill="none" stroke="darkred" points="714.75,-343.62 737.25,-343.62"/>
<text text-anchor="start" x="717.75" y="-350.82" font-family="Courier New" font-weight="bold" font-size="14.00">20</text>
<path fill="none" stroke="darkred" d="M721.25,-340.62C721.25,-340.62 730.75,-340.62 730.75,-340.62 735.5,-340.62 740.25,-345.38 740.25,-350.12 740.25,-350.12 740.25,-359.62 740.25,-359.62 740.25,-364.38 735.5,-369.12 730.75,-369.12 730.75,-369.12 721.25,-369.12 721.25,-369.12 716.5,-369.12 711.75,-364.38 711.75,-359.62 711.75,-359.62 711.75,-350.12 711.75,-350.12 711.75,-345.38 716.5,-340.62 721.25,-340.62"/>
</g>
<!-- playForward -->
<g id="node7" class="node">
<title>playForward</title>
<polyline fill="none" stroke="darkred" points="1191.62,-7 1288.38,-7"/>
<text text-anchor="start" x="1194.62" y="-14.2" font-family="Courier New" font-weight="bold" font-size="14.00">playForward</text>
<path fill="none" stroke="darkred" d="M1198.12,-4C1198.12,-4 1281.88,-4 1281.88,-4 1286.62,-4 1291.38,-8.75 1291.38,-13.5 1291.38,-13.5 1291.38,-23 1291.38,-23 1291.38,-27.75 1286.62,-32.5 1281.88,-32.5 1281.88,-32.5 1198.12,-32.5 1198.12,-32.5 1193.38,-32.5 1188.62,-27.75 1188.62,-23 1188.62,-23 1188.62,-13.5 1188.62,-13.5 1188.62,-8.75 1193.38,-4 1198.12,-4"/>
</g>
<!-- 20&#45;&gt;playForward -->
<g id="edge3" class="edge">
<title>20&#45;&gt;playForward</title>
<path fill="none" stroke="black" d="M725.09,-336.77C723.99,-297.61 727.02,-200.79 779,-147.75 833.45,-92.19 1054.92,-49.15 1169.92,-30.05"/>
<polygon fill="black" stroke="black" points="1170.25,-33.54 1179.55,-28.47 1169.12,-26.64 1170.25,-33.54"/>
<text text-anchor="start" x="783" y="-181.12" font-family="Courier New" font-weight="bold" font-size="10.00" fill="blue">ASSIGN(WSPRITE,happy)</text>
</g>
<!-- playForward&#45;&gt;sitting -->
<g id="edge16" class="edge">
<title>playForward&#45;&gt;sitting</title>
<path fill="none" stroke="black" d="M1181.03,-20.46C934.6,-25.91 0,-50.53 0,-110.5 0,-483.12 0,-483.12 0,-483.12 0,-585.89 85.67,-589.95 182,-625.75 246.74,-649.81 717.85,-658.18 879.07,-660.36"/>
<polygon fill="black" stroke="black" points="878.57,-663.85 888.61,-660.49 878.66,-656.85 878.57,-663.85"/>
<polygon fill="none" stroke="black" points="3,-286 3,-304.75 303,-304.75 303,-286 3,-286"/>
<text text-anchor="start" x="105" y="-293.25" font-family="Courier New" font-weight="bold" font-size="10.00" fill="blue">ASSIGN(BFRAME,0)</text>
<polygon fill="none" stroke="black" points="3,-239.75 3,-284 303,-284 303,-239.75 3,-239.75"/>
<text text-anchor="start" x="6" y="-271.5" font-family="Courier New" font-size="10.00" fill="blue"> &#160;&#160;&#160;MAP(WSPRITE,WPARM);</text>
<text text-anchor="start" x="6" y="-258.75" font-family="Courier New" font-size="10.00" fill="blue"> &#160;&#160;&#160;SHOW(WSPRITE);</text>
<text text-anchor="start" x="6" y="-246" font-family="Courier New" font-size="10.00" fill="blue"> &#160;&#160;&#160;ANIMATE(0,V_REWIND); //PLAY FORWARD THEN BACK</text>
<polygon fill="none" stroke="black" points="0,-236.75 0,-307.75 306,-307.75 306,-236.75 0,-236.75"/>
</g>
<!-- 21 -->
<g id="node8" class="node">
<title>21</title>
<polyline fill="none" stroke="darkred" points="1312.75,-100.25 1335.25,-100.25"/>
<text text-anchor="start" x="1315.75" y="-107.45" font-family="Courier New" font-weight="bold" font-size="14.00">21</text>
<path fill="none" stroke="darkred" d="M1319.25,-97.25C1319.25,-97.25 1328.75,-97.25 1328.75,-97.25 1333.5,-97.25 1338.25,-102 1338.25,-106.75 1338.25,-106.75 1338.25,-116.25 1338.25,-116.25 1338.25,-121 1333.5,-125.75 1328.75,-125.75 1328.75,-125.75 1319.25,-125.75 1319.25,-125.75 1314.5,-125.75 1309.75,-121 1309.75,-116.25 1309.75,-116.25 1309.75,-106.75 1309.75,-106.75 1309.75,-102 1314.5,-97.25 1319.25,-97.25"/>
</g>
<!-- 21&#45;&gt;playForward -->
<g id="edge4" class="edge">
<title>21&#45;&gt;playForward</title>
<path fill="none" stroke="black" d="M1308.2,-93.34C1295.53,-79.57 1277.56,-60.05 1263.25,-44.5"/>
<polygon fill="black" stroke="black" points="1266.1,-42.44 1256.75,-37.45 1260.95,-47.18 1266.1,-42.44"/>
<text text-anchor="start" x="1294" y="-62.75" font-family="Courier New" font-weight="bold" font-size="10.00" fill="blue">ASSIGN(WSPRITE,hurt)</text>
</g>
<!-- 22 -->
<g id="node9" class="node">
<title>22</title>
<polyline fill="none" stroke="darkred" points="659.75,-470.88 682.25,-470.88"/>
<text text-anchor="start" x="662.75" y="-478.07" font-family="Courier New" font-weight="bold" font-size="14.00">22</text>
<path fill="none" stroke="darkred" d="M666.25,-467.88C666.25,-467.88 675.75,-467.88 675.75,-467.88 680.5,-467.88 685.25,-472.62 685.25,-477.38 685.25,-477.38 685.25,-486.88 685.25,-486.88 685.25,-491.62 680.5,-496.38 675.75,-496.38 675.75,-496.38 666.25,-496.38 666.25,-496.38 661.5,-496.38 656.75,-491.62 656.75,-486.88 656.75,-486.88 656.75,-477.38 656.75,-477.38 656.75,-472.62 661.5,-467.88 666.25,-467.88"/>
</g>
<!-- playOnce -->
<g id="node10" class="node">
<title>playOnce</title>
<polyline fill="none" stroke="darkred" points="485,-261 557,-261"/>
<text text-anchor="start" x="488" y="-268.2" font-family="Courier New" font-weight="bold" font-size="14.00">playOnce</text>
<path fill="none" stroke="darkred" d="M491.5,-258C491.5,-258 550.5,-258 550.5,-258 555.25,-258 560,-262.75 560,-267.5 560,-267.5 560,-277 560,-277 560,-281.75 555.25,-286.5 550.5,-286.5 550.5,-286.5 491.5,-286.5 491.5,-286.5 486.75,-286.5 482,-281.75 482,-277 482,-277 482,-267.5 482,-267.5 482,-262.75 486.75,-258 491.5,-258"/>
</g>
<!-- 22&#45;&gt;playOnce -->
<g id="edge5" class="edge">
<title>22&#45;&gt;playOnce</title>
<path fill="none" stroke="black" d="M666.59,-463.96C661.06,-445.88 649.8,-417.87 630,-402 605.61,-382.45 585.14,-405.02 562,-384 538.53,-362.67 528.45,-326.68 524.15,-301.54"/>
<polygon fill="black" stroke="black" points="527.62,-301.05 522.69,-291.67 520.69,-302.08 527.62,-301.05"/>
<text text-anchor="start" x="566" y="-352.75" font-family="Courier New" font-weight="bold" font-size="10.00" fill="blue">ASSIGN(WSPRITE,kiss)</text>
</g>
<!-- playOnce&#45;&gt;sitting -->
<g id="edge17" class="edge">
<title>playOnce&#45;&gt;sitting</title>
<path fill="none" stroke="black" d="M514.57,-290.42C505.83,-314.81 490.61,-361.07 485,-402 470.96,-504.35 454.54,-581.72 548,-625.75 605.28,-652.74 787.26,-659.09 879.01,-660.57"/>
<polygon fill="black" stroke="black" points="878.71,-664.06 888.76,-660.71 878.81,-657.06 878.71,-664.06"/>
<polygon fill="none" stroke="black" points="488,-495.88 488,-514.62 632,-514.62 632,-495.88 488,-495.88"/>
<text text-anchor="start" x="512" y="-503.12" font-family="Courier New" font-weight="bold" font-size="10.00" fill="blue">ASSIGN(BFRAME,0)</text>
<polygon fill="none" stroke="black" points="488,-449.62 488,-493.88 632,-493.88 632,-449.62 488,-449.62"/>
<text text-anchor="start" x="491" y="-481.38" font-family="Courier New" font-size="10.00" fill="blue"> &#160;&#160;&#160;MAP(WSPRITE,WPARM);</text>
<text text-anchor="start" x="491" y="-468.62" font-family="Courier New" font-size="10.00" fill="blue"> &#160;&#160;&#160;SHOW(0,WSPRITE);</text>
<text text-anchor="start" x="491" y="-455.88" font-family="Courier New" font-size="10.00" fill="blue"> &#160;&#160;&#160;ANIMATE(0,0);</text>
<polygon fill="none" stroke="black" points="485,-446.62 485,-517.62 635,-517.62 635,-446.62 485,-446.62"/>
</g>
<!-- 23 -->
<g id="node11" class="node">
<title>23</title>
<polyline fill="none" stroke="darkred" points="773.75,-343.62 796.25,-343.62"/>
<text text-anchor="start" x="776.75" y="-350.82" font-family="Courier New" font-weight="bold" font-size="14.00">23</text>
<path fill="none" stroke="darkred" d="M780.25,-340.62C780.25,-340.62 789.75,-340.62 789.75,-340.62 794.5,-340.62 799.25,-345.38 799.25,-350.12 799.25,-350.12 799.25,-359.62 799.25,-359.62 799.25,-364.38 794.5,-369.12 789.75,-369.12 789.75,-369.12 780.25,-369.12 780.25,-369.12 775.5,-369.12 770.75,-364.38 770.75,-359.62 770.75,-359.62 770.75,-350.12 770.75,-350.12 770.75,-345.38 775.5,-340.62 780.25,-340.62"/>
</g>
<!-- 23&#45;&gt;playForward -->
<g id="edge6" class="edge">
<title>23&#45;&gt;playForward</title>
<path fill="none" stroke="black" d="M799.75,-336.74C832.7,-299.17 915.95,-208.08 999,-147.75 1060.42,-103.13 1139.29,-64.06 1189.75,-41.05"/>
<polygon fill="black" stroke="black" points="1191.01,-44.32 1198.69,-37.01 1188.13,-37.94 1191.01,-44.32"/>
<text text-anchor="start" x="1003" y="-181.12" font-family="Courier New" font-weight="bold" font-size="10.00" fill="blue">ASSIGN(WSPRITE,mad)</text>
</g>
<!-- 24 -->
<g id="node12" class="node">
<title>24</title>
<polyline fill="none" stroke="darkred" points="1145.75,-172 1168.25,-172"/>
<text text-anchor="start" x="1148.75" y="-179.2" font-family="Courier New" font-weight="bold" font-size="14.00">24</text>
<path fill="none" stroke="darkred" d="M1152.25,-169C1152.25,-169 1161.75,-169 1161.75,-169 1166.5,-169 1171.25,-173.75 1171.25,-178.5 1171.25,-178.5 1171.25,-188 1171.25,-188 1171.25,-192.75 1166.5,-197.5 1161.75,-197.5 1161.75,-197.5 1152.25,-197.5 1152.25,-197.5 1147.5,-197.5 1142.75,-192.75 1142.75,-188 1142.75,-188 1142.75,-178.5 1142.75,-178.5 1142.75,-173.75 1147.5,-169 1152.25,-169"/>
</g>
<!-- 24&#45;&gt;playForward -->
<g id="edge7" class="edge">
<title>24&#45;&gt;playForward</title>
<path fill="none" stroke="black" d="M1155.44,-165.28C1154.45,-146.68 1155.01,-116.4 1166,-93.25 1175.25,-73.77 1191.83,-56.44 1206.95,-43.46"/>
<polygon fill="black" stroke="black" points="1208.95,-46.35 1214.46,-37.3 1204.51,-40.94 1208.95,-46.35"/>
<text text-anchor="start" x="1170" y="-109.38" font-family="Courier New" font-weight="bold" font-size="10.00" fill="blue">ASSIGN(WSPRITE,sad)</text>
</g>
<!-- 25 -->
<g id="node13" class="node">
<title>25</title>
<polyline fill="none" stroke="darkred" points="1643.75,-343.62 1666.25,-343.62"/>
<text text-anchor="start" x="1646.75" y="-350.82" font-family="Courier New" font-weight="bold" font-size="14.00">25</text>
<path fill="none" stroke="darkred" d="M1650.25,-340.62C1650.25,-340.62 1659.75,-340.62 1659.75,-340.62 1664.5,-340.62 1669.25,-345.38 1669.25,-350.12 1669.25,-350.12 1669.25,-359.62 1669.25,-359.62 1669.25,-364.38 1664.5,-369.12 1659.75,-369.12 1659.75,-369.12 1650.25,-369.12 1650.25,-369.12 1645.5,-369.12 1640.75,-364.38 1640.75,-359.62 1640.75,-359.62 1640.75,-350.12 1640.75,-350.12 1640.75,-345.38 1645.5,-340.62 1650.25,-340.62"/>
</g>
<!-- 25&#45;&gt;playForward -->
<g id="edge8" class="edge">
<title>25&#45;&gt;playForward</title>
<path fill="none" stroke="black" d="M1651.97,-336.77C1643.56,-290.07 1619.81,-162.8 1608,-147.75 1536.43,-56.5 1395.77,-29.84 1310.59,-22.18"/>
<polygon fill="black" stroke="black" points="1310.97,-18.7 1300.72,-21.36 1310.4,-25.67 1310.97,-18.7"/>
<text text-anchor="start" x="1632" y="-181.12" font-family="Courier New" font-weight="bold" font-size="10.00" fill="blue">ASSIGN(WSPRITE,surprised)</text>
</g>
<!-- 26 -->
<g id="node14" class="node">
<title>26</title>
<polyline fill="none" stroke="darkred" points="1814.75,-172 1837.25,-172"/>
<text text-anchor="start" x="1817.75" y="-179.2" font-family="Courier New" font-weight="bold" font-size="14.00">26</text>
<path fill="none" stroke="darkred" d="M1821.25,-169C1821.25,-169 1830.75,-169 1830.75,-169 1835.5,-169 1840.25,-173.75 1840.25,-178.5 1840.25,-178.5 1840.25,-188 1840.25,-188 1840.25,-192.75 1835.5,-197.5 1830.75,-197.5 1830.75,-197.5 1821.25,-197.5 1821.25,-197.5 1816.5,-197.5 1811.75,-192.75 1811.75,-188 1811.75,-188 1811.75,-178.5 1811.75,-178.5 1811.75,-173.75 1816.5,-169 1821.25,-169"/>
</g>
<!-- 26&#45;&gt;playForward -->
<g id="edge9" class="edge">
<title>26&#45;&gt;playForward</title>
<path fill="none" stroke="black" d="M1810.87,-165.22C1805.24,-159.35 1798.61,-152.95 1792,-147.75 1779.78,-138.14 1775.22,-137.93 1762,-129.75 1709.1,-97.02 1702.9,-74.5 1644,-54.5 1584.12,-34.17 1409.35,-25.01 1310.41,-21.36"/>
<polygon fill="black" stroke="black" points="1310.66,-17.87 1300.54,-21.01 1310.41,-24.86 1310.66,-17.87"/>
<text text-anchor="start" x="1766" y="-109.38" font-family="Courier New" font-weight="bold" font-size="10.00" fill="blue">ASSIGN(WSPRITE,stress)</text>
</g>
<!-- 27 -->
<g id="node15" class="node">
<title>27</title>
<polyline fill="none" stroke="darkred" points="1926.75,-100.25 1949.25,-100.25"/>
<text text-anchor="start" x="1929.75" y="-107.45" font-family="Courier New" font-weight="bold" font-size="14.00">27</text>
<path fill="none" stroke="darkred" d="M1933.25,-97.25C1933.25,-97.25 1942.75,-97.25 1942.75,-97.25 1947.5,-97.25 1952.25,-102 1952.25,-106.75 1952.25,-106.75 1952.25,-116.25 1952.25,-116.25 1952.25,-121 1947.5,-125.75 1942.75,-125.75 1942.75,-125.75 1933.25,-125.75 1933.25,-125.75 1928.5,-125.75 1923.75,-121 1923.75,-116.25 1923.75,-116.25 1923.75,-106.75 1923.75,-106.75 1923.75,-102 1928.5,-97.25 1933.25,-97.25"/>
</g>
<!-- 27&#45;&gt;playForward -->
<g id="edge10" class="edge">
<title>27&#45;&gt;playForward</title>
<path fill="none" stroke="black" d="M1911.01,-100.9C1873.43,-87.98 1802.99,-65.37 1741,-54.5 1589.15,-27.87 1408.06,-21.21 1310.57,-19.64"/>
<polygon fill="black" stroke="black" points="1310.66,-16.14 1300.61,-19.49 1310.56,-23.14 1310.66,-16.14"/>
<text text-anchor="start" x="1832" y="-62.75" font-family="Courier New" font-weight="bold" font-size="10.00" fill="blue">ASSIGN(WSPRITE,wave)</text>
</g>
<!-- 30 -->
<g id="node16" class="node">
<title>30</title>
<polyline fill="none" stroke="darkred" points="1082.75,-470.88 1105.25,-470.88"/>
<text text-anchor="start" x="1085.75" y="-478.07" font-family="Courier New" font-weight="bold" font-size="14.00">30</text>
<path fill="none" stroke="darkred" d="M1089.25,-467.88C1089.25,-467.88 1098.75,-467.88 1098.75,-467.88 1103.5,-467.88 1108.25,-472.62 1108.25,-477.38 1108.25,-477.38 1108.25,-486.88 1108.25,-486.88 1108.25,-491.62 1103.5,-496.38 1098.75,-496.38 1098.75,-496.38 1089.25,-496.38 1089.25,-496.38 1084.5,-496.38 1079.75,-491.62 1079.75,-486.88 1079.75,-486.88 1079.75,-477.38 1079.75,-477.38 1079.75,-472.62 1084.5,-467.88 1089.25,-467.88"/>
</g>
<!-- playDead -->
<g id="node17" class="node">
<title>playDead</title>
<polyline fill="none" stroke="darkred" points="961,-261 1033,-261"/>
<text text-anchor="start" x="964" y="-268.2" font-family="Courier New" font-weight="bold" font-size="14.00">playDead</text>
<path fill="none" stroke="darkred" d="M967.5,-258C967.5,-258 1026.5,-258 1026.5,-258 1031.25,-258 1036,-262.75 1036,-267.5 1036,-267.5 1036,-277 1036,-277 1036,-281.75 1031.25,-286.5 1026.5,-286.5 1026.5,-286.5 967.5,-286.5 967.5,-286.5 962.75,-286.5 958,-281.75 958,-277 958,-277 958,-267.5 958,-267.5 958,-262.75 962.75,-258 967.5,-258"/>
</g>
<!-- 30&#45;&gt;playDead -->
<g id="edge11" class="edge">
<title>30&#45;&gt;playDead</title>
<path fill="none" stroke="black" d="M1088.77,-463.99C1082.66,-446.47 1071.04,-419.4 1053,-402 1039.55,-389.02 1026.23,-398.94 1015,-384 997.17,-360.29 994.18,-325.6 994.69,-301.39"/>
<polygon fill="black" stroke="black" points="998.18,-301.77 995.12,-291.62 991.18,-301.46 998.18,-301.77"/>
<text text-anchor="start" x="1019" y="-352.75" font-family="Courier New" font-weight="bold" font-size="10.00" fill="blue">ASSIGN(WSPRITE,dead)</text>
</g>
<!-- playDead&#45;&gt;sitting -->
<g id="edge15" class="edge">
<title>playDead&#45;&gt;sitting</title>
<path fill="none" stroke="black" d="M970.37,-290.36C928.46,-317.92 850.38,-372.08 836,-402 805.14,-466.19 791.29,-506.81 836,-562.25 859.69,-591.63 892.87,-553.01 919,-580.25 932.14,-593.95 935.39,-615.3 935.48,-632.61"/>
<polygon fill="black" stroke="black" points="931.99,-632.45 935.16,-642.55 938.98,-632.67 931.99,-632.45"/>
<polygon fill="none" stroke="black" points="839,-540.5 839,-559.25 1055,-559.25 1055,-540.5 839,-540.5"/>
<text text-anchor="start" x="899" y="-547.75" font-family="Courier New" font-weight="bold" font-size="10.00" fill="blue">ASSIGN(BFRAME,0)</text>
<polygon fill="none" stroke="black" points="839,-405 839,-538.5 1055,-538.5 1055,-405 839,-405"/>
<text text-anchor="start" x="842" y="-526" font-family="Courier New" font-size="10.00" fill="blue"> &#160;&#160;&#160;MAP(WSPRITE,WPARM);</text>
<text text-anchor="start" x="842" y="-513.25" font-family="Courier New" font-size="10.00" fill="blue"> &#160;&#160;&#160;SHOW(0,WSPRITE);</text>
<text text-anchor="start" x="842" y="-500.5" font-family="Courier New" font-size="10.00" fill="blue"> &#160;&#160;&#160;VIDEO(0,WSPRITE);</text>
<text text-anchor="start" x="842" y="-487.75" font-family="Courier New" font-size="10.00" fill="blue"> &#160;&#160;&#160;ANIMATE(0,0);</text>
<text text-anchor="start" x="842" y="-475" font-family="Courier New" font-size="10.00" fill="blue"> &#160;&#160;&#160;ASSIGN(LENERGY,1);</text>
<text text-anchor="start" x="842" y="-462.25" font-family="Courier New" font-size="10.00" fill="blue"> &#160;&#160;&#160;ASSIGN(LWEALTH,0);</text>
<text text-anchor="start" x="842" y="-449.5" font-family="Courier New" font-size="10.00" fill="blue"> &#160;&#160;&#160;SIGNAL(SID_PERSIST,SIG_UPDATE);</text>
<text text-anchor="start" x="842" y="-436.75" font-family="Courier New" font-size="10.00" fill="blue"> &#160;&#160;&#160;SIGNAL(SMP_VIAL,SIG_DRAIN);</text>
<text text-anchor="start" x="842" y="-424" font-family="Courier New" font-size="10.00" fill="blue"> &#160;&#160;&#160;SIGNAL(SID_PERSIST,SIG_UPDATE);</text>
<text text-anchor="start" x="842" y="-411.25" font-family="Courier New" font-size="10.00" fill="blue"> &#160;&#160;&#160;LOADVIEW(IDV_VIL8);</text>
<polygon fill="none" stroke="black" points="836,-402 836,-562.25 1058,-562.25 1058,-402 836,-402"/>
</g>
<!-- 50 -->
<g id="node18" class="node">
<title>50</title>
<polyline fill="none" stroke="darkred" points="1362.75,-470.88 1385.25,-470.88"/>
<text text-anchor="start" x="1365.75" y="-478.07" font-family="Courier New" font-weight="bold" font-size="14.00">50</text>
<path fill="none" stroke="darkred" d="M1369.25,-467.88C1369.25,-467.88 1378.75,-467.88 1378.75,-467.88 1383.5,-467.88 1388.25,-472.62 1388.25,-477.38 1388.25,-477.38 1388.25,-486.88 1388.25,-486.88 1388.25,-491.62 1383.5,-496.38 1378.75,-496.38 1378.75,-496.38 1369.25,-496.38 1369.25,-496.38 1364.5,-496.38 1359.75,-491.62 1359.75,-486.88 1359.75,-486.88 1359.75,-477.38 1359.75,-477.38 1359.75,-472.62 1364.5,-467.88 1369.25,-467.88"/>
</g>
<!-- 51 -->
<g id="node19" class="node">
<title>51</title>
<polyline fill="none" stroke="darkred" points="1362.75,-261 1385.25,-261"/>
<text text-anchor="start" x="1365.75" y="-268.2" font-family="Courier New" font-weight="bold" font-size="14.00">51</text>
<path fill="none" stroke="darkred" d="M1369.25,-258C1369.25,-258 1378.75,-258 1378.75,-258 1383.5,-258 1388.25,-262.75 1388.25,-267.5 1388.25,-267.5 1388.25,-277 1388.25,-277 1388.25,-281.75 1383.5,-286.5 1378.75,-286.5 1378.75,-286.5 1369.25,-286.5 1369.25,-286.5 1364.5,-286.5 1359.75,-281.75 1359.75,-277 1359.75,-277 1359.75,-267.5 1359.75,-267.5 1359.75,-262.75 1364.5,-258 1369.25,-258"/>
</g>
<!-- 50&#45;&gt;51 -->
<g id="edge12" class="edge">
<title>50&#45;&gt;51</title>
<path fill="none" stroke="black" d="M1377.94,-464.29C1384.08,-435.73 1394.58,-375.97 1388,-325.75 1386.93,-317.58 1384.96,-308.87 1382.83,-300.95"/>
<polygon fill="black" stroke="black" points="1386.24,-300.14 1380.1,-291.5 1379.51,-302.08 1386.24,-300.14"/>
<text text-anchor="start" x="1394" y="-352.75" font-family="Courier New" font-weight="bold" font-size="10.00" fill="blue">VIDEO(0,IDS_EXPLODE1)</text>
</g>
<!-- 51&#45;&gt;21 -->
<g id="edge13" class="edge">
<title>51&#45;&gt;21</title>
<path fill="none" stroke="black" d="M1359.43,-254.44C1351.78,-244.67 1342.98,-231.75 1338,-218.75 1328.38,-193.65 1325.16,-163.05 1324.18,-141.14"/>
<polygon fill="black" stroke="black" points="1327.68,-141.06 1323.88,-131.17 1320.68,-141.27 1327.68,-141.06"/>
<polygon fill="none" stroke="black" points="1341,-197 1341,-215.75 1605,-215.75 1605,-197 1341,-197"/>
<text text-anchor="start" x="1398" y="-204.25" font-family="Courier New" font-weight="bold" font-size="10.00" fill="blue">PLAYWAVE(0,SOUND_EXPLODE)</text>
<polygon fill="none" stroke="black" points="1341,-150.75 1341,-195 1605,-195 1605,-150.75 1341,-150.75"/>
<text text-anchor="start" x="1344" y="-182.5" font-family="Courier New" font-size="10.00" fill="blue"> &#160;&#160;&#160;&#160;&#160;&#160;&#160;&#160;&#160;&#160;&#160;SUBI(LENERGY,1);</text>
<text text-anchor="start" x="1344" y="-169.75" font-family="Courier New" font-size="10.00" fill="blue"> &#160;&#160;&#160;&#160;&#160;&#160;&#160;&#160;&#160;&#160;&#160;SIGNAL(SID_AURA,SIG_SUB);</text>
<text text-anchor="start" x="1344" y="-157" font-family="Courier New" font-size="10.00" fill="blue"> &#160;&#160;&#160;&#160;&#160;&#160;&#160;&#160;&#160;&#160;&#160;SIGNAL(SID_PERSIST,SIG_UPDATE);</text>
<polygon fill="none" stroke="black" points="1338,-147.75 1338,-218.75 1608,-218.75 1608,-147.75 1338,-147.75"/>
</g>
<!-- sitting&#45;&gt;present -->
<g id="edge20" class="edge">
<title>sitting&#45;&gt;present</title>
<path fill="none" stroke="black" d="M933,-680.2C933,-768.86 933,-1174.39 933,-1285.68"/>
<polygon fill="black" stroke="black" points="929.5,-1285.41 933,-1295.41 936.5,-1285.41 929.5,-1285.41"/>
<polygon fill="none" stroke="black" points="936,-938.5 936,-957.25 1530,-957.25 1530,-938.5 936,-938.5"/>
<text text-anchor="start" x="1185" y="-945.75" font-family="Courier New" font-weight="bold" font-size="10.00" fill="orange">WAIT(0,SIG_MYID)</text>
<polygon fill="none" stroke="black" points="936,-828.5 936,-936.5 1530,-936.5 1530,-828.5 936,-828.5"/>
<text text-anchor="start" x="939" y="-924" font-family="Courier New" font-size="10.00" fill="blue"> &#160;&#160;&#160;CLEAR(WSPRITE);</text>
<text text-anchor="start" x="939" y="-911.25" font-family="Courier New" font-size="10.00" fill="blue"> &#160;&#160;&#160;&#160;SHOW(0);</text>
<text text-anchor="start" x="939" y="-898.5" font-family="Courier New" font-size="10.00" fill="blue"> &#160;&#160;&#160;&#160;predicate active_character(name);</text>
<text text-anchor="start" x="939" y="-885.75" font-family="Courier New" font-size="10.00" fill="blue"> &#160;&#160;&#160;&#160;active_character(?BPARM)?</text>
<text text-anchor="start" x="939" y="-873" font-family="Courier New" font-size="10.00" fill="blue"> &#160;&#160;&#160;&#160;predicate localplayer(name,viewname, wealth,karma, energy,strength, wisdom, gender, culture);</text>
<text text-anchor="start" x="939" y="-860.25" font-family="Courier New" font-size="10.00" fill="blue"> &#160;&#160;&#160;&#160;localplayer(BPARM, ?WTEMP1, ?LWEALTH, ?LKARMA,?LENERGY,?LSTRENGTH, ?LWISDOM, ?LSEX, ?WTEMP2)?</text>
<text text-anchor="start" x="939" y="-847.5" font-family="Courier New" font-size="10.00" fill="blue"> &#160;&#160;&#160;&#160;SIGNAL(SID_AURA, SIG_MYAURA);</text>
<text text-anchor="start" x="939" y="-834.75" font-family="Courier New" font-size="10.00" fill="blue"> &#160;&#160;&#160;&#160;SIGNAL(SID_HALO, SIG_MYHALO);</text>
<polygon fill="none" stroke="black" points="933,-825.5 933,-960.25 1533,-960.25 1533,-825.5 933,-825.5"/>
</g>
<!-- sitting&#45;&gt;present -->
<g id="edge32" class="edge">
<title>sitting&#45;&gt;present</title>
<path fill="none" stroke="black" d="M975.52,-667.82C1101.31,-683.02 1467.22,-734.47 1537,-825.5 1713.91,-1056.3 1164.3,-1244.87 986.53,-1298.6"/>
<polygon fill="black" stroke="black" points="985.64,-1295.22 977.07,-1301.44 987.65,-1301.92 985.64,-1295.22"/>
<text text-anchor="start" x="1575" y="-890.75" font-family="Courier New" font-weight="bold" font-size="10.00" fill="orange">WAIT(0,0)</text>
</g>
<!-- sitting&#45;&gt;100 -->
<g id="edge31" class="edge">
<title>sitting&#45;&gt;100</title>
<path fill="none" stroke="black" d="M890.15,-660.21C739.95,-657.25 244.95,-646.01 218,-625.75 182.4,-598.99 172.47,-544.82 169.82,-511.48"/>
<polygon fill="black" stroke="black" points="173.33,-511.51 169.23,-501.74 166.34,-511.93 173.33,-511.51"/>
<text text-anchor="start" x="222" y="-600.88" font-family="Courier New" font-weight="bold" font-size="10.00" fill="orange">WAIT(0,SIG_CLEAR)</text>
</g>
<!-- sitting&#45;&gt;20 -->
<g id="edge21" class="edge">
<title>sitting&#45;&gt;20</title>
<path fill="none" stroke="black" d="M890.36,-661.28C827.26,-660.68 713.68,-655.39 688,-625.75 674.76,-610.47 680.01,-598.83 688,-580.25 692.6,-569.56 701.92,-572.71 707,-562.25 735.27,-504.05 733.2,-425.78 729.46,-384.36"/>
<polygon fill="black" stroke="black" points="732.95,-384.09 728.46,-374.49 725.99,-384.79 732.95,-384.09"/>
<text text-anchor="start" x="692" y="-600.88" font-family="Courier New" font-weight="bold" font-size="10.00" fill="orange">WAIT(0,SIG_HAPPY)</text>
</g>
<!-- sitting&#45;&gt;21 -->
<g id="edge22" class="edge">
<title>sitting&#45;&gt;21</title>
<path fill="none" stroke="black" d="M975.83,-658.4C1033.3,-654.24 1131.66,-644.57 1162,-625.75 1183.01,-612.72 1173.66,-594.31 1194,-580.25 1220.43,-561.99 1243.47,-586.96 1264,-562.25 1331.33,-481.22 1265.77,-430.14 1280,-325.75 1289.14,-258.74 1306.99,-181.23 1316.92,-140.63"/>
<polygon fill="black" stroke="black" points="1320.31,-141.52 1319.31,-130.97 1313.51,-139.84 1320.31,-141.52"/>
<text text-anchor="start" x="1284" y="-352.75" font-family="Courier New" font-weight="bold" font-size="10.00" fill="orange">WAIT(0,SIG_HURT)</text>
</g>
<!-- sitting&#45;&gt;22 -->
<g id="edge23" class="edge">
<title>sitting&#45;&gt;22</title>
<path fill="none" stroke="black" d="M890.17,-660.11C797.06,-657.74 582.8,-649.71 561,-625.75 547.39,-610.79 548.64,-596.25 561,-580.25 580.38,-555.17 605.24,-582.03 630,-562.25 646.26,-549.26 656.76,-528.07 663.05,-510.89"/>
<polygon fill="black" stroke="black" points="666.26,-512.33 666.12,-501.74 659.62,-510.11 666.26,-512.33"/>
<text text-anchor="start" x="565" y="-600.88" font-family="Courier New" font-weight="bold" font-size="10.00" fill="orange">WAIT(0,SIG_KISS)</text>
</g>
<!-- sitting&#45;&gt;23 -->
<g id="edge24" class="edge">
<title>sitting&#45;&gt;23</title>
<path fill="none" stroke="black" d="M890.15,-657.56C866.69,-653.47 838.84,-644.65 821,-625.75 788.61,-591.42 784.85,-446.44 784.76,-384.32"/>
<polygon fill="black" stroke="black" points="788.26,-384.58 784.78,-374.57 781.26,-384.57 788.26,-384.58"/>
<text text-anchor="start" x="825" y="-600.88" font-family="Courier New" font-weight="bold" font-size="10.00" fill="orange">WAIT(0,SIG_MAD)</text>
</g>
<!-- sitting&#45;&gt;24 -->
<g id="edge25" class="edge">
<title>sitting&#45;&gt;24</title>
<path fill="none" stroke="black" d="M975.48,-659.91C1029.92,-657.52 1119.82,-649.92 1141,-625.75 1168.12,-594.8 1161.01,-305.45 1158.01,-212.71"/>
<polygon fill="black" stroke="black" points="1161.51,-212.84 1157.68,-202.96 1154.52,-213.07 1161.51,-212.84"/>
<text text-anchor="start" x="1166" y="-480" font-family="Courier New" font-weight="bold" font-size="10.00" fill="orange">WAIT(0,SIG_SAD)</text>
</g>
<!-- sitting&#45;&gt;25 -->
<g id="edge26" class="edge">
<title>sitting&#45;&gt;25</title>
<path fill="none" stroke="black" d="M975.66,-660.53C1127.56,-658.66 1634.37,-650.56 1658,-625.75 1690.27,-591.88 1670.37,-446.64 1660.06,-384.39"/>
<polygon fill="black" stroke="black" points="1663.52,-383.87 1658.39,-374.59 1656.62,-385.04 1663.52,-383.87"/>
<text text-anchor="start" x="1677" y="-600.88" font-family="Courier New" font-weight="bold" font-size="10.00" fill="orange">WAIT(0,SIG_SURPRISED)</text>
</g>
<!-- sitting&#45;&gt;26 -->
<g id="edge27" class="edge">
<title>sitting&#45;&gt;26</title>
<path fill="none" stroke="black" d="M975.79,-660.88C1147.83,-660.2 1781.28,-655.66 1811,-625.75 1840.04,-596.53 1830.9,-305.38 1827.21,-212.54"/>
<polygon fill="black" stroke="black" points="1830.72,-212.63 1826.81,-202.78 1823.73,-212.92 1830.72,-212.63"/>
<text text-anchor="start" x="1835" y="-480" font-family="Courier New" font-weight="bold" font-size="10.00" fill="orange">WAIT(0,SIG_STRESS)</text>
</g>
<!-- sitting&#45;&gt;27 -->
<g id="edge28" class="edge">
<title>sitting&#45;&gt;27</title>
<path fill="none" stroke="black" d="M975.79,-660.44C1143.13,-658.08 1748.04,-648.08 1831,-625.75 1889.27,-610.06 1919.87,-613.94 1951,-562.25 2034.39,-423.78 1974.47,-215.31 1948.44,-140.48"/>
<polygon fill="black" stroke="black" points="1951.74,-139.31 1945.09,-131.07 1945.15,-141.66 1951.74,-139.31"/>
<text text-anchor="start" x="1997" y="-352.75" font-family="Courier New" font-weight="bold" font-size="10.00" fill="orange">WAIT(0,SIG_WAVE)</text>
</g>
<!-- sitting&#45;&gt;30 -->
<g id="edge29" class="edge">
<title>sitting&#45;&gt;30</title>
<path fill="none" stroke="black" d="M959.52,-643.91C985.76,-626 1025.85,-595.81 1053,-562.25 1065.57,-546.71 1075.89,-526.7 1083.04,-510.7"/>
<polygon fill="black" stroke="black" points="1086.15,-512.32 1086.87,-501.75 1079.72,-509.57 1086.15,-512.32"/>
<text text-anchor="start" x="1041" y="-600.88" font-family="Courier New" font-weight="bold" font-size="10.00" fill="orange">WAIT(0,SIG_DEAD)</text>
</g>
<!-- sitting&#45;&gt;50 -->
<g id="edge30" class="edge">
<title>sitting&#45;&gt;50</title>
<path fill="none" stroke="black" d="M975.76,-659.89C1039.95,-657.46 1157.32,-649.76 1191,-625.75 1209.45,-612.6 1196.07,-594.11 1214,-580.25 1243.86,-557.16 1263.99,-580.55 1297,-562.25 1320.55,-549.19 1341.45,-526.63 1355.51,-508.93"/>
<polygon fill="black" stroke="black" points="1357.98,-511.46 1361.29,-501.4 1352.43,-507.2 1357.98,-511.46"/>
<polygon fill="none" stroke="black" points="1217,-604 1217,-622.75 1655,-622.75 1655,-604 1217,-604"/>
<text text-anchor="start" x="1388" y="-611.25" font-family="Courier New" font-weight="bold" font-size="10.00" fill="orange">WAIT(0,SIG_BOMB)</text>
<polygon fill="none" stroke="black" points="1217,-583.25 1217,-602 1655,-602 1655,-583.25 1217,-583.25"/>
<text text-anchor="start" x="1220" y="-589.5" font-family="Courier New" font-size="10.00" fill="blue"> &#160;&#160;&#160;&#160;WRITE(&quot;I am S_ID and I receive signals! This one is a SIG_BOMB! &quot;);</text>
<polygon fill="none" stroke="black" points="1214,-580.25 1214,-625.75 1658,-625.75 1658,-580.25 1214,-580.25"/>
</g>
<!-- setId&#45;&gt;sitting -->
<g id="edge19" class="edge">
<title>setId&#45;&gt;sitting</title>
<path fill="none" stroke="black" d="M592.17,-874.71C602.52,-836.04 633.3,-742.12 697,-698.25 725.77,-678.44 819.04,-669.43 879.35,-665.59"/>
<polygon fill="black" stroke="black" points="879.29,-669.1 889.06,-665 878.87,-662.11 879.29,-669.1"/>
<polygon fill="none" stroke="black" points="700,-785.75 700,-804.5 916,-804.5 916,-785.75 700,-785.75"/>
<text text-anchor="start" x="745" y="-793" font-family="Courier New" font-weight="bold" font-size="10.00" fill="blue">ASSIGN(WSPRITE,happy)</text>
<polygon fill="none" stroke="black" points="700,-701.25 700,-783.75 916,-783.75 916,-701.25 700,-701.25"/>
<text text-anchor="start" x="703" y="-771.25" font-family="Courier New" font-size="10.00" fill="blue"> &#160;&#160;&#160;MAP(WSPRITE,WPARM);</text>
<text text-anchor="start" x="703" y="-758.5" font-family="Courier New" font-size="10.00" fill="blue"> &#160;&#160;&#160;ASSIGN(BFRAME,0);</text>
<text text-anchor="start" x="703" y="-745.75" font-family="Courier New" font-size="10.00" fill="blue"> &#160;&#160;&#160;SHOW(WSPRITE);</text>
<text text-anchor="start" x="703" y="-733" font-family="Courier New" font-size="10.00" fill="blue"> &#160;&#160;&#160;SIGNAL(SID_AURA, SIG_MYAURA);</text>
<text text-anchor="start" x="703" y="-720.25" font-family="Courier New" font-size="10.00" fill="blue"> &#160;&#160;&#160;SIGNAL(SID_HALO, SIG_MYHALO);</text>
<text text-anchor="start" x="703" y="-707.5" font-family="Courier New" font-size="10.00" fill="blue"> &#160;&#160;&#160;SIGNAL(SID_PERSIST,SIG_UPDATE);</text>
<polygon fill="none" stroke="black" points="697,-698.25 697,-807.5 919,-807.5 919,-698.25 697,-698.25"/>
</g>
<!-- status -->
<g id="node22" class="node">
<title>status</title>
<polygon fill="none" stroke="black" points="978,-1491.75 978,-1570.75 1252,-1570.75 1252,-1491.75 978,-1491.75"/>
<polygon fill="none" stroke="black" points="989,-1545 989,-1563.75 1241,-1563.75 1241,-1545 989,-1545"/>
<text text-anchor="start" x="1097" y="-1552.25" font-family="Courier New" font-weight="bold" font-size="10.00">SID_ID</text>
<polygon fill="none" stroke="black" points="989,-1498.75 989,-1543 1241,-1543 1241,-1498.75 989,-1498.75"/>
<text text-anchor="start" x="992" y="-1530.5" font-family="Courier New" font-size="10.00" fill="green">VIEW::IDV_ID @pos(x:0, y:0, h:101, w:171)</text>
<text text-anchor="start" x="992" y="-1517.75" font-family="Courier New" font-size="10.00" fill="green">SID_ID::M_ID(&#39;&#39;,&#39;&#39;,&#39;0&#39;,&#39;SID_AURA&#39;,&#39;&#39;,&#39;&#39;)</text>
<text text-anchor="start" x="992" y="-1505" font-family="Courier New" font-size="10.00" fill="green">{state:&#39;0&#39;: Top:0 Left:0 Z:0</text>
<polygon fill="none" stroke="black" points="986,-1495.75 986,-1566.75 1244,-1566.75 1244,-1495.75 986,-1495.75"/>
</g>
</g>
</svg>
