<?xml version="1.0" encoding="UTF-8" standalone="no"?>
<!DOCTYPE svg PUBLIC "-//W3C//DTD SVG 1.1//EN"
 "http://www.w3.org/Graphics/SVG/1.1/DTD/svg11.dtd">
<!-- Generated by graphviz version 10.0.1 (20240210.2158)
 -->
<!-- Title: Automaton Pages: 1 -->
<svg width="2493pt" height="1587pt"
 viewBox="0.00 0.00 2493.32 1587.25" xmlns="http://www.w3.org/2000/svg" xmlns:xlink="http://www.w3.org/1999/xlink">
<g id="graph0" class="graph" transform="scale(1 1) rotate(0) translate(4 1583.25)">
<title>Automaton</title>
<polygon fill="white" stroke="none" points="-4,4 -4,-1583.25 2489.32,-1583.25 2489.32,4 -4,4"/>
<!-- filename -->
<g id="node1" class="node">
<title>filename</title>
<polygon fill="none" stroke="black" points="1835.32,-1512.5 1835.32,-1566 1953.32,-1566 1953.32,-1512.5 1835.32,-1512.5"/>
<polygon fill="none" stroke="black" points="1846.32,-1540.25 1846.32,-1559 1942.32,-1559 1942.32,-1540.25 1846.32,-1540.25"/>
<text text-anchor="start" x="1858.32" y="-1547.5" font-family="Courier New" font-weight="bold" font-size="10.00">SID_ID::M_ID</text>
<polygon fill="none" stroke="black" points="1846.32,-1519.5 1846.32,-1538.25 1942.32,-1538.25 1942.32,-1519.5 1846.32,-1519.5"/>
<text text-anchor="start" x="1849.32" y="-1525.75" font-family="Courier New" font-size="10.00" fill="brown">start state = 0</text>
<polygon fill="none" stroke="black" points="1843.32,-1516.5 1843.32,-1562 1945.32,-1562 1945.32,-1516.5 1843.32,-1516.5"/>
</g>
<!-- 0 -->
<g id="node2" class="node">
<title>0</title>
<polyline fill="none" stroke="darkred" points="1991.19,-1528 2005.44,-1528"/>
<text text-anchor="start" x="1994.19" y="-1535.2" font-family="Courier New" font-weight="bold" font-size="14.00">0</text>
<path fill="none" stroke="darkred" d="M1994.94,-1525C1994.94,-1525 2001.69,-1525 2001.69,-1525 2005.07,-1525 2008.44,-1528.38 2008.44,-1531.75 2008.44,-1531.75 2008.44,-1546.75 2008.44,-1546.75 2008.44,-1550.12 2005.07,-1553.5 2001.69,-1553.5 2001.69,-1553.5 1994.94,-1553.5 1994.94,-1553.5 1991.57,-1553.5 1988.19,-1550.12 1988.19,-1546.75 1988.19,-1546.75 1988.19,-1531.75 1988.19,-1531.75 1988.19,-1528.38 1991.57,-1525 1994.94,-1525"/>
</g>
<!-- present -->
<g id="node3" class="node">
<title>present</title>
<polyline fill="none" stroke="darkred" points="1213.44,-1311.75 1277.19,-1311.75"/>
<text text-anchor="start" x="1216.44" y="-1318.95" font-family="Courier New" font-weight="bold" font-size="14.00">present</text>
<path fill="none" stroke="darkred" d="M1219.94,-1308.75C1219.94,-1308.75 1270.69,-1308.75 1270.69,-1308.75 1275.44,-1308.75 1280.19,-1313.5 1280.19,-1318.25 1280.19,-1318.25 1280.19,-1327.75 1280.19,-1327.75 1280.19,-1332.5 1275.44,-1337.25 1270.69,-1337.25 1270.69,-1337.25 1219.94,-1337.25 1219.94,-1337.25 1215.19,-1337.25 1210.44,-1332.5 1210.44,-1327.75 1210.44,-1327.75 1210.44,-1318.25 1210.44,-1318.25 1210.44,-1313.5 1215.19,-1308.75 1219.94,-1308.75"/>
</g>
<!-- 0&#45;&gt;present -->
<g id="edge1" class="edge">
<title>0&#45;&gt;present</title>
<path fill="none" stroke="black" d="M1987.46,-1521.22C1981.2,-1512.99 1972.54,-1503.92 1962.32,-1499.25 1903.86,-1472.57 1442.48,-1508.56 1384.32,-1481.25 1325.38,-1453.57 1280.99,-1387.91 1259.56,-1350.78"/>
<polygon fill="black" stroke="black" points="1262.82,-1349.45 1254.87,-1342.44 1256.72,-1352.88 1262.82,-1349.45"/>
<polygon fill="none" stroke="black" points="1387.32,-1459.5 1387.32,-1478.25 1981.32,-1478.25 1981.32,-1459.5 1387.32,-1459.5"/>
<text text-anchor="start" x="1636.32" y="-1466.75" font-family="Courier New" font-weight="bold" font-size="10.00" fill="orange">WAIT(0,SIG_MYID)</text>
<polygon fill="none" stroke="black" points="1387.32,-1362.25 1387.32,-1457.5 1981.32,-1457.5 1981.32,-1362.25 1387.32,-1362.25"/>
<text text-anchor="start" x="1390.32" y="-1445" font-family="Courier New" font-size="10.00" fill="blue"> &#160;&#160;&#160;&#160;CLEAR(WSPRITE);</text>
<text text-anchor="start" x="1390.32" y="-1432.25" font-family="Courier New" font-size="10.00" fill="blue"> &#160;&#160;&#160;&#160;SHOW(0);</text>
<text text-anchor="start" x="1390.32" y="-1419.5" font-family="Courier New" font-size="10.00" fill="blue"> &#160;&#160;&#160;&#160;predicate active_character(name);</text>
<text text-anchor="start" x="1390.32" y="-1406.75" font-family="Courier New" font-size="10.00" fill="blue"> &#160;&#160;&#160;&#160;active_character(?WPARM)?</text>
<text text-anchor="start" x="1390.32" y="-1394" font-family="Courier New" font-size="10.00" fill="blue"> &#160;&#160;&#160;&#160;predicate localplayer(name,viewname, wealth,karma, energy,strength, wisdom, gender, culture);</text>
<text text-anchor="start" x="1390.32" y="-1381.25" font-family="Courier New" font-size="10.00" fill="blue"> &#160;&#160;&#160;&#160;localplayer(WPARM, ?WTEMP1, ?LWEALTH, ?LKARMA,?WTEMP3,?LSTRENGTH, ?LWISDOM, ?LSEX, ?WTEMP2)?</text>
<text text-anchor="start" x="1390.32" y="-1368.5" font-family="Courier New" font-size="10.00" fill="blue"> &#160;&#160;&#160;&#160;ASSIGN(LENERGY,WTEMP3);</text>
<polygon fill="none" stroke="black" points="1384.32,-1359.25 1384.32,-1481.25 1984.32,-1481.25 1984.32,-1359.25 1384.32,-1359.25"/>
</g>
<!-- setId -->
<g id="node22" class="node">
<title>setId</title>
<polyline fill="none" stroke="darkred" points="796.69,-889.62 843.94,-889.62"/>
<text text-anchor="start" x="799.69" y="-896.83" font-family="Courier New" font-weight="bold" font-size="14.00">setId</text>
<path fill="none" stroke="darkred" d="M803.19,-886.62C803.19,-886.62 837.44,-886.62 837.44,-886.62 842.19,-886.62 846.94,-891.38 846.94,-896.12 846.94,-896.12 846.94,-905.62 846.94,-905.62 846.94,-910.38 842.19,-915.12 837.44,-915.12 837.44,-915.12 803.19,-915.12 803.19,-915.12 798.44,-915.12 793.69,-910.38 793.69,-905.62 793.69,-905.62 793.69,-896.12 793.69,-896.12 793.69,-891.38 798.44,-886.62 803.19,-886.62"/>
</g>
<!-- present&#45;&gt;setId -->
<g id="edge20" class="edge">
<title>present&#45;&gt;setId</title>
<path fill="none" stroke="black" d="M1202.69,-1321.89C1095.41,-1321.18 820.77,-1316.43 793.32,-1286.75 699.84,-1185.7 773.84,-998.87 806.67,-929.09"/>
<polygon fill="black" stroke="black" points="809.72,-930.83 810.9,-920.3 803.41,-927.79 809.72,-930.83"/>
<polygon fill="none" stroke="black" points="796.32,-1265 796.32,-1283.75 1228.32,-1283.75 1228.32,-1265 796.32,-1265"/>
<text text-anchor="start" x="976.32" y="-1272.25" font-family="Courier New" font-weight="bold" font-size="10.00" fill="blue">Z_EPSILON(,)</text>
<polygon fill="none" stroke="black" points="796.32,-989.25 796.32,-1263 1228.32,-1263 1228.32,-989.25 796.32,-989.25"/>
<text text-anchor="start" x="799.32" y="-1250.5" font-family="Courier New" font-size="10.00" fill="blue"> &#160;&#160;&#160;&#160;&#160;&#160;</text>
<text text-anchor="start" x="799.32" y="-1237.75" font-family="Courier New" font-size="10.00" fill="blue"> &#160;//for back to back {statements} do not use semi&#45;colons between them, </text>
<text text-anchor="start" x="799.32" y="-1225" font-family="Courier New" font-size="10.00" fill="blue"> &#160;//only at the end of the code segment!</text>
<text text-anchor="start" x="799.32" y="-1212.25" font-family="Courier New" font-size="10.00" fill="blue"> &#160;if(LSEX == 1){</text>
<text text-anchor="start" x="799.32" y="-1199.5" font-family="Courier New" font-size="10.00" fill="blue"> &#160;&#160;&#160;WPARM = F1;</text>
<text text-anchor="start" x="799.32" y="-1186.75" font-family="Courier New" font-size="10.00" fill="blue"> &#160;&#160;&#160;&#160;if(LWISDOM &gt;= 30){</text>
<text text-anchor="start" x="799.32" y="-1174" font-family="Courier New" font-size="10.00" fill="blue"> &#160;&#160;&#160;&#160;&#160;&#160;WPARM = F3;</text>
<text text-anchor="start" x="799.32" y="-1161.25" font-family="Courier New" font-size="10.00" fill="blue"> &#160;&#160;&#160;}</text>
<text text-anchor="start" x="799.32" y="-1148.5" font-family="Courier New" font-size="10.00" fill="blue"> &#160;&#160;&#160;&#160;if(LWISDOM &gt;= 20 &amp;&amp; LWISDOM &lt; 30){</text>
<text text-anchor="start" x="799.32" y="-1135.75" font-family="Courier New" font-size="10.00" fill="blue"> &#160;&#160;&#160;&#160;&#160;&#160;WPARM = F2;</text>
<text text-anchor="start" x="799.32" y="-1123" font-family="Courier New" font-size="10.00" fill="blue"> &#160;&#160;&#160;}</text>
<text text-anchor="start" x="799.32" y="-1110.25" font-family="Courier New" font-size="10.00" fill="blue"> &#160;}</text>
<text text-anchor="start" x="799.32" y="-1097.5" font-family="Courier New" font-size="10.00" fill="blue"> &#160;if(LSEX == 0){</text>
<text text-anchor="start" x="799.32" y="-1084.75" font-family="Courier New" font-size="10.00" fill="blue"> &#160;&#160;&#160;WPARM = M1;</text>
<text text-anchor="start" x="799.32" y="-1072" font-family="Courier New" font-size="10.00" fill="blue"> &#160;&#160;&#160;&#160;&#160;if(LWISDOM &gt;= 30){</text>
<text text-anchor="start" x="799.32" y="-1059.25" font-family="Courier New" font-size="10.00" fill="blue"> &#160;&#160;&#160;&#160;&#160;&#160;WPARM = M3;</text>
<text text-anchor="start" x="799.32" y="-1046.5" font-family="Courier New" font-size="10.00" fill="blue"> &#160;&#160;&#160;}</text>
<text text-anchor="start" x="799.32" y="-1033.75" font-family="Courier New" font-size="10.00" fill="blue"> &#160;&#160;&#160;if(LWISDOM &gt;= 20 &amp;&amp; LWISDOM &lt; 30){</text>
<text text-anchor="start" x="799.32" y="-1021" font-family="Courier New" font-size="10.00" fill="blue"> &#160;&#160;&#160;&#160;&#160;&#160;&#160;WPARM = M2;</text>
<text text-anchor="start" x="799.32" y="-1008.25" font-family="Courier New" font-size="10.00" fill="blue"> &#160;&#160;&#160;}</text>
<text text-anchor="start" x="799.32" y="-995.5" font-family="Courier New" font-size="10.00" fill="blue"> &#160;}; </text>
<polygon fill="none" stroke="black" points="793.32,-986.25 793.32,-1286.75 1231.32,-1286.75 1231.32,-986.25 793.32,-986.25"/>
</g>
<!-- 100 -->
<g id="node4" class="node">
<title>100</title>
<polyline fill="none" stroke="darkred" points="1652.94,-523.5 1683.69,-523.5"/>
<text text-anchor="start" x="1655.94" y="-530.7" font-family="Courier New" font-weight="bold" font-size="14.00">100</text>
<path fill="none" stroke="darkred" d="M1659.44,-520.5C1659.44,-520.5 1677.19,-520.5 1677.19,-520.5 1681.94,-520.5 1686.69,-525.25 1686.69,-530 1686.69,-530 1686.69,-539.5 1686.69,-539.5 1686.69,-544.25 1681.94,-549 1677.19,-549 1677.19,-549 1659.44,-549 1659.44,-549 1654.69,-549 1649.94,-544.25 1649.94,-539.5 1649.94,-539.5 1649.94,-530 1649.94,-530 1649.94,-525.25 1654.69,-520.5 1659.44,-520.5"/>
</g>
<!-- empty -->
<g id="node5" class="node">
<title>empty</title>
<polyline fill="none" stroke="darkred" points="1698.69,-345.5 1745.94,-345.5"/>
<text text-anchor="start" x="1701.69" y="-352.7" font-family="Courier New" font-weight="bold" font-size="14.00">empty</text>
<path fill="none" stroke="darkred" d="M1705.19,-342.5C1705.19,-342.5 1739.44,-342.5 1739.44,-342.5 1744.19,-342.5 1748.94,-347.25 1748.94,-352 1748.94,-352 1748.94,-361.5 1748.94,-361.5 1748.94,-366.25 1744.19,-371 1739.44,-371 1739.44,-371 1705.19,-371 1705.19,-371 1700.44,-371 1695.69,-366.25 1695.69,-361.5 1695.69,-361.5 1695.69,-352 1695.69,-352 1695.69,-347.25 1700.44,-342.5 1705.19,-342.5"/>
</g>
<!-- 100&#45;&gt;empty -->
<g id="edge2" class="edge">
<title>100&#45;&gt;empty</title>
<path fill="none" stroke="black" d="M1668.15,-516.73C1668.46,-492.31 1671.11,-446.29 1685.32,-410.25 1688.92,-401.1 1694.43,-392.03 1700.1,-384.07"/>
<polygon fill="black" stroke="black" points="1702.83,-386.26 1706.08,-376.18 1697.25,-382.04 1702.83,-386.26"/>
<polygon fill="none" stroke="black" points="1688.32,-459.5 1688.32,-478.25 1856.32,-478.25 1856.32,-459.5 1688.32,-459.5"/>
<text text-anchor="start" x="1736.32" y="-466.75" font-family="Courier New" font-weight="bold" font-size="10.00" fill="blue">Z_EPSILON(,)</text>
<polygon fill="none" stroke="black" points="1688.32,-413.25 1688.32,-457.5 1856.32,-457.5 1856.32,-413.25 1688.32,-413.25"/>
<text text-anchor="start" x="1691.32" y="-445" font-family="Courier New" font-size="10.00" fill="blue"> &#160;&#160;&#160;SHOW(0);</text>
<text text-anchor="start" x="1691.32" y="-432.25" font-family="Courier New" font-size="10.00" fill="blue"> &#160;&#160;&#160;SIGNAL(WIP3,SIG_CLEAR);</text>
<text text-anchor="start" x="1691.32" y="-419.5" font-family="Courier New" font-size="10.00" fill="blue"> &#160;&#160;&#160;SIGNAL(WIP4,SIG_CLEAR);</text>
<polygon fill="none" stroke="black" points="1685.32,-410.25 1685.32,-481.25 1859.32,-481.25 1859.32,-410.25 1685.32,-410.25"/>
</g>
<!-- empty&#45;&gt;0 -->
<g id="edge16" class="edge">
<title>empty&#45;&gt;0</title>
<path fill="none" stroke="black" d="M1756.71,-363.12C1830.7,-376.82 1998.32,-420.37 1998.32,-533.75 1998.32,-1324 1998.32,-1324 1998.32,-1324 1998.32,-1390.55 1998.32,-1468.73 1998.32,-1509.77"/>
<polygon fill="black" stroke="black" points="1994.82,-1509.52 1998.32,-1519.52 2001.82,-1509.52 1994.82,-1509.52"/>
<text text-anchor="start" x="2002.32" y="-758.75" font-family="Courier New" font-weight="bold" font-size="10.00" fill="orange">WAIT(,SIG_SHOW)</text>
</g>
<!-- 20 -->
<g id="node6" class="node">
<title>20</title>
<polyline fill="none" stroke="darkred" points="164.07,-434.5 186.57,-434.5"/>
<text text-anchor="start" x="167.07" y="-441.7" font-family="Courier New" font-weight="bold" font-size="14.00">20</text>
<path fill="none" stroke="darkred" d="M170.57,-431.5C170.57,-431.5 180.07,-431.5 180.07,-431.5 184.82,-431.5 189.57,-436.25 189.57,-441 189.57,-441 189.57,-450.5 189.57,-450.5 189.57,-455.25 184.82,-460 180.07,-460 180.07,-460 170.57,-460 170.57,-460 165.82,-460 161.07,-455.25 161.07,-450.5 161.07,-450.5 161.07,-441 161.07,-441 161.07,-436.25 165.82,-431.5 170.57,-431.5"/>
</g>
<!-- playForward -->
<g id="node7" class="node">
<title>playForward</title>
<polyline fill="none" stroke="darkred" points="592.94,-7 689.69,-7"/>
<text text-anchor="start" x="595.94" y="-14.2" font-family="Courier New" font-weight="bold" font-size="14.00">playForward</text>
<path fill="none" stroke="darkred" d="M599.44,-4C599.44,-4 683.19,-4 683.19,-4 687.94,-4 692.69,-8.75 692.69,-13.5 692.69,-13.5 692.69,-23 692.69,-23 692.69,-27.75 687.94,-32.5 683.19,-32.5 683.19,-32.5 599.44,-32.5 599.44,-32.5 594.69,-32.5 589.94,-27.75 589.94,-23 589.94,-23 589.94,-13.5 589.94,-13.5 589.94,-8.75 594.69,-4 599.44,-4"/>
</g>
<!-- 20&#45;&gt;playForward -->
<g id="edge3" class="edge">
<title>20&#45;&gt;playForward</title>
<path fill="none" stroke="black" d="M172.05,-427.77C163.98,-380.98 147.15,-247.61 197.32,-155.75 233.09,-90.24 262,-82.2 331.32,-54.5 373.44,-37.67 493.17,-27.77 570.91,-22.94"/>
<polygon fill="black" stroke="black" points="570.78,-26.45 580.54,-22.35 570.35,-19.47 570.78,-26.45"/>
<text text-anchor="start" x="201.32" y="-227.38" font-family="Courier New" font-weight="bold" font-size="10.00" fill="blue">ASSIGN(WSPRITE,happy)</text>
</g>
<!-- sitting -->
<g id="node21" class="node">
<title>sitting</title>
<polyline fill="none" stroke="darkred" points="676.44,-658.75 740.19,-658.75"/>
<text text-anchor="start" x="679.44" y="-665.95" font-family="Courier New" font-weight="bold" font-size="14.00">sitting</text>
<path fill="none" stroke="darkred" d="M682.94,-655.75C682.94,-655.75 733.69,-655.75 733.69,-655.75 738.44,-655.75 743.19,-660.5 743.19,-665.25 743.19,-665.25 743.19,-674.75 743.19,-674.75 743.19,-679.5 738.44,-684.25 733.69,-684.25 733.69,-684.25 682.94,-684.25 682.94,-684.25 678.19,-684.25 673.44,-679.5 673.44,-674.75 673.44,-674.75 673.44,-665.25 673.44,-665.25 673.44,-660.5 678.19,-655.75 682.94,-655.75"/>
</g>
<!-- playForward&#45;&gt;sitting -->
<g id="edge18" class="edge">
<title>playForward&#45;&gt;sitting</title>
<path fill="none" stroke="black" d="M610.61,-36.45C602.08,-41.79 593.05,-47.99 585.32,-54.5 456.44,-163.04 286.07,-324.16 345.32,-392.25 383.32,-435.92 425.94,-378.46 474.32,-410.25 571.49,-474.11 520.25,-560.21 610.32,-633.75 623.17,-644.25 639.41,-651.75 654.96,-657.06"/>
<polygon fill="black" stroke="black" points="653.52,-660.27 664.11,-659.93 655.62,-653.6 653.52,-660.27"/>
<polygon fill="none" stroke="black" points="348.32,-370.5 348.32,-389.25 648.32,-389.25 648.32,-370.5 348.32,-370.5"/>
<text text-anchor="start" x="450.32" y="-377.75" font-family="Courier New" font-weight="bold" font-size="10.00" fill="blue">ASSIGN(BFRAME,0)</text>
<polygon fill="none" stroke="black" points="348.32,-324.25 348.32,-368.5 648.32,-368.5 648.32,-324.25 348.32,-324.25"/>
<text text-anchor="start" x="351.32" y="-356" font-family="Courier New" font-size="10.00" fill="blue"> &#160;&#160;&#160;MAP(WSPRITE,WPARM);</text>
<text text-anchor="start" x="351.32" y="-343.25" font-family="Courier New" font-size="10.00" fill="blue"> &#160;&#160;&#160;SHOW(WSPRITE);</text>
<text text-anchor="start" x="351.32" y="-330.5" font-family="Courier New" font-size="10.00" fill="blue"> &#160;&#160;&#160;ANIMATE(0,V_REWIND); //PLAY FORWARD THEN BACK</text>
<polygon fill="none" stroke="black" points="345.32,-321.25 345.32,-392.25 651.32,-392.25 651.32,-321.25 345.32,-321.25"/>
</g>
<!-- 21 -->
<g id="node8" class="node">
<title>21</title>
<polyline fill="none" stroke="darkred" points="1100.07,-104.25 1122.57,-104.25"/>
<text text-anchor="start" x="1103.07" y="-111.45" font-family="Courier New" font-weight="bold" font-size="14.00">21</text>
<path fill="none" stroke="darkred" d="M1106.57,-101.25C1106.57,-101.25 1116.07,-101.25 1116.07,-101.25 1120.82,-101.25 1125.57,-106 1125.57,-110.75 1125.57,-110.75 1125.57,-120.25 1125.57,-120.25 1125.57,-125 1120.82,-129.75 1116.07,-129.75 1116.07,-129.75 1106.57,-129.75 1106.57,-129.75 1101.82,-129.75 1097.07,-125 1097.07,-120.25 1097.07,-120.25 1097.07,-110.75 1097.07,-110.75 1097.07,-106 1101.82,-101.25 1106.57,-101.25"/>
</g>
<!-- 21&#45;&gt;playForward -->
<g id="edge4" class="edge">
<title>21&#45;&gt;playForward</title>
<path fill="none" stroke="black" d="M1084.33,-101.01C1055.05,-87 1006.54,-65.61 962.32,-54.5 877.81,-33.27 777.6,-24.83 711.9,-21.47"/>
<polygon fill="black" stroke="black" points="712.12,-17.97 701.96,-20.99 711.78,-24.97 712.12,-17.97"/>
<text text-anchor="start" x="1028.32" y="-62.75" font-family="Courier New" font-weight="bold" font-size="10.00" fill="blue">ASSIGN(WSPRITE,hurt)</text>
</g>
<!-- 22 -->
<g id="node9" class="node">
<title>22</title>
<polyline fill="none" stroke="darkred" points="459.07,-523.5 481.57,-523.5"/>
<text text-anchor="start" x="462.07" y="-530.7" font-family="Courier New" font-weight="bold" font-size="14.00">22</text>
<path fill="none" stroke="darkred" d="M465.57,-520.5C465.57,-520.5 475.07,-520.5 475.07,-520.5 479.82,-520.5 484.57,-525.25 484.57,-530 484.57,-530 484.57,-539.5 484.57,-539.5 484.57,-544.25 479.82,-549 475.07,-549 475.07,-549 465.57,-549 465.57,-549 460.82,-549 456.07,-544.25 456.07,-539.5 456.07,-539.5 456.07,-530 456.07,-530 456.07,-525.25 460.82,-520.5 465.57,-520.5"/>
</g>
<!-- playOnce -->
<g id="node10" class="node">
<title>playOnce</title>
<polyline fill="none" stroke="darkred" points="226.32,-345.5 298.32,-345.5"/>
<text text-anchor="start" x="229.32" y="-352.7" font-family="Courier New" font-weight="bold" font-size="14.00">playOnce</text>
<path fill="none" stroke="darkred" d="M232.82,-342.5C232.82,-342.5 291.82,-342.5 291.82,-342.5 296.57,-342.5 301.32,-347.25 301.32,-352 301.32,-352 301.32,-361.5 301.32,-361.5 301.32,-366.25 296.57,-371 291.82,-371 291.82,-371 232.82,-371 232.82,-371 228.07,-371 223.32,-366.25 223.32,-361.5 223.32,-361.5 223.32,-352 223.32,-352 223.32,-347.25 228.07,-342.5 232.82,-342.5"/>
</g>
<!-- 22&#45;&gt;playOnce -->
<g id="edge5" class="edge">
<title>22&#45;&gt;playOnce</title>
<path fill="none" stroke="black" d="M453.7,-516.57C446.72,-510.26 438.17,-503.6 429.32,-499.25 395.43,-482.61 377.61,-502.36 346.32,-481.25 327.79,-468.75 296.14,-417.11 277.43,-384.69"/>
<polygon fill="black" stroke="black" points="280.59,-383.17 272.59,-376.23 274.52,-386.65 280.59,-383.17"/>
<text text-anchor="start" x="350.32" y="-443.62" font-family="Courier New" font-weight="bold" font-size="10.00" fill="blue">ASSIGN(WSPRITE,kiss)</text>
</g>
<!-- playOnce&#45;&gt;sitting -->
<g id="edge19" class="edge">
<title>playOnce&#45;&gt;sitting</title>
<path fill="none" stroke="black" d="M259.2,-374.88C253.18,-413.35 243.84,-508.09 284.32,-570.25 315.33,-617.88 341.29,-616.09 395.32,-633.75 482.9,-662.38 590.8,-668.59 654.32,-669.49"/>
<polygon fill="black" stroke="black" points="654.1,-672.99 664.14,-669.59 654.17,-665.99 654.1,-672.99"/>
<polygon fill="none" stroke="black" points="287.32,-548.5 287.32,-567.25 431.32,-567.25 431.32,-548.5 287.32,-548.5"/>
<text text-anchor="start" x="311.32" y="-555.75" font-family="Courier New" font-weight="bold" font-size="10.00" fill="blue">ASSIGN(BFRAME,0)</text>
<polygon fill="none" stroke="black" points="287.32,-502.25 287.32,-546.5 431.32,-546.5 431.32,-502.25 287.32,-502.25"/>
<text text-anchor="start" x="290.32" y="-534" font-family="Courier New" font-size="10.00" fill="blue"> &#160;&#160;&#160;MAP(WSPRITE,WPARM);</text>
<text text-anchor="start" x="290.32" y="-521.25" font-family="Courier New" font-size="10.00" fill="blue"> &#160;&#160;&#160;SHOW(0,WSPRITE);</text>
<text text-anchor="start" x="290.32" y="-508.5" font-family="Courier New" font-size="10.00" fill="blue"> &#160;&#160;&#160;ANIMATE(0,0);</text>
<polygon fill="none" stroke="black" points="284.32,-499.25 284.32,-570.25 434.32,-570.25 434.32,-499.25 284.32,-499.25"/>
</g>
<!-- 23 -->
<g id="node11" class="node">
<title>23</title>
<polyline fill="none" stroke="darkred" points="605.07,-218.25 627.57,-218.25"/>
<text text-anchor="start" x="608.07" y="-225.45" font-family="Courier New" font-weight="bold" font-size="14.00">23</text>
<path fill="none" stroke="darkred" d="M611.57,-215.25C611.57,-215.25 621.07,-215.25 621.07,-215.25 625.82,-215.25 630.57,-220 630.57,-224.75 630.57,-224.75 630.57,-234.25 630.57,-234.25 630.57,-239 625.82,-243.75 621.07,-243.75 621.07,-243.75 611.57,-243.75 611.57,-243.75 606.82,-243.75 602.07,-239 602.07,-234.25 602.07,-234.25 602.07,-224.75 602.07,-224.75 602.07,-220 606.82,-215.25 611.57,-215.25"/>
</g>
<!-- 23&#45;&gt;playForward -->
<g id="edge6" class="edge">
<title>23&#45;&gt;playForward</title>
<path fill="none" stroke="black" d="M605.28,-211.56C589.87,-185.67 565.37,-134.87 580.32,-93.25 586.96,-74.74 600.46,-57.56 613.08,-44.42"/>
<polygon fill="black" stroke="black" points="615.45,-46.99 620.08,-37.46 610.52,-42.02 615.45,-46.99"/>
<text text-anchor="start" x="584.32" y="-113.38" font-family="Courier New" font-weight="bold" font-size="10.00" fill="blue">ASSIGN(WSPRITE,mad)</text>
</g>
<!-- 24 -->
<g id="node12" class="node">
<title>24</title>
<polyline fill="none" stroke="darkred" points="707.07,-434.5 729.57,-434.5"/>
<text text-anchor="start" x="710.07" y="-441.7" font-family="Courier New" font-weight="bold" font-size="14.00">24</text>
<path fill="none" stroke="darkred" d="M713.57,-431.5C713.57,-431.5 723.07,-431.5 723.07,-431.5 727.82,-431.5 732.57,-436.25 732.57,-441 732.57,-441 732.57,-450.5 732.57,-450.5 732.57,-455.25 727.82,-460 723.07,-460 723.07,-460 713.57,-460 713.57,-460 708.82,-460 704.07,-455.25 704.07,-450.5 704.07,-450.5 704.07,-441 704.07,-441 704.07,-436.25 708.82,-431.5 713.57,-431.5"/>
</g>
<!-- 24&#45;&gt;playForward -->
<g id="edge7" class="edge">
<title>24&#45;&gt;playForward</title>
<path fill="none" stroke="black" d="M717.58,-427.9C714.55,-358.11 703.08,-95.23 702.32,-93.25 695.2,-74.77 681.53,-57.49 668.93,-44.28"/>
<polygon fill="black" stroke="black" points="671.49,-41.89 661.95,-37.29 666.54,-46.84 671.49,-41.89"/>
<text text-anchor="start" x="716.32" y="-227.38" font-family="Courier New" font-weight="bold" font-size="10.00" fill="blue">ASSIGN(WSPRITE,sad)</text>
</g>
<!-- 25 -->
<g id="node13" class="node">
<title>25</title>
<polyline fill="none" stroke="darkred" points="859.07,-218.25 881.57,-218.25"/>
<text text-anchor="start" x="862.07" y="-225.45" font-family="Courier New" font-weight="bold" font-size="14.00">25</text>
<path fill="none" stroke="darkred" d="M865.57,-215.25C865.57,-215.25 875.07,-215.25 875.07,-215.25 879.82,-215.25 884.57,-220 884.57,-224.75 884.57,-224.75 884.57,-234.25 884.57,-234.25 884.57,-239 879.82,-243.75 875.07,-243.75 875.07,-243.75 865.57,-243.75 865.57,-243.75 860.82,-243.75 856.07,-239 856.07,-234.25 856.07,-234.25 856.07,-224.75 856.07,-224.75 856.07,-220 860.82,-215.25 865.57,-215.25"/>
</g>
<!-- 25&#45;&gt;playForward -->
<g id="edge8" class="edge">
<title>25&#45;&gt;playForward</title>
<path fill="none" stroke="black" d="M867.39,-211.3C863.68,-194.76 855.68,-170.2 839.32,-155.75 817.48,-136.48 799.1,-155.88 776.32,-137.75 743.24,-111.43 762.05,-82.42 730.32,-54.5 724.4,-49.29 717.61,-44.8 710.49,-40.95"/>
<polygon fill="black" stroke="black" points="712.5,-38.03 701.98,-36.74 709.4,-44.31 712.5,-38.03"/>
<text text-anchor="start" x="780.32" y="-113.38" font-family="Courier New" font-weight="bold" font-size="10.00" fill="blue">ASSIGN(WSPRITE,surprised)</text>
</g>
<!-- 26 -->
<g id="node14" class="node">
<title>26</title>
<polyline fill="none" stroke="darkred" points="934.07,-434.5 956.57,-434.5"/>
<text text-anchor="start" x="937.07" y="-441.7" font-family="Courier New" font-weight="bold" font-size="14.00">26</text>
<path fill="none" stroke="darkred" d="M940.57,-431.5C940.57,-431.5 950.07,-431.5 950.07,-431.5 954.82,-431.5 959.57,-436.25 959.57,-441 959.57,-441 959.57,-450.5 959.57,-450.5 959.57,-455.25 954.82,-460 950.07,-460 950.07,-460 940.57,-460 940.57,-460 935.82,-460 931.07,-455.25 931.07,-450.5 931.07,-450.5 931.07,-441 931.07,-441 931.07,-436.25 935.82,-431.5 940.57,-431.5"/>
</g>
<!-- 26&#45;&gt;playForward -->
<g id="edge9" class="edge">
<title>26&#45;&gt;playForward</title>
<path fill="none" stroke="black" d="M945.35,-427.57C945.4,-358.8 944.89,-106.39 934.32,-93.25 906.7,-58.91 789.16,-37.77 711.6,-27.3"/>
<polygon fill="black" stroke="black" points="712.34,-23.87 701.97,-26.03 711.42,-30.81 712.34,-23.87"/>
<text text-anchor="start" x="948.32" y="-227.38" font-family="Courier New" font-weight="bold" font-size="10.00" fill="blue">ASSIGN(WSPRITE,stress)</text>
</g>
<!-- 27 -->
<g id="node15" class="node">
<title>27</title>
<polyline fill="none" stroke="darkred" points="20.07,-218.25 42.57,-218.25"/>
<text text-anchor="start" x="23.07" y="-225.45" font-family="Courier New" font-weight="bold" font-size="14.00">27</text>
<path fill="none" stroke="darkred" d="M26.57,-215.25C26.57,-215.25 36.07,-215.25 36.07,-215.25 40.82,-215.25 45.57,-220 45.57,-224.75 45.57,-224.75 45.57,-234.25 45.57,-234.25 45.57,-239 40.82,-243.75 36.07,-243.75 36.07,-243.75 26.57,-243.75 26.57,-243.75 21.82,-243.75 17.07,-239 17.07,-234.25 17.07,-234.25 17.07,-224.75 17.07,-224.75 17.07,-220 21.82,-215.25 26.57,-215.25"/>
</g>
<!-- 27&#45;&gt;playForward -->
<g id="edge10" class="edge">
<title>27&#45;&gt;playForward</title>
<path fill="none" stroke="black" d="M27.61,-211.29C22.64,-183.17 17.37,-127.11 45.32,-93.25 83.15,-47.41 114.89,-65.41 173.32,-54.5 312.54,-28.51 478.45,-21.56 570.63,-19.78"/>
<polygon fill="black" stroke="black" points="570.6,-23.28 580.53,-19.61 570.47,-16.28 570.6,-23.28"/>
<text text-anchor="start" x="49.32" y="-113.38" font-family="Courier New" font-weight="bold" font-size="10.00" fill="blue">ASSIGN(WSPRITE,wave)</text>
</g>
<!-- 30 -->
<g id="node16" class="node">
<title>30</title>
<polyline fill="none" stroke="darkred" points="1499.07,-523.5 1521.57,-523.5"/>
<text text-anchor="start" x="1502.07" y="-530.7" font-family="Courier New" font-weight="bold" font-size="14.00">30</text>
<path fill="none" stroke="darkred" d="M1505.57,-520.5C1505.57,-520.5 1515.07,-520.5 1515.07,-520.5 1519.82,-520.5 1524.57,-525.25 1524.57,-530 1524.57,-530 1524.57,-539.5 1524.57,-539.5 1524.57,-544.25 1519.82,-549 1515.07,-549 1515.07,-549 1505.57,-549 1505.57,-549 1500.82,-549 1496.07,-544.25 1496.07,-539.5 1496.07,-539.5 1496.07,-530 1496.07,-530 1496.07,-525.25 1500.82,-520.5 1505.57,-520.5"/>
</g>
<!-- playDead -->
<g id="node17" class="node">
<title>playDead</title>
<polyline fill="none" stroke="darkred" points="1536.32,-345.5 1608.32,-345.5"/>
<text text-anchor="start" x="1539.32" y="-352.7" font-family="Courier New" font-weight="bold" font-size="14.00">playDead</text>
<path fill="none" stroke="darkred" d="M1542.82,-342.5C1542.82,-342.5 1601.82,-342.5 1601.82,-342.5 1606.57,-342.5 1611.32,-347.25 1611.32,-352 1611.32,-352 1611.32,-361.5 1611.32,-361.5 1611.32,-366.25 1606.57,-371 1601.82,-371 1601.82,-371 1542.82,-371 1542.82,-371 1538.07,-371 1533.32,-366.25 1533.32,-361.5 1533.32,-361.5 1533.32,-352 1533.32,-352 1533.32,-347.25 1538.07,-342.5 1542.82,-342.5"/>
</g>
<!-- 30&#45;&gt;playDead -->
<g id="edge11" class="edge">
<title>30&#45;&gt;playDead</title>
<path fill="none" stroke="black" d="M1512.01,-516.77C1514.88,-492.38 1521.96,-446.41 1537.32,-410.25 1541.15,-401.22 1546.59,-392.08 1552.04,-384.01"/>
<polygon fill="black" stroke="black" points="1554.77,-386.2 1557.7,-376.02 1549.06,-382.15 1554.77,-386.2"/>
<text text-anchor="start" x="1541.32" y="-443.62" font-family="Courier New" font-weight="bold" font-size="10.00" fill="blue">ASSIGN(WSPRITE,dead)</text>
</g>
<!-- dead -->
<g id="node20" class="node">
<title>dead</title>
<polyline fill="none" stroke="darkred" stroke-width="3" points="1853.32,-103.75 1893.32,-103.75"/>
<text text-anchor="start" x="1856.82" y="-111.45" font-family="Courier New" font-weight="bold" font-size="14.00">dead</text>
<path fill="none" stroke="darkred" stroke-width="3" d="M1859.48,-98.75C1859.48,-98.75 1887.15,-98.75 1887.15,-98.75 1892.73,-98.75 1898.32,-104.33 1898.32,-109.92 1898.32,-109.92 1898.32,-121.08 1898.32,-121.08 1898.32,-126.67 1892.73,-132.25 1887.15,-132.25 1887.15,-132.25 1859.48,-132.25 1859.48,-132.25 1853.9,-132.25 1848.32,-126.67 1848.32,-121.08 1848.32,-121.08 1848.32,-109.92 1848.32,-109.92 1848.32,-104.33 1853.9,-98.75 1859.48,-98.75"/>
</g>
<!-- playDead&#45;&gt;dead -->
<g id="edge17" class="edge">
<title>playDead&#45;&gt;dead</title>
<path fill="none" stroke="black" d="M1572.32,-338.65C1573.35,-299.61 1581.7,-203.62 1637.32,-155.75 1665.19,-131.76 1767.43,-122.18 1827.81,-118.55"/>
<polygon fill="black" stroke="black" points="1827.64,-122.07 1837.42,-118.01 1827.24,-115.08 1827.64,-122.07"/>
<polygon fill="none" stroke="black" points="1640.32,-281.5 1640.32,-300.25 1856.32,-300.25 1856.32,-281.5 1640.32,-281.5"/>
<text text-anchor="start" x="1700.32" y="-288.75" font-family="Courier New" font-weight="bold" font-size="10.00" fill="blue">ASSIGN(BFRAME,0)</text>
<polygon fill="none" stroke="black" points="1640.32,-158.75 1640.32,-279.5 1856.32,-279.5 1856.32,-158.75 1640.32,-158.75"/>
<text text-anchor="start" x="1643.32" y="-267" font-family="Courier New" font-size="10.00" fill="blue"> &#160;&#160;&#160;MAP(WSPRITE,WPARM);</text>
<text text-anchor="start" x="1643.32" y="-254.25" font-family="Courier New" font-size="10.00" fill="blue"> &#160;&#160;&#160;SHOW(0,WSPRITE);</text>
<text text-anchor="start" x="1643.32" y="-241.5" font-family="Courier New" font-size="10.00" fill="blue"> &#160;&#160;&#160;VIDEO(0,WSPRITE);</text>
<text text-anchor="start" x="1643.32" y="-228.75" font-family="Courier New" font-size="10.00" fill="blue"> &#160;&#160;&#160;ANIMATE(0,0);</text>
<text text-anchor="start" x="1643.32" y="-216" font-family="Courier New" font-size="10.00" fill="blue"> &#160;&#160;&#160;ASSIGN(LENERGY,0);</text>
<text text-anchor="start" x="1643.32" y="-203.25" font-family="Courier New" font-size="10.00" fill="blue"> &#160;&#160;&#160;ASSIGN(LWEALTH,0);</text>
<text text-anchor="start" x="1643.32" y="-190.5" font-family="Courier New" font-size="10.00" fill="blue"> &#160;&#160;&#160;SIGNAL(SMP_VIAL,SIG_DRAIN);</text>
<text text-anchor="start" x="1643.32" y="-177.75" font-family="Courier New" font-size="10.00" fill="blue"> &#160;&#160;&#160;SIGNAL(SID_PERSIST,SIG_UPDATE);</text>
<text text-anchor="start" x="1643.32" y="-165" font-family="Courier New" font-size="10.00" fill="blue"> &#160;&#160;&#160;LOADVIEW(IDV_VIL8);</text>
<polygon fill="none" stroke="black" points="1637.32,-155.75 1637.32,-303.25 1859.32,-303.25 1859.32,-155.75 1637.32,-155.75"/>
</g>
<!-- 50 -->
<g id="node18" class="node">
<title>50</title>
<polyline fill="none" stroke="darkred" points="1015.07,-523.5 1037.57,-523.5"/>
<text text-anchor="start" x="1018.07" y="-530.7" font-family="Courier New" font-weight="bold" font-size="14.00">50</text>
<path fill="none" stroke="darkred" d="M1021.57,-520.5C1021.57,-520.5 1031.07,-520.5 1031.07,-520.5 1035.82,-520.5 1040.57,-525.25 1040.57,-530 1040.57,-530 1040.57,-539.5 1040.57,-539.5 1040.57,-544.25 1035.82,-549 1031.07,-549 1031.07,-549 1021.57,-549 1021.57,-549 1016.82,-549 1012.07,-544.25 1012.07,-539.5 1012.07,-539.5 1012.07,-530 1012.07,-530 1012.07,-525.25 1016.82,-520.5 1021.57,-520.5"/>
</g>
<!-- 51 -->
<g id="node19" class="node">
<title>51</title>
<polyline fill="none" stroke="darkred" points="1046.07,-345.5 1068.57,-345.5"/>
<text text-anchor="start" x="1049.07" y="-352.7" font-family="Courier New" font-weight="bold" font-size="14.00">51</text>
<path fill="none" stroke="darkred" d="M1052.57,-342.5C1052.57,-342.5 1062.07,-342.5 1062.07,-342.5 1066.82,-342.5 1071.57,-347.25 1071.57,-352 1071.57,-352 1071.57,-361.5 1071.57,-361.5 1071.57,-366.25 1066.82,-371 1062.07,-371 1062.07,-371 1052.57,-371 1052.57,-371 1047.82,-371 1043.07,-366.25 1043.07,-361.5 1043.07,-361.5 1043.07,-352 1043.07,-352 1043.07,-347.25 1047.82,-342.5 1052.57,-342.5"/>
</g>
<!-- 50&#45;&gt;51 -->
<g id="edge12" class="edge">
<title>50&#45;&gt;51</title>
<path fill="none" stroke="black" d="M1029.34,-516.55C1034.71,-486.11 1045.91,-422.5 1052.39,-385.69"/>
<polygon fill="black" stroke="black" points="1055.77,-386.7 1054.06,-376.25 1048.88,-385.49 1055.77,-386.7"/>
<text text-anchor="start" x="1050.32" y="-443.62" font-family="Courier New" font-weight="bold" font-size="10.00" fill="blue">VIDEO(0,IDS_EXPLODE1)</text>
</g>
<!-- 51&#45;&gt;21 -->
<g id="edge13" class="edge">
<title>51&#45;&gt;21</title>
<path fill="none" stroke="black" d="M1070.3,-338.72C1077.11,-328.88 1084.93,-315.96 1089.32,-303.25 1107.88,-249.46 1111.36,-182.35 1111.7,-144.99"/>
<polygon fill="black" stroke="black" points="1115.2,-145.04 1111.7,-135.03 1108.2,-145.03 1115.2,-145.04"/>
<polygon fill="none" stroke="black" points="1114.32,-256 1114.32,-274.75 1378.32,-274.75 1378.32,-256 1114.32,-256"/>
<text text-anchor="start" x="1171.32" y="-263.25" font-family="Courier New" font-weight="bold" font-size="10.00" fill="blue">PLAYWAVE(0,SOUND_EXPLODE)</text>
<polygon fill="none" stroke="black" points="1114.32,-184.25 1114.32,-254 1378.32,-254 1378.32,-184.25 1114.32,-184.25"/>
<text text-anchor="start" x="1117.32" y="-241.5" font-family="Courier New" font-size="10.00" fill="blue"> &#160;&#160;&#160;&#160;&#160;&#160;&#160;&#160;&#160;&#160;&#160;SUBI(LENERGY,1);</text>
<text text-anchor="start" x="1117.32" y="-228.75" font-family="Courier New" font-size="10.00" fill="blue"> &#160;&#160;&#160;&#160;&#160;&#160;&#160;&#160;&#160;&#160;&#160;SIGNAL(SID_AURA,SIG_SUB);</text>
<text text-anchor="start" x="1117.32" y="-216" font-family="Courier New" font-size="10.00" fill="blue"> &#160;&#160;&#160;&#160;&#160;&#160;&#160;&#160;&#160;&#160;&#160;SIGNALi(0,SID_ID);</text>
<text text-anchor="start" x="1117.32" y="-203.25" font-family="Courier New" font-size="10.00" fill="blue"> &#160;&#160;&#160;&#160;&#160;&#160;&#160;&#160;&#160;&#160;&#160;SIGNAL(SID_PERSIST,SIG_UPDATE);</text>
<text text-anchor="start" x="1117.32" y="-190.5" font-family="Courier New" font-size="10.00" fill="blue"> &#160;&#160;&#160;&#160;&#160;&#160;&#160;&#160;&#160;&#160;&#160;</text>
<polygon fill="none" stroke="black" points="1111.32,-181.25 1111.32,-277.75 1381.32,-277.75 1381.32,-181.25 1111.32,-181.25"/>
</g>
<!-- dead&#45;&gt;0 -->
<g id="edge15" class="edge">
<title>dead&#45;&gt;0</title>
<path fill="none" stroke="black" d="M1907.67,-131.44C1973.58,-162.69 2111.32,-241.65 2111.32,-355.75 2111.32,-1324 2111.32,-1324 2111.32,-1324 2111.32,-1399.72 2055.41,-1474.92 2022.24,-1512.87"/>
<polygon fill="black" stroke="black" points="2019.81,-1510.34 2015.75,-1520.13 2025.03,-1515 2019.81,-1510.34"/>
<text text-anchor="start" x="2115.32" y="-667.88" font-family="Courier New" font-weight="bold" font-size="10.00" fill="orange">WAIT(,SIG_MYID)</text>
</g>
<!-- dead&#45;&gt;present -->
<g id="edge14" class="edge">
<title>dead&#45;&gt;present</title>
<path fill="none" stroke="black" d="M1873.32,-137.62C1873.32,-179.32 1873.32,-275.17 1873.32,-355.75 1873.32,-901.88 1873.32,-901.88 1873.32,-901.88 1873.32,-1177.34 1450.75,-1283.57 1298.87,-1312.86"/>
<polygon fill="black" stroke="black" points="1298.65,-1309.34 1289.47,-1314.64 1299.95,-1316.22 1298.65,-1309.34"/>
<text text-anchor="start" x="1877.32" y="-608.88" font-family="Courier New" font-weight="bold" font-size="10.00" fill="orange">WAIT(,SIG_REVIVE)</text>
</g>
<!-- sitting&#45;&gt;present -->
<g id="edge22" class="edge">
<title>sitting&#45;&gt;present</title>
<path fill="none" stroke="black" d="M751.14,-672.18C822.42,-674.78 961.77,-682.79 1004.32,-706.25 1144.59,-783.62 1174.66,-836.4 1231.32,-986.25 1271.95,-1093.72 1258.35,-1234.53 1249.91,-1293.79"/>
<polygon fill="black" stroke="black" points="1246.5,-1292.93 1248.49,-1303.34 1253.42,-1293.97 1246.5,-1292.93"/>
<polygon fill="none" stroke="black" points="1226.32,-946.5 1226.32,-965.25 1820.32,-965.25 1820.32,-946.5 1226.32,-946.5"/>
<text text-anchor="start" x="1475.32" y="-953.75" font-family="Courier New" font-weight="bold" font-size="10.00" fill="orange">WAIT(0,SIG_MYID)</text>
<polygon fill="none" stroke="black" points="1226.32,-836.5 1226.32,-944.5 1820.32,-944.5 1820.32,-836.5 1226.32,-836.5"/>
<text text-anchor="start" x="1229.32" y="-932" font-family="Courier New" font-size="10.00" fill="blue"> &#160;&#160;&#160;CLEAR(WSPRITE);</text>
<text text-anchor="start" x="1229.32" y="-919.25" font-family="Courier New" font-size="10.00" fill="blue"> &#160;&#160;&#160;&#160;SHOW(0);</text>
<text text-anchor="start" x="1229.32" y="-906.5" font-family="Courier New" font-size="10.00" fill="blue"> &#160;&#160;&#160;&#160;predicate active_character(name);</text>
<text text-anchor="start" x="1229.32" y="-893.75" font-family="Courier New" font-size="10.00" fill="blue"> &#160;&#160;&#160;&#160;active_character(?BPARM)?</text>
<text text-anchor="start" x="1229.32" y="-881" font-family="Courier New" font-size="10.00" fill="blue"> &#160;&#160;&#160;&#160;predicate localplayer(name,viewname, wealth,karma, energy,strength, wisdom, gender, culture);</text>
<text text-anchor="start" x="1229.32" y="-868.25" font-family="Courier New" font-size="10.00" fill="blue"> &#160;&#160;&#160;&#160;localplayer(BPARM, ?WTEMP1, ?LWEALTH, ?LKARMA,?LENERGY,?LSTRENGTH, ?LWISDOM, ?LSEX, ?WTEMP2)?</text>
<text text-anchor="start" x="1229.32" y="-855.5" font-family="Courier New" font-size="10.00" fill="blue"> &#160;&#160;&#160;&#160;SIGNAL(SID_AURA, SIG_MYAURA);</text>
<text text-anchor="start" x="1229.32" y="-842.75" font-family="Courier New" font-size="10.00" fill="blue"> &#160;&#160;&#160;&#160;SIGNAL(SID_HALO, SIG_MYHALO);</text>
<polygon fill="none" stroke="black" points="1223.32,-833.5 1223.32,-968.25 1823.32,-968.25 1823.32,-833.5 1223.32,-833.5"/>
</g>
<!-- sitting&#45;&gt;present -->
<g id="edge34" class="edge">
<title>sitting&#45;&gt;present</title>
<path fill="none" stroke="black" d="M702.28,-688.22C674.99,-769.55 571.75,-1118.22 744.32,-1286.75 775.74,-1317.44 1068.09,-1321.66 1191.14,-1322.06"/>
<polygon fill="black" stroke="black" points="1190.98,-1325.56 1200.99,-1322.08 1191,-1318.56 1190.98,-1325.56"/>
<text text-anchor="start" x="667.32" y="-898.75" font-family="Courier New" font-weight="bold" font-size="10.00" fill="orange">WAIT(0,0)</text>
</g>
<!-- sitting&#45;&gt;100 -->
<g id="edge33" class="edge">
<title>sitting&#45;&gt;100</title>
<path fill="none" stroke="black" d="M751.05,-669.3C916.71,-670.2 1511.02,-670.78 1586.32,-633.75 1617.18,-618.57 1640.74,-585.83 1654.52,-562.36"/>
<polygon fill="black" stroke="black" points="1657.39,-564.4 1659.24,-553.96 1651.29,-560.96 1657.39,-564.4"/>
<text text-anchor="start" x="1640.32" y="-608.88" font-family="Courier New" font-weight="bold" font-size="10.00" fill="orange">WAIT(0,SIG_CLEAR)</text>
</g>
<!-- sitting&#45;&gt;20 -->
<g id="edge23" class="edge">
<title>sitting&#45;&gt;20</title>
<path fill="none" stroke="black" d="M665.66,-669.5C543.41,-670.5 198.34,-670.05 164.32,-633.75 124.06,-590.81 146.22,-515.12 162.67,-474.45"/>
<polygon fill="black" stroke="black" points="165.84,-475.93 166.51,-465.36 159.39,-473.21 165.84,-475.93"/>
<text text-anchor="start" x="168.32" y="-608.88" font-family="Courier New" font-weight="bold" font-size="10.00" fill="orange">WAIT(0,SIG_HAPPY)</text>
</g>
<!-- sitting&#45;&gt;21 -->
<g id="edge24" class="edge">
<title>sitting&#45;&gt;21</title>
<path fill="none" stroke="black" d="M750.99,-668.42C898.19,-666.23 1376.92,-657.31 1399.32,-633.75 1402.09,-630.83 1411.09,-184.53 1385.32,-155.75 1354.69,-121.56 1217.2,-116.54 1149.38,-116.19"/>
<polygon fill="black" stroke="black" points="1149.48,-112.69 1139.47,-116.18 1149.47,-119.69 1149.48,-112.69"/>
<text text-anchor="start" x="1406.32" y="-443.62" font-family="Courier New" font-weight="bold" font-size="10.00" fill="orange">WAIT(0,SIG_HURT)</text>
</g>
<!-- sitting&#45;&gt;22 -->
<g id="edge25" class="edge">
<title>sitting&#45;&gt;22</title>
<path fill="none" stroke="black" d="M665.67,-667.09C586.7,-663.12 424.19,-652.72 407.32,-633.75 393.87,-618.64 398.66,-606.52 407.32,-588.25 412.73,-576.83 419.59,-578.32 429.32,-570.25 433.29,-566.95 437.47,-563.46 441.57,-560.02"/>
<polygon fill="black" stroke="black" points="443.78,-562.74 449.18,-553.62 439.28,-557.38 443.78,-562.74"/>
<text text-anchor="start" x="411.32" y="-608.88" font-family="Courier New" font-weight="bold" font-size="10.00" fill="orange">WAIT(0,SIG_KISS)</text>
</g>
<!-- sitting&#45;&gt;23 -->
<g id="edge26" class="edge">
<title>sitting&#45;&gt;23</title>
<path fill="none" stroke="black" d="M678.82,-651.9C653.08,-634.98 617.8,-606.41 604.32,-570.25 575.56,-493.14 637.16,-472.52 655.32,-392.25 662.28,-361.47 661.68,-352.16 655.32,-321.25 650.71,-298.86 640.32,-275.17 631.42,-257.62"/>
<polygon fill="black" stroke="black" points="634.59,-256.12 626.85,-248.88 628.39,-259.37 634.59,-256.12"/>
<text text-anchor="start" x="608.32" y="-532.62" font-family="Courier New" font-weight="bold" font-size="10.00" fill="orange">WAIT(0,SIG_MAD)</text>
</g>
<!-- sitting&#45;&gt;24 -->
<g id="edge27" class="edge">
<title>sitting&#45;&gt;24</title>
<path fill="none" stroke="black" d="M684,-652.03C678.47,-646.85 673.34,-640.68 670.32,-633.75 662.23,-615.22 659.68,-605.45 670.32,-588.25 679.72,-573.03 696.19,-584.99 706.32,-570.25 725.57,-542.23 725.64,-501.82 722.87,-474.94"/>
<polygon fill="black" stroke="black" points="726.36,-474.63 721.64,-465.14 719.41,-475.5 726.36,-474.63"/>
<text text-anchor="start" x="674.32" y="-608.88" font-family="Courier New" font-weight="bold" font-size="10.00" fill="orange">WAIT(0,SIG_SAD)</text>
</g>
<!-- sitting&#45;&gt;25 -->
<g id="edge28" class="edge">
<title>sitting&#45;&gt;25</title>
<path fill="none" stroke="black" d="M749.45,-651.88C756.8,-647.05 763.61,-641.07 768.32,-633.75 784.57,-608.48 776.05,-528.64 782.32,-499.25 801.6,-408.79 840.16,-305.92 859.18,-257.9"/>
<polygon fill="black" stroke="black" points="862.34,-259.43 862.8,-248.85 855.84,-256.84 862.34,-259.43"/>
<text text-anchor="start" x="786.32" y="-532.62" font-family="Courier New" font-weight="bold" font-size="10.00" fill="orange">WAIT(0,SIG_SURPRISED)</text>
</g>
<!-- sitting&#45;&gt;26 -->
<g id="edge29" class="edge">
<title>sitting&#45;&gt;26</title>
<path fill="none" stroke="black" d="M751.06,-658.57C765.94,-653.19 781.78,-645.26 793.32,-633.75 808.83,-618.27 795.14,-601.86 812.32,-588.25 850.45,-558.02 885.32,-604.06 920.32,-570.25 945.53,-545.89 948.97,-503.62 948.02,-475.42"/>
<polygon fill="black" stroke="black" points="951.51,-475.22 947.45,-465.44 944.53,-475.62 951.51,-475.22"/>
<text text-anchor="start" x="816.32" y="-608.88" font-family="Courier New" font-weight="bold" font-size="10.00" fill="orange">WAIT(0,SIG_STRESS)</text>
</g>
<!-- sitting&#45;&gt;27 -->
<g id="edge30" class="edge">
<title>sitting&#45;&gt;27</title>
<path fill="none" stroke="black" d="M665.84,-668.96C551.33,-668.43 238.33,-664.16 140.32,-633.75 87.86,-617.48 61.6,-617.91 34.32,-570.25 -23.93,-468.51 6.46,-319.96 22.96,-258.61"/>
<polygon fill="black" stroke="black" points="26.32,-259.57 25.64,-249 19.58,-257.69 26.32,-259.57"/>
<text text-anchor="start" x="38.32" y="-532.62" font-family="Courier New" font-weight="bold" font-size="10.00" fill="orange">WAIT(0,SIG_WAVE)</text>
</g>
<!-- sitting&#45;&gt;30 -->
<g id="edge31" class="edge">
<title>sitting&#45;&gt;30</title>
<path fill="none" stroke="black" d="M751.06,-668.88C896.54,-668.18 1366.8,-663.62 1427.32,-633.75 1458.14,-618.53 1481.94,-586.1 1496,-562.7"/>
<polygon fill="black" stroke="black" points="1498.88,-564.72 1500.84,-554.31 1492.81,-561.23 1498.88,-564.72"/>
<text text-anchor="start" x="1482.32" y="-608.88" font-family="Courier New" font-weight="bold" font-size="10.00" fill="orange">WAIT(0,SIG_DEAD)</text>
</g>
<!-- sitting&#45;&gt;50 -->
<g id="edge32" class="edge">
<title>sitting&#45;&gt;50</title>
<path fill="none" stroke="black" d="M751.1,-666.86C807.85,-663.26 904.15,-654.26 932.32,-633.75 950.63,-620.41 940.7,-605.57 955.32,-588.25 965.15,-576.6 978.05,-566.08 990.16,-557.57"/>
<polygon fill="black" stroke="black" points="992.03,-560.53 998.37,-552.04 988.12,-554.73 992.03,-560.53"/>
<polygon fill="none" stroke="black" points="958.32,-612 958.32,-630.75 1396.32,-630.75 1396.32,-612 958.32,-612"/>
<text text-anchor="start" x="1129.32" y="-619.25" font-family="Courier New" font-weight="bold" font-size="10.00" fill="orange">WAIT(0,SIG_BOMB)</text>
<polygon fill="none" stroke="black" points="958.32,-591.25 958.32,-610 1396.32,-610 1396.32,-591.25 958.32,-591.25"/>
<text text-anchor="start" x="961.32" y="-597.5" font-family="Courier New" font-size="10.00" fill="blue"> &#160;&#160;&#160;&#160;WRITE(&quot;I am S_ID and I receive signals! This one is a SIG_BOMB! &quot;);</text>
<polygon fill="none" stroke="black" points="955.32,-588.25 955.32,-633.75 1399.32,-633.75 1399.32,-588.25 955.32,-588.25"/>
</g>
<!-- setId&#45;&gt;sitting -->
<g id="edge21" class="edge">
<title>setId&#45;&gt;sitting</title>
<path fill="none" stroke="black" d="M811.9,-882.67C792.59,-843.23 745.01,-745.99 721.67,-698.29"/>
<polygon fill="black" stroke="black" points="724.88,-696.89 717.34,-689.45 718.6,-699.97 724.88,-696.89"/>
<polygon fill="none" stroke="black" points="781.32,-793.75 781.32,-812.5 997.32,-812.5 997.32,-793.75 781.32,-793.75"/>
<text text-anchor="start" x="826.32" y="-801" font-family="Courier New" font-weight="bold" font-size="10.00" fill="blue">ASSIGN(WSPRITE,happy)</text>
<polygon fill="none" stroke="black" points="781.32,-709.25 781.32,-791.75 997.32,-791.75 997.32,-709.25 781.32,-709.25"/>
<text text-anchor="start" x="784.32" y="-779.25" font-family="Courier New" font-size="10.00" fill="blue"> &#160;&#160;&#160;MAP(WSPRITE,WPARM);</text>
<text text-anchor="start" x="784.32" y="-766.5" font-family="Courier New" font-size="10.00" fill="blue"> &#160;&#160;&#160;ASSIGN(BFRAME,0);</text>
<text text-anchor="start" x="784.32" y="-753.75" font-family="Courier New" font-size="10.00" fill="blue"> &#160;&#160;&#160;SHOW(WSPRITE);</text>
<text text-anchor="start" x="784.32" y="-741" font-family="Courier New" font-size="10.00" fill="blue"> &#160;&#160;&#160;SIGNAL(SID_AURA, SIG_MYAURA);</text>
<text text-anchor="start" x="784.32" y="-728.25" font-family="Courier New" font-size="10.00" fill="blue"> &#160;&#160;&#160;SIGNAL(SID_HALO, SIG_MYHALO);</text>
<text text-anchor="start" x="784.32" y="-715.5" font-family="Courier New" font-size="10.00" fill="blue"> &#160;&#160;&#160;SIGNAL(SID_PERSIST,SIG_UPDATE);</text>
<polygon fill="none" stroke="black" points="778.32,-706.25 778.32,-815.5 1000.32,-815.5 1000.32,-706.25 778.32,-706.25"/>
</g>
<!-- status -->
<g id="node23" class="node">
<title>status</title>
<polygon fill="none" stroke="black" points="2043.32,-1499.75 2043.32,-1578.75 2485.32,-1578.75 2485.32,-1499.75 2043.32,-1499.75"/>
<polygon fill="none" stroke="black" points="2054.32,-1553 2054.32,-1571.75 2474.32,-1571.75 2474.32,-1553 2054.32,-1553"/>
<text text-anchor="start" x="2246.32" y="-1560.25" font-family="Courier New" font-weight="bold" font-size="10.00">SID_ID</text>
<polygon fill="none" stroke="black" points="2054.32,-1506.75 2054.32,-1551 2474.32,-1551 2474.32,-1506.75 2054.32,-1506.75"/>
<text text-anchor="start" x="2057.32" y="-1538.5" font-family="Courier New" font-size="10.00" fill="green">VIEW::IDV_ID @pos(x:0, y:0, h:101, w:171)</text>
<text text-anchor="start" x="2057.32" y="-1525.75" font-family="Courier New" font-size="10.00" fill="green">SID_ID::M_ID(&#39;&#39;,&#39;&#39;,&#39;0&#39;,&#39;SID_AURA&#39;,&#39;&#39;,&#39;&#39;)</text>
<text text-anchor="start" x="2057.32" y="-1513" font-family="Courier New" font-size="10.00" fill="green">{state:&#39;dead&#39;: wParm:F1 wSprite:IDS_FID1EX bFrame:32 Top:0 Left:0 Z:0</text>
<polygon fill="none" stroke="black" points="2051.32,-1503.75 2051.32,-1574.75 2477.32,-1574.75 2477.32,-1503.75 2051.32,-1503.75"/>
</g>
</g>
</svg>
