<?xml version="1.0" encoding="UTF-8" standalone="no"?>
<!DOCTYPE svg PUBLIC "-//W3C//DTD SVG 1.1//EN"
 "http://www.w3.org/Graphics/SVG/1.1/DTD/svg11.dtd">
<!-- Generated by graphviz version 10.0.1 (20240210.2158)
 -->
<!-- Title: Automaton Pages: 1 -->
<svg width="616pt" height="244pt"
 viewBox="0.00 0.00 616.00 244.25" xmlns="http://www.w3.org/2000/svg" xmlns:xlink="http://www.w3.org/1999/xlink">
<g id="graph0" class="graph" transform="scale(1 1) rotate(0) translate(4 240.25)">
<title>Automaton</title>
<polygon fill="white" stroke="none" points="-4,4 -4,-240.25 612,-240.25 612,4 -4,4"/>
<!-- filename -->
<g id="node1" class="node">
<title>filename</title>
<polygon fill="none" stroke="black" points="0,-169.5 0,-223 196,-223 196,-169.5 0,-169.5"/>
<polygon fill="none" stroke="black" points="11,-197.25 11,-216 185,-216 185,-197.25 11,-197.25"/>
<text text-anchor="start" x="14" y="-204.5" font-family="Courier New" font-weight="bold" font-size="10.00">SMP_BACKBUTTON::M_BACKBUTTON</text>
<polygon fill="none" stroke="black" points="11,-176.5 11,-195.25 185,-195.25 185,-176.5 11,-176.5"/>
<text text-anchor="start" x="53" y="-182.75" font-family="Courier New" font-size="10.00" fill="brown">start state = 0</text>
<polygon fill="none" stroke="black" points="8,-173.5 8,-219 188,-219 188,-173.5 8,-173.5"/>
</g>
<!-- 0 -->
<g id="node2" class="node">
<title>0</title>
<polyline fill="none" stroke="darkred" stroke-width="3" points="233.38,-184.5 248.62,-184.5"/>
<text text-anchor="start" x="236.88" y="-192.2" font-family="Courier New" font-weight="bold" font-size="14.00">0</text>
<path fill="none" stroke="darkred" stroke-width="3" d="M236.79,-179.5C236.79,-179.5 245.21,-179.5 245.21,-179.5 249.42,-179.5 253.62,-183.71 253.62,-187.92 253.62,-187.92 253.62,-204.58 253.62,-204.58 253.62,-208.79 249.42,-213 245.21,-213 245.21,-213 236.79,-213 236.79,-213 232.58,-213 228.38,-208.79 228.38,-204.58 228.38,-204.58 228.38,-187.92 228.38,-187.92 228.38,-183.71 232.58,-179.5 236.79,-179.5"/>
</g>
<!-- 1 -->
<g id="node3" class="node">
<title>1</title>
<polyline fill="none" stroke="darkred" points="232.88,-7 247.12,-7"/>
<text text-anchor="start" x="235.88" y="-14.2" font-family="Courier New" font-weight="bold" font-size="14.00">1</text>
<path fill="none" stroke="darkred" d="M236.62,-4C236.62,-4 243.38,-4 243.38,-4 246.75,-4 250.12,-7.38 250.12,-10.75 250.12,-10.75 250.12,-25.75 250.12,-25.75 250.12,-29.12 246.75,-32.5 243.38,-32.5 243.38,-32.5 236.62,-32.5 236.62,-32.5 233.25,-32.5 229.88,-29.12 229.88,-25.75 229.88,-25.75 229.88,-10.75 229.88,-10.75 229.88,-7.38 233.25,-4 236.62,-4"/>
</g>
<!-- 0&#45;&gt;1 -->
<g id="edge1" class="edge">
<title>0&#45;&gt;1</title>
<path fill="none" stroke="black" d="M221.97,-174.19C210.97,-161.47 198.77,-146.23 196,-138.25 183.79,-103.09 179.89,-88.05 196,-54.5 198.2,-49.91 201.33,-45.73 204.91,-41.98"/>
<polygon fill="black" stroke="black" points="207.05,-44.76 212.17,-35.49 202.39,-39.54 207.05,-44.76"/>
<text text-anchor="start" x="200" y="-94.25" font-family="Courier New" font-weight="bold" font-size="10.00" fill="orange">CLICK(0,0)</text>
</g>
<!-- 1&#45;&gt;0 -->
<g id="edge2" class="edge">
<title>1&#45;&gt;0</title>
<path fill="none" stroke="black" d="M254.71,-36.46C258.49,-41.88 262.04,-48.13 264,-54.5 274.96,-90.07 271.09,-101.71 264,-138.25 262.35,-146.75 259.44,-155.58 256.23,-163.69"/>
<polygon fill="black" stroke="black" points="253.04,-162.23 252.35,-172.8 259.48,-164.97 253.04,-162.23"/>
<polygon fill="none" stroke="black" points="273,-116.5 273,-135.25 567,-135.25 567,-116.5 273,-116.5"/>
<text text-anchor="start" x="351" y="-123.75" font-family="Courier New" font-weight="bold" font-size="10.00" fill="blue">PLAYWAVE(0,SOUND_POPUP)</text>
<polygon fill="none" stroke="black" points="273,-57.5 273,-114.5 567,-114.5 567,-57.5 273,-57.5"/>
<text text-anchor="start" x="276" y="-102" font-family="Courier New" font-size="10.00" fill="blue"> &#160;&#160;&#160;if(LVIEW != IDV_BANISH){</text>
<text text-anchor="start" x="276" y="-89.25" font-family="Courier New" font-size="10.00" fill="blue"> &#160;&#160;&#160;&#160;&#160;&#160;&#160;LOADVIEW(IDV_TOPMENU);</text>
<text text-anchor="start" x="276" y="-76.5" font-family="Courier New" font-size="10.00" fill="blue"> &#160;&#160;&#160;&#160;&#160;&#160;&#160;SIGNAL(AUD_MUSIC_PLAYER, SIG_INTRO_MIX);</text>
<text text-anchor="start" x="276" y="-63.75" font-family="Courier New" font-size="10.00" fill="blue"> &#160;&#160;&#160;}</text>
<polygon fill="none" stroke="black" points="270,-54.5 270,-138.25 570,-138.25 570,-54.5 270,-54.5"/>
</g>
<!-- status -->
<g id="node4" class="node">
<title>status</title>
<polygon fill="none" stroke="black" points="286,-156.75 286,-235.75 608,-235.75 608,-156.75 286,-156.75"/>
<polygon fill="none" stroke="black" points="297,-210 297,-228.75 597,-228.75 597,-210 297,-210"/>
<text text-anchor="start" x="405" y="-217.25" font-family="Courier New" font-weight="bold" font-size="10.00">SMP_BACKBUTTON</text>
<polygon fill="none" stroke="black" points="297,-163.75 297,-208 597,-208 597,-163.75 297,-163.75"/>
<text text-anchor="start" x="300" y="-195.5" font-family="Courier New" font-size="10.00" fill="green">VIEW::IDV_MAIN_PANEL @pos(x:61, y:10, h:39, w:36)</text>
<text text-anchor="start" x="300" y="-182.75" font-family="Courier New" font-size="10.00" fill="green">SMP_BACKBUTTON::M_BACKBUTTON(&#39;&#39;,&#39;&#39;,&#39;&#39;,&#39;&#39;,&#39;&#39;,&#39;&#39;)</text>
<text text-anchor="start" x="300" y="-170" font-family="Courier New" font-size="10.00" fill="green">{state:&#39;0&#39;: Top:10 Left:61 Z:0</text>
<polygon fill="none" stroke="black" points="294,-160.75 294,-231.75 600,-231.75 600,-160.75 294,-160.75"/>
</g>
</g>
</svg>
