<?xml version="1.0" encoding="UTF-8" standalone="no"?>
<!DOCTYPE svg PUBLIC "-//W3C//DTD SVG 1.1//EN"
 "http://www.w3.org/Graphics/SVG/1.1/DTD/svg11.dtd">
<!-- Generated by graphviz version 10.0.1 (20240210.2158)
 -->
<!-- Title: Automaton Pages: 1 -->
<svg width="3099pt" height="885pt"
 viewBox="0.00 0.00 3099.28 885.00" xmlns="http://www.w3.org/2000/svg" xmlns:xlink="http://www.w3.org/1999/xlink">
<g id="graph0" class="graph" transform="scale(1 1) rotate(0) translate(4 881)">
<title>Automaton</title>
<polygon fill="white" stroke="none" points="-4,4 -4,-881 3095.28,-881 3095.28,4 -4,4"/>
<!-- filename -->
<g id="node1" class="node">
<title>filename</title>
<polygon fill="none" stroke="black" points="334.28,-810.25 334.28,-863.75 494.28,-863.75 494.28,-810.25 334.28,-810.25"/>
<polygon fill="none" stroke="black" points="345.28,-838 345.28,-856.75 483.28,-856.75 483.28,-838 345.28,-838"/>
<text text-anchor="start" x="348.28" y="-845.25" font-family="Courier New" font-weight="bold" font-size="10.00">SMP_EYEINFO::M_EYEINFO</text>
<polygon fill="none" stroke="black" points="345.28,-817.25 345.28,-836 483.28,-836 483.28,-817.25 345.28,-817.25"/>
<text text-anchor="start" x="369.28" y="-823.5" font-family="Courier New" font-size="10.00" fill="brown">start state = 0</text>
<polygon fill="none" stroke="black" points="342.28,-814.25 342.28,-859.75 486.28,-859.75 486.28,-814.25 342.28,-814.25"/>
</g>
<!-- 0 -->
<g id="node2" class="node">
<title>0</title>
<polyline fill="none" stroke="darkred" stroke-width="3" points="531.65,-825.25 546.9,-825.25"/>
<text text-anchor="start" x="535.15" y="-832.95" font-family="Courier New" font-weight="bold" font-size="14.00">0</text>
<path fill="none" stroke="darkred" stroke-width="3" d="M535.07,-820.25C535.07,-820.25 543.49,-820.25 543.49,-820.25 547.69,-820.25 551.9,-824.46 551.9,-828.67 551.9,-828.67 551.9,-845.33 551.9,-845.33 551.9,-849.54 547.69,-853.75 543.49,-853.75 543.49,-853.75 535.07,-853.75 535.07,-853.75 530.86,-853.75 526.65,-849.54 526.65,-845.33 526.65,-845.33 526.65,-828.67 526.65,-828.67 526.65,-824.46 530.86,-820.25 535.07,-820.25"/>
</g>
<!-- checkObject -->
<g id="node3" class="node">
<title>checkObject</title>
<polyline fill="none" stroke="darkred" points="861.9,-252.5 958.65,-252.5"/>
<text text-anchor="start" x="864.9" y="-259.7" font-family="Courier New" font-weight="bold" font-size="14.00">checkObject</text>
<path fill="none" stroke="darkred" d="M868.4,-249.5C868.4,-249.5 952.15,-249.5 952.15,-249.5 956.9,-249.5 961.65,-254.25 961.65,-259 961.65,-259 961.65,-268.5 961.65,-268.5 961.65,-273.25 956.9,-278 952.15,-278 952.15,-278 868.4,-278 868.4,-278 863.65,-278 858.9,-273.25 858.9,-268.5 858.9,-268.5 858.9,-259 858.9,-259 858.9,-254.25 863.65,-249.5 868.4,-249.5"/>
</g>
<!-- 0&#45;&gt;checkObject -->
<g id="edge1" class="edge">
<title>0&#45;&gt;checkObject</title>
<path fill="none" stroke="black" d="M524.07,-814.81C518.28,-808.16 511.16,-801.41 503.28,-797 467.3,-776.86 438.45,-810.86 412.28,-779 395.39,-758.44 394.14,-319.47 412.28,-300 440.78,-269.41 709.16,-264.91 839.67,-264.54"/>
<polygon fill="black" stroke="black" points="839.6,-268.05 849.59,-264.53 839.58,-261.05 839.6,-268.05"/>
<polygon fill="none" stroke="black" points="415.28,-546.88 415.28,-565.62 643.28,-565.62 643.28,-546.88 415.28,-546.88"/>
<text text-anchor="start" x="502.28" y="-554.12" font-family="Courier New" font-weight="bold" font-size="10.00" fill="orange">DROP(0,0)</text>
<polygon fill="none" stroke="black" points="415.28,-513.38 415.28,-544.88 643.28,-544.88 643.28,-513.38 415.28,-513.38"/>
<text text-anchor="start" x="418.28" y="-532.38" font-family="Courier New" font-size="10.00" fill="blue">PLAYWAVE(SOUND_POPUP);ASHOW(WOBJECT);</text>
<text text-anchor="start" x="418.28" y="-519.62" font-family="Courier New" font-size="10.00" fill="blue">MOV(BPARM,LVIEW);</text>
<polygon fill="none" stroke="black" points="412.28,-510.38 412.28,-568.62 646.28,-568.62 646.28,-510.38 412.28,-510.38"/>
</g>
<!-- replacedView -->
<g id="node4" class="node">
<title>replacedView</title>
<polyline fill="none" stroke="darkred" points="217.78,-252.5 322.78,-252.5"/>
<text text-anchor="start" x="220.78" y="-259.7" font-family="Courier New" font-weight="bold" font-size="14.00">replacedView</text>
<path fill="none" stroke="darkred" d="M224.28,-249.5C224.28,-249.5 316.28,-249.5 316.28,-249.5 321.03,-249.5 325.78,-254.25 325.78,-259 325.78,-259 325.78,-268.5 325.78,-268.5 325.78,-273.25 321.03,-278 316.28,-278 316.28,-278 224.28,-278 224.28,-278 219.53,-278 214.78,-273.25 214.78,-268.5 214.78,-268.5 214.78,-259 214.78,-259 214.78,-254.25 219.53,-249.5 224.28,-249.5"/>
</g>
<!-- 0&#45;&gt;replacedView -->
<g id="edge2" class="edge">
<title>0&#45;&gt;replacedView</title>
<path fill="none" stroke="black" d="M525.12,-814.95C519.24,-807.96 511.8,-800.97 503.28,-797 464.05,-778.73 144.16,-810.29 114.28,-779 40.77,-702.01 47.82,-383.15 114.28,-300 114.63,-299.55 155.87,-290.25 195.84,-281.31"/>
<polygon fill="black" stroke="black" points="196.58,-284.73 205.57,-279.14 195.05,-277.9 196.58,-284.73"/>
<polygon fill="none" stroke="black" points="117.28,-540.5 117.28,-559.25 207.28,-559.25 207.28,-540.5 117.28,-540.5"/>
<text text-anchor="start" x="135.28" y="-547.75" font-family="Courier New" font-weight="bold" font-size="10.00" fill="orange">GRAB(0,0)</text>
<polygon fill="none" stroke="black" points="117.28,-519.75 117.28,-538.5 207.28,-538.5 207.28,-519.75 117.28,-519.75"/>
<text text-anchor="start" x="120.28" y="-526" font-family="Courier New" font-size="10.00" fill="blue"> &#160;&#160;&#160;&#160;&#160;SHOW(0);</text>
<polygon fill="none" stroke="black" points="114.28,-516.75 114.28,-562.25 210.28,-562.25 210.28,-516.75 114.28,-516.75"/>
</g>
<!-- checkObject&#45;&gt;0 -->
<g id="edge5" class="edge">
<title>checkObject&#45;&gt;0</title>
<path fill="none" stroke="black" d="M851.18,-265.1C787.76,-266.86 692.93,-273.93 669.28,-300 633.48,-339.46 680,-737.74 646.28,-779 625.68,-804.21 603.25,-780.35 575.28,-797 570.67,-799.74 566.3,-803.25 562.29,-807.04"/>
<polygon fill="black" stroke="black" points="560.06,-804.31 555.67,-813.95 565.11,-809.15 560.06,-804.31"/>
<polygon fill="none" stroke="black" points="672.28,-757.25 672.28,-776 1128.28,-776 1128.28,-757.25 672.28,-757.25"/>
<text text-anchor="start" x="831.28" y="-764.5" font-family="Courier New" font-weight="bold" font-size="10.00" fill="blue">IS_A(WOBJECT,ISA_DIARY)</text>
<polygon fill="none" stroke="black" points="672.28,-303 672.28,-755.25 1128.28,-755.25 1128.28,-303 672.28,-303"/>
<text text-anchor="start" x="675.28" y="-742.75" font-family="Courier New" font-size="10.00" fill="blue">MOV(WPARM,WOBJECT);</text>
<text text-anchor="start" x="675.28" y="-730" font-family="Courier New" font-size="10.00" fill="blue"> &#160;&#160;&#160;&#160;&#160;&#160;&#160;if((WOBJECT == IDD_DIARY1 )){</text>
<text text-anchor="start" x="675.28" y="-717.25" font-family="Courier New" font-size="10.00" fill="blue"> &#160;&#160;&#160;&#160;&#160;&#160;&#160;&#160;&#160;&#160;&#160;&#160;&#160;&#160;&#160;&#160;SIGNAL(NIRET_DIARY_WAITER,SIG_DIARY);</text>
<text text-anchor="start" x="675.28" y="-704.5" font-family="Courier New" font-size="10.00" fill="blue"> &#160;&#160;&#160;&#160;&#160;&#160;&#160;&#160;&#160;&#160;&#160;&#160;&#160;&#160;&#160;&#160;&#160;&#160;q_world_active(?TEMP1, &quot;2&quot;);</text>
<text text-anchor="start" x="675.28" y="-691.75" font-family="Courier New" font-size="10.00" fill="blue"> &#160;&#160;&#160;&#160;&#160;&#160;&#160;&#160;&#160;&#160;&#160;&#160;&#160;&#160;&#160;&#160;&#160;&#160;&#160;&#160;&#160;&#160;&#160;if(TEMP1 != &quot; Recover the seed of Azarian unity.&quot;){</text>
<text text-anchor="start" x="675.28" y="-679" font-family="Courier New" font-size="10.00" fill="blue"> &#160;&#160;&#160;&#160;&#160;&#160;&#160;&#160;&#160;&#160;&#160;&#160;&#160;&#160;&#160;&#160;&#160;&#160;&#160;&#160;&#160;&#160;&#160;&#160;&#160;&#160;&#160;&#160;&#160;&#160;&#160;SIGNAL(QL_MANAGER,Q2_START);</text>
<text text-anchor="start" x="675.28" y="-666.25" font-family="Courier New" font-size="10.00" fill="blue"> &#160;&#160;&#160;&#160;&#160;&#160;&#160;&#160;&#160;&#160;&#160;&#160;&#160;&#160;&#160;&#160;&#160;&#160;&#160;&#160;&#160;&#160;&#160;}</text>
<text text-anchor="start" x="675.28" y="-653.5" font-family="Courier New" font-size="10.00" fill="blue"> &#160;&#160;&#160;&#160;&#160;&#160;&#160;}</text>
<text text-anchor="start" x="675.28" y="-640.75" font-family="Courier New" font-size="10.00" fill="blue"> &#160;&#160;&#160;&#160;&#160;&#160;&#160;if((WOBJECT == IDD_DIARY2 )){</text>
<text text-anchor="start" x="675.28" y="-628" font-family="Courier New" font-size="10.00" fill="blue"> &#160;&#160;&#160;&#160;&#160;&#160;&#160;&#160;&#160;&#160;&#160;&#160;&#160;&#160;&#160;&#160;SIGNAL(ORIE_DIARY_WAITER,SIG_DIARY);</text>
<text text-anchor="start" x="675.28" y="-615.25" font-family="Courier New" font-size="10.00" fill="blue"> &#160;&#160;&#160;&#160;&#160;&#160;&#160;}</text>
<text text-anchor="start" x="675.28" y="-602.5" font-family="Courier New" font-size="10.00" fill="blue"> &#160;&#160;&#160;&#160;&#160;&#160;&#160;&#160;if((WOBJECT == IDD_DIARY3 )){</text>
<text text-anchor="start" x="675.28" y="-589.75" font-family="Courier New" font-size="10.00" fill="blue"> &#160;&#160;&#160;&#160;&#160;&#160;&#160;&#160;&#160;&#160;&#160;&#160;&#160;&#160;&#160;&#160;SIGNAL(ETNOC_DIARY_WAITER,SIG_DIARY);</text>
<text text-anchor="start" x="675.28" y="-577" font-family="Courier New" font-size="10.00" fill="blue"> &#160;&#160;&#160;&#160;&#160;&#160;&#160;}</text>
<text text-anchor="start" x="675.28" y="-564.25" font-family="Courier New" font-size="10.00" fill="blue"> &#160;&#160;&#160;&#160;&#160;&#160;&#160;&#160;if((WOBJECT == IDD_DIARY4 )){</text>
<text text-anchor="start" x="675.28" y="-551.5" font-family="Courier New" font-size="10.00" fill="blue"> &#160;&#160;&#160;&#160;&#160;&#160;&#160;&#160;&#160;&#160;&#160;&#160;&#160;&#160;&#160;&#160;SIGNAL(ETNOC_DIARY_WAITER,SIG_DIARY);</text>
<text text-anchor="start" x="675.28" y="-538.75" font-family="Courier New" font-size="10.00" fill="blue"> &#160;&#160;&#160;&#160;&#160;&#160;&#160;}</text>
<text text-anchor="start" x="675.28" y="-526" font-family="Courier New" font-size="10.00" fill="blue"> &#160;&#160;&#160;&#160;&#160;&#160;&#160;&#160;if((WOBJECT == IDD_DIARY5 )){</text>
<text text-anchor="start" x="675.28" y="-513.25" font-family="Courier New" font-size="10.00" fill="blue"> &#160;&#160;&#160;&#160;&#160;&#160;&#160;&#160;&#160;&#160;&#160;&#160;&#160;&#160;&#160;&#160;&#160;SIGNAL(NIRET_DIARY_WAITER,SIG_DIARY);</text>
<text text-anchor="start" x="675.28" y="-500.5" font-family="Courier New" font-size="10.00" fill="blue"> &#160;&#160;&#160;&#160;&#160;&#160;&#160;&#160;&#160;&#160;&#160;&#160;&#160;&#160;&#160;&#160;&#160;q_world_active(?TEMP1, &quot;6&quot;);</text>
<text text-anchor="start" x="675.28" y="-487.75" font-family="Courier New" font-size="10.00" fill="blue"> &#160;&#160;&#160;&#160;&#160;&#160;&#160;&#160;&#160;&#160;&#160;&#160;&#160;&#160;&#160;&#160;&#160;&#160;&#160;&#160;&#160;&#160;&#160;if(TEMP1 != &quot; Perform the ritual of the 7 moons.&quot;){</text>
<text text-anchor="start" x="675.28" y="-475" font-family="Courier New" font-size="10.00" fill="blue"> &#160;&#160;&#160;&#160;&#160;&#160;&#160;&#160;&#160;&#160;&#160;&#160;&#160;&#160;&#160;&#160;&#160;&#160;&#160;&#160;&#160;&#160;&#160;&#160;&#160;&#160;&#160;&#160;&#160;&#160;&#160;SIGNAL(QL_MANAGER,Q6_START);</text>
<text text-anchor="start" x="675.28" y="-462.25" font-family="Courier New" font-size="10.00" fill="blue"> &#160;&#160;&#160;&#160;&#160;&#160;&#160;&#160;&#160;&#160;&#160;&#160;&#160;&#160;&#160;&#160;&#160;&#160;&#160;&#160;&#160;&#160;&#160;}</text>
<text text-anchor="start" x="675.28" y="-449.5" font-family="Courier New" font-size="10.00" fill="blue"> &#160;&#160;&#160;&#160;&#160;&#160;&#160;}</text>
<text text-anchor="start" x="675.28" y="-436.75" font-family="Courier New" font-size="10.00" fill="blue"> &#160;&#160;&#160;&#160;&#160;&#160;&#160;if((WOBJECT == IDD_DIARY8 )){</text>
<text text-anchor="start" x="675.28" y="-424" font-family="Courier New" font-size="10.00" fill="blue"> &#160;&#160;&#160;&#160;&#160;&#160;&#160;&#160;&#160;&#160;&#160;&#160;&#160;&#160;&#160;&#160;SIGNAL(NIRET_DIARY_WAITER,SIG_DIARY);</text>
<text text-anchor="start" x="675.28" y="-411.25" font-family="Courier New" font-size="10.00" fill="blue"> &#160;&#160;&#160;&#160;&#160;&#160;&#160;&#160;&#160;&#160;&#160;&#160;&#160;&#160;&#160;&#160;&#160;&#160;q_world_active(?TEMP1, &quot;4&quot;);</text>
<text text-anchor="start" x="675.28" y="-398.5" font-family="Courier New" font-size="10.00" fill="blue"> &#160;&#160;&#160;&#160;&#160;&#160;&#160;&#160;&#160;&#160;&#160;&#160;&#160;&#160;&#160;&#160;&#160;&#160;&#160;&#160;&#160;&#160;&#160;if(TEMP1 != &quot; Restore the pyramid of the eyes.&quot;){</text>
<text text-anchor="start" x="675.28" y="-385.75" font-family="Courier New" font-size="10.00" fill="blue"> &#160;&#160;&#160;&#160;&#160;&#160;&#160;&#160;&#160;&#160;&#160;&#160;&#160;&#160;&#160;&#160;&#160;&#160;&#160;&#160;&#160;&#160;&#160;&#160;&#160;&#160;&#160;&#160;&#160;&#160;&#160;SIGNAL(QL_MANAGER,Q4_START);</text>
<text text-anchor="start" x="675.28" y="-373" font-family="Courier New" font-size="10.00" fill="blue"> &#160;&#160;&#160;&#160;&#160;&#160;&#160;&#160;&#160;&#160;&#160;&#160;&#160;&#160;&#160;&#160;&#160;&#160;&#160;&#160;&#160;&#160;&#160;}</text>
<text text-anchor="start" x="675.28" y="-360.25" font-family="Courier New" font-size="10.00" fill="blue"> &#160;&#160;&#160;&#160;&#160;&#160;&#160;}</text>
<text text-anchor="start" x="675.28" y="-347.5" font-family="Courier New" font-size="10.00" fill="blue"> &#160;&#160;&#160;&#160;&#160;&#160;&#160;&#160;if((WOBJECT == IDD_DIARY9 )){</text>
<text text-anchor="start" x="675.28" y="-334.75" font-family="Courier New" font-size="10.00" fill="blue"> &#160;&#160;&#160;&#160;&#160;&#160;&#160;&#160;&#160;&#160;&#160;&#160;&#160;&#160;&#160;&#160;SIGNAL(NIRET_DIARY_WAITER,SIG_DIARY);</text>
<text text-anchor="start" x="675.28" y="-322" font-family="Courier New" font-size="10.00" fill="blue"> &#160;&#160;&#160;&#160;&#160;&#160;&#160;}</text>
<text text-anchor="start" x="675.28" y="-309.25" font-family="Courier New" font-size="10.00" fill="blue"> &#160;&#160;&#160;&#160;&#160;&#160;&#160;</text>
<polygon fill="none" stroke="black" points="669.28,-300 669.28,-779 1131.28,-779 1131.28,-300 669.28,-300"/>
</g>
<!-- checkObject&#45;&gt;0 -->
<g id="edge6" class="edge">
<title>checkObject&#45;&gt;0</title>
<path fill="none" stroke="black" d="M969.52,-265.83C1027.78,-268.3 1110.85,-276.06 1131.28,-300 1148.55,-320.24 1149.79,-759.88 1131.28,-779 1109.78,-801.2 603.38,-784.15 575.28,-797 570.2,-799.32 565.51,-802.73 561.31,-806.57"/>
<polygon fill="black" stroke="black" points="558.81,-804.13 554.45,-813.79 563.88,-808.95 558.81,-804.13"/>
<polygon fill="none" stroke="black" points="1147.28,-591.5 1147.28,-610.25 2821.28,-610.25 2821.28,-591.5 1147.28,-591.5"/>
<text text-anchor="start" x="1948.28" y="-598.75" font-family="Courier New" font-weight="bold" font-size="10.00" fill="blue">Z_EPSILON(,)</text>
<polygon fill="none" stroke="black" points="1147.28,-468.75 1147.28,-589.5 2821.28,-589.5 2821.28,-468.75 1147.28,-468.75"/>
<text text-anchor="start" x="1150.28" y="-577" font-family="Courier New" font-size="10.00" fill="blue"> &#160;&#160;&#160;&#160;&#160;&#160;</text>
<text text-anchor="start" x="1150.28" y="-564.25" font-family="Courier New" font-size="10.00" fill="blue">if(IS_A(WOBJECT,IDD_SCOOPE) \|\| IS_A(WOBJECT,IDD_SCOOPF)){</text>
<text text-anchor="start" x="1150.28" y="-551.5" font-family="Courier New" font-size="10.00" fill="blue"> &#160;&#160;&#160;&#160;&#160;&#160;&#160;&#160;&#160;&#160;&#160;&#160;&#160;&#160;&#160;MOV(WPARM,WOBJECT);</text>
<text text-anchor="start" x="1150.28" y="-538.75" font-family="Courier New" font-size="10.00" fill="blue"> &#160;&#160;&#160;&#160;&#160;&#160;&#160;&#160;&#160;&#160;&#160;&#160;&#160;&#160;&#160;SIGNAL(NYSTROM_WAITER,SIG_NYSTROM);</text>
<text text-anchor="start" x="1150.28" y="-526" font-family="Courier New" font-size="10.00" fill="blue"> &#160;&#160;&#160;&#160;&#160;&#160;&#160;&#160;&#160;&#160;&#160;&#160;&#160;&#160;&#160;}</text>
<text text-anchor="start" x="1150.28" y="-513.25" font-family="Courier New" font-size="10.00" fill="blue"> &#160;&#160;&#160;&#160;&#160;&#160;if(IS_A(WOBJECT,IDC_NULL) \|\| IS_A(WOBJECT,IDC_BOMB) \|\| IS_A(WOBJECT,IDC_FISH) \|\| IS_A(WOBJECT,IDC_SPELL) \|\| IS_A(WOBJECT,IDC_BAIT) \|\| IS_A(WOBJECT,IDC_TOKEN)\|\| IS_A(WOBJECT,ISA_TOOL_DIGGER)\|\| IS_A(WOBJECT,ISA_TOOL_STRIKER)\|\| IS_A(WOBJECT,ISA_TOOL_PRYER)){</text>
<text text-anchor="start" x="1150.28" y="-500.5" font-family="Courier New" font-size="10.00" fill="blue"> &#160;&#160;&#160;&#160;&#160;&#160;&#160;&#160;&#160;&#160;&#160;&#160;&#160;&#160;&#160;MOV(WPARM,WOBJECT);</text>
<text text-anchor="start" x="1150.28" y="-487.75" font-family="Courier New" font-size="10.00" fill="blue"> &#160;&#160;&#160;&#160;&#160;&#160;&#160;&#160;&#160;&#160;&#160;&#160;&#160;&#160;&#160;SIGNAL(OBJECT_WAITER,SIG_OBJECT);</text>
<text text-anchor="start" x="1150.28" y="-475" font-family="Courier New" font-size="10.00" fill="blue"> &#160;&#160;&#160;&#160;&#160;&#160;&#160;&#160;&#160;&#160;&#160;&#160;&#160;&#160;&#160;}</text>
<polygon fill="none" stroke="black" points="1144.28,-465.75 1144.28,-613.25 2824.28,-613.25 2824.28,-465.75 1144.28,-465.75"/>
</g>
<!-- checkObject&#45;&gt;0 -->
<g id="edge7" class="edge">
<title>checkObject&#45;&gt;0</title>
<path fill="none" stroke="black" d="M969.45,-264.71C1288.95,-264.62 2794.91,-266.01 2828.28,-300 2865.56,-337.98 2865.76,-741.22 2828.28,-779 2806.24,-801.22 603.89,-784.33 575.28,-797 570.18,-799.26 565.47,-802.63 561.26,-806.46"/>
<polygon fill="black" stroke="black" points="558.76,-804.02 554.4,-813.67 563.83,-808.85 558.76,-804.02"/>
<text text-anchor="start" x="2860.28" y="-537.38" font-family="Courier New" font-weight="bold" font-size="10.00" fill="blue">Z_EPSILON(0,0)</text>
</g>
<!-- viewSpell -->
<g id="node5" class="node">
<title>viewSpell</title>
<polyline fill="none" stroke="darkred" points="511.15,-7 591.4,-7"/>
<text text-anchor="start" x="514.15" y="-14.2" font-family="Courier New" font-weight="bold" font-size="14.00">viewSpell</text>
<path fill="none" stroke="darkred" d="M517.65,-4C517.65,-4 584.9,-4 584.9,-4 589.65,-4 594.4,-8.75 594.4,-13.5 594.4,-13.5 594.4,-23 594.4,-23 594.4,-27.75 589.65,-32.5 584.9,-32.5 584.9,-32.5 517.65,-32.5 517.65,-32.5 512.9,-32.5 508.15,-27.75 508.15,-23 508.15,-23 508.15,-13.5 508.15,-13.5 508.15,-8.75 512.9,-4 517.65,-4"/>
</g>
<!-- checkObject&#45;&gt;viewSpell -->
<g id="edge3" class="edge">
<title>checkObject&#45;&gt;viewSpell</title>
<path fill="none" stroke="black" d="M865.08,-245.6C852.84,-240.35 839.81,-234.18 828.28,-227.5 730.72,-170.95 627.54,-85.58 579.26,-43.9"/>
<polygon fill="black" stroke="black" points="581.61,-41.31 571.77,-37.4 577.03,-46.6 581.61,-41.31"/>
<polygon fill="none" stroke="black" points="831.28,-205.75 831.28,-224.5 1059.28,-224.5 1059.28,-205.75 831.28,-205.75"/>
<text text-anchor="start" x="873.28" y="-213" font-family="Courier New" font-weight="bold" font-size="10.00" fill="blue">IS_A(WOBJECT,IDC_SCROLL)</text>
<polygon fill="none" stroke="black" points="831.28,-57.5 831.28,-203.75 1059.28,-203.75 1059.28,-57.5 831.28,-57.5"/>
<text text-anchor="start" x="834.28" y="-191.25" font-family="Courier New" font-size="10.00" fill="blue">MOV(WPARM,WOBJECT);</text>
<text text-anchor="start" x="834.28" y="-178.5" font-family="Courier New" font-size="10.00" fill="blue"> &#160;&#160;&#160;&#160;&#160;&#160;&#160;MAPi(WPARM,S12_SCROLL);</text>
<text text-anchor="start" x="834.28" y="-165.75" font-family="Courier New" font-size="10.00" fill="blue"> &#160;&#160;&#160;&#160;&#160;&#160;&#160;SIGNALi(SIG_SHOW,S12_SHIELD);</text>
<text text-anchor="start" x="834.28" y="-153" font-family="Courier New" font-size="10.00" fill="blue"> &#160;&#160;&#160;&#160;&#160;&#160;&#160;SIGNALi(SIG_SHOW,S12_WORD);</text>
<text text-anchor="start" x="834.28" y="-140.25" font-family="Courier New" font-size="10.00" fill="blue"> &#160;&#160;&#160;&#160;&#160;&#160;&#160;SIGNALi(SIG_SHOW,S12_ING1);</text>
<text text-anchor="start" x="834.28" y="-127.5" font-family="Courier New" font-size="10.00" fill="blue"> &#160;&#160;&#160;&#160;&#160;&#160;&#160;SIGNALi(SIG_SHOW,S12_ING2);</text>
<text text-anchor="start" x="834.28" y="-114.75" font-family="Courier New" font-size="10.00" fill="blue"> &#160;&#160;&#160;&#160;&#160;&#160;&#160;SIGNALi(SIG_SHOW,S12_ING3);</text>
<text text-anchor="start" x="834.28" y="-102" font-family="Courier New" font-size="10.00" fill="blue"> &#160;&#160;&#160;&#160;&#160;&#160;&#160;SIGNALi(SIG_SHOW,S12_ING4);</text>
<text text-anchor="start" x="834.28" y="-89.25" font-family="Courier New" font-size="10.00" fill="blue"> &#160;&#160;&#160;&#160;&#160;&#160;&#160;SIGNALi(SIG_SHOW,S12_NYST);</text>
<text text-anchor="start" x="834.28" y="-76.5" font-family="Courier New" font-size="10.00" fill="blue"> &#160;&#160;&#160;&#160;&#160;&#160;</text>
<text text-anchor="start" x="834.28" y="-63.75" font-family="Courier New" font-size="10.00" fill="blue"> &#160;&#160;&#160;&#160;&#160;&#160;</text>
<polygon fill="none" stroke="black" points="828.28,-54.5 828.28,-227.5 1062.28,-227.5 1062.28,-54.5 828.28,-54.5"/>
</g>
<!-- viewEnchantment -->
<g id="node6" class="node">
<title>viewEnchantment</title>
<polyline fill="none" stroke="darkred" points="2079.4,-7 2209.15,-7"/>
<text text-anchor="start" x="2082.4" y="-14.2" font-family="Courier New" font-weight="bold" font-size="14.00">viewEnchantment</text>
<path fill="none" stroke="darkred" d="M2085.9,-4C2085.9,-4 2202.65,-4 2202.65,-4 2207.4,-4 2212.15,-8.75 2212.15,-13.5 2212.15,-13.5 2212.15,-23 2212.15,-23 2212.15,-27.75 2207.4,-32.5 2202.65,-32.5 2202.65,-32.5 2085.9,-32.5 2085.9,-32.5 2081.15,-32.5 2076.4,-27.75 2076.4,-23 2076.4,-23 2076.4,-13.5 2076.4,-13.5 2076.4,-8.75 2081.15,-4 2085.9,-4"/>
</g>
<!-- checkObject&#45;&gt;viewEnchantment -->
<g id="edge4" class="edge">
<title>checkObject&#45;&gt;viewEnchantment</title>
<path fill="none" stroke="black" d="M969.38,-251.09C1169.24,-211.65 1820.49,-83.14 2057.24,-36.43"/>
<polygon fill="black" stroke="black" points="2057.91,-39.86 2067.05,-34.49 2056.56,-32.99 2057.91,-39.86"/>
<polygon fill="none" stroke="black" points="1967.28,-148.38 1967.28,-167.12 2165.28,-167.12 2165.28,-148.38 1967.28,-148.38"/>
<text text-anchor="start" x="1970.28" y="-155.62" font-family="Courier New" font-weight="bold" font-size="10.00" fill="blue">IS_A(WOBJECT,ISA_ENCHANTEDSTONE)</text>
<polygon fill="none" stroke="black" points="1967.28,-114.88 1967.28,-146.38 2165.28,-146.38 2165.28,-114.88 1967.28,-114.88"/>
<text text-anchor="start" x="1991.28" y="-133.88" font-family="Courier New" font-size="10.00" fill="blue">MOV(WPARM,WOBJECT); &#160;&#160;&#160;&#160;&#160;</text>
<text text-anchor="start" x="1991.28" y="-121.12" font-family="Courier New" font-size="10.00" fill="blue"> &#160;&#160;&#160;&#160;&#160;&#160;&#160;</text>
<polygon fill="none" stroke="black" points="1964.28,-111.88 1964.28,-170.12 2168.28,-170.12 2168.28,-111.88 1964.28,-111.88"/>
</g>
<!-- replacedView&#45;&gt;0 -->
<g id="edge8" class="edge">
<title>replacedView&#45;&gt;0</title>
<path fill="none" stroke="black" d="M246.59,-281.83C241.21,-287 236.21,-293.15 233.28,-300 212.32,-348.92 196.92,-740.13 233.28,-779 253.82,-800.96 476.15,-784.03 503.28,-797 508.31,-799.41 512.98,-802.86 517.17,-806.72"/>
<polygon fill="black" stroke="black" points="514.61,-809.11 524.03,-813.94 519.68,-804.28 514.61,-809.11"/>
<polygon fill="none" stroke="black" points="236.28,-540.5 236.28,-559.25 386.28,-559.25 386.28,-540.5 236.28,-540.5"/>
<text text-anchor="start" x="269.28" y="-547.75" font-family="Courier New" font-weight="bold" font-size="10.00" fill="blue">Z_EPSILON(0,0)</text>
<polygon fill="none" stroke="black" points="236.28,-519.75 236.28,-538.5 386.28,-538.5 386.28,-519.75 236.28,-519.75"/>
<text text-anchor="start" x="239.28" y="-526" font-family="Courier New" font-size="10.00" fill="blue"> &#160;&#160;&#160;&#160;&#160;&#160;&#160;LOADVIEW(BPARM);</text>
<polygon fill="none" stroke="black" points="233.28,-516.75 233.28,-562.25 389.28,-562.25 389.28,-516.75 233.28,-516.75"/>
</g>
<!-- viewSpell&#45;&gt;0 -->
<g id="edge10" class="edge">
<title>viewSpell&#45;&gt;0</title>
<path fill="none" stroke="black" d="M500.16,-24.67C394.57,-38.92 153.8,-88 52.28,-245.5 -11.96,-345.15 -24.36,-693.98 58.28,-779 92.77,-814.48 458.36,-776.24 503.28,-797 508.34,-799.34 513.03,-802.76 517.23,-806.61"/>
<polygon fill="black" stroke="black" points="514.66,-808.99 524.09,-813.82 519.73,-804.17 514.66,-808.99"/>
<text text-anchor="start" x="56.28" y="-261.62" font-family="Courier New" font-weight="bold" font-size="10.00" fill="blue">LOADVIEW(IDV_SPELLPAN,)</text>
</g>
<!-- viewEnchantment&#45;&gt;0 -->
<g id="edge9" class="edge">
<title>viewEnchantment&#45;&gt;0</title>
<path fill="none" stroke="black" d="M2219.93,-19.07C2385.41,-23.28 2778.39,-59.42 2949.28,-300 3072.56,-473.56 3099.24,-627.9 2949.28,-779 2926.05,-802.4 605.43,-783.66 575.28,-797 570.17,-799.26 565.47,-802.63 561.26,-806.46"/>
<polygon fill="black" stroke="black" points="558.76,-804.02 554.4,-813.67 563.83,-808.84 558.76,-804.02"/>
<text text-anchor="start" x="2937.28" y="-261.62" font-family="Courier New" font-weight="bold" font-size="10.00" fill="blue">LOADVIEW(IDV_ENCHANTPAN,)</text>
</g>
<!-- status -->
<g id="node7" class="node">
<title>status</title>
<polygon fill="none" stroke="black" points="584.28,-797.5 584.28,-876.5 1002.28,-876.5 1002.28,-797.5 584.28,-797.5"/>
<polygon fill="none" stroke="black" points="595.28,-850.75 595.28,-869.5 991.28,-869.5 991.28,-850.75 595.28,-850.75"/>
<text text-anchor="start" x="760.28" y="-858" font-family="Courier New" font-weight="bold" font-size="10.00">SMP_EYEINFO</text>
<polygon fill="none" stroke="black" points="595.28,-804.5 595.28,-848.75 991.28,-848.75 991.28,-804.5 595.28,-804.5"/>
<text text-anchor="start" x="598.28" y="-836.25" font-family="Courier New" font-size="10.00" fill="green">VIEW::IDV_MAIN_PANEL @pos(x:152, y:75, h:68, w:57)</text>
<text text-anchor="start" x="598.28" y="-823.5" font-family="Courier New" font-size="10.00" fill="green">SMP_EYEINFO::M_EYEINFO(&#39;&#39;,&#39;&#39;,&#39;&#39;,&#39;&#39;,&#39;&#39;,&#39;&#39;)</text>
<text text-anchor="start" x="598.28" y="-810.75" font-family="Courier New" font-size="10.00" fill="green">{state:&#39;0&#39;: bParm:IDV_EYEB wParm:IDD_PFLWRSPT Top:75 Left:152 Z:0</text>
<polygon fill="none" stroke="black" points="592.28,-801.5 592.28,-872.5 994.28,-872.5 994.28,-801.5 592.28,-801.5"/>
</g>
</g>
</svg>
