<?xml version="1.0" encoding="UTF-8" standalone="no"?>
<!DOCTYPE svg PUBLIC "-//W3C//DTD SVG 1.1//EN"
 "http://www.w3.org/Graphics/SVG/1.1/DTD/svg11.dtd">
<!-- Generated by graphviz version 10.0.1 (20240210.2158)
 -->
<!-- Title: Automaton Pages: 1 -->
<svg width="2003pt" height="749pt"
 viewBox="0.00 0.00 2003.12 748.75" xmlns="http://www.w3.org/2000/svg" xmlns:xlink="http://www.w3.org/1999/xlink">
<g id="graph0" class="graph" transform="scale(1 1) rotate(0) translate(4 744.75)">
<title>Automaton</title>
<polygon fill="white" stroke="none" points="-4,4 -4,-744.75 1999.12,-744.75 1999.12,4 -4,4"/>
<!-- filename -->
<g id="node1" class="node">
<title>filename</title>
<polygon fill="none" stroke="black" points="1453.12,-674 1453.12,-727.5 1577.12,-727.5 1577.12,-674 1453.12,-674"/>
<polygon fill="none" stroke="black" points="1464.12,-701.75 1464.12,-720.5 1566.12,-720.5 1566.12,-701.75 1464.12,-701.75"/>
<text text-anchor="start" x="1467.12" y="-709" font-family="Courier New" font-weight="bold" font-size="10.00">SMP_VIAL::M_VIAL</text>
<polygon fill="none" stroke="black" points="1464.12,-681 1464.12,-699.75 1566.12,-699.75 1566.12,-681 1464.12,-681"/>
<text text-anchor="start" x="1470.12" y="-687.25" font-family="Courier New" font-size="10.00" fill="brown">start state = 0</text>
<polygon fill="none" stroke="black" points="1461.12,-678 1461.12,-723.5 1569.12,-723.5 1569.12,-678 1461.12,-678"/>
</g>
<!-- 0 -->
<g id="node2" class="node">
<title>0</title>
<polyline fill="none" stroke="darkred" points="1614.99,-689.5 1629.24,-689.5"/>
<text text-anchor="start" x="1617.99" y="-696.7" font-family="Courier New" font-weight="bold" font-size="14.00">0</text>
<path fill="none" stroke="darkred" d="M1618.74,-686.5C1618.74,-686.5 1625.49,-686.5 1625.49,-686.5 1628.87,-686.5 1632.24,-689.88 1632.24,-693.25 1632.24,-693.25 1632.24,-708.25 1632.24,-708.25 1632.24,-711.62 1628.87,-715 1625.49,-715 1625.49,-715 1618.74,-715 1618.74,-715 1615.37,-715 1611.99,-711.62 1611.99,-708.25 1611.99,-708.25 1611.99,-693.25 1611.99,-693.25 1611.99,-689.88 1615.37,-686.5 1618.74,-686.5"/>
</g>
<!-- 1 -->
<g id="node3" class="node">
<title>1</title>
<polyline fill="none" stroke="darkred" points="1517.99,-574.5 1532.24,-574.5"/>
<text text-anchor="start" x="1520.99" y="-581.7" font-family="Courier New" font-weight="bold" font-size="14.00">1</text>
<path fill="none" stroke="darkred" d="M1521.74,-571.5C1521.74,-571.5 1528.49,-571.5 1528.49,-571.5 1531.87,-571.5 1535.24,-574.88 1535.24,-578.25 1535.24,-578.25 1535.24,-593.25 1535.24,-593.25 1535.24,-596.62 1531.87,-600 1528.49,-600 1528.49,-600 1521.74,-600 1521.74,-600 1518.37,-600 1514.99,-596.62 1514.99,-593.25 1514.99,-593.25 1514.99,-578.25 1514.99,-578.25 1514.99,-574.88 1518.37,-571.5 1521.74,-571.5"/>
</g>
<!-- 0&#45;&gt;1 -->
<g id="edge1" class="edge">
<title>0&#45;&gt;1</title>
<path fill="none" stroke="black" d="M1609.04,-682.73C1602.71,-675.29 1594.64,-666.89 1586.12,-660.75 1570.3,-649.36 1559.45,-656.97 1546.12,-642.75 1538.87,-635.02 1534.06,-624.55 1530.9,-614.76"/>
<polygon fill="black" stroke="black" points="1534.31,-613.96 1528.3,-605.24 1527.56,-615.81 1534.31,-613.96"/>
<text text-anchor="start" x="1550.12" y="-630.25" font-family="Courier New" font-weight="bold" font-size="10.00" fill="blue">SHOW(0,0)</text>
</g>
<!-- 10 -->
<g id="node4" class="node">
<title>10</title>
<polyline fill="none" stroke="darkred" stroke-width="3" points="856.37,-349.25 879.87,-349.25"/>
<text text-anchor="start" x="859.87" y="-356.95" font-family="Courier New" font-weight="bold" font-size="14.00">10</text>
<path fill="none" stroke="darkred" stroke-width="3" d="M862.53,-344.25C862.53,-344.25 873.7,-344.25 873.7,-344.25 879.28,-344.25 884.87,-349.83 884.87,-355.42 884.87,-355.42 884.87,-366.58 884.87,-366.58 884.87,-372.17 879.28,-377.75 873.7,-377.75 873.7,-377.75 862.53,-377.75 862.53,-377.75 856.95,-377.75 851.37,-372.17 851.37,-366.58 851.37,-366.58 851.37,-355.42 851.37,-355.42 851.37,-349.83 856.95,-344.25 862.53,-344.25"/>
</g>
<!-- 1&#45;&gt;10 -->
<g id="edge2" class="edge">
<title>1&#45;&gt;10</title>
<path fill="none" stroke="black" d="M1498.15,-583.68C1381.05,-578.76 920.6,-556.61 877.12,-510.75 847.98,-480.02 852.43,-427.76 859.42,-394.08"/>
<polygon fill="black" stroke="black" points="862.8,-395.01 861.61,-384.48 855.97,-393.45 862.8,-395.01"/>
<polygon fill="none" stroke="black" points="880.12,-489 880.12,-507.75 1486.12,-507.75 1486.12,-489 880.12,-489"/>
<text text-anchor="start" x="1141.12" y="-496.25" font-family="Courier New" font-weight="bold" font-size="10.00" fill="blue">LTEi(WPARM,20)</text>
<polygon fill="none" stroke="black" points="880.12,-468.25 880.12,-487 1486.12,-487 1486.12,-468.25 880.12,-468.25"/>
<text text-anchor="start" x="883.12" y="-474.5" font-family="Courier New" font-size="10.00" fill="blue">ASSIGN(LWEALTH,10);ASSIGN(WPARM,MAX_VIAL_STORAGE);MOV(BPARM,LWEALTH);SIGNALi(SIG_SHOW,S1_VIALMETER);</text>
<polygon fill="none" stroke="black" points="877.12,-465.25 877.12,-510.75 1489.12,-510.75 1489.12,-465.25 877.12,-465.25"/>
</g>
<!-- 2 -->
<g id="node5" class="node">
<title>2</title>
<polyline fill="none" stroke="darkred" points="1517.99,-476.75 1532.24,-476.75"/>
<text text-anchor="start" x="1520.99" y="-483.95" font-family="Courier New" font-weight="bold" font-size="14.00">2</text>
<path fill="none" stroke="darkred" d="M1521.74,-473.75C1521.74,-473.75 1528.49,-473.75 1528.49,-473.75 1531.87,-473.75 1535.24,-477.12 1535.24,-480.5 1535.24,-480.5 1535.24,-495.5 1535.24,-495.5 1535.24,-498.88 1531.87,-502.25 1528.49,-502.25 1528.49,-502.25 1521.74,-502.25 1521.74,-502.25 1518.37,-502.25 1514.99,-498.88 1514.99,-495.5 1514.99,-495.5 1514.99,-480.5 1514.99,-480.5 1514.99,-477.12 1518.37,-473.75 1521.74,-473.75"/>
</g>
<!-- 1&#45;&gt;2 -->
<g id="edge3" class="edge">
<title>1&#45;&gt;2</title>
<path fill="none" stroke="black" d="M1525.12,-567.63C1525.12,-553.61 1525.12,-533.48 1525.12,-517.09"/>
<polygon fill="black" stroke="black" points="1528.62,-517.48 1525.12,-507.48 1521.62,-517.48 1528.62,-517.48"/>
<text text-anchor="start" x="1529.12" y="-537" font-family="Courier New" font-weight="bold" font-size="10.00" fill="blue">Z_EPSILON(,)</text>
</g>
<!-- 10&#45;&gt;10 -->
<g id="edge6" class="edge">
<title>10&#45;&gt;10</title>
<path fill="none" stroke="black" d="M894.91,-364.96C904.9,-365.09 913.12,-363.77 913.12,-361 913.12,-359.4 910.37,-358.28 906.12,-357.65"/>
<polygon fill="black" stroke="black" points="906.6,-354.17 896.42,-357.12 906.22,-361.16 906.6,-354.17"/>
<text text-anchor="start" x="917.12" y="-358.88" font-family="Courier New" font-weight="bold" font-size="10.00" fill="orange">DROP(0,IDD_SCOOPE)</text>
</g>
<!-- 10&#45;&gt;10 -->
<g id="edge10" class="edge">
<title>10&#45;&gt;10</title>
<path fill="none" stroke="black" d="M894.86,-366.28C941.95,-371.11 1029.12,-369.35 1029.12,-361 1029.12,-353.29 954.72,-351.19 906.26,-354.73"/>
<polygon fill="black" stroke="black" points="906.03,-351.23 896.37,-355.58 906.63,-358.21 906.03,-351.23"/>
<text text-anchor="start" x="1033.12" y="-358.88" font-family="Courier New" font-weight="bold" font-size="10.00" fill="orange">GRAB(0,IDD_SCOOPE)</text>
</g>
<!-- 10&#45;&gt;10 -->
<g id="edge11" class="edge">
<title>10&#45;&gt;10</title>
<path fill="none" stroke="black" d="M894.81,-367.21C966.31,-376.5 1145.12,-374.43 1145.12,-361 1145.12,-348.23 983.35,-345.73 906.01,-353.51"/>
<polygon fill="black" stroke="black" points="905.85,-350 896.31,-354.61 906.64,-356.96 905.85,-350"/>
<polygon fill="none" stroke="black" points="1148.12,-362 1148.12,-380.75 1418.12,-380.75 1418.12,-362 1148.12,-362"/>
<text text-anchor="start" x="1235.12" y="-369.25" font-family="Courier New" font-weight="bold" font-size="10.00" fill="orange">WAIT(,SIG_DRAIN)</text>
<polygon fill="none" stroke="black" points="1148.12,-341.25 1148.12,-360 1418.12,-360 1418.12,-341.25 1148.12,-341.25"/>
<text text-anchor="start" x="1151.12" y="-347.5" font-family="Courier New" font-size="10.00" fill="blue">MOV(BPARM,0);SIGNALi(SIG_SHOW,S1_VIALMETER);</text>
<polygon fill="none" stroke="black" points="1145.12,-338.25 1145.12,-383.75 1421.12,-383.75 1421.12,-338.25 1145.12,-338.25"/>
</g>
<!-- 12 -->
<g id="node6" class="node">
<title>12</title>
<polyline fill="none" stroke="darkred" points="905.87,-222.75 928.37,-222.75"/>
<text text-anchor="start" x="908.87" y="-229.95" font-family="Courier New" font-weight="bold" font-size="14.00">12</text>
<path fill="none" stroke="darkred" d="M912.37,-219.75C912.37,-219.75 921.87,-219.75 921.87,-219.75 926.62,-219.75 931.37,-224.5 931.37,-229.25 931.37,-229.25 931.37,-238.75 931.37,-238.75 931.37,-243.5 926.62,-248.25 921.87,-248.25 921.87,-248.25 912.37,-248.25 912.37,-248.25 907.62,-248.25 902.87,-243.5 902.87,-238.75 902.87,-238.75 902.87,-229.25 902.87,-229.25 902.87,-224.5 907.62,-219.75 912.37,-219.75"/>
</g>
<!-- 10&#45;&gt;12 -->
<g id="edge4" class="edge">
<title>10&#45;&gt;12</title>
<path fill="none" stroke="black" d="M873.95,-338.97C879.05,-321.49 887.04,-296.11 896.12,-274.75 897.89,-270.59 899.93,-266.27 902.04,-262.08"/>
<polygon fill="black" stroke="black" points="905.02,-263.93 906.57,-253.45 898.82,-260.68 905.02,-263.93"/>
<text text-anchor="start" x="900.12" y="-295.38" font-family="Courier New" font-weight="bold" font-size="10.00" fill="orange">DRAG(0,IDD_SCOOPE)</text>
</g>
<!-- 16 -->
<g id="node7" class="node">
<title>16</title>
<polyline fill="none" stroke="darkred" points="82.87,-222.75 105.37,-222.75"/>
<text text-anchor="start" x="85.87" y="-229.95" font-family="Courier New" font-weight="bold" font-size="14.00">16</text>
<path fill="none" stroke="darkred" d="M89.37,-219.75C89.37,-219.75 98.87,-219.75 98.87,-219.75 103.62,-219.75 108.37,-224.5 108.37,-229.25 108.37,-229.25 108.37,-238.75 108.37,-238.75 108.37,-243.5 103.62,-248.25 98.87,-248.25 98.87,-248.25 89.37,-248.25 89.37,-248.25 84.62,-248.25 79.87,-243.5 79.87,-238.75 79.87,-238.75 79.87,-229.25 79.87,-229.25 79.87,-224.5 84.62,-219.75 89.37,-219.75"/>
</g>
<!-- 10&#45;&gt;16 -->
<g id="edge5" class="edge">
<title>10&#45;&gt;16</title>
<path fill="none" stroke="black" d="M841.18,-359.64C707.6,-357.71 121.51,-347.71 95.12,-320.25 80.92,-305.47 81.78,-281.74 85.58,-263.06"/>
<polygon fill="black" stroke="black" points="88.96,-263.95 87.92,-253.41 82.16,-262.3 88.96,-263.95"/>
<polygon fill="none" stroke="black" points="98.12,-298.5 98.12,-317.25 212.12,-317.25 212.12,-298.5 98.12,-298.5"/>
<text text-anchor="start" x="101.12" y="-305.75" font-family="Courier New" font-weight="bold" font-size="10.00" fill="orange">DRAG(0,IDD_SCOOPF)</text>
<polygon fill="none" stroke="black" points="98.12,-277.75 98.12,-296.5 212.12,-296.5 212.12,-277.75 98.12,-277.75"/>
<text text-anchor="start" x="113.12" y="-284" font-family="Courier New" font-size="10.00" fill="blue">ADDI(BPARM,1);</text>
<polygon fill="none" stroke="black" points="95.12,-274.75 95.12,-320.25 215.12,-320.25 215.12,-274.75 95.12,-274.75"/>
</g>
<!-- 19 -->
<g id="node8" class="node">
<title>19</title>
<polyline fill="none" stroke="darkred" points="415.87,-222.75 438.37,-222.75"/>
<text text-anchor="start" x="418.87" y="-229.95" font-family="Courier New" font-weight="bold" font-size="14.00">19</text>
<path fill="none" stroke="darkred" d="M422.37,-219.75C422.37,-219.75 431.87,-219.75 431.87,-219.75 436.62,-219.75 441.37,-224.5 441.37,-229.25 441.37,-229.25 441.37,-238.75 441.37,-238.75 441.37,-243.5 436.62,-248.25 431.87,-248.25 431.87,-248.25 422.37,-248.25 422.37,-248.25 417.62,-248.25 412.87,-243.5 412.87,-238.75 412.87,-238.75 412.87,-229.25 412.87,-229.25 412.87,-224.5 417.62,-219.75 422.37,-219.75"/>
</g>
<!-- 10&#45;&gt;19 -->
<g id="edge7" class="edge">
<title>10&#45;&gt;19</title>
<path fill="none" stroke="black" d="M841.28,-360.41C765,-361.06 548.78,-359.35 492.12,-320.25 473.47,-307.38 482.66,-292.92 469.12,-274.75 465.2,-269.49 460.54,-264.33 455.78,-259.55"/>
<polygon fill="black" stroke="black" points="458.54,-257.34 448.88,-252.98 453.71,-262.41 458.54,-257.34"/>
<text text-anchor="start" x="496.12" y="-295.38" font-family="Courier New" font-weight="bold" font-size="10.00" fill="orange">DROP(0,IDD_SCOOPF)</text>
</g>
<!-- 40 -->
<g id="node9" class="node">
<title>40</title>
<polyline fill="none" stroke="darkred" points="1505.87,-222.75 1528.37,-222.75"/>
<text text-anchor="start" x="1508.87" y="-229.95" font-family="Courier New" font-weight="bold" font-size="14.00">40</text>
<path fill="none" stroke="darkred" d="M1512.37,-219.75C1512.37,-219.75 1521.87,-219.75 1521.87,-219.75 1526.62,-219.75 1531.37,-224.5 1531.37,-229.25 1531.37,-229.25 1531.37,-238.75 1531.37,-238.75 1531.37,-243.5 1526.62,-248.25 1521.87,-248.25 1521.87,-248.25 1512.37,-248.25 1512.37,-248.25 1507.62,-248.25 1502.87,-243.5 1502.87,-238.75 1502.87,-238.75 1502.87,-229.25 1502.87,-229.25 1502.87,-224.5 1507.62,-219.75 1512.37,-219.75"/>
</g>
<!-- 10&#45;&gt;40 -->
<g id="edge8" class="edge">
<title>10&#45;&gt;40</title>
<path fill="none" stroke="black" d="M894.85,-359.27C989.5,-356.47 1304.93,-345.32 1342.12,-320.25 1360.91,-307.58 1347.49,-288.99 1365.12,-274.75 1397.67,-248.46 1445.8,-239.41 1479.14,-236.37"/>
<polygon fill="black" stroke="black" points="1479.05,-239.89 1488.75,-235.64 1478.52,-232.91 1479.05,-239.89"/>
<text text-anchor="start" x="1369.12" y="-295.38" font-family="Courier New" font-weight="bold" font-size="10.00" fill="orange">DROP(0,IDD_VIAL1)</text>
</g>
<!-- 50 -->
<g id="node10" class="node">
<title>50</title>
<polyline fill="none" stroke="darkred" points="1590.87,-222.75 1613.37,-222.75"/>
<text text-anchor="start" x="1593.87" y="-229.95" font-family="Courier New" font-weight="bold" font-size="14.00">50</text>
<path fill="none" stroke="darkred" d="M1597.37,-219.75C1597.37,-219.75 1606.87,-219.75 1606.87,-219.75 1611.62,-219.75 1616.37,-224.5 1616.37,-229.25 1616.37,-229.25 1616.37,-238.75 1616.37,-238.75 1616.37,-243.5 1611.62,-248.25 1606.87,-248.25 1606.87,-248.25 1597.37,-248.25 1597.37,-248.25 1592.62,-248.25 1587.87,-243.5 1587.87,-238.75 1587.87,-238.75 1587.87,-229.25 1587.87,-229.25 1587.87,-224.5 1592.62,-219.75 1597.37,-219.75"/>
</g>
<!-- 10&#45;&gt;50 -->
<g id="edge9" class="edge">
<title>10&#45;&gt;50</title>
<path fill="none" stroke="black" d="M894.93,-360.09C997.58,-360.13 1365.4,-357.62 1475.12,-320.25 1513.23,-307.27 1550.75,-279.76 1575.01,-259.48"/>
<polygon fill="black" stroke="black" points="1577.15,-262.25 1582.48,-253.1 1572.6,-256.93 1577.15,-262.25"/>
<text text-anchor="start" x="1557.12" y="-295.38" font-family="Courier New" font-weight="bold" font-size="10.00" fill="orange">DROP(0,IDD_VIAL2)</text>
</g>
<!-- 2&#45;&gt;10 -->
<g id="edge22" class="edge">
<title>2&#45;&gt;10</title>
<path fill="none" stroke="black" d="M1498.32,-471.22C1493.69,-468.96 1488.85,-466.85 1484.12,-465.25 1428.9,-446.53 1031.72,-386.39 906.1,-367.64"/>
<polygon fill="black" stroke="black" points="906.72,-364.19 896.31,-366.18 905.68,-371.12 906.72,-364.19"/>
<polygon fill="none" stroke="black" points="1398.12,-425.5 1398.12,-444.25 1590.12,-444.25 1590.12,-425.5 1398.12,-425.5"/>
<text text-anchor="start" x="1440.12" y="-432.75" font-family="Courier New" font-weight="bold" font-size="10.00" fill="blue">MOV(BPARM,LWEALTH)</text>
<polygon fill="none" stroke="black" points="1398.12,-404.75 1398.12,-423.5 1590.12,-423.5 1590.12,-404.75 1398.12,-404.75"/>
<text text-anchor="start" x="1401.12" y="-411" font-family="Courier New" font-size="10.00" fill="blue">SIGNALi(SIG_SHOW,S1_VIALMETER);</text>
<polygon fill="none" stroke="black" points="1395.12,-401.75 1395.12,-447.25 1593.12,-447.25 1593.12,-401.75 1395.12,-401.75"/>
</g>
<!-- 12&#45;&gt;10 -->
<g id="edge12" class="edge">
<title>12&#45;&gt;10</title>
<path fill="none" stroke="black" d="M943.96,-238.15C966.39,-242.36 997.06,-252.13 1012.12,-274.75 1023.32,-291.58 1024.37,-304.16 1012.12,-320.25 999.3,-337.08 944.35,-348.6 906.17,-354.75"/>
<polygon fill="black" stroke="black" points="905.76,-351.27 896.41,-356.25 906.83,-358.18 905.76,-351.27"/>
<text text-anchor="start" x="1025.12" y="-295.38" font-family="Courier New" font-weight="bold" font-size="10.00" fill="blue">EQUALi(LWEALTH,0)</text>
</g>
<!-- 13 -->
<g id="node11" class="node">
<title>13</title>
<polyline fill="none" stroke="darkred" points="956.87,-100.25 979.37,-100.25"/>
<text text-anchor="start" x="959.87" y="-107.45" font-family="Courier New" font-weight="bold" font-size="14.00">13</text>
<path fill="none" stroke="darkred" d="M963.37,-97.25C963.37,-97.25 972.87,-97.25 972.87,-97.25 977.62,-97.25 982.37,-102 982.37,-106.75 982.37,-106.75 982.37,-116.25 982.37,-116.25 982.37,-121 977.62,-125.75 972.87,-125.75 972.87,-125.75 963.37,-125.75 963.37,-125.75 958.62,-125.75 953.87,-121 953.87,-116.25 953.87,-116.25 953.87,-106.75 953.87,-106.75 953.87,-102 958.62,-97.25 963.37,-97.25"/>
</g>
<!-- 12&#45;&gt;13 -->
<g id="edge13" class="edge">
<title>12&#45;&gt;13</title>
<path fill="none" stroke="black" d="M912,-215.84C907.65,-197.77 903.72,-169.02 915.12,-147.75 919.03,-140.45 925.19,-134.4 931.95,-129.5"/>
<polygon fill="black" stroke="black" points="933.54,-132.64 940.11,-124.33 929.79,-126.73 933.54,-132.64"/>
<polygon fill="none" stroke="black" points="918.12,-171.5 918.12,-190.25 1320.12,-190.25 1320.12,-171.5 918.12,-171.5"/>
<text text-anchor="start" x="1083.12" y="-178.75" font-family="Courier New" font-weight="bold" font-size="10.00" fill="blue">Z_EPSILON(,)</text>
<polygon fill="none" stroke="black" points="918.12,-150.75 918.12,-169.5 1320.12,-169.5 1320.12,-150.75 918.12,-150.75"/>
<text text-anchor="start" x="921.12" y="-157" font-family="Courier New" font-size="10.00" fill="blue">SUBI(LWEALTH,1);MOV(BPARM,LWEALTH);SIGNALi(SIG_SHOW,S1_VIALMETER);</text>
<polygon fill="none" stroke="black" points="915.12,-147.75 915.12,-193.25 1323.12,-193.25 1323.12,-147.75 915.12,-147.75"/>
</g>
<!-- 16&#45;&gt;10 -->
<g id="edge16" class="edge">
<title>16&#45;&gt;10</title>
<path fill="none" stroke="black" d="M121.04,-238.6C147.27,-243.24 187.19,-253.4 215.12,-274.75 234.36,-289.46 224.17,-308.09 245.12,-320.25 295.57,-349.53 701.83,-357.68 829.72,-359.53"/>
<polygon fill="black" stroke="black" points="829.64,-363.02 839.69,-359.66 829.74,-356.03 829.64,-363.02"/>
<text text-anchor="start" x="249.12" y="-295.38" font-family="Courier New" font-weight="bold" font-size="10.00" fill="blue">GTE(BPARM,WPARM)</text>
</g>
<!-- 17 -->
<g id="node13" class="node">
<title>17</title>
<polyline fill="none" stroke="darkred" points="211.87,-100.25 234.37,-100.25"/>
<text text-anchor="start" x="214.87" y="-107.45" font-family="Courier New" font-weight="bold" font-size="14.00">17</text>
<path fill="none" stroke="darkred" d="M218.37,-97.25C218.37,-97.25 227.87,-97.25 227.87,-97.25 232.62,-97.25 237.37,-102 237.37,-106.75 237.37,-106.75 237.37,-116.25 237.37,-116.25 237.37,-121 232.62,-125.75 227.87,-125.75 227.87,-125.75 218.37,-125.75 218.37,-125.75 213.62,-125.75 208.87,-121 208.87,-116.25 208.87,-116.25 208.87,-106.75 208.87,-106.75 208.87,-102 213.62,-97.25 218.37,-97.25"/>
</g>
<!-- 16&#45;&gt;17 -->
<g id="edge17" class="edge">
<title>16&#45;&gt;17</title>
<path fill="none" stroke="black" d="M67.19,-228.3C47.38,-223.28 21.8,-213.18 9.12,-193.25 -1.74,-176.19 -3.97,-163.17 9.12,-147.75 31.25,-121.67 129.74,-114.86 185.07,-113.09"/>
<polygon fill="black" stroke="black" points="185.09,-116.6 194.99,-112.82 184.9,-109.6 185.09,-116.6"/>
<polygon fill="none" stroke="black" points="12.12,-171.5 12.12,-190.25 414.12,-190.25 414.12,-171.5 12.12,-171.5"/>
<text text-anchor="start" x="177.12" y="-178.75" font-family="Courier New" font-weight="bold" font-size="10.00" fill="blue">Z_EPSILON(,)</text>
<polygon fill="none" stroke="black" points="12.12,-150.75 12.12,-169.5 414.12,-169.5 414.12,-150.75 12.12,-150.75"/>
<text text-anchor="start" x="15.12" y="-157" font-family="Courier New" font-size="10.00" fill="blue">ADDI(LWEALTH,1);MOV(BPARM,LWEALTH);SIGNALi(SIG_SHOW,S1_VIALMETER);</text>
<polygon fill="none" stroke="black" points="9.12,-147.75 9.12,-193.25 417.12,-193.25 417.12,-147.75 9.12,-147.75"/>
</g>
<!-- 19&#45;&gt;10 -->
<g id="edge20" class="edge">
<title>19&#45;&gt;10</title>
<path fill="none" stroke="black" d="M400.43,-243.7C386.04,-249.91 369.54,-259.84 361.12,-274.75 351.17,-292.36 347.39,-305.4 361.12,-320.25 392.75,-354.45 716.84,-359.28 829.65,-359.92"/>
<polygon fill="black" stroke="black" points="829.59,-363.42 839.61,-359.96 829.62,-356.42 829.59,-363.42"/>
<text text-anchor="start" x="365.12" y="-295.38" font-family="Courier New" font-weight="bold" font-size="10.00" fill="blue">GTE(BPARM,WPARM)</text>
</g>
<!-- 20 -->
<g id="node15" class="node">
<title>20</title>
<polyline fill="none" stroke="darkred" points="463.87,-100.25 486.37,-100.25"/>
<text text-anchor="start" x="466.87" y="-107.45" font-family="Courier New" font-weight="bold" font-size="14.00">20</text>
<path fill="none" stroke="darkred" d="M470.37,-97.25C470.37,-97.25 479.87,-97.25 479.87,-97.25 484.62,-97.25 489.37,-102 489.37,-106.75 489.37,-106.75 489.37,-116.25 489.37,-116.25 489.37,-121 484.62,-125.75 479.87,-125.75 479.87,-125.75 470.37,-125.75 470.37,-125.75 465.62,-125.75 460.87,-121 460.87,-116.25 460.87,-116.25 460.87,-106.75 460.87,-106.75 460.87,-102 465.62,-97.25 470.37,-97.25"/>
</g>
<!-- 19&#45;&gt;20 -->
<g id="edge21" class="edge">
<title>19&#45;&gt;20</title>
<path fill="none" stroke="black" d="M423.1,-215.94C419.78,-197.94 417.2,-169.27 428.12,-147.75 430.89,-142.29 434.94,-137.46 439.52,-133.25"/>
<polygon fill="black" stroke="black" points="441.35,-136.27 447,-127.31 436.99,-130.79 441.35,-136.27"/>
<text text-anchor="start" x="432.12" y="-168.38" font-family="Courier New" font-weight="bold" font-size="10.00" fill="blue">Z_EPSILON(,)</text>
</g>
<!-- 40&#45;&gt;0 -->
<g id="edge24" class="edge">
<title>40&#45;&gt;0</title>
<path fill="none" stroke="black" d="M1544.05,-247.03C1551.21,-250.21 1558.95,-253.62 1566.12,-256.75 1584.73,-264.87 1595.6,-258.76 1608.12,-274.75 1631.79,-304.98 1622.12,-321.6 1622.12,-360 1622.12,-586.75 1622.12,-586.75 1622.12,-586.75 1622.12,-615.52 1622.12,-648.41 1622.12,-671.26"/>
<polygon fill="black" stroke="black" points="1618.62,-671.01 1622.12,-681.01 1625.62,-671.01 1618.62,-671.01"/>
<text text-anchor="start" x="1626.12" y="-485.88" font-family="Courier New" font-weight="bold" font-size="10.00" fill="blue">ASSIGN(WPARM,40)</text>
</g>
<!-- 50&#45;&gt;0 -->
<g id="edge25" class="edge">
<title>50&#45;&gt;0</title>
<path fill="none" stroke="black" d="M1628.9,-242.4C1674.45,-256.8 1762.12,-293.2 1762.12,-360 1762.12,-586.75 1762.12,-586.75 1762.12,-586.75 1762.12,-643.48 1700.7,-623.26 1658.12,-660.75 1653.36,-664.94 1648.57,-669.69 1644.09,-674.4"/>
<polygon fill="black" stroke="black" points="1641.68,-671.85 1637.49,-681.58 1646.83,-676.59 1641.68,-671.85"/>
<text text-anchor="start" x="1766.12" y="-485.88" font-family="Courier New" font-weight="bold" font-size="10.00" fill="blue">ASSIGN(WPARM,80)</text>
</g>
<!-- 14 -->
<g id="node12" class="node">
<title>14</title>
<polyline fill="none" stroke="darkred" points="1279.87,-7 1302.37,-7"/>
<text text-anchor="start" x="1282.87" y="-14.2" font-family="Courier New" font-weight="bold" font-size="14.00">14</text>
<path fill="none" stroke="darkred" d="M1286.37,-4C1286.37,-4 1295.87,-4 1295.87,-4 1300.62,-4 1305.37,-8.75 1305.37,-13.5 1305.37,-13.5 1305.37,-23 1305.37,-23 1305.37,-27.75 1300.62,-32.5 1295.87,-32.5 1295.87,-32.5 1286.37,-32.5 1286.37,-32.5 1281.62,-32.5 1276.87,-27.75 1276.87,-23 1276.87,-23 1276.87,-13.5 1276.87,-13.5 1276.87,-8.75 1281.62,-4 1286.37,-4"/>
</g>
<!-- 13&#45;&gt;14 -->
<g id="edge14" class="edge">
<title>13&#45;&gt;14</title>
<path fill="none" stroke="black" d="M995.1,-102.88C1052.72,-86.6 1187.88,-48.42 1253.73,-29.81"/>
<polygon fill="black" stroke="black" points="1254.31,-33.29 1262.98,-27.2 1252.41,-26.55 1254.31,-33.29"/>
<text text-anchor="start" x="1163.12" y="-62.75" font-family="Courier New" font-weight="bold" font-size="10.00" fill="blue">PLAYWAVE(0,SOUND_SLURP)</text>
</g>
<!-- 14&#45;&gt;10 -->
<g id="edge15" class="edge">
<title>14&#45;&gt;10</title>
<path fill="none" stroke="black" d="M1301.17,-36.42C1318.79,-68.96 1350.86,-141.03 1323.12,-193.25 1242.4,-345.19 1000.29,-360.79 906.15,-360.92"/>
<polygon fill="black" stroke="black" points="906.43,-357.42 896.42,-360.87 906.4,-364.42 906.43,-357.42"/>
<text text-anchor="start" x="1338.12" y="-168.38" font-family="Courier New" font-weight="bold" font-size="10.00" fill="blue">HANDOFF(0,IDD_SCOOPF)</text>
</g>
<!-- 18 -->
<g id="node14" class="node">
<title>18</title>
<polyline fill="none" stroke="darkred" points="668.87,-7 691.37,-7"/>
<text text-anchor="start" x="671.87" y="-14.2" font-family="Courier New" font-weight="bold" font-size="14.00">18</text>
<path fill="none" stroke="darkred" d="M675.37,-4C675.37,-4 684.87,-4 684.87,-4 689.62,-4 694.37,-8.75 694.37,-13.5 694.37,-13.5 694.37,-23 694.37,-23 694.37,-27.75 689.62,-32.5 684.87,-32.5 684.87,-32.5 675.37,-32.5 675.37,-32.5 670.62,-32.5 665.87,-27.75 665.87,-23 665.87,-23 665.87,-13.5 665.87,-13.5 665.87,-8.75 670.62,-4 675.37,-4"/>
</g>
<!-- 17&#45;&gt;18 -->
<g id="edge18" class="edge">
<title>17&#45;&gt;18</title>
<path fill="none" stroke="black" d="M250,-105.13C327.62,-89.63 552.31,-44.77 642.24,-26.81"/>
<polygon fill="black" stroke="black" points="642.66,-30.3 651.79,-24.91 641.29,-23.43 642.66,-30.3"/>
<text text-anchor="start" x="497.12" y="-62.75" font-family="Courier New" font-weight="bold" font-size="10.00" fill="blue">PLAYWAVE(0,SOUND_SPIT)</text>
</g>
<!-- 18&#45;&gt;10 -->
<g id="edge19" class="edge">
<title>18&#45;&gt;10</title>
<path fill="none" stroke="black" d="M683.89,-36.44C692.55,-71.68 717.33,-152.27 770.12,-193.25 798.22,-215.07 824.16,-184.95 848.12,-211.25 876.76,-242.7 877.01,-294.53 873.42,-327.96"/>
<polygon fill="black" stroke="black" points="870.01,-327.09 872.23,-337.45 876.95,-327.96 870.01,-327.09"/>
<text text-anchor="start" x="774.12" y="-168.38" font-family="Courier New" font-weight="bold" font-size="10.00" fill="blue">HANDOFF(0,IDD_SCOOPE)</text>
</g>
<!-- 20&#45;&gt;10 -->
<g id="edge23" class="edge">
<title>20&#45;&gt;10</title>
<path fill="none" stroke="black" d="M494.17,-129.4C499.33,-134.82 504.49,-141.14 508.12,-147.75 532.18,-191.6 500.64,-221.5 536.12,-256.75 559.52,-280 576.43,-265.61 608.12,-274.75 688.1,-297.83 780.42,-329.26 830.7,-346.79"/>
<polygon fill="black" stroke="black" points="829.34,-350.02 839.94,-350.02 831.65,-343.42 829.34,-350.02"/>
<polygon fill="none" stroke="black" points="539.12,-235 539.12,-253.75 845.12,-253.75 845.12,-235 539.12,-235"/>
<text text-anchor="start" x="647.12" y="-242.25" font-family="Courier New" font-weight="bold" font-size="10.00" fill="blue">ADDi(LWEALTH,1)</text>
<polygon fill="none" stroke="black" points="539.12,-214.25 539.12,-233 845.12,-233 845.12,-214.25 539.12,-214.25"/>
<text text-anchor="start" x="542.12" y="-220.5" font-family="Courier New" font-size="10.00" fill="blue">MOV(BPARM,LWEALTH);SIGNALi(SIG_SHOW,S1_VIALMETER);</text>
<polygon fill="none" stroke="black" points="536.12,-211.25 536.12,-256.75 848.12,-256.75 848.12,-211.25 536.12,-211.25"/>
</g>
<!-- status -->
<g id="node16" class="node">
<title>status</title>
<polygon fill="none" stroke="black" points="1667.12,-661.25 1667.12,-740.25 1995.12,-740.25 1995.12,-661.25 1667.12,-661.25"/>
<polygon fill="none" stroke="black" points="1678.12,-714.5 1678.12,-733.25 1984.12,-733.25 1984.12,-714.5 1678.12,-714.5"/>
<text text-anchor="start" x="1807.12" y="-721.75" font-family="Courier New" font-weight="bold" font-size="10.00">SMP_VIAL</text>
<polygon fill="none" stroke="black" points="1678.12,-668.25 1678.12,-712.5 1984.12,-712.5 1984.12,-668.25 1678.12,-668.25"/>
<text text-anchor="start" x="1681.12" y="-700" font-family="Courier New" font-size="10.00" fill="green">VIEW::IDV_MAIN_PANEL @pos(x:74, y:315, w:59, h:62)</text>
<text text-anchor="start" x="1681.12" y="-687.25" font-family="Courier New" font-size="10.00" fill="green">SMP_VIAL::M_VIAL(&#39;&#39;,&#39;&#39;,&#39;&#39;,&#39;&#39;,&#39;&#39;,&#39;&#39;)</text>
<text text-anchor="start" x="1681.12" y="-674.5" font-family="Courier New" font-size="10.00" fill="green">{state:&#39;10&#39;: bParm:10 wParm:20 Top:315 Left:74</text>
<polygon fill="none" stroke="black" points="1675.12,-665.25 1675.12,-736.25 1987.12,-736.25 1987.12,-665.25 1675.12,-665.25"/>
</g>
</g>
</svg>
