<?xml version="1.0" encoding="UTF-8" standalone="no"?>
<!DOCTYPE svg PUBLIC "-//W3C//DTD SVG 1.1//EN"
 "http://www.w3.org/Graphics/SVG/1.1/DTD/svg11.dtd">
<!-- Generated by graphviz version 10.0.1 (20240210.2158)
 -->
<!-- Title: Automaton Pages: 1 -->
<svg width="610pt" height="578pt"
 viewBox="0.00 0.00 610.00 577.50" xmlns="http://www.w3.org/2000/svg" xmlns:xlink="http://www.w3.org/1999/xlink">
<g id="graph0" class="graph" transform="scale(1 1) rotate(0) translate(4 573.5)">
<title>Automaton</title>
<polygon fill="white" stroke="none" points="-4,4 -4,-573.5 606,-573.5 606,4 -4,4"/>
<!-- filename -->
<g id="node1" class="node">
<title>filename</title>
<polygon fill="none" stroke="black" points="0,-502.75 0,-556.25 184,-556.25 184,-502.75 0,-502.75"/>
<polygon fill="none" stroke="black" points="11,-530.5 11,-549.25 173,-549.25 173,-530.5 11,-530.5"/>
<text text-anchor="start" x="14" y="-537.75" font-family="Courier New" font-weight="bold" font-size="10.00">SMP_MAPBUTTON::M_MAPBUTTON</text>
<polygon fill="none" stroke="black" points="11,-509.75 11,-528.5 173,-528.5 173,-509.75 11,-509.75"/>
<text text-anchor="start" x="47" y="-516" font-family="Courier New" font-size="10.00" fill="brown">start state = 0</text>
<polygon fill="none" stroke="black" points="8,-506.75 8,-552.25 176,-552.25 176,-506.75 8,-506.75"/>
</g>
<!-- 0 -->
<g id="node2" class="node">
<title>0</title>
<polyline fill="none" stroke="darkred" points="221.88,-518.25 236.12,-518.25"/>
<text text-anchor="start" x="224.88" y="-525.45" font-family="Courier New" font-weight="bold" font-size="14.00">0</text>
<path fill="none" stroke="darkred" d="M225.62,-515.25C225.62,-515.25 232.38,-515.25 232.38,-515.25 235.75,-515.25 239.12,-518.62 239.12,-522 239.12,-522 239.12,-537 239.12,-537 239.12,-540.38 235.75,-543.75 232.38,-543.75 232.38,-543.75 225.62,-543.75 225.62,-543.75 222.25,-543.75 218.88,-540.38 218.88,-537 218.88,-537 218.88,-522 218.88,-522 218.88,-518.62 222.25,-515.25 225.62,-515.25"/>
</g>
<!-- 1 -->
<g id="node3" class="node">
<title>1</title>
<polyline fill="none" stroke="darkred" stroke-width="3" points="93.38,-361.25 108.62,-361.25"/>
<text text-anchor="start" x="96.88" y="-368.95" font-family="Courier New" font-weight="bold" font-size="14.00">1</text>
<path fill="none" stroke="darkred" stroke-width="3" d="M96.79,-356.25C96.79,-356.25 105.21,-356.25 105.21,-356.25 109.42,-356.25 113.62,-360.46 113.62,-364.67 113.62,-364.67 113.62,-381.33 113.62,-381.33 113.62,-385.54 109.42,-389.75 105.21,-389.75 105.21,-389.75 96.79,-389.75 96.79,-389.75 92.58,-389.75 88.38,-385.54 88.38,-381.33 88.38,-381.33 88.38,-364.67 88.38,-364.67 88.38,-360.46 92.58,-356.25 96.79,-356.25"/>
</g>
<!-- 0&#45;&gt;1 -->
<g id="edge1" class="edge">
<title>0&#45;&gt;1</title>
<path fill="none" stroke="black" d="M214.81,-511.38C193.27,-485.38 152.04,-435.61 125.56,-403.65"/>
<polygon fill="black" stroke="black" points="128.56,-401.77 119.48,-396.31 123.17,-406.24 128.56,-401.77"/>
<polygon fill="none" stroke="black" points="184,-449.75 184,-468.5 298,-468.5 298,-449.75 184,-449.75"/>
<text text-anchor="start" x="205" y="-457" font-family="Courier New" font-weight="bold" font-size="10.00" fill="blue">Z_EPSILON(,)</text>
<polygon fill="none" stroke="black" points="184,-416.25 184,-447.75 298,-447.75 298,-416.25 184,-416.25"/>
<text text-anchor="start" x="187" y="-435.25" font-family="Courier New" font-size="10.00" fill="blue"> &#160;&#160;CLEAR(WOBJECT);</text>
<text text-anchor="start" x="187" y="-422.5" font-family="Courier New" font-size="10.00" fill="blue"> &#160;&#160;SHOW();</text>
<polygon fill="none" stroke="black" points="181,-413.25 181,-471.5 301,-471.5 301,-413.25 181,-413.25"/>
</g>
<!-- mapPresent -->
<g id="node4" class="node">
<title>mapPresent</title>
<polyline fill="none" stroke="darkred" points="153.75,-214.25 242.25,-214.25"/>
<text text-anchor="start" x="156.75" y="-221.45" font-family="Courier New" font-weight="bold" font-size="14.00">mapPresent</text>
<path fill="none" stroke="darkred" d="M160.25,-211.25C160.25,-211.25 235.75,-211.25 235.75,-211.25 240.5,-211.25 245.25,-216 245.25,-220.75 245.25,-220.75 245.25,-230.25 245.25,-230.25 245.25,-235 240.5,-239.75 235.75,-239.75 235.75,-239.75 160.25,-239.75 160.25,-239.75 155.5,-239.75 150.75,-235 150.75,-230.25 150.75,-230.25 150.75,-220.75 150.75,-220.75 150.75,-216 155.5,-211.25 160.25,-211.25"/>
</g>
<!-- 1&#45;&gt;mapPresent -->
<g id="edge2" class="edge">
<title>1&#45;&gt;mapPresent</title>
<path fill="none" stroke="black" d="M81.73,-350.98C77.75,-345.43 74.12,-339.19 72,-332.75 62.13,-302.78 52.93,-286.89 72,-261.75 79.81,-251.46 105.55,-243.35 131.76,-237.52"/>
<polygon fill="black" stroke="black" points="132.42,-240.96 141.48,-235.48 130.97,-234.11 132.42,-240.96"/>
<polygon fill="none" stroke="black" points="75,-311 75,-329.75 309,-329.75 309,-311 75,-311"/>
<text text-anchor="start" x="141" y="-318.25" font-family="Courier New" font-weight="bold" font-size="10.00" fill="orange">DROP(IDD_MAPBTN,)</text>
<polygon fill="none" stroke="black" points="75,-264.75 75,-309 309,-309 309,-264.75 75,-264.75"/>
<text text-anchor="start" x="78" y="-296.5" font-family="Courier New" font-size="10.00" fill="blue"> &#160;&#160;SIGNAL(QL_MANAGER,Q1_STOP);</text>
<text text-anchor="start" x="78" y="-283.75" font-family="Courier New" font-size="10.00" fill="blue"> &#160;&#160;SHOW(WOBJECT);</text>
<text text-anchor="start" x="78" y="-271" font-family="Courier New" font-size="10.00" fill="blue"> &#160;&#160;ADDI(LWISDOM,1); SIGNALi(0,SID_ID);</text>
<polygon fill="none" stroke="black" points="72,-261.75 72,-332.75 312,-332.75 312,-261.75 72,-261.75"/>
</g>
<!-- mapPresent&#45;&gt;0 -->
<g id="edge4" class="edge">
<title>mapPresent&#45;&gt;0</title>
<path fill="none" stroke="black" d="M253.15,-229.8C275.11,-234.16 298.35,-243.24 312,-261.75 367.36,-336.82 357.6,-394.47 305,-471.5 294.01,-487.6 280.82,-478.11 265,-489.5 259.54,-493.43 254.26,-498.3 249.51,-503.24"/>
<polygon fill="black" stroke="black" points="247.19,-500.59 243.09,-510.36 252.39,-505.28 247.19,-500.59"/>
<text text-anchor="start" x="353" y="-370.88" font-family="Courier New" font-weight="bold" font-size="10.00" fill="orange">WAIT(SIG_RESET,)</text>
</g>
<!-- requested -->
<g id="node5" class="node">
<title>requested</title>
<polyline fill="none" stroke="darkred" points="157.88,-7 238.12,-7"/>
<text text-anchor="start" x="160.88" y="-14.2" font-family="Courier New" font-weight="bold" font-size="14.00">requested</text>
<path fill="none" stroke="darkred" d="M164.38,-4C164.38,-4 231.62,-4 231.62,-4 236.38,-4 241.12,-8.75 241.12,-13.5 241.12,-13.5 241.12,-23 241.12,-23 241.12,-27.75 236.38,-32.5 231.62,-32.5 231.62,-32.5 164.38,-32.5 164.38,-32.5 159.62,-32.5 154.88,-27.75 154.88,-23 154.88,-23 154.88,-13.5 154.88,-13.5 154.88,-8.75 159.62,-4 164.38,-4"/>
</g>
<!-- mapPresent&#45;&gt;requested -->
<g id="edge3" class="edge">
<title>mapPresent&#45;&gt;requested</title>
<path fill="none" stroke="black" d="M142.98,-217.52C108.83,-211.93 69.51,-202.76 59,-189.25 22.22,-141.98 22.22,-101.77 59,-54.5 68.78,-41.93 103.49,-33.12 135.78,-27.45"/>
<polygon fill="black" stroke="black" points="136.27,-30.92 145.56,-25.83 135.12,-24.02 136.27,-30.92"/>
<polygon fill="none" stroke="black" points="62,-167.5 62,-186.25 314,-186.25 314,-167.5 62,-167.5"/>
<text text-anchor="start" x="158" y="-174.75" font-family="Courier New" font-weight="bold" font-size="10.00" fill="orange">CLICK(0,0)</text>
<polygon fill="none" stroke="black" points="62,-57.5 62,-165.5 314,-165.5 314,-57.5 62,-57.5"/>
<text text-anchor="start" x="65" y="-153" font-family="Courier New" font-size="10.00" fill="blue"> &#160;&#160;&#160;&#160;&#160;SIGNAL(MEFPAN_CLOSER,SIG_SET);</text>
<text text-anchor="start" x="65" y="-140.25" font-family="Courier New" font-size="10.00" fill="blue"> &#160;&#160;&#160;&#160;&#160;SIGNAL(S27_DEATHMANAGER,SIG_CLEAR);</text>
<text text-anchor="start" x="65" y="-127.5" font-family="Courier New" font-size="10.00" fill="blue"> &#160;&#160;&#160;&#160;&#160;SIGNAL(S17_aFOULWIND,SIG_CLEAR);</text>
<text text-anchor="start" x="65" y="-114.75" font-family="Courier New" font-size="10.00" fill="blue"> &#160;&#160;&#160;&#160;&#160;SIGNAL(S17_bFOULWIND,SIG_CLEAR);</text>
<text text-anchor="start" x="65" y="-102" font-family="Courier New" font-size="10.00" fill="blue"> &#160;&#160;&#160;&#160;&#160;SIGNAL(S17_cFOULWIND,SIG_CLEAR);</text>
<text text-anchor="start" x="65" y="-89.25" font-family="Courier New" font-size="10.00" fill="blue"> &#160;&#160;&#160;&#160;&#160;SIGNAL(S17_dFOULWIND,SIG_CLEAR);</text>
<text text-anchor="start" x="65" y="-76.5" font-family="Courier New" font-size="10.00" fill="blue"> &#160;&#160;&#160;&#160;&#160;SIGNAL(S17_eFOULWIND,SIG_CLEAR);</text>
<text text-anchor="start" x="65" y="-63.75" font-family="Courier New" font-size="10.00" fill="blue"> &#160;&#160;PLAYWAVE(SOUND_POPUP);</text>
<polygon fill="none" stroke="black" points="59,-54.5 59,-189.25 317,-189.25 317,-54.5 59,-54.5"/>
</g>
<!-- requested&#45;&gt;mapPresent -->
<g id="edge5" class="edge">
<title>requested&#45;&gt;mapPresent</title>
<path fill="none" stroke="black" d="M249.06,-20.85C273.74,-24.52 301.34,-33.52 317,-54.5 352.83,-102.49 352.83,-141.26 317,-189.25 304.49,-206 284.37,-215.12 264.2,-219.98"/>
<polygon fill="black" stroke="black" points="263.62,-216.53 254.52,-221.96 265.02,-223.39 263.62,-216.53"/>
<text text-anchor="start" x="347" y="-119.75" font-family="Courier New" font-weight="bold" font-size="10.00" fill="blue">LOADVIEW(IDV_CONTINENT,)</text>
</g>
<!-- status -->
<g id="node6" class="node">
<title>status</title>
<polygon fill="none" stroke="black" points="274,-490 274,-569 602,-569 602,-490 274,-490"/>
<polygon fill="none" stroke="black" points="285,-543.25 285,-562 591,-562 591,-543.25 285,-543.25"/>
<text text-anchor="start" x="399" y="-550.5" font-family="Courier New" font-weight="bold" font-size="10.00">SMP_MAPBUTTON</text>
<polygon fill="none" stroke="black" points="285,-497 285,-541.25 591,-541.25 591,-497 285,-497"/>
<text text-anchor="start" x="288" y="-528.75" font-family="Courier New" font-size="10.00" fill="green">VIEW::IDV_MAIN_PANEL @pos(x:107, y:11, h:35, w:36)</text>
<text text-anchor="start" x="288" y="-516" font-family="Courier New" font-size="10.00" fill="green">SMP_MAPBUTTON::M_MAPBUTTON(&#39;&#39;,&#39;&#39;,&#39;&#39;,&#39;&#39;,&#39;&#39;,&#39;&#39;)</text>
<text text-anchor="start" x="288" y="-503.25" font-family="Courier New" font-size="10.00" fill="green">{state:&#39;1&#39;: Top:11 Left:107 Z:0</text>
<polygon fill="none" stroke="black" points="282,-494 282,-565 594,-565 594,-494 282,-494"/>
</g>
</g>
</svg>
