<?xml version="1.0" encoding="UTF-8" standalone="no"?>
<!DOCTYPE svg PUBLIC "-//W3C//DTD SVG 1.1//EN"
 "http://www.w3.org/Graphics/SVG/1.1/DTD/svg11.dtd">
<!-- Generated by graphviz version 10.0.1 (20240210.2158)
 -->
<!-- Title: Automaton Pages: 1 -->
<svg width="3096pt" height="923pt"
 viewBox="0.00 0.00 3096.31 923.25" xmlns="http://www.w3.org/2000/svg" xmlns:xlink="http://www.w3.org/1999/xlink">
<g id="graph0" class="graph" transform="scale(1 1) rotate(0) translate(4 919.25)">
<title>Automaton</title>
<polygon fill="white" stroke="none" points="-4,4 -4,-919.25 3092.31,-919.25 3092.31,4 -4,4"/>
<!-- filename -->
<g id="node1" class="node">
<title>filename</title>
<polygon fill="none" stroke="black" points="339.31,-848.5 339.31,-902 499.31,-902 499.31,-848.5 339.31,-848.5"/>
<polygon fill="none" stroke="black" points="350.31,-876.25 350.31,-895 488.31,-895 488.31,-876.25 350.31,-876.25"/>
<text text-anchor="start" x="353.31" y="-883.5" font-family="Courier New" font-weight="bold" font-size="10.00">SMP_EYEINFO::M_EYEINFO</text>
<polygon fill="none" stroke="black" points="350.31,-855.5 350.31,-874.25 488.31,-874.25 488.31,-855.5 350.31,-855.5"/>
<text text-anchor="start" x="374.31" y="-861.75" font-family="Courier New" font-size="10.00" fill="brown">start state = 0</text>
<polygon fill="none" stroke="black" points="347.31,-852.5 347.31,-898 491.31,-898 491.31,-852.5 347.31,-852.5"/>
</g>
<!-- 0 -->
<g id="node2" class="node">
<title>0</title>
<polyline fill="none" stroke="darkred" stroke-width="3" points="536.68,-863.5 551.93,-863.5"/>
<text text-anchor="start" x="540.18" y="-871.2" font-family="Courier New" font-weight="bold" font-size="14.00">0</text>
<path fill="none" stroke="darkred" stroke-width="3" d="M540.1,-858.5C540.1,-858.5 548.52,-858.5 548.52,-858.5 552.73,-858.5 556.93,-862.71 556.93,-866.92 556.93,-866.92 556.93,-883.58 556.93,-883.58 556.93,-887.79 552.73,-892 548.52,-892 548.52,-892 540.1,-892 540.1,-892 535.89,-892 531.68,-887.79 531.68,-883.58 531.68,-883.58 531.68,-866.92 531.68,-866.92 531.68,-862.71 535.89,-858.5 540.1,-858.5"/>
</g>
<!-- checkObject -->
<g id="node3" class="node">
<title>checkObject</title>
<polyline fill="none" stroke="darkred" points="866.93,-252.5 963.68,-252.5"/>
<text text-anchor="start" x="869.93" y="-259.7" font-family="Courier New" font-weight="bold" font-size="14.00">checkObject</text>
<path fill="none" stroke="darkred" d="M873.43,-249.5C873.43,-249.5 957.18,-249.5 957.18,-249.5 961.93,-249.5 966.68,-254.25 966.68,-259 966.68,-259 966.68,-268.5 966.68,-268.5 966.68,-273.25 961.93,-278 957.18,-278 957.18,-278 873.43,-278 873.43,-278 868.68,-278 863.93,-273.25 863.93,-268.5 863.93,-268.5 863.93,-259 863.93,-259 863.93,-254.25 868.68,-249.5 873.43,-249.5"/>
</g>
<!-- 0&#45;&gt;checkObject -->
<g id="edge1" class="edge">
<title>0&#45;&gt;checkObject</title>
<path fill="none" stroke="black" d="M529.1,-853.06C523.31,-846.41 516.19,-839.66 508.31,-835.25 472.33,-815.11 443.48,-849.11 417.31,-817.25 399.07,-795.05 397.72,-321.02 417.31,-300 445.81,-269.41 714.19,-264.91 844.71,-264.54"/>
<polygon fill="black" stroke="black" points="844.63,-268.05 854.62,-264.53 844.62,-261.05 844.63,-268.05"/>
<polygon fill="none" stroke="black" points="420.31,-566 420.31,-584.75 648.31,-584.75 648.31,-566 420.31,-566"/>
<text text-anchor="start" x="507.31" y="-573.25" font-family="Courier New" font-weight="bold" font-size="10.00" fill="orange">DROP(0,0)</text>
<polygon fill="none" stroke="black" points="420.31,-532.5 420.31,-564 648.31,-564 648.31,-532.5 420.31,-532.5"/>
<text text-anchor="start" x="423.31" y="-551.5" font-family="Courier New" font-size="10.00" fill="blue">PLAYWAVE(SOUND_POPUP);ASHOW(WOBJECT);</text>
<text text-anchor="start" x="423.31" y="-538.75" font-family="Courier New" font-size="10.00" fill="blue">MOV(BPARM,LVIEW);</text>
<polygon fill="none" stroke="black" points="417.31,-529.5 417.31,-587.75 651.31,-587.75 651.31,-529.5 417.31,-529.5"/>
</g>
<!-- replacedView -->
<g id="node4" class="node">
<title>replacedView</title>
<polyline fill="none" stroke="darkred" points="222.81,-252.5 327.81,-252.5"/>
<text text-anchor="start" x="225.81" y="-259.7" font-family="Courier New" font-weight="bold" font-size="14.00">replacedView</text>
<path fill="none" stroke="darkred" d="M229.31,-249.5C229.31,-249.5 321.31,-249.5 321.31,-249.5 326.06,-249.5 330.81,-254.25 330.81,-259 330.81,-259 330.81,-268.5 330.81,-268.5 330.81,-273.25 326.06,-278 321.31,-278 321.31,-278 229.31,-278 229.31,-278 224.56,-278 219.81,-273.25 219.81,-268.5 219.81,-268.5 219.81,-259 219.81,-259 219.81,-254.25 224.56,-249.5 229.31,-249.5"/>
</g>
<!-- 0&#45;&gt;replacedView -->
<g id="edge2" class="edge">
<title>0&#45;&gt;replacedView</title>
<path fill="none" stroke="black" d="M530.15,-853.2C524.28,-846.21 516.83,-839.22 508.31,-835.25 469.09,-816.98 149.19,-848.54 119.31,-817.25 39.93,-734.11 47.55,-389.79 119.31,-300 119.67,-299.55 160.9,-290.25 200.87,-281.31"/>
<polygon fill="black" stroke="black" points="201.61,-284.73 210.6,-279.14 200.08,-277.9 201.61,-284.73"/>
<polygon fill="none" stroke="black" points="122.31,-559.62 122.31,-578.38 212.31,-578.38 212.31,-559.62 122.31,-559.62"/>
<text text-anchor="start" x="140.31" y="-566.88" font-family="Courier New" font-weight="bold" font-size="10.00" fill="orange">GRAB(0,0)</text>
<polygon fill="none" stroke="black" points="122.31,-538.88 122.31,-557.62 212.31,-557.62 212.31,-538.88 122.31,-538.88"/>
<text text-anchor="start" x="125.31" y="-545.12" font-family="Courier New" font-size="10.00" fill="blue"> &#160;&#160;&#160;&#160;&#160;SHOW(0);</text>
<polygon fill="none" stroke="black" points="119.31,-535.88 119.31,-581.38 215.31,-581.38 215.31,-535.88 119.31,-535.88"/>
</g>
<!-- checkObject&#45;&gt;0 -->
<g id="edge5" class="edge">
<title>checkObject&#45;&gt;0</title>
<path fill="none" stroke="black" d="M856.19,-265.09C792.76,-266.83 697.92,-273.89 674.31,-300 635.73,-342.68 687.64,-772.64 651.31,-817.25 630.75,-842.49 608.28,-818.6 580.31,-835.25 575.7,-837.99 571.33,-841.5 567.32,-845.29"/>
<polygon fill="black" stroke="black" points="565.09,-842.56 560.7,-852.2 570.15,-847.4 565.09,-842.56"/>
<polygon fill="none" stroke="black" points="677.31,-795.5 677.31,-814.25 1133.31,-814.25 1133.31,-795.5 677.31,-795.5"/>
<text text-anchor="start" x="836.31" y="-802.75" font-family="Courier New" font-weight="bold" font-size="10.00" fill="blue">IS_A(WOBJECT,ISA_DIARY)</text>
<polygon fill="none" stroke="black" points="677.31,-303 677.31,-793.5 1133.31,-793.5 1133.31,-303 677.31,-303"/>
<text text-anchor="start" x="680.31" y="-781" font-family="Courier New" font-size="10.00" fill="blue">MOV(WPARM,WOBJECT);</text>
<text text-anchor="start" x="680.31" y="-768.25" font-family="Courier New" font-size="10.00" fill="blue"> &#160;&#160;&#160;&#160;&#160;&#160;&#160;if((WOBJECT == IDD_DIARY1 )){</text>
<text text-anchor="start" x="680.31" y="-755.5" font-family="Courier New" font-size="10.00" fill="blue"> &#160;&#160;&#160;&#160;&#160;&#160;&#160;&#160;&#160;&#160;&#160;&#160;&#160;&#160;&#160;&#160;SIGNAL(NIRET_DIARY_WAITER,SIG_DIARY);</text>
<text text-anchor="start" x="680.31" y="-742.75" font-family="Courier New" font-size="10.00" fill="blue"> &#160;&#160;&#160;&#160;&#160;&#160;&#160;&#160;&#160;&#160;&#160;&#160;&#160;&#160;&#160;&#160;&#160;&#160;q_world_active(?TEMP1, &quot;2&quot;);</text>
<text text-anchor="start" x="680.31" y="-730" font-family="Courier New" font-size="10.00" fill="blue"> &#160;&#160;&#160;&#160;&#160;&#160;&#160;&#160;&#160;&#160;&#160;&#160;&#160;&#160;&#160;&#160;&#160;&#160;&#160;&#160;&#160;&#160;&#160;if(TEMP1 != &quot; Recover the seed of Azarian unity.&quot;){</text>
<text text-anchor="start" x="680.31" y="-717.25" font-family="Courier New" font-size="10.00" fill="blue"> &#160;&#160;&#160;&#160;&#160;&#160;&#160;&#160;&#160;&#160;&#160;&#160;&#160;&#160;&#160;&#160;&#160;&#160;&#160;&#160;&#160;&#160;&#160;&#160;&#160;&#160;&#160;&#160;&#160;&#160;&#160;SIGNAL(QL_MANAGER,Q2_START);</text>
<text text-anchor="start" x="680.31" y="-704.5" font-family="Courier New" font-size="10.00" fill="blue"> &#160;&#160;&#160;&#160;&#160;&#160;&#160;&#160;&#160;&#160;&#160;&#160;&#160;&#160;&#160;&#160;&#160;&#160;&#160;&#160;&#160;&#160;&#160;}</text>
<text text-anchor="start" x="680.31" y="-691.75" font-family="Courier New" font-size="10.00" fill="blue"> &#160;&#160;&#160;&#160;&#160;&#160;&#160;}</text>
<text text-anchor="start" x="680.31" y="-679" font-family="Courier New" font-size="10.00" fill="blue"> &#160;&#160;&#160;&#160;&#160;&#160;&#160;if((WOBJECT == IDD_DIARY2 )){</text>
<text text-anchor="start" x="680.31" y="-666.25" font-family="Courier New" font-size="10.00" fill="blue"> &#160;&#160;&#160;&#160;&#160;&#160;&#160;&#160;&#160;&#160;&#160;&#160;&#160;&#160;&#160;&#160;SIGNAL(ORIE_DIARY_WAITER,SIG_DIARY);</text>
<text text-anchor="start" x="680.31" y="-653.5" font-family="Courier New" font-size="10.00" fill="blue"> &#160;&#160;&#160;&#160;&#160;&#160;&#160;}</text>
<text text-anchor="start" x="680.31" y="-640.75" font-family="Courier New" font-size="10.00" fill="blue"> &#160;&#160;&#160;&#160;&#160;&#160;&#160;&#160;if((WOBJECT == IDD_DIARY3 )){</text>
<text text-anchor="start" x="680.31" y="-628" font-family="Courier New" font-size="10.00" fill="blue"> &#160;&#160;&#160;&#160;&#160;&#160;&#160;&#160;&#160;&#160;&#160;&#160;&#160;&#160;&#160;&#160;SIGNAL(ETNOC_DIARY_WAITER,SIG_DIARY);</text>
<text text-anchor="start" x="680.31" y="-615.25" font-family="Courier New" font-size="10.00" fill="blue"> &#160;&#160;&#160;&#160;&#160;&#160;&#160;}</text>
<text text-anchor="start" x="680.31" y="-602.5" font-family="Courier New" font-size="10.00" fill="blue"> &#160;&#160;&#160;&#160;&#160;&#160;&#160;&#160;if((WOBJECT == IDD_DIARY4 )){</text>
<text text-anchor="start" x="680.31" y="-589.75" font-family="Courier New" font-size="10.00" fill="blue"> &#160;&#160;&#160;&#160;&#160;&#160;&#160;&#160;&#160;&#160;&#160;&#160;&#160;&#160;&#160;&#160;SIGNAL(ETNOC_DIARY_WAITER,SIG_DIARY);</text>
<text text-anchor="start" x="680.31" y="-577" font-family="Courier New" font-size="10.00" fill="blue"> &#160;&#160;&#160;&#160;&#160;&#160;&#160;}</text>
<text text-anchor="start" x="680.31" y="-564.25" font-family="Courier New" font-size="10.00" fill="blue"> &#160;&#160;&#160;&#160;&#160;&#160;&#160;&#160;if((WOBJECT == IDD_DIARY5 )){</text>
<text text-anchor="start" x="680.31" y="-551.5" font-family="Courier New" font-size="10.00" fill="blue"> &#160;&#160;&#160;&#160;&#160;&#160;&#160;&#160;&#160;&#160;&#160;&#160;&#160;&#160;&#160;&#160;&#160;SIGNAL(NIRET_DIARY_WAITER,SIG_DIARY);</text>
<text text-anchor="start" x="680.31" y="-538.75" font-family="Courier New" font-size="10.00" fill="blue"> &#160;&#160;&#160;&#160;&#160;&#160;&#160;&#160;&#160;&#160;&#160;&#160;&#160;&#160;&#160;&#160;&#160;q_world_active(?TEMP1, &quot;6&quot;);</text>
<text text-anchor="start" x="680.31" y="-526" font-family="Courier New" font-size="10.00" fill="blue"> &#160;&#160;&#160;&#160;&#160;&#160;&#160;&#160;&#160;&#160;&#160;&#160;&#160;&#160;&#160;&#160;&#160;&#160;&#160;&#160;&#160;&#160;&#160;if(TEMP1 != &quot; Perform the ritual of the 7 moons.&quot;){</text>
<text text-anchor="start" x="680.31" y="-513.25" font-family="Courier New" font-size="10.00" fill="blue"> &#160;&#160;&#160;&#160;&#160;&#160;&#160;&#160;&#160;&#160;&#160;&#160;&#160;&#160;&#160;&#160;&#160;&#160;&#160;&#160;&#160;&#160;&#160;&#160;&#160;&#160;&#160;&#160;&#160;&#160;&#160;SIGNAL(QL_MANAGER,Q6_START);</text>
<text text-anchor="start" x="680.31" y="-500.5" font-family="Courier New" font-size="10.00" fill="blue"> &#160;&#160;&#160;&#160;&#160;&#160;&#160;&#160;&#160;&#160;&#160;&#160;&#160;&#160;&#160;&#160;&#160;&#160;&#160;&#160;&#160;&#160;&#160;}</text>
<text text-anchor="start" x="680.31" y="-487.75" font-family="Courier New" font-size="10.00" fill="blue"> &#160;&#160;&#160;&#160;&#160;&#160;&#160;}</text>
<text text-anchor="start" x="680.31" y="-475" font-family="Courier New" font-size="10.00" fill="blue"> &#160;&#160;&#160;&#160;&#160;&#160;&#160;if((WOBJECT == IDD_DIARY8 )){</text>
<text text-anchor="start" x="680.31" y="-462.25" font-family="Courier New" font-size="10.00" fill="blue"> &#160;&#160;&#160;&#160;&#160;&#160;&#160;&#160;&#160;&#160;&#160;&#160;&#160;&#160;&#160;&#160;SIGNAL(NIRET_DIARY_WAITER,SIG_DIARY);</text>
<text text-anchor="start" x="680.31" y="-449.5" font-family="Courier New" font-size="10.00" fill="blue"> &#160;&#160;&#160;&#160;&#160;&#160;&#160;&#160;&#160;&#160;&#160;&#160;&#160;&#160;&#160;&#160;&#160;&#160;q_world_active(?TEMP1, &quot;4&quot;);</text>
<text text-anchor="start" x="680.31" y="-436.75" font-family="Courier New" font-size="10.00" fill="blue"> &#160;&#160;&#160;&#160;&#160;&#160;&#160;&#160;&#160;&#160;&#160;&#160;&#160;&#160;&#160;&#160;&#160;&#160;&#160;&#160;&#160;&#160;&#160;if(TEMP1 != &quot; Restore the pyramid of the eyes.&quot;){</text>
<text text-anchor="start" x="680.31" y="-424" font-family="Courier New" font-size="10.00" fill="blue"> &#160;&#160;&#160;&#160;&#160;&#160;&#160;&#160;&#160;&#160;&#160;&#160;&#160;&#160;&#160;&#160;&#160;&#160;&#160;&#160;&#160;&#160;&#160;&#160;&#160;&#160;&#160;&#160;&#160;&#160;&#160;SIGNAL(QL_MANAGER,Q4_START);</text>
<text text-anchor="start" x="680.31" y="-411.25" font-family="Courier New" font-size="10.00" fill="blue"> &#160;&#160;&#160;&#160;&#160;&#160;&#160;&#160;&#160;&#160;&#160;&#160;&#160;&#160;&#160;&#160;&#160;&#160;&#160;&#160;&#160;&#160;&#160;}</text>
<text text-anchor="start" x="680.31" y="-398.5" font-family="Courier New" font-size="10.00" fill="blue"> &#160;&#160;&#160;&#160;&#160;&#160;&#160;}</text>
<text text-anchor="start" x="680.31" y="-385.75" font-family="Courier New" font-size="10.00" fill="blue"> &#160;&#160;&#160;&#160;&#160;&#160;&#160;&#160;if((WOBJECT == IDD_DIARY9 )){</text>
<text text-anchor="start" x="680.31" y="-373" font-family="Courier New" font-size="10.00" fill="blue"> &#160;&#160;&#160;&#160;&#160;&#160;&#160;&#160;&#160;&#160;&#160;&#160;&#160;&#160;&#160;&#160;SIGNAL(NIRET_DIARY_WAITER,SIG_DIARY);</text>
<text text-anchor="start" x="680.31" y="-360.25" font-family="Courier New" font-size="10.00" fill="blue"> &#160;&#160;&#160;&#160;&#160;&#160;&#160;}</text>
<text text-anchor="start" x="680.31" y="-347.5" font-family="Courier New" font-size="10.00" fill="blue"> &#160;&#160;&#160;&#160;&#160;&#160;&#160;&#160;if((WOBJECT == IDD_DIARY10 )){</text>
<text text-anchor="start" x="680.31" y="-334.75" font-family="Courier New" font-size="10.00" fill="blue"> &#160;&#160;&#160;&#160;&#160;&#160;&#160;&#160;&#160;&#160;&#160;&#160;&#160;&#160;&#160;&#160;SIGNAL(NIRET_DIARY_WAITER,SIG_DIARY);</text>
<text text-anchor="start" x="680.31" y="-322" font-family="Courier New" font-size="10.00" fill="blue"> &#160;&#160;&#160;&#160;&#160;&#160;&#160;}</text>
<text text-anchor="start" x="680.31" y="-309.25" font-family="Courier New" font-size="10.00" fill="blue"> &#160;&#160;&#160;&#160;&#160;&#160;&#160;</text>
<polygon fill="none" stroke="black" points="674.31,-300 674.31,-817.25 1136.31,-817.25 1136.31,-300 674.31,-300"/>
</g>
<!-- checkObject&#45;&gt;0 -->
<g id="edge6" class="edge">
<title>checkObject&#45;&gt;0</title>
<path fill="none" stroke="black" d="M974.56,-265.83C1032.81,-268.3 1115.88,-276.06 1136.31,-300 1154.96,-321.86 1156.3,-796.6 1136.31,-817.25 1114.81,-839.45 608.42,-822.4 580.31,-835.25 575.23,-837.57 570.55,-840.98 566.34,-844.82"/>
<polygon fill="black" stroke="black" points="563.84,-842.38 559.48,-852.04 568.91,-847.2 563.84,-842.38"/>
<polygon fill="none" stroke="black" points="1153.31,-610.62 1153.31,-629.38 2827.31,-629.38 2827.31,-610.62 1153.31,-610.62"/>
<text text-anchor="start" x="1954.31" y="-617.88" font-family="Courier New" font-weight="bold" font-size="10.00" fill="blue">Z_EPSILON(,)</text>
<polygon fill="none" stroke="black" points="1153.31,-487.88 1153.31,-608.62 2827.31,-608.62 2827.31,-487.88 1153.31,-487.88"/>
<text text-anchor="start" x="1156.31" y="-596.12" font-family="Courier New" font-size="10.00" fill="blue"> &#160;&#160;&#160;&#160;&#160;&#160;</text>
<text text-anchor="start" x="1156.31" y="-583.38" font-family="Courier New" font-size="10.00" fill="blue">if(IS_A(WOBJECT,IDD_SCOOPE) \|\| IS_A(WOBJECT,IDD_SCOOPF)){</text>
<text text-anchor="start" x="1156.31" y="-570.62" font-family="Courier New" font-size="10.00" fill="blue"> &#160;&#160;&#160;&#160;&#160;&#160;&#160;&#160;&#160;&#160;&#160;&#160;&#160;&#160;&#160;MOV(WPARM,WOBJECT);</text>
<text text-anchor="start" x="1156.31" y="-557.88" font-family="Courier New" font-size="10.00" fill="blue"> &#160;&#160;&#160;&#160;&#160;&#160;&#160;&#160;&#160;&#160;&#160;&#160;&#160;&#160;&#160;SIGNAL(NYSTROM_WAITER,SIG_NYSTROM);</text>
<text text-anchor="start" x="1156.31" y="-545.12" font-family="Courier New" font-size="10.00" fill="blue"> &#160;&#160;&#160;&#160;&#160;&#160;&#160;&#160;&#160;&#160;&#160;&#160;&#160;&#160;&#160;}</text>
<text text-anchor="start" x="1156.31" y="-532.38" font-family="Courier New" font-size="10.00" fill="blue"> &#160;&#160;&#160;&#160;&#160;&#160;if(IS_A(WOBJECT,IDC_NULL) \|\| IS_A(WOBJECT,IDC_BOMB) \|\| IS_A(WOBJECT,IDC_FISH) \|\| IS_A(WOBJECT,IDC_SPELL) \|\| IS_A(WOBJECT,IDC_BAIT) \|\| IS_A(WOBJECT,IDC_TOKEN)\|\| IS_A(WOBJECT,ISA_TOOL_DIGGER)\|\| IS_A(WOBJECT,ISA_TOOL_STRIKER)\|\| IS_A(WOBJECT,ISA_TOOL_PRYER)){</text>
<text text-anchor="start" x="1156.31" y="-519.62" font-family="Courier New" font-size="10.00" fill="blue"> &#160;&#160;&#160;&#160;&#160;&#160;&#160;&#160;&#160;&#160;&#160;&#160;&#160;&#160;&#160;MOV(WPARM,WOBJECT);</text>
<text text-anchor="start" x="1156.31" y="-506.88" font-family="Courier New" font-size="10.00" fill="blue"> &#160;&#160;&#160;&#160;&#160;&#160;&#160;&#160;&#160;&#160;&#160;&#160;&#160;&#160;&#160;SIGNAL(OBJECT_WAITER,SIG_OBJECT);</text>
<text text-anchor="start" x="1156.31" y="-494.12" font-family="Courier New" font-size="10.00" fill="blue"> &#160;&#160;&#160;&#160;&#160;&#160;&#160;&#160;&#160;&#160;&#160;&#160;&#160;&#160;&#160;}</text>
<polygon fill="none" stroke="black" points="1150.31,-484.88 1150.31,-632.38 2830.31,-632.38 2830.31,-484.88 1150.31,-484.88"/>
</g>
<!-- checkObject&#45;&gt;0 -->
<g id="edge7" class="edge">
<title>checkObject&#45;&gt;0</title>
<path fill="none" stroke="black" d="M974.51,-264.71C1294.17,-264.62 2800.92,-266 2834.31,-300 2854.44,-320.51 2854.55,-796.85 2834.31,-817.25 2812.26,-839.48 608.94,-822.58 580.31,-835.25 575.21,-837.51 570.5,-840.88 566.3,-844.71"/>
<polygon fill="black" stroke="black" points="563.79,-842.27 559.43,-851.92 568.86,-847.1 563.79,-842.27"/>
<text text-anchor="start" x="2853.31" y="-556.5" font-family="Courier New" font-weight="bold" font-size="10.00" fill="blue">Z_EPSILON(0,0)</text>
</g>
<!-- viewSpell -->
<g id="node5" class="node">
<title>viewSpell</title>
<polyline fill="none" stroke="darkred" points="516.18,-7 596.43,-7"/>
<text text-anchor="start" x="519.18" y="-14.2" font-family="Courier New" font-weight="bold" font-size="14.00">viewSpell</text>
<path fill="none" stroke="darkred" d="M522.68,-4C522.68,-4 589.93,-4 589.93,-4 594.68,-4 599.43,-8.75 599.43,-13.5 599.43,-13.5 599.43,-23 599.43,-23 599.43,-27.75 594.68,-32.5 589.93,-32.5 589.93,-32.5 522.68,-32.5 522.68,-32.5 517.93,-32.5 513.18,-27.75 513.18,-23 513.18,-23 513.18,-13.5 513.18,-13.5 513.18,-8.75 517.93,-4 522.68,-4"/>
</g>
<!-- checkObject&#45;&gt;viewSpell -->
<g id="edge3" class="edge">
<title>checkObject&#45;&gt;viewSpell</title>
<path fill="none" stroke="black" d="M870.11,-245.6C857.88,-240.35 844.84,-234.18 833.31,-227.5 735.75,-170.95 632.57,-85.58 584.29,-43.9"/>
<polygon fill="black" stroke="black" points="586.65,-41.31 576.8,-37.4 582.06,-46.6 586.65,-41.31"/>
<polygon fill="none" stroke="black" points="836.31,-205.75 836.31,-224.5 1064.31,-224.5 1064.31,-205.75 836.31,-205.75"/>
<text text-anchor="start" x="878.31" y="-213" font-family="Courier New" font-weight="bold" font-size="10.00" fill="blue">IS_A(WOBJECT,IDC_SCROLL)</text>
<polygon fill="none" stroke="black" points="836.31,-57.5 836.31,-203.75 1064.31,-203.75 1064.31,-57.5 836.31,-57.5"/>
<text text-anchor="start" x="839.31" y="-191.25" font-family="Courier New" font-size="10.00" fill="blue">MOV(WPARM,WOBJECT);</text>
<text text-anchor="start" x="839.31" y="-178.5" font-family="Courier New" font-size="10.00" fill="blue"> &#160;&#160;&#160;&#160;&#160;&#160;&#160;MAPi(WPARM,S12_SCROLL);</text>
<text text-anchor="start" x="839.31" y="-165.75" font-family="Courier New" font-size="10.00" fill="blue"> &#160;&#160;&#160;&#160;&#160;&#160;&#160;SIGNALi(SIG_SHOW,S12_SHIELD);</text>
<text text-anchor="start" x="839.31" y="-153" font-family="Courier New" font-size="10.00" fill="blue"> &#160;&#160;&#160;&#160;&#160;&#160;&#160;SIGNALi(SIG_SHOW,S12_WORD);</text>
<text text-anchor="start" x="839.31" y="-140.25" font-family="Courier New" font-size="10.00" fill="blue"> &#160;&#160;&#160;&#160;&#160;&#160;&#160;SIGNALi(SIG_SHOW,S12_ING1);</text>
<text text-anchor="start" x="839.31" y="-127.5" font-family="Courier New" font-size="10.00" fill="blue"> &#160;&#160;&#160;&#160;&#160;&#160;&#160;SIGNALi(SIG_SHOW,S12_ING2);</text>
<text text-anchor="start" x="839.31" y="-114.75" font-family="Courier New" font-size="10.00" fill="blue"> &#160;&#160;&#160;&#160;&#160;&#160;&#160;SIGNALi(SIG_SHOW,S12_ING3);</text>
<text text-anchor="start" x="839.31" y="-102" font-family="Courier New" font-size="10.00" fill="blue"> &#160;&#160;&#160;&#160;&#160;&#160;&#160;SIGNALi(SIG_SHOW,S12_ING4);</text>
<text text-anchor="start" x="839.31" y="-89.25" font-family="Courier New" font-size="10.00" fill="blue"> &#160;&#160;&#160;&#160;&#160;&#160;&#160;SIGNALi(SIG_SHOW,S12_NYST);</text>
<text text-anchor="start" x="839.31" y="-76.5" font-family="Courier New" font-size="10.00" fill="blue"> &#160;&#160;&#160;&#160;&#160;&#160;</text>
<text text-anchor="start" x="839.31" y="-63.75" font-family="Courier New" font-size="10.00" fill="blue"> &#160;&#160;&#160;&#160;&#160;&#160;</text>
<polygon fill="none" stroke="black" points="833.31,-54.5 833.31,-227.5 1067.31,-227.5 1067.31,-54.5 833.31,-54.5"/>
</g>
<!-- viewEnchantment -->
<g id="node6" class="node">
<title>viewEnchantment</title>
<polyline fill="none" stroke="darkred" points="2084.43,-7 2214.18,-7"/>
<text text-anchor="start" x="2087.43" y="-14.2" font-family="Courier New" font-weight="bold" font-size="14.00">viewEnchantment</text>
<path fill="none" stroke="darkred" d="M2090.93,-4C2090.93,-4 2207.68,-4 2207.68,-4 2212.43,-4 2217.18,-8.75 2217.18,-13.5 2217.18,-13.5 2217.18,-23 2217.18,-23 2217.18,-27.75 2212.43,-32.5 2207.68,-32.5 2207.68,-32.5 2090.93,-32.5 2090.93,-32.5 2086.18,-32.5 2081.43,-27.75 2081.43,-23 2081.43,-23 2081.43,-13.5 2081.43,-13.5 2081.43,-8.75 2086.18,-4 2090.93,-4"/>
</g>
<!-- checkObject&#45;&gt;viewEnchantment -->
<g id="edge4" class="edge">
<title>checkObject&#45;&gt;viewEnchantment</title>
<path fill="none" stroke="black" d="M974.41,-251.09C1174.27,-211.65 1825.52,-83.14 2062.27,-36.43"/>
<polygon fill="black" stroke="black" points="2062.94,-39.86 2072.08,-34.49 2061.59,-32.99 2062.94,-39.86"/>
<polygon fill="none" stroke="black" points="1972.31,-148.38 1972.31,-167.12 2170.31,-167.12 2170.31,-148.38 1972.31,-148.38"/>
<text text-anchor="start" x="1975.31" y="-155.62" font-family="Courier New" font-weight="bold" font-size="10.00" fill="blue">IS_A(WOBJECT,ISA_ENCHANTEDSTONE)</text>
<polygon fill="none" stroke="black" points="1972.31,-114.88 1972.31,-146.38 2170.31,-146.38 2170.31,-114.88 1972.31,-114.88"/>
<text text-anchor="start" x="1996.31" y="-133.88" font-family="Courier New" font-size="10.00" fill="blue">MOV(WPARM,WOBJECT); &#160;&#160;&#160;&#160;&#160;</text>
<text text-anchor="start" x="1996.31" y="-121.12" font-family="Courier New" font-size="10.00" fill="blue"> &#160;&#160;&#160;&#160;&#160;&#160;&#160;</text>
<polygon fill="none" stroke="black" points="1969.31,-111.88 1969.31,-170.12 2173.31,-170.12 2173.31,-111.88 1969.31,-111.88"/>
</g>
<!-- replacedView&#45;&gt;0 -->
<g id="edge8" class="edge">
<title>replacedView&#45;&gt;0</title>
<path fill="none" stroke="black" d="M251.62,-281.83C246.24,-287 241.24,-293.15 238.31,-300 226.99,-326.41 218.68,-796.27 238.31,-817.25 258.85,-839.21 481.18,-822.28 508.31,-835.25 513.34,-837.66 518.01,-841.11 522.2,-844.97"/>
<polygon fill="black" stroke="black" points="519.64,-847.36 529.06,-852.19 524.71,-842.53 519.64,-847.36"/>
<polygon fill="none" stroke="black" points="241.31,-559.62 241.31,-578.38 391.31,-578.38 391.31,-559.62 241.31,-559.62"/>
<text text-anchor="start" x="274.31" y="-566.88" font-family="Courier New" font-weight="bold" font-size="10.00" fill="blue">Z_EPSILON(0,0)</text>
<polygon fill="none" stroke="black" points="241.31,-538.88 241.31,-557.62 391.31,-557.62 391.31,-538.88 241.31,-538.88"/>
<text text-anchor="start" x="244.31" y="-545.12" font-family="Courier New" font-size="10.00" fill="blue"> &#160;&#160;&#160;&#160;&#160;&#160;&#160;LOADVIEW(BPARM);</text>
<polygon fill="none" stroke="black" points="238.31,-535.88 238.31,-581.38 394.31,-581.38 394.31,-535.88 238.31,-535.88"/>
</g>
<!-- viewSpell&#45;&gt;0 -->
<g id="edge10" class="edge">
<title>viewSpell&#45;&gt;0</title>
<path fill="none" stroke="black" d="M505.19,-24.67C399.6,-38.92 158.83,-88 57.31,-245.5 -11.53,-352.3 -27.05,-725.95 61.31,-817.25 95.88,-852.97 463.19,-814.4 508.31,-835.25 513.38,-837.59 518.06,-841.01 522.26,-844.86"/>
<polygon fill="black" stroke="black" points="519.69,-847.24 529.12,-852.07 524.76,-842.41 519.69,-847.24"/>
<text text-anchor="start" x="61.31" y="-261.62" font-family="Courier New" font-weight="bold" font-size="10.00" fill="blue">LOADVIEW(IDV_SPELLPAN,)</text>
</g>
<!-- viewEnchantment&#45;&gt;0 -->
<g id="edge9" class="edge">
<title>viewEnchantment&#45;&gt;0</title>
<path fill="none" stroke="black" d="M2225.07,-19.4C2389.3,-24.35 2776.86,-61.96 2945.31,-300 3078.11,-487.65 3107.25,-654.08 2945.31,-817.25 2922.17,-840.57 610.35,-821.96 580.31,-835.25 575.21,-837.51 570.5,-840.88 566.29,-844.71"/>
<polygon fill="black" stroke="black" points="563.79,-842.27 559.43,-851.92 568.86,-847.09 563.79,-842.27"/>
<text text-anchor="start" x="2934.31" y="-261.62" font-family="Courier New" font-weight="bold" font-size="10.00" fill="blue">LOADVIEW(IDV_ENCHANTPAN,)</text>
</g>
<!-- status -->
<g id="node7" class="node">
<title>status</title>
<polygon fill="none" stroke="black" points="589.31,-835.75 589.31,-914.75 1205.31,-914.75 1205.31,-835.75 589.31,-835.75"/>
<polygon fill="none" stroke="black" points="600.31,-889 600.31,-907.75 1194.31,-907.75 1194.31,-889 600.31,-889"/>
<text text-anchor="start" x="864.31" y="-896.25" font-family="Courier New" font-weight="bold" font-size="10.00">SMP_EYEINFO</text>
<polygon fill="none" stroke="black" points="600.31,-842.75 600.31,-887 1194.31,-887 1194.31,-842.75 600.31,-842.75"/>
<text text-anchor="start" x="603.31" y="-874.5" font-family="Courier New" font-size="10.00" fill="green">VIEW::IDV_MAIN_PANEL @pos(x:152, y:75, w:57, h:68)</text>
<text text-anchor="start" x="603.31" y="-861.75" font-family="Courier New" font-size="10.00" fill="green">SMP_EYEINFO::M_EYEINFO(&#39;&#39;,&#39;&#39;,&#39;&#39;,&#39;&#39;,&#39;&#39;,&#39;&#39;)</text>
<text text-anchor="start" x="603.31" y="-849" font-family="Courier New" font-size="10.00" fill="green">{state:&#39;0&#39;: bParm:IDV_TM5PAN wParm:IDD_DIARY10 wObject:IDD_DIARY10 wSprite:DIARY10 Top:75 Left:152</text>
<polygon fill="none" stroke="black" points="597.31,-839.75 597.31,-910.75 1197.31,-910.75 1197.31,-839.75 597.31,-839.75"/>
</g>
</g>
</svg>
