<?xml version="1.0" encoding="UTF-8" standalone="no"?>
<!DOCTYPE svg PUBLIC "-//W3C//DTD SVG 1.1//EN"
 "http://www.w3.org/Graphics/SVG/1.1/DTD/svg11.dtd">
<!-- Generated by graphviz version 10.0.1 (20240210.2158)
 -->
<!-- Title: Automaton Pages: 1 -->
<svg width="1012pt" height="423pt"
 viewBox="0.00 0.00 1011.83 423.00" xmlns="http://www.w3.org/2000/svg" xmlns:xlink="http://www.w3.org/1999/xlink">
<g id="graph0" class="graph" transform="scale(1 1) rotate(0) translate(4 419)">
<title>Automaton</title>
<polygon fill="white" stroke="none" points="-4,4 -4,-419 1007.83,-419 1007.83,4 -4,4"/>
<!-- filename -->
<g id="node1" class="node">
<title>filename</title>
<polygon fill="none" stroke="black" points="151.83,-348.25 151.83,-401.75 287.83,-401.75 287.83,-348.25 151.83,-348.25"/>
<polygon fill="none" stroke="black" points="162.83,-376 162.83,-394.75 276.83,-394.75 276.83,-376 162.83,-376"/>
<text text-anchor="start" x="165.83" y="-383.25" font-family="Courier New" font-weight="bold" font-size="10.00">SOD_HALO::M_O_HALO</text>
<polygon fill="none" stroke="black" points="162.83,-355.25 162.83,-374 276.83,-374 276.83,-355.25 162.83,-355.25"/>
<text text-anchor="start" x="174.83" y="-361.5" font-family="Courier New" font-size="10.00" fill="brown">start state = 0</text>
<polygon fill="none" stroke="black" points="159.83,-352.25 159.83,-397.75 279.83,-397.75 279.83,-352.25 159.83,-352.25"/>
</g>
<!-- 0 -->
<g id="node2" class="node">
<title>0</title>
<polyline fill="none" stroke="darkred" points="325.7,-363.75 339.95,-363.75"/>
<text text-anchor="start" x="328.7" y="-370.95" font-family="Courier New" font-weight="bold" font-size="14.00">0</text>
<path fill="none" stroke="darkred" d="M329.45,-360.75C329.45,-360.75 336.2,-360.75 336.2,-360.75 339.58,-360.75 342.95,-364.12 342.95,-367.5 342.95,-367.5 342.95,-382.5 342.95,-382.5 342.95,-385.88 339.58,-389.25 336.2,-389.25 336.2,-389.25 329.45,-389.25 329.45,-389.25 326.08,-389.25 322.7,-385.88 322.7,-382.5 322.7,-382.5 322.7,-367.5 322.7,-367.5 322.7,-364.12 326.08,-360.75 329.45,-360.75"/>
</g>
<!-- 1 -->
<g id="node3" class="node">
<title>1</title>
<polyline fill="none" stroke="darkred" stroke-width="3" points="325.2,-237.38 340.45,-237.38"/>
<text text-anchor="start" x="328.7" y="-245.07" font-family="Courier New" font-weight="bold" font-size="14.00">1</text>
<path fill="none" stroke="darkred" stroke-width="3" d="M328.62,-232.38C328.62,-232.38 337.03,-232.38 337.03,-232.38 341.24,-232.38 345.45,-236.58 345.45,-240.79 345.45,-240.79 345.45,-257.46 345.45,-257.46 345.45,-261.67 341.24,-265.88 337.03,-265.88 337.03,-265.88 328.62,-265.88 328.62,-265.88 324.41,-265.88 320.2,-261.67 320.2,-257.46 320.2,-257.46 320.2,-240.79 320.2,-240.79 320.2,-236.58 324.41,-232.38 328.62,-232.38"/>
</g>
<!-- 0&#45;&gt;1 -->
<g id="edge1" class="edge">
<title>0&#45;&gt;1</title>
<path fill="none" stroke="black" d="M332.83,-356.78C332.83,-337.67 332.83,-306.4 332.83,-282.65"/>
<polygon fill="black" stroke="black" points="336.33,-282.86 332.83,-272.86 329.33,-282.86 336.33,-282.86"/>
<text text-anchor="start" x="336.83" y="-304.5" font-family="Courier New" font-weight="bold" font-size="10.00" fill="blue">Z_EPSILON(0,)</text>
</g>
<!-- 1&#45;&gt;1 -->
<g id="edge6" class="edge">
<title>1&#45;&gt;1</title>
<path fill="none" stroke="black" d="M359.62,-259.88C369.61,-260.24 377.83,-256.65 377.83,-249.12 377.83,-244.77 375.08,-241.74 370.83,-240.02"/>
<polygon fill="black" stroke="black" points="371.52,-236.59 361.12,-238.59 370.5,-243.51 371.52,-236.59"/>
<polygon fill="none" stroke="black" points="380.83,-256.5 380.83,-275.25 554.83,-275.25 554.83,-256.5 380.83,-256.5"/>
<text text-anchor="start" x="416.83" y="-263.75" font-family="Courier New" font-weight="bold" font-size="10.00" fill="orange">WAIT(0,SIG_CLEAR)</text>
<polygon fill="none" stroke="black" points="380.83,-223 380.83,-254.5 554.83,-254.5 554.83,-223 380.83,-223"/>
<text text-anchor="start" x="383.83" y="-242" font-family="Courier New" font-size="10.00" fill="blue"> &#160;WRITE(&quot;Clear the Halo&quot;); &#160;</text>
<text text-anchor="start" x="383.83" y="-229.25" font-family="Courier New" font-size="10.00" fill="blue"> &#160;SHOW(0);</text>
<polygon fill="none" stroke="black" points="377.83,-220 377.83,-278.25 557.83,-278.25 557.83,-220 377.83,-220"/>
</g>
<!-- karmaBoost -->
<g id="node4" class="node">
<title>karmaBoost</title>
<polyline fill="none" stroke="darkred" points="186.58,-7 275.08,-7"/>
<text text-anchor="start" x="189.58" y="-14.2" font-family="Courier New" font-weight="bold" font-size="14.00">karmaBoost</text>
<path fill="none" stroke="darkred" d="M193.08,-4C193.08,-4 268.58,-4 268.58,-4 273.33,-4 278.08,-8.75 278.08,-13.5 278.08,-13.5 278.08,-23 278.08,-23 278.08,-27.75 273.33,-32.5 268.58,-32.5 268.58,-32.5 193.08,-32.5 193.08,-32.5 188.33,-32.5 183.58,-27.75 183.58,-23 183.58,-23 183.58,-13.5 183.58,-13.5 183.58,-8.75 188.33,-4 193.08,-4"/>
</g>
<!-- 1&#45;&gt;karmaBoost -->
<g id="edge2" class="edge">
<title>1&#45;&gt;karmaBoost</title>
<path fill="none" stroke="black" d="M305.95,-248.26C238.9,-247.96 67.12,-243.12 31.83,-202 -10.87,-152.26 -10.29,-104.73 31.83,-54.5 48.64,-34.44 113.46,-25.79 164.61,-22.06"/>
<polygon fill="black" stroke="black" points="164.71,-25.56 174.45,-21.4 164.24,-18.58 164.71,-25.56"/>
<text text-anchor="start" x="35.83" y="-126.12" font-family="Courier New" font-weight="bold" font-size="10.00" fill="orange">WAIT(0,SIG_MYHALO)</text>
</g>
<!-- 1&#45;&gt;karmaBoost -->
<g id="edge3" class="edge">
<title>1&#45;&gt;karmaBoost</title>
<path fill="none" stroke="black" d="M306.12,-244.43C264.47,-238.06 187.12,-223.59 170.83,-202 151.07,-175.84 154.54,-82.95 170.83,-54.5 173.19,-50.37 176.24,-46.68 179.72,-43.39"/>
<polygon fill="black" stroke="black" points="181.66,-46.32 187.3,-37.35 177.3,-40.84 181.66,-46.32"/>
<text text-anchor="start" x="174.83" y="-126.12" font-family="Courier New" font-weight="bold" font-size="10.00" fill="orange">WAIT(0,SIG_ADD)</text>
</g>
<!-- 1&#45;&gt;karmaBoost -->
<g id="edge5" class="edge">
<title>1&#45;&gt;karmaBoost</title>
<path fill="none" stroke="black" d="M309.51,-227.03C302.79,-219.75 296.12,-211.11 291.83,-202 263.53,-141.99 299.98,-113.08 268.83,-54.5 266.95,-50.98 264.59,-47.62 261.96,-44.47"/>
<polygon fill="black" stroke="black" points="264.53,-42.09 255.08,-37.29 259.47,-46.93 264.53,-42.09"/>
<text text-anchor="start" x="295.83" y="-126.12" font-family="Courier New" font-weight="bold" font-size="10.00" fill="orange">WAIT(0,0)</text>
</g>
<!-- karmaDrain -->
<g id="node5" class="node">
<title>karmaDrain</title>
<polyline fill="none" stroke="darkred" points="666.58,-7 755.08,-7"/>
<text text-anchor="start" x="669.58" y="-14.2" font-family="Courier New" font-weight="bold" font-size="14.00">karmaDrain</text>
<path fill="none" stroke="darkred" d="M673.08,-4C673.08,-4 748.58,-4 748.58,-4 753.33,-4 758.08,-8.75 758.08,-13.5 758.08,-13.5 758.08,-23 758.08,-23 758.08,-27.75 753.33,-32.5 748.58,-32.5 748.58,-32.5 673.08,-32.5 673.08,-32.5 668.33,-32.5 663.58,-27.75 663.58,-23 663.58,-23 663.58,-13.5 663.58,-13.5 663.58,-8.75 668.33,-4 673.08,-4"/>
</g>
<!-- 1&#45;&gt;karmaDrain -->
<g id="edge4" class="edge">
<title>1&#45;&gt;karmaDrain</title>
<path fill="none" stroke="black" d="M359.38,-247.84C424.81,-246.56 591.22,-239.6 628.83,-202 675.74,-155.09 614.72,-109.5 651.83,-54.5 654.64,-50.33 658.13,-46.57 662,-43.21"/>
<polygon fill="black" stroke="black" points="663.86,-46.19 669.74,-37.38 659.65,-40.6 663.86,-46.19"/>
<text text-anchor="start" x="655.83" y="-126.12" font-family="Courier New" font-weight="bold" font-size="10.00" fill="orange">WAIT(0,SIG_SUB)</text>
</g>
<!-- karmaBoost&#45;&gt;1 -->
<g id="edge7" class="edge">
<title>karmaBoost&#45;&gt;1</title>
<path fill="none" stroke="black" d="M285.76,-20.69C310.68,-24.44 338.05,-33.57 353.83,-54.5 389.51,-101.84 366.46,-175.16 348.4,-216.67"/>
<polygon fill="black" stroke="black" points="345.28,-215.06 344.34,-225.61 351.66,-217.95 345.28,-215.06"/>
<polygon fill="none" stroke="black" points="375.83,-180.25 375.83,-199 621.83,-199 621.83,-180.25 375.83,-180.25"/>
<text text-anchor="start" x="456.83" y="-187.5" font-family="Courier New" font-weight="bold" font-size="10.00" fill="blue">ASSIGN(WPARM,)</text>
<polygon fill="none" stroke="black" points="375.83,-57.5 375.83,-178.25 621.83,-178.25 621.83,-57.5 375.83,-57.5"/>
<text text-anchor="start" x="378.83" y="-165.75" font-family="Courier New" font-size="10.00" fill="blue"> &#160;&#160;&#160;&#160;&#160;&#160;if(WIP2 &gt; (MAX_KARMA &#45; 1)){</text>
<text text-anchor="start" x="378.83" y="-153" font-family="Courier New" font-size="10.00" fill="blue"> &#160;&#160;&#160;&#160;&#160;&#160;&#160;&#160;&#160;&#160;&#160;&#160;ASSIGN(OKARMA,(MAX_KARMA));</text>
<text text-anchor="start" x="378.83" y="-140.25" font-family="Courier New" font-size="10.00" fill="blue"> &#160;&#160;&#160;&#160;&#160;&#160;}</text>
<text text-anchor="start" x="378.83" y="-127.5" font-family="Courier New" font-size="10.00" fill="blue"> &#160;&#160;&#160;&#160;&#160;&#160;&#160;ASSIGN(BPARM,OKARMA);</text>
<text text-anchor="start" x="378.83" y="-114.75" font-family="Courier New" font-size="10.00" fill="blue"> &#160;&#160;&#160;&#160;&#160;&#160;&#160;MOV(WSPRITE,BPARM);</text>
<text text-anchor="start" x="378.83" y="-102" font-family="Courier New" font-size="10.00" fill="blue"> &#160;&#160;&#160;&#160;&#160;&#160;&#160;DIV(WSPRITE,2);</text>
<text text-anchor="start" x="378.83" y="-89.25" font-family="Courier New" font-size="10.00" fill="blue"> &#160;&#160;&#160;&#160;&#160;&#160;&#160;MAPi(WSPRITE,S00_KARMA_MAP);</text>
<text text-anchor="start" x="378.83" y="-76.5" font-family="Courier New" font-size="10.00" fill="blue"> &#160;&#160;&#160;&#160;&#160;&#160;&#160;ASHOW(WSPRITE);</text>
<text text-anchor="start" x="378.83" y="-63.75" font-family="Courier New" font-size="10.00" fill="blue"> &#160;&#160;&#160;&#160;&#160;&#160;&#160;SIGNALi(0,WIP1);</text>
<polygon fill="none" stroke="black" points="372.83,-54.5 372.83,-202 624.83,-202 624.83,-54.5 372.83,-54.5"/>
</g>
<!-- karmaDrain&#45;&gt;1 -->
<g id="edge8" class="edge">
<title>karmaDrain&#45;&gt;1</title>
<path fill="none" stroke="black" d="M736.17,-36.49C741.69,-41.59 746.79,-47.66 749.83,-54.5 776.43,-114.41 793.56,-153.16 749.83,-202 724.78,-229.97 469.66,-242.8 371.25,-246.74"/>
<polygon fill="black" stroke="black" points="371.15,-243.24 361.3,-247.13 371.43,-250.24 371.15,-243.24"/>
<polygon fill="none" stroke="black" points="778.83,-180.25 778.83,-199 1000.83,-199 1000.83,-180.25 778.83,-180.25"/>
<text text-anchor="start" x="847.83" y="-187.5" font-family="Courier New" font-weight="bold" font-size="10.00" fill="blue">ASSIGN(WPARM,)</text>
<polygon fill="none" stroke="black" points="778.83,-57.5 778.83,-178.25 1000.83,-178.25 1000.83,-57.5 778.83,-57.5"/>
<text text-anchor="start" x="781.83" y="-165.75" font-family="Courier New" font-size="10.00" fill="blue"> &#160;&#160;&#160;&#160;&#160;&#160;&#160;if(OKARMA &lt;= 0){</text>
<text text-anchor="start" x="781.83" y="-153" font-family="Courier New" font-size="10.00" fill="blue"> &#160;&#160;&#160;&#160;&#160;&#160;&#160;&#160;&#160;&#160;&#160;&#160;ASSIGN(OKARMA,1);</text>
<text text-anchor="start" x="781.83" y="-140.25" font-family="Courier New" font-size="10.00" fill="blue"> &#160;&#160;&#160;&#160;&#160;&#160;} &#160;&#160;&#160;&#160;&#160;</text>
<text text-anchor="start" x="781.83" y="-127.5" font-family="Courier New" font-size="10.00" fill="blue"> &#160;&#160;&#160;&#160;&#160;&#160;&#160;ASSIGN(BPARM,OKARMA);</text>
<text text-anchor="start" x="781.83" y="-114.75" font-family="Courier New" font-size="10.00" fill="blue"> &#160;&#160;&#160;&#160;&#160;&#160;&#160;MOV(WSPRITE,BPARM);</text>
<text text-anchor="start" x="781.83" y="-102" font-family="Courier New" font-size="10.00" fill="blue"> &#160;&#160;&#160;&#160;&#160;&#160;&#160;DIV(WSPRITE,2);</text>
<text text-anchor="start" x="781.83" y="-89.25" font-family="Courier New" font-size="10.00" fill="blue"> &#160;&#160;&#160;&#160;&#160;&#160;&#160;MAPi(WSPRITE,S00_KARMA_MAP);</text>
<text text-anchor="start" x="781.83" y="-76.5" font-family="Courier New" font-size="10.00" fill="blue"> &#160;&#160;&#160;&#160;&#160;&#160;&#160;ASHOW(WSPRITE);</text>
<text text-anchor="start" x="781.83" y="-63.75" font-family="Courier New" font-size="10.00" fill="blue"> &#160;&#160;&#160;&#160;&#160;&#160;&#160;SIGNALi(0,WIP1);</text>
<polygon fill="none" stroke="black" points="775.83,-54.5 775.83,-202 1003.83,-202 1003.83,-54.5 775.83,-54.5"/>
</g>
<!-- status -->
<g id="node6" class="node">
<title>status</title>
<polygon fill="none" stroke="black" points="377.83,-335.5 377.83,-414.5 741.83,-414.5 741.83,-335.5 377.83,-335.5"/>
<polygon fill="none" stroke="black" points="388.83,-388.75 388.83,-407.5 730.83,-407.5 730.83,-388.75 388.83,-388.75"/>
<text text-anchor="start" x="535.83" y="-396" font-family="Courier New" font-weight="bold" font-size="10.00">SOD_HALO</text>
<polygon fill="none" stroke="black" points="388.83,-342.5 388.83,-386.75 730.83,-386.75 730.83,-342.5 388.83,-342.5"/>
<text text-anchor="start" x="391.83" y="-374.25" font-family="Courier New" font-size="10.00" fill="green">VIEW::IDV_OTHERID @pos(x:30, y:0, h:40, w:40)</text>
<text text-anchor="start" x="391.83" y="-361.5" font-family="Courier New" font-size="10.00" fill="green">SOD_HALO::M_O_HALO(&#39;SOD_ID&#39;,&#39;&#39;,&#39;&#39;,&#39;&#39;,&#39;&#39;,&#39;&#39;)</text>
<text text-anchor="start" x="391.83" y="-348.75" font-family="Courier New" font-size="10.00" fill="green">{state:&#39;1&#39;: bParm:4 wSprite:IDS_HALO02 Top:0 Left:30 Z:0</text>
<polygon fill="none" stroke="black" points="385.83,-339.5 385.83,-410.5 733.83,-410.5 733.83,-339.5 385.83,-339.5"/>
</g>
</g>
</svg>
