<?xml version="1.0" encoding="UTF-8" standalone="no"?>
<!DOCTYPE svg PUBLIC "-//W3C//DTD SVG 1.1//EN"
 "http://www.w3.org/Graphics/SVG/1.1/DTD/svg11.dtd">
<!-- Generated by graphviz version 10.0.1 (20240210.2158)
 -->
<!-- Title: Automaton Pages: 1 -->
<svg width="2366pt" height="1418pt"
 viewBox="0.00 0.00 2366.00 1418.00" xmlns="http://www.w3.org/2000/svg" xmlns:xlink="http://www.w3.org/1999/xlink">
<g id="graph0" class="graph" transform="scale(1 1) rotate(0) translate(4 1414)">
<title>Automaton</title>
<polygon fill="white" stroke="none" points="-4,4 -4,-1414 2362,-1414 2362,4 -4,4"/>
<!-- filename -->
<g id="node1" class="node">
<title>filename</title>
<polygon fill="none" stroke="black" points="1367,-1343.25 1367,-1396.75 1485,-1396.75 1485,-1343.25 1367,-1343.25"/>
<polygon fill="none" stroke="black" points="1378,-1371 1378,-1389.75 1474,-1389.75 1474,-1371 1378,-1371"/>
<text text-anchor="start" x="1387" y="-1378.25" font-family="Courier New" font-weight="bold" font-size="10.00">SOD_ID::M_OID</text>
<polygon fill="none" stroke="black" points="1378,-1350.25 1378,-1369 1474,-1369 1474,-1350.25 1378,-1350.25"/>
<text text-anchor="start" x="1381" y="-1356.5" font-family="Courier New" font-size="10.00" fill="brown">start state = 0</text>
<polygon fill="none" stroke="black" points="1375,-1347.25 1375,-1392.75 1477,-1392.75 1477,-1347.25 1375,-1347.25"/>
</g>
<!-- 0 -->
<g id="node2" class="node">
<title>0</title>
<polyline fill="none" stroke="darkred" stroke-width="3" points="1522.38,-1358.25 1537.62,-1358.25"/>
<text text-anchor="start" x="1525.88" y="-1365.95" font-family="Courier New" font-weight="bold" font-size="14.00">0</text>
<path fill="none" stroke="darkred" stroke-width="3" d="M1525.79,-1353.25C1525.79,-1353.25 1534.21,-1353.25 1534.21,-1353.25 1538.42,-1353.25 1542.62,-1357.46 1542.62,-1361.67 1542.62,-1361.67 1542.62,-1378.33 1542.62,-1378.33 1542.62,-1382.54 1538.42,-1386.75 1534.21,-1386.75 1534.21,-1386.75 1525.79,-1386.75 1525.79,-1386.75 1521.58,-1386.75 1517.38,-1382.54 1517.38,-1378.33 1517.38,-1378.33 1517.38,-1361.67 1517.38,-1361.67 1517.38,-1357.46 1521.58,-1353.25 1525.79,-1353.25"/>
</g>
<!-- present -->
<g id="node3" class="node">
<title>present</title>
<polyline fill="none" stroke="darkred" points="967.12,-1129.75 1030.88,-1129.75"/>
<text text-anchor="start" x="970.12" y="-1136.95" font-family="Courier New" font-weight="bold" font-size="14.00">present</text>
<path fill="none" stroke="darkred" d="M973.62,-1126.75C973.62,-1126.75 1024.38,-1126.75 1024.38,-1126.75 1029.12,-1126.75 1033.88,-1131.5 1033.88,-1136.25 1033.88,-1136.25 1033.88,-1145.75 1033.88,-1145.75 1033.88,-1150.5 1029.12,-1155.25 1024.38,-1155.25 1024.38,-1155.25 973.62,-1155.25 973.62,-1155.25 968.88,-1155.25 964.12,-1150.5 964.12,-1145.75 964.12,-1145.75 964.12,-1136.25 964.12,-1136.25 964.12,-1131.5 968.88,-1126.75 973.62,-1126.75"/>
</g>
<!-- 0&#45;&gt;present -->
<g id="edge1" class="edge">
<title>0&#45;&gt;present</title>
<path fill="none" stroke="black" d="M1515.86,-1347.91C1509.99,-1340.92 1502.54,-1333.93 1494,-1330 1445.32,-1307.59 1050.63,-1349.15 1012,-1312 974.1,-1275.55 982.54,-1207.84 991.25,-1169.8"/>
<polygon fill="black" stroke="black" points="994.56,-1171.03 993.55,-1160.48 987.76,-1169.35 994.56,-1171.03"/>
<polygon fill="none" stroke="black" points="1015,-1290.25 1015,-1309 2041,-1309 2041,-1290.25 1015,-1290.25"/>
<text text-anchor="start" x="1483" y="-1297.5" font-family="Courier New" font-weight="bold" font-size="10.00" fill="orange">WAIT(,SIG_OTID)</text>
<polygon fill="none" stroke="black" points="1015,-1180.25 1015,-1288.25 2041,-1288.25 2041,-1180.25 1015,-1180.25"/>
<text text-anchor="start" x="1018" y="-1275.75" font-family="Courier New" font-size="10.00" fill="blue"> &#160;&#160;&#160;loadview(IDV_OTHERID);</text>
<text text-anchor="start" x="1018" y="-1263" font-family="Courier New" font-size="10.00" fill="blue"> &#160;&#160;&#160;CLEAR(WSPRITE);</text>
<text text-anchor="start" x="1018" y="-1250.25" font-family="Courier New" font-size="10.00" fill="blue"> &#160;&#160;&#160;&#160;SHOW();</text>
<text text-anchor="start" x="1018" y="-1237.5" font-family="Courier New" font-size="10.00" fill="blue"> &#160;&#160;&#160;&#160;predicate otherplayer(pid,status,player,account_id,name,viewname,wealth,karma,energy,strength,wisdom,gender,culture, knowsparent, knowsvillage,knowscity);</text>
<text text-anchor="start" x="1018" y="-1224.75" font-family="Courier New" font-size="10.00" fill="blue"> &#160;&#160;&#160;&#160;otherplayer(?BPARM, &quot;ACTIVE&quot;, ?WPARM,?acntid,?ONAME,?OVIEW,?OWEALTH,?OKARMA,?OENERGY, ?OSTRENGTH,?OWISDOM,?OSEX,?OCULTURE,?OKNOWSPARENT,?OKNOWSVILLSAGE,?OKNOWSCITY)?</text>
<text text-anchor="start" x="1018" y="-1212" font-family="Courier New" font-size="10.00" fill="blue"> &#160;&#160;&#160;&#160;set_control_value(IDV_OTHERNAME, OTHN, ONAME);</text>
<text text-anchor="start" x="1018" y="-1199.25" font-family="Courier New" font-size="10.00" fill="blue"> &#160;&#160;&#160;&#160;SIGNAL(SOD_AURA,SIG_MYAURA);</text>
<text text-anchor="start" x="1018" y="-1186.5" font-family="Courier New" font-size="10.00" fill="blue"> &#160;&#160;&#160;&#160;SIGNAL(SOD_HALO, SIG_MYHALO);</text>
<polygon fill="none" stroke="black" points="1012,-1177.25 1012,-1312 2044,-1312 2044,-1177.25 1012,-1177.25"/>
</g>
<!-- setId -->
<g id="node21" class="node">
<title>setId</title>
<polyline fill="none" stroke="darkred" points="712.38,-745.88 759.62,-745.88"/>
<text text-anchor="start" x="715.38" y="-753.08" font-family="Courier New" font-weight="bold" font-size="14.00">setId</text>
<path fill="none" stroke="darkred" d="M718.88,-742.88C718.88,-742.88 753.12,-742.88 753.12,-742.88 757.88,-742.88 762.62,-747.62 762.62,-752.38 762.62,-752.38 762.62,-761.88 762.62,-761.88 762.62,-766.62 757.88,-771.38 753.12,-771.38 753.12,-771.38 718.88,-771.38 718.88,-771.38 714.12,-771.38 709.38,-766.62 709.38,-761.88 709.38,-761.88 709.38,-752.38 709.38,-752.38 709.38,-747.62 714.12,-742.88 718.88,-742.88"/>
</g>
<!-- present&#45;&gt;setId -->
<g id="edge19" class="edge">
<title>present&#45;&gt;setId</title>
<path fill="none" stroke="black" d="M956.18,-1140.74C889.35,-1140.86 764.99,-1136.67 737,-1104.75 695.94,-1057.93 720.62,-860.24 731.58,-786.24"/>
<polygon fill="black" stroke="black" points="735.01,-786.99 733.04,-776.57 728.08,-785.94 735.01,-786.99"/>
<polygon fill="none" stroke="black" points="740,-1083 740,-1101.75 980,-1101.75 980,-1083 740,-1083"/>
<text text-anchor="start" x="824" y="-1090.25" font-family="Courier New" font-weight="bold" font-size="10.00" fill="blue">Z_EPSILON(,)</text>
<polygon fill="none" stroke="black" points="740,-845.5 740,-1081 980,-1081 980,-845.5 740,-845.5"/>
<text text-anchor="start" x="743" y="-1068.5" font-family="Courier New" font-size="10.00" fill="blue"> &#160;&#160;&#160;if(OSEX == 1){</text>
<text text-anchor="start" x="743" y="-1055.75" font-family="Courier New" font-size="10.00" fill="blue"> &#160;&#160;&#160;WPARM = F1;</text>
<text text-anchor="start" x="743" y="-1043" font-family="Courier New" font-size="10.00" fill="blue"> &#160;&#160;&#160;&#160;if(OWISDOM &gt;= 30){</text>
<text text-anchor="start" x="743" y="-1030.25" font-family="Courier New" font-size="10.00" fill="blue"> &#160;&#160;&#160;&#160;&#160;&#160;WPARM = F3;</text>
<text text-anchor="start" x="743" y="-1017.5" font-family="Courier New" font-size="10.00" fill="blue"> &#160;&#160;&#160;}</text>
<text text-anchor="start" x="743" y="-1004.75" font-family="Courier New" font-size="10.00" fill="blue"> &#160;&#160;&#160;&#160;if(OWISDOM &gt;= 20 &amp;&amp; OWISDOM &lt; 30){</text>
<text text-anchor="start" x="743" y="-992" font-family="Courier New" font-size="10.00" fill="blue"> &#160;&#160;&#160;&#160;&#160;&#160;WPARM = F2;</text>
<text text-anchor="start" x="743" y="-979.25" font-family="Courier New" font-size="10.00" fill="blue"> &#160;&#160;&#160;}</text>
<text text-anchor="start" x="743" y="-966.5" font-family="Courier New" font-size="10.00" fill="blue"> &#160;}</text>
<text text-anchor="start" x="743" y="-953.75" font-family="Courier New" font-size="10.00" fill="blue"> &#160;if(OSEX == 0){</text>
<text text-anchor="start" x="743" y="-941" font-family="Courier New" font-size="10.00" fill="blue"> &#160;&#160;&#160;WPARM = M1;</text>
<text text-anchor="start" x="743" y="-928.25" font-family="Courier New" font-size="10.00" fill="blue"> &#160;&#160;&#160;&#160;&#160;if(OWISDOM &gt;= 30){</text>
<text text-anchor="start" x="743" y="-915.5" font-family="Courier New" font-size="10.00" fill="blue"> &#160;&#160;&#160;&#160;&#160;&#160;WPARM = M3;</text>
<text text-anchor="start" x="743" y="-902.75" font-family="Courier New" font-size="10.00" fill="blue"> &#160;&#160;&#160;}</text>
<text text-anchor="start" x="743" y="-890" font-family="Courier New" font-size="10.00" fill="blue"> &#160;&#160;&#160;if(OWISDOM &gt;= 20 &amp;&amp; OWISDOM &lt; 30){</text>
<text text-anchor="start" x="743" y="-877.25" font-family="Courier New" font-size="10.00" fill="blue"> &#160;&#160;&#160;&#160;&#160;&#160;&#160;WPARM = M2;</text>
<text text-anchor="start" x="743" y="-864.5" font-family="Courier New" font-size="10.00" fill="blue"> &#160;&#160;&#160;}</text>
<text text-anchor="start" x="743" y="-851.75" font-family="Courier New" font-size="10.00" fill="blue"> &#160;}; </text>
<polygon fill="none" stroke="black" points="737,-842.5 737,-1104.75 983,-1104.75 983,-842.5 737,-842.5"/>
</g>
<!-- 100 -->
<g id="node4" class="node">
<title>100</title>
<polyline fill="none" stroke="darkred" points="2007.62,-442.75 2038.38,-442.75"/>
<text text-anchor="start" x="2010.62" y="-449.95" font-family="Courier New" font-weight="bold" font-size="14.00">100</text>
<path fill="none" stroke="darkred" d="M2014.12,-439.75C2014.12,-439.75 2031.88,-439.75 2031.88,-439.75 2036.62,-439.75 2041.38,-444.5 2041.38,-449.25 2041.38,-449.25 2041.38,-458.75 2041.38,-458.75 2041.38,-463.5 2036.62,-468.25 2031.88,-468.25 2031.88,-468.25 2014.12,-468.25 2014.12,-468.25 2009.38,-468.25 2004.62,-463.5 2004.62,-458.75 2004.62,-458.75 2004.62,-449.25 2004.62,-449.25 2004.62,-444.5 2009.38,-439.75 2014.12,-439.75"/>
</g>
<!-- 100&#45;&gt;0 -->
<g id="edge2" class="edge">
<title>100&#45;&gt;0</title>
<path fill="none" stroke="black" d="M2032.2,-472.12C2042.57,-493.05 2058,-529.85 2058,-563.5 2058,-1142 2058,-1142 2058,-1142 2058,-1217.81 2098.79,-1259.6 2044,-1312 2005.59,-1348.74 1614.28,-1307.77 1566,-1330 1560.93,-1332.33 1556.25,-1335.75 1552.05,-1339.6"/>
<polygon fill="black" stroke="black" points="1549.54,-1337.15 1545.18,-1346.81 1554.61,-1341.98 1549.54,-1337.15"/>
<polygon fill="none" stroke="black" points="2061,-770.88 2061,-789.62 2229,-789.62 2229,-770.88 2061,-770.88"/>
<text text-anchor="start" x="2109" y="-778.12" font-family="Courier New" font-weight="bold" font-size="10.00" fill="blue">Z_EPSILON(,)</text>
<polygon fill="none" stroke="black" points="2061,-724.62 2061,-768.88 2229,-768.88 2229,-724.62 2061,-724.62"/>
<text text-anchor="start" x="2064" y="-756.38" font-family="Courier New" font-size="10.00" fill="blue"> &#160;&#160;&#160;SHOW(0);</text>
<text text-anchor="start" x="2064" y="-743.62" font-family="Courier New" font-size="10.00" fill="blue"> &#160;&#160;&#160;SIGNAL(WIP4,SIG_CLEAR);</text>
<text text-anchor="start" x="2064" y="-730.88" font-family="Courier New" font-size="10.00" fill="blue"> &#160;&#160;&#160;SIGNAL(WIP3,SIG_CLEAR);</text>
<polygon fill="none" stroke="black" points="2058,-721.62 2058,-792.62 2232,-792.62 2232,-721.62 2058,-721.62"/>
</g>
<!-- 20 -->
<g id="node5" class="node">
<title>20</title>
<polyline fill="none" stroke="darkred" points="15.75,-191.12 38.25,-191.12"/>
<text text-anchor="start" x="18.75" y="-198.32" font-family="Courier New" font-weight="bold" font-size="14.00">20</text>
<path fill="none" stroke="darkred" d="M22.25,-188.12C22.25,-188.12 31.75,-188.12 31.75,-188.12 36.5,-188.12 41.25,-192.88 41.25,-197.62 41.25,-197.62 41.25,-207.12 41.25,-207.12 41.25,-211.88 36.5,-216.62 31.75,-216.62 31.75,-216.62 22.25,-216.62 22.25,-216.62 17.5,-216.62 12.75,-211.88 12.75,-207.12 12.75,-207.12 12.75,-197.62 12.75,-197.62 12.75,-192.88 17.5,-188.12 22.25,-188.12"/>
</g>
<!-- playForward -->
<g id="node6" class="node">
<title>playForward</title>
<polyline fill="none" stroke="darkred" points="619.62,-7 716.38,-7"/>
<text text-anchor="start" x="622.62" y="-14.2" font-family="Courier New" font-weight="bold" font-size="14.00">playForward</text>
<path fill="none" stroke="darkred" d="M626.12,-4C626.12,-4 709.88,-4 709.88,-4 714.62,-4 719.38,-8.75 719.38,-13.5 719.38,-13.5 719.38,-23 719.38,-23 719.38,-27.75 714.62,-32.5 709.88,-32.5 709.88,-32.5 626.12,-32.5 626.12,-32.5 621.38,-32.5 616.62,-27.75 616.62,-23 616.62,-23 616.62,-13.5 616.62,-13.5 616.62,-8.75 621.38,-4 626.12,-4"/>
</g>
<!-- 20&#45;&gt;playForward -->
<g id="edge3" class="edge">
<title>20&#45;&gt;playForward</title>
<path fill="none" stroke="black" d="M22.82,-184.23C18.22,-160.91 14.01,-119.12 35,-93.25 74.06,-45.11 107.96,-65.36 169,-54.5 319.98,-27.65 500.08,-21.07 597.3,-19.57"/>
<polygon fill="black" stroke="black" points="597.28,-23.07 607.23,-19.43 597.18,-16.07 597.28,-23.07"/>
<text text-anchor="start" x="39" y="-109.38" font-family="Courier New" font-weight="bold" font-size="10.00" fill="blue">ASSIGN(WSPRITE,happy)</text>
</g>
<!-- sitting -->
<g id="node20" class="node">
<title>sitting</title>
<polyline fill="none" stroke="darkred" points="869.12,-553.25 932.88,-553.25"/>
<text text-anchor="start" x="872.12" y="-560.45" font-family="Courier New" font-weight="bold" font-size="14.00">sitting</text>
<path fill="none" stroke="darkred" d="M875.62,-550.25C875.62,-550.25 926.38,-550.25 926.38,-550.25 931.12,-550.25 935.88,-555 935.88,-559.75 935.88,-559.75 935.88,-569.25 935.88,-569.25 935.88,-574 931.12,-578.75 926.38,-578.75 926.38,-578.75 875.62,-578.75 875.62,-578.75 870.88,-578.75 866.12,-574 866.12,-569.25 866.12,-569.25 866.12,-559.75 866.12,-559.75 866.12,-555 870.88,-550.25 875.62,-550.25"/>
</g>
<!-- playForward&#45;&gt;sitting -->
<g id="edge17" class="edge">
<title>playForward&#45;&gt;sitting</title>
<path fill="none" stroke="black" d="M609.01,-24.25C479.76,-35.98 183,-67.61 183,-110.5 183,-455 183,-455 183,-455 183,-522.1 679.54,-552.63 846.78,-561.01"/>
<polygon fill="black" stroke="black" points="846.56,-564.51 856.72,-561.5 846.91,-557.52 846.56,-564.51"/>
<polygon fill="none" stroke="black" points="186,-324.25 186,-343 486,-343 486,-324.25 186,-324.25"/>
<text text-anchor="start" x="288" y="-331.5" font-family="Courier New" font-weight="bold" font-size="10.00" fill="blue">ASSIGN(BFRAME,0)</text>
<polygon fill="none" stroke="black" points="186,-278 186,-322.25 486,-322.25 486,-278 186,-278"/>
<text text-anchor="start" x="189" y="-309.75" font-family="Courier New" font-size="10.00" fill="blue"> &#160;&#160;&#160;MAP(WSPRITE,WPARM);</text>
<text text-anchor="start" x="189" y="-297" font-family="Courier New" font-size="10.00" fill="blue"> &#160;&#160;&#160;SHOW(WSPRITE);</text>
<text text-anchor="start" x="189" y="-284.25" font-family="Courier New" font-size="10.00" fill="blue"> &#160;&#160;&#160;ANIMATE(0,V_REWIND); //PLAY FORWARD THEN BACK</text>
<polygon fill="none" stroke="black" points="183,-275 183,-346 489,-346 489,-275 183,-275"/>
</g>
<!-- 21 -->
<g id="node7" class="node">
<title>21</title>
<polyline fill="none" stroke="darkred" points="1020.75,-100.25 1043.25,-100.25"/>
<text text-anchor="start" x="1023.75" y="-107.45" font-family="Courier New" font-weight="bold" font-size="14.00">21</text>
<path fill="none" stroke="darkred" d="M1027.25,-97.25C1027.25,-97.25 1036.75,-97.25 1036.75,-97.25 1041.5,-97.25 1046.25,-102 1046.25,-106.75 1046.25,-106.75 1046.25,-116.25 1046.25,-116.25 1046.25,-121 1041.5,-125.75 1036.75,-125.75 1036.75,-125.75 1027.25,-125.75 1027.25,-125.75 1022.5,-125.75 1017.75,-121 1017.75,-116.25 1017.75,-116.25 1017.75,-106.75 1017.75,-106.75 1017.75,-102 1022.5,-97.25 1027.25,-97.25"/>
</g>
<!-- 21&#45;&gt;playForward -->
<g id="edge4" class="edge">
<title>21&#45;&gt;playForward</title>
<path fill="none" stroke="black" d="M1005.06,-97.72C977.12,-84.97 931.9,-65.71 891,-54.5 840.75,-40.73 782.56,-31.76 738.22,-26.31"/>
<polygon fill="black" stroke="black" points="738.82,-22.86 728.48,-25.15 737.99,-29.81 738.82,-22.86"/>
<text text-anchor="start" x="954" y="-62.75" font-family="Courier New" font-weight="bold" font-size="10.00" fill="blue">ASSIGN(WSPRITE,hurt)</text>
</g>
<!-- 22 -->
<g id="node8" class="node">
<title>22</title>
<polyline fill="none" stroke="darkred" points="1555.75,-442.75 1578.25,-442.75"/>
<text text-anchor="start" x="1558.75" y="-449.95" font-family="Courier New" font-weight="bold" font-size="14.00">22</text>
<path fill="none" stroke="darkred" d="M1562.25,-439.75C1562.25,-439.75 1571.75,-439.75 1571.75,-439.75 1576.5,-439.75 1581.25,-444.5 1581.25,-449.25 1581.25,-449.25 1581.25,-458.75 1581.25,-458.75 1581.25,-463.5 1576.5,-468.25 1571.75,-468.25 1571.75,-468.25 1562.25,-468.25 1562.25,-468.25 1557.5,-468.25 1552.75,-463.5 1552.75,-458.75 1552.75,-458.75 1552.75,-449.25 1552.75,-449.25 1552.75,-444.5 1557.5,-439.75 1562.25,-439.75"/>
</g>
<!-- playOnce -->
<g id="node9" class="node">
<title>playOnce</title>
<polyline fill="none" stroke="darkred" points="1667,-299.25 1739,-299.25"/>
<text text-anchor="start" x="1670" y="-306.45" font-family="Courier New" font-weight="bold" font-size="14.00">playOnce</text>
<path fill="none" stroke="darkred" d="M1673.5,-296.25C1673.5,-296.25 1732.5,-296.25 1732.5,-296.25 1737.25,-296.25 1742,-301 1742,-305.75 1742,-305.75 1742,-315.25 1742,-315.25 1742,-320 1737.25,-324.75 1732.5,-324.75 1732.5,-324.75 1673.5,-324.75 1673.5,-324.75 1668.75,-324.75 1664,-320 1664,-315.25 1664,-315.25 1664,-305.75 1664,-305.75 1664,-301 1668.75,-296.25 1673.5,-296.25"/>
</g>
<!-- 22&#45;&gt;playOnce -->
<g id="edge5" class="edge">
<title>22&#45;&gt;playOnce</title>
<path fill="none" stroke="black" d="M1570.85,-436.07C1576.01,-416.67 1586.81,-384.86 1606,-364 1617.38,-351.64 1632.35,-341.58 1647.12,-333.7"/>
<polygon fill="black" stroke="black" points="1648.56,-336.9 1655.91,-329.27 1645.41,-330.64 1648.56,-336.9"/>
<text text-anchor="start" x="1610" y="-380.12" font-family="Courier New" font-weight="bold" font-size="10.00" fill="blue">ASSIGN(WSPRITE,kiss)</text>
</g>
<!-- playOnce&#45;&gt;sitting -->
<g id="edge18" class="edge">
<title>playOnce&#45;&gt;sitting</title>
<path fill="none" stroke="black" d="M1716.14,-328.41C1722.92,-338.22 1730.49,-351.13 1734,-364 1738.28,-379.65 1739.43,-385.22 1734,-400.5 1709.47,-469.48 1695.34,-495.23 1630,-528.25 1570.35,-558.39 1113.92,-562.79 955.19,-563.41"/>
<polygon fill="black" stroke="black" points="955.35,-559.91 945.36,-563.44 955.37,-566.91 955.35,-559.91"/>
<polygon fill="none" stroke="black" points="1729,-467.75 1729,-486.5 1873,-486.5 1873,-467.75 1729,-467.75"/>
<text text-anchor="start" x="1753" y="-475" font-family="Courier New" font-weight="bold" font-size="10.00" fill="blue">ASSIGN(BFRAME,0)</text>
<polygon fill="none" stroke="black" points="1729,-421.5 1729,-465.75 1873,-465.75 1873,-421.5 1729,-421.5"/>
<text text-anchor="start" x="1732" y="-453.25" font-family="Courier New" font-size="10.00" fill="blue"> &#160;&#160;&#160;MAP(WSPRITE,WPARM);</text>
<text text-anchor="start" x="1732" y="-440.5" font-family="Courier New" font-size="10.00" fill="blue"> &#160;&#160;&#160;SHOW(0,WSPRITE);</text>
<text text-anchor="start" x="1732" y="-427.75" font-family="Courier New" font-size="10.00" fill="blue"> &#160;&#160;&#160;ANIMATE(0,0);</text>
<polygon fill="none" stroke="black" points="1726,-418.5 1726,-489.5 1876,-489.5 1876,-418.5 1726,-418.5"/>
</g>
<!-- 23 -->
<g id="node10" class="node">
<title>23</title>
<polyline fill="none" stroke="darkred" points="505.75,-371 528.25,-371"/>
<text text-anchor="start" x="508.75" y="-378.2" font-family="Courier New" font-weight="bold" font-size="14.00">23</text>
<path fill="none" stroke="darkred" d="M512.25,-368C512.25,-368 521.75,-368 521.75,-368 526.5,-368 531.25,-372.75 531.25,-377.5 531.25,-377.5 531.25,-387 531.25,-387 531.25,-391.75 526.5,-396.5 521.75,-396.5 521.75,-396.5 512.25,-396.5 512.25,-396.5 507.5,-396.5 502.75,-391.75 502.75,-387 502.75,-387 502.75,-377.5 502.75,-377.5 502.75,-372.75 507.5,-368 512.25,-368"/>
</g>
<!-- 23&#45;&gt;playForward -->
<g id="edge6" class="edge">
<title>23&#45;&gt;playForward</title>
<path fill="none" stroke="black" d="M511.54,-364.05C499.82,-323.85 476.02,-221.59 511,-147.75 533.91,-99.39 584.92,-63.17 622.61,-41.72"/>
<polygon fill="black" stroke="black" points="623.99,-44.96 631.04,-37.05 620.6,-38.83 623.99,-44.96"/>
<text text-anchor="start" x="515" y="-200.25" font-family="Courier New" font-weight="bold" font-size="10.00" fill="blue">ASSIGN(WSPRITE,mad)</text>
</g>
<!-- 24 -->
<g id="node11" class="node">
<title>24</title>
<polyline fill="none" stroke="darkred" points="631.75,-371 654.25,-371"/>
<text text-anchor="start" x="634.75" y="-378.2" font-family="Courier New" font-weight="bold" font-size="14.00">24</text>
<path fill="none" stroke="darkred" d="M638.25,-368C638.25,-368 647.75,-368 647.75,-368 652.5,-368 657.25,-372.75 657.25,-377.5 657.25,-377.5 657.25,-387 657.25,-387 657.25,-391.75 652.5,-396.5 647.75,-396.5 647.75,-396.5 638.25,-396.5 638.25,-396.5 633.5,-396.5 628.75,-391.75 628.75,-387 628.75,-387 628.75,-377.5 628.75,-377.5 628.75,-372.75 633.5,-368 638.25,-368"/>
</g>
<!-- 24&#45;&gt;playForward -->
<g id="edge7" class="edge">
<title>24&#45;&gt;playForward</title>
<path fill="none" stroke="black" d="M641.55,-364.2C638.55,-325.55 632.62,-228.4 641,-147.75 644.66,-112.55 653.81,-72.8 660.44,-46.95"/>
<polygon fill="black" stroke="black" points="663.75,-48.14 662.9,-37.58 656.98,-46.36 663.75,-48.14"/>
<text text-anchor="start" x="645" y="-200.25" font-family="Courier New" font-weight="bold" font-size="10.00" fill="blue">ASSIGN(WSPRITE,sad)</text>
</g>
<!-- 25 -->
<g id="node12" class="node">
<title>25</title>
<polyline fill="none" stroke="darkred" points="787.75,-191.12 810.25,-191.12"/>
<text text-anchor="start" x="790.75" y="-198.32" font-family="Courier New" font-weight="bold" font-size="14.00">25</text>
<path fill="none" stroke="darkred" d="M794.25,-188.12C794.25,-188.12 803.75,-188.12 803.75,-188.12 808.5,-188.12 813.25,-192.88 813.25,-197.62 813.25,-197.62 813.25,-207.12 813.25,-207.12 813.25,-211.88 808.5,-216.62 803.75,-216.62 803.75,-216.62 794.25,-216.62 794.25,-216.62 789.5,-216.62 784.75,-211.88 784.75,-207.12 784.75,-207.12 784.75,-197.62 784.75,-197.62 784.75,-192.88 789.5,-188.12 794.25,-188.12"/>
</g>
<!-- 25&#45;&gt;playForward -->
<g id="edge8" class="edge">
<title>25&#45;&gt;playForward</title>
<path fill="none" stroke="black" d="M793.09,-184.28C788.15,-172.4 779.96,-157.08 768,-147.75 745.04,-129.84 726.05,-149.87 705,-129.75 682.51,-108.24 673.69,-72.68 670.23,-47.73"/>
<polygon fill="black" stroke="black" points="673.72,-47.47 669.1,-37.94 666.77,-48.27 673.72,-47.47"/>
<text text-anchor="start" x="709" y="-109.38" font-family="Courier New" font-weight="bold" font-size="10.00" fill="blue">ASSIGN(WSPRITE,surprised)</text>
</g>
<!-- 26 -->
<g id="node13" class="node">
<title>26</title>
<polyline fill="none" stroke="darkred" points="881.75,-371 904.25,-371"/>
<text text-anchor="start" x="884.75" y="-378.2" font-family="Courier New" font-weight="bold" font-size="14.00">26</text>
<path fill="none" stroke="darkred" d="M888.25,-368C888.25,-368 897.75,-368 897.75,-368 902.5,-368 907.25,-372.75 907.25,-377.5 907.25,-377.5 907.25,-387 907.25,-387 907.25,-391.75 902.5,-396.5 897.75,-396.5 897.75,-396.5 888.25,-396.5 888.25,-396.5 883.5,-396.5 878.75,-391.75 878.75,-387 878.75,-387 878.75,-377.5 878.75,-377.5 878.75,-372.75 883.5,-368 888.25,-368"/>
</g>
<!-- 26&#45;&gt;playForward -->
<g id="edge9" class="edge">
<title>26&#45;&gt;playForward</title>
<path fill="none" stroke="black" d="M890.81,-364.39C887.74,-340.51 882.08,-295.46 878,-257 874.14,-220.66 885.11,-122.35 863,-93.25 833.64,-54.61 781.58,-36.14 738.63,-27.32"/>
<polygon fill="black" stroke="black" points="739.32,-23.89 728.84,-25.46 738.01,-30.77 739.32,-23.89"/>
<text text-anchor="start" x="882" y="-200.25" font-family="Courier New" font-weight="bold" font-size="10.00" fill="blue">ASSIGN(WSPRITE,stress)</text>
</g>
<!-- 27 -->
<g id="node14" class="node">
<title>27</title>
<polyline fill="none" stroke="darkred" points="1279.75,-191.12 1302.25,-191.12"/>
<text text-anchor="start" x="1282.75" y="-198.32" font-family="Courier New" font-weight="bold" font-size="14.00">27</text>
<path fill="none" stroke="darkred" d="M1286.25,-188.12C1286.25,-188.12 1295.75,-188.12 1295.75,-188.12 1300.5,-188.12 1305.25,-192.88 1305.25,-197.62 1305.25,-197.62 1305.25,-207.12 1305.25,-207.12 1305.25,-211.88 1300.5,-216.62 1295.75,-216.62 1295.75,-216.62 1286.25,-216.62 1286.25,-216.62 1281.5,-216.62 1276.75,-211.88 1276.75,-207.12 1276.75,-207.12 1276.75,-197.62 1276.75,-197.62 1276.75,-192.88 1281.5,-188.12 1286.25,-188.12"/>
</g>
<!-- 27&#45;&gt;playForward -->
<g id="edge10" class="edge">
<title>27&#45;&gt;playForward</title>
<path fill="none" stroke="black" d="M1279.01,-184.57C1270.39,-173.27 1258.05,-158.53 1245,-147.75 1180.67,-94.58 1161.68,-79.35 1082,-54.5 1019.84,-35.11 839.44,-25.54 738.5,-21.58"/>
<polygon fill="black" stroke="black" points="738.83,-18.09 728.71,-21.2 738.57,-25.08 738.83,-18.09"/>
<text text-anchor="start" x="1226" y="-109.38" font-family="Courier New" font-weight="bold" font-size="10.00" fill="blue">ASSIGN(WSPRITE,wave)</text>
</g>
<!-- 30 -->
<g id="node15" class="node">
<title>30</title>
<polyline fill="none" stroke="darkred" points="1445.75,-442.75 1468.25,-442.75"/>
<text text-anchor="start" x="1448.75" y="-449.95" font-family="Courier New" font-weight="bold" font-size="14.00">30</text>
<path fill="none" stroke="darkred" d="M1452.25,-439.75C1452.25,-439.75 1461.75,-439.75 1461.75,-439.75 1466.5,-439.75 1471.25,-444.5 1471.25,-449.25 1471.25,-449.25 1471.25,-458.75 1471.25,-458.75 1471.25,-463.5 1466.5,-468.25 1461.75,-468.25 1461.75,-468.25 1452.25,-468.25 1452.25,-468.25 1447.5,-468.25 1442.75,-463.5 1442.75,-458.75 1442.75,-458.75 1442.75,-449.25 1442.75,-449.25 1442.75,-444.5 1447.5,-439.75 1452.25,-439.75"/>
</g>
<!-- playDead -->
<g id="node16" class="node">
<title>playDead</title>
<polyline fill="none" stroke="darkred" points="1464,-299.25 1536,-299.25"/>
<text text-anchor="start" x="1467" y="-306.45" font-family="Courier New" font-weight="bold" font-size="14.00">playDead</text>
<path fill="none" stroke="darkred" d="M1470.5,-296.25C1470.5,-296.25 1529.5,-296.25 1529.5,-296.25 1534.25,-296.25 1539,-301 1539,-305.75 1539,-305.75 1539,-315.25 1539,-315.25 1539,-320 1534.25,-324.75 1529.5,-324.75 1529.5,-324.75 1470.5,-324.75 1470.5,-324.75 1465.75,-324.75 1461,-320 1461,-315.25 1461,-315.25 1461,-305.75 1461,-305.75 1461,-301 1465.75,-296.25 1470.5,-296.25"/>
</g>
<!-- 30&#45;&gt;playDead -->
<g id="edge11" class="edge">
<title>30&#45;&gt;playDead</title>
<path fill="none" stroke="black" d="M1453,-435.99C1449.5,-417.61 1446.21,-387.77 1455,-364 1458.73,-353.91 1465.36,-344.46 1472.41,-336.42"/>
<polygon fill="black" stroke="black" points="1474.72,-339.07 1479.06,-329.4 1469.64,-334.26 1474.72,-339.07"/>
<text text-anchor="start" x="1459" y="-380.12" font-family="Courier New" font-weight="bold" font-size="10.00" fill="blue">ASSIGN(WSPRITE,dead)</text>
</g>
<!-- dead -->
<g id="node19" class="node">
<title>dead</title>
<polyline fill="none" stroke="darkred" points="1913.5,-100.25 1952.5,-100.25"/>
<text text-anchor="start" x="1916.5" y="-107.45" font-family="Courier New" font-weight="bold" font-size="14.00">dead</text>
<path fill="none" stroke="darkred" d="M1920,-97.25C1920,-97.25 1946,-97.25 1946,-97.25 1950.75,-97.25 1955.5,-102 1955.5,-106.75 1955.5,-106.75 1955.5,-116.25 1955.5,-116.25 1955.5,-121 1950.75,-125.75 1946,-125.75 1946,-125.75 1920,-125.75 1920,-125.75 1915.25,-125.75 1910.5,-121 1910.5,-116.25 1910.5,-116.25 1910.5,-106.75 1910.5,-106.75 1910.5,-102 1915.25,-97.25 1920,-97.25"/>
</g>
<!-- playDead&#45;&gt;dead -->
<g id="edge16" class="edge">
<title>playDead&#45;&gt;dead</title>
<path fill="none" stroke="black" d="M1522.39,-292.47C1566.9,-259.47 1670.69,-186.62 1769,-147.75 1808.97,-131.94 1857.37,-122.65 1891.19,-117.61"/>
<polygon fill="black" stroke="black" points="1891.6,-121.08 1901.01,-116.21 1890.61,-114.15 1891.6,-121.08"/>
<polygon fill="none" stroke="black" points="1772,-235.25 1772,-254 1916,-254 1916,-235.25 1772,-235.25"/>
<text text-anchor="start" x="1796" y="-242.5" font-family="Courier New" font-weight="bold" font-size="10.00" fill="blue">ASSIGN(BFRAME,0)</text>
<polygon fill="none" stroke="black" points="1772,-150.75 1772,-233.25 1916,-233.25 1916,-150.75 1772,-150.75"/>
<text text-anchor="start" x="1775" y="-220.75" font-family="Courier New" font-size="10.00" fill="blue"> &#160;&#160;&#160;MAP(WSPRITE,WPARM);</text>
<text text-anchor="start" x="1775" y="-208" font-family="Courier New" font-size="10.00" fill="blue"> &#160;&#160;&#160;SHOW(0,WSPRITE);</text>
<text text-anchor="start" x="1775" y="-195.25" font-family="Courier New" font-size="10.00" fill="blue"> &#160;&#160;&#160;VIDEO(0,WSPRITE);</text>
<text text-anchor="start" x="1775" y="-182.5" font-family="Courier New" font-size="10.00" fill="blue"> &#160;&#160;&#160;ANIMATE(0,0);</text>
<text text-anchor="start" x="1775" y="-169.75" font-family="Courier New" font-size="10.00" fill="blue"> &#160;&#160;&#160;ASSIGN(OENERGY,0);</text>
<text text-anchor="start" x="1775" y="-157" font-family="Courier New" font-size="10.00" fill="blue"> &#160;&#160;&#160;ASSIGN(OWEALTH,0);</text>
<polygon fill="none" stroke="black" points="1769,-147.75 1769,-257 1919,-257 1919,-147.75 1769,-147.75"/>
</g>
<!-- 50 -->
<g id="node17" class="node">
<title>50</title>
<polyline fill="none" stroke="darkred" points="1111.75,-442.75 1134.25,-442.75"/>
<text text-anchor="start" x="1114.75" y="-449.95" font-family="Courier New" font-weight="bold" font-size="14.00">50</text>
<path fill="none" stroke="darkred" d="M1118.25,-439.75C1118.25,-439.75 1127.75,-439.75 1127.75,-439.75 1132.5,-439.75 1137.25,-444.5 1137.25,-449.25 1137.25,-449.25 1137.25,-458.75 1137.25,-458.75 1137.25,-463.5 1132.5,-468.25 1127.75,-468.25 1127.75,-468.25 1118.25,-468.25 1118.25,-468.25 1113.5,-468.25 1108.75,-463.5 1108.75,-458.75 1108.75,-458.75 1108.75,-449.25 1108.75,-449.25 1108.75,-444.5 1113.5,-439.75 1118.25,-439.75"/>
</g>
<!-- 51 -->
<g id="node18" class="node">
<title>51</title>
<polyline fill="none" stroke="darkred" points="1090.75,-299.25 1113.25,-299.25"/>
<text text-anchor="start" x="1093.75" y="-306.45" font-family="Courier New" font-weight="bold" font-size="14.00">51</text>
<path fill="none" stroke="darkred" d="M1097.25,-296.25C1097.25,-296.25 1106.75,-296.25 1106.75,-296.25 1111.5,-296.25 1116.25,-301 1116.25,-305.75 1116.25,-305.75 1116.25,-315.25 1116.25,-315.25 1116.25,-320 1111.5,-324.75 1106.75,-324.75 1106.75,-324.75 1097.25,-324.75 1097.25,-324.75 1092.5,-324.75 1087.75,-320 1087.75,-315.25 1087.75,-315.25 1087.75,-305.75 1087.75,-305.75 1087.75,-301 1092.5,-296.25 1097.25,-296.25"/>
</g>
<!-- 50&#45;&gt;51 -->
<g id="edge12" class="edge">
<title>50&#45;&gt;51</title>
<path fill="none" stroke="black" d="M1130.13,-435.96C1136.69,-417.81 1144.39,-388.4 1137,-364 1134.2,-354.76 1129.18,-345.65 1123.8,-337.69"/>
<polygon fill="black" stroke="black" points="1126.79,-335.85 1118.07,-329.83 1121.13,-339.98 1126.79,-335.85"/>
<text text-anchor="start" x="1144" y="-380.12" font-family="Courier New" font-weight="bold" font-size="10.00" fill="blue">VIDEO(0,IDS_EXPLODE1)</text>
</g>
<!-- 51&#45;&gt;21 -->
<g id="edge13" class="edge">
<title>51&#45;&gt;21</title>
<path fill="none" stroke="black" d="M1096.36,-292.41C1086.54,-262.81 1065.45,-200.12 1046,-147.75 1045.11,-145.34 1044.16,-142.85 1043.2,-140.36"/>
<polygon fill="black" stroke="black" points="1046.46,-139.09 1039.54,-131.06 1039.94,-141.65 1046.46,-139.09"/>
<text text-anchor="start" x="1087" y="-200.25" font-family="Courier New" font-weight="bold" font-size="10.00" fill="blue">PLAYWAVE(0,SOUND_EXPLODE)</text>
</g>
<!-- dead&#45;&gt;0 -->
<g id="edge15" class="edge">
<title>dead&#45;&gt;0</title>
<path fill="none" stroke="black" d="M1963.47,-116.18C2044.65,-127.86 2260,-171.81 2260,-309.5 2260,-1142 2260,-1142 2260,-1142 2260,-1254.65 2176.39,-1269.66 2072,-1312 1967.74,-1354.29 1668.25,-1283.05 1566,-1330 1560.93,-1332.33 1556.24,-1335.74 1552.04,-1339.59"/>
<polygon fill="black" stroke="black" points="1549.54,-1337.14 1545.18,-1346.8 1554.61,-1341.97 1549.54,-1337.14"/>
<text text-anchor="start" x="2264" y="-562.38" font-family="Courier New" font-weight="bold" font-size="10.00" fill="orange">WAIT(,SIG_MYID)</text>
</g>
<!-- dead&#45;&gt;present -->
<g id="edge14" class="edge">
<title>dead&#45;&gt;present</title>
<path fill="none" stroke="black" d="M1932.47,-129.54C1930.83,-186.22 1926.31,-373.57 1933,-528.25 1936.11,-600.23 1943.89,-617.77 1947,-689.75 1949.59,-749.58 1982.03,-775.92 1947,-824.5 1837.37,-976.53 1237.22,-1096.72 1052.88,-1130.48"/>
<polygon fill="black" stroke="black" points="1052.3,-1127.03 1043.09,-1132.26 1053.56,-1133.92 1052.3,-1127.03"/>
<text text-anchor="start" x="1937" y="-515.75" font-family="Courier New" font-weight="bold" font-size="10.00" fill="orange">WAIT(,SIG_REVIVE)</text>
</g>
<!-- sitting&#45;&gt;0 -->
<g id="edge33" class="edge">
<title>sitting&#45;&gt;0</title>
<path fill="none" stroke="black" d="M858.41,-568.34C809.86,-572.44 734.54,-581.72 714,-600.75 548.32,-754.24 539.73,-907.09 649,-1104.75 732.79,-1256.32 813.43,-1261.17 979,-1312 1033.74,-1328.8 1441.96,-1306.12 1494,-1330 1499.07,-1332.33 1503.76,-1335.74 1507.96,-1339.58"/>
<polygon fill="black" stroke="black" points="1505.39,-1341.97 1514.82,-1346.8 1510.47,-1337.14 1505.39,-1341.97"/>
<text text-anchor="start" x="653" y="-971.5" font-family="Courier New" font-weight="bold" font-size="10.00" fill="orange">WAIT(0,0)</text>
</g>
<!-- sitting&#45;&gt;present -->
<g id="edge21" class="edge">
<title>sitting&#45;&gt;present</title>
<path fill="none" stroke="black" d="M899.43,-582.54C895.04,-634.15 884.87,-787.47 915,-824.5 934.73,-848.75 963.27,-818.25 983,-842.5 1047.12,-921.33 1022.25,-1054.38 1007.21,-1112"/>
<polygon fill="black" stroke="black" points="1003.92,-1110.77 1004.67,-1121.34 1010.67,-1112.61 1003.92,-1110.77"/>
<polygon fill="none" stroke="black" points="918,-802.75 918,-821.5 1944,-821.5 1944,-802.75 918,-802.75"/>
<text text-anchor="start" x="1386" y="-810" font-family="Courier New" font-weight="bold" font-size="10.00" fill="orange">WAIT(,SIG_OTID)</text>
<polygon fill="none" stroke="black" points="918,-692.75 918,-800.75 1944,-800.75 1944,-692.75 918,-692.75"/>
<text text-anchor="start" x="921" y="-788.25" font-family="Courier New" font-size="10.00" fill="blue"> &#160;&#160;&#160;loadview(IDV_OTHERID);</text>
<text text-anchor="start" x="921" y="-775.5" font-family="Courier New" font-size="10.00" fill="blue"> &#160;&#160;&#160;CLEAR(WSPRITE);</text>
<text text-anchor="start" x="921" y="-762.75" font-family="Courier New" font-size="10.00" fill="blue"> &#160;&#160;&#160;&#160;SHOW();</text>
<text text-anchor="start" x="921" y="-750" font-family="Courier New" font-size="10.00" fill="blue"> &#160;&#160;&#160;&#160;predicate otherplayer(pid,status,player,account_id,name,viewname,wealth,karma,energy,strength,wisdom,gender,culture, knowsparent, knowsvillage,knowscity);</text>
<text text-anchor="start" x="921" y="-737.25" font-family="Courier New" font-size="10.00" fill="blue"> &#160;&#160;&#160;&#160;otherplayer(?BPARM, &quot;ACTIVE&quot;, ?WPARM,?acntid,?ONAME,?OVIEW,?OWEALTH,?OKARMA,?OENERGY, ?OSTRENGTH,?OWISDOM,?OSEX,?OCULTURE,?OKNOWSPARENT,?OKNOWSVILLSAGE,?OKNOWSCITY)?</text>
<text text-anchor="start" x="921" y="-724.5" font-family="Courier New" font-size="10.00" fill="blue"> &#160;&#160;&#160;&#160;set_control_value(IDV_OTHERNAME, OTHN, ONAME);</text>
<text text-anchor="start" x="921" y="-711.75" font-family="Courier New" font-size="10.00" fill="blue"> &#160;&#160;&#160;&#160;SIGNAL(SOD_AURA,SIG_SUB);</text>
<text text-anchor="start" x="921" y="-699" font-family="Courier New" font-size="10.00" fill="blue"> &#160;&#160;&#160;&#160;SIGNAL(SOD_HALO, SIG_MYHALO);</text>
<polygon fill="none" stroke="black" points="915,-689.75 915,-824.5 1947,-824.5 1947,-689.75 915,-689.75"/>
</g>
<!-- sitting&#45;&gt;100 -->
<g id="edge32" class="edge">
<title>sitting&#45;&gt;100</title>
<path fill="none" stroke="black" d="M943.69,-562.87C1106.42,-560.29 1682.77,-549.75 1762,-528.25 1780.95,-523.11 1782.44,-513.91 1801,-507.5 1844.1,-492.61 1857.57,-499.76 1902,-489.5 1930.17,-482.99 1961.55,-473.99 1985.29,-466.82"/>
<polygon fill="black" stroke="black" points="1986.3,-470.17 1994.84,-463.9 1984.26,-463.47 1986.3,-470.17"/>
<text text-anchor="start" x="1805" y="-515.75" font-family="Courier New" font-weight="bold" font-size="10.00" fill="orange">WAIT(0,SIG_CLEAR)</text>
</g>
<!-- sitting&#45;&gt;20 -->
<g id="edge22" class="edge">
<title>sitting&#45;&gt;20</title>
<path fill="none" stroke="black" d="M858.19,-563.07C722.38,-561.44 302.29,-554.35 169,-528.25 118.13,-518.29 91.26,-530.07 59,-489.5 -1.57,-413.32 11.49,-287.5 21.21,-231.62"/>
<polygon fill="black" stroke="black" points="24.61,-232.46 22.99,-221.99 17.73,-231.18 24.61,-232.46"/>
<text text-anchor="start" x="63" y="-451.88" font-family="Courier New" font-weight="bold" font-size="10.00" fill="orange">WAIT(0,SIG_HAPPY)</text>
</g>
<!-- sitting&#45;&gt;21 -->
<g id="edge23" class="edge">
<title>sitting&#45;&gt;21</title>
<path fill="none" stroke="black" d="M943.87,-562.43C969.65,-559.32 1000.73,-550.69 1018,-528.25 1023.91,-520.57 1029.75,-233.58 1031.48,-140.98"/>
<polygon fill="black" stroke="black" points="1034.98,-141.3 1031.66,-131.24 1027.98,-141.18 1034.98,-141.3"/>
<text text-anchor="start" x="1030" y="-380.12" font-family="Courier New" font-weight="bold" font-size="10.00" fill="orange">WAIT(0,SIG_HURT)</text>
</g>
<!-- sitting&#45;&gt;22 -->
<g id="edge24" class="edge">
<title>sitting&#45;&gt;22</title>
<path fill="none" stroke="black" d="M943.78,-562.65C1071.02,-559.89 1441.31,-550.04 1491,-528.25 1514.08,-518.13 1534.3,-497.74 1548.07,-481.04"/>
<polygon fill="black" stroke="black" points="1550.64,-483.43 1554.09,-473.41 1545.14,-479.09 1550.64,-483.43"/>
<text text-anchor="start" x="1526" y="-515.75" font-family="Courier New" font-weight="bold" font-size="10.00" fill="orange">WAIT(0,SIG_KISS)</text>
</g>
<!-- sitting&#45;&gt;23 -->
<g id="edge25" class="edge">
<title>sitting&#45;&gt;23</title>
<path fill="none" stroke="black" d="M858.28,-562.55C764.83,-560.04 548.75,-551.73 526,-528.25 496.3,-497.6 501.93,-444.11 509.16,-411.37"/>
<polygon fill="black" stroke="black" points="512.53,-412.34 511.48,-401.8 505.73,-410.7 512.53,-412.34"/>
<text text-anchor="start" x="530" y="-515.75" font-family="Courier New" font-weight="bold" font-size="10.00" fill="orange">WAIT(0,SIG_MAD)</text>
</g>
<!-- sitting&#45;&gt;24 -->
<g id="edge26" class="edge">
<title>sitting&#45;&gt;24</title>
<path fill="none" stroke="black" d="M858.17,-564.24C791.33,-564.39 666.95,-560.21 639,-528.25 610.97,-496.2 621.71,-443.24 632.23,-410.97"/>
<polygon fill="black" stroke="black" points="635.4,-412.51 635.39,-401.91 628.79,-410.21 635.4,-412.51"/>
<text text-anchor="start" x="643" y="-515.75" font-family="Courier New" font-weight="bold" font-size="10.00" fill="orange">WAIT(0,SIG_SAD)</text>
</g>
<!-- sitting&#45;&gt;25 -->
<g id="edge27" class="edge">
<title>sitting&#45;&gt;25</title>
<path fill="none" stroke="black" d="M858.34,-554.36C824.33,-544.58 778.89,-525.37 757,-489.5 706.1,-406.11 756.85,-284.17 784.12,-230.47"/>
<polygon fill="black" stroke="black" points="787.17,-232.21 788.69,-221.72 780.96,-228.97 787.17,-232.21"/>
<text text-anchor="start" x="761" y="-451.88" font-family="Courier New" font-weight="bold" font-size="10.00" fill="orange">WAIT(0,SIG_SURPRISED)</text>
</g>
<!-- sitting&#45;&gt;26 -->
<g id="edge28" class="edge">
<title>sitting&#45;&gt;26</title>
<path fill="none" stroke="black" d="M900.25,-546.54C898.87,-515.54 895.94,-449.44 894.26,-411.53"/>
<polygon fill="black" stroke="black" points="897.76,-411.64 893.82,-401.81 890.77,-411.95 897.76,-411.64"/>
<text text-anchor="start" x="904" y="-515.75" font-family="Courier New" font-weight="bold" font-size="10.00" fill="orange">WAIT(0,SIG_STRESS)</text>
</g>
<!-- sitting&#45;&gt;27 -->
<g id="edge29" class="edge">
<title>sitting&#45;&gt;27</title>
<path fill="none" stroke="black" d="M943.67,-562.18C1012.03,-559.4 1142.45,-551.19 1182,-528.25 1243.44,-492.62 1253.3,-467.09 1278,-400.5 1299.14,-343.5 1297.24,-270.94 1294.07,-231.68"/>
<polygon fill="black" stroke="black" points="1297.57,-231.55 1293.18,-221.91 1290.6,-232.18 1297.57,-231.55"/>
<text text-anchor="start" x="1274" y="-451.88" font-family="Courier New" font-weight="bold" font-size="10.00" fill="orange">WAIT(0,SIG_WAVE)</text>
</g>
<!-- sitting&#45;&gt;30 -->
<g id="edge30" class="edge">
<title>sitting&#45;&gt;30</title>
<path fill="none" stroke="black" d="M943.81,-564.21C1020.69,-564.55 1186.73,-560.96 1322,-528.25 1365.92,-517.63 1377.36,-512.94 1416,-489.5 1420.94,-486.5 1425.9,-482.92 1430.58,-479.23"/>
<polygon fill="black" stroke="black" points="1432.54,-482.15 1437.98,-473.06 1428.06,-476.77 1432.54,-482.15"/>
<text text-anchor="start" x="1387" y="-515.75" font-family="Courier New" font-weight="bold" font-size="10.00" fill="orange">WAIT(0,SIG_DEAD)</text>
</g>
<!-- sitting&#45;&gt;50 -->
<g id="edge31" class="edge">
<title>sitting&#45;&gt;50</title>
<path fill="none" stroke="black" d="M943.72,-559.05C973.78,-554.54 1014.16,-545.62 1046,-528.25 1067.87,-516.32 1088.08,-496.6 1102.31,-480.63"/>
<polygon fill="black" stroke="black" points="1104.7,-483.22 1108.58,-473.36 1099.4,-478.64 1104.7,-483.22"/>
<text text-anchor="start" x="1078" y="-515.75" font-family="Courier New" font-weight="bold" font-size="10.00" fill="orange">WAIT(0,SIG_BOMB)</text>
</g>
<!-- setId&#45;&gt;sitting -->
<g id="edge20" class="edge">
<title>setId&#45;&gt;sitting</title>
<path fill="none" stroke="black" d="M729.87,-738.89C719.94,-707.54 704.49,-640.72 737,-600.75 750.8,-583.78 804.88,-574.59 847.21,-569.89"/>
<polygon fill="black" stroke="black" points="847.43,-573.38 857.01,-568.86 846.7,-566.42 847.43,-573.38"/>
<polygon fill="none" stroke="black" points="740,-650 740,-668.75 884,-668.75 884,-650 740,-650"/>
<text text-anchor="start" x="749" y="-657.25" font-family="Courier New" font-weight="bold" font-size="10.00" fill="blue">ASSIGN(WSPRITE,happy)</text>
<polygon fill="none" stroke="black" points="740,-603.75 740,-648 884,-648 884,-603.75 740,-603.75"/>
<text text-anchor="start" x="743" y="-635.5" font-family="Courier New" font-size="10.00" fill="blue"> &#160;&#160;&#160;MAP(WSPRITE,WPARM);</text>
<text text-anchor="start" x="743" y="-622.75" font-family="Courier New" font-size="10.00" fill="blue"> &#160;&#160;&#160;ASSIGN(BFRAME,0);</text>
<text text-anchor="start" x="743" y="-610" font-family="Courier New" font-size="10.00" fill="blue"> &#160;&#160;&#160;SHOW(WSPRITE);</text>
<polygon fill="none" stroke="black" points="737,-600.75 737,-671.75 887,-671.75 887,-600.75 737,-600.75"/>
</g>
<!-- status -->
<g id="node22" class="node">
<title>status</title>
<polygon fill="none" stroke="black" points="1575,-1330.5 1575,-1409.5 2161,-1409.5 2161,-1330.5 1575,-1330.5"/>
<polygon fill="none" stroke="black" points="1586,-1383.75 1586,-1402.5 2150,-1402.5 2150,-1383.75 1586,-1383.75"/>
<text text-anchor="start" x="1850" y="-1391" font-family="Courier New" font-weight="bold" font-size="10.00">SOD_ID</text>
<polygon fill="none" stroke="black" points="1586,-1337.5 1586,-1381.75 2150,-1381.75 2150,-1337.5 1586,-1337.5"/>
<text text-anchor="start" x="1589" y="-1369.25" font-family="Courier New" font-size="10.00" fill="green">VIEW::IDV_OTHERID @pos(x:0, y:0, h:101, w:171)</text>
<text text-anchor="start" x="1589" y="-1356.5" font-family="Courier New" font-size="10.00" fill="green">SOD_ID::M_OID(&#39;OWISDOM&#39;,&#39;OSEX&#39;,&#39;SOD_HALO&#39;,&#39;SOD_AURA&#39;,&#39;&#39;,&#39;&#39;)</text>
<text text-anchor="start" x="1589" y="-1343.75" font-family="Courier New" font-size="10.00" fill="green">{state:&#39;0&#39;: bParm:108.82.186.169:54036 wParm:F2 wSprite:IDS_FID2EX bFrame:32 Top:0 Left:0 Z:0</text>
<polygon fill="none" stroke="black" points="1583,-1334.5 1583,-1405.5 2153,-1405.5 2153,-1334.5 1583,-1334.5"/>
</g>
</g>
</svg>
