<?xml version="1.0" encoding="UTF-8" standalone="no"?>
<!DOCTYPE svg PUBLIC "-//W3C//DTD SVG 1.1//EN"
 "http://www.w3.org/Graphics/SVG/1.1/DTD/svg11.dtd">
<!-- Generated by graphviz version 10.0.1 (20240210.2158)
 -->
<!-- Title: Automaton Pages: 1 -->
<svg width="2365pt" height="1439pt"
 viewBox="0.00 0.00 2365.00 1438.75" xmlns="http://www.w3.org/2000/svg" xmlns:xlink="http://www.w3.org/1999/xlink">
<g id="graph0" class="graph" transform="scale(1 1) rotate(0) translate(4 1434.75)">
<title>Automaton</title>
<polygon fill="white" stroke="none" points="-4,4 -4,-1434.75 2361,-1434.75 2361,4 -4,4"/>
<!-- filename -->
<g id="node1" class="node">
<title>filename</title>
<polygon fill="none" stroke="black" points="1366,-1364 1366,-1417.5 1484,-1417.5 1484,-1364 1366,-1364"/>
<polygon fill="none" stroke="black" points="1377,-1391.75 1377,-1410.5 1473,-1410.5 1473,-1391.75 1377,-1391.75"/>
<text text-anchor="start" x="1386" y="-1399" font-family="Courier New" font-weight="bold" font-size="10.00">SOD_ID::M_OID</text>
<polygon fill="none" stroke="black" points="1377,-1371 1377,-1389.75 1473,-1389.75 1473,-1371 1377,-1371"/>
<text text-anchor="start" x="1380" y="-1377.25" font-family="Courier New" font-size="10.00" fill="brown">start state = 0</text>
<polygon fill="none" stroke="black" points="1374,-1368 1374,-1413.5 1476,-1413.5 1476,-1368 1374,-1368"/>
</g>
<!-- 0 -->
<g id="node2" class="node">
<title>0</title>
<polyline fill="none" stroke="darkred" points="1521.88,-1379.5 1536.12,-1379.5"/>
<text text-anchor="start" x="1524.88" y="-1386.7" font-family="Courier New" font-weight="bold" font-size="14.00">0</text>
<path fill="none" stroke="darkred" d="M1525.62,-1376.5C1525.62,-1376.5 1532.38,-1376.5 1532.38,-1376.5 1535.75,-1376.5 1539.12,-1379.88 1539.12,-1383.25 1539.12,-1383.25 1539.12,-1398.25 1539.12,-1398.25 1539.12,-1401.62 1535.75,-1405 1532.38,-1405 1532.38,-1405 1525.62,-1405 1525.62,-1405 1522.25,-1405 1518.88,-1401.62 1518.88,-1398.25 1518.88,-1398.25 1518.88,-1383.25 1518.88,-1383.25 1518.88,-1379.88 1522.25,-1376.5 1525.62,-1376.5"/>
</g>
<!-- present -->
<g id="node3" class="node">
<title>present</title>
<polyline fill="none" stroke="darkred" points="967.12,-1137.75 1030.88,-1137.75"/>
<text text-anchor="start" x="970.12" y="-1144.95" font-family="Courier New" font-weight="bold" font-size="14.00">present</text>
<path fill="none" stroke="darkred" d="M973.62,-1134.75C973.62,-1134.75 1024.38,-1134.75 1024.38,-1134.75 1029.12,-1134.75 1033.88,-1139.5 1033.88,-1144.25 1033.88,-1144.25 1033.88,-1153.75 1033.88,-1153.75 1033.88,-1158.5 1029.12,-1163.25 1024.38,-1163.25 1024.38,-1163.25 973.62,-1163.25 973.62,-1163.25 968.88,-1163.25 964.12,-1158.5 964.12,-1153.75 964.12,-1153.75 964.12,-1144.25 964.12,-1144.25 964.12,-1139.5 968.88,-1134.75 973.62,-1134.75"/>
</g>
<!-- 0&#45;&gt;present -->
<g id="edge1" class="edge">
<title>0&#45;&gt;present</title>
<path fill="none" stroke="black" d="M1518.13,-1372.74C1511.87,-1364.53 1503.21,-1355.45 1493,-1350.75 1444.32,-1328.34 1049.43,-1370.11 1011,-1332.75 969.92,-1292.81 980.73,-1218.54 990.73,-1178.07"/>
<polygon fill="black" stroke="black" points="994.06,-1179.16 993.23,-1168.6 987.29,-1177.37 994.06,-1179.16"/>
<polygon fill="none" stroke="black" points="1014,-1311 1014,-1329.75 2040,-1329.75 2040,-1311 1014,-1311"/>
<text text-anchor="start" x="1482" y="-1318.25" font-family="Courier New" font-weight="bold" font-size="10.00" fill="orange">WAIT(,SIG_OTID)</text>
<polygon fill="none" stroke="black" points="1014,-1188.25 1014,-1309 2040,-1309 2040,-1188.25 1014,-1188.25"/>
<text text-anchor="start" x="1017" y="-1296.5" font-family="Courier New" font-size="10.00" fill="blue"> &#160;&#160;&#160;unloadview(IDV_MEFID);</text>
<text text-anchor="start" x="1017" y="-1283.75" font-family="Courier New" font-size="10.00" fill="blue"> &#160;&#160;&#160;loadview(IDV_OTHERID);</text>
<text text-anchor="start" x="1017" y="-1271" font-family="Courier New" font-size="10.00" fill="blue"> &#160;&#160;&#160;CLEAR(WSPRITE);</text>
<text text-anchor="start" x="1017" y="-1258.25" font-family="Courier New" font-size="10.00" fill="blue"> &#160;&#160;&#160;&#160;SHOW();</text>
<text text-anchor="start" x="1017" y="-1245.5" font-family="Courier New" font-size="10.00" fill="blue"> &#160;&#160;&#160;&#160;predicate otherplayer(pid,status,player,account_id,name,viewname,wealth,karma,energy,strength,wisdom,gender,culture, knowsparent, knowsvillage,knowscity);</text>
<text text-anchor="start" x="1017" y="-1232.75" font-family="Courier New" font-size="10.00" fill="blue"> &#160;&#160;&#160;&#160;otherplayer(?BPARM, &quot;ACTIVE&quot;, ?WPARM,?acntid,?ONAME,?OVIEW,?OWEALTH,?OKARMA,?OENERGY, ?OSTRENGTH,?OWISDOM,?OSEX,?OCULTURE,?OKNOWSPARENT,?OKNOWSVILLSAGE,?OKNOWSCITY)?</text>
<text text-anchor="start" x="1017" y="-1220" font-family="Courier New" font-size="10.00" fill="blue"> &#160;&#160;&#160;&#160;set_control_value(IDV_OTHERNAME, OTHN, ONAME);</text>
<text text-anchor="start" x="1017" y="-1207.25" font-family="Courier New" font-size="10.00" fill="blue"> &#160;&#160;&#160;&#160;SIGNAL(SOD_AURA,SIG_MYAURA);</text>
<text text-anchor="start" x="1017" y="-1194.5" font-family="Courier New" font-size="10.00" fill="blue"> &#160;&#160;&#160;&#160;SIGNAL(SOD_HALO, SIG_MYHALO);</text>
<polygon fill="none" stroke="black" points="1011,-1185.25 1011,-1332.75 2043,-1332.75 2043,-1185.25 1011,-1185.25"/>
</g>
<!-- setId -->
<g id="node21" class="node">
<title>setId</title>
<polyline fill="none" stroke="darkred" points="712.38,-753.88 759.62,-753.88"/>
<text text-anchor="start" x="715.38" y="-761.08" font-family="Courier New" font-weight="bold" font-size="14.00">setId</text>
<path fill="none" stroke="darkred" d="M718.88,-750.88C718.88,-750.88 753.12,-750.88 753.12,-750.88 757.88,-750.88 762.62,-755.62 762.62,-760.38 762.62,-760.38 762.62,-769.88 762.62,-769.88 762.62,-774.62 757.88,-779.38 753.12,-779.38 753.12,-779.38 718.88,-779.38 718.88,-779.38 714.12,-779.38 709.38,-774.62 709.38,-769.88 709.38,-769.88 709.38,-760.38 709.38,-760.38 709.38,-755.62 714.12,-750.88 718.88,-750.88"/>
</g>
<!-- present&#45;&gt;setId -->
<g id="edge19" class="edge">
<title>present&#45;&gt;setId</title>
<path fill="none" stroke="black" d="M956.18,-1148.74C889.35,-1148.86 764.99,-1144.67 737,-1112.75 695.94,-1065.93 720.62,-868.24 731.58,-794.24"/>
<polygon fill="black" stroke="black" points="735.01,-794.99 733.04,-784.57 728.08,-793.94 735.01,-794.99"/>
<polygon fill="none" stroke="black" points="740,-1091 740,-1109.75 980,-1109.75 980,-1091 740,-1091"/>
<text text-anchor="start" x="824" y="-1098.25" font-family="Courier New" font-weight="bold" font-size="10.00" fill="blue">Z_EPSILON(,)</text>
<polygon fill="none" stroke="black" points="740,-853.5 740,-1089 980,-1089 980,-853.5 740,-853.5"/>
<text text-anchor="start" x="743" y="-1076.5" font-family="Courier New" font-size="10.00" fill="blue"> &#160;&#160;&#160;if(OSEX == 1){</text>
<text text-anchor="start" x="743" y="-1063.75" font-family="Courier New" font-size="10.00" fill="blue"> &#160;&#160;&#160;WPARM = F1;</text>
<text text-anchor="start" x="743" y="-1051" font-family="Courier New" font-size="10.00" fill="blue"> &#160;&#160;&#160;&#160;if(OWISDOM &gt;= 30){</text>
<text text-anchor="start" x="743" y="-1038.25" font-family="Courier New" font-size="10.00" fill="blue"> &#160;&#160;&#160;&#160;&#160;&#160;WPARM = F3;</text>
<text text-anchor="start" x="743" y="-1025.5" font-family="Courier New" font-size="10.00" fill="blue"> &#160;&#160;&#160;}</text>
<text text-anchor="start" x="743" y="-1012.75" font-family="Courier New" font-size="10.00" fill="blue"> &#160;&#160;&#160;&#160;if(OWISDOM &gt;= 20 &amp;&amp; OWISDOM &lt; 30){</text>
<text text-anchor="start" x="743" y="-1000" font-family="Courier New" font-size="10.00" fill="blue"> &#160;&#160;&#160;&#160;&#160;&#160;WPARM = F2;</text>
<text text-anchor="start" x="743" y="-987.25" font-family="Courier New" font-size="10.00" fill="blue"> &#160;&#160;&#160;}</text>
<text text-anchor="start" x="743" y="-974.5" font-family="Courier New" font-size="10.00" fill="blue"> &#160;}</text>
<text text-anchor="start" x="743" y="-961.75" font-family="Courier New" font-size="10.00" fill="blue"> &#160;if(OSEX == 0){</text>
<text text-anchor="start" x="743" y="-949" font-family="Courier New" font-size="10.00" fill="blue"> &#160;&#160;&#160;WPARM = M1;</text>
<text text-anchor="start" x="743" y="-936.25" font-family="Courier New" font-size="10.00" fill="blue"> &#160;&#160;&#160;&#160;&#160;if(OWISDOM &gt;= 30){</text>
<text text-anchor="start" x="743" y="-923.5" font-family="Courier New" font-size="10.00" fill="blue"> &#160;&#160;&#160;&#160;&#160;&#160;WPARM = M3;</text>
<text text-anchor="start" x="743" y="-910.75" font-family="Courier New" font-size="10.00" fill="blue"> &#160;&#160;&#160;}</text>
<text text-anchor="start" x="743" y="-898" font-family="Courier New" font-size="10.00" fill="blue"> &#160;&#160;&#160;if(OWISDOM &gt;= 20 &amp;&amp; OWISDOM &lt; 30){</text>
<text text-anchor="start" x="743" y="-885.25" font-family="Courier New" font-size="10.00" fill="blue"> &#160;&#160;&#160;&#160;&#160;&#160;&#160;WPARM = M2;</text>
<text text-anchor="start" x="743" y="-872.5" font-family="Courier New" font-size="10.00" fill="blue"> &#160;&#160;&#160;}</text>
<text text-anchor="start" x="743" y="-859.75" font-family="Courier New" font-size="10.00" fill="blue"> &#160;}; </text>
<polygon fill="none" stroke="black" points="737,-850.5 737,-1112.75 983,-1112.75 983,-850.5 737,-850.5"/>
</g>
<!-- 100 -->
<g id="node4" class="node">
<title>100</title>
<polyline fill="none" stroke="darkred" points="2012.62,-450.75 2043.38,-450.75"/>
<text text-anchor="start" x="2015.62" y="-457.95" font-family="Courier New" font-weight="bold" font-size="14.00">100</text>
<path fill="none" stroke="darkred" d="M2019.12,-447.75C2019.12,-447.75 2036.88,-447.75 2036.88,-447.75 2041.62,-447.75 2046.38,-452.5 2046.38,-457.25 2046.38,-457.25 2046.38,-466.75 2046.38,-466.75 2046.38,-471.5 2041.62,-476.25 2036.88,-476.25 2036.88,-476.25 2019.12,-476.25 2019.12,-476.25 2014.38,-476.25 2009.62,-471.5 2009.62,-466.75 2009.62,-466.75 2009.62,-457.25 2009.62,-457.25 2009.62,-452.5 2014.38,-447.75 2019.12,-447.75"/>
</g>
<!-- 100&#45;&gt;0 -->
<g id="edge2" class="edge">
<title>100&#45;&gt;0</title>
<path fill="none" stroke="black" d="M2035.47,-479.91C2044.06,-500.95 2057,-538.16 2057,-571.5 2057,-1150 2057,-1150 2057,-1150 2057,-1231.46 2101.71,-1276.28 2043,-1332.75 2004.7,-1369.6 1613.28,-1328.52 1565,-1350.75 1558.3,-1353.84 1552.27,-1358.81 1547.14,-1364.18"/>
<polygon fill="black" stroke="black" points="1544.66,-1361.7 1540.85,-1371.59 1549.99,-1366.23 1544.66,-1361.7"/>
<polygon fill="none" stroke="black" points="2060,-778.88 2060,-797.62 2228,-797.62 2228,-778.88 2060,-778.88"/>
<text text-anchor="start" x="2108" y="-786.12" font-family="Courier New" font-weight="bold" font-size="10.00" fill="blue">Z_EPSILON(,)</text>
<polygon fill="none" stroke="black" points="2060,-732.62 2060,-776.88 2228,-776.88 2228,-732.62 2060,-732.62"/>
<text text-anchor="start" x="2063" y="-764.38" font-family="Courier New" font-size="10.00" fill="blue"> &#160;&#160;&#160;SHOW(0);</text>
<text text-anchor="start" x="2063" y="-751.62" font-family="Courier New" font-size="10.00" fill="blue"> &#160;&#160;&#160;SIGNAL(WIP4,SIG_CLEAR);</text>
<text text-anchor="start" x="2063" y="-738.88" font-family="Courier New" font-size="10.00" fill="blue"> &#160;&#160;&#160;SIGNAL(WIP3,SIG_CLEAR);</text>
<polygon fill="none" stroke="black" points="2057,-729.62 2057,-800.62 2231,-800.62 2231,-729.62 2057,-729.62"/>
</g>
<!-- 20 -->
<g id="node5" class="node">
<title>20</title>
<polyline fill="none" stroke="darkred" points="15.75,-199.12 38.25,-199.12"/>
<text text-anchor="start" x="18.75" y="-206.32" font-family="Courier New" font-weight="bold" font-size="14.00">20</text>
<path fill="none" stroke="darkred" d="M22.25,-196.12C22.25,-196.12 31.75,-196.12 31.75,-196.12 36.5,-196.12 41.25,-200.88 41.25,-205.62 41.25,-205.62 41.25,-215.12 41.25,-215.12 41.25,-219.88 36.5,-224.62 31.75,-224.62 31.75,-224.62 22.25,-224.62 22.25,-224.62 17.5,-224.62 12.75,-219.88 12.75,-215.12 12.75,-215.12 12.75,-205.62 12.75,-205.62 12.75,-200.88 17.5,-196.12 22.25,-196.12"/>
</g>
<!-- playForward -->
<g id="node6" class="node">
<title>playForward</title>
<polyline fill="none" stroke="darkred" points="619.62,-7 716.38,-7"/>
<text text-anchor="start" x="622.62" y="-14.2" font-family="Courier New" font-weight="bold" font-size="14.00">playForward</text>
<path fill="none" stroke="darkred" d="M626.12,-4C626.12,-4 709.88,-4 709.88,-4 714.62,-4 719.38,-8.75 719.38,-13.5 719.38,-13.5 719.38,-23 719.38,-23 719.38,-27.75 714.62,-32.5 709.88,-32.5 709.88,-32.5 626.12,-32.5 626.12,-32.5 621.38,-32.5 616.62,-27.75 616.62,-23 616.62,-23 616.62,-13.5 616.62,-13.5 616.62,-8.75 621.38,-4 626.12,-4"/>
</g>
<!-- 20&#45;&gt;playForward -->
<g id="edge3" class="edge">
<title>20&#45;&gt;playForward</title>
<path fill="none" stroke="black" d="M22.66,-192.23C17.48,-167.47 12.15,-121.56 35,-93.25 73.94,-45.01 107.96,-65.36 169,-54.5 319.98,-27.65 500.08,-21.07 597.3,-19.57"/>
<polygon fill="black" stroke="black" points="597.28,-23.07 607.23,-19.43 597.18,-16.07 597.28,-23.07"/>
<text text-anchor="start" x="39" y="-113.38" font-family="Courier New" font-weight="bold" font-size="10.00" fill="blue">ASSIGN(WSPRITE,happy)</text>
</g>
<!-- sitting -->
<g id="node20" class="node">
<title>sitting</title>
<polyline fill="none" stroke="darkred" points="869.12,-561.25 932.88,-561.25"/>
<text text-anchor="start" x="872.12" y="-568.45" font-family="Courier New" font-weight="bold" font-size="14.00">sitting</text>
<path fill="none" stroke="darkred" d="M875.62,-558.25C875.62,-558.25 926.38,-558.25 926.38,-558.25 931.12,-558.25 935.88,-563 935.88,-567.75 935.88,-567.75 935.88,-577.25 935.88,-577.25 935.88,-582 931.12,-586.75 926.38,-586.75 926.38,-586.75 875.62,-586.75 875.62,-586.75 870.88,-586.75 866.12,-582 866.12,-577.25 866.12,-577.25 866.12,-567.75 866.12,-567.75 866.12,-563 870.88,-558.25 875.62,-558.25"/>
</g>
<!-- playForward&#45;&gt;sitting -->
<g id="edge17" class="edge">
<title>playForward&#45;&gt;sitting</title>
<path fill="none" stroke="black" d="M609.01,-18.61C479.76,-18.8 183,-28.58 183,-114.5 183,-463 183,-463 183,-463 183,-530.1 679.54,-560.63 846.78,-569.01"/>
<polygon fill="black" stroke="black" points="846.56,-572.51 856.72,-569.5 846.91,-565.52 846.56,-572.51"/>
<polygon fill="none" stroke="black" points="186,-332.25 186,-351 486,-351 486,-332.25 186,-332.25"/>
<text text-anchor="start" x="288" y="-339.5" font-family="Courier New" font-weight="bold" font-size="10.00" fill="blue">ASSIGN(BFRAME,0)</text>
<polygon fill="none" stroke="black" points="186,-286 186,-330.25 486,-330.25 486,-286 186,-286"/>
<text text-anchor="start" x="189" y="-317.75" font-family="Courier New" font-size="10.00" fill="blue"> &#160;&#160;&#160;MAP(WSPRITE,WPARM);</text>
<text text-anchor="start" x="189" y="-305" font-family="Courier New" font-size="10.00" fill="blue"> &#160;&#160;&#160;SHOW(WSPRITE);</text>
<text text-anchor="start" x="189" y="-292.25" font-family="Courier New" font-size="10.00" fill="blue"> &#160;&#160;&#160;ANIMATE(0,V_REWIND); //PLAY FORWARD THEN BACK</text>
<polygon fill="none" stroke="black" points="183,-283 183,-354 489,-354 489,-283 183,-283"/>
</g>
<!-- 21 -->
<g id="node7" class="node">
<title>21</title>
<polyline fill="none" stroke="darkred" points="1020.75,-104.25 1043.25,-104.25"/>
<text text-anchor="start" x="1023.75" y="-111.45" font-family="Courier New" font-weight="bold" font-size="14.00">21</text>
<path fill="none" stroke="darkred" d="M1027.25,-101.25C1027.25,-101.25 1036.75,-101.25 1036.75,-101.25 1041.5,-101.25 1046.25,-106 1046.25,-110.75 1046.25,-110.75 1046.25,-120.25 1046.25,-120.25 1046.25,-125 1041.5,-129.75 1036.75,-129.75 1036.75,-129.75 1027.25,-129.75 1027.25,-129.75 1022.5,-129.75 1017.75,-125 1017.75,-120.25 1017.75,-120.25 1017.75,-110.75 1017.75,-110.75 1017.75,-106 1022.5,-101.25 1027.25,-101.25"/>
</g>
<!-- 21&#45;&gt;playForward -->
<g id="edge4" class="edge">
<title>21&#45;&gt;playForward</title>
<path fill="none" stroke="black" d="M1005.17,-100.73C977.32,-87 932.17,-66.32 891,-54.5 840.92,-40.12 782.72,-31.17 738.34,-25.89"/>
<polygon fill="black" stroke="black" points="738.92,-22.43 728.58,-24.77 738.12,-29.39 738.92,-22.43"/>
<text text-anchor="start" x="950" y="-62.75" font-family="Courier New" font-weight="bold" font-size="10.00" fill="blue">ASSIGN(WSPRITE,hurt)</text>
</g>
<!-- 22 -->
<g id="node8" class="node">
<title>22</title>
<polyline fill="none" stroke="darkred" points="1552.75,-450.75 1575.25,-450.75"/>
<text text-anchor="start" x="1555.75" y="-457.95" font-family="Courier New" font-weight="bold" font-size="14.00">22</text>
<path fill="none" stroke="darkred" d="M1559.25,-447.75C1559.25,-447.75 1568.75,-447.75 1568.75,-447.75 1573.5,-447.75 1578.25,-452.5 1578.25,-457.25 1578.25,-457.25 1578.25,-466.75 1578.25,-466.75 1578.25,-471.5 1573.5,-476.25 1568.75,-476.25 1568.75,-476.25 1559.25,-476.25 1559.25,-476.25 1554.5,-476.25 1549.75,-471.5 1549.75,-466.75 1549.75,-466.75 1549.75,-457.25 1549.75,-457.25 1549.75,-452.5 1554.5,-447.75 1559.25,-447.75"/>
</g>
<!-- playOnce -->
<g id="node9" class="node">
<title>playOnce</title>
<polyline fill="none" stroke="darkred" points="1658,-307.25 1730,-307.25"/>
<text text-anchor="start" x="1661" y="-314.45" font-family="Courier New" font-weight="bold" font-size="14.00">playOnce</text>
<path fill="none" stroke="darkred" d="M1664.5,-304.25C1664.5,-304.25 1723.5,-304.25 1723.5,-304.25 1728.25,-304.25 1733,-309 1733,-313.75 1733,-313.75 1733,-323.25 1733,-323.25 1733,-328 1728.25,-332.75 1723.5,-332.75 1723.5,-332.75 1664.5,-332.75 1664.5,-332.75 1659.75,-332.75 1655,-328 1655,-323.25 1655,-323.25 1655,-313.75 1655,-313.75 1655,-309 1659.75,-304.25 1664.5,-304.25"/>
</g>
<!-- 22&#45;&gt;playOnce -->
<g id="edge5" class="edge">
<title>22&#45;&gt;playOnce</title>
<path fill="none" stroke="black" d="M1566.58,-444.09C1570.31,-424.7 1578.85,-392.91 1597,-372 1607.91,-359.43 1622.6,-349.34 1637.24,-341.5"/>
<polygon fill="black" stroke="black" points="1638.61,-344.73 1645.97,-337.11 1635.46,-338.48 1638.61,-344.73"/>
<text text-anchor="start" x="1601" y="-388.12" font-family="Courier New" font-weight="bold" font-size="10.00" fill="blue">ASSIGN(WSPRITE,kiss)</text>
</g>
<!-- playOnce&#45;&gt;sitting -->
<g id="edge18" class="edge">
<title>playOnce&#45;&gt;sitting</title>
<path fill="none" stroke="black" d="M1707.14,-336.41C1713.92,-346.22 1721.49,-359.13 1725,-372 1729.28,-387.65 1730.14,-393.11 1725,-408.5 1702.51,-475.87 1691.75,-502.99 1629,-536.25 1570.03,-567.5 1113.84,-571.18 955.17,-571.51"/>
<polygon fill="black" stroke="black" points="955.34,-568.01 945.35,-571.53 955.35,-575.01 955.34,-568.01"/>
<polygon fill="none" stroke="black" points="1721,-475.75 1721,-494.5 1865,-494.5 1865,-475.75 1721,-475.75"/>
<text text-anchor="start" x="1745" y="-483" font-family="Courier New" font-weight="bold" font-size="10.00" fill="blue">ASSIGN(BFRAME,0)</text>
<polygon fill="none" stroke="black" points="1721,-429.5 1721,-473.75 1865,-473.75 1865,-429.5 1721,-429.5"/>
<text text-anchor="start" x="1724" y="-461.25" font-family="Courier New" font-size="10.00" fill="blue"> &#160;&#160;&#160;MAP(WSPRITE,WPARM);</text>
<text text-anchor="start" x="1724" y="-448.5" font-family="Courier New" font-size="10.00" fill="blue"> &#160;&#160;&#160;SHOW(0,WSPRITE);</text>
<text text-anchor="start" x="1724" y="-435.75" font-family="Courier New" font-size="10.00" fill="blue"> &#160;&#160;&#160;ANIMATE(0,0);</text>
<polygon fill="none" stroke="black" points="1718,-426.5 1718,-497.5 1868,-497.5 1868,-426.5 1718,-426.5"/>
</g>
<!-- 23 -->
<g id="node10" class="node">
<title>23</title>
<polyline fill="none" stroke="darkred" points="505.75,-379 528.25,-379"/>
<text text-anchor="start" x="508.75" y="-386.2" font-family="Courier New" font-weight="bold" font-size="14.00">23</text>
<path fill="none" stroke="darkred" d="M512.25,-376C512.25,-376 521.75,-376 521.75,-376 526.5,-376 531.25,-380.75 531.25,-385.5 531.25,-385.5 531.25,-395 531.25,-395 531.25,-399.75 526.5,-404.5 521.75,-404.5 521.75,-404.5 512.25,-404.5 512.25,-404.5 507.5,-404.5 502.75,-399.75 502.75,-395 502.75,-395 502.75,-385.5 502.75,-385.5 502.75,-380.75 507.5,-376 512.25,-376"/>
</g>
<!-- 23&#45;&gt;playForward -->
<g id="edge6" class="edge">
<title>23&#45;&gt;playForward</title>
<path fill="none" stroke="black" d="M511.69,-372.12C500.29,-332.07 477.12,-230.11 511,-155.75 534.3,-104.61 587.28,-65.21 625.25,-42.17"/>
<polygon fill="black" stroke="black" points="626.9,-45.26 633.73,-37.16 623.34,-39.23 626.9,-45.26"/>
<text text-anchor="start" x="515" y="-208.25" font-family="Courier New" font-weight="bold" font-size="10.00" fill="blue">ASSIGN(WSPRITE,mad)</text>
</g>
<!-- 24 -->
<g id="node11" class="node">
<title>24</title>
<polyline fill="none" stroke="darkred" points="628.75,-379 651.25,-379"/>
<text text-anchor="start" x="631.75" y="-386.2" font-family="Courier New" font-weight="bold" font-size="14.00">24</text>
<path fill="none" stroke="darkred" d="M635.25,-376C635.25,-376 644.75,-376 644.75,-376 649.5,-376 654.25,-380.75 654.25,-385.5 654.25,-385.5 654.25,-395 654.25,-395 654.25,-399.75 649.5,-404.5 644.75,-404.5 644.75,-404.5 635.25,-404.5 635.25,-404.5 630.5,-404.5 625.75,-399.75 625.75,-395 625.75,-395 625.75,-385.5 625.75,-385.5 625.75,-380.75 630.5,-376 635.25,-376"/>
</g>
<!-- 24&#45;&gt;playForward -->
<g id="edge7" class="edge">
<title>24&#45;&gt;playForward</title>
<path fill="none" stroke="black" d="M638.96,-372.2C636.86,-333.56 632.92,-236.42 641,-155.75 644.79,-117.85 654.16,-74.86 660.79,-47.42"/>
<polygon fill="black" stroke="black" points="664.17,-48.35 663.16,-37.8 657.37,-46.67 664.17,-48.35"/>
<text text-anchor="start" x="645" y="-208.25" font-family="Courier New" font-weight="bold" font-size="10.00" fill="blue">ASSIGN(WSPRITE,sad)</text>
</g>
<!-- 25 -->
<g id="node12" class="node">
<title>25</title>
<polyline fill="none" stroke="darkred" points="787.75,-199.12 810.25,-199.12"/>
<text text-anchor="start" x="790.75" y="-206.32" font-family="Courier New" font-weight="bold" font-size="14.00">25</text>
<path fill="none" stroke="darkred" d="M794.25,-196.12C794.25,-196.12 803.75,-196.12 803.75,-196.12 808.5,-196.12 813.25,-200.88 813.25,-205.62 813.25,-205.62 813.25,-215.12 813.25,-215.12 813.25,-219.88 808.5,-224.62 803.75,-224.62 803.75,-224.62 794.25,-224.62 794.25,-224.62 789.5,-224.62 784.75,-219.88 784.75,-215.12 784.75,-215.12 784.75,-205.62 784.75,-205.62 784.75,-200.88 789.5,-196.12 794.25,-196.12"/>
</g>
<!-- 25&#45;&gt;playForward -->
<g id="edge8" class="edge">
<title>25&#45;&gt;playForward</title>
<path fill="none" stroke="black" d="M793.09,-192.28C788.15,-180.4 779.96,-165.08 768,-155.75 745.04,-137.84 725.84,-158.09 705,-137.75 680.66,-113.99 672.27,-74.49 669.41,-47.68"/>
<polygon fill="black" stroke="black" points="672.91,-47.54 668.58,-37.87 665.94,-48.13 672.91,-47.54"/>
<text text-anchor="start" x="709" y="-113.38" font-family="Courier New" font-weight="bold" font-size="10.00" fill="blue">ASSIGN(WSPRITE,surprised)</text>
</g>
<!-- 26 -->
<g id="node13" class="node">
<title>26</title>
<polyline fill="none" stroke="darkred" points="881.75,-379 904.25,-379"/>
<text text-anchor="start" x="884.75" y="-386.2" font-family="Courier New" font-weight="bold" font-size="14.00">26</text>
<path fill="none" stroke="darkred" d="M888.25,-376C888.25,-376 897.75,-376 897.75,-376 902.5,-376 907.25,-380.75 907.25,-385.5 907.25,-385.5 907.25,-395 907.25,-395 907.25,-399.75 902.5,-404.5 897.75,-404.5 897.75,-404.5 888.25,-404.5 888.25,-404.5 883.5,-404.5 878.75,-399.75 878.75,-395 878.75,-395 878.75,-385.5 878.75,-385.5 878.75,-380.75 883.5,-376 888.25,-376"/>
</g>
<!-- 26&#45;&gt;playForward -->
<g id="edge9" class="edge">
<title>26&#45;&gt;playForward</title>
<path fill="none" stroke="black" d="M890.79,-372.39C887.69,-348.51 882,-303.47 878,-265 874.04,-226.89 886.11,-123.8 863,-93.25 833.62,-54.41 781.3,-35.96 738.24,-27.19"/>
<polygon fill="black" stroke="black" points="738.91,-23.75 728.43,-25.34 737.61,-30.63 738.91,-23.75"/>
<text text-anchor="start" x="882" y="-208.25" font-family="Courier New" font-weight="bold" font-size="10.00" fill="blue">ASSIGN(WSPRITE,stress)</text>
</g>
<!-- 27 -->
<g id="node14" class="node">
<title>27</title>
<polyline fill="none" stroke="darkred" points="1279.75,-199.12 1302.25,-199.12"/>
<text text-anchor="start" x="1282.75" y="-206.32" font-family="Courier New" font-weight="bold" font-size="14.00">27</text>
<path fill="none" stroke="darkred" d="M1286.25,-196.12C1286.25,-196.12 1295.75,-196.12 1295.75,-196.12 1300.5,-196.12 1305.25,-200.88 1305.25,-205.62 1305.25,-205.62 1305.25,-215.12 1305.25,-215.12 1305.25,-219.88 1300.5,-224.62 1295.75,-224.62 1295.75,-224.62 1286.25,-224.62 1286.25,-224.62 1281.5,-224.62 1276.75,-219.88 1276.75,-215.12 1276.75,-215.12 1276.75,-205.62 1276.75,-205.62 1276.75,-200.88 1281.5,-196.12 1286.25,-196.12"/>
</g>
<!-- 27&#45;&gt;playForward -->
<g id="edge10" class="edge">
<title>27&#45;&gt;playForward</title>
<path fill="none" stroke="black" d="M1278.54,-192.19C1269.91,-181 1257.72,-166.54 1245,-155.75 1178.8,-99.61 1160.52,-81.42 1078,-54.5 1016.77,-34.52 838.41,-25.2 738.29,-21.43"/>
<polygon fill="black" stroke="black" points="738.7,-17.95 728.58,-21.08 738.45,-24.94 738.7,-17.95"/>
<text text-anchor="start" x="1225" y="-113.38" font-family="Courier New" font-weight="bold" font-size="10.00" fill="blue">ASSIGN(WSPRITE,wave)</text>
</g>
<!-- 30 -->
<g id="node15" class="node">
<title>30</title>
<polyline fill="none" stroke="darkred" points="1445.75,-450.75 1468.25,-450.75"/>
<text text-anchor="start" x="1448.75" y="-457.95" font-family="Courier New" font-weight="bold" font-size="14.00">30</text>
<path fill="none" stroke="darkred" d="M1452.25,-447.75C1452.25,-447.75 1461.75,-447.75 1461.75,-447.75 1466.5,-447.75 1471.25,-452.5 1471.25,-457.25 1471.25,-457.25 1471.25,-466.75 1471.25,-466.75 1471.25,-471.5 1466.5,-476.25 1461.75,-476.25 1461.75,-476.25 1452.25,-476.25 1452.25,-476.25 1447.5,-476.25 1442.75,-471.5 1442.75,-466.75 1442.75,-466.75 1442.75,-457.25 1442.75,-457.25 1442.75,-452.5 1447.5,-447.75 1452.25,-447.75"/>
</g>
<!-- playDead -->
<g id="node16" class="node">
<title>playDead</title>
<polyline fill="none" stroke="darkred" points="1455,-307.25 1527,-307.25"/>
<text text-anchor="start" x="1458" y="-314.45" font-family="Courier New" font-weight="bold" font-size="14.00">playDead</text>
<path fill="none" stroke="darkred" d="M1461.5,-304.25C1461.5,-304.25 1520.5,-304.25 1520.5,-304.25 1525.25,-304.25 1530,-309 1530,-313.75 1530,-313.75 1530,-323.25 1530,-323.25 1530,-328 1525.25,-332.75 1520.5,-332.75 1520.5,-332.75 1461.5,-332.75 1461.5,-332.75 1456.75,-332.75 1452,-328 1452,-323.25 1452,-323.25 1452,-313.75 1452,-313.75 1452,-309 1456.75,-304.25 1461.5,-304.25"/>
</g>
<!-- 30&#45;&gt;playDead -->
<g id="edge11" class="edge">
<title>30&#45;&gt;playDead</title>
<path fill="none" stroke="black" d="M1450.33,-444.06C1444.15,-425.74 1437.14,-395.95 1446,-372 1449.73,-361.91 1456.36,-352.46 1463.41,-344.42"/>
<polygon fill="black" stroke="black" points="1465.72,-347.07 1470.06,-337.4 1460.64,-342.26 1465.72,-347.07"/>
<text text-anchor="start" x="1450" y="-388.12" font-family="Courier New" font-weight="bold" font-size="10.00" fill="blue">ASSIGN(WSPRITE,dead)</text>
</g>
<!-- dead -->
<g id="node19" class="node">
<title>dead</title>
<polyline fill="none" stroke="darkred" stroke-width="3" points="1924,-103.75 1964,-103.75"/>
<text text-anchor="start" x="1927.5" y="-111.45" font-family="Courier New" font-weight="bold" font-size="14.00">dead</text>
<path fill="none" stroke="darkred" stroke-width="3" d="M1930.17,-98.75C1930.17,-98.75 1957.83,-98.75 1957.83,-98.75 1963.42,-98.75 1969,-104.33 1969,-109.92 1969,-109.92 1969,-121.08 1969,-121.08 1969,-126.67 1963.42,-132.25 1957.83,-132.25 1957.83,-132.25 1930.17,-132.25 1930.17,-132.25 1924.58,-132.25 1919,-126.67 1919,-121.08 1919,-121.08 1919,-109.92 1919,-109.92 1919,-104.33 1924.58,-98.75 1930.17,-98.75"/>
</g>
<!-- playDead&#45;&gt;dead -->
<g id="edge16" class="edge">
<title>playDead&#45;&gt;dead</title>
<path fill="none" stroke="black" d="M1516.11,-300.27C1564.87,-267.57 1676.64,-196.15 1780,-155.75 1818.66,-140.64 1864.8,-130.23 1898.28,-123.94"/>
<polygon fill="black" stroke="black" points="1898.86,-127.4 1908.07,-122.16 1897.61,-120.51 1898.86,-127.4"/>
<polygon fill="none" stroke="black" points="1783,-243.25 1783,-262 1927,-262 1927,-243.25 1783,-243.25"/>
<text text-anchor="start" x="1807" y="-250.5" font-family="Courier New" font-weight="bold" font-size="10.00" fill="blue">ASSIGN(BFRAME,0)</text>
<polygon fill="none" stroke="black" points="1783,-158.75 1783,-241.25 1927,-241.25 1927,-158.75 1783,-158.75"/>
<text text-anchor="start" x="1786" y="-228.75" font-family="Courier New" font-size="10.00" fill="blue"> &#160;&#160;&#160;MAP(WSPRITE,WPARM);</text>
<text text-anchor="start" x="1786" y="-216" font-family="Courier New" font-size="10.00" fill="blue"> &#160;&#160;&#160;SHOW(0,WSPRITE);</text>
<text text-anchor="start" x="1786" y="-203.25" font-family="Courier New" font-size="10.00" fill="blue"> &#160;&#160;&#160;VIDEO(0,WSPRITE);</text>
<text text-anchor="start" x="1786" y="-190.5" font-family="Courier New" font-size="10.00" fill="blue"> &#160;&#160;&#160;ANIMATE(0,0);</text>
<text text-anchor="start" x="1786" y="-177.75" font-family="Courier New" font-size="10.00" fill="blue"> &#160;&#160;&#160;ASSIGN(OENERGY,0);</text>
<text text-anchor="start" x="1786" y="-165" font-family="Courier New" font-size="10.00" fill="blue"> &#160;&#160;&#160;ASSIGN(OWEALTH,0);</text>
<polygon fill="none" stroke="black" points="1780,-155.75 1780,-265 1930,-265 1930,-155.75 1780,-155.75"/>
</g>
<!-- 50 -->
<g id="node17" class="node">
<title>50</title>
<polyline fill="none" stroke="darkred" points="1111.75,-450.75 1134.25,-450.75"/>
<text text-anchor="start" x="1114.75" y="-457.95" font-family="Courier New" font-weight="bold" font-size="14.00">50</text>
<path fill="none" stroke="darkred" d="M1118.25,-447.75C1118.25,-447.75 1127.75,-447.75 1127.75,-447.75 1132.5,-447.75 1137.25,-452.5 1137.25,-457.25 1137.25,-457.25 1137.25,-466.75 1137.25,-466.75 1137.25,-471.5 1132.5,-476.25 1127.75,-476.25 1127.75,-476.25 1118.25,-476.25 1118.25,-476.25 1113.5,-476.25 1108.75,-471.5 1108.75,-466.75 1108.75,-466.75 1108.75,-457.25 1108.75,-457.25 1108.75,-452.5 1113.5,-447.75 1118.25,-447.75"/>
</g>
<!-- 51 -->
<g id="node18" class="node">
<title>51</title>
<polyline fill="none" stroke="darkred" points="1090.75,-307.25 1113.25,-307.25"/>
<text text-anchor="start" x="1093.75" y="-314.45" font-family="Courier New" font-weight="bold" font-size="14.00">51</text>
<path fill="none" stroke="darkred" d="M1097.25,-304.25C1097.25,-304.25 1106.75,-304.25 1106.75,-304.25 1111.5,-304.25 1116.25,-309 1116.25,-313.75 1116.25,-313.75 1116.25,-323.25 1116.25,-323.25 1116.25,-328 1111.5,-332.75 1106.75,-332.75 1106.75,-332.75 1097.25,-332.75 1097.25,-332.75 1092.5,-332.75 1087.75,-328 1087.75,-323.25 1087.75,-323.25 1087.75,-313.75 1087.75,-313.75 1087.75,-309 1092.5,-304.25 1097.25,-304.25"/>
</g>
<!-- 50&#45;&gt;51 -->
<g id="edge12" class="edge">
<title>50&#45;&gt;51</title>
<path fill="none" stroke="black" d="M1130.13,-443.96C1136.69,-425.81 1144.39,-396.4 1137,-372 1134.2,-362.76 1129.18,-353.65 1123.8,-345.69"/>
<polygon fill="black" stroke="black" points="1126.79,-343.85 1118.07,-337.83 1121.13,-347.98 1126.79,-343.85"/>
<text text-anchor="start" x="1144" y="-388.12" font-family="Courier New" font-weight="bold" font-size="10.00" fill="blue">VIDEO(0,IDS_EXPLODE1)</text>
</g>
<!-- 51&#45;&gt;21 -->
<g id="edge13" class="edge">
<title>51&#45;&gt;21</title>
<path fill="none" stroke="black" d="M1096.17,-300.48C1086.04,-270.98 1064.52,-208.46 1046,-155.75 1044.69,-152.02 1043.3,-148.09 1041.93,-144.22"/>
<polygon fill="black" stroke="black" points="1045.33,-143.35 1038.68,-135.11 1038.74,-145.7 1045.33,-143.35"/>
<text text-anchor="start" x="1087" y="-208.25" font-family="Courier New" font-weight="bold" font-size="10.00" fill="blue">PLAYWAVE(0,SOUND_EXPLODE)</text>
</g>
<!-- dead&#45;&gt;0 -->
<g id="edge15" class="edge">
<title>dead&#45;&gt;0</title>
<path fill="none" stroke="black" d="M1978.31,-121.74C2059.95,-136.34 2259,-185.48 2259,-317.5 2259,-1150 2259,-1150 2259,-1150 2259,-1266.21 2178.82,-1286.99 2072,-1332.75 1968.37,-1377.14 1667.45,-1303.71 1565,-1350.75 1558.3,-1353.83 1552.26,-1358.8 1547.14,-1364.17"/>
<polygon fill="black" stroke="black" points="1544.65,-1361.69 1540.85,-1371.58 1549.99,-1366.22 1544.65,-1361.69"/>
<text text-anchor="start" x="2263" y="-570.38" font-family="Courier New" font-weight="bold" font-size="10.00" fill="orange">WAIT(,SIG_MYID)</text>
</g>
<!-- dead&#45;&gt;present -->
<g id="edge14" class="edge">
<title>dead&#45;&gt;present</title>
<path fill="none" stroke="black" d="M1944.09,-137.46C1944.35,-198.8 1945.16,-383.22 1946,-536.25 1946.39,-608.03 1946.78,-625.97 1947,-697.75 1947.19,-757.64 1982.03,-783.92 1947,-832.5 1837.37,-984.53 1237.22,-1104.72 1052.88,-1138.48"/>
<polygon fill="black" stroke="black" points="1052.3,-1135.03 1043.09,-1140.26 1053.56,-1141.92 1052.3,-1135.03"/>
<text text-anchor="start" x="1950" y="-523.75" font-family="Courier New" font-weight="bold" font-size="10.00" fill="orange">WAIT(,SIG_OTID)</text>
</g>
<!-- sitting&#45;&gt;0 -->
<g id="edge33" class="edge">
<title>sitting&#45;&gt;0</title>
<path fill="none" stroke="black" d="M858.41,-576.34C809.86,-580.44 734.54,-589.72 714,-608.75 548.32,-762.24 542.71,-913.47 649,-1112.75 731.61,-1267.63 809.99,-1278.73 977,-1332.75 1031.58,-1350.41 1440.86,-1326.83 1493,-1350.75 1499.71,-1353.83 1505.74,-1358.79 1510.86,-1364.17"/>
<polygon fill="black" stroke="black" points="1508.01,-1366.22 1517.15,-1371.58 1513.35,-1361.69 1508.01,-1366.22"/>
<text text-anchor="start" x="653" y="-979.5" font-family="Courier New" font-weight="bold" font-size="10.00" fill="orange">WAIT(0,0)</text>
</g>
<!-- sitting&#45;&gt;present -->
<g id="edge21" class="edge">
<title>sitting&#45;&gt;present</title>
<path fill="none" stroke="black" d="M899.43,-590.54C895.04,-642.15 884.87,-795.47 915,-832.5 934.73,-856.75 963.27,-826.25 983,-850.5 1047.12,-929.33 1022.25,-1062.38 1007.21,-1120"/>
<polygon fill="black" stroke="black" points="1003.92,-1118.77 1004.67,-1129.34 1010.67,-1120.61 1003.92,-1118.77"/>
<polygon fill="none" stroke="black" points="918,-810.75 918,-829.5 1944,-829.5 1944,-810.75 918,-810.75"/>
<text text-anchor="start" x="1386" y="-818" font-family="Courier New" font-weight="bold" font-size="10.00" fill="orange">WAIT(,SIG_OTID)</text>
<polygon fill="none" stroke="black" points="918,-700.75 918,-808.75 1944,-808.75 1944,-700.75 918,-700.75"/>
<text text-anchor="start" x="921" y="-796.25" font-family="Courier New" font-size="10.00" fill="blue"> &#160;&#160;&#160;loadview(IDV_OTHERID);</text>
<text text-anchor="start" x="921" y="-783.5" font-family="Courier New" font-size="10.00" fill="blue"> &#160;&#160;&#160;CLEAR(WSPRITE);</text>
<text text-anchor="start" x="921" y="-770.75" font-family="Courier New" font-size="10.00" fill="blue"> &#160;&#160;&#160;&#160;SHOW();</text>
<text text-anchor="start" x="921" y="-758" font-family="Courier New" font-size="10.00" fill="blue"> &#160;&#160;&#160;&#160;predicate otherplayer(pid,status,player,account_id,name,viewname,wealth,karma,energy,strength,wisdom,gender,culture, knowsparent, knowsvillage,knowscity);</text>
<text text-anchor="start" x="921" y="-745.25" font-family="Courier New" font-size="10.00" fill="blue"> &#160;&#160;&#160;&#160;otherplayer(?BPARM, &quot;ACTIVE&quot;, ?WPARM,?acntid,?ONAME,?OVIEW,?OWEALTH,?OKARMA,?OENERGY, ?OSTRENGTH,?OWISDOM,?OSEX,?OCULTURE,?OKNOWSPARENT,?OKNOWSVILLSAGE,?OKNOWSCITY)?</text>
<text text-anchor="start" x="921" y="-732.5" font-family="Courier New" font-size="10.00" fill="blue"> &#160;&#160;&#160;&#160;set_control_value(IDV_OTHERNAME, OTHN, ONAME);</text>
<text text-anchor="start" x="921" y="-719.75" font-family="Courier New" font-size="10.00" fill="blue"> &#160;&#160;&#160;&#160;SIGNAL(SOD_AURA,SIG_SUB);</text>
<text text-anchor="start" x="921" y="-707" font-family="Courier New" font-size="10.00" fill="blue"> &#160;&#160;&#160;&#160;SIGNAL(SOD_HALO, SIG_MYHALO);</text>
<polygon fill="none" stroke="black" points="915,-697.75 915,-832.5 1947,-832.5 1947,-697.75 915,-697.75"/>
</g>
<!-- sitting&#45;&gt;100 -->
<g id="edge32" class="edge">
<title>sitting&#45;&gt;100</title>
<path fill="none" stroke="black" d="M943.83,-571.4C1093.91,-570.8 1595.44,-566.51 1753,-536.25 1780.3,-531.01 1785.27,-523.14 1812,-515.5 1847.46,-505.36 1857.13,-506.07 1893,-497.5 1925.94,-489.63 1963.23,-480.05 1990.25,-472.99"/>
<polygon fill="black" stroke="black" points="1990.92,-476.43 1999.7,-470.51 1989.14,-469.66 1990.92,-476.43"/>
<text text-anchor="start" x="1816" y="-523.75" font-family="Courier New" font-weight="bold" font-size="10.00" fill="orange">WAIT(0,SIG_CLEAR)</text>
</g>
<!-- sitting&#45;&gt;20 -->
<g id="edge22" class="edge">
<title>sitting&#45;&gt;20</title>
<path fill="none" stroke="black" d="M858.19,-571.07C722.38,-569.44 302.29,-562.35 169,-536.25 118.13,-526.29 91.26,-538.07 59,-497.5 -1.57,-421.32 11.49,-295.5 21.21,-239.62"/>
<polygon fill="black" stroke="black" points="24.61,-240.46 22.99,-229.99 17.73,-239.18 24.61,-240.46"/>
<text text-anchor="start" x="63" y="-459.88" font-family="Courier New" font-weight="bold" font-size="10.00" fill="orange">WAIT(0,SIG_HAPPY)</text>
</g>
<!-- sitting&#45;&gt;21 -->
<g id="edge23" class="edge">
<title>sitting&#45;&gt;21</title>
<path fill="none" stroke="black" d="M943.87,-570.43C969.66,-567.32 1000.73,-558.7 1018,-536.25 1023.97,-528.49 1029.78,-238.09 1031.49,-144.94"/>
<polygon fill="black" stroke="black" points="1034.99,-145.21 1031.67,-135.15 1027.99,-145.08 1034.99,-145.21"/>
<text text-anchor="start" x="1030" y="-388.12" font-family="Courier New" font-weight="bold" font-size="10.00" fill="orange">WAIT(0,SIG_HURT)</text>
</g>
<!-- sitting&#45;&gt;22 -->
<g id="edge24" class="edge">
<title>sitting&#45;&gt;22</title>
<path fill="none" stroke="black" d="M943.8,-570.7C1071.09,-568.06 1441.53,-558.54 1491,-536.25 1513.51,-526.11 1532.9,-505.72 1546.03,-489.02"/>
<polygon fill="black" stroke="black" points="1548.53,-491.52 1551.75,-481.43 1542.94,-487.31 1548.53,-491.52"/>
<text text-anchor="start" x="1525" y="-523.75" font-family="Courier New" font-weight="bold" font-size="10.00" fill="orange">WAIT(0,SIG_KISS)</text>
</g>
<!-- sitting&#45;&gt;23 -->
<g id="edge25" class="edge">
<title>sitting&#45;&gt;23</title>
<path fill="none" stroke="black" d="M858.28,-570.55C764.83,-568.04 548.75,-559.73 526,-536.25 496.3,-505.6 501.93,-452.11 509.16,-419.37"/>
<polygon fill="black" stroke="black" points="512.53,-420.34 511.48,-409.8 505.73,-418.7 512.53,-420.34"/>
<text text-anchor="start" x="530" y="-523.75" font-family="Courier New" font-weight="bold" font-size="10.00" fill="orange">WAIT(0,SIG_MAD)</text>
</g>
<!-- sitting&#45;&gt;24 -->
<g id="edge26" class="edge">
<title>sitting&#45;&gt;24</title>
<path fill="none" stroke="black" d="M858.17,-572.24C791.33,-572.39 666.95,-568.21 639,-536.25 611.11,-504.35 620.33,-451.71 629.91,-419.4"/>
<polygon fill="black" stroke="black" points="633.23,-420.52 632.93,-409.93 626.56,-418.39 633.23,-420.52"/>
<text text-anchor="start" x="643" y="-523.75" font-family="Courier New" font-weight="bold" font-size="10.00" fill="orange">WAIT(0,SIG_SAD)</text>
</g>
<!-- sitting&#45;&gt;25 -->
<g id="edge27" class="edge">
<title>sitting&#45;&gt;25</title>
<path fill="none" stroke="black" d="M858.34,-562.36C824.33,-552.58 778.89,-533.37 757,-497.5 706.1,-414.11 756.85,-292.17 784.12,-238.47"/>
<polygon fill="black" stroke="black" points="787.17,-240.21 788.69,-229.72 780.96,-236.97 787.17,-240.21"/>
<text text-anchor="start" x="761" y="-459.88" font-family="Courier New" font-weight="bold" font-size="10.00" fill="orange">WAIT(0,SIG_SURPRISED)</text>
</g>
<!-- sitting&#45;&gt;26 -->
<g id="edge28" class="edge">
<title>sitting&#45;&gt;26</title>
<path fill="none" stroke="black" d="M900.25,-554.54C898.87,-523.54 895.94,-457.44 894.26,-419.53"/>
<polygon fill="black" stroke="black" points="897.76,-419.64 893.82,-409.81 890.77,-419.95 897.76,-419.64"/>
<text text-anchor="start" x="904" y="-523.75" font-family="Courier New" font-weight="bold" font-size="10.00" fill="orange">WAIT(0,SIG_STRESS)</text>
</g>
<!-- sitting&#45;&gt;27 -->
<g id="edge29" class="edge">
<title>sitting&#45;&gt;27</title>
<path fill="none" stroke="black" d="M943.67,-570.18C1012.03,-567.4 1142.45,-559.19 1182,-536.25 1243.44,-500.62 1253.3,-475.09 1278,-408.5 1299.14,-351.5 1297.24,-278.94 1294.07,-239.68"/>
<polygon fill="black" stroke="black" points="1297.57,-239.55 1293.18,-229.91 1290.6,-240.18 1297.57,-239.55"/>
<text text-anchor="start" x="1274" y="-459.88" font-family="Courier New" font-weight="bold" font-size="10.00" fill="orange">WAIT(0,SIG_WAVE)</text>
</g>
<!-- sitting&#45;&gt;30 -->
<g id="edge30" class="edge">
<title>sitting&#45;&gt;30</title>
<path fill="none" stroke="black" d="M943.81,-572.21C1020.69,-572.55 1186.73,-568.96 1322,-536.25 1365.92,-525.63 1377.36,-520.94 1416,-497.5 1420.94,-494.5 1425.9,-490.92 1430.58,-487.23"/>
<polygon fill="black" stroke="black" points="1432.54,-490.15 1437.98,-481.06 1428.06,-484.77 1432.54,-490.15"/>
<text text-anchor="start" x="1387" y="-523.75" font-family="Courier New" font-weight="bold" font-size="10.00" fill="orange">WAIT(0,SIG_DEAD)</text>
</g>
<!-- sitting&#45;&gt;50 -->
<g id="edge31" class="edge">
<title>sitting&#45;&gt;50</title>
<path fill="none" stroke="black" d="M943.72,-567.05C973.78,-562.54 1014.16,-553.62 1046,-536.25 1067.87,-524.32 1088.08,-504.6 1102.31,-488.63"/>
<polygon fill="black" stroke="black" points="1104.7,-491.22 1108.58,-481.36 1099.4,-486.64 1104.7,-491.22"/>
<text text-anchor="start" x="1078" y="-523.75" font-family="Courier New" font-weight="bold" font-size="10.00" fill="orange">WAIT(0,SIG_BOMB)</text>
</g>
<!-- setId&#45;&gt;sitting -->
<g id="edge20" class="edge">
<title>setId&#45;&gt;sitting</title>
<path fill="none" stroke="black" d="M729.87,-746.89C719.94,-715.54 704.49,-648.72 737,-608.75 750.8,-591.78 804.88,-582.59 847.21,-577.89"/>
<polygon fill="black" stroke="black" points="847.43,-581.38 857.01,-576.86 846.7,-574.42 847.43,-581.38"/>
<polygon fill="none" stroke="black" points="740,-658 740,-676.75 884,-676.75 884,-658 740,-658"/>
<text text-anchor="start" x="749" y="-665.25" font-family="Courier New" font-weight="bold" font-size="10.00" fill="blue">ASSIGN(WSPRITE,happy)</text>
<polygon fill="none" stroke="black" points="740,-611.75 740,-656 884,-656 884,-611.75 740,-611.75"/>
<text text-anchor="start" x="743" y="-643.5" font-family="Courier New" font-size="10.00" fill="blue"> &#160;&#160;&#160;MAP(WSPRITE,WPARM);</text>
<text text-anchor="start" x="743" y="-630.75" font-family="Courier New" font-size="10.00" fill="blue"> &#160;&#160;&#160;ASSIGN(BFRAME,0);</text>
<text text-anchor="start" x="743" y="-618" font-family="Courier New" font-size="10.00" fill="blue"> &#160;&#160;&#160;SHOW(WSPRITE);</text>
<polygon fill="none" stroke="black" points="737,-608.75 737,-679.75 887,-679.75 887,-608.75 737,-608.75"/>
</g>
<!-- status -->
<g id="node22" class="node">
<title>status</title>
<polygon fill="none" stroke="black" points="1574,-1351.25 1574,-1430.25 2178,-1430.25 2178,-1351.25 1574,-1351.25"/>
<polygon fill="none" stroke="black" points="1585,-1404.5 1585,-1423.25 2167,-1423.25 2167,-1404.5 1585,-1404.5"/>
<text text-anchor="start" x="1858" y="-1411.75" font-family="Courier New" font-weight="bold" font-size="10.00">SOD_ID</text>
<polygon fill="none" stroke="black" points="1585,-1358.25 1585,-1402.5 2167,-1402.5 2167,-1358.25 1585,-1358.25"/>
<text text-anchor="start" x="1588" y="-1390" font-family="Courier New" font-size="10.00" fill="green">VIEW::IDV_OTHERID @pos(x:0, y:0, h:101, w:171)</text>
<text text-anchor="start" x="1588" y="-1377.25" font-family="Courier New" font-size="10.00" fill="green">SOD_ID::M_OID(&#39;OWISDOM&#39;,&#39;OSEX&#39;,&#39;SOD_HALO&#39;,&#39;SOD_AURA&#39;,&#39;&#39;,&#39;&#39;)</text>
<text text-anchor="start" x="1588" y="-1364.5" font-family="Courier New" font-size="10.00" fill="green">{state:&#39;dead&#39;: bParm:108.82.186.169:62729 wParm:F1 wSprite:IDS_FID1EX bFrame:32 Top:0 Left:0 Z:0</text>
<polygon fill="none" stroke="black" points="1582,-1355.25 1582,-1426.25 2170,-1426.25 2170,-1355.25 1582,-1355.25"/>
</g>
</g>
</svg>
