<?xml version="1.0" encoding="UTF-8" standalone="no"?>
<!DOCTYPE svg PUBLIC "-//W3C//DTD SVG 1.1//EN"
 "http://www.w3.org/Graphics/SVG/1.1/DTD/svg11.dtd">
<!-- Generated by graphviz version 10.0.1 (20240210.2158)
 -->
<!-- Title: Automaton Pages: 1 -->
<svg width="1997pt" height="1413pt"
 viewBox="0.00 0.00 1997.31 1413.25" xmlns="http://www.w3.org/2000/svg" xmlns:xlink="http://www.w3.org/1999/xlink">
<g id="graph0" class="graph" transform="scale(1 1) rotate(0) translate(4 1409.25)">
<title>Automaton</title>
<polygon fill="white" stroke="none" points="-4,4 -4,-1409.25 1993.31,-1409.25 1993.31,4 -4,4"/>
<!-- filename -->
<g id="node1" class="node">
<title>filename</title>
<polygon fill="none" stroke="black" points="540.31,-1338.5 540.31,-1392 658.31,-1392 658.31,-1338.5 540.31,-1338.5"/>
<polygon fill="none" stroke="black" points="551.31,-1366.25 551.31,-1385 647.31,-1385 647.31,-1366.25 551.31,-1366.25"/>
<text text-anchor="start" x="560.31" y="-1373.5" font-family="Courier New" font-weight="bold" font-size="10.00">SOD_ID::M_OID</text>
<polygon fill="none" stroke="black" points="551.31,-1345.5 551.31,-1364.25 647.31,-1364.25 647.31,-1345.5 551.31,-1345.5"/>
<text text-anchor="start" x="554.31" y="-1351.75" font-family="Courier New" font-size="10.00" fill="brown">start state = 0</text>
<polygon fill="none" stroke="black" points="548.31,-1342.5 548.31,-1388 650.31,-1388 650.31,-1342.5 548.31,-1342.5"/>
</g>
<!-- 0 -->
<g id="node2" class="node">
<title>0</title>
<polyline fill="none" stroke="darkred" points="696.19,-1354 710.44,-1354"/>
<text text-anchor="start" x="699.19" y="-1361.2" font-family="Courier New" font-weight="bold" font-size="14.00">0</text>
<path fill="none" stroke="darkred" d="M699.94,-1351C699.94,-1351 706.69,-1351 706.69,-1351 710.06,-1351 713.44,-1354.38 713.44,-1357.75 713.44,-1357.75 713.44,-1372.75 713.44,-1372.75 713.44,-1376.12 710.06,-1379.5 706.69,-1379.5 706.69,-1379.5 699.94,-1379.5 699.94,-1379.5 696.56,-1379.5 693.19,-1376.12 693.19,-1372.75 693.19,-1372.75 693.19,-1357.75 693.19,-1357.75 693.19,-1354.38 696.56,-1351 699.94,-1351"/>
</g>
<!-- present -->
<g id="node3" class="node">
<title>present</title>
<polyline fill="none" stroke="darkred" points="148.44,-1137.75 212.19,-1137.75"/>
<text text-anchor="start" x="151.44" y="-1144.95" font-family="Courier New" font-weight="bold" font-size="14.00">present</text>
<path fill="none" stroke="darkred" d="M154.94,-1134.75C154.94,-1134.75 205.69,-1134.75 205.69,-1134.75 210.44,-1134.75 215.19,-1139.5 215.19,-1144.25 215.19,-1144.25 215.19,-1153.75 215.19,-1153.75 215.19,-1158.5 210.44,-1163.25 205.69,-1163.25 205.69,-1163.25 154.94,-1163.25 154.94,-1163.25 150.19,-1163.25 145.44,-1158.5 145.44,-1153.75 145.44,-1153.75 145.44,-1144.25 145.44,-1144.25 145.44,-1139.5 150.19,-1134.75 154.94,-1134.75"/>
</g>
<!-- 0&#45;&gt;present -->
<g id="edge1" class="edge">
<title>0&#45;&gt;present</title>
<path fill="none" stroke="black" d="M692.44,-1347.24C686.18,-1339.03 677.53,-1329.95 667.31,-1325.25 618.22,-1302.66 218.93,-1346.04 181.31,-1307.25 148.36,-1273.27 159.59,-1213.18 170.27,-1177.94"/>
<polygon fill="black" stroke="black" points="173.59,-1179.04 173.34,-1168.45 166.93,-1176.89 173.59,-1179.04"/>
<polygon fill="none" stroke="black" points="184.31,-1285.5 184.31,-1304.25 1210.31,-1304.25 1210.31,-1285.5 184.31,-1285.5"/>
<text text-anchor="start" x="652.31" y="-1292.75" font-family="Courier New" font-weight="bold" font-size="10.00" fill="orange">WAIT(,SIG_OTID)</text>
<polygon fill="none" stroke="black" points="184.31,-1188.25 184.31,-1283.5 1210.31,-1283.5 1210.31,-1188.25 184.31,-1188.25"/>
<text text-anchor="start" x="187.31" y="-1271" font-family="Courier New" font-size="10.00" fill="blue"> &#160;&#160;&#160;CLEAR(WSPRITE);</text>
<text text-anchor="start" x="187.31" y="-1258.25" font-family="Courier New" font-size="10.00" fill="blue"> &#160;&#160;&#160;&#160;SHOW(0);</text>
<text text-anchor="start" x="187.31" y="-1245.5" font-family="Courier New" font-size="10.00" fill="blue"> &#160;&#160;&#160;&#160;predicate otherplayer(pid,status,player,account_id,name,viewname,wealth,karma,energy,strength,wisdom,gender,culture, knowsparent, knowsvillage,knowscity);</text>
<text text-anchor="start" x="187.31" y="-1232.75" font-family="Courier New" font-size="10.00" fill="blue"> &#160;&#160;&#160;&#160;otherplayer(?BPARM, &quot;ACTIVE&quot;, ?WPARM,?acntid,?ONAME,?OVIEW,?OWEALTH,?OKARMA,?OENERGY, ?OSTRENGTH,?OWISDOM,?OSEX,?OCULTURE,?OKNOWSPARENT,?OKNOWSVILLSAGE,?OKNOWSCITY)?</text>
<text text-anchor="start" x="187.31" y="-1220" font-family="Courier New" font-size="10.00" fill="blue"> &#160;&#160;&#160;&#160;set_control_value(IDV_OTHERNAME, OTHN, ONAME);</text>
<text text-anchor="start" x="187.31" y="-1207.25" font-family="Courier New" font-size="10.00" fill="blue"> &#160;&#160;&#160;&#160;SIGNAL(SOD_AURA,SIG_MYAURA);</text>
<text text-anchor="start" x="187.31" y="-1194.5" font-family="Courier New" font-size="10.00" fill="blue"> &#160;&#160;&#160;&#160;SIGNAL(SOD_HALO, SIG_MYHALO);</text>
<polygon fill="none" stroke="black" points="181.31,-1185.25 181.31,-1307.25 1213.31,-1307.25 1213.31,-1185.25 181.31,-1185.25"/>
</g>
<!-- setId -->
<g id="node21" class="node">
<title>setId</title>
<polyline fill="none" stroke="darkred" points="1089.69,-760.25 1136.94,-760.25"/>
<text text-anchor="start" x="1092.69" y="-767.45" font-family="Courier New" font-weight="bold" font-size="14.00">setId</text>
<path fill="none" stroke="darkred" d="M1096.19,-757.25C1096.19,-757.25 1130.44,-757.25 1130.44,-757.25 1135.19,-757.25 1139.94,-762 1139.94,-766.75 1139.94,-766.75 1139.94,-776.25 1139.94,-776.25 1139.94,-781 1135.19,-785.75 1130.44,-785.75 1130.44,-785.75 1096.19,-785.75 1096.19,-785.75 1091.44,-785.75 1086.69,-781 1086.69,-776.25 1086.69,-776.25 1086.69,-766.75 1086.69,-766.75 1086.69,-762 1091.44,-757.25 1096.19,-757.25"/>
</g>
<!-- present&#45;&gt;setId -->
<g id="edge18" class="edge">
<title>present&#45;&gt;setId</title>
<path fill="none" stroke="black" d="M217.54,-1130.77C328.14,-1080.26 665.4,-930.99 959.31,-850.5 1004.98,-837.99 1023.41,-856.35 1064.31,-832.5 1078.07,-824.48 1089.58,-811.05 1097.98,-798.93"/>
<polygon fill="black" stroke="black" points="1100.69,-801.18 1103.21,-790.88 1094.82,-797.36 1100.69,-801.18"/>
<polygon fill="none" stroke="black" points="962.31,-1091 962.31,-1109.75 1202.31,-1109.75 1202.31,-1091 962.31,-1091"/>
<text text-anchor="start" x="1046.31" y="-1098.25" font-family="Courier New" font-weight="bold" font-size="10.00" fill="blue">Z_EPSILON(,)</text>
<polygon fill="none" stroke="black" points="962.31,-853.5 962.31,-1089 1202.31,-1089 1202.31,-853.5 962.31,-853.5"/>
<text text-anchor="start" x="965.31" y="-1076.5" font-family="Courier New" font-size="10.00" fill="blue"> &#160;&#160;&#160;if(OSEX == 1){</text>
<text text-anchor="start" x="965.31" y="-1063.75" font-family="Courier New" font-size="10.00" fill="blue"> &#160;&#160;&#160;WPARM = F1;</text>
<text text-anchor="start" x="965.31" y="-1051" font-family="Courier New" font-size="10.00" fill="blue"> &#160;&#160;&#160;&#160;if(OWISDOM &gt;= 30){</text>
<text text-anchor="start" x="965.31" y="-1038.25" font-family="Courier New" font-size="10.00" fill="blue"> &#160;&#160;&#160;&#160;&#160;&#160;WPARM = F3;</text>
<text text-anchor="start" x="965.31" y="-1025.5" font-family="Courier New" font-size="10.00" fill="blue"> &#160;&#160;&#160;}</text>
<text text-anchor="start" x="965.31" y="-1012.75" font-family="Courier New" font-size="10.00" fill="blue"> &#160;&#160;&#160;&#160;if(OWISDOM &gt;= 20 &amp;&amp; OWISDOM &lt; 30){</text>
<text text-anchor="start" x="965.31" y="-1000" font-family="Courier New" font-size="10.00" fill="blue"> &#160;&#160;&#160;&#160;&#160;&#160;WPARM = F2;</text>
<text text-anchor="start" x="965.31" y="-987.25" font-family="Courier New" font-size="10.00" fill="blue"> &#160;&#160;&#160;}</text>
<text text-anchor="start" x="965.31" y="-974.5" font-family="Courier New" font-size="10.00" fill="blue"> &#160;}</text>
<text text-anchor="start" x="965.31" y="-961.75" font-family="Courier New" font-size="10.00" fill="blue"> &#160;if(OSEX == 0){</text>
<text text-anchor="start" x="965.31" y="-949" font-family="Courier New" font-size="10.00" fill="blue"> &#160;&#160;&#160;WPARM = M1;</text>
<text text-anchor="start" x="965.31" y="-936.25" font-family="Courier New" font-size="10.00" fill="blue"> &#160;&#160;&#160;&#160;&#160;if(OWISDOM &gt;= 30){</text>
<text text-anchor="start" x="965.31" y="-923.5" font-family="Courier New" font-size="10.00" fill="blue"> &#160;&#160;&#160;&#160;&#160;&#160;WPARM = M3;</text>
<text text-anchor="start" x="965.31" y="-910.75" font-family="Courier New" font-size="10.00" fill="blue"> &#160;&#160;&#160;}</text>
<text text-anchor="start" x="965.31" y="-898" font-family="Courier New" font-size="10.00" fill="blue"> &#160;&#160;&#160;if(OWISDOM &gt;= 20 &amp;&amp; OWISDOM &lt; 30){</text>
<text text-anchor="start" x="965.31" y="-885.25" font-family="Courier New" font-size="10.00" fill="blue"> &#160;&#160;&#160;&#160;&#160;&#160;&#160;WPARM = M2;</text>
<text text-anchor="start" x="965.31" y="-872.5" font-family="Courier New" font-size="10.00" fill="blue"> &#160;&#160;&#160;}</text>
<text text-anchor="start" x="965.31" y="-859.75" font-family="Courier New" font-size="10.00" fill="blue"> &#160;}; </text>
<polygon fill="none" stroke="black" points="959.31,-850.5 959.31,-1112.75 1205.31,-1112.75 1205.31,-850.5 959.31,-850.5"/>
</g>
<!-- 100 -->
<g id="node4" class="node">
<title>100</title>
<polyline fill="none" stroke="darkred" points="300.94,-423.62 331.69,-423.62"/>
<text text-anchor="start" x="303.94" y="-430.82" font-family="Courier New" font-weight="bold" font-size="14.00">100</text>
<path fill="none" stroke="darkred" d="M307.44,-420.62C307.44,-420.62 325.19,-420.62 325.19,-420.62 329.94,-420.62 334.69,-425.38 334.69,-430.12 334.69,-430.12 334.69,-439.62 334.69,-439.62 334.69,-444.38 329.94,-449.12 325.19,-449.12 325.19,-449.12 307.44,-449.12 307.44,-449.12 302.69,-449.12 297.94,-444.38 297.94,-439.62 297.94,-439.62 297.94,-430.12 297.94,-430.12 297.94,-425.38 302.69,-420.62 307.44,-420.62"/>
</g>
<!-- empty -->
<g id="node5" class="node">
<title>empty</title>
<polyline fill="none" stroke="darkred" points="566.69,-226.5 613.94,-226.5"/>
<text text-anchor="start" x="569.69" y="-233.7" font-family="Courier New" font-weight="bold" font-size="14.00">empty</text>
<path fill="none" stroke="darkred" d="M573.19,-223.5C573.19,-223.5 607.44,-223.5 607.44,-223.5 612.19,-223.5 616.94,-228.25 616.94,-233 616.94,-233 616.94,-242.5 616.94,-242.5 616.94,-247.25 612.19,-252 607.44,-252 607.44,-252 573.19,-252 573.19,-252 568.44,-252 563.69,-247.25 563.69,-242.5 563.69,-242.5 563.69,-233 563.69,-233 563.69,-228.25 568.44,-223.5 573.19,-223.5"/>
</g>
<!-- 100&#45;&gt;empty -->
<g id="edge2" class="edge">
<title>100&#45;&gt;empty</title>
<path fill="none" stroke="black" d="M307.02,-416.77C292.27,-387.06 268.28,-325.77 300.31,-291.25 318.58,-271.57 516.04,-282.31 541.31,-273.25 548.55,-270.66 555.7,-266.69 562.2,-262.35"/>
<polygon fill="black" stroke="black" points="563.91,-265.43 569.97,-256.73 559.81,-259.75 563.91,-265.43"/>
<polygon fill="none" stroke="black" points="303.31,-327.75 303.31,-346.5 471.31,-346.5 471.31,-327.75 303.31,-327.75"/>
<text text-anchor="start" x="351.31" y="-335" font-family="Courier New" font-weight="bold" font-size="10.00" fill="blue">Z_EPSILON(,)</text>
<polygon fill="none" stroke="black" points="303.31,-294.25 303.31,-325.75 471.31,-325.75 471.31,-294.25 303.31,-294.25"/>
<text text-anchor="start" x="306.31" y="-313.25" font-family="Courier New" font-size="10.00" fill="blue"> &#160;&#160;&#160;SHOW(0);</text>
<text text-anchor="start" x="306.31" y="-300.5" font-family="Courier New" font-size="10.00" fill="blue"> &#160;&#160;&#160;SIGNAL(WIP4,SIG_CLEAR);</text>
<polygon fill="none" stroke="black" points="300.31,-291.25 300.31,-349.5 474.31,-349.5 474.31,-291.25 300.31,-291.25"/>
</g>
<!-- sitting -->
<g id="node20" class="node">
<title>sitting</title>
<polyline fill="none" stroke="darkred" stroke-width="3" points="1029.94,-569.5 1094.69,-569.5"/>
<text text-anchor="start" x="1033.44" y="-577.2" font-family="Courier New" font-weight="bold" font-size="14.00">sitting</text>
<path fill="none" stroke="darkred" stroke-width="3" d="M1036.11,-564.5C1036.11,-564.5 1088.52,-564.5 1088.52,-564.5 1094.11,-564.5 1099.69,-570.08 1099.69,-575.67 1099.69,-575.67 1099.69,-586.83 1099.69,-586.83 1099.69,-592.42 1094.11,-598 1088.52,-598 1088.52,-598 1036.11,-598 1036.11,-598 1030.52,-598 1024.94,-592.42 1024.94,-586.83 1024.94,-586.83 1024.94,-575.67 1024.94,-575.67 1024.94,-570.08 1030.52,-564.5 1036.11,-564.5"/>
</g>
<!-- empty&#45;&gt;sitting -->
<g id="edge14" class="edge">
<title>empty&#45;&gt;sitting</title>
<path fill="none" stroke="black" d="M576.22,-255.94C541.24,-300.76 457.37,-423.24 515.31,-502.25 549.21,-548.47 582.13,-529.68 638.31,-541 767.44,-567.01 922.22,-575.83 1004.39,-578.78"/>
<polygon fill="black" stroke="black" points="1004.11,-582.28 1014.22,-579.12 1004.34,-575.28 1004.11,-582.28"/>
<text text-anchor="start" x="519.31" y="-432.75" font-family="Courier New" font-weight="bold" font-size="10.00" fill="orange">WAIT(,SIG_SHOW)</text>
</g>
<!-- 20 -->
<g id="node6" class="node">
<title>20</title>
<polyline fill="none" stroke="darkred" points="861.06,-309.12 883.56,-309.12"/>
<text text-anchor="start" x="864.06" y="-316.32" font-family="Courier New" font-weight="bold" font-size="14.00">20</text>
<path fill="none" stroke="darkred" d="M867.56,-306.12C867.56,-306.12 877.06,-306.12 877.06,-306.12 881.81,-306.12 886.56,-310.88 886.56,-315.62 886.56,-315.62 886.56,-325.12 886.56,-325.12 886.56,-329.88 881.81,-334.62 877.06,-334.62 877.06,-334.62 867.56,-334.62 867.56,-334.62 862.81,-334.62 858.06,-329.88 858.06,-325.12 858.06,-325.12 858.06,-315.62 858.06,-315.62 858.06,-310.88 862.81,-306.12 867.56,-306.12"/>
</g>
<!-- playForward -->
<g id="node7" class="node">
<title>playForward</title>
<polyline fill="none" stroke="darkred" points="1256.94,-7 1353.69,-7"/>
<text text-anchor="start" x="1259.94" y="-14.2" font-family="Courier New" font-weight="bold" font-size="14.00">playForward</text>
<path fill="none" stroke="darkred" d="M1263.44,-4C1263.44,-4 1347.19,-4 1347.19,-4 1351.94,-4 1356.69,-8.75 1356.69,-13.5 1356.69,-13.5 1356.69,-23 1356.69,-23 1356.69,-27.75 1351.94,-32.5 1347.19,-32.5 1347.19,-32.5 1263.44,-32.5 1263.44,-32.5 1258.69,-32.5 1253.94,-27.75 1253.94,-23 1253.94,-23 1253.94,-13.5 1253.94,-13.5 1253.94,-8.75 1258.69,-4 1263.44,-4"/>
</g>
<!-- 20&#45;&gt;playForward -->
<g id="edge3" class="edge">
<title>20&#45;&gt;playForward</title>
<path fill="none" stroke="black" d="M871.54,-302.26C870.95,-268.26 874.58,-191.66 915.31,-147.75 998.95,-57.6 1146.96,-30.59 1234.61,-22.57"/>
<polygon fill="black" stroke="black" points="1234.86,-26.06 1244.53,-21.73 1234.27,-19.09 1234.86,-26.06"/>
<text text-anchor="start" x="919.31" y="-163.88" font-family="Courier New" font-weight="bold" font-size="10.00" fill="blue">ASSIGN(WSPRITE,happy)</text>
</g>
<!-- playForward&#45;&gt;sitting -->
<g id="edge16" class="edge">
<title>playForward&#45;&gt;sitting</title>
<path fill="none" stroke="black" d="M1246.04,-21.15C1020.89,-28.77 231.31,-59.16 231.31,-110.5 231.31,-435.88 231.31,-435.88 231.31,-435.88 231.31,-503.18 276.3,-520.22 340.31,-541 463.37,-580.95 856.36,-582.01 1004.8,-580.91"/>
<polygon fill="black" stroke="black" points="1004.41,-584.41 1014.38,-580.83 1004.36,-577.41 1004.41,-584.41"/>
<polygon fill="none" stroke="black" points="234.31,-251.5 234.31,-270.25 534.31,-270.25 534.31,-251.5 234.31,-251.5"/>
<text text-anchor="start" x="336.31" y="-258.75" font-family="Courier New" font-weight="bold" font-size="10.00" fill="blue">ASSIGN(BFRAME,0)</text>
<polygon fill="none" stroke="black" points="234.31,-205.25 234.31,-249.5 534.31,-249.5 534.31,-205.25 234.31,-205.25"/>
<text text-anchor="start" x="237.31" y="-237" font-family="Courier New" font-size="10.00" fill="blue"> &#160;&#160;&#160;MAP(WSPRITE,WPARM);</text>
<text text-anchor="start" x="237.31" y="-224.25" font-family="Courier New" font-size="10.00" fill="blue"> &#160;&#160;&#160;SHOW(WSPRITE);</text>
<text text-anchor="start" x="237.31" y="-211.5" font-family="Courier New" font-size="10.00" fill="blue"> &#160;&#160;&#160;ANIMATE(0,V_REWIND); //PLAY FORWARD THEN BACK</text>
<polygon fill="none" stroke="black" points="231.31,-202.25 231.31,-273.25 537.31,-273.25 537.31,-202.25 231.31,-202.25"/>
</g>
<!-- 21 -->
<g id="node8" class="node">
<title>21</title>
<polyline fill="none" stroke="darkred" points="1378.06,-100.25 1400.56,-100.25"/>
<text text-anchor="start" x="1381.06" y="-107.45" font-family="Courier New" font-weight="bold" font-size="14.00">21</text>
<path fill="none" stroke="darkred" d="M1384.56,-97.25C1384.56,-97.25 1394.06,-97.25 1394.06,-97.25 1398.81,-97.25 1403.56,-102 1403.56,-106.75 1403.56,-106.75 1403.56,-116.25 1403.56,-116.25 1403.56,-121 1398.81,-125.75 1394.06,-125.75 1394.06,-125.75 1384.56,-125.75 1384.56,-125.75 1379.81,-125.75 1375.06,-121 1375.06,-116.25 1375.06,-116.25 1375.06,-106.75 1375.06,-106.75 1375.06,-102 1379.81,-97.25 1384.56,-97.25"/>
</g>
<!-- 21&#45;&gt;playForward -->
<g id="edge4" class="edge">
<title>21&#45;&gt;playForward</title>
<path fill="none" stroke="black" d="M1373.51,-93.34C1360.84,-79.57 1342.87,-60.05 1328.56,-44.5"/>
<polygon fill="black" stroke="black" points="1331.42,-42.44 1322.07,-37.45 1326.27,-47.18 1331.42,-42.44"/>
<text text-anchor="start" x="1358.31" y="-62.75" font-family="Courier New" font-weight="bold" font-size="10.00" fill="blue">ASSIGN(WSPRITE,hurt)</text>
</g>
<!-- 22 -->
<g id="node9" class="node">
<title>22</title>
<polyline fill="none" stroke="darkred" points="806.06,-423.62 828.56,-423.62"/>
<text text-anchor="start" x="809.06" y="-430.82" font-family="Courier New" font-weight="bold" font-size="14.00">22</text>
<path fill="none" stroke="darkred" d="M812.56,-420.62C812.56,-420.62 822.06,-420.62 822.06,-420.62 826.81,-420.62 831.56,-425.38 831.56,-430.12 831.56,-430.12 831.56,-439.62 831.56,-439.62 831.56,-444.38 826.81,-449.12 822.06,-449.12 822.06,-449.12 812.56,-449.12 812.56,-449.12 807.81,-449.12 803.06,-444.38 803.06,-439.62 803.06,-439.62 803.06,-430.12 803.06,-430.12 803.06,-425.38 807.81,-420.62 812.56,-420.62"/>
</g>
<!-- playOnce -->
<g id="node10" class="node">
<title>playOnce</title>
<polyline fill="none" stroke="darkred" points="658.31,-226.5 730.31,-226.5"/>
<text text-anchor="start" x="661.31" y="-233.7" font-family="Courier New" font-weight="bold" font-size="14.00">playOnce</text>
<path fill="none" stroke="darkred" d="M664.81,-223.5C664.81,-223.5 723.81,-223.5 723.81,-223.5 728.56,-223.5 733.31,-228.25 733.31,-233 733.31,-233 733.31,-242.5 733.31,-242.5 733.31,-247.25 728.56,-252 723.81,-252 723.81,-252 664.81,-252 664.81,-252 660.06,-252 655.31,-247.25 655.31,-242.5 655.31,-242.5 655.31,-233 655.31,-233 655.31,-228.25 660.06,-223.5 664.81,-223.5"/>
</g>
<!-- 22&#45;&gt;playOnce -->
<g id="edge5" class="edge">
<title>22&#45;&gt;playOnce</title>
<path fill="none" stroke="black" d="M811.08,-416.87C804.65,-401.7 793.18,-380.01 776.31,-367.5 751.2,-348.88 728.9,-373.03 708.31,-349.5 688.68,-327.06 687.59,-291.6 689.84,-266.87"/>
<polygon fill="black" stroke="black" points="693.29,-267.54 690.98,-257.2 686.34,-266.72 693.29,-267.54"/>
<text text-anchor="start" x="712.31" y="-318.25" font-family="Courier New" font-weight="bold" font-size="10.00" fill="blue">ASSIGN(WSPRITE,kiss)</text>
</g>
<!-- playOnce&#45;&gt;sitting -->
<g id="edge17" class="edge">
<title>playOnce&#45;&gt;sitting</title>
<path fill="none" stroke="black" d="M682.55,-255.96C654.48,-299.35 588.98,-415.88 631.31,-502.25 643.69,-527.5 655.22,-530.55 681.31,-541 738.51,-563.91 912.56,-574.22 1004.31,-578.17"/>
<polygon fill="black" stroke="black" points="1003.96,-581.65 1014.1,-578.57 1004.26,-574.66 1003.96,-581.65"/>
<polygon fill="none" stroke="black" points="634.31,-448.62 634.31,-467.38 778.31,-467.38 778.31,-448.62 634.31,-448.62"/>
<text text-anchor="start" x="658.31" y="-455.88" font-family="Courier New" font-weight="bold" font-size="10.00" fill="blue">ASSIGN(BFRAME,0)</text>
<polygon fill="none" stroke="black" points="634.31,-402.38 634.31,-446.62 778.31,-446.62 778.31,-402.38 634.31,-402.38"/>
<text text-anchor="start" x="637.31" y="-434.12" font-family="Courier New" font-size="10.00" fill="blue"> &#160;&#160;&#160;MAP(WSPRITE,WPARM);</text>
<text text-anchor="start" x="637.31" y="-421.38" font-family="Courier New" font-size="10.00" fill="blue"> &#160;&#160;&#160;SHOW(0,WSPRITE);</text>
<text text-anchor="start" x="637.31" y="-408.62" font-family="Courier New" font-size="10.00" fill="blue"> &#160;&#160;&#160;ANIMATE(0,0);</text>
<polygon fill="none" stroke="black" points="631.31,-399.38 631.31,-470.38 781.31,-470.38 781.31,-399.38 631.31,-399.38"/>
</g>
<!-- 23 -->
<g id="node11" class="node">
<title>23</title>
<polyline fill="none" stroke="darkred" points="920.06,-309.12 942.56,-309.12"/>
<text text-anchor="start" x="923.06" y="-316.32" font-family="Courier New" font-weight="bold" font-size="14.00">23</text>
<path fill="none" stroke="darkred" d="M926.56,-306.12C926.56,-306.12 936.06,-306.12 936.06,-306.12 940.81,-306.12 945.56,-310.88 945.56,-315.62 945.56,-315.62 945.56,-325.12 945.56,-325.12 945.56,-329.88 940.81,-334.62 936.06,-334.62 936.06,-334.62 926.56,-334.62 926.56,-334.62 921.81,-334.62 917.06,-329.88 917.06,-325.12 917.06,-325.12 917.06,-315.62 917.06,-315.62 917.06,-310.88 921.81,-306.12 926.56,-306.12"/>
</g>
<!-- 23&#45;&gt;playForward -->
<g id="edge6" class="edge">
<title>23&#45;&gt;playForward</title>
<path fill="none" stroke="black" d="M944.88,-302.5C971.33,-270.21 1032.55,-198.36 1093.31,-147.75 1151.9,-98.95 1171.39,-92.81 1237.31,-54.5 1244.75,-50.18 1252.77,-45.79 1260.6,-41.65"/>
<polygon fill="black" stroke="black" points="1262.13,-44.8 1269.38,-37.07 1258.89,-38.59 1262.13,-44.8"/>
<text text-anchor="start" x="1097.31" y="-163.88" font-family="Courier New" font-weight="bold" font-size="10.00" fill="blue">ASSIGN(WSPRITE,mad)</text>
</g>
<!-- 24 -->
<g id="node12" class="node">
<title>24</title>
<polyline fill="none" stroke="darkred" points="1240.06,-154.75 1262.56,-154.75"/>
<text text-anchor="start" x="1243.06" y="-161.95" font-family="Courier New" font-weight="bold" font-size="14.00">24</text>
<path fill="none" stroke="darkred" d="M1246.56,-151.75C1246.56,-151.75 1256.06,-151.75 1256.06,-151.75 1260.81,-151.75 1265.56,-156.5 1265.56,-161.25 1265.56,-161.25 1265.56,-170.75 1265.56,-170.75 1265.56,-175.5 1260.81,-180.25 1256.06,-180.25 1256.06,-180.25 1246.56,-180.25 1246.56,-180.25 1241.81,-180.25 1237.06,-175.5 1237.06,-170.75 1237.06,-170.75 1237.06,-161.25 1237.06,-161.25 1237.06,-156.5 1241.81,-151.75 1246.56,-151.75"/>
</g>
<!-- 24&#45;&gt;playForward -->
<g id="edge7" class="edge">
<title>24&#45;&gt;playForward</title>
<path fill="none" stroke="black" d="M1239.24,-147.84C1236.01,-142.32 1232.97,-136.01 1231.31,-129.75 1227.17,-114.06 1225.11,-108.24 1231.31,-93.25 1239.51,-73.47 1255.85,-56.21 1271.09,-43.35"/>
<polygon fill="black" stroke="black" points="1273.08,-46.24 1278.69,-37.25 1268.7,-40.78 1273.08,-46.24"/>
<text text-anchor="start" x="1235.31" y="-109.38" font-family="Courier New" font-weight="bold" font-size="10.00" fill="blue">ASSIGN(WSPRITE,sad)</text>
</g>
<!-- 25 -->
<g id="node13" class="node">
<title>25</title>
<polyline fill="none" stroke="darkred" points="1638.06,-309.12 1660.56,-309.12"/>
<text text-anchor="start" x="1641.06" y="-316.32" font-family="Courier New" font-weight="bold" font-size="14.00">25</text>
<path fill="none" stroke="darkred" d="M1644.56,-306.12C1644.56,-306.12 1654.06,-306.12 1654.06,-306.12 1658.81,-306.12 1663.56,-310.88 1663.56,-315.62 1663.56,-315.62 1663.56,-325.12 1663.56,-325.12 1663.56,-329.88 1658.81,-334.62 1654.06,-334.62 1654.06,-334.62 1644.56,-334.62 1644.56,-334.62 1639.81,-334.62 1635.06,-329.88 1635.06,-325.12 1635.06,-325.12 1635.06,-315.62 1635.06,-315.62 1635.06,-310.88 1639.81,-306.12 1644.56,-306.12"/>
</g>
<!-- 25&#45;&gt;playForward -->
<g id="edge8" class="edge">
<title>25&#45;&gt;playForward</title>
<path fill="none" stroke="black" d="M1638.05,-302.19C1621.57,-276.81 1590.27,-227.63 1566.31,-184.25 1533.57,-124.94 1542.68,-92.09 1486.31,-54.5 1453.87,-32.86 1411.32,-23.83 1375.63,-20.32"/>
<polygon fill="black" stroke="black" points="1376.07,-16.84 1365.81,-19.49 1375.48,-23.82 1376.07,-16.84"/>
<text text-anchor="start" x="1570.31" y="-163.88" font-family="Courier New" font-weight="bold" font-size="10.00" fill="blue">ASSIGN(WSPRITE,surprised)</text>
</g>
<!-- 26 -->
<g id="node14" class="node">
<title>26</title>
<polyline fill="none" stroke="darkred" points="1749.06,-154.75 1771.56,-154.75"/>
<text text-anchor="start" x="1752.06" y="-161.95" font-family="Courier New" font-weight="bold" font-size="14.00">26</text>
<path fill="none" stroke="darkred" d="M1755.56,-151.75C1755.56,-151.75 1765.06,-151.75 1765.06,-151.75 1769.81,-151.75 1774.56,-156.5 1774.56,-161.25 1774.56,-161.25 1774.56,-170.75 1774.56,-170.75 1774.56,-175.5 1769.81,-180.25 1765.06,-180.25 1765.06,-180.25 1755.56,-180.25 1755.56,-180.25 1750.81,-180.25 1746.06,-175.5 1746.06,-170.75 1746.06,-170.75 1746.06,-161.25 1746.06,-161.25 1746.06,-156.5 1750.81,-151.75 1755.56,-151.75"/>
</g>
<!-- 26&#45;&gt;playForward -->
<g id="edge9" class="edge">
<title>26&#45;&gt;playForward</title>
<path fill="none" stroke="black" d="M1733.48,-149.48C1732.09,-148.86 1730.69,-148.28 1729.31,-147.75 1695.69,-134.87 1681.25,-148.18 1650.31,-129.75 1612.1,-106.98 1623.6,-75.37 1584.31,-54.5 1549.34,-35.93 1446.66,-26.74 1376.13,-22.5"/>
<polygon fill="black" stroke="black" points="1376.36,-19.01 1366.17,-21.92 1375.96,-25.99 1376.36,-19.01"/>
<text text-anchor="start" x="1654.31" y="-109.38" font-family="Courier New" font-weight="bold" font-size="10.00" fill="blue">ASSIGN(WSPRITE,stress)</text>
</g>
<!-- 27 -->
<g id="node15" class="node">
<title>27</title>
<polyline fill="none" stroke="darkred" points="1815.06,-100.25 1837.56,-100.25"/>
<text text-anchor="start" x="1818.06" y="-107.45" font-family="Courier New" font-weight="bold" font-size="14.00">27</text>
<path fill="none" stroke="darkred" d="M1821.56,-97.25C1821.56,-97.25 1831.06,-97.25 1831.06,-97.25 1835.81,-97.25 1840.56,-102 1840.56,-106.75 1840.56,-106.75 1840.56,-116.25 1840.56,-116.25 1840.56,-121 1835.81,-125.75 1831.06,-125.75 1831.06,-125.75 1821.56,-125.75 1821.56,-125.75 1816.81,-125.75 1812.06,-121 1812.06,-116.25 1812.06,-116.25 1812.06,-106.75 1812.06,-106.75 1812.06,-102 1816.81,-97.25 1821.56,-97.25"/>
</g>
<!-- 27&#45;&gt;playForward -->
<g id="edge10" class="edge">
<title>27&#45;&gt;playForward</title>
<path fill="none" stroke="black" d="M1799.49,-100.12C1764.89,-87.19 1702.57,-65.48 1647.31,-54.5 1554.42,-36.04 1445.3,-26.92 1375.75,-22.66"/>
<polygon fill="black" stroke="black" points="1376.22,-19.18 1366.03,-22.08 1375.8,-26.16 1376.22,-19.18"/>
<text text-anchor="start" x="1730.31" y="-62.75" font-family="Courier New" font-weight="bold" font-size="10.00" fill="blue">ASSIGN(WSPRITE,wave)</text>
</g>
<!-- 30 -->
<g id="node16" class="node">
<title>30</title>
<polyline fill="none" stroke="darkred" points="1205.06,-423.62 1227.56,-423.62"/>
<text text-anchor="start" x="1208.06" y="-430.82" font-family="Courier New" font-weight="bold" font-size="14.00">30</text>
<path fill="none" stroke="darkred" d="M1211.56,-420.62C1211.56,-420.62 1221.06,-420.62 1221.06,-420.62 1225.81,-420.62 1230.56,-425.38 1230.56,-430.12 1230.56,-430.12 1230.56,-439.62 1230.56,-439.62 1230.56,-444.38 1225.81,-449.12 1221.06,-449.12 1221.06,-449.12 1211.56,-449.12 1211.56,-449.12 1206.81,-449.12 1202.06,-444.38 1202.06,-439.62 1202.06,-439.62 1202.06,-430.12 1202.06,-430.12 1202.06,-425.38 1206.81,-420.62 1211.56,-420.62"/>
</g>
<!-- playDead -->
<g id="node17" class="node">
<title>playDead</title>
<polyline fill="none" stroke="darkred" points="1088.31,-226.5 1160.31,-226.5"/>
<text text-anchor="start" x="1091.31" y="-233.7" font-family="Courier New" font-weight="bold" font-size="14.00">playDead</text>
<path fill="none" stroke="darkred" d="M1094.81,-223.5C1094.81,-223.5 1153.81,-223.5 1153.81,-223.5 1158.56,-223.5 1163.31,-228.25 1163.31,-233 1163.31,-233 1163.31,-242.5 1163.31,-242.5 1163.31,-247.25 1158.56,-252 1153.81,-252 1153.81,-252 1094.81,-252 1094.81,-252 1090.06,-252 1085.31,-247.25 1085.31,-242.5 1085.31,-242.5 1085.31,-233 1085.31,-233 1085.31,-228.25 1090.06,-223.5 1094.81,-223.5"/>
</g>
<!-- 30&#45;&gt;playDead -->
<g id="edge11" class="edge">
<title>30&#45;&gt;playDead</title>
<path fill="none" stroke="black" d="M1209.11,-416.71C1202.23,-402.05 1190.66,-381.23 1175.31,-367.5 1161.39,-355.04 1148.21,-364.68 1137.31,-349.5 1120.22,-325.69 1118.8,-291.3 1120.49,-267.18"/>
<polygon fill="black" stroke="black" points="1123.96,-267.72 1121.41,-257.44 1116.99,-267.06 1123.96,-267.72"/>
<text text-anchor="start" x="1141.31" y="-318.25" font-family="Courier New" font-weight="bold" font-size="10.00" fill="blue">ASSIGN(WSPRITE,dead)</text>
</g>
<!-- playDead&#45;&gt;sitting -->
<g id="edge15" class="edge">
<title>playDead&#45;&gt;sitting</title>
<path fill="none" stroke="black" d="M1093.54,-255.81C1059.04,-276.91 1004.97,-316.39 982.31,-367.5 958.05,-422.25 945.96,-454.66 982.31,-502.25 1000.77,-526.41 1027.22,-498.36 1048.31,-520.25 1055.41,-527.61 1059.16,-537.84 1061.07,-547.77"/>
<polygon fill="black" stroke="black" points="1057.59,-548.14 1062.36,-557.6 1064.53,-547.23 1057.59,-548.14"/>
<polygon fill="none" stroke="black" points="985.31,-480.5 985.31,-499.25 1177.31,-499.25 1177.31,-480.5 985.31,-480.5"/>
<text text-anchor="start" x="1033.31" y="-487.75" font-family="Courier New" font-weight="bold" font-size="10.00" fill="blue">ASSIGN(BFRAME,0)</text>
<polygon fill="none" stroke="black" points="985.31,-370.5 985.31,-478.5 1177.31,-478.5 1177.31,-370.5 985.31,-370.5"/>
<text text-anchor="start" x="988.31" y="-466" font-family="Courier New" font-size="10.00" fill="blue"> &#160;&#160;&#160;MAP(WSPRITE,WPARM);</text>
<text text-anchor="start" x="988.31" y="-453.25" font-family="Courier New" font-size="10.00" fill="blue"> &#160;&#160;&#160;SHOW(0,WSPRITE);</text>
<text text-anchor="start" x="988.31" y="-440.5" font-family="Courier New" font-size="10.00" fill="blue"> &#160;&#160;&#160;VIDEO(0,WSPRITE);</text>
<text text-anchor="start" x="988.31" y="-427.75" font-family="Courier New" font-size="10.00" fill="blue"> &#160;&#160;&#160;ANIMATE(0,0);</text>
<text text-anchor="start" x="988.31" y="-415" font-family="Courier New" font-size="10.00" fill="blue"> &#160;&#160;&#160;ASSIGN(OENERGY,1);</text>
<text text-anchor="start" x="988.31" y="-402.25" font-family="Courier New" font-size="10.00" fill="blue"> &#160;&#160;&#160;ASSIGN(OWEALTH,0);</text>
<text text-anchor="start" x="988.31" y="-389.5" font-family="Courier New" font-size="10.00" fill="blue"> &#160;&#160;&#160;SIGNAL(SMP_VIAL,SIG_DRAIN);</text>
<text text-anchor="start" x="988.31" y="-376.75" font-family="Courier New" font-size="10.00" fill="blue"> &#160;&#160;&#160;LOADVIEW(IDV_VIL8);</text>
<polygon fill="none" stroke="black" points="982.31,-367.5 982.31,-502.25 1180.31,-502.25 1180.31,-367.5 982.31,-367.5"/>
</g>
<!-- 50 -->
<g id="node18" class="node">
<title>50</title>
<polyline fill="none" stroke="darkred" points="1460.06,-423.62 1482.56,-423.62"/>
<text text-anchor="start" x="1463.06" y="-430.82" font-family="Courier New" font-weight="bold" font-size="14.00">50</text>
<path fill="none" stroke="darkred" d="M1466.56,-420.62C1466.56,-420.62 1476.06,-420.62 1476.06,-420.62 1480.81,-420.62 1485.56,-425.38 1485.56,-430.12 1485.56,-430.12 1485.56,-439.62 1485.56,-439.62 1485.56,-444.38 1480.81,-449.12 1476.06,-449.12 1476.06,-449.12 1466.56,-449.12 1466.56,-449.12 1461.81,-449.12 1457.06,-444.38 1457.06,-439.62 1457.06,-439.62 1457.06,-430.12 1457.06,-430.12 1457.06,-425.38 1461.81,-420.62 1466.56,-420.62"/>
</g>
<!-- 51 -->
<g id="node19" class="node">
<title>51</title>
<polyline fill="none" stroke="darkred" points="1436.06,-226.5 1458.56,-226.5"/>
<text text-anchor="start" x="1439.06" y="-233.7" font-family="Courier New" font-weight="bold" font-size="14.00">51</text>
<path fill="none" stroke="darkred" d="M1442.56,-223.5C1442.56,-223.5 1452.06,-223.5 1452.06,-223.5 1456.81,-223.5 1461.56,-228.25 1461.56,-233 1461.56,-233 1461.56,-242.5 1461.56,-242.5 1461.56,-247.25 1456.81,-252 1452.06,-252 1452.06,-252 1442.56,-252 1442.56,-252 1437.81,-252 1433.06,-247.25 1433.06,-242.5 1433.06,-242.5 1433.06,-233 1433.06,-233 1433.06,-228.25 1437.81,-223.5 1442.56,-223.5"/>
</g>
<!-- 50&#45;&gt;51 -->
<g id="edge12" class="edge">
<title>50&#45;&gt;51</title>
<path fill="none" stroke="black" d="M1471.16,-416.63C1470.69,-389.68 1468.79,-336.06 1461.31,-291.25 1459.96,-283.12 1457.9,-274.43 1455.77,-266.5"/>
<polygon fill="black" stroke="black" points="1459.19,-265.72 1453.1,-257.05 1452.45,-267.63 1459.19,-265.72"/>
<text text-anchor="start" x="1471.31" y="-318.25" font-family="Courier New" font-weight="bold" font-size="10.00" fill="blue">VIDEO(0,IDS_EXPLODE1)</text>
</g>
<!-- 51&#45;&gt;21 -->
<g id="edge13" class="edge">
<title>51&#45;&gt;21</title>
<path fill="none" stroke="black" d="M1420.53,-219.6C1408.98,-210.61 1396.68,-198.5 1390.31,-184.25 1384.3,-170.79 1383.63,-154.44 1384.65,-140.75"/>
<polygon fill="black" stroke="black" points="1388.11,-141.38 1385.73,-131.05 1381.15,-140.61 1388.11,-141.38"/>
<text text-anchor="start" x="1394.31" y="-163.88" font-family="Courier New" font-weight="bold" font-size="10.00" fill="blue">PLAYWAVE(0,SOUND_EXPLODE)</text>
</g>
<!-- sitting&#45;&gt;0 -->
<g id="edge32" class="edge">
<title>sitting&#45;&gt;0</title>
<path fill="none" stroke="black" d="M1109.05,-588.12C1148.5,-594.15 1200.56,-605 1213.31,-621.5 1399.76,-862.6 1424.7,-1087.69 1213.31,-1307.25 1176.76,-1345.22 787.18,-1303.2 739.31,-1325.25 732.61,-1328.34 726.58,-1333.31 721.46,-1338.68"/>
<polygon fill="black" stroke="black" points="718.97,-1336.2 715.17,-1346.09 724.31,-1340.73 718.97,-1336.2"/>
<text text-anchor="start" x="1366.31" y="-979.5" font-family="Courier New" font-weight="bold" font-size="10.00" fill="orange">WAIT(0,0)</text>
</g>
<!-- sitting&#45;&gt;present -->
<g id="edge20" class="edge">
<title>sitting&#45;&gt;present</title>
<path fill="none" stroke="black" d="M1015.72,-584.52C824,-594.33 103.11,-635.96 37.31,-710.5 -73.49,-836.03 92.9,-1049.17 156.94,-1122.4"/>
<polygon fill="black" stroke="black" points="154.32,-1124.72 163.57,-1129.88 159.56,-1120.07 154.32,-1124.72"/>
<polygon fill="none" stroke="black" points="40.31,-810.75 40.31,-829.5 1066.31,-829.5 1066.31,-810.75 40.31,-810.75"/>
<text text-anchor="start" x="508.31" y="-818" font-family="Courier New" font-weight="bold" font-size="10.00" fill="orange">WAIT(,SIG_OTID)</text>
<polygon fill="none" stroke="black" points="40.31,-713.5 40.31,-808.75 1066.31,-808.75 1066.31,-713.5 40.31,-713.5"/>
<text text-anchor="start" x="43.31" y="-796.25" font-family="Courier New" font-size="10.00" fill="blue"> &#160;&#160;&#160;CLEAR(WSPRITE);</text>
<text text-anchor="start" x="43.31" y="-783.5" font-family="Courier New" font-size="10.00" fill="blue"> &#160;&#160;&#160;&#160;SHOW(0);</text>
<text text-anchor="start" x="43.31" y="-770.75" font-family="Courier New" font-size="10.00" fill="blue"> &#160;&#160;&#160;&#160;predicate otherplayer(pid,status,player,account_id,name,viewname,wealth,karma,energy,strength,wisdom,gender,culture, knowsparent, knowsvillage,knowscity);</text>
<text text-anchor="start" x="43.31" y="-758" font-family="Courier New" font-size="10.00" fill="blue"> &#160;&#160;&#160;&#160;otherplayer(?BPARM, &quot;ACTIVE&quot;, ?WPARM,?acntid,?ONAME,?OVIEW,?OWEALTH,?OKARMA,?OENERGY, ?OSTRENGTH,?OWISDOM,?OSEX,?OCULTURE,?OKNOWSPARENT,?OKNOWSVILLSAGE,?OKNOWSCITY)?</text>
<text text-anchor="start" x="43.31" y="-745.25" font-family="Courier New" font-size="10.00" fill="blue"> &#160;&#160;&#160;&#160;set_control_value(IDV_OTHERNAME, OTHN, ONAME);</text>
<text text-anchor="start" x="43.31" y="-732.5" font-family="Courier New" font-size="10.00" fill="blue"> &#160;&#160;&#160;&#160;SIGNAL(SOD_AURA,SIG_MYAURA);</text>
<text text-anchor="start" x="43.31" y="-719.75" font-family="Courier New" font-size="10.00" fill="blue"> &#160;&#160;&#160;&#160;SIGNAL(SOD_HALO, SIG_MYHALO);</text>
<polygon fill="none" stroke="black" points="37.31,-710.5 37.31,-832.5 1069.31,-832.5 1069.31,-710.5 37.31,-710.5"/>
</g>
<!-- sitting&#45;&gt;100 -->
<g id="edge31" class="edge">
<title>sitting&#45;&gt;100</title>
<path fill="none" stroke="black" d="M1015.67,-580.39C868.08,-580.44 417.84,-577.56 364.31,-541 338.69,-523.49 326.51,-488.76 320.88,-464.01"/>
<polygon fill="black" stroke="black" points="324.32,-463.38 318.91,-454.27 317.46,-464.76 324.32,-463.38"/>
<text text-anchor="start" x="368.31" y="-528.5" font-family="Courier New" font-weight="bold" font-size="10.00" fill="orange">WAIT(0,SIG_CLEAR)</text>
</g>
<!-- sitting&#45;&gt;20 -->
<g id="edge21" class="edge">
<title>sitting&#45;&gt;20</title>
<path fill="none" stroke="black" d="M1015.69,-579.44C953.48,-577.25 848.36,-569.34 824.31,-541 818.35,-533.97 819.83,-528.31 824.31,-520.25 831.69,-506.99 845.26,-515.1 853.31,-502.25 882.83,-455.18 880.74,-387.36 876.56,-349.56"/>
<polygon fill="black" stroke="black" points="880.07,-349.39 875.35,-339.91 873.12,-350.26 880.07,-349.39"/>
<text text-anchor="start" x="828.31" y="-528.5" font-family="Courier New" font-weight="bold" font-size="10.00" fill="orange">WAIT(0,SIG_HAPPY)</text>
</g>
<!-- sitting&#45;&gt;21 -->
<g id="edge22" class="edge">
<title>sitting&#45;&gt;21</title>
<path fill="none" stroke="black" d="M1108.95,-576.35C1190.44,-568.41 1353.1,-547.19 1384.31,-502.25 1418.48,-453.06 1414.2,-419.4 1384.31,-367.5 1376.37,-353.69 1361.26,-363.31 1353.31,-349.5 1340.4,-327.06 1351,-317.03 1353.31,-291.25 1359.12,-226.69 1364.67,-210.89 1379.31,-147.75 1379.85,-145.43 1380.45,-143.03 1381.07,-140.62"/>
<polygon fill="black" stroke="black" points="1384.42,-141.65 1383.69,-131.08 1377.67,-139.8 1384.42,-141.65"/>
<text text-anchor="start" x="1357.31" y="-318.25" font-family="Courier New" font-weight="bold" font-size="10.00" fill="orange">WAIT(0,SIG_HURT)</text>
</g>
<!-- sitting&#45;&gt;22 -->
<g id="edge23" class="edge">
<title>sitting&#45;&gt;22</title>
<path fill="none" stroke="black" d="M1015.55,-578.74C920.47,-575.2 711.71,-564.77 690.31,-541 684.15,-534.15 684.5,-527.41 690.31,-520.25 714.94,-489.94 744.35,-524.68 776.31,-502.25 789.87,-492.73 799.84,-477.16 806.54,-463.49"/>
<polygon fill="black" stroke="black" points="809.69,-465.02 810.61,-454.47 803.31,-462.15 809.69,-465.02"/>
<text text-anchor="start" x="694.31" y="-528.5" font-family="Courier New" font-weight="bold" font-size="10.00" fill="orange">WAIT(0,SIG_KISS)</text>
</g>
<!-- sitting&#45;&gt;23 -->
<g id="edge24" class="edge">
<title>sitting&#45;&gt;23</title>
<path fill="none" stroke="black" d="M1015.62,-575.69C992.32,-570.86 965.85,-561.02 950.31,-541 906.8,-484.94 916.36,-394.86 924.93,-349.46"/>
<polygon fill="black" stroke="black" points="928.31,-350.4 926.87,-339.9 921.45,-349.01 928.31,-350.4"/>
<text text-anchor="start" x="954.31" y="-528.5" font-family="Courier New" font-weight="bold" font-size="10.00" fill="orange">WAIT(0,SIG_MAD)</text>
</g>
<!-- sitting&#45;&gt;24 -->
<g id="edge25" class="edge">
<title>sitting&#45;&gt;24</title>
<path fill="none" stroke="black" d="M1109.01,-577.63C1161.58,-573.59 1242.18,-563.79 1261.31,-541 1304.93,-489.06 1270.73,-272.99 1256.65,-195.13"/>
<polygon fill="black" stroke="black" points="1260.1,-194.55 1254.85,-185.35 1253.22,-195.82 1260.1,-194.55"/>
<text text-anchor="start" x="1286.31" y="-432.75" font-family="Courier New" font-weight="bold" font-size="10.00" fill="orange">WAIT(0,SIG_SAD)</text>
</g>
<!-- sitting&#45;&gt;25 -->
<g id="edge26" class="edge">
<title>sitting&#45;&gt;25</title>
<path fill="none" stroke="black" d="M1109.01,-579.05C1222.86,-575.77 1508.04,-565.2 1543.31,-541 1577.3,-517.68 1620.91,-402.78 1639.84,-349.1"/>
<polygon fill="black" stroke="black" points="1643.11,-350.36 1643.1,-339.76 1636.5,-348.05 1643.11,-350.36"/>
<text text-anchor="start" x="1564.31" y="-528.5" font-family="Courier New" font-weight="bold" font-size="10.00" fill="orange">WAIT(0,SIG_SURPRISED)</text>
</g>
<!-- sitting&#45;&gt;26 -->
<g id="edge27" class="edge">
<title>sitting&#45;&gt;26</title>
<path fill="none" stroke="black" d="M1108.85,-580.65C1248.15,-581.42 1654.83,-580.23 1698.31,-541 1699.94,-539.53 1741.69,-282.17 1755.75,-195.27"/>
<polygon fill="black" stroke="black" points="1759.19,-195.89 1757.33,-185.46 1752.28,-194.77 1759.19,-195.89"/>
<text text-anchor="start" x="1731.31" y="-432.75" font-family="Courier New" font-weight="bold" font-size="10.00" fill="orange">WAIT(0,SIG_STRESS)</text>
</g>
<!-- sitting&#45;&gt;27 -->
<g id="edge28" class="edge">
<title>sitting&#45;&gt;27</title>
<path fill="none" stroke="black" d="M1108.98,-579.48C1270.77,-576.31 1800.09,-561.45 1844.31,-502.25 1927.26,-391.21 1866.12,-208.69 1838.23,-139.89"/>
<polygon fill="black" stroke="black" points="1841.56,-138.78 1834.49,-130.89 1835.09,-141.46 1841.56,-138.78"/>
<text text-anchor="start" x="1889.31" y="-318.25" font-family="Courier New" font-weight="bold" font-size="10.00" fill="orange">WAIT(0,SIG_WAVE)</text>
</g>
<!-- sitting&#45;&gt;30 -->
<g id="edge29" class="edge">
<title>sitting&#45;&gt;30</title>
<path fill="none" stroke="black" d="M1100.91,-559.13C1124.27,-545.08 1153.64,-525.06 1175.31,-502.25 1186.25,-490.74 1195.76,-475.86 1202.87,-463.11"/>
<polygon fill="black" stroke="black" points="1205.92,-464.82 1207.53,-454.35 1199.74,-461.53 1205.92,-464.82"/>
<text text-anchor="start" x="1157.31" y="-528.5" font-family="Courier New" font-weight="bold" font-size="10.00" fill="orange">WAIT(0,SIG_DEAD)</text>
</g>
<!-- sitting&#45;&gt;50 -->
<g id="edge30" class="edge">
<title>sitting&#45;&gt;50</title>
<path fill="none" stroke="black" d="M1109.1,-580.39C1193.59,-579.8 1367.44,-574.41 1416.31,-541 1442.59,-523.04 1457.19,-488.46 1464.63,-463.87"/>
<polygon fill="black" stroke="black" points="1467.92,-465.07 1467.24,-454.5 1461.18,-463.19 1467.92,-465.07"/>
<text text-anchor="start" x="1440.31" y="-528.5" font-family="Courier New" font-weight="bold" font-size="10.00" fill="orange">WAIT(0,SIG_BOMB)</text>
</g>
<!-- setId&#45;&gt;sitting -->
<g id="edge19" class="edge">
<title>setId&#45;&gt;sitting</title>
<path fill="none" stroke="black" d="M1098.24,-753.35C1086.19,-738.43 1070.2,-715.62 1063.31,-692.5 1055.76,-667.15 1056.07,-637.05 1057.96,-614.71"/>
<polygon fill="black" stroke="black" points="1061.41,-615.3 1058.94,-605 1054.45,-614.59 1061.41,-615.3"/>
<polygon fill="none" stroke="black" points="1066.31,-670.75 1066.31,-689.5 1210.31,-689.5 1210.31,-670.75 1066.31,-670.75"/>
<text text-anchor="start" x="1075.31" y="-678" font-family="Courier New" font-weight="bold" font-size="10.00" fill="blue">ASSIGN(WSPRITE,happy)</text>
<polygon fill="none" stroke="black" points="1066.31,-624.5 1066.31,-668.75 1210.31,-668.75 1210.31,-624.5 1066.31,-624.5"/>
<text text-anchor="start" x="1069.31" y="-656.25" font-family="Courier New" font-size="10.00" fill="blue"> &#160;&#160;&#160;MAP(WSPRITE,WPARM);</text>
<text text-anchor="start" x="1069.31" y="-643.5" font-family="Courier New" font-size="10.00" fill="blue"> &#160;&#160;&#160;ASSIGN(BFRAME,0);</text>
<text text-anchor="start" x="1069.31" y="-630.75" font-family="Courier New" font-size="10.00" fill="blue"> &#160;&#160;&#160;SHOW(WSPRITE);</text>
<polygon fill="none" stroke="black" points="1063.31,-621.5 1063.31,-692.5 1213.31,-692.5 1213.31,-621.5 1063.31,-621.5"/>
</g>
<!-- status -->
<g id="node22" class="node">
<title>status</title>
<polygon fill="none" stroke="black" points="748.31,-1325.75 748.31,-1404.75 1382.31,-1404.75 1382.31,-1325.75 748.31,-1325.75"/>
<polygon fill="none" stroke="black" points="759.31,-1379 759.31,-1397.75 1371.31,-1397.75 1371.31,-1379 759.31,-1379"/>
<text text-anchor="start" x="1047.31" y="-1386.25" font-family="Courier New" font-weight="bold" font-size="10.00">SOD_ID</text>
<polygon fill="none" stroke="black" points="759.31,-1332.75 759.31,-1377 1371.31,-1377 1371.31,-1332.75 759.31,-1332.75"/>
<text text-anchor="start" x="762.31" y="-1364.5" font-family="Courier New" font-size="10.00" fill="green">VIEW::IDV_OTHERID @pos(x:0, y:0, h:101, w:171)</text>
<text text-anchor="start" x="762.31" y="-1351.75" font-family="Courier New" font-size="10.00" fill="green">SOD_ID::M_OID(&#39;OWISDOM&#39;,&#39;OSEX&#39;,&#39;0&#39;,&#39;SOD_AURA&#39;,&#39;&#39;,&#39;&#39;)</text>
<text text-anchor="start" x="762.31" y="-1339" font-family="Courier New" font-size="10.00" fill="green">{state:&#39;sitting&#39;: bParm:108.82.186.169:54570 wParm:M1 wSprite:IDS_MID1HAPPY bFrame:0 Top:0 Left:0 Z:0</text>
<polygon fill="none" stroke="black" points="756.31,-1329.75 756.31,-1400.75 1374.31,-1400.75 1374.31,-1329.75 756.31,-1329.75"/>
</g>
</g>
</svg>
