<?xml version="1.0" encoding="UTF-8" standalone="no"?>
<!DOCTYPE svg PUBLIC "-//W3C//DTD SVG 1.1//EN"
 "http://www.w3.org/Graphics/SVG/1.1/DTD/svg11.dtd">
<!-- Generated by graphviz version 10.0.1 (20240210.2158)
 -->
<!-- Title: Automaton Pages: 1 -->
<svg width="1976pt" height="920pt"
 viewBox="0.00 0.00 1975.83 919.50" xmlns="http://www.w3.org/2000/svg" xmlns:xlink="http://www.w3.org/1999/xlink">
<g id="graph0" class="graph" transform="scale(1 1) rotate(0) translate(4 915.5)">
<title>Automaton</title>
<polygon fill="white" stroke="none" points="-4,4 -4,-915.5 1971.83,-915.5 1971.83,4 -4,4"/>
<!-- filename -->
<g id="node1" class="node">
<title>filename</title>
<polygon fill="none" stroke="black" points="796.83,-844.75 796.83,-898.25 956.83,-898.25 956.83,-844.75 796.83,-844.75"/>
<polygon fill="none" stroke="black" points="807.83,-872.5 807.83,-891.25 945.83,-891.25 945.83,-872.5 807.83,-872.5"/>
<text text-anchor="start" x="810.83" y="-879.75" font-family="Courier New" font-weight="bold" font-size="10.00">SOD_SPELL::M_O_IDSPELL</text>
<polygon fill="none" stroke="black" points="807.83,-851.75 807.83,-870.5 945.83,-870.5 945.83,-851.75 807.83,-851.75"/>
<text text-anchor="start" x="831.83" y="-858" font-family="Courier New" font-size="10.00" fill="brown">start state = 0</text>
<polygon fill="none" stroke="black" points="804.83,-848.75 804.83,-894.25 948.83,-894.25 948.83,-848.75 804.83,-848.75"/>
</g>
<!-- 0 -->
<g id="node2" class="node">
<title>0</title>
<polyline fill="none" stroke="darkred" stroke-width="3" points="994.21,-859.75 1009.46,-859.75"/>
<text text-anchor="start" x="997.71" y="-867.45" font-family="Courier New" font-weight="bold" font-size="14.00">0</text>
<path fill="none" stroke="darkred" stroke-width="3" d="M997.63,-854.75C997.63,-854.75 1006.04,-854.75 1006.04,-854.75 1010.25,-854.75 1014.46,-858.96 1014.46,-863.17 1014.46,-863.17 1014.46,-879.83 1014.46,-879.83 1014.46,-884.04 1010.25,-888.25 1006.04,-888.25 1006.04,-888.25 997.63,-888.25 997.63,-888.25 993.42,-888.25 989.21,-884.04 989.21,-879.83 989.21,-879.83 989.21,-863.17 989.21,-863.17 989.21,-858.96 993.42,-854.75 997.63,-854.75"/>
</g>
<!-- checkObject -->
<g id="node3" class="node">
<title>checkObject</title>
<polyline fill="none" stroke="darkred" points="877.46,-308 974.21,-308"/>
<text text-anchor="start" x="880.46" y="-315.2" font-family="Courier New" font-weight="bold" font-size="14.00">checkObject</text>
<path fill="none" stroke="darkred" d="M883.96,-305C883.96,-305 967.71,-305 967.71,-305 972.46,-305 977.21,-309.75 977.21,-314.5 977.21,-314.5 977.21,-324 977.21,-324 977.21,-328.75 972.46,-333.5 967.71,-333.5 967.71,-333.5 883.96,-333.5 883.96,-333.5 879.21,-333.5 874.46,-328.75 874.46,-324 874.46,-324 874.46,-314.5 874.46,-314.5 874.46,-309.75 879.21,-305 883.96,-305"/>
</g>
<!-- 0&#45;&gt;checkObject -->
<g id="edge1" class="edge">
<title>0&#45;&gt;checkObject</title>
<path fill="none" stroke="black" d="M987.1,-849.49C981.26,-842.69 973.99,-835.8 965.83,-831.5 916.97,-805.73 878.96,-855.3 842.83,-813.5 748.09,-703.88 806.49,-627.76 842.83,-487.5 845.13,-478.64 848.6,-477.61 852.83,-469.5 874.82,-427.37 898.75,-377.64 913.01,-347.55"/>
<polygon fill="black" stroke="black" points="916.05,-349.31 917.15,-338.77 909.72,-346.32 916.05,-349.31"/>
<polygon fill="none" stroke="black" points="845.83,-657.88 845.83,-676.62 1145.83,-676.62 1145.83,-657.88 845.83,-657.88"/>
<text text-anchor="start" x="974.83" y="-665.12" font-family="Courier New" font-weight="bold" font-size="10.00" fill="orange">DROP(,)</text>
<polygon fill="none" stroke="black" points="845.83,-624.38 845.83,-655.88 1145.83,-655.88 1145.83,-624.38 845.83,-624.38"/>
<text text-anchor="start" x="848.83" y="-643.38" font-family="Courier New" font-size="10.00" fill="blue"> &#160;&#160;&#160;CLEAR(WVIEWID);</text>
<text text-anchor="start" x="848.83" y="-630.62" font-family="Courier New" font-size="10.00" fill="blue"> &#160;&#160;&#160;WRITE(&quot;I dropped an item on another player&quot;);</text>
<polygon fill="none" stroke="black" points="842.83,-621.38 842.83,-679.62 1148.83,-679.62 1148.83,-621.38 842.83,-621.38"/>
</g>
<!-- postProcessObject -->
<g id="node4" class="node">
<title>postProcessObject</title>
<polyline fill="none" stroke="darkred" points="1540.71,-308 1686.96,-308"/>
<text text-anchor="start" x="1543.71" y="-315.2" font-family="Courier New" font-weight="bold" font-size="14.00">postProcessObject</text>
<path fill="none" stroke="darkred" d="M1547.21,-305C1547.21,-305 1680.46,-305 1680.46,-305 1685.21,-305 1689.96,-309.75 1689.96,-314.5 1689.96,-314.5 1689.96,-324 1689.96,-324 1689.96,-328.75 1685.21,-333.5 1680.46,-333.5 1680.46,-333.5 1547.21,-333.5 1547.21,-333.5 1542.46,-333.5 1537.71,-328.75 1537.71,-324 1537.71,-324 1537.71,-314.5 1537.71,-314.5 1537.71,-309.75 1542.46,-305 1547.21,-305"/>
</g>
<!-- 0&#45;&gt;postProcessObject -->
<g id="edge2" class="edge">
<title>0&#45;&gt;postProcessObject</title>
<path fill="none" stroke="black" d="M1016.53,-849.43C1022.37,-842.62 1029.66,-835.74 1037.83,-831.5 1064.9,-817.46 1152.95,-835.71 1173.83,-813.5 1223.59,-760.6 1148.52,-541.72 1196.83,-487.5 1225.72,-455.09 1251.5,-482.75 1292.83,-469.5 1398.5,-435.62 1514.79,-375.29 1574.16,-342.67"/>
<polygon fill="black" stroke="black" points="1575.5,-345.93 1582.55,-338.03 1572.11,-339.8 1575.5,-345.93"/>
<polygon fill="none" stroke="black" points="1199.83,-791.75 1199.83,-810.5 1811.83,-810.5 1811.83,-791.75 1199.83,-791.75"/>
<text text-anchor="start" x="1460.83" y="-799" font-family="Courier New" font-weight="bold" font-size="10.00" fill="orange">WAIT(,SIG_DROP)</text>
<polygon fill="none" stroke="black" points="1199.83,-490.5 1199.83,-789.75 1811.83,-789.75 1811.83,-490.5 1199.83,-490.5"/>
<text text-anchor="start" x="1202.83" y="-777.25" font-family="Courier New" font-size="10.00" fill="blue"> &#160;&#160;&#160;WRITE(&quot;M_O_IDSPELL says an item dropped... check if there is a meflin&quot;);</text>
<text text-anchor="start" x="1202.83" y="-764.5" font-family="Courier New" font-size="10.00" fill="blue"> &#160;&#160;&#160;REF_MACHINE(MEFPAN_VIEWCAP);</text>
<text text-anchor="start" x="1202.83" y="-751.75" font-family="Courier New" font-size="10.00" fill="blue"> &#160;&#160;&#160;MOV(BPARM,R_BPARM);</text>
<text text-anchor="start" x="1202.83" y="-739" font-family="Courier New" font-size="10.00" fill="blue"> &#160;&#160;&#160;if(R_BPARM == 1){ &#160;//Theres a meflin up</text>
<text text-anchor="start" x="1202.83" y="-726.25" font-family="Courier New" font-size="10.00" fill="blue"> &#160;&#160;&#160;&#160;&#160;&#160;&#160;REF_MACHINE(MEFCURRENT); //Who is it?</text>
<text text-anchor="start" x="1202.83" y="-713.5" font-family="Courier New" font-size="10.00" fill="blue"> &#160;&#160;&#160;&#160;&#160;&#160;&#160;MOV(WPARM,R_WPARM);</text>
<text text-anchor="start" x="1202.83" y="-700.75" font-family="Courier New" font-size="10.00" fill="blue"> &#160;&#160;&#160;&#160;&#160;&#160;&#160;SIGNAL(WPARM,SIG_DROP); //so the meflin mef_talk can look at the wobject</text>
<text text-anchor="start" x="1202.83" y="-688" font-family="Courier New" font-size="10.00" fill="blue"> &#160;&#160;&#160;&#160;&#160;&#160;&#160;SHOW();</text>
<text text-anchor="start" x="1202.83" y="-675.25" font-family="Courier New" font-size="10.00" fill="blue"> &#160;&#160;&#160;}</text>
<text text-anchor="start" x="1202.83" y="-662.5" font-family="Courier New" font-size="10.00" fill="blue"> &#160;&#160;if(R_BPARM == 0){</text>
<text text-anchor="start" x="1202.83" y="-649.75" font-family="Courier New" font-size="10.00" fill="blue"> &#160;&#160;&#160;&#160;&#160;&#160;&#160;REF_MACHINE(CHAR_DROPTARGET); //written in case machines overlap meflin machine is in the way</text>
<text text-anchor="start" x="1202.83" y="-637" font-family="Courier New" font-size="10.00" fill="blue"> &#160;&#160;&#160;&#160;&#160;&#160;&#160;MOV(WOBJECT,R_WOBJECT);</text>
<text text-anchor="start" x="1202.83" y="-624.25" font-family="Courier New" font-size="10.00" fill="blue"> &#160;&#160;&#160;&#160;&#160;&#160;&#160;&#160;&#160;&#160;&#160;//Deduct for all the bad or good things local player can drop </text>
<text text-anchor="start" x="1202.83" y="-611.5" font-family="Courier New" font-size="10.00" fill="blue"> &#160;&#160;&#160;&#160;&#160;&#160;&#160;&#160;&#160;&#160;&#160;&#160;&#160;&#160;&#160;ADDI(LKARMA,1); </text>
<text text-anchor="start" x="1202.83" y="-598.75" font-family="Courier New" font-size="10.00" fill="blue"> &#160;&#160;&#160;&#160;&#160;&#160;&#160;&#160;&#160;&#160;&#160;&#160;&#160;&#160;&#160;SIGNAL(SID_HALO,SIG_ADD);</text>
<text text-anchor="start" x="1202.83" y="-586" font-family="Courier New" font-size="10.00" fill="blue"> &#160;&#160;&#160;&#160;&#160;&#160;&#160;//Assuming this would create the spell over on the other player</text>
<text text-anchor="start" x="1202.83" y="-573.25" font-family="Courier New" font-size="10.00" fill="blue"> &#160;&#160;&#160;&#160;&#160;&#160;&#160;//SPELL_YOU(WOBJECT);</text>
<text text-anchor="start" x="1202.83" y="-560.5" font-family="Courier New" font-size="10.00" fill="blue"> &#160;&#160;&#160;&#160;&#160;&#160;&#160;predicate dropitem(object,id);</text>
<text text-anchor="start" x="1202.83" y="-547.75" font-family="Courier New" font-size="10.00" fill="blue"> &#160;&#160;&#160;&#160;&#160;&#160;&#160;dropitem(&quot;%&quot;)~</text>
<text text-anchor="start" x="1202.83" y="-535" font-family="Courier New" font-size="10.00" fill="blue"> &#160;&#160;&#160;&#160;&#160;&#160;&#160;dropitem(WOBJECT,&quot;id&quot;).</text>
<text text-anchor="start" x="1202.83" y="-522.25" font-family="Courier New" font-size="10.00" fill="blue"> &#160;&#160;&#160;&#160;&#160;&#160;&#160;replay(system/send_item);</text>
<text text-anchor="start" x="1202.83" y="-509.5" font-family="Courier New" font-size="10.00" fill="blue"> &#160;&#160;&#160;&#160;&#160;&#160;&#160;SHOW();</text>
<text text-anchor="start" x="1202.83" y="-496.75" font-family="Courier New" font-size="10.00" fill="blue"> &#160;&#160;&#160;} </text>
<polygon fill="none" stroke="black" points="1196.83,-487.5 1196.83,-813.5 1814.83,-813.5 1814.83,-487.5 1196.83,-487.5"/>
</g>
<!-- itsAbomb -->
<g id="node5" class="node">
<title>itsAbomb</title>
<polyline fill="none" stroke="darkred" points="160.83,-7 232.83,-7"/>
<text text-anchor="start" x="163.83" y="-14.2" font-family="Courier New" font-weight="bold" font-size="14.00">itsAbomb</text>
<path fill="none" stroke="darkred" d="M167.33,-4C167.33,-4 226.33,-4 226.33,-4 231.08,-4 235.83,-8.75 235.83,-13.5 235.83,-13.5 235.83,-23 235.83,-23 235.83,-27.75 231.08,-32.5 226.33,-32.5 226.33,-32.5 167.33,-32.5 167.33,-32.5 162.58,-32.5 157.83,-27.75 157.83,-23 157.83,-23 157.83,-13.5 157.83,-13.5 157.83,-8.75 162.58,-4 167.33,-4"/>
</g>
<!-- checkObject&#45;&gt;itsAbomb -->
<g id="edge3" class="edge">
<title>checkObject&#45;&gt;itsAbomb</title>
<path fill="none" stroke="black" d="M923.21,-301.12C917.26,-268.82 899.43,-199.47 852.83,-169 813.18,-143.07 472.35,-164.15 426.83,-151 349.11,-128.55 269.67,-74.8 227.52,-43.33"/>
<polygon fill="black" stroke="black" points="229.67,-40.56 219.58,-37.32 225.44,-46.14 229.67,-40.56"/>
<text text-anchor="start" x="430.83" y="-100.62" font-family="Courier New" font-weight="bold" font-size="10.00" fill="blue">IS_A(WOBJECT,IDC_BOMB)</text>
</g>
<!-- itsAspell -->
<g id="node6" class="node">
<title>itsAspell</title>
<polyline fill="none" stroke="darkred" points="547.71,-7 627.96,-7"/>
<text text-anchor="start" x="550.71" y="-14.2" font-family="Courier New" font-weight="bold" font-size="14.00">itsAspell</text>
<path fill="none" stroke="darkred" d="M554.21,-4C554.21,-4 621.46,-4 621.46,-4 626.21,-4 630.96,-8.75 630.96,-13.5 630.96,-13.5 630.96,-23 630.96,-23 630.96,-27.75 626.21,-32.5 621.46,-32.5 621.46,-32.5 554.21,-32.5 554.21,-32.5 549.46,-32.5 544.71,-27.75 544.71,-23 544.71,-23 544.71,-13.5 544.71,-13.5 544.71,-8.75 549.46,-4 554.21,-4"/>
</g>
<!-- checkObject&#45;&gt;itsAspell -->
<g id="edge4" class="edge">
<title>checkObject&#45;&gt;itsAspell</title>
<path fill="none" stroke="black" d="M923.14,-301.23C917.06,-269.12 899.03,-200.06 852.83,-169 804.04,-136.19 629.14,-193.82 588.83,-151 563.09,-123.65 569.96,-77.18 578.2,-47.37"/>
<polygon fill="black" stroke="black" points="581.51,-48.5 581.04,-37.92 574.81,-46.48 581.51,-48.5"/>
<text text-anchor="start" x="592.83" y="-100.62" font-family="Courier New" font-weight="bold" font-size="10.00" fill="blue">IS_A(WOBJECT,IDC_SPELL)</text>
</g>
<!-- checkObject&#45;&gt;itsAspell -->
<g id="edge5" class="edge">
<title>checkObject&#45;&gt;itsAspell</title>
<path fill="none" stroke="black" d="M922.66,-301.26C915.85,-269.83 896.74,-202.76 852.83,-169 820.15,-143.87 792.1,-179 761.83,-151 729.15,-120.75 766.91,-85.4 734.83,-54.5 722.43,-42.55 684.08,-33.58 649.67,-27.69"/>
<polygon fill="black" stroke="black" points="650.6,-24.29 640.16,-26.13 649.46,-31.2 650.6,-24.29"/>
<text text-anchor="start" x="765.83" y="-100.62" font-family="Courier New" font-weight="bold" font-size="10.00" fill="blue">IS_A(WOBJECT,IDD_GVIAL)</text>
</g>
<!-- regularObject -->
<g id="node7" class="node">
<title>regularObject</title>
<polyline fill="none" stroke="darkred" points="987.21,-7 1100.46,-7"/>
<text text-anchor="start" x="990.21" y="-14.2" font-family="Courier New" font-weight="bold" font-size="14.00">regularObject</text>
<path fill="none" stroke="darkred" d="M993.71,-4C993.71,-4 1093.96,-4 1093.96,-4 1098.71,-4 1103.46,-8.75 1103.46,-13.5 1103.46,-13.5 1103.46,-23 1103.46,-23 1103.46,-27.75 1098.71,-32.5 1093.96,-32.5 1093.96,-32.5 993.71,-32.5 993.71,-32.5 988.96,-32.5 984.21,-27.75 984.21,-23 984.21,-23 984.21,-13.5 984.21,-13.5 984.21,-8.75 988.96,-4 993.71,-4"/>
</g>
<!-- checkObject&#45;&gt;regularObject -->
<g id="edge6" class="edge">
<title>checkObject&#45;&gt;regularObject</title>
<path fill="none" stroke="black" d="M923.34,-301C916.17,-248.75 897.81,-93.4 926.83,-54.5 936.42,-41.65 950.54,-33.32 965.68,-27.95"/>
<polygon fill="black" stroke="black" points="966.31,-31.42 974.84,-25.14 964.25,-24.73 966.31,-31.42"/>
<polygon fill="none" stroke="black" points="929.83,-129.25 929.83,-148 1145.83,-148 1145.83,-129.25 929.83,-129.25"/>
<text text-anchor="start" x="995.83" y="-136.5" font-family="Courier New" font-weight="bold" font-size="10.00" fill="blue">Z_EPSILON(0,0)</text>
<polygon fill="none" stroke="black" points="929.83,-57.5 929.83,-127.25 1145.83,-127.25 1145.83,-57.5 929.83,-57.5"/>
<text text-anchor="start" x="932.83" y="-114.75" font-family="Courier New" font-size="10.00" fill="blue"> &#160;&#160;&#160;SHOW(WOBJECT);</text>
<text text-anchor="start" x="932.83" y="-102" font-family="Courier New" font-size="10.00" fill="blue"> &#160;&#160;&#160;&#160;predicate dropitem(object,id);</text>
<text text-anchor="start" x="932.83" y="-89.25" font-family="Courier New" font-size="10.00" fill="blue"> &#160;&#160;&#160;&#160;&#160;&#160;&#160;dropitem(&quot;%&quot;)~</text>
<text text-anchor="start" x="932.83" y="-76.5" font-family="Courier New" font-size="10.00" fill="blue"> &#160;&#160;&#160;&#160;&#160;&#160;&#160;dropitem(WOBJECT,&quot;id&quot;).</text>
<text text-anchor="start" x="932.83" y="-63.75" font-family="Courier New" font-size="10.00" fill="blue"> &#160;&#160;&#160;&#160;&#160;&#160;&#160;replay(system/send_item);</text>
<polygon fill="none" stroke="black" points="926.83,-54.5 926.83,-151 1148.83,-151 1148.83,-54.5 926.83,-54.5"/>
</g>
<!-- postProcessObject&#45;&gt;0 -->
<g id="edge9" class="edge">
<title>postProcessObject&#45;&gt;0</title>
<path fill="none" stroke="black" d="M1649.7,-337.42C1697.7,-362.65 1780.73,-414.75 1814.83,-487.5 1876.34,-618.69 1916.09,-709.87 1814.83,-813.5 1784.66,-844.38 1077.18,-813.73 1037.83,-831.5 1032.75,-833.8 1028.05,-837.19 1023.85,-841.03"/>
<polygon fill="black" stroke="black" points="1021.35,-838.59 1016.99,-848.24 1026.42,-843.41 1021.35,-838.59"/>
<text text-anchor="start" x="1879.83" y="-648.38" font-family="Courier New" font-weight="bold" font-size="10.00" fill="blue">Z_EPSILON(0,0)</text>
</g>
<!-- itsAbomb&#45;&gt;0 -->
<g id="edge7" class="edge">
<title>itsAbomb&#45;&gt;0</title>
<path fill="none" stroke="black" d="M167.06,-36.44C128.78,-60.47 64.14,-108.08 37.83,-169 -15.12,-291.61 -9.65,-344.67 37.83,-469.5 110.59,-660.75 158.38,-727.02 343.83,-813.5 406.5,-842.72 902.91,-802.86 965.83,-831.5 970.91,-833.81 975.6,-837.21 979.81,-841.06"/>
<polygon fill="black" stroke="black" points="977.24,-843.44 986.67,-848.27 982.31,-838.61 977.24,-843.44"/>
<polygon fill="none" stroke="black" points="40.83,-364.88 40.83,-383.62 292.83,-383.62 292.83,-364.88 40.83,-364.88"/>
<text text-anchor="start" x="130.83" y="-372.12" font-family="Courier New" font-weight="bold" font-size="10.00" fill="blue">Z_EPSILON(,)</text>
<polygon fill="none" stroke="black" points="40.83,-254.88 40.83,-362.88 292.83,-362.88 292.83,-254.88 40.83,-254.88"/>
<text text-anchor="start" x="43.83" y="-350.38" font-family="Courier New" font-size="10.00" fill="blue"> &#160;&#160;&#160;WRITE(&quot;M_O_IDSPELL says ITS A BOMB&quot;);</text>
<text text-anchor="start" x="43.83" y="-337.62" font-family="Courier New" font-size="10.00" fill="blue"> &#160;&#160;&#160;SIGNALi(SOD_ID,SIG_BOMB);</text>
<text text-anchor="start" x="43.83" y="-324.88" font-family="Courier New" font-size="10.00" fill="blue"> &#160;&#160;&#160;&#160;predicate dropitem(object,id);</text>
<text text-anchor="start" x="43.83" y="-312.12" font-family="Courier New" font-size="10.00" fill="blue"> &#160;&#160;&#160;&#160;&#160;&#160;&#160;dropitem(&quot;%&quot;)~</text>
<text text-anchor="start" x="43.83" y="-299.38" font-family="Courier New" font-size="10.00" fill="blue"> &#160;&#160;&#160;&#160;&#160;&#160;&#160;dropitem(WOBJECT,&quot;id&quot;).</text>
<text text-anchor="start" x="43.83" y="-286.62" font-family="Courier New" font-size="10.00" fill="blue"> &#160;&#160;&#160;&#160;&#160;&#160;&#160;replay(system/send_item);</text>
<text text-anchor="start" x="43.83" y="-273.88" font-family="Courier New" font-size="10.00" fill="blue"> &#160;&#160;&#160;&#160;&#160;&#160;&#160;SHOW();</text>
<text text-anchor="start" x="43.83" y="-261.12" font-family="Courier New" font-size="10.00" fill="blue"> &#160;&#160;&#160;</text>
<polygon fill="none" stroke="black" points="37.83,-251.88 37.83,-386.62 295.83,-386.62 295.83,-251.88 37.83,-251.88"/>
</g>
<!-- itsAspell&#45;&gt;0 -->
<g id="edge8" class="edge">
<title>itsAspell&#45;&gt;0</title>
<path fill="none" stroke="black" d="M536.94,-19.17C472.37,-20.26 366.29,-26.42 340.83,-54.5 278.9,-122.84 294.88,-386.86 335.83,-469.5 447.94,-695.69 552.99,-720.88 787.83,-813.5 861.8,-842.67 894.69,-795.98 965.83,-831.5 970.73,-833.94 975.29,-837.35 979.41,-841.15"/>
<polygon fill="black" stroke="black" points="976.72,-843.39 986.16,-848.2 981.77,-838.55 976.72,-843.39"/>
<polygon fill="none" stroke="black" points="338.83,-447.75 338.83,-466.5 854.83,-466.5 854.83,-447.75 338.83,-447.75"/>
<text text-anchor="start" x="560.83" y="-455" font-family="Courier New" font-weight="bold" font-size="10.00" fill="blue">Z_EPSILON(,)</text>
<polygon fill="none" stroke="black" points="338.83,-172 338.83,-445.75 854.83,-445.75 854.83,-172 338.83,-172"/>
<text text-anchor="start" x="341.83" y="-433.25" font-family="Courier New" font-size="10.00" fill="blue"> &#160;&#160;&#160;predicate dropitem(object,id);</text>
<text text-anchor="start" x="341.83" y="-420.5" font-family="Courier New" font-size="10.00" fill="blue"> &#160;&#160;&#160;&#160;&#160;&#160;&#160;dropitem(&quot;%&quot;)~</text>
<text text-anchor="start" x="341.83" y="-407.75" font-family="Courier New" font-size="10.00" fill="blue"> &#160;&#160;&#160;&#160;&#160;&#160;&#160;dropitem(WOBJECT,&quot;id&quot;).</text>
<text text-anchor="start" x="341.83" y="-395" font-family="Courier New" font-size="10.00" fill="blue"> &#160;&#160;&#160;&#160;&#160;&#160;&#160;replay(system/send_item);</text>
<text text-anchor="start" x="341.83" y="-382.25" font-family="Courier New" font-size="10.00" fill="blue"> &#160;&#160;&#160;&#160;&#160;&#160;&#160;SHOW();</text>
<text text-anchor="start" x="341.83" y="-369.5" font-family="Courier New" font-size="10.00" fill="blue"> &#160;&#160;&#160;&#160;&#160;&#160;&#160;if(WOBJECT == IDD_ENCHANT){</text>
<text text-anchor="start" x="341.83" y="-356.75" font-family="Courier New" font-size="10.00" fill="blue"> &#160;&#160;&#160;&#160;&#160;&#160;&#160;&#160;&#160;&#160;&#160;predicate otherplayer(pid,status);</text>
<text text-anchor="start" x="341.83" y="-344" font-family="Courier New" font-size="10.00" fill="blue"> &#160;&#160;&#160;&#160;&#160;&#160;&#160;&#160;&#160;&#160;&#160;otherplayer(?to,&quot;ACTIVE&quot;)?</text>
<text text-anchor="start" x="341.83" y="-331.25" font-family="Courier New" font-size="10.00" fill="blue"> &#160;&#160;&#160;&#160;&#160;&#160;&#160;&#160;&#160;&#160;&#160;predicate spellinfo(status,caster,victim,object,caster_view,victim_view);</text>
<text text-anchor="start" x="341.83" y="-318.5" font-family="Courier New" font-size="10.00" fill="blue"> &#160;&#160;&#160;&#160;&#160;&#160;&#160;&#160;&#160;&#160;&#160;spellinfo()~</text>
<text text-anchor="start" x="341.83" y="-305.75" font-family="Courier New" font-size="10.00" fill="blue"> &#160;&#160;&#160;&#160;&#160;&#160;&#160;&#160;&#160;&#160;&#160;spellinfo(&quot;ACTIVE&quot;,,to,WOBJECT,LVIEW,&quot;EMPTY&quot;).</text>
<text text-anchor="start" x="341.83" y="-293" font-family="Courier New" font-size="10.00" fill="blue"> &#160;&#160;&#160;&#160;&#160;&#160;&#160;&#160;&#160;&#160;&#160;SIGNAL(ENCHANT_POSTER,SIG_SPELLME);</text>
<text text-anchor="start" x="341.83" y="-280.25" font-family="Courier New" font-size="10.00" fill="blue"> &#160;&#160;&#160;&#160;&#160;&#160;&#160;}</text>
<text text-anchor="start" x="341.83" y="-267.5" font-family="Courier New" font-size="10.00" fill="blue"> &#160;&#160;&#160;&#160;&#160;&#160;&#160;if(WOBJECT == IDD_STALKER){</text>
<text text-anchor="start" x="341.83" y="-254.75" font-family="Courier New" font-size="10.00" fill="blue"> &#160;&#160;&#160;&#160;&#160;&#160;&#160;&#160;&#160;&#160;&#160;predicate otherplayer(pid,status);</text>
<text text-anchor="start" x="341.83" y="-242" font-family="Courier New" font-size="10.00" fill="blue"> &#160;&#160;&#160;&#160;&#160;&#160;&#160;&#160;&#160;&#160;&#160;otherplayer(?to,&quot;ACTIVE&quot;)?</text>
<text text-anchor="start" x="341.83" y="-229.25" font-family="Courier New" font-size="10.00" fill="blue"> &#160;&#160;&#160;&#160;&#160;&#160;&#160;&#160;&#160;&#160;&#160;predicate spellinfo(status,caster,victim,object,caster_view,victim_view);</text>
<text text-anchor="start" x="341.83" y="-216.5" font-family="Courier New" font-size="10.00" fill="blue"> &#160;&#160;&#160;&#160;&#160;&#160;&#160;&#160;&#160;&#160;&#160;spellinfo()~</text>
<text text-anchor="start" x="341.83" y="-203.75" font-family="Courier New" font-size="10.00" fill="blue"> &#160;&#160;&#160;&#160;&#160;&#160;&#160;&#160;&#160;&#160;&#160;spellinfo(&quot;ACTIVE&quot;,,to,WOBJECT,&quot;EMPTY&quot;,OVIEW).</text>
<text text-anchor="start" x="341.83" y="-191" font-family="Courier New" font-size="10.00" fill="blue"> &#160;&#160;&#160;&#160;&#160;&#160;&#160;&#160;&#160;&#160;&#160;SIGNAL(STALKING_READER,SIG_SPELLME);</text>
<text text-anchor="start" x="341.83" y="-178.25" font-family="Courier New" font-size="10.00" fill="blue"> &#160;&#160;&#160;&#160;&#160;&#160;&#160;}</text>
<polygon fill="none" stroke="black" points="335.83,-169 335.83,-469.5 857.83,-469.5 857.83,-169 335.83,-169"/>
</g>
<!-- regularObject&#45;&gt;0 -->
<g id="edge10" class="edge">
<title>regularObject&#45;&gt;0</title>
<path fill="none" stroke="black" d="M1111.2,-28.42C1125.89,-33.68 1139.74,-41.85 1148.83,-54.5 1173.45,-88.73 1176.16,-781.39 1148.83,-813.5 1116.45,-851.56 1081.86,-807.84 1037.83,-831.5 1033.02,-834.09 1028.49,-837.58 1024.39,-841.4"/>
<polygon fill="black" stroke="black" points="1022.02,-838.82 1017.65,-848.47 1027.09,-843.65 1022.02,-838.82"/>
<polygon fill="none" stroke="black" points="1170.83,-326.62 1170.83,-345.38 1290.83,-345.38 1290.83,-326.62 1170.83,-326.62"/>
<text text-anchor="start" x="1197.83" y="-333.88" font-family="Courier New" font-weight="bold" font-size="10.00" fill="blue">ZEPSILON(,)</text>
<polygon fill="none" stroke="black" points="1170.83,-293.12 1170.83,-324.62 1290.83,-324.62 1290.83,-293.12 1170.83,-293.12"/>
<text text-anchor="start" x="1173.83" y="-312.12" font-family="Courier New" font-size="10.00" fill="blue"> &#160;&#160;&#160;CLEAR(WOBJECT);</text>
<text text-anchor="start" x="1173.83" y="-299.38" font-family="Courier New" font-size="10.00" fill="blue"> &#160;&#160;&#160;SHOW();</text>
<polygon fill="none" stroke="black" points="1167.83,-290.12 1167.83,-348.38 1293.83,-348.38 1293.83,-290.12 1167.83,-290.12"/>
</g>
<!-- status -->
<g id="node8" class="node">
<title>status</title>
<polygon fill="none" stroke="black" points="1046.83,-832 1046.83,-911 1356.83,-911 1356.83,-832 1046.83,-832"/>
<polygon fill="none" stroke="black" points="1057.83,-885.25 1057.83,-904 1345.83,-904 1345.83,-885.25 1057.83,-885.25"/>
<text text-anchor="start" x="1174.83" y="-892.5" font-family="Courier New" font-weight="bold" font-size="10.00">SOD_SPELL</text>
<polygon fill="none" stroke="black" points="1057.83,-839 1057.83,-883.25 1345.83,-883.25 1345.83,-839 1057.83,-839"/>
<text text-anchor="start" x="1060.83" y="-870.75" font-family="Courier New" font-size="10.00" fill="green">VIEW::IDV_OTHERID @pos(x:10, y:50, h:70, w:100)</text>
<text text-anchor="start" x="1060.83" y="-858" font-family="Courier New" font-size="10.00" fill="green">SOD_SPELL::M_O_IDSPELL(&#39;&#39;,&#39;&#39;,&#39;&#39;,&#39;&#39;,&#39;&#39;,&#39;&#39;)</text>
<text text-anchor="start" x="1060.83" y="-845.25" font-family="Courier New" font-size="10.00" fill="green">{state:&#39;0&#39;: Top:50 Left:10 Z:0</text>
<polygon fill="none" stroke="black" points="1054.83,-836 1054.83,-907 1348.83,-907 1348.83,-836 1054.83,-836"/>
</g>
</g>
</svg>
