<?xml version="1.0" encoding="UTF-8" standalone="no"?>
<!DOCTYPE svg PUBLIC "-//W3C//DTD SVG 1.1//EN"
 "http://www.w3.org/Graphics/SVG/1.1/DTD/svg11.dtd">
<!-- Generated by graphviz version 10.0.1 (20240210.2158)
 -->
<!-- Title: Automaton Pages: 1 -->
<svg width="1874pt" height="754pt"
 viewBox="0.00 0.00 1873.98 753.75" xmlns="http://www.w3.org/2000/svg" xmlns:xlink="http://www.w3.org/1999/xlink">
<g id="graph0" class="graph" transform="scale(1 1) rotate(0) translate(4 749.75)">
<title>Automaton</title>
<polygon fill="white" stroke="none" points="-4,4 -4,-749.75 1869.98,-749.75 1869.98,4 -4,4"/>
<!-- filename -->
<g id="node1" class="node">
<title>filename</title>
<polygon fill="none" stroke="black" points="687.98,-679 687.98,-732.5 847.98,-732.5 847.98,-679 687.98,-679"/>
<polygon fill="none" stroke="black" points="698.98,-706.75 698.98,-725.5 836.98,-725.5 836.98,-706.75 698.98,-706.75"/>
<text text-anchor="start" x="701.98" y="-714" font-family="Courier New" font-weight="bold" font-size="10.00">SOD_SPELL::M_O_IDSPELL</text>
<polygon fill="none" stroke="black" points="698.98,-686 698.98,-704.75 836.98,-704.75 836.98,-686 698.98,-686"/>
<text text-anchor="start" x="722.98" y="-692.25" font-family="Courier New" font-size="10.00" fill="brown">start state = 0</text>
<polygon fill="none" stroke="black" points="695.98,-683 695.98,-728.5 839.98,-728.5 839.98,-683 695.98,-683"/>
</g>
<!-- 0 -->
<g id="node2" class="node">
<title>0</title>
<polyline fill="none" stroke="darkred" stroke-width="3" points="885.35,-694 900.6,-694"/>
<text text-anchor="start" x="888.85" y="-701.7" font-family="Courier New" font-weight="bold" font-size="14.00">0</text>
<path fill="none" stroke="darkred" stroke-width="3" d="M888.77,-689C888.77,-689 897.19,-689 897.19,-689 901.39,-689 905.6,-693.21 905.6,-697.42 905.6,-697.42 905.6,-714.08 905.6,-714.08 905.6,-718.29 901.39,-722.5 897.19,-722.5 897.19,-722.5 888.77,-722.5 888.77,-722.5 884.56,-722.5 880.35,-718.29 880.35,-714.08 880.35,-714.08 880.35,-697.42 880.35,-697.42 880.35,-693.21 884.56,-689 888.77,-689"/>
</g>
<!-- checkObject -->
<g id="node3" class="node">
<title>checkObject</title>
<polyline fill="none" stroke="darkred" points="599.6,-225.12 696.35,-225.12"/>
<text text-anchor="start" x="602.6" y="-232.32" font-family="Courier New" font-weight="bold" font-size="14.00">checkObject</text>
<path fill="none" stroke="darkred" d="M606.1,-222.12C606.1,-222.12 689.85,-222.12 689.85,-222.12 694.6,-222.12 699.35,-226.88 699.35,-231.62 699.35,-231.62 699.35,-241.12 699.35,-241.12 699.35,-245.88 694.6,-250.62 689.85,-250.62 689.85,-250.62 606.1,-250.62 606.1,-250.62 601.35,-250.62 596.6,-245.88 596.6,-241.12 596.6,-241.12 596.6,-231.62 596.6,-231.62 596.6,-226.88 601.35,-222.12 606.1,-222.12"/>
</g>
<!-- 0&#45;&gt;checkObject -->
<g id="edge1" class="edge">
<title>0&#45;&gt;checkObject</title>
<path fill="none" stroke="black" d="M878.25,-683.74C872.4,-676.94 865.13,-670.05 856.98,-665.75 808.11,-639.98 774.22,-685.6 733.98,-647.75 624.23,-544.53 635.73,-339.96 644.16,-265.4"/>
<polygon fill="black" stroke="black" points="647.6,-266.05 645.33,-255.7 640.66,-265.21 647.6,-266.05"/>
<polygon fill="none" stroke="black" points="736.98,-492.12 736.98,-510.88 1036.98,-510.88 1036.98,-492.12 736.98,-492.12"/>
<text text-anchor="start" x="865.98" y="-499.38" font-family="Courier New" font-weight="bold" font-size="10.00" fill="orange">DROP(,)</text>
<polygon fill="none" stroke="black" points="736.98,-458.62 736.98,-490.12 1036.98,-490.12 1036.98,-458.62 736.98,-458.62"/>
<text text-anchor="start" x="739.98" y="-477.62" font-family="Courier New" font-size="10.00" fill="blue"> &#160;&#160;&#160;CLEAR(WVIEWID);</text>
<text text-anchor="start" x="739.98" y="-464.88" font-family="Courier New" font-size="10.00" fill="blue"> &#160;&#160;&#160;WRITE(&quot;I dropped an item on another player&quot;);</text>
<polygon fill="none" stroke="black" points="733.98,-455.62 733.98,-513.88 1039.98,-513.88 1039.98,-455.62 733.98,-455.62"/>
</g>
<!-- postProcessObject -->
<g id="node4" class="node">
<title>postProcessObject</title>
<polyline fill="none" stroke="darkred" points="1431.85,-225.12 1578.1,-225.12"/>
<text text-anchor="start" x="1434.85" y="-232.32" font-family="Courier New" font-weight="bold" font-size="14.00">postProcessObject</text>
<path fill="none" stroke="darkred" d="M1438.35,-222.12C1438.35,-222.12 1571.6,-222.12 1571.6,-222.12 1576.35,-222.12 1581.1,-226.88 1581.1,-231.62 1581.1,-231.62 1581.1,-241.12 1581.1,-241.12 1581.1,-245.88 1576.35,-250.62 1571.6,-250.62 1571.6,-250.62 1438.35,-250.62 1438.35,-250.62 1433.6,-250.62 1428.85,-245.88 1428.85,-241.12 1428.85,-241.12 1428.85,-231.62 1428.85,-231.62 1428.85,-226.88 1433.6,-222.12 1438.35,-222.12"/>
</g>
<!-- 0&#45;&gt;postProcessObject -->
<g id="edge2" class="edge">
<title>0&#45;&gt;postProcessObject</title>
<path fill="none" stroke="black" d="M907.68,-683.68C913.52,-676.87 920.8,-669.99 928.98,-665.75 956.04,-651.71 1044.09,-669.96 1064.98,-647.75 1114.74,-594.85 1039.66,-375.97 1087.98,-321.75 1102.42,-305.55 1162.68,-307.95 1183.98,-303.75 1261.3,-288.51 1348.91,-270.33 1413.04,-256.86"/>
<polygon fill="black" stroke="black" points="1413.38,-260.36 1422.45,-254.88 1411.94,-253.51 1413.38,-260.36"/>
<polygon fill="none" stroke="black" points="1090.98,-626 1090.98,-644.75 1702.98,-644.75 1702.98,-626 1090.98,-626"/>
<text text-anchor="start" x="1351.98" y="-633.25" font-family="Courier New" font-weight="bold" font-size="10.00" fill="orange">WAIT(,SIG_DROP)</text>
<polygon fill="none" stroke="black" points="1090.98,-324.75 1090.98,-624 1702.98,-624 1702.98,-324.75 1090.98,-324.75"/>
<text text-anchor="start" x="1093.98" y="-611.5" font-family="Courier New" font-size="10.00" fill="blue"> &#160;&#160;&#160;WRITE(&quot;M_O_IDSPELL says an item dropped... check if there is a meflin&quot;);</text>
<text text-anchor="start" x="1093.98" y="-598.75" font-family="Courier New" font-size="10.00" fill="blue"> &#160;&#160;&#160;REF_MACHINE(MEFPAN_VIEWCAP);</text>
<text text-anchor="start" x="1093.98" y="-586" font-family="Courier New" font-size="10.00" fill="blue"> &#160;&#160;&#160;MOV(BPARM,R_BPARM);</text>
<text text-anchor="start" x="1093.98" y="-573.25" font-family="Courier New" font-size="10.00" fill="blue"> &#160;&#160;&#160;if(R_BPARM == 1){ &#160;//Theres a meflin up</text>
<text text-anchor="start" x="1093.98" y="-560.5" font-family="Courier New" font-size="10.00" fill="blue"> &#160;&#160;&#160;&#160;&#160;&#160;&#160;REF_MACHINE(MEFCURRENT); //Who is it?</text>
<text text-anchor="start" x="1093.98" y="-547.75" font-family="Courier New" font-size="10.00" fill="blue"> &#160;&#160;&#160;&#160;&#160;&#160;&#160;MOV(WPARM,R_WPARM);</text>
<text text-anchor="start" x="1093.98" y="-535" font-family="Courier New" font-size="10.00" fill="blue"> &#160;&#160;&#160;&#160;&#160;&#160;&#160;SIGNAL(WPARM,SIG_DROP); //so the meflin mef_talk can look at the wobject</text>
<text text-anchor="start" x="1093.98" y="-522.25" font-family="Courier New" font-size="10.00" fill="blue"> &#160;&#160;&#160;&#160;&#160;&#160;&#160;SHOW();</text>
<text text-anchor="start" x="1093.98" y="-509.5" font-family="Courier New" font-size="10.00" fill="blue"> &#160;&#160;&#160;}</text>
<text text-anchor="start" x="1093.98" y="-496.75" font-family="Courier New" font-size="10.00" fill="blue"> &#160;&#160;if(R_BPARM == 0){</text>
<text text-anchor="start" x="1093.98" y="-484" font-family="Courier New" font-size="10.00" fill="blue"> &#160;&#160;&#160;&#160;&#160;&#160;&#160;REF_MACHINE(CHAR_DROPTARGET); //written in case machines overlap meflin machine is in the way</text>
<text text-anchor="start" x="1093.98" y="-471.25" font-family="Courier New" font-size="10.00" fill="blue"> &#160;&#160;&#160;&#160;&#160;&#160;&#160;MOV(WOBJECT,R_WOBJECT);</text>
<text text-anchor="start" x="1093.98" y="-458.5" font-family="Courier New" font-size="10.00" fill="blue"> &#160;&#160;&#160;&#160;&#160;&#160;&#160;&#160;&#160;&#160;&#160;//Deduct for all the bad or good things local player can drop </text>
<text text-anchor="start" x="1093.98" y="-445.75" font-family="Courier New" font-size="10.00" fill="blue"> &#160;&#160;&#160;&#160;&#160;&#160;&#160;&#160;&#160;&#160;&#160;&#160;&#160;&#160;&#160;ADDI(LKARMA,1); </text>
<text text-anchor="start" x="1093.98" y="-433" font-family="Courier New" font-size="10.00" fill="blue"> &#160;&#160;&#160;&#160;&#160;&#160;&#160;&#160;&#160;&#160;&#160;&#160;&#160;&#160;&#160;SIGNAL(SID_HALO,SIG_ADD);</text>
<text text-anchor="start" x="1093.98" y="-420.25" font-family="Courier New" font-size="10.00" fill="blue"> &#160;&#160;&#160;&#160;&#160;&#160;&#160;//Assuming this would create the spell over on the other player</text>
<text text-anchor="start" x="1093.98" y="-407.5" font-family="Courier New" font-size="10.00" fill="blue"> &#160;&#160;&#160;&#160;&#160;&#160;&#160;//SPELL_YOU(WOBJECT);</text>
<text text-anchor="start" x="1093.98" y="-394.75" font-family="Courier New" font-size="10.00" fill="blue"> &#160;&#160;&#160;&#160;&#160;&#160;&#160;predicate dropitem(object,id);</text>
<text text-anchor="start" x="1093.98" y="-382" font-family="Courier New" font-size="10.00" fill="blue"> &#160;&#160;&#160;&#160;&#160;&#160;&#160;dropitem(&quot;%&quot;)~</text>
<text text-anchor="start" x="1093.98" y="-369.25" font-family="Courier New" font-size="10.00" fill="blue"> &#160;&#160;&#160;&#160;&#160;&#160;&#160;dropitem(WOBJECT,&quot;id&quot;).</text>
<text text-anchor="start" x="1093.98" y="-356.5" font-family="Courier New" font-size="10.00" fill="blue"> &#160;&#160;&#160;&#160;&#160;&#160;&#160;replay(system/send_item);</text>
<text text-anchor="start" x="1093.98" y="-343.75" font-family="Courier New" font-size="10.00" fill="blue"> &#160;&#160;&#160;&#160;&#160;&#160;&#160;SHOW();</text>
<text text-anchor="start" x="1093.98" y="-331" font-family="Courier New" font-size="10.00" fill="blue"> &#160;&#160;&#160;} </text>
<polygon fill="none" stroke="black" points="1087.98,-321.75 1087.98,-647.75 1705.98,-647.75 1705.98,-321.75 1087.98,-321.75"/>
</g>
<!-- itsAbomb -->
<g id="node5" class="node">
<title>itsAbomb</title>
<polyline fill="none" stroke="darkred" points="116.98,-7 188.98,-7"/>
<text text-anchor="start" x="119.98" y="-14.2" font-family="Courier New" font-weight="bold" font-size="14.00">itsAbomb</text>
<path fill="none" stroke="darkred" d="M123.48,-4C123.48,-4 182.48,-4 182.48,-4 187.23,-4 191.98,-8.75 191.98,-13.5 191.98,-13.5 191.98,-23 191.98,-23 191.98,-27.75 187.23,-32.5 182.48,-32.5 182.48,-32.5 123.48,-32.5 123.48,-32.5 118.73,-32.5 113.98,-27.75 113.98,-23 113.98,-23 113.98,-13.5 113.98,-13.5 113.98,-8.75 118.73,-4 123.48,-4"/>
</g>
<!-- checkObject&#45;&gt;itsAbomb -->
<g id="edge3" class="edge">
<title>checkObject&#45;&gt;itsAbomb</title>
<path fill="none" stroke="black" d="M618.25,-218.22C589.68,-202.6 544.8,-180.31 502.98,-169 424.94,-147.89 397.03,-181.03 321.98,-151 262.31,-127.12 206.21,-75.47 176.04,-44.41"/>
<polygon fill="black" stroke="black" points="178.71,-42.14 169.28,-37.33 173.65,-46.98 178.71,-42.14"/>
<text text-anchor="start" x="325.98" y="-100.62" font-family="Courier New" font-weight="bold" font-size="10.00" fill="blue">IS_A(WOBJECT,IDC_BOMB)</text>
</g>
<!-- itsAspell -->
<g id="node6" class="node">
<title>itsAspell</title>
<polyline fill="none" stroke="darkred" points="438.85,-7 519.1,-7"/>
<text text-anchor="start" x="441.85" y="-14.2" font-family="Courier New" font-weight="bold" font-size="14.00">itsAspell</text>
<path fill="none" stroke="darkred" d="M445.35,-4C445.35,-4 512.6,-4 512.6,-4 517.35,-4 522.1,-8.75 522.1,-13.5 522.1,-13.5 522.1,-23 522.1,-23 522.1,-27.75 517.35,-32.5 512.6,-32.5 512.6,-32.5 445.35,-32.5 445.35,-32.5 440.6,-32.5 435.85,-27.75 435.85,-23 435.85,-23 435.85,-13.5 435.85,-13.5 435.85,-8.75 440.6,-4 445.35,-4"/>
</g>
<!-- checkObject&#45;&gt;itsAspell -->
<g id="edge4" class="edge">
<title>checkObject&#45;&gt;itsAspell</title>
<path fill="none" stroke="black" d="M608.8,-218.3C561.54,-197.3 487.43,-162.99 479.98,-151 460.53,-119.73 465.15,-75.68 471.25,-47.3"/>
<polygon fill="black" stroke="black" points="474.64,-48.18 473.55,-37.64 467.83,-46.56 474.64,-48.18"/>
<text text-anchor="start" x="483.98" y="-100.62" font-family="Courier New" font-weight="bold" font-size="10.00" fill="blue">IS_A(WOBJECT,IDC_SPELL)</text>
</g>
<!-- checkObject&#45;&gt;itsAspell -->
<g id="edge5" class="edge">
<title>checkObject&#45;&gt;itsAspell</title>
<path fill="none" stroke="black" d="M648.29,-218.41C648.66,-178.16 647.35,-78.46 625.98,-54.5 614.47,-41.6 575.88,-32.64 541.12,-26.98"/>
<polygon fill="black" stroke="black" points="541.93,-23.57 531.51,-25.49 540.86,-30.48 541.93,-23.57"/>
<text text-anchor="start" x="650.98" y="-100.62" font-family="Courier New" font-weight="bold" font-size="10.00" fill="blue">IS_A(WOBJECT,IDD_GVIAL)</text>
</g>
<!-- regularObject -->
<g id="node7" class="node">
<title>regularObject</title>
<polyline fill="none" stroke="darkred" points="878.35,-7 991.6,-7"/>
<text text-anchor="start" x="881.35" y="-14.2" font-family="Courier New" font-weight="bold" font-size="14.00">regularObject</text>
<path fill="none" stroke="darkred" d="M884.85,-4C884.85,-4 985.1,-4 985.1,-4 989.85,-4 994.6,-8.75 994.6,-13.5 994.6,-13.5 994.6,-23 994.6,-23 994.6,-27.75 989.85,-32.5 985.1,-32.5 985.1,-32.5 884.85,-32.5 884.85,-32.5 880.1,-32.5 875.35,-27.75 875.35,-23 875.35,-23 875.35,-13.5 875.35,-13.5 875.35,-8.75 880.1,-4 884.85,-4"/>
</g>
<!-- checkObject&#45;&gt;regularObject -->
<g id="edge6" class="edge">
<title>checkObject&#45;&gt;regularObject</title>
<path fill="none" stroke="black" d="M698.8,-218.27C731.03,-204.86 771.02,-183.06 794.98,-151 821.37,-115.68 787.73,-86.58 817.98,-54.5 828.46,-43.38 842.3,-35.73 856.79,-30.48"/>
<polygon fill="black" stroke="black" points="857.52,-33.92 865.97,-27.52 855.38,-27.25 857.52,-33.92"/>
<polygon fill="none" stroke="black" points="820.98,-129.25 820.98,-148 1036.98,-148 1036.98,-129.25 820.98,-129.25"/>
<text text-anchor="start" x="886.98" y="-136.5" font-family="Courier New" font-weight="bold" font-size="10.00" fill="blue">Z_EPSILON(0,0)</text>
<polygon fill="none" stroke="black" points="820.98,-57.5 820.98,-127.25 1036.98,-127.25 1036.98,-57.5 820.98,-57.5"/>
<text text-anchor="start" x="823.98" y="-114.75" font-family="Courier New" font-size="10.00" fill="blue"> &#160;&#160;&#160;SHOW(WOBJECT);</text>
<text text-anchor="start" x="823.98" y="-102" font-family="Courier New" font-size="10.00" fill="blue"> &#160;&#160;&#160;&#160;predicate dropitem(object,id);</text>
<text text-anchor="start" x="823.98" y="-89.25" font-family="Courier New" font-size="10.00" fill="blue"> &#160;&#160;&#160;&#160;&#160;&#160;&#160;dropitem(&quot;%&quot;)~</text>
<text text-anchor="start" x="823.98" y="-76.5" font-family="Courier New" font-size="10.00" fill="blue"> &#160;&#160;&#160;&#160;&#160;&#160;&#160;dropitem(WOBJECT,&quot;id&quot;).</text>
<text text-anchor="start" x="823.98" y="-63.75" font-family="Courier New" font-size="10.00" fill="blue"> &#160;&#160;&#160;&#160;&#160;&#160;&#160;replay(system/send_item);</text>
<polygon fill="none" stroke="black" points="817.98,-54.5 817.98,-151 1039.98,-151 1039.98,-54.5 817.98,-54.5"/>
</g>
<!-- postProcessObject&#45;&gt;0 -->
<g id="edge9" class="edge">
<title>postProcessObject&#45;&gt;0</title>
<path fill="none" stroke="black" d="M1588.95,-250.23C1631.64,-261.48 1679.89,-282.51 1705.98,-321.75 1786.19,-442.41 1807.24,-544.12 1705.98,-647.75 1675.8,-678.63 968.33,-647.98 928.98,-665.75 923.89,-668.05 919.2,-671.44 914.99,-675.28"/>
<polygon fill="black" stroke="black" points="912.49,-672.84 908.13,-682.49 917.56,-677.66 912.49,-672.84"/>
<text text-anchor="start" x="1777.98" y="-482.62" font-family="Courier New" font-weight="bold" font-size="10.00" fill="blue">Z_EPSILON(0,0)</text>
</g>
<!-- itsAbomb&#45;&gt;0 -->
<g id="edge7" class="edge">
<title>itsAbomb&#45;&gt;0</title>
<path fill="none" stroke="black" d="M128.79,-36.45C96.14,-61.35 39.44,-110.85 16.98,-169 -4.6,-224.87 -6.41,-248.62 16.98,-303.75 102.92,-506.29 170.56,-561.52 372.98,-647.75 472,-689.93 759.2,-620.76 856.98,-665.75 862.05,-668.08 866.73,-671.49 870.93,-675.34"/>
<polygon fill="black" stroke="black" points="868.37,-677.73 877.8,-682.56 873.44,-672.9 868.37,-677.73"/>
<polygon fill="none" stroke="black" points="19.98,-282 19.98,-300.75 271.98,-300.75 271.98,-282 19.98,-282"/>
<text text-anchor="start" x="109.98" y="-289.25" font-family="Courier New" font-weight="bold" font-size="10.00" fill="blue">Z_EPSILON(,)</text>
<polygon fill="none" stroke="black" points="19.98,-172 19.98,-280 271.98,-280 271.98,-172 19.98,-172"/>
<text text-anchor="start" x="22.98" y="-267.5" font-family="Courier New" font-size="10.00" fill="blue"> &#160;&#160;&#160;WRITE(&quot;M_O_IDSPELL says ITS A BOMB&quot;);</text>
<text text-anchor="start" x="22.98" y="-254.75" font-family="Courier New" font-size="10.00" fill="blue"> &#160;&#160;&#160;SIGNALi(SOD_ID,SIG_BOMB);</text>
<text text-anchor="start" x="22.98" y="-242" font-family="Courier New" font-size="10.00" fill="blue"> &#160;&#160;&#160;&#160;predicate dropitem(object,id);</text>
<text text-anchor="start" x="22.98" y="-229.25" font-family="Courier New" font-size="10.00" fill="blue"> &#160;&#160;&#160;&#160;&#160;&#160;&#160;dropitem(&quot;%&quot;)~</text>
<text text-anchor="start" x="22.98" y="-216.5" font-family="Courier New" font-size="10.00" fill="blue"> &#160;&#160;&#160;&#160;&#160;&#160;&#160;dropitem(WOBJECT,&quot;id&quot;).</text>
<text text-anchor="start" x="22.98" y="-203.75" font-family="Courier New" font-size="10.00" fill="blue"> &#160;&#160;&#160;&#160;&#160;&#160;&#160;replay(system/send_item);</text>
<text text-anchor="start" x="22.98" y="-191" font-family="Courier New" font-size="10.00" fill="blue"> &#160;&#160;&#160;&#160;&#160;&#160;&#160;SHOW();</text>
<text text-anchor="start" x="22.98" y="-178.25" font-family="Courier New" font-size="10.00" fill="blue"> &#160;&#160;&#160;</text>
<polygon fill="none" stroke="black" points="16.98,-169 16.98,-303.75 274.98,-303.75 274.98,-169 16.98,-169"/>
</g>
<!-- itsAspell&#45;&gt;0 -->
<g id="edge8" class="edge">
<title>itsAspell&#45;&gt;0</title>
<path fill="none" stroke="black" d="M427.85,-22.06C379.94,-25.89 313.31,-34.7 296.98,-54.5 223.98,-142.99 304.88,-205.43 363.98,-303.75 464.39,-470.8 464.14,-555.76 635.98,-647.75 722.86,-694.26 768.38,-622.59 856.98,-665.75 862,-668.19 866.65,-671.66 870.84,-675.54"/>
<polygon fill="black" stroke="black" points="868.28,-677.92 877.7,-682.76 873.35,-673.1 868.28,-677.92"/>
<polygon fill="none" stroke="black" points="366.98,-262.88 366.98,-281.62 576.98,-281.62 576.98,-262.88 366.98,-262.88"/>
<text text-anchor="start" x="435.98" y="-270.12" font-family="Courier New" font-weight="bold" font-size="10.00" fill="blue">Z_EPSILON(,)</text>
<polygon fill="none" stroke="black" points="366.98,-191.12 366.98,-260.88 576.98,-260.88 576.98,-191.12 366.98,-191.12"/>
<text text-anchor="start" x="369.98" y="-248.38" font-family="Courier New" font-size="10.00" fill="blue"> &#160;&#160;&#160;predicate dropitem(object,id);</text>
<text text-anchor="start" x="369.98" y="-235.62" font-family="Courier New" font-size="10.00" fill="blue"> &#160;&#160;&#160;&#160;&#160;&#160;&#160;dropitem(&quot;%&quot;)~</text>
<text text-anchor="start" x="369.98" y="-222.88" font-family="Courier New" font-size="10.00" fill="blue"> &#160;&#160;&#160;&#160;&#160;&#160;&#160;dropitem(WOBJECT,&quot;id&quot;).</text>
<text text-anchor="start" x="369.98" y="-210.12" font-family="Courier New" font-size="10.00" fill="blue"> &#160;&#160;&#160;&#160;&#160;&#160;&#160;replay(system/send_item);</text>
<text text-anchor="start" x="369.98" y="-197.38" font-family="Courier New" font-size="10.00" fill="blue"> &#160;&#160;&#160;&#160;&#160;&#160;&#160;SHOW();</text>
<polygon fill="none" stroke="black" points="363.98,-188.12 363.98,-284.62 579.98,-284.62 579.98,-188.12 363.98,-188.12"/>
</g>
<!-- regularObject&#45;&gt;0 -->
<g id="edge10" class="edge">
<title>regularObject&#45;&gt;0</title>
<path fill="none" stroke="black" d="M1002.35,-28.42C1017.03,-33.68 1030.88,-41.85 1039.98,-54.5 1059.22,-81.26 1061.34,-622.65 1039.98,-647.75 1007.59,-685.81 973,-642.09 928.98,-665.75 924.16,-668.34 919.64,-671.83 915.54,-675.65"/>
<polygon fill="black" stroke="black" points="913.17,-673.07 908.79,-682.72 918.23,-677.9 913.17,-673.07"/>
<polygon fill="none" stroke="black" points="1056.98,-243.75 1056.98,-262.5 1176.98,-262.5 1176.98,-243.75 1056.98,-243.75"/>
<text text-anchor="start" x="1083.98" y="-251" font-family="Courier New" font-weight="bold" font-size="10.00" fill="blue">ZEPSILON(,)</text>
<polygon fill="none" stroke="black" points="1056.98,-210.25 1056.98,-241.75 1176.98,-241.75 1176.98,-210.25 1056.98,-210.25"/>
<text text-anchor="start" x="1059.98" y="-229.25" font-family="Courier New" font-size="10.00" fill="blue"> &#160;&#160;&#160;CLEAR(WOBJECT);</text>
<text text-anchor="start" x="1059.98" y="-216.5" font-family="Courier New" font-size="10.00" fill="blue"> &#160;&#160;&#160;SHOW();</text>
<polygon fill="none" stroke="black" points="1053.98,-207.25 1053.98,-265.5 1179.98,-265.5 1179.98,-207.25 1053.98,-207.25"/>
</g>
<!-- status -->
<g id="node8" class="node">
<title>status</title>
<polygon fill="none" stroke="black" points="937.98,-666.25 937.98,-745.25 1259.98,-745.25 1259.98,-666.25 937.98,-666.25"/>
<polygon fill="none" stroke="black" points="948.98,-719.5 948.98,-738.25 1248.98,-738.25 1248.98,-719.5 948.98,-719.5"/>
<text text-anchor="start" x="1071.98" y="-726.75" font-family="Courier New" font-weight="bold" font-size="10.00">SOD_SPELL</text>
<polygon fill="none" stroke="black" points="948.98,-673.25 948.98,-717.5 1248.98,-717.5 1248.98,-673.25 948.98,-673.25"/>
<text text-anchor="start" x="951.98" y="-705" font-family="Courier New" font-size="10.00" fill="green">VIEW::IDV_OTHERID @pos(x:10, y:50, h:70, w:100)</text>
<text text-anchor="start" x="951.98" y="-692.25" font-family="Courier New" font-size="10.00" fill="green">SOD_SPELL::M_O_IDSPELL(&#39;&#39;,&#39;&#39;,&#39;&#39;,&#39;&#39;,&#39;&#39;,&#39;&#39;)</text>
<text text-anchor="start" x="951.98" y="-679.5" font-family="Courier New" font-size="10.00" fill="green">{state:&#39;0&#39;: wObject:IDD_REVIAL Top:50 Left:10 Z:0</text>
<polygon fill="none" stroke="black" points="945.98,-670.25 945.98,-741.25 1251.98,-741.25 1251.98,-670.25 945.98,-670.25"/>
</g>
</g>
</svg>
