<?xml version="1.0" encoding="UTF-8" standalone="no"?>
<!DOCTYPE svg PUBLIC "-//W3C//DTD SVG 1.1//EN"
 "http://www.w3.org/Graphics/SVG/1.1/DTD/svg11.dtd">
<!-- Generated by graphviz version 10.0.1 (20240210.2158)
 -->
<!-- Title: Automaton Pages: 1 -->
<svg width="1859pt" height="1200pt"
 viewBox="0.00 0.00 1859.00 1200.25" xmlns="http://www.w3.org/2000/svg" xmlns:xlink="http://www.w3.org/1999/xlink">
<g id="graph0" class="graph" transform="scale(1 1) rotate(0) translate(4 1196.25)">
<title>Automaton</title>
<polygon fill="white" stroke="none" points="-4,4 -4,-1196.25 1855,-1196.25 1855,4 -4,4"/>
<!-- filename -->
<g id="node1" class="node">
<title>filename</title>
<polygon fill="none" stroke="black" points="672,-1125.5 672,-1179 790,-1179 790,-1125.5 672,-1125.5"/>
<polygon fill="none" stroke="black" points="683,-1153.25 683,-1172 779,-1172 779,-1153.25 683,-1153.25"/>
<text text-anchor="start" x="692" y="-1160.5" font-family="Courier New" font-weight="bold" font-size="10.00">SOD_ID::M_OID</text>
<polygon fill="none" stroke="black" points="683,-1132.5 683,-1151.25 779,-1151.25 779,-1132.5 683,-1132.5"/>
<text text-anchor="start" x="686" y="-1138.75" font-family="Courier New" font-size="10.00" fill="brown">start state = 0</text>
<polygon fill="none" stroke="black" points="680,-1129.5 680,-1175 782,-1175 782,-1129.5 680,-1129.5"/>
</g>
<!-- 0 -->
<g id="node2" class="node">
<title>0</title>
<polyline fill="none" stroke="darkred" points="827.88,-1141 842.12,-1141"/>
<text text-anchor="start" x="830.88" y="-1148.2" font-family="Courier New" font-weight="bold" font-size="14.00">0</text>
<path fill="none" stroke="darkred" d="M831.62,-1138C831.62,-1138 838.38,-1138 838.38,-1138 841.75,-1138 845.12,-1141.38 845.12,-1144.75 845.12,-1144.75 845.12,-1159.75 845.12,-1159.75 845.12,-1163.12 841.75,-1166.5 838.38,-1166.5 838.38,-1166.5 831.62,-1166.5 831.62,-1166.5 828.25,-1166.5 824.88,-1163.12 824.88,-1159.75 824.88,-1159.75 824.88,-1144.75 824.88,-1144.75 824.88,-1141.38 828.25,-1138 831.62,-1138"/>
</g>
<!-- present -->
<g id="node3" class="node">
<title>present</title>
<polyline fill="none" stroke="darkred" points="616.12,-937.5 679.88,-937.5"/>
<text text-anchor="start" x="619.12" y="-944.7" font-family="Courier New" font-weight="bold" font-size="14.00">present</text>
<path fill="none" stroke="darkred" d="M622.62,-934.5C622.62,-934.5 673.38,-934.5 673.38,-934.5 678.12,-934.5 682.88,-939.25 682.88,-944 682.88,-944 682.88,-953.5 682.88,-953.5 682.88,-958.25 678.12,-963 673.38,-963 673.38,-963 622.62,-963 622.62,-963 617.88,-963 613.12,-958.25 613.12,-953.5 613.12,-953.5 613.12,-944 613.12,-944 613.12,-939.25 617.88,-934.5 622.62,-934.5"/>
</g>
<!-- 0&#45;&gt;present -->
<g id="edge1" class="edge">
<title>0&#45;&gt;present</title>
<path fill="none" stroke="black" d="M823.65,-1134.18C817.37,-1126.17 808.85,-1117.28 799,-1112.25 769.1,-1096.97 671.37,-1119.29 649,-1094.25 620.87,-1062.76 629.3,-1010.21 638.37,-977.9"/>
<polygon fill="black" stroke="black" points="641.69,-979.03 641.24,-968.44 634.99,-977 641.69,-979.03"/>
<polygon fill="none" stroke="black" points="652,-1072.5 652,-1091.25 1006,-1091.25 1006,-1072.5 652,-1072.5"/>
<text text-anchor="start" x="784" y="-1079.75" font-family="Courier New" font-weight="bold" font-size="10.00" fill="orange">WAIT(,SIG_OTID)</text>
<polygon fill="none" stroke="black" points="652,-988 652,-1070.5 1006,-1070.5 1006,-988 652,-988"/>
<text text-anchor="start" x="655" y="-1058" font-family="Courier New" font-size="10.00" fill="blue"> &#160;&#160;&#160;CLEAR(WSPRITE);</text>
<text text-anchor="start" x="655" y="-1045.25" font-family="Courier New" font-size="10.00" fill="blue"> &#160;&#160;&#160;&#160;SHOW(0);</text>
<text text-anchor="start" x="655" y="-1032.5" font-family="Courier New" font-size="10.00" fill="blue"> &#160;&#160;&#160;&#160;predicate otherplayer(pid,status,player);</text>
<text text-anchor="start" x="655" y="-1019.75" font-family="Courier New" font-size="10.00" fill="blue"> &#160;&#160;&#160;&#160;otherplayer(?BPARM, &quot;ACTIVE&quot;, ?WPARM)?</text>
<text text-anchor="start" x="655" y="-1007" font-family="Courier New" font-size="10.00" fill="blue"> &#160;&#160;&#160;&#160;&#160;&#160;&#160;otherName = json_element(WPARM, &quot;playerName&quot;);</text>
<text text-anchor="start" x="655" y="-994.25" font-family="Courier New" font-size="10.00" fill="blue"> &#160;&#160;&#160;&#160;&#160;&#160;&#160;set_control_value(IDV_OTHERNAME, OTHN, otherName);</text>
<polygon fill="none" stroke="black" points="649,-985 649,-1094.25 1009,-1094.25 1009,-985 649,-985"/>
</g>
<!-- setId -->
<g id="node21" class="node">
<title>setId</title>
<polyline fill="none" stroke="darkred" points="736.38,-717.5 783.62,-717.5"/>
<text text-anchor="start" x="739.38" y="-724.7" font-family="Courier New" font-weight="bold" font-size="14.00">setId</text>
<path fill="none" stroke="darkred" d="M742.88,-714.5C742.88,-714.5 777.12,-714.5 777.12,-714.5 781.88,-714.5 786.62,-719.25 786.62,-724 786.62,-724 786.62,-733.5 786.62,-733.5 786.62,-738.25 781.88,-743 777.12,-743 777.12,-743 742.88,-743 742.88,-743 738.12,-743 733.38,-738.25 733.38,-733.5 733.38,-733.5 733.38,-724 733.38,-724 733.38,-719.25 738.12,-714.5 742.88,-714.5"/>
</g>
<!-- present&#45;&gt;setId -->
<g id="edge18" class="edge">
<title>present&#45;&gt;setId</title>
<path fill="none" stroke="black" d="M605.26,-944C564.06,-939.4 505.96,-929.96 492,-912.5 451.07,-861.29 448.77,-814.28 492,-765 520.34,-732.69 645.31,-728.57 714.13,-728.84"/>
<polygon fill="black" stroke="black" points="713.94,-732.34 723.97,-728.91 714,-725.34 713.94,-732.34"/>
<polygon fill="none" stroke="black" points="495,-890.75 495,-909.5 735,-909.5 735,-890.75 495,-890.75"/>
<text text-anchor="start" x="573" y="-898" font-family="Courier New" font-weight="bold" font-size="10.00" fill="blue">EQUALi(OSEX,1)</text>
<polygon fill="none" stroke="black" points="495,-768 495,-888.75 735,-888.75 735,-768 495,-768"/>
<text text-anchor="start" x="498" y="-876.25" font-family="Courier New" font-size="10.00" fill="blue"> &#160;&#160;&#160;if(OWISDOM &gt;= 30){</text>
<text text-anchor="start" x="498" y="-863.5" font-family="Courier New" font-size="10.00" fill="blue"> &#160;&#160;&#160;&#160;&#160;&#160;ASSIGN(WPARM,F3);</text>
<text text-anchor="start" x="498" y="-850.75" font-family="Courier New" font-size="10.00" fill="blue"> &#160;&#160;&#160;}</text>
<text text-anchor="start" x="498" y="-838" font-family="Courier New" font-size="10.00" fill="blue"> &#160;&#160;&#160;&#160;if(OWISDOM &gt;= 20 &amp;&amp; LWISDOM &lt; 30){</text>
<text text-anchor="start" x="498" y="-825.25" font-family="Courier New" font-size="10.00" fill="blue"> &#160;&#160;&#160;&#160;&#160;&#160;&#160;ASSIGN(WPARM,F2);</text>
<text text-anchor="start" x="498" y="-812.5" font-family="Courier New" font-size="10.00" fill="blue"> &#160;&#160;&#160;}</text>
<text text-anchor="start" x="498" y="-799.75" font-family="Courier New" font-size="10.00" fill="blue"> &#160;&#160;&#160;if(OWISDOM &lt; 20){</text>
<text text-anchor="start" x="498" y="-787" font-family="Courier New" font-size="10.00" fill="blue"> &#160;&#160;&#160;&#160;&#160;&#160;ASSIGN(WPARM,F1);</text>
<text text-anchor="start" x="498" y="-774.25" font-family="Courier New" font-size="10.00" fill="blue"> &#160;&#160;&#160;}</text>
<polygon fill="none" stroke="black" points="492,-765 492,-912.5 738,-912.5 738,-765 492,-765"/>
</g>
<!-- present&#45;&gt;setId -->
<g id="edge19" class="edge">
<title>present&#45;&gt;setId</title>
<path fill="none" stroke="black" d="M690.47,-940.95C707.83,-935.97 726.5,-927.36 738,-912.5 756.19,-889 759.56,-803.22 760.04,-758.03"/>
<polygon fill="black" stroke="black" points="763.54,-758.24 760.1,-748.22 756.54,-758.2 763.54,-758.24"/>
<polygon fill="none" stroke="black" points="763,-890.75 763,-909.5 997,-909.5 997,-890.75 763,-890.75"/>
<text text-anchor="start" x="835" y="-898" font-family="Courier New" font-weight="bold" font-size="10.00" fill="blue">NEQUALi(OSEX,1)</text>
<polygon fill="none" stroke="black" points="763,-768 763,-888.75 997,-888.75 997,-768 763,-768"/>
<text text-anchor="start" x="766" y="-876.25" font-family="Courier New" font-size="10.00" fill="blue"> &#160;&#160;&#160;if(OWISDOM &gt;= 30){</text>
<text text-anchor="start" x="766" y="-863.5" font-family="Courier New" font-size="10.00" fill="blue"> &#160;&#160;&#160;&#160;&#160;&#160;ASSIGN(WPARM,M3);</text>
<text text-anchor="start" x="766" y="-850.75" font-family="Courier New" font-size="10.00" fill="blue"> &#160;&#160;&#160;}</text>
<text text-anchor="start" x="766" y="-838" font-family="Courier New" font-size="10.00" fill="blue"> &#160;&#160;&#160;if(OWISDOM &gt;= 20 &amp;&amp; OWISDOM &lt; 30){</text>
<text text-anchor="start" x="766" y="-825.25" font-family="Courier New" font-size="10.00" fill="blue"> &#160;&#160;&#160;&#160;&#160;&#160;&#160;ASSIGN(WPARM,M2);</text>
<text text-anchor="start" x="766" y="-812.5" font-family="Courier New" font-size="10.00" fill="blue"> &#160;&#160;&#160;}</text>
<text text-anchor="start" x="766" y="-799.75" font-family="Courier New" font-size="10.00" fill="blue"> &#160;&#160;&#160;if(OWISDOM &lt; 20){</text>
<text text-anchor="start" x="766" y="-787" font-family="Courier New" font-size="10.00" fill="blue"> &#160;&#160;&#160;&#160;&#160;&#160;ASSIGN(WPARM,M1);</text>
<text text-anchor="start" x="766" y="-774.25" font-family="Courier New" font-size="10.00" fill="blue"> &#160;&#160;&#160;}</text>
<polygon fill="none" stroke="black" points="760,-765 760,-912.5 1000,-912.5 1000,-765 760,-765"/>
</g>
<!-- 100 -->
<g id="node4" class="node">
<title>100</title>
<polyline fill="none" stroke="darkred" points="153.62,-423.62 184.38,-423.62"/>
<text text-anchor="start" x="156.62" y="-430.82" font-family="Courier New" font-weight="bold" font-size="14.00">100</text>
<path fill="none" stroke="darkred" d="M160.12,-420.62C160.12,-420.62 177.88,-420.62 177.88,-420.62 182.62,-420.62 187.38,-425.38 187.38,-430.12 187.38,-430.12 187.38,-439.62 187.38,-439.62 187.38,-444.38 182.62,-449.12 177.88,-449.12 177.88,-449.12 160.12,-449.12 160.12,-449.12 155.38,-449.12 150.62,-444.38 150.62,-439.62 150.62,-439.62 150.62,-430.12 150.62,-430.12 150.62,-425.38 155.38,-420.62 160.12,-420.62"/>
</g>
<!-- empty -->
<g id="node5" class="node">
<title>empty</title>
<polyline fill="none" stroke="darkred" points="335.38,-226.5 382.62,-226.5"/>
<text text-anchor="start" x="338.38" y="-233.7" font-family="Courier New" font-weight="bold" font-size="14.00">empty</text>
<path fill="none" stroke="darkred" d="M341.88,-223.5C341.88,-223.5 376.12,-223.5 376.12,-223.5 380.88,-223.5 385.62,-228.25 385.62,-233 385.62,-233 385.62,-242.5 385.62,-242.5 385.62,-247.25 380.88,-252 376.12,-252 376.12,-252 341.88,-252 341.88,-252 337.12,-252 332.38,-247.25 332.38,-242.5 332.38,-242.5 332.38,-233 332.38,-233 332.38,-228.25 337.12,-223.5 341.88,-223.5"/>
</g>
<!-- 100&#45;&gt;empty -->
<g id="edge2" class="edge">
<title>100&#45;&gt;empty</title>
<path fill="none" stroke="black" d="M160.02,-416.9C145.79,-387.38 122.69,-326.38 154,-291.25 177.22,-265.2 277.39,-285.68 310,-273.25 316.89,-270.62 323.72,-266.81 330,-262.66"/>
<polygon fill="black" stroke="black" points="331.99,-265.54 338.1,-256.88 327.93,-259.84 331.99,-265.54"/>
<polygon fill="none" stroke="black" points="157,-327.75 157,-346.5 325,-346.5 325,-327.75 157,-327.75"/>
<text text-anchor="start" x="205" y="-335" font-family="Courier New" font-weight="bold" font-size="10.00" fill="blue">Z_EPSILON(,)</text>
<polygon fill="none" stroke="black" points="157,-294.25 157,-325.75 325,-325.75 325,-294.25 157,-294.25"/>
<text text-anchor="start" x="160" y="-313.25" font-family="Courier New" font-size="10.00" fill="blue"> &#160;&#160;&#160;SHOW(0);</text>
<text text-anchor="start" x="160" y="-300.5" font-family="Courier New" font-size="10.00" fill="blue"> &#160;&#160;&#160;SIGNAL(WIP4,SIG_CLEAR);</text>
<polygon fill="none" stroke="black" points="154,-291.25 154,-349.5 328,-349.5 328,-291.25 154,-291.25"/>
</g>
<!-- sitting -->
<g id="node20" class="node">
<title>sitting</title>
<polyline fill="none" stroke="darkred" stroke-width="3" points="883.62,-569.5 948.38,-569.5"/>
<text text-anchor="start" x="887.12" y="-577.2" font-family="Courier New" font-weight="bold" font-size="14.00">sitting</text>
<path fill="none" stroke="darkred" stroke-width="3" d="M889.79,-564.5C889.79,-564.5 942.21,-564.5 942.21,-564.5 947.79,-564.5 953.38,-570.08 953.38,-575.67 953.38,-575.67 953.38,-586.83 953.38,-586.83 953.38,-592.42 947.79,-598 942.21,-598 942.21,-598 889.79,-598 889.79,-598 884.21,-598 878.62,-592.42 878.62,-586.83 878.62,-586.83 878.62,-575.67 878.62,-575.67 878.62,-570.08 884.21,-564.5 889.79,-564.5"/>
</g>
<!-- empty&#45;&gt;sitting -->
<g id="edge14" class="edge">
<title>empty&#45;&gt;sitting</title>
<path fill="none" stroke="black" d="M353.44,-255.74C339.75,-301.15 309.48,-426.97 367,-502.25 402.83,-549.14 436.1,-529.6 494,-541 622.46,-566.3 776.22,-575.39 858.05,-578.58"/>
<polygon fill="black" stroke="black" points="857.71,-582.07 867.84,-578.95 857.97,-575.08 857.71,-582.07"/>
<text text-anchor="start" x="371" y="-432.75" font-family="Courier New" font-weight="bold" font-size="10.00" fill="orange">WAIT(,SIG_SHOW)</text>
</g>
<!-- 20 -->
<g id="node6" class="node">
<title>20</title>
<polyline fill="none" stroke="darkred" points="714.75,-309.12 737.25,-309.12"/>
<text text-anchor="start" x="717.75" y="-316.32" font-family="Courier New" font-weight="bold" font-size="14.00">20</text>
<path fill="none" stroke="darkred" d="M721.25,-306.12C721.25,-306.12 730.75,-306.12 730.75,-306.12 735.5,-306.12 740.25,-310.88 740.25,-315.62 740.25,-315.62 740.25,-325.12 740.25,-325.12 740.25,-329.88 735.5,-334.62 730.75,-334.62 730.75,-334.62 721.25,-334.62 721.25,-334.62 716.5,-334.62 711.75,-329.88 711.75,-325.12 711.75,-325.12 711.75,-315.62 711.75,-315.62 711.75,-310.88 716.5,-306.12 721.25,-306.12"/>
</g>
<!-- playForward -->
<g id="node7" class="node">
<title>playForward</title>
<polyline fill="none" stroke="darkred" points="1102.62,-7 1199.38,-7"/>
<text text-anchor="start" x="1105.62" y="-14.2" font-family="Courier New" font-weight="bold" font-size="14.00">playForward</text>
<path fill="none" stroke="darkred" d="M1109.12,-4C1109.12,-4 1192.88,-4 1192.88,-4 1197.62,-4 1202.38,-8.75 1202.38,-13.5 1202.38,-13.5 1202.38,-23 1202.38,-23 1202.38,-27.75 1197.62,-32.5 1192.88,-32.5 1192.88,-32.5 1109.12,-32.5 1109.12,-32.5 1104.38,-32.5 1099.62,-27.75 1099.62,-23 1099.62,-23 1099.62,-13.5 1099.62,-13.5 1099.62,-8.75 1104.38,-4 1109.12,-4"/>
</g>
<!-- 20&#45;&gt;playForward -->
<g id="edge3" class="edge">
<title>20&#45;&gt;playForward</title>
<path fill="none" stroke="black" d="M724.55,-302.33C722.64,-268.43 723.35,-192.03 763,-147.75 844.77,-56.43 992.85,-29.84 1080.53,-22.21"/>
<polygon fill="black" stroke="black" points="1080.76,-25.7 1090.45,-21.41 1080.2,-18.72 1080.76,-25.7"/>
<text text-anchor="start" x="767" y="-163.88" font-family="Courier New" font-weight="bold" font-size="10.00" fill="blue">ASSIGN(WSPRITE,happy)</text>
</g>
<!-- playForward&#45;&gt;sitting -->
<g id="edge16" class="edge">
<title>playForward&#45;&gt;sitting</title>
<path fill="none" stroke="black" d="M1091.94,-20.81C856.82,-27.39 0,-55.16 0,-110.5 0,-435.88 0,-435.88 0,-435.88 0,-534.33 100.23,-514.32 195,-541 319.22,-575.97 709.98,-580.08 858.21,-580.35"/>
<polygon fill="black" stroke="black" points="857.77,-583.85 867.78,-580.36 857.78,-576.85 857.77,-583.85"/>
<polygon fill="none" stroke="black" points="3,-251.5 3,-270.25 303,-270.25 303,-251.5 3,-251.5"/>
<text text-anchor="start" x="105" y="-258.75" font-family="Courier New" font-weight="bold" font-size="10.00" fill="blue">ASSIGN(BFRAME,0)</text>
<polygon fill="none" stroke="black" points="3,-205.25 3,-249.5 303,-249.5 303,-205.25 3,-205.25"/>
<text text-anchor="start" x="6" y="-237" font-family="Courier New" font-size="10.00" fill="blue"> &#160;&#160;&#160;MAP(WSPRITE,WPARM);</text>
<text text-anchor="start" x="6" y="-224.25" font-family="Courier New" font-size="10.00" fill="blue"> &#160;&#160;&#160;SHOW(WSPRITE);</text>
<text text-anchor="start" x="6" y="-211.5" font-family="Courier New" font-size="10.00" fill="blue"> &#160;&#160;&#160;ANIMATE(0,V_REWIND); //PLAY FORWARD THEN BACK</text>
<polygon fill="none" stroke="black" points="0,-202.25 0,-273.25 306,-273.25 306,-202.25 0,-202.25"/>
</g>
<!-- 21 -->
<g id="node8" class="node">
<title>21</title>
<polyline fill="none" stroke="darkred" points="1223.75,-100.25 1246.25,-100.25"/>
<text text-anchor="start" x="1226.75" y="-107.45" font-family="Courier New" font-weight="bold" font-size="14.00">21</text>
<path fill="none" stroke="darkred" d="M1230.25,-97.25C1230.25,-97.25 1239.75,-97.25 1239.75,-97.25 1244.5,-97.25 1249.25,-102 1249.25,-106.75 1249.25,-106.75 1249.25,-116.25 1249.25,-116.25 1249.25,-121 1244.5,-125.75 1239.75,-125.75 1239.75,-125.75 1230.25,-125.75 1230.25,-125.75 1225.5,-125.75 1220.75,-121 1220.75,-116.25 1220.75,-116.25 1220.75,-106.75 1220.75,-106.75 1220.75,-102 1225.5,-97.25 1230.25,-97.25"/>
</g>
<!-- 21&#45;&gt;playForward -->
<g id="edge4" class="edge">
<title>21&#45;&gt;playForward</title>
<path fill="none" stroke="black" d="M1219.2,-93.34C1206.53,-79.57 1188.56,-60.05 1174.25,-44.5"/>
<polygon fill="black" stroke="black" points="1177.1,-42.44 1167.75,-37.45 1171.95,-47.18 1177.1,-42.44"/>
<text text-anchor="start" x="1204" y="-62.75" font-family="Courier New" font-weight="bold" font-size="10.00" fill="blue">ASSIGN(WSPRITE,hurt)</text>
</g>
<!-- 22 -->
<g id="node9" class="node">
<title>22</title>
<polyline fill="none" stroke="darkred" points="659.75,-423.62 682.25,-423.62"/>
<text text-anchor="start" x="662.75" y="-430.82" font-family="Courier New" font-weight="bold" font-size="14.00">22</text>
<path fill="none" stroke="darkred" d="M666.25,-420.62C666.25,-420.62 675.75,-420.62 675.75,-420.62 680.5,-420.62 685.25,-425.38 685.25,-430.12 685.25,-430.12 685.25,-439.62 685.25,-439.62 685.25,-444.38 680.5,-449.12 675.75,-449.12 675.75,-449.12 666.25,-449.12 666.25,-449.12 661.5,-449.12 656.75,-444.38 656.75,-439.62 656.75,-439.62 656.75,-430.12 656.75,-430.12 656.75,-425.38 661.5,-420.62 666.25,-420.62"/>
</g>
<!-- playOnce -->
<g id="node10" class="node">
<title>playOnce</title>
<polyline fill="none" stroke="darkred" points="485,-226.5 557,-226.5"/>
<text text-anchor="start" x="488" y="-233.7" font-family="Courier New" font-weight="bold" font-size="14.00">playOnce</text>
<path fill="none" stroke="darkred" d="M491.5,-223.5C491.5,-223.5 550.5,-223.5 550.5,-223.5 555.25,-223.5 560,-228.25 560,-233 560,-233 560,-242.5 560,-242.5 560,-247.25 555.25,-252 550.5,-252 550.5,-252 491.5,-252 491.5,-252 486.75,-252 482,-247.25 482,-242.5 482,-242.5 482,-233 482,-233 482,-228.25 486.75,-223.5 491.5,-223.5"/>
</g>
<!-- 22&#45;&gt;playOnce -->
<g id="edge5" class="edge">
<title>22&#45;&gt;playOnce</title>
<path fill="none" stroke="black" d="M664.76,-416.87C658.34,-401.7 646.86,-380.01 630,-367.5 604.89,-348.88 585.14,-370.52 562,-349.5 538.53,-328.17 528.45,-292.18 524.15,-267.04"/>
<polygon fill="black" stroke="black" points="527.62,-266.55 522.69,-257.17 520.69,-267.58 527.62,-266.55"/>
<text text-anchor="start" x="566" y="-318.25" font-family="Courier New" font-weight="bold" font-size="10.00" fill="blue">ASSIGN(WSPRITE,kiss)</text>
</g>
<!-- playOnce&#45;&gt;sitting -->
<g id="edge17" class="edge">
<title>playOnce&#45;&gt;sitting</title>
<path fill="none" stroke="black" d="M512.27,-255.86C491.32,-299.5 442.94,-417.46 485,-502.25 497.65,-527.75 509.52,-530.54 536,-541 593.16,-563.59 766.7,-574.04 858.17,-578.09"/>
<polygon fill="black" stroke="black" points="857.79,-581.58 867.93,-578.51 858.09,-574.58 857.79,-581.58"/>
<polygon fill="none" stroke="black" points="488,-448.62 488,-467.38 632,-467.38 632,-448.62 488,-448.62"/>
<text text-anchor="start" x="512" y="-455.88" font-family="Courier New" font-weight="bold" font-size="10.00" fill="blue">ASSIGN(BFRAME,0)</text>
<polygon fill="none" stroke="black" points="488,-402.38 488,-446.62 632,-446.62 632,-402.38 488,-402.38"/>
<text text-anchor="start" x="491" y="-434.12" font-family="Courier New" font-size="10.00" fill="blue"> &#160;&#160;&#160;MAP(WSPRITE,WPARM);</text>
<text text-anchor="start" x="491" y="-421.38" font-family="Courier New" font-size="10.00" fill="blue"> &#160;&#160;&#160;SHOW(0,WSPRITE);</text>
<text text-anchor="start" x="491" y="-408.62" font-family="Courier New" font-size="10.00" fill="blue"> &#160;&#160;&#160;ANIMATE(0,0);</text>
<polygon fill="none" stroke="black" points="485,-399.38 485,-470.38 635,-470.38 635,-399.38 485,-399.38"/>
</g>
<!-- 23 -->
<g id="node11" class="node">
<title>23</title>
<polyline fill="none" stroke="darkred" points="773.75,-309.12 796.25,-309.12"/>
<text text-anchor="start" x="776.75" y="-316.32" font-family="Courier New" font-weight="bold" font-size="14.00">23</text>
<path fill="none" stroke="darkred" d="M780.25,-306.12C780.25,-306.12 789.75,-306.12 789.75,-306.12 794.5,-306.12 799.25,-310.88 799.25,-315.62 799.25,-315.62 799.25,-325.12 799.25,-325.12 799.25,-329.88 794.5,-334.62 789.75,-334.62 789.75,-334.62 780.25,-334.62 780.25,-334.62 775.5,-334.62 770.75,-329.88 770.75,-325.12 770.75,-325.12 770.75,-315.62 770.75,-315.62 770.75,-310.88 775.5,-306.12 780.25,-306.12"/>
</g>
<!-- 23&#45;&gt;playForward -->
<g id="edge6" class="edge">
<title>23&#45;&gt;playForward</title>
<path fill="none" stroke="black" d="M797.91,-302.18C822.86,-269.63 880.41,-197.81 939,-147.75 996.97,-98.22 1017.08,-92.81 1083,-54.5 1090.43,-50.18 1098.45,-45.79 1106.28,-41.65"/>
<polygon fill="black" stroke="black" points="1107.82,-44.8 1115.06,-37.07 1104.58,-38.59 1107.82,-44.8"/>
<text text-anchor="start" x="943" y="-163.88" font-family="Courier New" font-weight="bold" font-size="10.00" fill="blue">ASSIGN(WSPRITE,mad)</text>
</g>
<!-- 24 -->
<g id="node12" class="node">
<title>24</title>
<polyline fill="none" stroke="darkred" points="1085.75,-154.75 1108.25,-154.75"/>
<text text-anchor="start" x="1088.75" y="-161.95" font-family="Courier New" font-weight="bold" font-size="14.00">24</text>
<path fill="none" stroke="darkred" d="M1092.25,-151.75C1092.25,-151.75 1101.75,-151.75 1101.75,-151.75 1106.5,-151.75 1111.25,-156.5 1111.25,-161.25 1111.25,-161.25 1111.25,-170.75 1111.25,-170.75 1111.25,-175.5 1106.5,-180.25 1101.75,-180.25 1101.75,-180.25 1092.25,-180.25 1092.25,-180.25 1087.5,-180.25 1082.75,-175.5 1082.75,-170.75 1082.75,-170.75 1082.75,-161.25 1082.75,-161.25 1082.75,-156.5 1087.5,-151.75 1092.25,-151.75"/>
</g>
<!-- 24&#45;&gt;playForward -->
<g id="edge7" class="edge">
<title>24&#45;&gt;playForward</title>
<path fill="none" stroke="black" d="M1084.93,-147.84C1081.7,-142.32 1078.65,-136.01 1077,-129.75 1072.86,-114.06 1070.79,-108.24 1077,-93.25 1085.2,-73.47 1101.53,-56.21 1116.77,-43.35"/>
<polygon fill="black" stroke="black" points="1118.77,-46.24 1124.37,-37.25 1114.38,-40.78 1118.77,-46.24"/>
<text text-anchor="start" x="1081" y="-109.38" font-family="Courier New" font-weight="bold" font-size="10.00" fill="blue">ASSIGN(WSPRITE,sad)</text>
</g>
<!-- 25 -->
<g id="node13" class="node">
<title>25</title>
<polyline fill="none" stroke="darkred" points="1483.75,-309.12 1506.25,-309.12"/>
<text text-anchor="start" x="1486.75" y="-316.32" font-family="Courier New" font-weight="bold" font-size="14.00">25</text>
<path fill="none" stroke="darkred" d="M1490.25,-306.12C1490.25,-306.12 1499.75,-306.12 1499.75,-306.12 1504.5,-306.12 1509.25,-310.88 1509.25,-315.62 1509.25,-315.62 1509.25,-325.12 1509.25,-325.12 1509.25,-329.88 1504.5,-334.62 1499.75,-334.62 1499.75,-334.62 1490.25,-334.62 1490.25,-334.62 1485.5,-334.62 1480.75,-329.88 1480.75,-325.12 1480.75,-325.12 1480.75,-315.62 1480.75,-315.62 1480.75,-310.88 1485.5,-306.12 1490.25,-306.12"/>
</g>
<!-- 25&#45;&gt;playForward -->
<g id="edge8" class="edge">
<title>25&#45;&gt;playForward</title>
<path fill="none" stroke="black" d="M1483.73,-302.19C1467.26,-276.81 1435.95,-227.63 1412,-184.25 1379.25,-124.94 1388.36,-92.09 1332,-54.5 1299.56,-32.86 1257,-23.83 1221.31,-20.32"/>
<polygon fill="black" stroke="black" points="1221.75,-16.84 1211.49,-19.49 1221.16,-23.82 1221.75,-16.84"/>
<text text-anchor="start" x="1416" y="-163.88" font-family="Courier New" font-weight="bold" font-size="10.00" fill="blue">ASSIGN(WSPRITE,surprised)</text>
</g>
<!-- 26 -->
<g id="node14" class="node">
<title>26</title>
<polyline fill="none" stroke="darkred" points="1594.75,-154.75 1617.25,-154.75"/>
<text text-anchor="start" x="1597.75" y="-161.95" font-family="Courier New" font-weight="bold" font-size="14.00">26</text>
<path fill="none" stroke="darkred" d="M1601.25,-151.75C1601.25,-151.75 1610.75,-151.75 1610.75,-151.75 1615.5,-151.75 1620.25,-156.5 1620.25,-161.25 1620.25,-161.25 1620.25,-170.75 1620.25,-170.75 1620.25,-175.5 1615.5,-180.25 1610.75,-180.25 1610.75,-180.25 1601.25,-180.25 1601.25,-180.25 1596.5,-180.25 1591.75,-175.5 1591.75,-170.75 1591.75,-170.75 1591.75,-161.25 1591.75,-161.25 1591.75,-156.5 1596.5,-151.75 1601.25,-151.75"/>
</g>
<!-- 26&#45;&gt;playForward -->
<g id="edge9" class="edge">
<title>26&#45;&gt;playForward</title>
<path fill="none" stroke="black" d="M1579.05,-149.75C1577.69,-149.06 1576.33,-148.39 1575,-147.75 1555.96,-138.6 1549.4,-140.14 1531,-129.75 1482.26,-102.21 1481.92,-75.42 1430,-54.5 1393.38,-39.74 1291.66,-29.56 1221.72,-24.07"/>
<polygon fill="black" stroke="black" points="1222.1,-20.58 1211.86,-23.31 1221.56,-27.56 1222.1,-20.58"/>
<text text-anchor="start" x="1535" y="-109.38" font-family="Courier New" font-weight="bold" font-size="10.00" fill="blue">ASSIGN(WSPRITE,stress)</text>
</g>
<!-- 27 -->
<g id="node15" class="node">
<title>27</title>
<polyline fill="none" stroke="darkred" points="1695.75,-100.25 1718.25,-100.25"/>
<text text-anchor="start" x="1698.75" y="-107.45" font-family="Courier New" font-weight="bold" font-size="14.00">27</text>
<path fill="none" stroke="darkred" d="M1702.25,-97.25C1702.25,-97.25 1711.75,-97.25 1711.75,-97.25 1716.5,-97.25 1721.25,-102 1721.25,-106.75 1721.25,-106.75 1721.25,-116.25 1721.25,-116.25 1721.25,-121 1716.5,-125.75 1711.75,-125.75 1711.75,-125.75 1702.25,-125.75 1702.25,-125.75 1697.5,-125.75 1692.75,-121 1692.75,-116.25 1692.75,-116.25 1692.75,-106.75 1692.75,-106.75 1692.75,-102 1697.5,-97.25 1702.25,-97.25"/>
</g>
<!-- 27&#45;&gt;playForward -->
<g id="edge10" class="edge">
<title>27&#45;&gt;playForward</title>
<path fill="none" stroke="black" d="M1680.2,-100.89C1643.6,-88.18 1575.71,-66.03 1516,-54.5 1414.84,-34.97 1295.7,-26.04 1221.75,-22.12"/>
<polygon fill="black" stroke="black" points="1221.96,-18.63 1211.79,-21.61 1221.6,-25.62 1221.96,-18.63"/>
<text text-anchor="start" x="1599" y="-62.75" font-family="Courier New" font-weight="bold" font-size="10.00" fill="blue">ASSIGN(WSPRITE,wave)</text>
</g>
<!-- 30 -->
<g id="node16" class="node">
<title>30</title>
<polyline fill="none" stroke="darkred" points="1058.75,-423.62 1081.25,-423.62"/>
<text text-anchor="start" x="1061.75" y="-430.82" font-family="Courier New" font-weight="bold" font-size="14.00">30</text>
<path fill="none" stroke="darkred" d="M1065.25,-420.62C1065.25,-420.62 1074.75,-420.62 1074.75,-420.62 1079.5,-420.62 1084.25,-425.38 1084.25,-430.12 1084.25,-430.12 1084.25,-439.62 1084.25,-439.62 1084.25,-444.38 1079.5,-449.12 1074.75,-449.12 1074.75,-449.12 1065.25,-449.12 1065.25,-449.12 1060.5,-449.12 1055.75,-444.38 1055.75,-439.62 1055.75,-439.62 1055.75,-430.12 1055.75,-430.12 1055.75,-425.38 1060.5,-420.62 1065.25,-420.62"/>
</g>
<!-- playDead -->
<g id="node17" class="node">
<title>playDead</title>
<polyline fill="none" stroke="darkred" points="948,-226.5 1020,-226.5"/>
<text text-anchor="start" x="951" y="-233.7" font-family="Courier New" font-weight="bold" font-size="14.00">playDead</text>
<path fill="none" stroke="darkred" d="M954.5,-223.5C954.5,-223.5 1013.5,-223.5 1013.5,-223.5 1018.25,-223.5 1023,-228.25 1023,-233 1023,-233 1023,-242.5 1023,-242.5 1023,-247.25 1018.25,-252 1013.5,-252 1013.5,-252 954.5,-252 954.5,-252 949.75,-252 945,-247.25 945,-242.5 945,-242.5 945,-233 945,-233 945,-228.25 949.75,-223.5 954.5,-223.5"/>
</g>
<!-- 30&#45;&gt;playDead -->
<g id="edge11" class="edge">
<title>30&#45;&gt;playDead</title>
<path fill="none" stroke="black" d="M1062.79,-416.71C1055.92,-402.05 1044.34,-381.23 1029,-367.5 1015.07,-355.04 1001.49,-364.97 991,-349.5 974.63,-325.35 975.18,-291.03 978.35,-267.01"/>
<polygon fill="black" stroke="black" points="981.78,-267.74 979.89,-257.31 974.87,-266.64 981.78,-267.74"/>
<text text-anchor="start" x="995" y="-318.25" font-family="Courier New" font-weight="bold" font-size="10.00" fill="blue">ASSIGN(WSPRITE,dead)</text>
</g>
<!-- playDead&#45;&gt;sitting -->
<g id="edge15" class="edge">
<title>playDead&#45;&gt;sitting</title>
<path fill="none" stroke="black" d="M951.32,-255.85C915.37,-276.72 859.58,-315.74 836,-367.5 811.17,-422 799.65,-454.66 836,-502.25 854.46,-526.41 880.9,-498.36 902,-520.25 909.1,-527.61 912.84,-537.84 914.76,-547.77"/>
<polygon fill="black" stroke="black" points="911.27,-548.14 916.05,-557.6 918.21,-547.23 911.27,-548.14"/>
<polygon fill="none" stroke="black" points="839,-480.5 839,-499.25 1031,-499.25 1031,-480.5 839,-480.5"/>
<text text-anchor="start" x="887" y="-487.75" font-family="Courier New" font-weight="bold" font-size="10.00" fill="blue">ASSIGN(BFRAME,0)</text>
<polygon fill="none" stroke="black" points="839,-370.5 839,-478.5 1031,-478.5 1031,-370.5 839,-370.5"/>
<text text-anchor="start" x="842" y="-466" font-family="Courier New" font-size="10.00" fill="blue"> &#160;&#160;&#160;MAP(WSPRITE,WPARM);</text>
<text text-anchor="start" x="842" y="-453.25" font-family="Courier New" font-size="10.00" fill="blue"> &#160;&#160;&#160;SHOW(0,WSPRITE);</text>
<text text-anchor="start" x="842" y="-440.5" font-family="Courier New" font-size="10.00" fill="blue"> &#160;&#160;&#160;VIDEO(0,WSPRITE);</text>
<text text-anchor="start" x="842" y="-427.75" font-family="Courier New" font-size="10.00" fill="blue"> &#160;&#160;&#160;ANIMATE(0,0);</text>
<text text-anchor="start" x="842" y="-415" font-family="Courier New" font-size="10.00" fill="blue"> &#160;&#160;&#160;ASSIGN(OENERGY,1);</text>
<text text-anchor="start" x="842" y="-402.25" font-family="Courier New" font-size="10.00" fill="blue"> &#160;&#160;&#160;ASSIGN(OWEALTH,0);</text>
<text text-anchor="start" x="842" y="-389.5" font-family="Courier New" font-size="10.00" fill="blue"> &#160;&#160;&#160;SIGNAL(SMP_VIAL,SIG_DRAIN);</text>
<text text-anchor="start" x="842" y="-376.75" font-family="Courier New" font-size="10.00" fill="blue"> &#160;&#160;&#160;LOADVIEW(IDV_VIL8);</text>
<polygon fill="none" stroke="black" points="836,-367.5 836,-502.25 1034,-502.25 1034,-367.5 836,-367.5"/>
</g>
<!-- 50 -->
<g id="node18" class="node">
<title>50</title>
<polyline fill="none" stroke="darkred" points="1312.75,-423.62 1335.25,-423.62"/>
<text text-anchor="start" x="1315.75" y="-430.82" font-family="Courier New" font-weight="bold" font-size="14.00">50</text>
<path fill="none" stroke="darkred" d="M1319.25,-420.62C1319.25,-420.62 1328.75,-420.62 1328.75,-420.62 1333.5,-420.62 1338.25,-425.38 1338.25,-430.12 1338.25,-430.12 1338.25,-439.62 1338.25,-439.62 1338.25,-444.38 1333.5,-449.12 1328.75,-449.12 1328.75,-449.12 1319.25,-449.12 1319.25,-449.12 1314.5,-449.12 1309.75,-444.38 1309.75,-439.62 1309.75,-439.62 1309.75,-430.12 1309.75,-430.12 1309.75,-425.38 1314.5,-420.62 1319.25,-420.62"/>
</g>
<!-- 51 -->
<g id="node19" class="node">
<title>51</title>
<polyline fill="none" stroke="darkred" points="1281.75,-226.5 1304.25,-226.5"/>
<text text-anchor="start" x="1284.75" y="-233.7" font-family="Courier New" font-weight="bold" font-size="14.00">51</text>
<path fill="none" stroke="darkred" d="M1288.25,-223.5C1288.25,-223.5 1297.75,-223.5 1297.75,-223.5 1302.5,-223.5 1307.25,-228.25 1307.25,-233 1307.25,-233 1307.25,-242.5 1307.25,-242.5 1307.25,-247.25 1302.5,-252 1297.75,-252 1297.75,-252 1288.25,-252 1288.25,-252 1283.5,-252 1278.75,-247.25 1278.75,-242.5 1278.75,-242.5 1278.75,-233 1278.75,-233 1278.75,-228.25 1283.5,-223.5 1288.25,-223.5"/>
</g>
<!-- 50&#45;&gt;51 -->
<g id="edge12" class="edge">
<title>50&#45;&gt;51</title>
<path fill="none" stroke="black" d="M1322.74,-416.63C1320.59,-389.69 1315.6,-336.07 1307,-291.25 1305.45,-283.16 1303.32,-274.48 1301.2,-266.55"/>
<polygon fill="black" stroke="black" points="1304.62,-265.78 1298.56,-257.09 1297.88,-267.66 1304.62,-265.78"/>
<text text-anchor="start" x="1319" y="-318.25" font-family="Courier New" font-weight="bold" font-size="10.00" fill="blue">VIDEO(0,IDS_EXPLODE1)</text>
</g>
<!-- 51&#45;&gt;21 -->
<g id="edge13" class="edge">
<title>51&#45;&gt;21</title>
<path fill="none" stroke="black" d="M1266.22,-219.6C1254.67,-210.61 1242.37,-198.5 1236,-184.25 1229.99,-170.79 1229.32,-154.44 1230.34,-140.75"/>
<polygon fill="black" stroke="black" points="1233.79,-141.38 1231.41,-131.05 1226.83,-140.61 1233.79,-141.38"/>
<text text-anchor="start" x="1240" y="-163.88" font-family="Courier New" font-weight="bold" font-size="10.00" fill="blue">PLAYWAVE(0,SOUND_EXPLODE)</text>
</g>
<!-- sitting&#45;&gt;0 -->
<g id="edge32" class="edge">
<title>sitting&#45;&gt;0</title>
<path fill="none" stroke="black" d="M962.82,-590.62C980.35,-596.28 998.54,-605.73 1009,-621.5 1125.15,-796.59 1147.63,-936.36 1009,-1094.25 988.59,-1117.49 898.47,-1098.04 871,-1112.25 864.56,-1115.59 858.67,-1120.56 853.61,-1125.85"/>
<polygon fill="black" stroke="black" points="851.25,-1123.23 847.36,-1133.08 856.54,-1127.8 851.25,-1123.23"/>
<text text-anchor="start" x="1108" y="-836.62" font-family="Courier New" font-weight="bold" font-size="10.00" fill="orange">WAIT(0,0)</text>
</g>
<!-- sitting&#45;&gt;100 -->
<g id="edge31" class="edge">
<title>sitting&#45;&gt;100</title>
<path fill="none" stroke="black" d="M869.37,-580.37C721.82,-580.37 271.67,-577.35 218,-541 192.21,-523.53 179.7,-488.79 173.83,-464.03"/>
<polygon fill="black" stroke="black" points="177.26,-463.34 171.77,-454.28 170.41,-464.78 177.26,-463.34"/>
<text text-anchor="start" x="222" y="-528.5" font-family="Courier New" font-weight="bold" font-size="10.00" fill="orange">WAIT(0,SIG_CLEAR)</text>
</g>
<!-- sitting&#45;&gt;20 -->
<g id="edge21" class="edge">
<title>sitting&#45;&gt;20</title>
<path fill="none" stroke="black" d="M869.3,-579.4C807.32,-577.16 702.91,-569.19 679,-541 673.04,-533.97 674.58,-528.34 679,-520.25 686.09,-507.27 699.24,-514.85 707,-502.25 736.06,-455.07 734.21,-387.57 730.17,-349.78"/>
<polygon fill="black" stroke="black" points="733.67,-349.63 729,-340.13 726.72,-350.47 733.67,-349.63"/>
<text text-anchor="start" x="683" y="-528.5" font-family="Courier New" font-weight="bold" font-size="10.00" fill="orange">WAIT(0,SIG_HAPPY)</text>
</g>
<!-- sitting&#45;&gt;21 -->
<g id="edge22" class="edge">
<title>sitting&#45;&gt;21</title>
<path fill="none" stroke="black" d="M962.69,-576.29C1043.83,-568.27 1205.15,-546.97 1236,-502.25 1270.01,-452.95 1267.76,-418.27 1236,-367.5 1226.3,-352 1208.7,-365 1199,-349.5 1185.27,-327.55 1196.68,-317.03 1199,-291.25 1204.8,-226.69 1210.36,-210.89 1225,-147.75 1225.54,-145.43 1226.13,-143.03 1226.76,-140.62"/>
<polygon fill="black" stroke="black" points="1230.1,-141.65 1229.38,-131.08 1223.35,-139.8 1230.1,-141.65"/>
<text text-anchor="start" x="1203" y="-318.25" font-family="Courier New" font-weight="bold" font-size="10.00" fill="orange">WAIT(0,SIG_HURT)</text>
</g>
<!-- sitting&#45;&gt;22 -->
<g id="edge23" class="edge">
<title>sitting&#45;&gt;22</title>
<path fill="none" stroke="black" d="M869.24,-578.74C774.15,-575.2 565.4,-564.77 544,-541 537.83,-534.15 538.19,-527.41 544,-520.25 568.62,-489.94 598.03,-524.68 630,-502.25 643.56,-492.73 653.52,-477.16 660.23,-463.49"/>
<polygon fill="black" stroke="black" points="663.38,-465.02 664.29,-454.47 656.99,-462.15 663.38,-465.02"/>
<text text-anchor="start" x="548" y="-528.5" font-family="Courier New" font-weight="bold" font-size="10.00" fill="orange">WAIT(0,SIG_KISS)</text>
</g>
<!-- sitting&#45;&gt;23 -->
<g id="edge24" class="edge">
<title>sitting&#45;&gt;23</title>
<path fill="none" stroke="black" d="M869.3,-575.69C846,-570.86 819.54,-561.02 804,-541 760.49,-484.94 770.04,-394.86 778.62,-349.46"/>
<polygon fill="black" stroke="black" points="782,-350.4 780.55,-339.9 775.14,-349.01 782,-350.4"/>
<text text-anchor="start" x="808" y="-528.5" font-family="Courier New" font-weight="bold" font-size="10.00" fill="orange">WAIT(0,SIG_MAD)</text>
</g>
<!-- sitting&#45;&gt;24 -->
<g id="edge25" class="edge">
<title>sitting&#45;&gt;24</title>
<path fill="none" stroke="black" d="M962.7,-577.63C1015.27,-573.59 1095.87,-563.79 1115,-541 1158.65,-489.02 1119.11,-272.98 1103.05,-195.12"/>
<polygon fill="black" stroke="black" points="1106.48,-194.41 1101.01,-185.34 1099.63,-195.85 1106.48,-194.41"/>
<text text-anchor="start" x="1138" y="-432.75" font-family="Courier New" font-weight="bold" font-size="10.00" fill="orange">WAIT(0,SIG_SAD)</text>
</g>
<!-- sitting&#45;&gt;25 -->
<g id="edge26" class="edge">
<title>sitting&#45;&gt;25</title>
<path fill="none" stroke="black" d="M962.74,-579.12C1076.7,-575.98 1362.09,-565.73 1397,-541 1430.17,-517.51 1469.58,-402.7 1486.54,-349.07"/>
<polygon fill="black" stroke="black" points="1489.81,-350.35 1489.45,-339.76 1483.13,-348.26 1489.81,-350.35"/>
<text text-anchor="start" x="1418" y="-528.5" font-family="Courier New" font-weight="bold" font-size="10.00" fill="orange">WAIT(0,SIG_SURPRISED)</text>
</g>
<!-- sitting&#45;&gt;26 -->
<g id="edge27" class="edge">
<title>sitting&#45;&gt;26</title>
<path fill="none" stroke="black" d="M962.58,-580.69C1101.98,-581.57 1508.93,-580.68 1552,-541 1558.4,-535.1 1591.32,-281.8 1602.37,-195.47"/>
<polygon fill="black" stroke="black" points="1605.82,-196.08 1603.62,-185.72 1598.88,-195.2 1605.82,-196.08"/>
<text text-anchor="start" x="1583" y="-432.75" font-family="Courier New" font-weight="bold" font-size="10.00" fill="orange">WAIT(0,SIG_STRESS)</text>
</g>
<!-- sitting&#45;&gt;27 -->
<g id="edge28" class="edge">
<title>sitting&#45;&gt;27</title>
<path fill="none" stroke="black" d="M962.63,-579.45C1124.26,-576.17 1653.16,-560.98 1698,-502.25 1781.87,-392.41 1737.67,-209.84 1716.35,-140.43"/>
<polygon fill="black" stroke="black" points="1719.72,-139.48 1713.36,-131 1713.05,-141.59 1719.72,-139.48"/>
<text text-anchor="start" x="1751" y="-318.25" font-family="Courier New" font-weight="bold" font-size="10.00" fill="orange">WAIT(0,SIG_WAVE)</text>
</g>
<!-- sitting&#45;&gt;30 -->
<g id="edge29" class="edge">
<title>sitting&#45;&gt;30</title>
<path fill="none" stroke="black" d="M954.59,-559.13C977.96,-545.08 1007.32,-525.06 1029,-502.25 1039.93,-490.74 1049.45,-475.86 1056.55,-463.11"/>
<polygon fill="black" stroke="black" points="1059.61,-464.82 1061.22,-454.35 1053.43,-461.53 1059.61,-464.82"/>
<text text-anchor="start" x="1011" y="-528.5" font-family="Courier New" font-weight="bold" font-size="10.00" fill="orange">WAIT(0,SIG_DEAD)</text>
</g>
<!-- sitting&#45;&gt;50 -->
<g id="edge30" class="edge">
<title>sitting&#45;&gt;50</title>
<path fill="none" stroke="black" d="M962.81,-580.43C1047.34,-579.89 1221.25,-574.59 1270,-541 1296.11,-523.01 1310.37,-488.44 1317.58,-463.85"/>
<polygon fill="black" stroke="black" points="1320.88,-465.06 1320.1,-454.49 1314.12,-463.24 1320.88,-465.06"/>
<text text-anchor="start" x="1294" y="-528.5" font-family="Courier New" font-weight="bold" font-size="10.00" fill="orange">WAIT(0,SIG_BOMB)</text>
</g>
<!-- setId&#45;&gt;sitting -->
<g id="edge20" class="edge">
<title>setId&#45;&gt;sitting</title>
<path fill="none" stroke="black" d="M773.74,-710.85C791.99,-688.94 825.78,-650.16 859,-621.5 863.55,-617.58 868.49,-613.69 873.51,-609.97"/>
<polygon fill="black" stroke="black" points="875.22,-613.05 881.31,-604.38 871.14,-607.36 875.22,-613.05"/>
<polygon fill="none" stroke="black" points="862,-670.75 862,-689.5 1006,-689.5 1006,-670.75 862,-670.75"/>
<text text-anchor="start" x="871" y="-678" font-family="Courier New" font-weight="bold" font-size="10.00" fill="blue">ASSIGN(WSPRITE,happy)</text>
<polygon fill="none" stroke="black" points="862,-624.5 862,-668.75 1006,-668.75 1006,-624.5 862,-624.5"/>
<text text-anchor="start" x="865" y="-656.25" font-family="Courier New" font-size="10.00" fill="blue"> &#160;&#160;&#160;MAP(WSPRITE,WPARM);</text>
<text text-anchor="start" x="865" y="-643.5" font-family="Courier New" font-size="10.00" fill="blue"> &#160;&#160;&#160;ASSIGN(BFRAME,0);</text>
<text text-anchor="start" x="865" y="-630.75" font-family="Courier New" font-size="10.00" fill="blue"> &#160;&#160;&#160;SHOW(WSPRITE);</text>
<polygon fill="none" stroke="black" points="859,-621.5 859,-692.5 1009,-692.5 1009,-621.5 859,-621.5"/>
</g>
<!-- status -->
<g id="node22" class="node">
<title>status</title>
<polygon fill="none" stroke="black" points="880,-1112.75 880,-1191.75 1514,-1191.75 1514,-1112.75 880,-1112.75"/>
<polygon fill="none" stroke="black" points="891,-1166 891,-1184.75 1503,-1184.75 1503,-1166 891,-1166"/>
<text text-anchor="start" x="1179" y="-1173.25" font-family="Courier New" font-weight="bold" font-size="10.00">SOD_ID</text>
<polygon fill="none" stroke="black" points="891,-1119.75 891,-1164 1503,-1164 1503,-1119.75 891,-1119.75"/>
<text text-anchor="start" x="894" y="-1151.5" font-family="Courier New" font-size="10.00" fill="green">VIEW::IDV_OTHERID @pos(x:0, y:0, h:101, w:171)</text>
<text text-anchor="start" x="894" y="-1138.75" font-family="Courier New" font-size="10.00" fill="green">SOD_ID::M_OID(&#39;OWISDOM&#39;,&#39;OSEX&#39;,&#39;0&#39;,&#39;SOD_AURA&#39;,&#39;&#39;,&#39;&#39;)</text>
<text text-anchor="start" x="894" y="-1126" font-family="Courier New" font-size="10.00" fill="green">{state:&#39;sitting&#39;: bParm:108.82.186.169:49741 wParm:M3 wSprite:IDS_MID3HAPPY bFrame:0 Top:0 Left:0 Z:0</text>
<polygon fill="none" stroke="black" points="888,-1116.75 888,-1187.75 1506,-1187.75 1506,-1116.75 888,-1116.75"/>
</g>
</g>
</svg>
