<?xml version="1.0" encoding="UTF-8" standalone="no"?>
<!DOCTYPE svg PUBLIC "-//W3C//DTD SVG 1.1//EN"
 "http://www.w3.org/Graphics/SVG/1.1/DTD/svg11.dtd">
<!-- Generated by graphviz version 10.0.1 (20240210.2158)
 -->
<!-- Title: Automaton Pages: 1 -->
<svg width="771pt" height="707pt"
 viewBox="0.00 0.00 771.20 706.75" xmlns="http://www.w3.org/2000/svg" xmlns:xlink="http://www.w3.org/1999/xlink">
<g id="graph0" class="graph" transform="scale(1 1) rotate(0) translate(4 702.75)">
<title>Automaton</title>
<polygon fill="white" stroke="none" points="-4,4 -4,-702.75 767.2,-702.75 767.2,4 -4,4"/>
<!-- filename -->
<g id="node1" class="node">
<title>filename</title>
<polygon fill="none" stroke="black" points="131.2,-632 131.2,-685.5 267.2,-685.5 267.2,-632 131.2,-632"/>
<polygon fill="none" stroke="black" points="142.2,-659.75 142.2,-678.5 256.2,-678.5 256.2,-659.75 142.2,-659.75"/>
<text text-anchor="start" x="145.2" y="-667" font-family="Courier New" font-weight="bold" font-size="10.00">SOD_AURA::M_O_AURA</text>
<polygon fill="none" stroke="black" points="142.2,-639 142.2,-657.75 256.2,-657.75 256.2,-639 142.2,-639"/>
<text text-anchor="start" x="154.2" y="-645.25" font-family="Courier New" font-size="10.00" fill="brown">start state = 0</text>
<polygon fill="none" stroke="black" points="139.2,-636 139.2,-681.5 259.2,-681.5 259.2,-636 139.2,-636"/>
</g>
<!-- 0 -->
<g id="node2" class="node">
<title>0</title>
<polyline fill="none" stroke="darkred" points="305.07,-647.5 319.32,-647.5"/>
<text text-anchor="start" x="308.07" y="-654.7" font-family="Courier New" font-weight="bold" font-size="14.00">0</text>
<path fill="none" stroke="darkred" d="M308.82,-644.5C308.82,-644.5 315.57,-644.5 315.57,-644.5 318.95,-644.5 322.32,-647.88 322.32,-651.25 322.32,-651.25 322.32,-666.25 322.32,-666.25 322.32,-669.62 318.95,-673 315.57,-673 315.57,-673 308.82,-673 308.82,-673 305.45,-673 302.07,-669.62 302.07,-666.25 302.07,-666.25 302.07,-651.25 302.07,-651.25 302.07,-647.88 305.45,-644.5 308.82,-644.5"/>
</g>
<!-- energyBoost -->
<g id="node3" class="node">
<title>energyBoost</title>
<polyline fill="none" stroke="darkred" points="263.82,-532.5 360.57,-532.5"/>
<text text-anchor="start" x="266.82" y="-539.7" font-family="Courier New" font-weight="bold" font-size="14.00">energyBoost</text>
<path fill="none" stroke="darkred" d="M270.32,-529.5C270.32,-529.5 354.07,-529.5 354.07,-529.5 358.82,-529.5 363.57,-534.25 363.57,-539 363.57,-539 363.57,-548.5 363.57,-548.5 363.57,-553.25 358.82,-558 354.07,-558 354.07,-558 270.32,-558 270.32,-558 265.57,-558 260.82,-553.25 260.82,-548.5 260.82,-548.5 260.82,-539 260.82,-539 260.82,-534.25 265.57,-529.5 270.32,-529.5"/>
</g>
<!-- 0&#45;&gt;energyBoost -->
<g id="edge1" class="edge">
<title>0&#45;&gt;energyBoost</title>
<path fill="none" stroke="black" d="M312.2,-640.59C312.2,-622.65 312.2,-594.2 312.2,-572.95"/>
<polygon fill="black" stroke="black" points="315.7,-573.22 312.2,-563.22 308.7,-573.22 315.7,-573.22"/>
<text text-anchor="start" x="316.2" y="-588.25" font-family="Courier New" font-weight="bold" font-size="10.00" fill="orange">WAIT(0,SIG_MYAURA)</text>
</g>
<!-- 1 -->
<g id="node4" class="node">
<title>1</title>
<polyline fill="none" stroke="darkred" stroke-width="3" points="304.57,-301.12 319.82,-301.12"/>
<text text-anchor="start" x="308.07" y="-308.82" font-family="Courier New" font-weight="bold" font-size="14.00">1</text>
<path fill="none" stroke="darkred" stroke-width="3" d="M307.99,-296.12C307.99,-296.12 316.41,-296.12 316.41,-296.12 320.62,-296.12 324.82,-300.33 324.82,-304.54 324.82,-304.54 324.82,-321.21 324.82,-321.21 324.82,-325.42 320.62,-329.62 316.41,-329.62 316.41,-329.62 307.99,-329.62 307.99,-329.62 303.78,-329.62 299.57,-325.42 299.57,-321.21 299.57,-321.21 299.57,-304.54 299.57,-304.54 299.57,-300.33 303.78,-296.12 307.99,-296.12"/>
</g>
<!-- energyBoost&#45;&gt;1 -->
<g id="edge6" class="edge">
<title>energyBoost&#45;&gt;1</title>
<path fill="none" stroke="black" d="M253.09,-539.42C175.26,-534.42 46.56,-523.78 32.2,-507.5 -11.16,-458.34 -10.22,-409.98 32.2,-360 62.79,-323.96 204.85,-316.03 274.08,-314.32"/>
<polygon fill="black" stroke="black" points="273.89,-317.83 283.81,-314.12 273.74,-310.83 273.89,-317.83"/>
<polygon fill="none" stroke="black" points="35.2,-485.75 35.2,-504.5 305.2,-504.5 305.2,-485.75 35.2,-485.75"/>
<text text-anchor="start" x="128.2" y="-493" font-family="Courier New" font-weight="bold" font-size="10.00" fill="blue">ASSIGN(WPARM,)</text>
<polygon fill="none" stroke="black" points="35.2,-363 35.2,-483.75 305.2,-483.75 305.2,-363 35.2,-363"/>
<text text-anchor="start" x="38.2" y="-471.25" font-family="Courier New" font-size="10.00" fill="blue"> &#160;&#160;&#160;&#160;&#160;&#160;if(OENERGY &gt; (MAX_AURAS &#45; 1)){</text>
<text text-anchor="start" x="38.2" y="-458.5" font-family="Courier New" font-size="10.00" fill="blue"> &#160;&#160;&#160;&#160;&#160;&#160;&#160;&#160;&#160;&#160;&#160;&#160;ASSIGN(OENERGY,(MAX_AURAS &#45;1));</text>
<text text-anchor="start" x="38.2" y="-445.75" font-family="Courier New" font-size="10.00" fill="blue"> &#160;&#160;&#160;&#160;&#160;&#160;}</text>
<text text-anchor="start" x="38.2" y="-433" font-family="Courier New" font-size="10.00" fill="blue"> &#160;&#160;&#160;&#160;&#160;&#160;&#160;ASSIGN(BPARM,OENERGY);</text>
<text text-anchor="start" x="38.2" y="-420.25" font-family="Courier New" font-size="10.00" fill="blue"> &#160;&#160;&#160;&#160;&#160;&#160;&#160;MOV(WSPRITE,BPARM);</text>
<text text-anchor="start" x="38.2" y="-407.5" font-family="Courier New" font-size="10.00" fill="blue"> &#160;&#160;&#160;&#160;&#160;&#160;&#160;MAPi(WSPRITE,S00_AURA_MAP);</text>
<text text-anchor="start" x="38.2" y="-394.75" font-family="Courier New" font-size="10.00" fill="blue"> &#160;&#160;&#160;&#160;&#160;&#160;&#160;SHOW(WSPRITE);</text>
<text text-anchor="start" x="38.2" y="-382" font-family="Courier New" font-size="10.00" fill="blue"> &#160;&#160;&#160;&#160;&#160;&#160;&#160;ANIMATE(WPARM);</text>
<text text-anchor="start" x="38.2" y="-369.25" font-family="Courier New" font-size="10.00" fill="blue"> &#160;&#160;&#160;&#160;&#160;&#160;&#160;SIGNALi(0,SOD_ID);</text>
<polygon fill="none" stroke="black" points="32.2,-360 32.2,-507.5 308.2,-507.5 308.2,-360 32.2,-360"/>
</g>
<!-- 1&#45;&gt;energyBoost -->
<g id="edge2" class="edge">
<title>1&#45;&gt;energyBoost</title>
<path fill="none" stroke="black" d="M312.2,-334.87C312.2,-376.06 312.2,-467.53 312.2,-514.18"/>
<polygon fill="black" stroke="black" points="308.7,-514.03 312.2,-524.03 315.7,-514.03 308.7,-514.03"/>
<text text-anchor="start" x="316.2" y="-431.62" font-family="Courier New" font-weight="bold" font-size="10.00" fill="orange">WAIT(0,SIG_ADD)</text>
</g>
<!-- 1&#45;&gt;energyBoost -->
<g id="edge5" class="edge">
<title>1&#45;&gt;energyBoost</title>
<path fill="none" stroke="black" d="M338.89,-318.17C362.44,-323.53 395.4,-335.22 411.2,-360 446.43,-415.28 448.99,-453.93 411.2,-507.5 403.99,-517.72 393.55,-524.99 382.12,-530.16"/>
<polygon fill="black" stroke="black" points="380.86,-526.89 372.82,-533.79 383.41,-533.41 380.86,-526.89"/>
<text text-anchor="start" x="442.2" y="-431.62" font-family="Courier New" font-weight="bold" font-size="10.00" fill="orange">WAIT(0,0)</text>
</g>
<!-- 1&#45;&gt;1 -->
<g id="edge4" class="edge">
<title>1&#45;&gt;1</title>
<path fill="none" stroke="black" d="M336.27,-335.09C347.44,-337.51 357.2,-330.11 357.2,-312.88 357.2,-301.83 353.19,-294.83 347.38,-291.85"/>
<polygon fill="black" stroke="black" points="348.09,-288.41 337.78,-290.82 347.35,-295.37 348.09,-288.41"/>
<polygon fill="none" stroke="black" points="360.2,-320.25 360.2,-339 534.2,-339 534.2,-320.25 360.2,-320.25"/>
<text text-anchor="start" x="396.2" y="-327.5" font-family="Courier New" font-weight="bold" font-size="10.00" fill="orange">WAIT(0,SIG_CLEAR)</text>
<polygon fill="none" stroke="black" points="360.2,-286.75 360.2,-318.25 534.2,-318.25 534.2,-286.75 360.2,-286.75"/>
<text text-anchor="start" x="363.2" y="-305.75" font-family="Courier New" font-size="10.00" fill="blue"> &#160;WRITE(&quot;Clear the aura&quot;); &#160;</text>
<text text-anchor="start" x="363.2" y="-293" font-family="Courier New" font-size="10.00" fill="blue"> &#160;SHOW(0);</text>
<polygon fill="none" stroke="black" points="357.2,-283.75 357.2,-342 537.2,-342 537.2,-283.75 357.2,-283.75"/>
</g>
<!-- energyDrain -->
<g id="node5" class="node">
<title>energyDrain</title>
<polyline fill="none" stroke="darkred" points="263.82,-7 360.57,-7"/>
<text text-anchor="start" x="266.82" y="-14.2" font-family="Courier New" font-weight="bold" font-size="14.00">energyDrain</text>
<path fill="none" stroke="darkred" d="M270.32,-4C270.32,-4 354.07,-4 354.07,-4 358.82,-4 363.57,-8.75 363.57,-13.5 363.57,-13.5 363.57,-23 363.57,-23 363.57,-27.75 358.82,-32.5 354.07,-32.5 354.07,-32.5 270.32,-32.5 270.32,-32.5 265.57,-32.5 260.82,-27.75 260.82,-23 260.82,-23 260.82,-13.5 260.82,-13.5 260.82,-8.75 265.57,-4 270.32,-4"/>
</g>
<!-- 1&#45;&gt;energyDrain -->
<g id="edge3" class="edge">
<title>1&#45;&gt;energyDrain</title>
<path fill="none" stroke="black" d="M285.42,-298.33C273.2,-290.6 259.98,-279.66 253.2,-265.75 212.05,-181.36 206.86,-136.16 253.2,-54.5 255.55,-50.36 258.6,-46.65 262.08,-43.34"/>
<polygon fill="black" stroke="black" points="264.04,-46.25 269.66,-37.27 259.67,-40.79 264.04,-46.25"/>
<text text-anchor="start" x="257.2" y="-158" font-family="Courier New" font-weight="bold" font-size="10.00" fill="orange">WAIT(0,SIG_SUB)</text>
</g>
<!-- energyDrain&#45;&gt;1 -->
<g id="edge7" class="edge">
<title>energyDrain&#45;&gt;1</title>
<path fill="none" stroke="black" d="M337.55,-36.49C343.07,-41.59 348.16,-47.66 351.2,-54.5 389.31,-140.31 383.48,-177.58 351.2,-265.75 349.08,-271.54 345.88,-277.09 342.21,-282.23"/>
<polygon fill="black" stroke="black" points="339.68,-279.79 336.16,-289.78 345.14,-284.16 339.68,-279.79"/>
<polygon fill="none" stroke="black" points="380.2,-244 380.2,-262.75 608.2,-262.75 608.2,-244 380.2,-244"/>
<text text-anchor="start" x="425.2" y="-251.25" font-family="Courier New" font-weight="bold" font-size="10.00" fill="blue">ASSIGN(WPARM,V_REVERSE)</text>
<polygon fill="none" stroke="black" points="380.2,-57.5 380.2,-242 608.2,-242 608.2,-57.5 380.2,-57.5"/>
<text text-anchor="start" x="383.2" y="-229.5" font-family="Courier New" font-size="10.00" fill="blue"> &#160;&#160;&#160;&#160;&#160;&#160;&#160;if(OENERGY &lt;= 1){</text>
<text text-anchor="start" x="383.2" y="-216.75" font-family="Courier New" font-size="10.00" fill="blue"> &#160;&#160;&#160;&#160;&#160;&#160;&#160;&#160;&#160;&#160;&#160;&#160;ASSIGN(OENERGY,1);</text>
<text text-anchor="start" x="383.2" y="-204" font-family="Courier New" font-size="10.00" fill="blue"> &#160;&#160;&#160;&#160;&#160;&#160;} &#160;&#160;&#160;&#160;&#160;</text>
<text text-anchor="start" x="383.2" y="-191.25" font-family="Courier New" font-size="10.00" fill="blue"> &#160;&#160;&#160;&#160;&#160;&#160;ASSIGN(BPARM,OENERGY);</text>
<text text-anchor="start" x="383.2" y="-178.5" font-family="Courier New" font-size="10.00" fill="blue"> &#160;&#160;&#160;&#160;&#160;&#160;&#160;MOV(WSPRITE,BPARM);</text>
<text text-anchor="start" x="383.2" y="-165.75" font-family="Courier New" font-size="10.00" fill="blue"> &#160;&#160;&#160;&#160;&#160;&#160;&#160;MAPi(WSPRITE,S00_AURA_MAP);</text>
<text text-anchor="start" x="383.2" y="-153" font-family="Courier New" font-size="10.00" fill="blue"> &#160;&#160;&#160;&#160;&#160;&#160;&#160;SHOW(WSPRITE);</text>
<text text-anchor="start" x="383.2" y="-140.25" font-family="Courier New" font-size="10.00" fill="blue"> &#160;&#160;&#160;&#160;&#160;&#160;&#160;ANIMATE(WPARM);</text>
<text text-anchor="start" x="383.2" y="-127.5" font-family="Courier New" font-size="10.00" fill="blue"> &#160;&#160;&#160;&#160;&#160;&#160;&#160;SIGNALi(0,SOD_ID);</text>
<text text-anchor="start" x="383.2" y="-114.75" font-family="Courier New" font-size="10.00" fill="blue"> &#160;&#160;&#160;&#160;&#160;&#160;&#160;</text>
<text text-anchor="start" x="383.2" y="-102" font-family="Courier New" font-size="10.00" fill="blue"> &#160;&#160;&#160;&#160;&#160;&#160;&#160;if(OENERGY &lt;= 1){</text>
<text text-anchor="start" x="383.2" y="-89.25" font-family="Courier New" font-size="10.00" fill="blue"> &#160;&#160;&#160;&#160;&#160;&#160;&#160;&#160;&#160;&#160;&#160;&#160;ASSIGN(OENERGY,1);</text>
<text text-anchor="start" x="383.2" y="-76.5" font-family="Courier New" font-size="10.00" fill="blue"> &#160;&#160;&#160;&#160;&#160;&#160;&#160;&#160;&#160;&#160;&#160;&#160;SIGNAL(SOD_ID,SIG_DEAD);</text>
<text text-anchor="start" x="383.2" y="-63.75" font-family="Courier New" font-size="10.00" fill="blue"> &#160;&#160;&#160;&#160;&#160;&#160;} &#160;&#160;</text>
<polygon fill="none" stroke="black" points="377.2,-54.5 377.2,-265.75 611.2,-265.75 611.2,-54.5 377.2,-54.5"/>
</g>
<!-- status -->
<g id="node6" class="node">
<title>status</title>
<polygon fill="none" stroke="black" points="357.2,-619.25 357.2,-698.25 763.2,-698.25 763.2,-619.25 357.2,-619.25"/>
<polygon fill="none" stroke="black" points="368.2,-672.5 368.2,-691.25 752.2,-691.25 752.2,-672.5 368.2,-672.5"/>
<text text-anchor="start" x="536.2" y="-679.75" font-family="Courier New" font-weight="bold" font-size="10.00">SOD_AURA</text>
<polygon fill="none" stroke="black" points="368.2,-626.25 368.2,-670.5 752.2,-670.5 752.2,-626.25 368.2,-626.25"/>
<text text-anchor="start" x="371.2" y="-658" font-family="Courier New" font-size="10.00" fill="green">VIEW::IDV_OTHERID @pos(x:0, y:0, h:10, w:10)</text>
<text text-anchor="start" x="371.2" y="-645.25" font-family="Courier New" font-size="10.00" fill="green">SOD_AURA::M_O_AURA(&#39;&#39;,&#39;&#39;,&#39;&#39;,&#39;&#39;,&#39;&#39;,&#39;&#39;)</text>
<text text-anchor="start" x="371.2" y="-632.5" font-family="Courier New" font-size="10.00" fill="green">{state:&#39;1&#39;: bParm:4 wSprite:IDS_AURA4 bFrame:4 Top:0 Left:0 Z:0</text>
<polygon fill="none" stroke="black" points="365.2,-623.25 365.2,-694.25 755.2,-694.25 755.2,-623.25 365.2,-623.25"/>
</g>
</g>
</svg>
