<?xml version="1.0" encoding="UTF-8" standalone="no"?>
<!DOCTYPE svg PUBLIC "-//W3C//DTD SVG 1.1//EN"
 "http://www.w3.org/Graphics/SVG/1.1/DTD/svg11.dtd">
<!-- Generated by graphviz version 10.0.1 (20240210.2158)
 -->
<!-- Title: Automaton Pages: 1 -->
<svg width="853pt" height="707pt"
 viewBox="0.00 0.00 852.78 706.75" xmlns="http://www.w3.org/2000/svg" xmlns:xlink="http://www.w3.org/1999/xlink">
<g id="graph0" class="graph" transform="scale(1 1) rotate(0) translate(4 702.75)">
<title>Automaton</title>
<polygon fill="white" stroke="none" points="-4,4 -4,-702.75 848.78,-702.75 848.78,4 -4,4"/>
<!-- filename -->
<g id="node1" class="node">
<title>filename</title>
<polygon fill="none" stroke="black" points="212.78,-632 212.78,-685.5 348.78,-685.5 348.78,-632 212.78,-632"/>
<polygon fill="none" stroke="black" points="223.78,-659.75 223.78,-678.5 337.78,-678.5 337.78,-659.75 223.78,-659.75"/>
<text text-anchor="start" x="226.78" y="-667" font-family="Courier New" font-weight="bold" font-size="10.00">SOD_AURA::M_O_AURA</text>
<polygon fill="none" stroke="black" points="223.78,-639 223.78,-657.75 337.78,-657.75 337.78,-639 223.78,-639"/>
<text text-anchor="start" x="235.78" y="-645.25" font-family="Courier New" font-size="10.00" fill="brown">start state = 0</text>
<polygon fill="none" stroke="black" points="220.78,-636 220.78,-681.5 340.78,-681.5 340.78,-636 220.78,-636"/>
</g>
<!-- 0 -->
<g id="node2" class="node">
<title>0</title>
<polyline fill="none" stroke="darkred" points="386.66,-647.5 400.91,-647.5"/>
<text text-anchor="start" x="389.66" y="-654.7" font-family="Courier New" font-weight="bold" font-size="14.00">0</text>
<path fill="none" stroke="darkred" d="M390.41,-644.5C390.41,-644.5 397.16,-644.5 397.16,-644.5 400.53,-644.5 403.91,-647.88 403.91,-651.25 403.91,-651.25 403.91,-666.25 403.91,-666.25 403.91,-669.62 400.53,-673 397.16,-673 397.16,-673 390.41,-673 390.41,-673 387.03,-673 383.66,-669.62 383.66,-666.25 383.66,-666.25 383.66,-651.25 383.66,-651.25 383.66,-647.88 387.03,-644.5 390.41,-644.5"/>
</g>
<!-- energyBoost -->
<g id="node3" class="node">
<title>energyBoost</title>
<polyline fill="none" stroke="darkred" points="345.41,-532.5 442.16,-532.5"/>
<text text-anchor="start" x="348.41" y="-539.7" font-family="Courier New" font-weight="bold" font-size="14.00">energyBoost</text>
<path fill="none" stroke="darkred" d="M351.91,-529.5C351.91,-529.5 435.66,-529.5 435.66,-529.5 440.41,-529.5 445.16,-534.25 445.16,-539 445.16,-539 445.16,-548.5 445.16,-548.5 445.16,-553.25 440.41,-558 435.66,-558 435.66,-558 351.91,-558 351.91,-558 347.16,-558 342.41,-553.25 342.41,-548.5 342.41,-548.5 342.41,-539 342.41,-539 342.41,-534.25 347.16,-529.5 351.91,-529.5"/>
</g>
<!-- 0&#45;&gt;energyBoost -->
<g id="edge1" class="edge">
<title>0&#45;&gt;energyBoost</title>
<path fill="none" stroke="black" d="M393.78,-640.59C393.78,-622.65 393.78,-594.2 393.78,-572.95"/>
<polygon fill="black" stroke="black" points="397.28,-573.22 393.78,-563.22 390.28,-573.22 397.28,-573.22"/>
<text text-anchor="start" x="397.78" y="-588.25" font-family="Courier New" font-weight="bold" font-size="10.00" fill="orange">WAIT(0,SIG_MYAURA)</text>
</g>
<!-- 1 -->
<g id="node4" class="node">
<title>1</title>
<polyline fill="none" stroke="darkred" stroke-width="3" points="386.16,-301.12 401.41,-301.12"/>
<text text-anchor="start" x="389.66" y="-308.82" font-family="Courier New" font-weight="bold" font-size="14.00">1</text>
<path fill="none" stroke="darkred" stroke-width="3" d="M389.58,-296.12C389.58,-296.12 397.99,-296.12 397.99,-296.12 402.2,-296.12 406.41,-300.33 406.41,-304.54 406.41,-304.54 406.41,-321.21 406.41,-321.21 406.41,-325.42 402.2,-329.62 397.99,-329.62 397.99,-329.62 389.58,-329.62 389.58,-329.62 385.37,-329.62 381.16,-325.42 381.16,-321.21 381.16,-321.21 381.16,-304.54 381.16,-304.54 381.16,-300.33 385.37,-296.12 389.58,-296.12"/>
</g>
<!-- energyBoost&#45;&gt;1 -->
<g id="edge7" class="edge">
<title>energyBoost&#45;&gt;1</title>
<path fill="none" stroke="black" d="M334.72,-541.24C237.54,-538.13 52.64,-529.39 32.78,-507.5 -11.26,-458.94 -10.53,-409.2 32.78,-360 53.89,-336.03 266.88,-321.15 355.46,-315.95"/>
<polygon fill="black" stroke="black" points="355.56,-319.45 365.34,-315.39 355.16,-312.46 355.56,-319.45"/>
<polygon fill="none" stroke="black" points="35.78,-485.75 35.78,-504.5 305.78,-504.5 305.78,-485.75 35.78,-485.75"/>
<text text-anchor="start" x="128.78" y="-493" font-family="Courier New" font-weight="bold" font-size="10.00" fill="blue">ASSIGN(WPARM,)</text>
<polygon fill="none" stroke="black" points="35.78,-363 35.78,-483.75 305.78,-483.75 305.78,-363 35.78,-363"/>
<text text-anchor="start" x="38.78" y="-471.25" font-family="Courier New" font-size="10.00" fill="blue"> &#160;&#160;&#160;&#160;&#160;&#160;if(OENERGY &gt; (MAX_AURAS &#45; 1)){</text>
<text text-anchor="start" x="38.78" y="-458.5" font-family="Courier New" font-size="10.00" fill="blue"> &#160;&#160;&#160;&#160;&#160;&#160;&#160;&#160;&#160;&#160;&#160;&#160;ASSIGN(OENERGY,(MAX_AURAS &#45;1));</text>
<text text-anchor="start" x="38.78" y="-445.75" font-family="Courier New" font-size="10.00" fill="blue"> &#160;&#160;&#160;&#160;&#160;&#160;}</text>
<text text-anchor="start" x="38.78" y="-433" font-family="Courier New" font-size="10.00" fill="blue"> &#160;&#160;&#160;&#160;&#160;&#160;&#160;ASSIGN(BPARM,OENERGY);</text>
<text text-anchor="start" x="38.78" y="-420.25" font-family="Courier New" font-size="10.00" fill="blue"> &#160;&#160;&#160;&#160;&#160;&#160;&#160;MOV(WSPRITE,BPARM);</text>
<text text-anchor="start" x="38.78" y="-407.5" font-family="Courier New" font-size="10.00" fill="blue"> &#160;&#160;&#160;&#160;&#160;&#160;&#160;MAPi(WSPRITE,S00_AURA_MAP);</text>
<text text-anchor="start" x="38.78" y="-394.75" font-family="Courier New" font-size="10.00" fill="blue"> &#160;&#160;&#160;&#160;&#160;&#160;&#160;SHOW(WSPRITE);</text>
<text text-anchor="start" x="38.78" y="-382" font-family="Courier New" font-size="10.00" fill="blue"> &#160;&#160;&#160;&#160;&#160;&#160;&#160;ANIMATE(WPARM);</text>
<text text-anchor="start" x="38.78" y="-369.25" font-family="Courier New" font-size="10.00" fill="blue"> &#160;&#160;&#160;&#160;&#160;&#160;&#160;SIGNALi(0,SOD_ID);</text>
<polygon fill="none" stroke="black" points="32.78,-360 32.78,-507.5 308.78,-507.5 308.78,-360 32.78,-360"/>
</g>
<!-- 1&#45;&gt;energyBoost -->
<g id="edge2" class="edge">
<title>1&#45;&gt;energyBoost</title>
<path fill="none" stroke="black" d="M366.89,-324.49C351.87,-331.98 334.47,-343.61 325.78,-360 310.43,-388.96 308.76,-479.49 325.78,-507.5 328.42,-511.84 331.78,-515.66 335.59,-519.03"/>
<polygon fill="black" stroke="black" points="333.23,-521.64 343.33,-524.81 337.41,-516.02 333.23,-521.64"/>
<text text-anchor="start" x="329.78" y="-431.62" font-family="Courier New" font-weight="bold" font-size="10.00" fill="orange">WAIT(0,SIG_MYAURA)</text>
</g>
<!-- 1&#45;&gt;energyBoost -->
<g id="edge3" class="edge">
<title>1&#45;&gt;energyBoost</title>
<path fill="none" stroke="black" d="M420.74,-332.76C429.11,-340.19 437.3,-349.47 441.78,-360 467.47,-420.31 471.4,-449.01 441.78,-507.5 439.85,-511.32 437.28,-514.83 434.34,-518.03"/>
<polygon fill="black" stroke="black" points="432,-515.42 426.97,-524.74 436.72,-520.6 432,-515.42"/>
<text text-anchor="start" x="465.78" y="-431.62" font-family="Courier New" font-weight="bold" font-size="10.00" fill="orange">WAIT(0,SIG_ADD)</text>
</g>
<!-- 1&#45;&gt;energyBoost -->
<g id="edge6" class="edge">
<title>1&#45;&gt;energyBoost</title>
<path fill="none" stroke="black" d="M420.58,-317.24C463.74,-323.28 545.57,-337.46 562.78,-360 602.57,-412.1 604.14,-456.63 562.78,-507.5 550.17,-523.02 504.78,-531.94 464.21,-536.92"/>
<polygon fill="black" stroke="black" points="463.97,-533.42 454.44,-538.05 464.77,-540.38 463.97,-533.42"/>
<text text-anchor="start" x="596.78" y="-431.62" font-family="Courier New" font-weight="bold" font-size="10.00" fill="orange">WAIT(0,0)</text>
</g>
<!-- 1&#45;&gt;1 -->
<g id="edge5" class="edge">
<title>1&#45;&gt;1</title>
<path fill="none" stroke="black" d="M417.86,-335.09C429.03,-337.51 438.78,-330.11 438.78,-312.88 438.78,-301.83 434.78,-294.83 428.96,-291.85"/>
<polygon fill="black" stroke="black" points="429.68,-288.41 419.36,-290.82 428.93,-295.37 429.68,-288.41"/>
<polygon fill="none" stroke="black" points="441.78,-320.25 441.78,-339 615.78,-339 615.78,-320.25 441.78,-320.25"/>
<text text-anchor="start" x="477.78" y="-327.5" font-family="Courier New" font-weight="bold" font-size="10.00" fill="orange">WAIT(0,SIG_CLEAR)</text>
<polygon fill="none" stroke="black" points="441.78,-286.75 441.78,-318.25 615.78,-318.25 615.78,-286.75 441.78,-286.75"/>
<text text-anchor="start" x="444.78" y="-305.75" font-family="Courier New" font-size="10.00" fill="blue"> &#160;WRITE(&quot;Clear the aura&quot;); &#160;</text>
<text text-anchor="start" x="444.78" y="-293" font-family="Courier New" font-size="10.00" fill="blue"> &#160;SHOW(0);</text>
<polygon fill="none" stroke="black" points="438.78,-283.75 438.78,-342 618.78,-342 618.78,-283.75 438.78,-283.75"/>
</g>
<!-- energyDrain -->
<g id="node5" class="node">
<title>energyDrain</title>
<polyline fill="none" stroke="darkred" points="345.41,-7 442.16,-7"/>
<text text-anchor="start" x="348.41" y="-14.2" font-family="Courier New" font-weight="bold" font-size="14.00">energyDrain</text>
<path fill="none" stroke="darkred" d="M351.91,-4C351.91,-4 435.66,-4 435.66,-4 440.41,-4 445.16,-8.75 445.16,-13.5 445.16,-13.5 445.16,-23 445.16,-23 445.16,-27.75 440.41,-32.5 435.66,-32.5 435.66,-32.5 351.91,-32.5 351.91,-32.5 347.16,-32.5 342.41,-27.75 342.41,-23 342.41,-23 342.41,-13.5 342.41,-13.5 342.41,-8.75 347.16,-4 351.91,-4"/>
</g>
<!-- 1&#45;&gt;energyDrain -->
<g id="edge4" class="edge">
<title>1&#45;&gt;energyDrain</title>
<path fill="none" stroke="black" d="M367,-298.33C354.79,-290.6 341.56,-279.66 334.78,-265.75 293.64,-181.36 288.45,-136.16 334.78,-54.5 337.14,-50.36 340.19,-46.65 343.67,-43.34"/>
<polygon fill="black" stroke="black" points="345.63,-46.25 351.25,-37.27 341.25,-40.79 345.63,-46.25"/>
<text text-anchor="start" x="338.78" y="-158" font-family="Courier New" font-weight="bold" font-size="10.00" fill="orange">WAIT(0,SIG_SUB)</text>
</g>
<!-- energyDrain&#45;&gt;1 -->
<g id="edge8" class="edge">
<title>energyDrain&#45;&gt;1</title>
<path fill="none" stroke="black" d="M419.13,-36.49C424.65,-41.59 429.75,-47.66 432.78,-54.5 470.89,-140.31 465.06,-177.58 432.78,-265.75 430.67,-271.54 427.47,-277.09 423.79,-282.23"/>
<polygon fill="black" stroke="black" points="421.26,-279.79 417.75,-289.78 426.73,-284.16 421.26,-279.79"/>
<polygon fill="none" stroke="black" points="461.78,-244 461.78,-262.75 689.78,-262.75 689.78,-244 461.78,-244"/>
<text text-anchor="start" x="506.78" y="-251.25" font-family="Courier New" font-weight="bold" font-size="10.00" fill="blue">ASSIGN(WPARM,V_REVERSE)</text>
<polygon fill="none" stroke="black" points="461.78,-57.5 461.78,-242 689.78,-242 689.78,-57.5 461.78,-57.5"/>
<text text-anchor="start" x="464.78" y="-229.5" font-family="Courier New" font-size="10.00" fill="blue"> &#160;&#160;&#160;&#160;&#160;&#160;&#160;if(OENERGY &lt;= 1){</text>
<text text-anchor="start" x="464.78" y="-216.75" font-family="Courier New" font-size="10.00" fill="blue"> &#160;&#160;&#160;&#160;&#160;&#160;&#160;&#160;&#160;&#160;&#160;&#160;ASSIGN(OENERGY,1);</text>
<text text-anchor="start" x="464.78" y="-204" font-family="Courier New" font-size="10.00" fill="blue"> &#160;&#160;&#160;&#160;&#160;&#160;} &#160;&#160;&#160;&#160;&#160;</text>
<text text-anchor="start" x="464.78" y="-191.25" font-family="Courier New" font-size="10.00" fill="blue"> &#160;&#160;&#160;&#160;&#160;&#160;ASSIGN(BPARM,OENERGY);</text>
<text text-anchor="start" x="464.78" y="-178.5" font-family="Courier New" font-size="10.00" fill="blue"> &#160;&#160;&#160;&#160;&#160;&#160;&#160;MOV(WSPRITE,BPARM);</text>
<text text-anchor="start" x="464.78" y="-165.75" font-family="Courier New" font-size="10.00" fill="blue"> &#160;&#160;&#160;&#160;&#160;&#160;&#160;MAPi(WSPRITE,S00_AURA_MAP);</text>
<text text-anchor="start" x="464.78" y="-153" font-family="Courier New" font-size="10.00" fill="blue"> &#160;&#160;&#160;&#160;&#160;&#160;&#160;SHOW(WSPRITE);</text>
<text text-anchor="start" x="464.78" y="-140.25" font-family="Courier New" font-size="10.00" fill="blue"> &#160;&#160;&#160;&#160;&#160;&#160;&#160;ANIMATE(WPARM);</text>
<text text-anchor="start" x="464.78" y="-127.5" font-family="Courier New" font-size="10.00" fill="blue"> &#160;&#160;&#160;&#160;&#160;&#160;&#160;SIGNALi(0,SOD_ID);</text>
<text text-anchor="start" x="464.78" y="-114.75" font-family="Courier New" font-size="10.00" fill="blue"> &#160;&#160;&#160;&#160;&#160;&#160;&#160;</text>
<text text-anchor="start" x="464.78" y="-102" font-family="Courier New" font-size="10.00" fill="blue"> &#160;&#160;&#160;&#160;&#160;&#160;&#160;if(OENERGY &lt;= 1){</text>
<text text-anchor="start" x="464.78" y="-89.25" font-family="Courier New" font-size="10.00" fill="blue"> &#160;&#160;&#160;&#160;&#160;&#160;&#160;&#160;&#160;&#160;&#160;&#160;ASSIGN(OENERGY,1);</text>
<text text-anchor="start" x="464.78" y="-76.5" font-family="Courier New" font-size="10.00" fill="blue"> &#160;&#160;&#160;&#160;&#160;&#160;&#160;&#160;&#160;&#160;&#160;&#160;SIGNAL(SOD_ID,SIG_DEAD);</text>
<text text-anchor="start" x="464.78" y="-63.75" font-family="Courier New" font-size="10.00" fill="blue"> &#160;&#160;&#160;&#160;&#160;&#160;} &#160;&#160;</text>
<polygon fill="none" stroke="black" points="458.78,-54.5 458.78,-265.75 692.78,-265.75 692.78,-54.5 458.78,-54.5"/>
</g>
<!-- status -->
<g id="node6" class="node">
<title>status</title>
<polygon fill="none" stroke="black" points="438.78,-619.25 438.78,-698.25 844.78,-698.25 844.78,-619.25 438.78,-619.25"/>
<polygon fill="none" stroke="black" points="449.78,-672.5 449.78,-691.25 833.78,-691.25 833.78,-672.5 449.78,-672.5"/>
<text text-anchor="start" x="617.78" y="-679.75" font-family="Courier New" font-weight="bold" font-size="10.00">SOD_AURA</text>
<polygon fill="none" stroke="black" points="449.78,-626.25 449.78,-670.5 833.78,-670.5 833.78,-626.25 449.78,-626.25"/>
<text text-anchor="start" x="452.78" y="-658" font-family="Courier New" font-size="10.00" fill="green">VIEW::IDV_OTHERID @pos(x:0, y:0, h:10, w:10)</text>
<text text-anchor="start" x="452.78" y="-645.25" font-family="Courier New" font-size="10.00" fill="green">SOD_AURA::M_O_AURA(&#39;&#39;,&#39;&#39;,&#39;&#39;,&#39;&#39;,&#39;&#39;,&#39;&#39;)</text>
<text text-anchor="start" x="452.78" y="-632.5" font-family="Courier New" font-size="10.00" fill="green">{state:&#39;1&#39;: bParm:2 wSprite:IDS_AURA2 bFrame:4 Top:0 Left:0 Z:0</text>
<polygon fill="none" stroke="black" points="446.78,-623.25 446.78,-694.25 836.78,-694.25 836.78,-623.25 446.78,-623.25"/>
</g>
</g>
</svg>
