<?xml version="1.0" encoding="UTF-8" standalone="no"?>
<!DOCTYPE svg PUBLIC "-//W3C//DTD SVG 1.1//EN"
 "http://www.w3.org/Graphics/SVG/1.1/DTD/svg11.dtd">
<!-- Generated by graphviz version 10.0.1 (20240210.2158)
 -->
<!-- Title: Automaton Pages: 1 -->
<svg width="1697pt" height="601pt"
 viewBox="0.00 0.00 1697.05 600.75" xmlns="http://www.w3.org/2000/svg" xmlns:xlink="http://www.w3.org/1999/xlink">
<g id="graph0" class="graph" transform="scale(1 1) rotate(0) translate(4 596.75)">
<title>Automaton</title>
<polygon fill="white" stroke="none" points="-4,4 -4,-596.75 1693.05,-596.75 1693.05,4 -4,4"/>
<!-- filename -->
<g id="node1" class="node">
<title>filename</title>
<polygon fill="none" stroke="black" points="647.05,-526 647.05,-579.5 807.05,-579.5 807.05,-526 647.05,-526"/>
<polygon fill="none" stroke="black" points="658.05,-553.75 658.05,-572.5 796.05,-572.5 796.05,-553.75 658.05,-553.75"/>
<text text-anchor="start" x="661.05" y="-561" font-family="Courier New" font-weight="bold" font-size="10.00">SOD_SPELL::M_O_IDSPELL</text>
<polygon fill="none" stroke="black" points="658.05,-533 658.05,-551.75 796.05,-551.75 796.05,-533 658.05,-533"/>
<text text-anchor="start" x="682.05" y="-539.25" font-family="Courier New" font-size="10.00" fill="brown">start state = 0</text>
<polygon fill="none" stroke="black" points="655.05,-530 655.05,-575.5 799.05,-575.5 799.05,-530 655.05,-530"/>
</g>
<!-- 0 -->
<g id="node2" class="node">
<title>0</title>
<polyline fill="none" stroke="darkred" stroke-width="3" points="844.42,-541 859.67,-541"/>
<text text-anchor="start" x="847.92" y="-548.7" font-family="Courier New" font-weight="bold" font-size="14.00">0</text>
<path fill="none" stroke="darkred" stroke-width="3" d="M847.84,-536C847.84,-536 856.26,-536 856.26,-536 860.47,-536 864.67,-540.21 864.67,-544.42 864.67,-544.42 864.67,-561.08 864.67,-561.08 864.67,-565.29 860.47,-569.5 856.26,-569.5 856.26,-569.5 847.84,-569.5 847.84,-569.5 843.63,-569.5 839.42,-565.29 839.42,-561.08 839.42,-561.08 839.42,-544.42 839.42,-544.42 839.42,-540.21 843.63,-536 847.84,-536"/>
</g>
<!-- checkObject -->
<g id="node3" class="node">
<title>checkObject</title>
<polyline fill="none" stroke="darkred" points="564.67,-155 661.42,-155"/>
<text text-anchor="start" x="567.67" y="-162.2" font-family="Courier New" font-weight="bold" font-size="14.00">checkObject</text>
<path fill="none" stroke="darkred" d="M571.17,-152C571.17,-152 654.92,-152 654.92,-152 659.67,-152 664.42,-156.75 664.42,-161.5 664.42,-161.5 664.42,-171 664.42,-171 664.42,-175.75 659.67,-180.5 654.92,-180.5 654.92,-180.5 571.17,-180.5 571.17,-180.5 566.42,-180.5 561.67,-175.75 561.67,-171 561.67,-171 561.67,-161.5 561.67,-161.5 561.67,-156.75 566.42,-152 571.17,-152"/>
</g>
<!-- 0&#45;&gt;checkObject -->
<g id="edge1" class="edge">
<title>0&#45;&gt;checkObject</title>
<path fill="none" stroke="black" d="M837.32,-530.74C831.47,-523.94 824.2,-517.05 816.05,-512.75 767.18,-486.98 733.91,-531.93 693.05,-494.75 606.22,-415.74 606.34,-259.5 610.46,-195.55"/>
<polygon fill="black" stroke="black" points="613.93,-196.12 611.18,-185.89 606.95,-195.6 613.93,-196.12"/>
<polygon fill="none" stroke="black" points="696.05,-364.62 696.05,-383.38 996.05,-383.38 996.05,-364.62 696.05,-364.62"/>
<text text-anchor="start" x="825.05" y="-371.88" font-family="Courier New" font-weight="bold" font-size="10.00" fill="orange">DROP(,)</text>
<polygon fill="none" stroke="black" points="696.05,-331.12 696.05,-362.62 996.05,-362.62 996.05,-331.12 696.05,-331.12"/>
<text text-anchor="start" x="699.05" y="-350.12" font-family="Courier New" font-size="10.00" fill="blue"> &#160;&#160;&#160;CLEAR(WVIEWID);</text>
<text text-anchor="start" x="699.05" y="-337.38" font-family="Courier New" font-size="10.00" fill="blue"> &#160;&#160;&#160;WRITE(&quot;I dropped an item on another player&quot;);</text>
<polygon fill="none" stroke="black" points="693.05,-328.12 693.05,-386.38 999.05,-386.38 999.05,-328.12 693.05,-328.12"/>
</g>
<!-- postProcessObject -->
<g id="node4" class="node">
<title>postProcessObject</title>
<polyline fill="none" stroke="darkred" points="1327.92,-155 1474.17,-155"/>
<text text-anchor="start" x="1330.92" y="-162.2" font-family="Courier New" font-weight="bold" font-size="14.00">postProcessObject</text>
<path fill="none" stroke="darkred" d="M1334.42,-152C1334.42,-152 1467.67,-152 1467.67,-152 1472.42,-152 1477.17,-156.75 1477.17,-161.5 1477.17,-161.5 1477.17,-171 1477.17,-171 1477.17,-175.75 1472.42,-180.5 1467.67,-180.5 1467.67,-180.5 1334.42,-180.5 1334.42,-180.5 1329.67,-180.5 1324.92,-175.75 1324.92,-171 1324.92,-171 1324.92,-161.5 1324.92,-161.5 1324.92,-156.75 1329.67,-152 1334.42,-152"/>
</g>
<!-- 0&#45;&gt;postProcessObject -->
<g id="edge2" class="edge">
<title>0&#45;&gt;postProcessObject</title>
<path fill="none" stroke="black" d="M866.75,-530.68C872.59,-523.87 879.87,-516.99 888.05,-512.75 915.11,-498.71 1003.02,-516.82 1024.05,-494.75 1066.35,-450.36 1005.09,-264.47 1047.05,-219.75 1051.51,-214.99 1202.49,-193.88 1305.81,-179.92"/>
<polygon fill="black" stroke="black" points="1306.28,-183.39 1315.72,-178.58 1305.34,-176.45 1306.28,-183.39"/>
<polygon fill="none" stroke="black" points="1050.05,-473 1050.05,-491.75 1536.05,-491.75 1536.05,-473 1050.05,-473"/>
<text text-anchor="start" x="1248.05" y="-480.25" font-family="Courier New" font-weight="bold" font-size="10.00" fill="orange">WAIT(,SIG_DROP)</text>
<polygon fill="none" stroke="black" points="1050.05,-222.75 1050.05,-471 1536.05,-471 1536.05,-222.75 1050.05,-222.75"/>
<text text-anchor="start" x="1053.05" y="-458.5" font-family="Courier New" font-size="10.00" fill="blue"> &#160;&#160;&#160;WRITE(&quot;M_O_IDSPELL says an item dropped... check if there is a meflin&quot;);</text>
<text text-anchor="start" x="1053.05" y="-445.75" font-family="Courier New" font-size="10.00" fill="blue"> &#160;&#160;&#160;REF_MACHINE(MEFPAN_VIEWCAP);</text>
<text text-anchor="start" x="1053.05" y="-433" font-family="Courier New" font-size="10.00" fill="blue"> &#160;&#160;&#160;MOV(BPARM,R_BPARM);</text>
<text text-anchor="start" x="1053.05" y="-420.25" font-family="Courier New" font-size="10.00" fill="blue"> &#160;&#160;&#160;if(R_BPARM == 1){ &#160;//Theres a meflin up</text>
<text text-anchor="start" x="1053.05" y="-407.5" font-family="Courier New" font-size="10.00" fill="blue"> &#160;&#160;&#160;&#160;&#160;&#160;&#160;REF_MACHINE(MEFCURRENT); //Who is it?</text>
<text text-anchor="start" x="1053.05" y="-394.75" font-family="Courier New" font-size="10.00" fill="blue"> &#160;&#160;&#160;&#160;&#160;&#160;&#160;MOV(WPARM,R_WPARM);</text>
<text text-anchor="start" x="1053.05" y="-382" font-family="Courier New" font-size="10.00" fill="blue"> &#160;&#160;&#160;&#160;&#160;&#160;&#160;SIGNAL(WPARM,SIG_DROP); //so the meflin mef_talk can look at the wobject</text>
<text text-anchor="start" x="1053.05" y="-369.25" font-family="Courier New" font-size="10.00" fill="blue"> &#160;&#160;&#160;&#160;&#160;&#160;&#160;SHOW();</text>
<text text-anchor="start" x="1053.05" y="-356.5" font-family="Courier New" font-size="10.00" fill="blue"> &#160;&#160;&#160;}</text>
<text text-anchor="start" x="1053.05" y="-343.75" font-family="Courier New" font-size="10.00" fill="blue"> &#160;&#160;if(R_BPARM == 0){</text>
<text text-anchor="start" x="1053.05" y="-331" font-family="Courier New" font-size="10.00" fill="blue"> &#160;&#160;&#160;&#160;&#160;&#160;&#160;REF_MACHINE(CHAR_DROPTARGET); </text>
<text text-anchor="start" x="1053.05" y="-318.25" font-family="Courier New" font-size="10.00" fill="blue"> &#160;&#160;&#160;&#160;&#160;&#160;&#160;MOV(WOBJECT,R_WOBJECT);</text>
<text text-anchor="start" x="1053.05" y="-305.5" font-family="Courier New" font-size="10.00" fill="blue"> &#160;&#160;&#160;&#160;&#160;&#160;&#160;&#160;&#160;&#160;&#160;//Deduct for all the bad or good things local player can drop </text>
<text text-anchor="start" x="1053.05" y="-292.75" font-family="Courier New" font-size="10.00" fill="blue"> &#160;&#160;&#160;&#160;&#160;&#160;&#160;&#160;&#160;&#160;&#160;&#160;&#160;&#160;&#160;ADDI(LKARMA,1); </text>
<text text-anchor="start" x="1053.05" y="-280" font-family="Courier New" font-size="10.00" fill="blue"> &#160;&#160;&#160;&#160;&#160;&#160;&#160;&#160;&#160;&#160;&#160;&#160;&#160;&#160;&#160;SIGNAL(SID_HALO,SIG_ADD);</text>
<text text-anchor="start" x="1053.05" y="-267.25" font-family="Courier New" font-size="10.00" fill="blue"> &#160;&#160;&#160;&#160;&#160;&#160;&#160;//Assuming this would create the spell over on the other player</text>
<text text-anchor="start" x="1053.05" y="-254.5" font-family="Courier New" font-size="10.00" fill="blue"> &#160;&#160;&#160;&#160;&#160;&#160;&#160;SPELL_YOU(WOBJECT);</text>
<text text-anchor="start" x="1053.05" y="-241.75" font-family="Courier New" font-size="10.00" fill="blue"> &#160;&#160;&#160;&#160;&#160;&#160;&#160;SHOW();</text>
<text text-anchor="start" x="1053.05" y="-229" font-family="Courier New" font-size="10.00" fill="blue"> &#160;&#160;&#160;} </text>
<polygon fill="none" stroke="black" points="1047.05,-219.75 1047.05,-494.75 1539.05,-494.75 1539.05,-219.75 1047.05,-219.75"/>
</g>
<!-- itsAbomb -->
<g id="node5" class="node">
<title>itsAbomb</title>
<polyline fill="none" stroke="darkred" points="82.05,-7 154.05,-7"/>
<text text-anchor="start" x="85.05" y="-14.2" font-family="Courier New" font-weight="bold" font-size="14.00">itsAbomb</text>
<path fill="none" stroke="darkred" d="M88.55,-4C88.55,-4 147.55,-4 147.55,-4 152.3,-4 157.05,-8.75 157.05,-13.5 157.05,-13.5 157.05,-23 157.05,-23 157.05,-27.75 152.3,-32.5 147.55,-32.5 147.55,-32.5 88.55,-32.5 88.55,-32.5 83.8,-32.5 79.05,-27.75 79.05,-23 79.05,-23 79.05,-13.5 79.05,-13.5 79.05,-8.75 83.8,-4 88.55,-4"/>
</g>
<!-- checkObject&#45;&gt;itsAbomb -->
<g id="edge3" class="edge">
<title>checkObject&#45;&gt;itsAbomb</title>
<path fill="none" stroke="black" d="M553.73,-155.87C462.18,-141.35 296.26,-114.88 290.05,-112.75 239.41,-95.43 186,-64.05 152.38,-42.45"/>
<polygon fill="black" stroke="black" points="154.58,-39.71 144.29,-37.19 150.76,-45.57 154.58,-39.71"/>
<text text-anchor="start" x="294.05" y="-81.5" font-family="Courier New" font-weight="bold" font-size="10.00" fill="blue">IS_A(WOBJECT,IDC_BOMB)</text>
</g>
<!-- itsAspell -->
<g id="node6" class="node">
<title>itsAspell</title>
<polyline fill="none" stroke="darkred" points="403.92,-7 484.17,-7"/>
<text text-anchor="start" x="406.92" y="-14.2" font-family="Courier New" font-weight="bold" font-size="14.00">itsAspell</text>
<path fill="none" stroke="darkred" d="M410.42,-4C410.42,-4 477.67,-4 477.67,-4 482.42,-4 487.17,-8.75 487.17,-13.5 487.17,-13.5 487.17,-23 487.17,-23 487.17,-27.75 482.42,-32.5 477.67,-32.5 477.67,-32.5 410.42,-32.5 410.42,-32.5 405.67,-32.5 400.92,-27.75 400.92,-23 400.92,-23 400.92,-13.5 400.92,-13.5 400.92,-8.75 405.67,-4 410.42,-4"/>
</g>
<!-- checkObject&#45;&gt;itsAspell -->
<g id="edge4" class="edge">
<title>checkObject&#45;&gt;itsAspell</title>
<path fill="none" stroke="black" d="M554.08,-163.54C516.38,-159.02 470.03,-146.35 445.05,-112.75 431.28,-94.24 432.49,-67.47 436.29,-47.31"/>
<polygon fill="black" stroke="black" points="439.65,-48.32 438.41,-37.8 432.82,-46.8 439.65,-48.32"/>
<text text-anchor="start" x="449.05" y="-81.5" font-family="Courier New" font-weight="bold" font-size="10.00" fill="blue">IS_A(WOBJECT,IDC_SPELL)</text>
</g>
<!-- checkObject&#45;&gt;itsAspell -->
<g id="edge5" class="edge">
<title>checkObject&#45;&gt;itsAspell</title>
<path fill="none" stroke="black" d="M611.88,-148.33C609.64,-120.72 603.75,-67.71 591.05,-54.5 579.11,-42.08 540.75,-33.13 506.21,-27.35"/>
<polygon fill="black" stroke="black" points="507.09,-23.95 496.67,-25.83 505.99,-30.86 507.09,-23.95"/>
<text text-anchor="start" x="612.05" y="-81.5" font-family="Courier New" font-weight="bold" font-size="10.00" fill="blue">IS_A(WOBJECT,IDD_GVIAL)</text>
</g>
<!-- regularObject -->
<g id="node7" class="node">
<title>regularObject</title>
<polyline fill="none" stroke="darkred" points="840.42,-7 953.67,-7"/>
<text text-anchor="start" x="843.42" y="-14.2" font-family="Courier New" font-weight="bold" font-size="14.00">regularObject</text>
<path fill="none" stroke="darkred" d="M846.92,-4C846.92,-4 947.17,-4 947.17,-4 951.92,-4 956.67,-8.75 956.67,-13.5 956.67,-13.5 956.67,-23 956.67,-23 956.67,-27.75 951.92,-32.5 947.17,-32.5 947.17,-32.5 846.92,-32.5 846.92,-32.5 842.17,-32.5 837.42,-27.75 837.42,-23 837.42,-23 837.42,-13.5 837.42,-13.5 837.42,-8.75 842.17,-4 846.92,-4"/>
</g>
<!-- checkObject&#45;&gt;regularObject -->
<g id="edge6" class="edge">
<title>checkObject&#45;&gt;regularObject</title>
<path fill="none" stroke="black" d="M672.19,-155.3C701.08,-147.82 734.58,-134.89 758.05,-112.75 778.54,-93.42 762.1,-73.34 783.05,-54.5 793.32,-45.26 805.97,-38.44 819.07,-33.41"/>
<polygon fill="black" stroke="black" points="819.9,-36.83 828.2,-30.25 817.61,-30.22 819.9,-36.83"/>
<polygon fill="none" stroke="black" points="786.05,-91 786.05,-109.75 996.05,-109.75 996.05,-91 786.05,-91"/>
<text text-anchor="start" x="849.05" y="-98.25" font-family="Courier New" font-weight="bold" font-size="10.00" fill="blue">Z_EPSILON(0,0)</text>
<polygon fill="none" stroke="black" points="786.05,-57.5 786.05,-89 996.05,-89 996.05,-57.5 786.05,-57.5"/>
<text text-anchor="start" x="789.05" y="-76.5" font-family="Courier New" font-size="10.00" fill="blue"> &#160;&#160;&#160;SHOW(WOBJECT);</text>
<text text-anchor="start" x="789.05" y="-63.75" font-family="Courier New" font-size="10.00" fill="blue"> &#160;&#160;&#160;SPELL_YOU(WOBJECT,SIG_OBJECT);</text>
<polygon fill="none" stroke="black" points="783.05,-54.5 783.05,-112.75 999.05,-112.75 999.05,-54.5 783.05,-54.5"/>
</g>
<!-- postProcessObject&#45;&gt;0 -->
<g id="edge9" class="edge">
<title>postProcessObject&#45;&gt;0</title>
<path fill="none" stroke="black" d="M1485.16,-181.54C1506.17,-189.31 1526.32,-201.28 1539.05,-219.75 1608.43,-320.37 1624.27,-407.14 1539.05,-494.75 1513.82,-520.68 920.99,-497.78 888.05,-512.75 882.97,-515.06 878.28,-518.46 874.07,-522.3"/>
<polygon fill="black" stroke="black" points="871.57,-519.86 867.21,-529.51 876.64,-524.68 871.57,-519.86"/>
<text text-anchor="start" x="1601.05" y="-355.12" font-family="Courier New" font-weight="bold" font-size="10.00" fill="blue">Z_EPSILON(0,0)</text>
</g>
<!-- itsAbomb&#45;&gt;0 -->
<g id="edge7" class="edge">
<title>itsAbomb&#45;&gt;0</title>
<path fill="none" stroke="black" d="M92.43,-36.17C65.83,-55.44 25.81,-89.64 9.05,-130.75 -2.86,-159.97 -3.13,-172.64 9.05,-201.75 80.59,-372.82 135.77,-421.36 306.05,-494.75 410.19,-539.64 712.98,-465.44 816.05,-512.75 821.12,-515.08 825.81,-518.49 830.01,-522.34"/>
<polygon fill="black" stroke="black" points="827.44,-524.72 836.87,-529.55 832.51,-519.89 827.44,-524.72"/>
<polygon fill="none" stroke="black" points="12.05,-180 12.05,-198.75 264.05,-198.75 264.05,-180 12.05,-180"/>
<text text-anchor="start" x="57.05" y="-187.25" font-family="Courier New" font-weight="bold" font-size="10.00" fill="blue">SPELL_YOU(WOBJECT,SIG_BOMB)</text>
<polygon fill="none" stroke="black" points="12.05,-133.75 12.05,-178 264.05,-178 264.05,-133.75 12.05,-133.75"/>
<text text-anchor="start" x="15.05" y="-165.5" font-family="Courier New" font-size="10.00" fill="blue"> &#160;&#160;&#160;WRITE(&quot;M_O_IDSPELL says ITS A BOMB&quot;);</text>
<text text-anchor="start" x="15.05" y="-152.75" font-family="Courier New" font-size="10.00" fill="blue"> &#160;&#160;&#160;SIGNALi(SOD_ID,SIG_BOMB);</text>
<text text-anchor="start" x="15.05" y="-140" font-family="Courier New" font-size="10.00" fill="blue"> &#160;&#160;&#160;</text>
<polygon fill="none" stroke="black" points="9.05,-130.75 9.05,-201.75 267.05,-201.75 267.05,-130.75 9.05,-130.75"/>
</g>
<!-- itsAspell&#45;&gt;0 -->
<g id="edge8" class="edge">
<title>itsAspell&#45;&gt;0</title>
<path fill="none" stroke="black" d="M392.92,-22.06C345.01,-25.89 278.38,-34.7 262.05,-54.5 245.57,-74.47 252.77,-88.58 262.05,-112.75 343.93,-326.04 401.49,-392.99 606.05,-494.75 689.92,-536.47 731.92,-471.55 816.05,-512.75 821.06,-515.2 825.72,-518.68 829.9,-522.56"/>
<polygon fill="black" stroke="black" points="827.34,-524.94 836.76,-529.78 832.41,-520.12 827.34,-524.94"/>
<polygon fill="none" stroke="black" points="300.05,-167.25 300.05,-186 438.05,-186 438.05,-167.25 300.05,-167.25"/>
<text text-anchor="start" x="333.05" y="-174.5" font-family="Courier New" font-weight="bold" font-size="10.00" fill="blue">Z_EPSILON(,)</text>
<polygon fill="none" stroke="black" points="300.05,-146.5 300.05,-165.25 438.05,-165.25 438.05,-146.5 300.05,-146.5"/>
<text text-anchor="start" x="303.05" y="-152.75" font-family="Courier New" font-size="10.00" fill="blue"> &#160;&#160;SPELL_YOU(WOBJECT);</text>
<polygon fill="none" stroke="black" points="297.05,-143.5 297.05,-189 441.05,-189 441.05,-143.5 297.05,-143.5"/>
</g>
<!-- regularObject&#45;&gt;0 -->
<g id="edge10" class="edge">
<title>regularObject&#45;&gt;0</title>
<path fill="none" stroke="black" d="M964.64,-29.62C978.11,-34.88 990.68,-42.75 999.05,-54.5 1027.43,-94.34 1030.75,-457.5 999.05,-494.75 966.66,-532.81 932.07,-489.09 888.05,-512.75 883.23,-515.34 878.71,-518.83 874.61,-522.65"/>
<polygon fill="black" stroke="black" points="872.24,-520.07 867.86,-529.72 877.3,-524.9 872.24,-520.07"/>
<polygon fill="none" stroke="black" points="1022.05,-173.62 1022.05,-192.38 1142.05,-192.38 1142.05,-173.62 1022.05,-173.62"/>
<text text-anchor="start" x="1049.05" y="-180.88" font-family="Courier New" font-weight="bold" font-size="10.00" fill="blue">ZEPSILON(,)</text>
<polygon fill="none" stroke="black" points="1022.05,-140.12 1022.05,-171.62 1142.05,-171.62 1142.05,-140.12 1022.05,-140.12"/>
<text text-anchor="start" x="1025.05" y="-159.12" font-family="Courier New" font-size="10.00" fill="blue"> &#160;&#160;&#160;CLEAR(WOBJECT);</text>
<text text-anchor="start" x="1025.05" y="-146.38" font-family="Courier New" font-size="10.00" fill="blue"> &#160;&#160;&#160;SHOW();</text>
<polygon fill="none" stroke="black" points="1019.05,-137.12 1019.05,-195.38 1145.05,-195.38 1145.05,-137.12 1019.05,-137.12"/>
</g>
<!-- status -->
<g id="node8" class="node">
<title>status</title>
<polygon fill="none" stroke="black" points="897.05,-513.25 897.05,-592.25 1243.05,-592.25 1243.05,-513.25 897.05,-513.25"/>
<polygon fill="none" stroke="black" points="908.05,-566.5 908.05,-585.25 1232.05,-585.25 1232.05,-566.5 908.05,-566.5"/>
<text text-anchor="start" x="1043.05" y="-573.75" font-family="Courier New" font-weight="bold" font-size="10.00">SOD_SPELL</text>
<polygon fill="none" stroke="black" points="908.05,-520.25 908.05,-564.5 1232.05,-564.5 1232.05,-520.25 908.05,-520.25"/>
<text text-anchor="start" x="911.05" y="-552" font-family="Courier New" font-size="10.00" fill="green">VIEW::IDV_OTHERID @pos(x:10, y:50, h:70, w:100)</text>
<text text-anchor="start" x="911.05" y="-539.25" font-family="Courier New" font-size="10.00" fill="green">SOD_SPELL::M_O_IDSPELL(&#39;&#39;,&#39;&#39;,&#39;&#39;,&#39;&#39;,&#39;&#39;,&#39;&#39;)</text>
<text text-anchor="start" x="911.05" y="-526.5" font-family="Courier New" font-size="10.00" fill="green">{state:&#39;0&#39;: wObject:IDD_BANISHMENT Top:50 Left:10 Z:0</text>
<polygon fill="none" stroke="black" points="905.05,-517.25 905.05,-588.25 1235.05,-588.25 1235.05,-517.25 905.05,-517.25"/>
</g>
</g>
</svg>
