<?xml version="1.0" encoding="UTF-8" standalone="no"?>
<!DOCTYPE svg PUBLIC "-//W3C//DTD SVG 1.1//EN"
 "http://www.w3.org/Graphics/SVG/1.1/DTD/svg11.dtd">
<!-- Generated by graphviz version 10.0.1 (20240210.2158)
 -->
<!-- Title: Automaton Pages: 1 -->
<svg width="2357pt" height="1413pt"
 viewBox="0.00 0.00 2356.79 1413.25" xmlns="http://www.w3.org/2000/svg" xmlns:xlink="http://www.w3.org/1999/xlink">
<g id="graph0" class="graph" transform="scale(1 1) rotate(0) translate(4 1409.25)">
<title>Automaton</title>
<polygon fill="white" stroke="none" points="-4,4 -4,-1409.25 2352.79,-1409.25 2352.79,4 -4,4"/>
<!-- filename -->
<g id="node1" class="node">
<title>filename</title>
<polygon fill="none" stroke="black" points="540.79,-1338.5 540.79,-1392 658.79,-1392 658.79,-1338.5 540.79,-1338.5"/>
<polygon fill="none" stroke="black" points="551.79,-1366.25 551.79,-1385 647.79,-1385 647.79,-1366.25 551.79,-1366.25"/>
<text text-anchor="start" x="560.79" y="-1373.5" font-family="Courier New" font-weight="bold" font-size="10.00">SOD_ID::M_OID</text>
<polygon fill="none" stroke="black" points="551.79,-1345.5 551.79,-1364.25 647.79,-1364.25 647.79,-1345.5 551.79,-1345.5"/>
<text text-anchor="start" x="554.79" y="-1351.75" font-family="Courier New" font-size="10.00" fill="brown">start state = 0</text>
<polygon fill="none" stroke="black" points="548.79,-1342.5 548.79,-1388 650.79,-1388 650.79,-1342.5 548.79,-1342.5"/>
</g>
<!-- 0 -->
<g id="node2" class="node">
<title>0</title>
<polyline fill="none" stroke="darkred" points="696.67,-1354 710.92,-1354"/>
<text text-anchor="start" x="699.67" y="-1361.2" font-family="Courier New" font-weight="bold" font-size="14.00">0</text>
<path fill="none" stroke="darkred" d="M700.42,-1351C700.42,-1351 707.17,-1351 707.17,-1351 710.54,-1351 713.92,-1354.38 713.92,-1357.75 713.92,-1357.75 713.92,-1372.75 713.92,-1372.75 713.92,-1376.12 710.54,-1379.5 707.17,-1379.5 707.17,-1379.5 700.42,-1379.5 700.42,-1379.5 697.04,-1379.5 693.67,-1376.12 693.67,-1372.75 693.67,-1372.75 693.67,-1357.75 693.67,-1357.75 693.67,-1354.38 697.04,-1351 700.42,-1351"/>
</g>
<!-- present -->
<g id="node3" class="node">
<title>present</title>
<polyline fill="none" stroke="darkred" stroke-width="3" points="148.42,-1133.25 213.17,-1133.25"/>
<text text-anchor="start" x="151.92" y="-1140.95" font-family="Courier New" font-weight="bold" font-size="14.00">present</text>
<path fill="none" stroke="darkred" stroke-width="3" d="M154.58,-1128.25C154.58,-1128.25 207,-1128.25 207,-1128.25 212.58,-1128.25 218.17,-1133.83 218.17,-1139.42 218.17,-1139.42 218.17,-1150.58 218.17,-1150.58 218.17,-1156.17 212.58,-1161.75 207,-1161.75 207,-1161.75 154.58,-1161.75 154.58,-1161.75 149,-1161.75 143.42,-1156.17 143.42,-1150.58 143.42,-1150.58 143.42,-1139.42 143.42,-1139.42 143.42,-1133.83 149,-1128.25 154.58,-1128.25"/>
</g>
<!-- 0&#45;&gt;present -->
<g id="edge1" class="edge">
<title>0&#45;&gt;present</title>
<path fill="none" stroke="black" d="M692.92,-1347.24C686.66,-1339.03 678,-1329.95 667.79,-1325.25 618.7,-1302.66 219.41,-1346.04 181.79,-1307.25 148.94,-1273.37 158.92,-1214.2 169.56,-1177.73"/>
<polygon fill="black" stroke="black" points="172.76,-1179.22 172.39,-1168.64 166.08,-1177.14 172.76,-1179.22"/>
<polygon fill="none" stroke="black" points="184.79,-1285.5 184.79,-1304.25 1210.79,-1304.25 1210.79,-1285.5 184.79,-1285.5"/>
<text text-anchor="start" x="652.79" y="-1292.75" font-family="Courier New" font-weight="bold" font-size="10.00" fill="orange">WAIT(,SIG_OTID)</text>
<polygon fill="none" stroke="black" points="184.79,-1188.25 184.79,-1283.5 1210.79,-1283.5 1210.79,-1188.25 184.79,-1188.25"/>
<text text-anchor="start" x="187.79" y="-1271" font-family="Courier New" font-size="10.00" fill="blue"> &#160;&#160;&#160;CLEAR(WSPRITE);</text>
<text text-anchor="start" x="187.79" y="-1258.25" font-family="Courier New" font-size="10.00" fill="blue"> &#160;&#160;&#160;&#160;SHOW(0);</text>
<text text-anchor="start" x="187.79" y="-1245.5" font-family="Courier New" font-size="10.00" fill="blue"> &#160;&#160;&#160;&#160;predicate otherplayer(pid,status,player,account_id,name,viewname,wealth,karma,energy,strength,wisdom,gender,culture, knowsparent, knowsvillage,knowscity);</text>
<text text-anchor="start" x="187.79" y="-1232.75" font-family="Courier New" font-size="10.00" fill="blue"> &#160;&#160;&#160;&#160;otherplayer(?BPARM, &quot;ACTIVE&quot;, ?WPARM,?acntid,?ONAME,?OVIEW,?OWEALTH,?OKARMA,?OENERGY, ?OSTRENGTH,?OWISDOM,?OSEX,?OCULTURE,?OKNOWSPARENT,?OKNOWSVILLSAGE,?OKNOWSCITY)?</text>
<text text-anchor="start" x="187.79" y="-1220" font-family="Courier New" font-size="10.00" fill="blue"> &#160;&#160;&#160;&#160;set_control_value(IDV_OTHERNAME, OTHN, ONAME);</text>
<text text-anchor="start" x="187.79" y="-1207.25" font-family="Courier New" font-size="10.00" fill="blue"> &#160;&#160;&#160;&#160;SIGNAL(SOD_AURA,SIG_MYAURA);</text>
<text text-anchor="start" x="187.79" y="-1194.5" font-family="Courier New" font-size="10.00" fill="blue"> &#160;&#160;&#160;&#160;SIGNAL(SOD_HALO, SIG_MYHALO);</text>
<polygon fill="none" stroke="black" points="181.79,-1185.25 181.79,-1307.25 1213.79,-1307.25 1213.79,-1185.25 181.79,-1185.25"/>
</g>
<!-- setId -->
<g id="node21" class="node">
<title>setId</title>
<polyline fill="none" stroke="darkred" points="1090.17,-752.25 1137.42,-752.25"/>
<text text-anchor="start" x="1093.17" y="-759.45" font-family="Courier New" font-weight="bold" font-size="14.00">setId</text>
<path fill="none" stroke="darkred" d="M1096.67,-749.25C1096.67,-749.25 1130.92,-749.25 1130.92,-749.25 1135.67,-749.25 1140.42,-754 1140.42,-758.75 1140.42,-758.75 1140.42,-768.25 1140.42,-768.25 1140.42,-773 1135.67,-777.75 1130.92,-777.75 1130.92,-777.75 1096.67,-777.75 1096.67,-777.75 1091.92,-777.75 1087.17,-773 1087.17,-768.25 1087.17,-768.25 1087.17,-758.75 1087.17,-758.75 1087.17,-754 1091.92,-749.25 1096.67,-749.25"/>
</g>
<!-- present&#45;&gt;setId -->
<g id="edge18" class="edge">
<title>present&#45;&gt;setId</title>
<path fill="none" stroke="black" d="M225.81,-1122.89C343.69,-1068.45 672.19,-921.95 959.79,-842.5 1005.43,-829.89 1023.89,-848.35 1064.79,-824.5 1078.54,-816.48 1090.05,-803.05 1098.45,-790.93"/>
<polygon fill="black" stroke="black" points="1101.17,-793.18 1103.68,-782.88 1095.3,-789.36 1101.17,-793.18"/>
<polygon fill="none" stroke="black" points="962.79,-1083 962.79,-1101.75 1202.79,-1101.75 1202.79,-1083 962.79,-1083"/>
<text text-anchor="start" x="1040.79" y="-1090.25" font-family="Courier New" font-weight="bold" font-size="10.00" fill="blue">EQUALi(OSEX,1)</text>
<polygon fill="none" stroke="black" points="962.79,-845.5 962.79,-1081 1202.79,-1081 1202.79,-845.5 962.79,-845.5"/>
<text text-anchor="start" x="965.79" y="-1068.5" font-family="Courier New" font-size="10.00" fill="blue"> &#160;&#160;&#160;&#160;if(OSEX == 1){</text>
<text text-anchor="start" x="965.79" y="-1055.75" font-family="Courier New" font-size="10.00" fill="blue"> &#160;&#160;&#160;WPARM = F1;</text>
<text text-anchor="start" x="965.79" y="-1043" font-family="Courier New" font-size="10.00" fill="blue"> &#160;&#160;&#160;&#160;if(OWISDOM &gt;= 30){</text>
<text text-anchor="start" x="965.79" y="-1030.25" font-family="Courier New" font-size="10.00" fill="blue"> &#160;&#160;&#160;&#160;&#160;&#160;WPARM = F3;</text>
<text text-anchor="start" x="965.79" y="-1017.5" font-family="Courier New" font-size="10.00" fill="blue"> &#160;&#160;&#160;}</text>
<text text-anchor="start" x="965.79" y="-1004.75" font-family="Courier New" font-size="10.00" fill="blue"> &#160;&#160;&#160;&#160;if(OWISDOM &gt;= 20 &amp;&amp; OWISDOM &lt; 30){</text>
<text text-anchor="start" x="965.79" y="-992" font-family="Courier New" font-size="10.00" fill="blue"> &#160;&#160;&#160;&#160;&#160;&#160;WPARM = F2;</text>
<text text-anchor="start" x="965.79" y="-979.25" font-family="Courier New" font-size="10.00" fill="blue"> &#160;&#160;&#160;}</text>
<text text-anchor="start" x="965.79" y="-966.5" font-family="Courier New" font-size="10.00" fill="blue"> &#160;}</text>
<text text-anchor="start" x="965.79" y="-953.75" font-family="Courier New" font-size="10.00" fill="blue"> &#160;if(OSEX == 0){</text>
<text text-anchor="start" x="965.79" y="-941" font-family="Courier New" font-size="10.00" fill="blue"> &#160;&#160;&#160;WPARM = M1;</text>
<text text-anchor="start" x="965.79" y="-928.25" font-family="Courier New" font-size="10.00" fill="blue"> &#160;&#160;&#160;&#160;&#160;if(OWISDOM &gt;= 30){</text>
<text text-anchor="start" x="965.79" y="-915.5" font-family="Courier New" font-size="10.00" fill="blue"> &#160;&#160;&#160;&#160;&#160;&#160;WPARM = M3;</text>
<text text-anchor="start" x="965.79" y="-902.75" font-family="Courier New" font-size="10.00" fill="blue"> &#160;&#160;&#160;}</text>
<text text-anchor="start" x="965.79" y="-890" font-family="Courier New" font-size="10.00" fill="blue"> &#160;&#160;&#160;if(OWISDOM &gt;= 20 &amp;&amp; OWISDOM &lt; 30){</text>
<text text-anchor="start" x="965.79" y="-877.25" font-family="Courier New" font-size="10.00" fill="blue"> &#160;&#160;&#160;&#160;&#160;&#160;&#160;WPARM = M2;</text>
<text text-anchor="start" x="965.79" y="-864.5" font-family="Courier New" font-size="10.00" fill="blue"> &#160;&#160;&#160;}</text>
<text text-anchor="start" x="965.79" y="-851.75" font-family="Courier New" font-size="10.00" fill="blue"> &#160;}; </text>
<polygon fill="none" stroke="black" points="959.79,-842.5 959.79,-1104.75 1205.79,-1104.75 1205.79,-842.5 959.79,-842.5"/>
</g>
<!-- 100 -->
<g id="node4" class="node">
<title>100</title>
<polyline fill="none" stroke="darkred" points="301.42,-423.62 332.17,-423.62"/>
<text text-anchor="start" x="304.42" y="-430.82" font-family="Courier New" font-weight="bold" font-size="14.00">100</text>
<path fill="none" stroke="darkred" d="M307.92,-420.62C307.92,-420.62 325.67,-420.62 325.67,-420.62 330.42,-420.62 335.17,-425.38 335.17,-430.12 335.17,-430.12 335.17,-439.62 335.17,-439.62 335.17,-444.38 330.42,-449.12 325.67,-449.12 325.67,-449.12 307.92,-449.12 307.92,-449.12 303.17,-449.12 298.42,-444.38 298.42,-439.62 298.42,-439.62 298.42,-430.12 298.42,-430.12 298.42,-425.38 303.17,-420.62 307.92,-420.62"/>
</g>
<!-- empty -->
<g id="node5" class="node">
<title>empty</title>
<polyline fill="none" stroke="darkred" points="567.17,-226.5 614.42,-226.5"/>
<text text-anchor="start" x="570.17" y="-233.7" font-family="Courier New" font-weight="bold" font-size="14.00">empty</text>
<path fill="none" stroke="darkred" d="M573.67,-223.5C573.67,-223.5 607.92,-223.5 607.92,-223.5 612.67,-223.5 617.42,-228.25 617.42,-233 617.42,-233 617.42,-242.5 617.42,-242.5 617.42,-247.25 612.67,-252 607.92,-252 607.92,-252 573.67,-252 573.67,-252 568.92,-252 564.17,-247.25 564.17,-242.5 564.17,-242.5 564.17,-233 564.17,-233 564.17,-228.25 568.92,-223.5 573.67,-223.5"/>
</g>
<!-- 100&#45;&gt;empty -->
<g id="edge2" class="edge">
<title>100&#45;&gt;empty</title>
<path fill="none" stroke="black" d="M307.49,-416.77C292.74,-387.06 268.76,-325.77 300.79,-291.25 319.06,-271.57 516.51,-282.31 541.79,-273.25 549.03,-270.66 556.17,-266.69 562.67,-262.35"/>
<polygon fill="black" stroke="black" points="564.39,-265.43 570.44,-256.73 560.29,-259.75 564.39,-265.43"/>
<polygon fill="none" stroke="black" points="303.79,-327.75 303.79,-346.5 471.79,-346.5 471.79,-327.75 303.79,-327.75"/>
<text text-anchor="start" x="351.79" y="-335" font-family="Courier New" font-weight="bold" font-size="10.00" fill="blue">Z_EPSILON(,)</text>
<polygon fill="none" stroke="black" points="303.79,-294.25 303.79,-325.75 471.79,-325.75 471.79,-294.25 303.79,-294.25"/>
<text text-anchor="start" x="306.79" y="-313.25" font-family="Courier New" font-size="10.00" fill="blue"> &#160;&#160;&#160;SHOW(0);</text>
<text text-anchor="start" x="306.79" y="-300.5" font-family="Courier New" font-size="10.00" fill="blue"> &#160;&#160;&#160;SIGNAL(WIP4,SIG_CLEAR);</text>
<polygon fill="none" stroke="black" points="300.79,-291.25 300.79,-349.5 474.79,-349.5 474.79,-291.25 300.79,-291.25"/>
</g>
<!-- sitting -->
<g id="node20" class="node">
<title>sitting</title>
<polyline fill="none" stroke="darkred" points="1030.92,-566 1094.67,-566"/>
<text text-anchor="start" x="1033.92" y="-573.2" font-family="Courier New" font-weight="bold" font-size="14.00">sitting</text>
<path fill="none" stroke="darkred" d="M1037.42,-563C1037.42,-563 1088.17,-563 1088.17,-563 1092.92,-563 1097.67,-567.75 1097.67,-572.5 1097.67,-572.5 1097.67,-582 1097.67,-582 1097.67,-586.75 1092.92,-591.5 1088.17,-591.5 1088.17,-591.5 1037.42,-591.5 1037.42,-591.5 1032.67,-591.5 1027.92,-586.75 1027.92,-582 1027.92,-582 1027.92,-572.5 1027.92,-572.5 1027.92,-567.75 1032.67,-563 1037.42,-563"/>
</g>
<!-- empty&#45;&gt;sitting -->
<g id="edge14" class="edge">
<title>empty&#45;&gt;sitting</title>
<path fill="none" stroke="black" d="M576.69,-255.94C541.72,-300.76 457.84,-423.24 515.79,-502.25 549.69,-548.47 582.55,-529.95 638.79,-541 769.87,-566.76 927.36,-573.72 1008.52,-575.58"/>
<polygon fill="black" stroke="black" points="1008.35,-579.08 1018.42,-575.79 1008.49,-572.08 1008.35,-579.08"/>
<text text-anchor="start" x="519.79" y="-432.75" font-family="Courier New" font-weight="bold" font-size="10.00" fill="orange">WAIT(,SIG_SHOW)</text>
</g>
<!-- 20 -->
<g id="node6" class="node">
<title>20</title>
<polyline fill="none" stroke="darkred" points="861.54,-309.12 884.04,-309.12"/>
<text text-anchor="start" x="864.54" y="-316.32" font-family="Courier New" font-weight="bold" font-size="14.00">20</text>
<path fill="none" stroke="darkred" d="M868.04,-306.12C868.04,-306.12 877.54,-306.12 877.54,-306.12 882.29,-306.12 887.04,-310.88 887.04,-315.62 887.04,-315.62 887.04,-325.12 887.04,-325.12 887.04,-329.88 882.29,-334.62 877.54,-334.62 877.54,-334.62 868.04,-334.62 868.04,-334.62 863.29,-334.62 858.54,-329.88 858.54,-325.12 858.54,-325.12 858.54,-315.62 858.54,-315.62 858.54,-310.88 863.29,-306.12 868.04,-306.12"/>
</g>
<!-- playForward -->
<g id="node7" class="node">
<title>playForward</title>
<polyline fill="none" stroke="darkred" points="1257.42,-7 1354.17,-7"/>
<text text-anchor="start" x="1260.42" y="-14.2" font-family="Courier New" font-weight="bold" font-size="14.00">playForward</text>
<path fill="none" stroke="darkred" d="M1263.92,-4C1263.92,-4 1347.67,-4 1347.67,-4 1352.42,-4 1357.17,-8.75 1357.17,-13.5 1357.17,-13.5 1357.17,-23 1357.17,-23 1357.17,-27.75 1352.42,-32.5 1347.67,-32.5 1347.67,-32.5 1263.92,-32.5 1263.92,-32.5 1259.17,-32.5 1254.42,-27.75 1254.42,-23 1254.42,-23 1254.42,-13.5 1254.42,-13.5 1254.42,-8.75 1259.17,-4 1263.92,-4"/>
</g>
<!-- 20&#45;&gt;playForward -->
<g id="edge3" class="edge">
<title>20&#45;&gt;playForward</title>
<path fill="none" stroke="black" d="M872.01,-302.26C871.43,-268.26 875.05,-191.66 915.79,-147.75 999.43,-57.6 1147.44,-30.59 1235.08,-22.57"/>
<polygon fill="black" stroke="black" points="1235.34,-26.06 1245.01,-21.73 1234.75,-19.09 1235.34,-26.06"/>
<text text-anchor="start" x="919.79" y="-163.88" font-family="Courier New" font-weight="bold" font-size="10.00" fill="blue">ASSIGN(WSPRITE,happy)</text>
</g>
<!-- playForward&#45;&gt;sitting -->
<g id="edge16" class="edge">
<title>playForward&#45;&gt;sitting</title>
<path fill="none" stroke="black" d="M1246.52,-21.15C1021.37,-28.77 231.79,-59.16 231.79,-110.5 231.79,-435.88 231.79,-435.88 231.79,-435.88 231.79,-503.18 276.72,-520.4 340.79,-541 403.73,-561.24 852.26,-572.04 1008.94,-575.23"/>
<polygon fill="black" stroke="black" points="1008.56,-578.72 1018.63,-575.43 1008.7,-571.73 1008.56,-578.72"/>
<polygon fill="none" stroke="black" points="234.79,-251.5 234.79,-270.25 534.79,-270.25 534.79,-251.5 234.79,-251.5"/>
<text text-anchor="start" x="336.79" y="-258.75" font-family="Courier New" font-weight="bold" font-size="10.00" fill="blue">ASSIGN(BFRAME,0)</text>
<polygon fill="none" stroke="black" points="234.79,-205.25 234.79,-249.5 534.79,-249.5 534.79,-205.25 234.79,-205.25"/>
<text text-anchor="start" x="237.79" y="-237" font-family="Courier New" font-size="10.00" fill="blue"> &#160;&#160;&#160;MAP(WSPRITE,WPARM);</text>
<text text-anchor="start" x="237.79" y="-224.25" font-family="Courier New" font-size="10.00" fill="blue"> &#160;&#160;&#160;SHOW(WSPRITE);</text>
<text text-anchor="start" x="237.79" y="-211.5" font-family="Courier New" font-size="10.00" fill="blue"> &#160;&#160;&#160;ANIMATE(0,V_REWIND); //PLAY FORWARD THEN BACK</text>
<polygon fill="none" stroke="black" points="231.79,-202.25 231.79,-273.25 537.79,-273.25 537.79,-202.25 231.79,-202.25"/>
</g>
<!-- 21 -->
<g id="node8" class="node">
<title>21</title>
<polyline fill="none" stroke="darkred" points="1378.54,-100.25 1401.04,-100.25"/>
<text text-anchor="start" x="1381.54" y="-107.45" font-family="Courier New" font-weight="bold" font-size="14.00">21</text>
<path fill="none" stroke="darkred" d="M1385.04,-97.25C1385.04,-97.25 1394.54,-97.25 1394.54,-97.25 1399.29,-97.25 1404.04,-102 1404.04,-106.75 1404.04,-106.75 1404.04,-116.25 1404.04,-116.25 1404.04,-121 1399.29,-125.75 1394.54,-125.75 1394.54,-125.75 1385.04,-125.75 1385.04,-125.75 1380.29,-125.75 1375.54,-121 1375.54,-116.25 1375.54,-116.25 1375.54,-106.75 1375.54,-106.75 1375.54,-102 1380.29,-97.25 1385.04,-97.25"/>
</g>
<!-- 21&#45;&gt;playForward -->
<g id="edge4" class="edge">
<title>21&#45;&gt;playForward</title>
<path fill="none" stroke="black" d="M1373.99,-93.34C1361.32,-79.57 1343.35,-60.05 1329.04,-44.5"/>
<polygon fill="black" stroke="black" points="1331.89,-42.44 1322.54,-37.45 1326.74,-47.18 1331.89,-42.44"/>
<text text-anchor="start" x="1358.79" y="-62.75" font-family="Courier New" font-weight="bold" font-size="10.00" fill="blue">ASSIGN(WSPRITE,hurt)</text>
</g>
<!-- 22 -->
<g id="node9" class="node">
<title>22</title>
<polyline fill="none" stroke="darkred" points="806.54,-423.62 829.04,-423.62"/>
<text text-anchor="start" x="809.54" y="-430.82" font-family="Courier New" font-weight="bold" font-size="14.00">22</text>
<path fill="none" stroke="darkred" d="M813.04,-420.62C813.04,-420.62 822.54,-420.62 822.54,-420.62 827.29,-420.62 832.04,-425.38 832.04,-430.12 832.04,-430.12 832.04,-439.62 832.04,-439.62 832.04,-444.38 827.29,-449.12 822.54,-449.12 822.54,-449.12 813.04,-449.12 813.04,-449.12 808.29,-449.12 803.54,-444.38 803.54,-439.62 803.54,-439.62 803.54,-430.12 803.54,-430.12 803.54,-425.38 808.29,-420.62 813.04,-420.62"/>
</g>
<!-- playOnce -->
<g id="node10" class="node">
<title>playOnce</title>
<polyline fill="none" stroke="darkred" points="658.79,-226.5 730.79,-226.5"/>
<text text-anchor="start" x="661.79" y="-233.7" font-family="Courier New" font-weight="bold" font-size="14.00">playOnce</text>
<path fill="none" stroke="darkred" d="M665.29,-223.5C665.29,-223.5 724.29,-223.5 724.29,-223.5 729.04,-223.5 733.79,-228.25 733.79,-233 733.79,-233 733.79,-242.5 733.79,-242.5 733.79,-247.25 729.04,-252 724.29,-252 724.29,-252 665.29,-252 665.29,-252 660.54,-252 655.79,-247.25 655.79,-242.5 655.79,-242.5 655.79,-233 655.79,-233 655.79,-228.25 660.54,-223.5 665.29,-223.5"/>
</g>
<!-- 22&#45;&gt;playOnce -->
<g id="edge5" class="edge">
<title>22&#45;&gt;playOnce</title>
<path fill="none" stroke="black" d="M811.55,-416.87C805.13,-401.7 793.65,-380.01 776.79,-367.5 751.68,-348.88 729.38,-373.03 708.79,-349.5 689.16,-327.06 688.06,-291.6 690.32,-266.87"/>
<polygon fill="black" stroke="black" points="693.76,-267.54 691.45,-257.2 686.81,-266.72 693.76,-267.54"/>
<text text-anchor="start" x="712.79" y="-318.25" font-family="Courier New" font-weight="bold" font-size="10.00" fill="blue">ASSIGN(WSPRITE,kiss)</text>
</g>
<!-- playOnce&#45;&gt;sitting -->
<g id="edge17" class="edge">
<title>playOnce&#45;&gt;sitting</title>
<path fill="none" stroke="black" d="M683.03,-255.96C654.96,-299.35 589.46,-415.88 631.79,-502.25 644.16,-527.5 655.64,-530.68 681.79,-541 739.88,-563.92 918.14,-572.19 1008.73,-574.96"/>
<polygon fill="black" stroke="black" points="1008.51,-578.46 1018.61,-575.25 1008.72,-571.46 1008.51,-578.46"/>
<polygon fill="none" stroke="black" points="634.79,-448.62 634.79,-467.38 778.79,-467.38 778.79,-448.62 634.79,-448.62"/>
<text text-anchor="start" x="658.79" y="-455.88" font-family="Courier New" font-weight="bold" font-size="10.00" fill="blue">ASSIGN(BFRAME,0)</text>
<polygon fill="none" stroke="black" points="634.79,-402.38 634.79,-446.62 778.79,-446.62 778.79,-402.38 634.79,-402.38"/>
<text text-anchor="start" x="637.79" y="-434.12" font-family="Courier New" font-size="10.00" fill="blue"> &#160;&#160;&#160;MAP(WSPRITE,WPARM);</text>
<text text-anchor="start" x="637.79" y="-421.38" font-family="Courier New" font-size="10.00" fill="blue"> &#160;&#160;&#160;SHOW(0,WSPRITE);</text>
<text text-anchor="start" x="637.79" y="-408.62" font-family="Courier New" font-size="10.00" fill="blue"> &#160;&#160;&#160;ANIMATE(0,0);</text>
<polygon fill="none" stroke="black" points="631.79,-399.38 631.79,-470.38 781.79,-470.38 781.79,-399.38 631.79,-399.38"/>
</g>
<!-- 23 -->
<g id="node11" class="node">
<title>23</title>
<polyline fill="none" stroke="darkred" points="920.54,-309.12 943.04,-309.12"/>
<text text-anchor="start" x="923.54" y="-316.32" font-family="Courier New" font-weight="bold" font-size="14.00">23</text>
<path fill="none" stroke="darkred" d="M927.04,-306.12C927.04,-306.12 936.54,-306.12 936.54,-306.12 941.29,-306.12 946.04,-310.88 946.04,-315.62 946.04,-315.62 946.04,-325.12 946.04,-325.12 946.04,-329.88 941.29,-334.62 936.54,-334.62 936.54,-334.62 927.04,-334.62 927.04,-334.62 922.29,-334.62 917.54,-329.88 917.54,-325.12 917.54,-325.12 917.54,-315.62 917.54,-315.62 917.54,-310.88 922.29,-306.12 927.04,-306.12"/>
</g>
<!-- 23&#45;&gt;playForward -->
<g id="edge6" class="edge">
<title>23&#45;&gt;playForward</title>
<path fill="none" stroke="black" d="M945.35,-302.5C971.81,-270.21 1033.03,-198.36 1093.79,-147.75 1152.38,-98.95 1171.87,-92.81 1237.79,-54.5 1245.22,-50.18 1253.24,-45.79 1261.07,-41.65"/>
<polygon fill="black" stroke="black" points="1262.61,-44.8 1269.85,-37.07 1259.37,-38.59 1262.61,-44.8"/>
<text text-anchor="start" x="1097.79" y="-163.88" font-family="Courier New" font-weight="bold" font-size="10.00" fill="blue">ASSIGN(WSPRITE,mad)</text>
</g>
<!-- 24 -->
<g id="node12" class="node">
<title>24</title>
<polyline fill="none" stroke="darkred" points="1240.54,-154.75 1263.04,-154.75"/>
<text text-anchor="start" x="1243.54" y="-161.95" font-family="Courier New" font-weight="bold" font-size="14.00">24</text>
<path fill="none" stroke="darkred" d="M1247.04,-151.75C1247.04,-151.75 1256.54,-151.75 1256.54,-151.75 1261.29,-151.75 1266.04,-156.5 1266.04,-161.25 1266.04,-161.25 1266.04,-170.75 1266.04,-170.75 1266.04,-175.5 1261.29,-180.25 1256.54,-180.25 1256.54,-180.25 1247.04,-180.25 1247.04,-180.25 1242.29,-180.25 1237.54,-175.5 1237.54,-170.75 1237.54,-170.75 1237.54,-161.25 1237.54,-161.25 1237.54,-156.5 1242.29,-151.75 1247.04,-151.75"/>
</g>
<!-- 24&#45;&gt;playForward -->
<g id="edge7" class="edge">
<title>24&#45;&gt;playForward</title>
<path fill="none" stroke="black" d="M1239.72,-147.84C1236.49,-142.32 1233.44,-136.01 1231.79,-129.75 1227.65,-114.06 1225.58,-108.24 1231.79,-93.25 1239.99,-73.47 1256.32,-56.21 1271.56,-43.35"/>
<polygon fill="black" stroke="black" points="1273.56,-46.24 1279.16,-37.25 1269.17,-40.78 1273.56,-46.24"/>
<text text-anchor="start" x="1235.79" y="-109.38" font-family="Courier New" font-weight="bold" font-size="10.00" fill="blue">ASSIGN(WSPRITE,sad)</text>
</g>
<!-- 25 -->
<g id="node13" class="node">
<title>25</title>
<polyline fill="none" stroke="darkred" points="1638.54,-309.12 1661.04,-309.12"/>
<text text-anchor="start" x="1641.54" y="-316.32" font-family="Courier New" font-weight="bold" font-size="14.00">25</text>
<path fill="none" stroke="darkred" d="M1645.04,-306.12C1645.04,-306.12 1654.54,-306.12 1654.54,-306.12 1659.29,-306.12 1664.04,-310.88 1664.04,-315.62 1664.04,-315.62 1664.04,-325.12 1664.04,-325.12 1664.04,-329.88 1659.29,-334.62 1654.54,-334.62 1654.54,-334.62 1645.04,-334.62 1645.04,-334.62 1640.29,-334.62 1635.54,-329.88 1635.54,-325.12 1635.54,-325.12 1635.54,-315.62 1635.54,-315.62 1635.54,-310.88 1640.29,-306.12 1645.04,-306.12"/>
</g>
<!-- 25&#45;&gt;playForward -->
<g id="edge8" class="edge">
<title>25&#45;&gt;playForward</title>
<path fill="none" stroke="black" d="M1638.52,-302.19C1622.05,-276.81 1590.74,-227.63 1566.79,-184.25 1534.04,-124.94 1543.15,-92.09 1486.79,-54.5 1454.35,-32.86 1411.79,-23.83 1376.1,-20.32"/>
<polygon fill="black" stroke="black" points="1376.54,-16.84 1366.28,-19.49 1375.95,-23.82 1376.54,-16.84"/>
<text text-anchor="start" x="1570.79" y="-163.88" font-family="Courier New" font-weight="bold" font-size="10.00" fill="blue">ASSIGN(WSPRITE,surprised)</text>
</g>
<!-- 26 -->
<g id="node14" class="node">
<title>26</title>
<polyline fill="none" stroke="darkred" points="1749.54,-154.75 1772.04,-154.75"/>
<text text-anchor="start" x="1752.54" y="-161.95" font-family="Courier New" font-weight="bold" font-size="14.00">26</text>
<path fill="none" stroke="darkred" d="M1756.04,-151.75C1756.04,-151.75 1765.54,-151.75 1765.54,-151.75 1770.29,-151.75 1775.04,-156.5 1775.04,-161.25 1775.04,-161.25 1775.04,-170.75 1775.04,-170.75 1775.04,-175.5 1770.29,-180.25 1765.54,-180.25 1765.54,-180.25 1756.04,-180.25 1756.04,-180.25 1751.29,-180.25 1746.54,-175.5 1746.54,-170.75 1746.54,-170.75 1746.54,-161.25 1746.54,-161.25 1746.54,-156.5 1751.29,-151.75 1756.04,-151.75"/>
</g>
<!-- 26&#45;&gt;playForward -->
<g id="edge9" class="edge">
<title>26&#45;&gt;playForward</title>
<path fill="none" stroke="black" d="M1733.96,-149.48C1732.56,-148.86 1731.17,-148.28 1729.79,-147.75 1696.16,-134.87 1681.73,-148.18 1650.79,-129.75 1612.58,-106.98 1624.08,-75.37 1584.79,-54.5 1549.82,-35.93 1447.14,-26.74 1376.6,-22.5"/>
<polygon fill="black" stroke="black" points="1376.83,-19.01 1366.65,-21.92 1376.43,-25.99 1376.83,-19.01"/>
<text text-anchor="start" x="1654.79" y="-109.38" font-family="Courier New" font-weight="bold" font-size="10.00" fill="blue">ASSIGN(WSPRITE,stress)</text>
</g>
<!-- 27 -->
<g id="node15" class="node">
<title>27</title>
<polyline fill="none" stroke="darkred" points="1815.54,-100.25 1838.04,-100.25"/>
<text text-anchor="start" x="1818.54" y="-107.45" font-family="Courier New" font-weight="bold" font-size="14.00">27</text>
<path fill="none" stroke="darkred" d="M1822.04,-97.25C1822.04,-97.25 1831.54,-97.25 1831.54,-97.25 1836.29,-97.25 1841.04,-102 1841.04,-106.75 1841.04,-106.75 1841.04,-116.25 1841.04,-116.25 1841.04,-121 1836.29,-125.75 1831.54,-125.75 1831.54,-125.75 1822.04,-125.75 1822.04,-125.75 1817.29,-125.75 1812.54,-121 1812.54,-116.25 1812.54,-116.25 1812.54,-106.75 1812.54,-106.75 1812.54,-102 1817.29,-97.25 1822.04,-97.25"/>
</g>
<!-- 27&#45;&gt;playForward -->
<g id="edge10" class="edge">
<title>27&#45;&gt;playForward</title>
<path fill="none" stroke="black" d="M1799.97,-100.12C1765.36,-87.19 1703.04,-65.48 1647.79,-54.5 1554.9,-36.04 1445.78,-26.92 1376.23,-22.66"/>
<polygon fill="black" stroke="black" points="1376.69,-19.18 1366.5,-22.08 1376.28,-26.16 1376.69,-19.18"/>
<text text-anchor="start" x="1730.79" y="-62.75" font-family="Courier New" font-weight="bold" font-size="10.00" fill="blue">ASSIGN(WSPRITE,wave)</text>
</g>
<!-- 30 -->
<g id="node16" class="node">
<title>30</title>
<polyline fill="none" stroke="darkred" points="1205.54,-423.62 1228.04,-423.62"/>
<text text-anchor="start" x="1208.54" y="-430.82" font-family="Courier New" font-weight="bold" font-size="14.00">30</text>
<path fill="none" stroke="darkred" d="M1212.04,-420.62C1212.04,-420.62 1221.54,-420.62 1221.54,-420.62 1226.29,-420.62 1231.04,-425.38 1231.04,-430.12 1231.04,-430.12 1231.04,-439.62 1231.04,-439.62 1231.04,-444.38 1226.29,-449.12 1221.54,-449.12 1221.54,-449.12 1212.04,-449.12 1212.04,-449.12 1207.29,-449.12 1202.54,-444.38 1202.54,-439.62 1202.54,-439.62 1202.54,-430.12 1202.54,-430.12 1202.54,-425.38 1207.29,-420.62 1212.04,-420.62"/>
</g>
<!-- playDead -->
<g id="node17" class="node">
<title>playDead</title>
<polyline fill="none" stroke="darkred" points="1088.79,-226.5 1160.79,-226.5"/>
<text text-anchor="start" x="1091.79" y="-233.7" font-family="Courier New" font-weight="bold" font-size="14.00">playDead</text>
<path fill="none" stroke="darkred" d="M1095.29,-223.5C1095.29,-223.5 1154.29,-223.5 1154.29,-223.5 1159.04,-223.5 1163.79,-228.25 1163.79,-233 1163.79,-233 1163.79,-242.5 1163.79,-242.5 1163.79,-247.25 1159.04,-252 1154.29,-252 1154.29,-252 1095.29,-252 1095.29,-252 1090.54,-252 1085.79,-247.25 1085.79,-242.5 1085.79,-242.5 1085.79,-233 1085.79,-233 1085.79,-228.25 1090.54,-223.5 1095.29,-223.5"/>
</g>
<!-- 30&#45;&gt;playDead -->
<g id="edge11" class="edge">
<title>30&#45;&gt;playDead</title>
<path fill="none" stroke="black" d="M1209.58,-416.71C1202.71,-402.05 1191.13,-381.23 1175.79,-367.5 1161.86,-355.04 1148.69,-364.68 1137.79,-349.5 1120.7,-325.69 1119.27,-291.3 1120.97,-267.18"/>
<polygon fill="black" stroke="black" points="1124.43,-267.72 1121.89,-257.44 1117.46,-267.06 1124.43,-267.72"/>
<text text-anchor="start" x="1141.79" y="-318.25" font-family="Courier New" font-weight="bold" font-size="10.00" fill="blue">ASSIGN(WSPRITE,dead)</text>
</g>
<!-- playDead&#45;&gt;sitting -->
<g id="edge15" class="edge">
<title>playDead&#45;&gt;sitting</title>
<path fill="none" stroke="black" d="M1094.02,-255.81C1059.52,-276.91 1005.44,-316.39 982.79,-367.5 958.53,-422.25 946.44,-454.66 982.79,-502.25 1001.25,-526.41 1027.52,-498.52 1048.79,-520.25 1056,-527.61 1059.67,-538.09 1061.49,-547.99"/>
<polygon fill="black" stroke="black" points="1057.98,-548.14 1062.69,-557.63 1064.93,-547.28 1057.98,-548.14"/>
<polygon fill="none" stroke="black" points="985.79,-480.5 985.79,-499.25 1177.79,-499.25 1177.79,-480.5 985.79,-480.5"/>
<text text-anchor="start" x="1033.79" y="-487.75" font-family="Courier New" font-weight="bold" font-size="10.00" fill="blue">ASSIGN(BFRAME,0)</text>
<polygon fill="none" stroke="black" points="985.79,-370.5 985.79,-478.5 1177.79,-478.5 1177.79,-370.5 985.79,-370.5"/>
<text text-anchor="start" x="988.79" y="-466" font-family="Courier New" font-size="10.00" fill="blue"> &#160;&#160;&#160;MAP(WSPRITE,WPARM);</text>
<text text-anchor="start" x="988.79" y="-453.25" font-family="Courier New" font-size="10.00" fill="blue"> &#160;&#160;&#160;SHOW(0,WSPRITE);</text>
<text text-anchor="start" x="988.79" y="-440.5" font-family="Courier New" font-size="10.00" fill="blue"> &#160;&#160;&#160;VIDEO(0,WSPRITE);</text>
<text text-anchor="start" x="988.79" y="-427.75" font-family="Courier New" font-size="10.00" fill="blue"> &#160;&#160;&#160;ANIMATE(0,0);</text>
<text text-anchor="start" x="988.79" y="-415" font-family="Courier New" font-size="10.00" fill="blue"> &#160;&#160;&#160;ASSIGN(OENERGY,1);</text>
<text text-anchor="start" x="988.79" y="-402.25" font-family="Courier New" font-size="10.00" fill="blue"> &#160;&#160;&#160;ASSIGN(OWEALTH,0);</text>
<text text-anchor="start" x="988.79" y="-389.5" font-family="Courier New" font-size="10.00" fill="blue"> &#160;&#160;&#160;SIGNAL(SMP_VIAL,SIG_DRAIN);</text>
<text text-anchor="start" x="988.79" y="-376.75" font-family="Courier New" font-size="10.00" fill="blue"> &#160;&#160;&#160;LOADVIEW(IDV_VIL8);</text>
<polygon fill="none" stroke="black" points="982.79,-367.5 982.79,-502.25 1180.79,-502.25 1180.79,-367.5 982.79,-367.5"/>
</g>
<!-- 50 -->
<g id="node18" class="node">
<title>50</title>
<polyline fill="none" stroke="darkred" points="1460.54,-423.62 1483.04,-423.62"/>
<text text-anchor="start" x="1463.54" y="-430.82" font-family="Courier New" font-weight="bold" font-size="14.00">50</text>
<path fill="none" stroke="darkred" d="M1467.04,-420.62C1467.04,-420.62 1476.54,-420.62 1476.54,-420.62 1481.29,-420.62 1486.04,-425.38 1486.04,-430.12 1486.04,-430.12 1486.04,-439.62 1486.04,-439.62 1486.04,-444.38 1481.29,-449.12 1476.54,-449.12 1476.54,-449.12 1467.04,-449.12 1467.04,-449.12 1462.29,-449.12 1457.54,-444.38 1457.54,-439.62 1457.54,-439.62 1457.54,-430.12 1457.54,-430.12 1457.54,-425.38 1462.29,-420.62 1467.04,-420.62"/>
</g>
<!-- 51 -->
<g id="node19" class="node">
<title>51</title>
<polyline fill="none" stroke="darkred" points="1436.54,-226.5 1459.04,-226.5"/>
<text text-anchor="start" x="1439.54" y="-233.7" font-family="Courier New" font-weight="bold" font-size="14.00">51</text>
<path fill="none" stroke="darkred" d="M1443.04,-223.5C1443.04,-223.5 1452.54,-223.5 1452.54,-223.5 1457.29,-223.5 1462.04,-228.25 1462.04,-233 1462.04,-233 1462.04,-242.5 1462.04,-242.5 1462.04,-247.25 1457.29,-252 1452.54,-252 1452.54,-252 1443.04,-252 1443.04,-252 1438.29,-252 1433.54,-247.25 1433.54,-242.5 1433.54,-242.5 1433.54,-233 1433.54,-233 1433.54,-228.25 1438.29,-223.5 1443.04,-223.5"/>
</g>
<!-- 50&#45;&gt;51 -->
<g id="edge12" class="edge">
<title>50&#45;&gt;51</title>
<path fill="none" stroke="black" d="M1471.64,-416.63C1471.16,-389.68 1469.26,-336.06 1461.79,-291.25 1460.43,-283.12 1458.37,-274.43 1456.25,-266.5"/>
<polygon fill="black" stroke="black" points="1459.66,-265.72 1453.57,-257.05 1452.93,-267.63 1459.66,-265.72"/>
<text text-anchor="start" x="1471.79" y="-318.25" font-family="Courier New" font-weight="bold" font-size="10.00" fill="blue">VIDEO(0,IDS_EXPLODE1)</text>
</g>
<!-- 51&#45;&gt;21 -->
<g id="edge13" class="edge">
<title>51&#45;&gt;21</title>
<path fill="none" stroke="black" d="M1421.01,-219.6C1409.46,-210.61 1397.16,-198.5 1390.79,-184.25 1384.78,-170.79 1384.11,-154.44 1385.13,-140.75"/>
<polygon fill="black" stroke="black" points="1388.58,-141.38 1386.2,-131.05 1381.62,-140.61 1388.58,-141.38"/>
<text text-anchor="start" x="1394.79" y="-163.88" font-family="Courier New" font-weight="bold" font-size="10.00" fill="blue">PLAYWAVE(0,SOUND_EXPLODE)</text>
</g>
<!-- sitting&#45;&gt;0 -->
<g id="edge32" class="edge">
<title>sitting&#45;&gt;0</title>
<path fill="none" stroke="black" d="M1105.29,-582.33C1145.11,-587.14 1200.45,-596.68 1213.79,-613.5 1405.44,-855.04 1427.64,-1085.13 1213.79,-1307.25 1177.24,-1345.22 787.66,-1303.2 739.79,-1325.25 733.09,-1328.34 727.06,-1333.31 721.93,-1338.68"/>
<polygon fill="black" stroke="black" points="719.45,-1336.2 715.64,-1346.09 724.78,-1340.73 719.45,-1336.2"/>
<text text-anchor="start" x="1369.79" y="-971.5" font-family="Courier New" font-weight="bold" font-size="10.00" fill="orange">WAIT(0,0)</text>
</g>
<!-- sitting&#45;&gt;present -->
<g id="edge20" class="edge">
<title>sitting&#45;&gt;present</title>
<path fill="none" stroke="black" d="M1020.01,-580.15C834.29,-588.85 104.14,-627.62 37.79,-702.5 -72.57,-827.05 88.23,-1038.01 154.48,-1114.87"/>
<polygon fill="black" stroke="black" points="151.49,-1116.77 160.7,-1122.01 156.77,-1112.17 151.49,-1116.77"/>
<polygon fill="none" stroke="black" points="40.79,-802.75 40.79,-821.5 1066.79,-821.5 1066.79,-802.75 40.79,-802.75"/>
<text text-anchor="start" x="508.79" y="-810" font-family="Courier New" font-weight="bold" font-size="10.00" fill="orange">WAIT(,SIG_OTID)</text>
<polygon fill="none" stroke="black" points="40.79,-705.5 40.79,-800.75 1066.79,-800.75 1066.79,-705.5 40.79,-705.5"/>
<text text-anchor="start" x="43.79" y="-788.25" font-family="Courier New" font-size="10.00" fill="blue"> &#160;&#160;&#160;CLEAR(WSPRITE);</text>
<text text-anchor="start" x="43.79" y="-775.5" font-family="Courier New" font-size="10.00" fill="blue"> &#160;&#160;&#160;&#160;SHOW(0);</text>
<text text-anchor="start" x="43.79" y="-762.75" font-family="Courier New" font-size="10.00" fill="blue"> &#160;&#160;&#160;&#160;predicate otherplayer(pid,status,player,account_id,name,viewname,wealth,karma,energy,strength,wisdom,gender,culture, knowsparent, knowsvillage,knowscity);</text>
<text text-anchor="start" x="43.79" y="-750" font-family="Courier New" font-size="10.00" fill="blue"> &#160;&#160;&#160;&#160;otherplayer(?BPARM, &quot;ACTIVE&quot;, ?WPARM,?acntid,?ONAME,?OVIEW,?OWEALTH,?OKARMA,?OENERGY, ?OSTRENGTH,?OWISDOM,?OSEX,?OCULTURE,?OKNOWSPARENT,?OKNOWSVILLSAGE,?OKNOWSCITY)?</text>
<text text-anchor="start" x="43.79" y="-737.25" font-family="Courier New" font-size="10.00" fill="blue"> &#160;&#160;&#160;&#160;set_control_value(IDV_OTHERNAME, OTHN, ONAME);</text>
<text text-anchor="start" x="43.79" y="-724.5" font-family="Courier New" font-size="10.00" fill="blue"> &#160;&#160;&#160;&#160;SIGNAL(SOD_AURA,SIG_MYAURA);</text>
<text text-anchor="start" x="43.79" y="-711.75" font-family="Courier New" font-size="10.00" fill="blue"> &#160;&#160;&#160;&#160;SIGNAL(SOD_HALO, SIG_MYHALO);</text>
<polygon fill="none" stroke="black" points="37.79,-702.5 37.79,-824.5 1069.79,-824.5 1069.79,-702.5 37.79,-702.5"/>
</g>
<!-- sitting&#45;&gt;100 -->
<g id="edge31" class="edge">
<title>sitting&#45;&gt;100</title>
<path fill="none" stroke="black" d="M1019.97,-576.64C876.52,-577.6 418.87,-577.72 364.79,-541 339.11,-523.57 326.94,-488.82 321.33,-464.05"/>
<polygon fill="black" stroke="black" points="324.77,-463.4 319.37,-454.29 317.91,-464.78 324.77,-463.4"/>
<text text-anchor="start" x="368.79" y="-528.5" font-family="Courier New" font-weight="bold" font-size="10.00" fill="orange">WAIT(0,SIG_CLEAR)</text>
</g>
<!-- sitting&#45;&gt;20 -->
<g id="edge21" class="edge">
<title>sitting&#45;&gt;20</title>
<path fill="none" stroke="black" d="M1020.09,-576.32C958.53,-575.41 849.52,-569.66 824.79,-541 818.77,-534.02 820.31,-528.31 824.79,-520.25 832.16,-506.99 845.73,-515.1 853.79,-502.25 883.3,-455.18 881.22,-387.36 877.03,-349.56"/>
<polygon fill="black" stroke="black" points="880.54,-349.39 875.83,-339.91 873.6,-350.26 880.54,-349.39"/>
<text text-anchor="start" x="828.79" y="-528.5" font-family="Courier New" font-weight="bold" font-size="10.00" fill="orange">WAIT(0,SIG_HAPPY)</text>
</g>
<!-- sitting&#45;&gt;21 -->
<g id="edge22" class="edge">
<title>sitting&#45;&gt;21</title>
<path fill="none" stroke="black" d="M1105.65,-573.3C1185.8,-566.73 1353.17,-547.77 1384.79,-502.25 1418.95,-453.06 1414.67,-419.4 1384.79,-367.5 1376.84,-353.69 1361.74,-363.31 1353.79,-349.5 1340.87,-327.06 1351.47,-317.03 1353.79,-291.25 1359.59,-226.69 1365.15,-210.89 1379.79,-147.75 1380.33,-145.43 1380.92,-143.03 1381.55,-140.62"/>
<polygon fill="black" stroke="black" points="1384.9,-141.65 1384.17,-131.08 1378.15,-139.8 1384.9,-141.65"/>
<text text-anchor="start" x="1357.79" y="-318.25" font-family="Courier New" font-weight="bold" font-size="10.00" fill="orange">WAIT(0,SIG_HURT)</text>
</g>
<!-- sitting&#45;&gt;22 -->
<g id="edge23" class="edge">
<title>sitting&#45;&gt;22</title>
<path fill="none" stroke="black" d="M1019.96,-575.36C926.85,-572.99 712.59,-564.96 690.79,-541 684.58,-534.18 684.98,-527.41 690.79,-520.25 715.41,-489.94 744.83,-524.68 776.79,-502.25 790.35,-492.73 800.31,-477.16 807.02,-463.49"/>
<polygon fill="black" stroke="black" points="810.17,-465.02 811.08,-454.47 803.78,-462.15 810.17,-465.02"/>
<text text-anchor="start" x="694.79" y="-528.5" font-family="Courier New" font-weight="bold" font-size="10.00" fill="orange">WAIT(0,SIG_KISS)</text>
</g>
<!-- sitting&#45;&gt;23 -->
<g id="edge24" class="edge">
<title>sitting&#45;&gt;23</title>
<path fill="none" stroke="black" d="M1020.15,-574.06C996,-570.44 967.37,-561.67 950.79,-541 906.38,-485.64 916.34,-395.25 925.2,-349.62"/>
<polygon fill="black" stroke="black" points="928.59,-350.5 927.2,-340 921.74,-349.08 928.59,-350.5"/>
<text text-anchor="start" x="954.79" y="-528.5" font-family="Courier New" font-weight="bold" font-size="10.00" fill="orange">WAIT(0,SIG_MAD)</text>
</g>
<!-- sitting&#45;&gt;24 -->
<g id="edge25" class="edge">
<title>sitting&#45;&gt;24</title>
<path fill="none" stroke="black" d="M1105.3,-574.83C1157.62,-572.09 1241.99,-564.12 1261.79,-541 1305.9,-489.49 1271.39,-273.15 1257.18,-195.17"/>
<polygon fill="black" stroke="black" points="1260.63,-194.57 1255.36,-185.38 1253.74,-195.85 1260.63,-194.57"/>
<text text-anchor="start" x="1286.79" y="-432.75" font-family="Courier New" font-weight="bold" font-size="10.00" fill="orange">WAIT(0,SIG_SAD)</text>
</g>
<!-- sitting&#45;&gt;25 -->
<g id="edge26" class="edge">
<title>sitting&#45;&gt;25</title>
<path fill="none" stroke="black" d="M1105.37,-575.54C1216.29,-573.35 1508,-565.33 1543.79,-541 1577.88,-517.82 1621.43,-402.85 1640.33,-349.13"/>
<polygon fill="black" stroke="black" points="1643.61,-350.37 1643.59,-339.78 1636.99,-348.07 1643.61,-350.37"/>
<text text-anchor="start" x="1564.79" y="-528.5" font-family="Courier New" font-weight="bold" font-size="10.00" fill="orange">WAIT(0,SIG_SURPRISED)</text>
</g>
<!-- sitting&#45;&gt;26 -->
<g id="edge27" class="edge">
<title>sitting&#45;&gt;26</title>
<path fill="none" stroke="black" d="M1105.29,-575.34C1244.12,-572.19 1676.69,-560.82 1698.79,-541 1700.42,-539.54 1742.17,-282.17 1756.22,-195.27"/>
<polygon fill="black" stroke="black" points="1759.67,-195.89 1757.81,-185.46 1752.76,-194.77 1759.67,-195.89"/>
<text text-anchor="start" x="1731.79" y="-432.75" font-family="Courier New" font-weight="bold" font-size="10.00" fill="orange">WAIT(0,SIG_STRESS)</text>
</g>
<!-- sitting&#45;&gt;27 -->
<g id="edge28" class="edge">
<title>sitting&#45;&gt;27</title>
<path fill="none" stroke="black" d="M1105.61,-575.79C1262.67,-573.63 1800.23,-561.89 1844.79,-502.25 1927.74,-391.21 1866.59,-208.69 1838.7,-139.89"/>
<polygon fill="black" stroke="black" points="1842.03,-138.78 1834.97,-130.89 1835.57,-141.46 1842.03,-138.78"/>
<text text-anchor="start" x="1889.79" y="-318.25" font-family="Courier New" font-weight="bold" font-size="10.00" fill="orange">WAIT(0,SIG_WAVE)</text>
</g>
<!-- sitting&#45;&gt;30 -->
<g id="edge29" class="edge">
<title>sitting&#45;&gt;30</title>
<path fill="none" stroke="black" d="M1097,-559.07C1121.01,-545.84 1152.8,-525.85 1175.79,-502.25 1186.86,-490.88 1196.39,-476.01 1203.47,-463.23"/>
<polygon fill="black" stroke="black" points="1206.53,-464.92 1208.11,-454.44 1200.34,-461.65 1206.53,-464.92"/>
<text text-anchor="start" x="1157.79" y="-528.5" font-family="Courier New" font-weight="bold" font-size="10.00" fill="orange">WAIT(0,SIG_DEAD)</text>
</g>
<!-- sitting&#45;&gt;50 -->
<g id="edge30" class="edge">
<title>sitting&#45;&gt;50</title>
<path fill="none" stroke="black" d="M1105.65,-576.94C1188.53,-577.5 1367.02,-574.62 1416.79,-541 1443.17,-523.19 1457.74,-488.57 1465.15,-463.93"/>
<polygon fill="black" stroke="black" points="1468.45,-465.11 1467.75,-454.54 1461.71,-463.25 1468.45,-465.11"/>
<text text-anchor="start" x="1440.79" y="-528.5" font-family="Courier New" font-weight="bold" font-size="10.00" fill="orange">WAIT(0,SIG_BOMB)</text>
</g>
<!-- setId&#45;&gt;sitting -->
<g id="edge19" class="edge">
<title>setId&#45;&gt;sitting</title>
<path fill="none" stroke="black" d="M1098.72,-745.35C1086.66,-730.43 1070.68,-707.62 1063.79,-684.5 1056.18,-658.96 1056.84,-628.42 1058.86,-606.64"/>
<polygon fill="black" stroke="black" points="1062.33,-607.07 1059.95,-596.74 1055.37,-606.3 1062.33,-607.07"/>
<polygon fill="none" stroke="black" points="1066.79,-662.75 1066.79,-681.5 1210.79,-681.5 1210.79,-662.75 1066.79,-662.75"/>
<text text-anchor="start" x="1075.79" y="-670" font-family="Courier New" font-weight="bold" font-size="10.00" fill="blue">ASSIGN(WSPRITE,happy)</text>
<polygon fill="none" stroke="black" points="1066.79,-616.5 1066.79,-660.75 1210.79,-660.75 1210.79,-616.5 1066.79,-616.5"/>
<text text-anchor="start" x="1069.79" y="-648.25" font-family="Courier New" font-size="10.00" fill="blue"> &#160;&#160;&#160;MAP(WSPRITE,WPARM);</text>
<text text-anchor="start" x="1069.79" y="-635.5" font-family="Courier New" font-size="10.00" fill="blue"> &#160;&#160;&#160;ASSIGN(BFRAME,0);</text>
<text text-anchor="start" x="1069.79" y="-622.75" font-family="Courier New" font-size="10.00" fill="blue"> &#160;&#160;&#160;SHOW(WSPRITE);</text>
<polygon fill="none" stroke="black" points="1063.79,-613.5 1063.79,-684.5 1213.79,-684.5 1213.79,-613.5 1063.79,-613.5"/>
</g>
<!-- status -->
<g id="node22" class="node">
<title>status</title>
<polygon fill="none" stroke="black" points="748.79,-1325.75 748.79,-1404.75 2348.79,-1404.75 2348.79,-1325.75 748.79,-1325.75"/>
<polygon fill="none" stroke="black" points="759.79,-1379 759.79,-1397.75 2337.79,-1397.75 2337.79,-1379 759.79,-1379"/>
<text text-anchor="start" x="1530.79" y="-1386.25" font-family="Courier New" font-weight="bold" font-size="10.00">SOD_ID</text>
<polygon fill="none" stroke="black" points="759.79,-1332.75 759.79,-1377 2337.79,-1377 2337.79,-1332.75 759.79,-1332.75"/>
<text text-anchor="start" x="762.79" y="-1364.5" font-family="Courier New" font-size="10.00" fill="green">VIEW::IDV_OTHERID @pos(x:0, y:0, h:101, w:171)</text>
<text text-anchor="start" x="762.79" y="-1351.75" font-family="Courier New" font-size="10.00" fill="green">SOD_ID::M_OID(&#39;OWISDOM&#39;,&#39;OSEX&#39;,&#39;0&#39;,&#39;SOD_AURA&#39;,&#39;&#39;,&#39;&#39;)</text>
<text text-anchor="start" x="762.79" y="-1339" font-family="Courier New" font-size="10.00" fill="green">{state:&#39;present&#39;: bParm:108.82.186.169:50782 wParm:{&quot;candidates&quot;:[&quot;127.0.0.1:50782&quot;,&quot;192.168.1.231:50782&quot;,&quot;108.82.186.169:50782&quot;],&quot;connected&quot;:true,&quot;playerId&quot;:&quot;108.82.186.169:50782&quot;,&quot;playerIp&quot;:&quot;:&quot;,&quot;playerName&quot;:&quot;ProBro&quot;,&quot;reconnectTok&quot;:&quot;AOLmWWTzi&quot;} Top:0 Left:0 Z:0</text>
<polygon fill="none" stroke="black" points="756.79,-1329.75 756.79,-1400.75 2340.79,-1400.75 2340.79,-1329.75 756.79,-1329.75"/>
</g>
</g>
</svg>
