<?xml version="1.0" encoding="UTF-8" standalone="no"?>
<!DOCTYPE svg PUBLIC "-//W3C//DTD SVG 1.1//EN"
 "http://www.w3.org/Graphics/SVG/1.1/DTD/svg11.dtd">
<!-- Generated by graphviz version 10.0.1 (20240210.2158)
 -->
<!-- Title: Automaton Pages: 1 -->
<svg width="2348pt" height="1439pt"
 viewBox="0.00 0.00 2348.00 1438.75" xmlns="http://www.w3.org/2000/svg" xmlns:xlink="http://www.w3.org/1999/xlink">
<g id="graph0" class="graph" transform="scale(1 1) rotate(0) translate(4 1434.75)">
<title>Automaton</title>
<polygon fill="white" stroke="none" points="-4,4 -4,-1434.75 2344,-1434.75 2344,4 -4,4"/>
<!-- filename -->
<g id="node1" class="node">
<title>filename</title>
<polygon fill="none" stroke="black" points="1347,-1364 1347,-1417.5 1465,-1417.5 1465,-1364 1347,-1364"/>
<polygon fill="none" stroke="black" points="1358,-1391.75 1358,-1410.5 1454,-1410.5 1454,-1391.75 1358,-1391.75"/>
<text text-anchor="start" x="1367" y="-1399" font-family="Courier New" font-weight="bold" font-size="10.00">SOD_ID::M_OID</text>
<polygon fill="none" stroke="black" points="1358,-1371 1358,-1389.75 1454,-1389.75 1454,-1371 1358,-1371"/>
<text text-anchor="start" x="1361" y="-1377.25" font-family="Courier New" font-size="10.00" fill="brown">start state = 0</text>
<polygon fill="none" stroke="black" points="1355,-1368 1355,-1413.5 1457,-1413.5 1457,-1368 1355,-1368"/>
</g>
<!-- 0 -->
<g id="node2" class="node">
<title>0</title>
<polyline fill="none" stroke="darkred" points="1502.88,-1379.5 1517.12,-1379.5"/>
<text text-anchor="start" x="1505.88" y="-1386.7" font-family="Courier New" font-weight="bold" font-size="14.00">0</text>
<path fill="none" stroke="darkred" d="M1506.62,-1376.5C1506.62,-1376.5 1513.38,-1376.5 1513.38,-1376.5 1516.75,-1376.5 1520.12,-1379.88 1520.12,-1383.25 1520.12,-1383.25 1520.12,-1398.25 1520.12,-1398.25 1520.12,-1401.62 1516.75,-1405 1513.38,-1405 1513.38,-1405 1506.62,-1405 1506.62,-1405 1503.25,-1405 1499.88,-1401.62 1499.88,-1398.25 1499.88,-1398.25 1499.88,-1383.25 1499.88,-1383.25 1499.88,-1379.88 1503.25,-1376.5 1506.62,-1376.5"/>
</g>
<!-- present -->
<g id="node3" class="node">
<title>present</title>
<polyline fill="none" stroke="darkred" points="944.12,-1137.75 1007.88,-1137.75"/>
<text text-anchor="start" x="947.12" y="-1144.95" font-family="Courier New" font-weight="bold" font-size="14.00">present</text>
<path fill="none" stroke="darkred" d="M950.62,-1134.75C950.62,-1134.75 1001.38,-1134.75 1001.38,-1134.75 1006.12,-1134.75 1010.88,-1139.5 1010.88,-1144.25 1010.88,-1144.25 1010.88,-1153.75 1010.88,-1153.75 1010.88,-1158.5 1006.12,-1163.25 1001.38,-1163.25 1001.38,-1163.25 950.62,-1163.25 950.62,-1163.25 945.88,-1163.25 941.12,-1158.5 941.12,-1153.75 941.12,-1153.75 941.12,-1144.25 941.12,-1144.25 941.12,-1139.5 945.88,-1134.75 950.62,-1134.75"/>
</g>
<!-- 0&#45;&gt;present -->
<g id="edge1" class="edge">
<title>0&#45;&gt;present</title>
<path fill="none" stroke="black" d="M1499.13,-1372.74C1492.87,-1364.53 1484.21,-1355.45 1474,-1350.75 1425.52,-1328.43 1032.87,-1369.33 994,-1332.75 952.16,-1293.38 960.31,-1218.88 968.8,-1178.22"/>
<polygon fill="black" stroke="black" points="972.16,-1179.23 970.94,-1168.71 965.33,-1177.69 972.16,-1179.23"/>
<polygon fill="none" stroke="black" points="997,-1311 997,-1329.75 2023,-1329.75 2023,-1311 997,-1311"/>
<text text-anchor="start" x="1465" y="-1318.25" font-family="Courier New" font-weight="bold" font-size="10.00" fill="orange">WAIT(,SIG_OTID)</text>
<polygon fill="none" stroke="black" points="997,-1188.25 997,-1309 2023,-1309 2023,-1188.25 997,-1188.25"/>
<text text-anchor="start" x="1000" y="-1296.5" font-family="Courier New" font-size="10.00" fill="blue"> &#160;&#160;&#160;unloadview(IDV_MEFID);</text>
<text text-anchor="start" x="1000" y="-1283.75" font-family="Courier New" font-size="10.00" fill="blue"> &#160;&#160;&#160;loadview(IDV_OTHERID);</text>
<text text-anchor="start" x="1000" y="-1271" font-family="Courier New" font-size="10.00" fill="blue"> &#160;&#160;&#160;CLEAR(WSPRITE);</text>
<text text-anchor="start" x="1000" y="-1258.25" font-family="Courier New" font-size="10.00" fill="blue"> &#160;&#160;&#160;&#160;SHOW();</text>
<text text-anchor="start" x="1000" y="-1245.5" font-family="Courier New" font-size="10.00" fill="blue"> &#160;&#160;&#160;&#160;predicate otherplayer(pid,status,player,account_id,name,viewname,wealth,karma,energy,strength,wisdom,gender,culture, knowsparent, knowsvillage,knowscity);</text>
<text text-anchor="start" x="1000" y="-1232.75" font-family="Courier New" font-size="10.00" fill="blue"> &#160;&#160;&#160;&#160;otherplayer(?BPARM, &quot;ACTIVE&quot;, ?WPARM,?acntid,?ONAME,?OVIEW,?OWEALTH,?OKARMA,?OENERGY, ?OSTRENGTH,?OWISDOM,?OSEX,?OCULTURE,?OKNOWSPARENT,?OKNOWSVILLSAGE,?OKNOWSCITY)?</text>
<text text-anchor="start" x="1000" y="-1220" font-family="Courier New" font-size="10.00" fill="blue"> &#160;&#160;&#160;&#160;&#160;set_control_value(IDV_OTHERNAME, OTHN, ONAME);</text>
<text text-anchor="start" x="1000" y="-1207.25" font-family="Courier New" font-size="10.00" fill="blue"> &#160;&#160;&#160;&#160;&#160;SIGNAL(SOD_AURA,SIG_MYAURA);</text>
<text text-anchor="start" x="1000" y="-1194.5" font-family="Courier New" font-size="10.00" fill="blue"> &#160;&#160;&#160;&#160;&#160;SIGNAL(SOD_HALO, SIG_MYHALO);</text>
<polygon fill="none" stroke="black" points="994,-1185.25 994,-1332.75 2026,-1332.75 2026,-1185.25 994,-1185.25"/>
</g>
<!-- setId -->
<g id="node21" class="node">
<title>setId</title>
<polyline fill="none" stroke="darkred" points="688.38,-753.88 735.62,-753.88"/>
<text text-anchor="start" x="691.38" y="-761.08" font-family="Courier New" font-weight="bold" font-size="14.00">setId</text>
<path fill="none" stroke="darkred" d="M694.88,-750.88C694.88,-750.88 729.12,-750.88 729.12,-750.88 733.88,-750.88 738.62,-755.62 738.62,-760.38 738.62,-760.38 738.62,-769.88 738.62,-769.88 738.62,-774.62 733.88,-779.38 729.12,-779.38 729.12,-779.38 694.88,-779.38 694.88,-779.38 690.12,-779.38 685.38,-774.62 685.38,-769.88 685.38,-769.88 685.38,-760.38 685.38,-760.38 685.38,-755.62 690.12,-750.88 694.88,-750.88"/>
</g>
<!-- present&#45;&gt;setId -->
<g id="edge19" class="edge">
<title>present&#45;&gt;setId</title>
<path fill="none" stroke="black" d="M933.29,-1148.76C866.27,-1148.94 741.14,-1144.82 713,-1112.75 671.92,-1065.94 696.61,-868.24 707.58,-794.24"/>
<polygon fill="black" stroke="black" points="711,-794.99 709.04,-784.57 704.08,-793.94 711,-794.99"/>
<polygon fill="none" stroke="black" points="716,-1091 716,-1109.75 956,-1109.75 956,-1091 716,-1091"/>
<text text-anchor="start" x="800" y="-1098.25" font-family="Courier New" font-weight="bold" font-size="10.00" fill="blue">Z_EPSILON(,)</text>
<polygon fill="none" stroke="black" points="716,-853.5 716,-1089 956,-1089 956,-853.5 716,-853.5"/>
<text text-anchor="start" x="719" y="-1076.5" font-family="Courier New" font-size="10.00" fill="blue"> &#160;&#160;&#160;if(OSEX == 1){</text>
<text text-anchor="start" x="719" y="-1063.75" font-family="Courier New" font-size="10.00" fill="blue"> &#160;&#160;&#160;WPARM = F1;</text>
<text text-anchor="start" x="719" y="-1051" font-family="Courier New" font-size="10.00" fill="blue"> &#160;&#160;&#160;&#160;if(OWISDOM &gt;= 30){</text>
<text text-anchor="start" x="719" y="-1038.25" font-family="Courier New" font-size="10.00" fill="blue"> &#160;&#160;&#160;&#160;&#160;&#160;WPARM = F3;</text>
<text text-anchor="start" x="719" y="-1025.5" font-family="Courier New" font-size="10.00" fill="blue"> &#160;&#160;&#160;}</text>
<text text-anchor="start" x="719" y="-1012.75" font-family="Courier New" font-size="10.00" fill="blue"> &#160;&#160;&#160;&#160;if(OWISDOM &gt;= 20 &amp;&amp; OWISDOM &lt; 30){</text>
<text text-anchor="start" x="719" y="-1000" font-family="Courier New" font-size="10.00" fill="blue"> &#160;&#160;&#160;&#160;&#160;&#160;WPARM = F2;</text>
<text text-anchor="start" x="719" y="-987.25" font-family="Courier New" font-size="10.00" fill="blue"> &#160;&#160;&#160;}</text>
<text text-anchor="start" x="719" y="-974.5" font-family="Courier New" font-size="10.00" fill="blue"> &#160;}</text>
<text text-anchor="start" x="719" y="-961.75" font-family="Courier New" font-size="10.00" fill="blue"> &#160;if(OSEX == 0){</text>
<text text-anchor="start" x="719" y="-949" font-family="Courier New" font-size="10.00" fill="blue"> &#160;&#160;&#160;WPARM = M1;</text>
<text text-anchor="start" x="719" y="-936.25" font-family="Courier New" font-size="10.00" fill="blue"> &#160;&#160;&#160;&#160;&#160;if(OWISDOM &gt;= 30){</text>
<text text-anchor="start" x="719" y="-923.5" font-family="Courier New" font-size="10.00" fill="blue"> &#160;&#160;&#160;&#160;&#160;&#160;WPARM = M3;</text>
<text text-anchor="start" x="719" y="-910.75" font-family="Courier New" font-size="10.00" fill="blue"> &#160;&#160;&#160;}</text>
<text text-anchor="start" x="719" y="-898" font-family="Courier New" font-size="10.00" fill="blue"> &#160;&#160;&#160;if(OWISDOM &gt;= 20 &amp;&amp; OWISDOM &lt; 30){</text>
<text text-anchor="start" x="719" y="-885.25" font-family="Courier New" font-size="10.00" fill="blue"> &#160;&#160;&#160;&#160;&#160;&#160;&#160;WPARM = M2;</text>
<text text-anchor="start" x="719" y="-872.5" font-family="Courier New" font-size="10.00" fill="blue"> &#160;&#160;&#160;}</text>
<text text-anchor="start" x="719" y="-859.75" font-family="Courier New" font-size="10.00" fill="blue"> &#160;}; </text>
<polygon fill="none" stroke="black" points="713,-850.5 713,-1112.75 959,-1112.75 959,-850.5 713,-850.5"/>
</g>
<!-- 100 -->
<g id="node4" class="node">
<title>100</title>
<polyline fill="none" stroke="darkred" points="1995.62,-442.75 2026.38,-442.75"/>
<text text-anchor="start" x="1998.62" y="-449.95" font-family="Courier New" font-weight="bold" font-size="14.00">100</text>
<path fill="none" stroke="darkred" d="M2002.12,-439.75C2002.12,-439.75 2019.88,-439.75 2019.88,-439.75 2024.62,-439.75 2029.38,-444.5 2029.38,-449.25 2029.38,-449.25 2029.38,-458.75 2029.38,-458.75 2029.38,-463.5 2024.62,-468.25 2019.88,-468.25 2019.88,-468.25 2002.12,-468.25 2002.12,-468.25 1997.38,-468.25 1992.62,-463.5 1992.62,-458.75 1992.62,-458.75 1992.62,-449.25 1992.62,-449.25 1992.62,-444.5 1997.38,-439.75 2002.12,-439.75"/>
</g>
<!-- 100&#45;&gt;0 -->
<g id="edge2" class="edge">
<title>100&#45;&gt;0</title>
<path fill="none" stroke="black" d="M2018.32,-472.18C2026.91,-493.95 2040,-532.81 2040,-567.5 2040,-1150 2040,-1150 2040,-1150 2040,-1231.46 2084.71,-1276.28 2026,-1332.75 1987.53,-1369.75 1594.48,-1328.43 1546,-1350.75 1539.3,-1353.83 1533.27,-1358.8 1528.14,-1364.18"/>
<polygon fill="black" stroke="black" points="1525.66,-1361.7 1521.85,-1371.59 1530.99,-1366.23 1525.66,-1361.7"/>
<polygon fill="none" stroke="black" points="2043,-778.88 2043,-797.62 2211,-797.62 2211,-778.88 2043,-778.88"/>
<text text-anchor="start" x="2091" y="-786.12" font-family="Courier New" font-weight="bold" font-size="10.00" fill="blue">Z_EPSILON(,)</text>
<polygon fill="none" stroke="black" points="2043,-732.62 2043,-776.88 2211,-776.88 2211,-732.62 2043,-732.62"/>
<text text-anchor="start" x="2046" y="-764.38" font-family="Courier New" font-size="10.00" fill="blue"> &#160;&#160;&#160;SHOW(0);</text>
<text text-anchor="start" x="2046" y="-751.62" font-family="Courier New" font-size="10.00" fill="blue"> &#160;&#160;&#160;SIGNAL(WIP4,SIG_CLEAR);</text>
<text text-anchor="start" x="2046" y="-738.88" font-family="Courier New" font-size="10.00" fill="blue"> &#160;&#160;&#160;SIGNAL(WIP3,SIG_CLEAR);</text>
<polygon fill="none" stroke="black" points="2040,-729.62 2040,-800.62 2214,-800.62 2214,-729.62 2040,-729.62"/>
</g>
<!-- 20 -->
<g id="node5" class="node">
<title>20</title>
<polyline fill="none" stroke="darkred" points="15.75,-191.12 38.25,-191.12"/>
<text text-anchor="start" x="18.75" y="-198.32" font-family="Courier New" font-weight="bold" font-size="14.00">20</text>
<path fill="none" stroke="darkred" d="M22.25,-188.12C22.25,-188.12 31.75,-188.12 31.75,-188.12 36.5,-188.12 41.25,-192.88 41.25,-197.62 41.25,-197.62 41.25,-207.12 41.25,-207.12 41.25,-211.88 36.5,-216.62 31.75,-216.62 31.75,-216.62 22.25,-216.62 22.25,-216.62 17.5,-216.62 12.75,-211.88 12.75,-207.12 12.75,-207.12 12.75,-197.62 12.75,-197.62 12.75,-192.88 17.5,-188.12 22.25,-188.12"/>
</g>
<!-- playForward -->
<g id="node6" class="node">
<title>playForward</title>
<polyline fill="none" stroke="darkred" points="619.62,-7 716.38,-7"/>
<text text-anchor="start" x="622.62" y="-14.2" font-family="Courier New" font-weight="bold" font-size="14.00">playForward</text>
<path fill="none" stroke="darkred" d="M626.12,-4C626.12,-4 709.88,-4 709.88,-4 714.62,-4 719.38,-8.75 719.38,-13.5 719.38,-13.5 719.38,-23 719.38,-23 719.38,-27.75 714.62,-32.5 709.88,-32.5 709.88,-32.5 626.12,-32.5 626.12,-32.5 621.38,-32.5 616.62,-27.75 616.62,-23 616.62,-23 616.62,-13.5 616.62,-13.5 616.62,-8.75 621.38,-4 626.12,-4"/>
</g>
<!-- 20&#45;&gt;playForward -->
<g id="edge3" class="edge">
<title>20&#45;&gt;playForward</title>
<path fill="none" stroke="black" d="M22.82,-184.23C18.22,-160.91 14.01,-119.12 35,-93.25 74.06,-45.11 107.96,-65.36 169,-54.5 319.98,-27.65 500.08,-21.07 597.3,-19.57"/>
<polygon fill="black" stroke="black" points="597.28,-23.07 607.23,-19.43 597.18,-16.07 597.28,-23.07"/>
<text text-anchor="start" x="39" y="-109.38" font-family="Courier New" font-weight="bold" font-size="10.00" fill="blue">ASSIGN(WSPRITE,happy)</text>
</g>
<!-- sitting -->
<g id="node20" class="node">
<title>sitting</title>
<polyline fill="none" stroke="darkred" stroke-width="3" points="868.62,-556.75 933.38,-556.75"/>
<text text-anchor="start" x="872.12" y="-564.45" font-family="Courier New" font-weight="bold" font-size="14.00">sitting</text>
<path fill="none" stroke="darkred" stroke-width="3" d="M874.79,-551.75C874.79,-551.75 927.21,-551.75 927.21,-551.75 932.79,-551.75 938.38,-557.33 938.38,-562.92 938.38,-562.92 938.38,-574.08 938.38,-574.08 938.38,-579.67 932.79,-585.25 927.21,-585.25 927.21,-585.25 874.79,-585.25 874.79,-585.25 869.21,-585.25 863.62,-579.67 863.62,-574.08 863.62,-574.08 863.62,-562.92 863.62,-562.92 863.62,-557.33 869.21,-551.75 874.79,-551.75"/>
</g>
<!-- playForward&#45;&gt;sitting -->
<g id="edge17" class="edge">
<title>playForward&#45;&gt;sitting</title>
<path fill="none" stroke="black" d="M609.01,-24.25C479.76,-35.98 183,-67.61 183,-110.5 183,-455 183,-455 183,-455 183,-521.64 672.02,-554.91 842.9,-564.5"/>
<polygon fill="black" stroke="black" points="842.48,-567.98 852.66,-565.04 842.86,-560.99 842.48,-567.98"/>
<polygon fill="none" stroke="black" points="186,-324.25 186,-343 486,-343 486,-324.25 186,-324.25"/>
<text text-anchor="start" x="288" y="-331.5" font-family="Courier New" font-weight="bold" font-size="10.00" fill="blue">ASSIGN(BFRAME,0)</text>
<polygon fill="none" stroke="black" points="186,-278 186,-322.25 486,-322.25 486,-278 186,-278"/>
<text text-anchor="start" x="189" y="-309.75" font-family="Courier New" font-size="10.00" fill="blue"> &#160;&#160;&#160;MAP(WSPRITE,WPARM);</text>
<text text-anchor="start" x="189" y="-297" font-family="Courier New" font-size="10.00" fill="blue"> &#160;&#160;&#160;SHOW(WSPRITE);</text>
<text text-anchor="start" x="189" y="-284.25" font-family="Courier New" font-size="10.00" fill="blue"> &#160;&#160;&#160;ANIMATE(0,V_REWIND); //PLAY FORWARD THEN BACK</text>
<polygon fill="none" stroke="black" points="183,-275 183,-346 489,-346 489,-275 183,-275"/>
</g>
<!-- 21 -->
<g id="node7" class="node">
<title>21</title>
<polyline fill="none" stroke="darkred" points="1020.75,-100.25 1043.25,-100.25"/>
<text text-anchor="start" x="1023.75" y="-107.45" font-family="Courier New" font-weight="bold" font-size="14.00">21</text>
<path fill="none" stroke="darkred" d="M1027.25,-97.25C1027.25,-97.25 1036.75,-97.25 1036.75,-97.25 1041.5,-97.25 1046.25,-102 1046.25,-106.75 1046.25,-106.75 1046.25,-116.25 1046.25,-116.25 1046.25,-121 1041.5,-125.75 1036.75,-125.75 1036.75,-125.75 1027.25,-125.75 1027.25,-125.75 1022.5,-125.75 1017.75,-121 1017.75,-116.25 1017.75,-116.25 1017.75,-106.75 1017.75,-106.75 1017.75,-102 1022.5,-97.25 1027.25,-97.25"/>
</g>
<!-- 21&#45;&gt;playForward -->
<g id="edge4" class="edge">
<title>21&#45;&gt;playForward</title>
<path fill="none" stroke="black" d="M1005.06,-97.72C977.12,-84.97 931.9,-65.71 891,-54.5 840.75,-40.73 782.56,-31.76 738.22,-26.31"/>
<polygon fill="black" stroke="black" points="738.82,-22.86 728.48,-25.15 737.99,-29.81 738.82,-22.86"/>
<text text-anchor="start" x="954" y="-62.75" font-family="Courier New" font-weight="bold" font-size="10.00" fill="blue">ASSIGN(WSPRITE,hurt)</text>
</g>
<!-- 22 -->
<g id="node8" class="node">
<title>22</title>
<polyline fill="none" stroke="darkred" points="1555.75,-442.75 1578.25,-442.75"/>
<text text-anchor="start" x="1558.75" y="-449.95" font-family="Courier New" font-weight="bold" font-size="14.00">22</text>
<path fill="none" stroke="darkred" d="M1562.25,-439.75C1562.25,-439.75 1571.75,-439.75 1571.75,-439.75 1576.5,-439.75 1581.25,-444.5 1581.25,-449.25 1581.25,-449.25 1581.25,-458.75 1581.25,-458.75 1581.25,-463.5 1576.5,-468.25 1571.75,-468.25 1571.75,-468.25 1562.25,-468.25 1562.25,-468.25 1557.5,-468.25 1552.75,-463.5 1552.75,-458.75 1552.75,-458.75 1552.75,-449.25 1552.75,-449.25 1552.75,-444.5 1557.5,-439.75 1562.25,-439.75"/>
</g>
<!-- playOnce -->
<g id="node9" class="node">
<title>playOnce</title>
<polyline fill="none" stroke="darkred" points="1667,-299.25 1739,-299.25"/>
<text text-anchor="start" x="1670" y="-306.45" font-family="Courier New" font-weight="bold" font-size="14.00">playOnce</text>
<path fill="none" stroke="darkred" d="M1673.5,-296.25C1673.5,-296.25 1732.5,-296.25 1732.5,-296.25 1737.25,-296.25 1742,-301 1742,-305.75 1742,-305.75 1742,-315.25 1742,-315.25 1742,-320 1737.25,-324.75 1732.5,-324.75 1732.5,-324.75 1673.5,-324.75 1673.5,-324.75 1668.75,-324.75 1664,-320 1664,-315.25 1664,-315.25 1664,-305.75 1664,-305.75 1664,-301 1668.75,-296.25 1673.5,-296.25"/>
</g>
<!-- 22&#45;&gt;playOnce -->
<g id="edge5" class="edge">
<title>22&#45;&gt;playOnce</title>
<path fill="none" stroke="black" d="M1570.85,-436.07C1576.01,-416.67 1586.81,-384.86 1606,-364 1617.38,-351.64 1632.35,-341.58 1647.12,-333.7"/>
<polygon fill="black" stroke="black" points="1648.56,-336.9 1655.91,-329.27 1645.41,-330.64 1648.56,-336.9"/>
<text text-anchor="start" x="1610" y="-380.12" font-family="Courier New" font-weight="bold" font-size="10.00" fill="blue">ASSIGN(WSPRITE,kiss)</text>
</g>
<!-- playOnce&#45;&gt;sitting -->
<g id="edge18" class="edge">
<title>playOnce&#45;&gt;sitting</title>
<path fill="none" stroke="black" d="M1716.14,-328.41C1722.92,-338.22 1730.49,-351.13 1734,-364 1738.28,-379.65 1739.43,-385.22 1734,-400.5 1709.47,-469.48 1695.25,-495.05 1630,-528.25 1570.88,-558.33 1120.93,-565.46 958.91,-567.06"/>
<polygon fill="black" stroke="black" points="959.23,-563.56 949.26,-567.15 959.3,-570.56 959.23,-563.56"/>
<polygon fill="none" stroke="black" points="1729,-467.75 1729,-486.5 1873,-486.5 1873,-467.75 1729,-467.75"/>
<text text-anchor="start" x="1753" y="-475" font-family="Courier New" font-weight="bold" font-size="10.00" fill="blue">ASSIGN(BFRAME,0)</text>
<polygon fill="none" stroke="black" points="1729,-421.5 1729,-465.75 1873,-465.75 1873,-421.5 1729,-421.5"/>
<text text-anchor="start" x="1732" y="-453.25" font-family="Courier New" font-size="10.00" fill="blue"> &#160;&#160;&#160;MAP(WSPRITE,WPARM);</text>
<text text-anchor="start" x="1732" y="-440.5" font-family="Courier New" font-size="10.00" fill="blue"> &#160;&#160;&#160;SHOW(0,WSPRITE);</text>
<text text-anchor="start" x="1732" y="-427.75" font-family="Courier New" font-size="10.00" fill="blue"> &#160;&#160;&#160;ANIMATE(0,0);</text>
<polygon fill="none" stroke="black" points="1726,-418.5 1726,-489.5 1876,-489.5 1876,-418.5 1726,-418.5"/>
</g>
<!-- 23 -->
<g id="node10" class="node">
<title>23</title>
<polyline fill="none" stroke="darkred" points="505.75,-371 528.25,-371"/>
<text text-anchor="start" x="508.75" y="-378.2" font-family="Courier New" font-weight="bold" font-size="14.00">23</text>
<path fill="none" stroke="darkred" d="M512.25,-368C512.25,-368 521.75,-368 521.75,-368 526.5,-368 531.25,-372.75 531.25,-377.5 531.25,-377.5 531.25,-387 531.25,-387 531.25,-391.75 526.5,-396.5 521.75,-396.5 521.75,-396.5 512.25,-396.5 512.25,-396.5 507.5,-396.5 502.75,-391.75 502.75,-387 502.75,-387 502.75,-377.5 502.75,-377.5 502.75,-372.75 507.5,-368 512.25,-368"/>
</g>
<!-- 23&#45;&gt;playForward -->
<g id="edge6" class="edge">
<title>23&#45;&gt;playForward</title>
<path fill="none" stroke="black" d="M511.41,-364.04C499.39,-323.83 474.9,-221.55 510,-147.75 533,-99.39 584.1,-63.27 621.99,-41.84"/>
<polygon fill="black" stroke="black" points="623.39,-45.06 630.47,-37.18 620.02,-38.92 623.39,-45.06"/>
<text text-anchor="start" x="514" y="-200.25" font-family="Courier New" font-weight="bold" font-size="10.00" fill="blue">ASSIGN(WSPRITE,mad)</text>
</g>
<!-- 24 -->
<g id="node11" class="node">
<title>24</title>
<polyline fill="none" stroke="darkred" points="628.75,-371 651.25,-371"/>
<text text-anchor="start" x="631.75" y="-378.2" font-family="Courier New" font-weight="bold" font-size="14.00">24</text>
<path fill="none" stroke="darkred" d="M635.25,-368C635.25,-368 644.75,-368 644.75,-368 649.5,-368 654.25,-372.75 654.25,-377.5 654.25,-377.5 654.25,-387 654.25,-387 654.25,-391.75 649.5,-396.5 644.75,-396.5 644.75,-396.5 635.25,-396.5 635.25,-396.5 630.5,-396.5 625.75,-391.75 625.75,-387 625.75,-387 625.75,-377.5 625.75,-377.5 625.75,-372.75 630.5,-368 635.25,-368"/>
</g>
<!-- 24&#45;&gt;playForward -->
<g id="edge7" class="edge">
<title>24&#45;&gt;playForward</title>
<path fill="none" stroke="black" d="M638.89,-364.19C636.65,-325.54 632.45,-228.37 641,-147.75 644.73,-112.56 653.87,-72.8 660.48,-46.95"/>
<polygon fill="black" stroke="black" points="663.78,-48.14 662.93,-37.58 657.01,-46.37 663.78,-48.14"/>
<text text-anchor="start" x="645" y="-200.25" font-family="Courier New" font-weight="bold" font-size="10.00" fill="blue">ASSIGN(WSPRITE,sad)</text>
</g>
<!-- 25 -->
<g id="node12" class="node">
<title>25</title>
<polyline fill="none" stroke="darkred" points="787.75,-191.12 810.25,-191.12"/>
<text text-anchor="start" x="790.75" y="-198.32" font-family="Courier New" font-weight="bold" font-size="14.00">25</text>
<path fill="none" stroke="darkred" d="M794.25,-188.12C794.25,-188.12 803.75,-188.12 803.75,-188.12 808.5,-188.12 813.25,-192.88 813.25,-197.62 813.25,-197.62 813.25,-207.12 813.25,-207.12 813.25,-211.88 808.5,-216.62 803.75,-216.62 803.75,-216.62 794.25,-216.62 794.25,-216.62 789.5,-216.62 784.75,-211.88 784.75,-207.12 784.75,-207.12 784.75,-197.62 784.75,-197.62 784.75,-192.88 789.5,-188.12 794.25,-188.12"/>
</g>
<!-- 25&#45;&gt;playForward -->
<g id="edge8" class="edge">
<title>25&#45;&gt;playForward</title>
<path fill="none" stroke="black" d="M793.09,-184.28C788.15,-172.4 779.96,-157.08 768,-147.75 745.04,-129.84 726.05,-149.87 705,-129.75 682.51,-108.24 673.69,-72.68 670.23,-47.73"/>
<polygon fill="black" stroke="black" points="673.72,-47.47 669.1,-37.94 666.77,-48.27 673.72,-47.47"/>
<text text-anchor="start" x="709" y="-109.38" font-family="Courier New" font-weight="bold" font-size="10.00" fill="blue">ASSIGN(WSPRITE,surprised)</text>
</g>
<!-- 26 -->
<g id="node13" class="node">
<title>26</title>
<polyline fill="none" stroke="darkred" points="881.75,-371 904.25,-371"/>
<text text-anchor="start" x="884.75" y="-378.2" font-family="Courier New" font-weight="bold" font-size="14.00">26</text>
<path fill="none" stroke="darkred" d="M888.25,-368C888.25,-368 897.75,-368 897.75,-368 902.5,-368 907.25,-372.75 907.25,-377.5 907.25,-377.5 907.25,-387 907.25,-387 907.25,-391.75 902.5,-396.5 897.75,-396.5 897.75,-396.5 888.25,-396.5 888.25,-396.5 883.5,-396.5 878.75,-391.75 878.75,-387 878.75,-387 878.75,-377.5 878.75,-377.5 878.75,-372.75 883.5,-368 888.25,-368"/>
</g>
<!-- 26&#45;&gt;playForward -->
<g id="edge9" class="edge">
<title>26&#45;&gt;playForward</title>
<path fill="none" stroke="black" d="M890.81,-364.39C887.74,-340.51 882.08,-295.46 878,-257 874.14,-220.66 885.11,-122.35 863,-93.25 833.64,-54.61 781.58,-36.14 738.63,-27.32"/>
<polygon fill="black" stroke="black" points="739.32,-23.89 728.84,-25.46 738.01,-30.77 739.32,-23.89"/>
<text text-anchor="start" x="882" y="-200.25" font-family="Courier New" font-weight="bold" font-size="10.00" fill="blue">ASSIGN(WSPRITE,stress)</text>
</g>
<!-- 27 -->
<g id="node14" class="node">
<title>27</title>
<polyline fill="none" stroke="darkred" points="1279.75,-191.12 1302.25,-191.12"/>
<text text-anchor="start" x="1282.75" y="-198.32" font-family="Courier New" font-weight="bold" font-size="14.00">27</text>
<path fill="none" stroke="darkred" d="M1286.25,-188.12C1286.25,-188.12 1295.75,-188.12 1295.75,-188.12 1300.5,-188.12 1305.25,-192.88 1305.25,-197.62 1305.25,-197.62 1305.25,-207.12 1305.25,-207.12 1305.25,-211.88 1300.5,-216.62 1295.75,-216.62 1295.75,-216.62 1286.25,-216.62 1286.25,-216.62 1281.5,-216.62 1276.75,-211.88 1276.75,-207.12 1276.75,-207.12 1276.75,-197.62 1276.75,-197.62 1276.75,-192.88 1281.5,-188.12 1286.25,-188.12"/>
</g>
<!-- 27&#45;&gt;playForward -->
<g id="edge10" class="edge">
<title>27&#45;&gt;playForward</title>
<path fill="none" stroke="black" d="M1279.01,-184.57C1270.39,-173.27 1258.05,-158.53 1245,-147.75 1180.67,-94.58 1161.68,-79.35 1082,-54.5 1019.84,-35.11 839.44,-25.54 738.5,-21.58"/>
<polygon fill="black" stroke="black" points="738.83,-18.09 728.71,-21.2 738.57,-25.08 738.83,-18.09"/>
<text text-anchor="start" x="1226" y="-109.38" font-family="Courier New" font-weight="bold" font-size="10.00" fill="blue">ASSIGN(WSPRITE,wave)</text>
</g>
<!-- 30 -->
<g id="node15" class="node">
<title>30</title>
<polyline fill="none" stroke="darkred" points="1445.75,-442.75 1468.25,-442.75"/>
<text text-anchor="start" x="1448.75" y="-449.95" font-family="Courier New" font-weight="bold" font-size="14.00">30</text>
<path fill="none" stroke="darkred" d="M1452.25,-439.75C1452.25,-439.75 1461.75,-439.75 1461.75,-439.75 1466.5,-439.75 1471.25,-444.5 1471.25,-449.25 1471.25,-449.25 1471.25,-458.75 1471.25,-458.75 1471.25,-463.5 1466.5,-468.25 1461.75,-468.25 1461.75,-468.25 1452.25,-468.25 1452.25,-468.25 1447.5,-468.25 1442.75,-463.5 1442.75,-458.75 1442.75,-458.75 1442.75,-449.25 1442.75,-449.25 1442.75,-444.5 1447.5,-439.75 1452.25,-439.75"/>
</g>
<!-- playDead -->
<g id="node16" class="node">
<title>playDead</title>
<polyline fill="none" stroke="darkred" points="1464,-299.25 1536,-299.25"/>
<text text-anchor="start" x="1467" y="-306.45" font-family="Courier New" font-weight="bold" font-size="14.00">playDead</text>
<path fill="none" stroke="darkred" d="M1470.5,-296.25C1470.5,-296.25 1529.5,-296.25 1529.5,-296.25 1534.25,-296.25 1539,-301 1539,-305.75 1539,-305.75 1539,-315.25 1539,-315.25 1539,-320 1534.25,-324.75 1529.5,-324.75 1529.5,-324.75 1470.5,-324.75 1470.5,-324.75 1465.75,-324.75 1461,-320 1461,-315.25 1461,-315.25 1461,-305.75 1461,-305.75 1461,-301 1465.75,-296.25 1470.5,-296.25"/>
</g>
<!-- 30&#45;&gt;playDead -->
<g id="edge11" class="edge">
<title>30&#45;&gt;playDead</title>
<path fill="none" stroke="black" d="M1453,-435.99C1449.5,-417.61 1446.21,-387.77 1455,-364 1458.73,-353.91 1465.36,-344.46 1472.41,-336.42"/>
<polygon fill="black" stroke="black" points="1474.72,-339.07 1479.06,-329.4 1469.64,-334.26 1474.72,-339.07"/>
<text text-anchor="start" x="1459" y="-380.12" font-family="Courier New" font-weight="bold" font-size="10.00" fill="blue">ASSIGN(WSPRITE,dead)</text>
</g>
<!-- dead -->
<g id="node19" class="node">
<title>dead</title>
<polyline fill="none" stroke="darkred" points="1907.5,-100.25 1946.5,-100.25"/>
<text text-anchor="start" x="1910.5" y="-107.45" font-family="Courier New" font-weight="bold" font-size="14.00">dead</text>
<path fill="none" stroke="darkred" d="M1914,-97.25C1914,-97.25 1940,-97.25 1940,-97.25 1944.75,-97.25 1949.5,-102 1949.5,-106.75 1949.5,-106.75 1949.5,-116.25 1949.5,-116.25 1949.5,-121 1944.75,-125.75 1940,-125.75 1940,-125.75 1914,-125.75 1914,-125.75 1909.25,-125.75 1904.5,-121 1904.5,-116.25 1904.5,-116.25 1904.5,-106.75 1904.5,-106.75 1904.5,-102 1909.25,-97.25 1914,-97.25"/>
</g>
<!-- playDead&#45;&gt;dead -->
<g id="edge16" class="edge">
<title>playDead&#45;&gt;dead</title>
<path fill="none" stroke="black" d="M1521.82,-292.45C1565.22,-259.4 1666.49,-186.47 1763,-147.75 1803.01,-131.7 1851.59,-122.42 1885.45,-117.45"/>
<polygon fill="black" stroke="black" points="1885.86,-120.93 1895.28,-116.08 1884.89,-114 1885.86,-120.93"/>
<polygon fill="none" stroke="black" points="1766,-235.25 1766,-254 1910,-254 1910,-235.25 1766,-235.25"/>
<text text-anchor="start" x="1790" y="-242.5" font-family="Courier New" font-weight="bold" font-size="10.00" fill="blue">ASSIGN(BFRAME,0)</text>
<polygon fill="none" stroke="black" points="1766,-150.75 1766,-233.25 1910,-233.25 1910,-150.75 1766,-150.75"/>
<text text-anchor="start" x="1769" y="-220.75" font-family="Courier New" font-size="10.00" fill="blue"> &#160;&#160;&#160;MAP(WSPRITE,WPARM);</text>
<text text-anchor="start" x="1769" y="-208" font-family="Courier New" font-size="10.00" fill="blue"> &#160;&#160;&#160;SHOW(0,WSPRITE);</text>
<text text-anchor="start" x="1769" y="-195.25" font-family="Courier New" font-size="10.00" fill="blue"> &#160;&#160;&#160;VIDEO(0,WSPRITE);</text>
<text text-anchor="start" x="1769" y="-182.5" font-family="Courier New" font-size="10.00" fill="blue"> &#160;&#160;&#160;ANIMATE(0,0);</text>
<text text-anchor="start" x="1769" y="-169.75" font-family="Courier New" font-size="10.00" fill="blue"> &#160;&#160;&#160;ASSIGN(OENERGY,0);</text>
<text text-anchor="start" x="1769" y="-157" font-family="Courier New" font-size="10.00" fill="blue"> &#160;&#160;&#160;ASSIGN(OWEALTH,0);</text>
<polygon fill="none" stroke="black" points="1763,-147.75 1763,-257 1913,-257 1913,-147.75 1763,-147.75"/>
</g>
<!-- 50 -->
<g id="node17" class="node">
<title>50</title>
<polyline fill="none" stroke="darkred" points="1111.75,-442.75 1134.25,-442.75"/>
<text text-anchor="start" x="1114.75" y="-449.95" font-family="Courier New" font-weight="bold" font-size="14.00">50</text>
<path fill="none" stroke="darkred" d="M1118.25,-439.75C1118.25,-439.75 1127.75,-439.75 1127.75,-439.75 1132.5,-439.75 1137.25,-444.5 1137.25,-449.25 1137.25,-449.25 1137.25,-458.75 1137.25,-458.75 1137.25,-463.5 1132.5,-468.25 1127.75,-468.25 1127.75,-468.25 1118.25,-468.25 1118.25,-468.25 1113.5,-468.25 1108.75,-463.5 1108.75,-458.75 1108.75,-458.75 1108.75,-449.25 1108.75,-449.25 1108.75,-444.5 1113.5,-439.75 1118.25,-439.75"/>
</g>
<!-- 51 -->
<g id="node18" class="node">
<title>51</title>
<polyline fill="none" stroke="darkred" points="1090.75,-299.25 1113.25,-299.25"/>
<text text-anchor="start" x="1093.75" y="-306.45" font-family="Courier New" font-weight="bold" font-size="14.00">51</text>
<path fill="none" stroke="darkred" d="M1097.25,-296.25C1097.25,-296.25 1106.75,-296.25 1106.75,-296.25 1111.5,-296.25 1116.25,-301 1116.25,-305.75 1116.25,-305.75 1116.25,-315.25 1116.25,-315.25 1116.25,-320 1111.5,-324.75 1106.75,-324.75 1106.75,-324.75 1097.25,-324.75 1097.25,-324.75 1092.5,-324.75 1087.75,-320 1087.75,-315.25 1087.75,-315.25 1087.75,-305.75 1087.75,-305.75 1087.75,-301 1092.5,-296.25 1097.25,-296.25"/>
</g>
<!-- 50&#45;&gt;51 -->
<g id="edge12" class="edge">
<title>50&#45;&gt;51</title>
<path fill="none" stroke="black" d="M1130.13,-435.96C1136.69,-417.81 1144.39,-388.4 1137,-364 1134.2,-354.76 1129.18,-345.65 1123.8,-337.69"/>
<polygon fill="black" stroke="black" points="1126.79,-335.85 1118.07,-329.83 1121.13,-339.98 1126.79,-335.85"/>
<text text-anchor="start" x="1144" y="-380.12" font-family="Courier New" font-weight="bold" font-size="10.00" fill="blue">VIDEO(0,IDS_EXPLODE1)</text>
</g>
<!-- 51&#45;&gt;21 -->
<g id="edge13" class="edge">
<title>51&#45;&gt;21</title>
<path fill="none" stroke="black" d="M1096.36,-292.41C1086.54,-262.81 1065.45,-200.12 1046,-147.75 1045.11,-145.34 1044.16,-142.85 1043.2,-140.36"/>
<polygon fill="black" stroke="black" points="1046.46,-139.09 1039.54,-131.06 1039.94,-141.65 1046.46,-139.09"/>
<text text-anchor="start" x="1087" y="-200.25" font-family="Courier New" font-weight="bold" font-size="10.00" fill="blue">PLAYWAVE(0,SOUND_EXPLODE)</text>
</g>
<!-- dead&#45;&gt;0 -->
<g id="edge15" class="edge">
<title>dead&#45;&gt;0</title>
<path fill="none" stroke="black" d="M1957.49,-116.76C2036.54,-129.7 2242,-176.14 2242,-309.5 2242,-1150 2242,-1150 2242,-1150 2242,-1266.21 2161.82,-1287 2055,-1332.75 1950.96,-1377.31 1648.86,-1303.53 1546,-1350.75 1539.3,-1353.83 1533.26,-1358.8 1528.14,-1364.17"/>
<polygon fill="black" stroke="black" points="1525.65,-1361.69 1521.85,-1371.58 1530.99,-1366.22 1525.65,-1361.69"/>
<text text-anchor="start" x="2246" y="-566.38" font-family="Courier New" font-weight="bold" font-size="10.00" fill="orange">WAIT(,SIG_MYID)</text>
</g>
<!-- dead&#45;&gt;present -->
<g id="edge14" class="edge">
<title>dead&#45;&gt;present</title>
<path fill="none" stroke="black" d="M1926.37,-129.55C1924.44,-186.25 1919.18,-373.68 1928,-528.25 1932.32,-603.93 1942.77,-622.06 1947,-697.75 1950.34,-757.55 1982.2,-784.05 1947,-832.5 1834.17,-987.8 1217.21,-1106.15 1029.93,-1138.91"/>
<polygon fill="black" stroke="black" points="1029.48,-1135.44 1020.23,-1140.6 1030.68,-1142.33 1029.48,-1135.44"/>
<text text-anchor="start" x="1932" y="-515.75" font-family="Courier New" font-weight="bold" font-size="10.00" fill="orange">WAIT(,SIG_OTID)</text>
</g>
<!-- sitting&#45;&gt;0 -->
<g id="edge33" class="edge">
<title>sitting&#45;&gt;0</title>
<path fill="none" stroke="black" d="M854.4,-572.46C799.68,-576.88 713.4,-587.13 690,-608.75 524.13,-762.04 518.15,-913.77 625,-1112.75 708.74,-1268.7 788.43,-1278.75 957,-1332.75 1011.74,-1350.29 1421.76,-1326.78 1474,-1350.75 1480.71,-1353.83 1486.74,-1358.79 1491.86,-1364.17"/>
<polygon fill="black" stroke="black" points="1489.01,-1366.22 1498.15,-1371.58 1494.35,-1361.69 1489.01,-1366.22"/>
<text text-anchor="start" x="629" y="-979.5" font-family="Courier New" font-weight="bold" font-size="10.00" fill="orange">WAIT(0,0)</text>
</g>
<!-- sitting&#45;&gt;present -->
<g id="edge21" class="edge">
<title>sitting&#45;&gt;present</title>
<path fill="none" stroke="black" d="M899.33,-590.48C895.35,-645.78 887.59,-793.92 915,-832.5 927.24,-849.72 946.73,-833.3 959,-850.5 1017.77,-932.86 996.66,-1063.03 983.43,-1119.88"/>
<polygon fill="black" stroke="black" points="980.08,-1118.84 981.11,-1129.38 986.88,-1120.49 980.08,-1118.84"/>
<polygon fill="none" stroke="black" points="918,-810.75 918,-829.5 1944,-829.5 1944,-810.75 918,-810.75"/>
<text text-anchor="start" x="1386" y="-818" font-family="Courier New" font-weight="bold" font-size="10.00" fill="orange">WAIT(,SIG_OTID)</text>
<polygon fill="none" stroke="black" points="918,-700.75 918,-808.75 1944,-808.75 1944,-700.75 918,-700.75"/>
<text text-anchor="start" x="921" y="-796.25" font-family="Courier New" font-size="10.00" fill="blue"> &#160;&#160;&#160;loadview(IDV_OTHERID);</text>
<text text-anchor="start" x="921" y="-783.5" font-family="Courier New" font-size="10.00" fill="blue"> &#160;&#160;&#160;CLEAR(WSPRITE);</text>
<text text-anchor="start" x="921" y="-770.75" font-family="Courier New" font-size="10.00" fill="blue"> &#160;&#160;&#160;&#160;SHOW();</text>
<text text-anchor="start" x="921" y="-758" font-family="Courier New" font-size="10.00" fill="blue"> &#160;&#160;&#160;&#160;predicate otherplayer(pid,status,player,account_id,name,viewname,wealth,karma,energy,strength,wisdom,gender,culture, knowsparent, knowsvillage,knowscity);</text>
<text text-anchor="start" x="921" y="-745.25" font-family="Courier New" font-size="10.00" fill="blue"> &#160;&#160;&#160;&#160;otherplayer(?BPARM, &quot;ACTIVE&quot;, ?WPARM,?acntid,?ONAME,?OVIEW,?OWEALTH,?OKARMA,?OENERGY, ?OSTRENGTH,?OWISDOM,?OSEX,?OCULTURE,?OKNOWSPARENT,?OKNOWSVILLSAGE,?OKNOWSCITY)?</text>
<text text-anchor="start" x="921" y="-732.5" font-family="Courier New" font-size="10.00" fill="blue"> &#160;&#160;&#160;&#160;set_control_value(IDV_OTHERNAME, OTHN, ONAME);</text>
<text text-anchor="start" x="921" y="-719.75" font-family="Courier New" font-size="10.00" fill="blue"> &#160;&#160;&#160;&#160;SIGNAL(SOD_AURA,SIG_SUB);</text>
<text text-anchor="start" x="921" y="-707" font-family="Courier New" font-size="10.00" fill="blue"> &#160;&#160;&#160;&#160;SIGNAL(SOD_HALO, SIG_MYHALO);</text>
<polygon fill="none" stroke="black" points="915,-697.75 915,-832.5 1947,-832.5 1947,-697.75 915,-697.75"/>
</g>
<!-- sitting&#45;&gt;100 -->
<g id="edge32" class="edge">
<title>sitting&#45;&gt;100</title>
<path fill="none" stroke="black" d="M947.71,-566.76C1115.84,-563.92 1684.26,-552.59 1762,-528.25 1778.53,-523.07 1778.81,-513.67 1795,-507.5 1840.06,-490.33 1855.12,-500.8 1902,-489.5 1926.21,-483.66 1952.87,-475.26 1973.76,-468.21"/>
<polygon fill="black" stroke="black" points="1974.66,-471.6 1982.99,-465.05 1972.39,-464.98 1974.66,-471.6"/>
<text text-anchor="start" x="1799" y="-515.75" font-family="Courier New" font-weight="bold" font-size="10.00" fill="orange">WAIT(0,SIG_CLEAR)</text>
</g>
<!-- sitting&#45;&gt;20 -->
<g id="edge22" class="edge">
<title>sitting&#45;&gt;20</title>
<path fill="none" stroke="black" d="M854.3,-566.73C714.53,-564.16 301,-554.48 169,-528.25 118.16,-518.15 91.26,-530.07 59,-489.5 -1.57,-413.32 11.49,-287.5 21.21,-231.62"/>
<polygon fill="black" stroke="black" points="24.61,-232.46 22.99,-221.99 17.73,-231.18 24.61,-232.46"/>
<text text-anchor="start" x="63" y="-451.88" font-family="Courier New" font-weight="bold" font-size="10.00" fill="orange">WAIT(0,SIG_HAPPY)</text>
</g>
<!-- sitting&#45;&gt;21 -->
<g id="edge23" class="edge">
<title>sitting&#45;&gt;21</title>
<path fill="none" stroke="black" d="M947.8,-564.27C972.82,-559.9 1001.74,-550.07 1018,-528.25 1023.79,-520.48 1029.71,-233.55 1031.47,-140.97"/>
<polygon fill="black" stroke="black" points="1034.97,-141.3 1031.66,-131.24 1027.97,-141.17 1034.97,-141.3"/>
<text text-anchor="start" x="1030" y="-380.12" font-family="Courier New" font-weight="bold" font-size="10.00" fill="orange">WAIT(0,SIG_HURT)</text>
</g>
<!-- sitting&#45;&gt;22 -->
<g id="edge24" class="edge">
<title>sitting&#45;&gt;22</title>
<path fill="none" stroke="black" d="M947.46,-566.24C1078.01,-562.44 1441.83,-550.01 1491,-528.25 1514.05,-518.05 1534.27,-497.67 1548.04,-480.99"/>
<polygon fill="black" stroke="black" points="1550.61,-483.39 1554.07,-473.38 1545.12,-479.04 1550.61,-483.39"/>
<text text-anchor="start" x="1526" y="-515.75" font-family="Courier New" font-weight="bold" font-size="10.00" fill="orange">WAIT(0,SIG_KISS)</text>
</g>
<!-- sitting&#45;&gt;23 -->
<g id="edge25" class="edge">
<title>sitting&#45;&gt;23</title>
<path fill="none" stroke="black" d="M854.34,-565.93C758.88,-562.25 548.34,-551.55 526,-528.25 496.47,-497.44 502.04,-444.01 509.22,-411.32"/>
<polygon fill="black" stroke="black" points="512.58,-412.31 511.52,-401.77 505.78,-410.67 512.58,-412.31"/>
<text text-anchor="start" x="530" y="-515.75" font-family="Courier New" font-weight="bold" font-size="10.00" fill="orange">WAIT(0,SIG_MAD)</text>
</g>
<!-- sitting&#45;&gt;24 -->
<g id="edge26" class="edge">
<title>sitting&#45;&gt;24</title>
<path fill="none" stroke="black" d="M854.27,-567.5C786.55,-566.39 666.24,-559.87 639,-528.25 611.34,-496.14 620.49,-443.57 630,-411.32"/>
<polygon fill="black" stroke="black" points="633.31,-412.47 632.99,-401.88 626.63,-410.36 633.31,-412.47"/>
<text text-anchor="start" x="643" y="-515.75" font-family="Courier New" font-weight="bold" font-size="10.00" fill="orange">WAIT(0,SIG_SAD)</text>
</g>
<!-- sitting&#45;&gt;25 -->
<g id="edge27" class="edge">
<title>sitting&#45;&gt;25</title>
<path fill="none" stroke="black" d="M854.46,-555.97C820.89,-544.96 777.95,-524.68 757,-489.5 707.01,-405.56 757.28,-283.91 784.28,-230.38"/>
<polygon fill="black" stroke="black" points="787.3,-232.15 788.79,-221.66 781.09,-228.93 787.3,-232.15"/>
<text text-anchor="start" x="761" y="-451.88" font-family="Courier New" font-weight="bold" font-size="10.00" fill="orange">WAIT(0,SIG_SURPRISED)</text>
</g>
<!-- sitting&#45;&gt;26 -->
<g id="edge28" class="edge">
<title>sitting&#45;&gt;26</title>
<path fill="none" stroke="black" d="M900.08,-546.36C898.64,-513.1 895.83,-448.5 894.22,-411.36"/>
<polygon fill="black" stroke="black" points="897.74,-411.69 893.81,-401.85 890.74,-412 897.74,-411.69"/>
<text text-anchor="start" x="904" y="-515.75" font-family="Courier New" font-weight="bold" font-size="10.00" fill="orange">WAIT(0,SIG_STRESS)</text>
</g>
<!-- sitting&#45;&gt;27 -->
<g id="edge29" class="edge">
<title>sitting&#45;&gt;27</title>
<path fill="none" stroke="black" d="M947.61,-565.3C1016.96,-561.3 1143.28,-551.07 1182,-528.25 1243.19,-492.19 1253.3,-467.09 1278,-400.5 1299.14,-343.5 1297.24,-270.94 1294.07,-231.68"/>
<polygon fill="black" stroke="black" points="1297.57,-231.55 1293.18,-221.91 1290.6,-232.18 1297.57,-231.55"/>
<text text-anchor="start" x="1274" y="-451.88" font-family="Courier New" font-weight="bold" font-size="10.00" fill="orange">WAIT(0,SIG_WAVE)</text>
</g>
<!-- sitting&#45;&gt;30 -->
<g id="edge30" class="edge">
<title>sitting&#45;&gt;30</title>
<path fill="none" stroke="black" d="M947.85,-567.65C1026.39,-566.89 1189.08,-561.06 1322,-528.25 1365.87,-517.42 1377.36,-512.94 1416,-489.5 1420.94,-486.5 1425.9,-482.92 1430.58,-479.23"/>
<polygon fill="black" stroke="black" points="1432.54,-482.15 1437.98,-473.06 1428.06,-476.77 1432.54,-482.15"/>
<text text-anchor="start" x="1387" y="-515.75" font-family="Courier New" font-weight="bold" font-size="10.00" fill="orange">WAIT(0,SIG_DEAD)</text>
</g>
<!-- sitting&#45;&gt;50 -->
<g id="edge31" class="edge">
<title>sitting&#45;&gt;50</title>
<path fill="none" stroke="black" d="M947.65,-560.93C977.24,-555.33 1015.54,-545.38 1046,-528.25 1067.71,-516.04 1087.94,-496.34 1102.2,-480.44"/>
<polygon fill="black" stroke="black" points="1104.57,-483.05 1108.5,-473.21 1099.29,-478.46 1104.57,-483.05"/>
<text text-anchor="start" x="1078" y="-515.75" font-family="Courier New" font-weight="bold" font-size="10.00" fill="orange">WAIT(0,SIG_BOMB)</text>
</g>
<!-- setId&#45;&gt;sitting -->
<g id="edge20" class="edge">
<title>setId&#45;&gt;sitting</title>
<path fill="none" stroke="black" d="M706.01,-747.36C696.04,-716.19 680.2,-648.84 713,-608.75 729.22,-588.92 793.72,-578.75 842.68,-573.8"/>
<polygon fill="black" stroke="black" points="843,-577.28 852.62,-572.84 842.33,-570.31 843,-577.28"/>
<polygon fill="none" stroke="black" points="716,-658 716,-676.75 884,-676.75 884,-658 716,-658"/>
<text text-anchor="start" x="737" y="-665.25" font-family="Courier New" font-weight="bold" font-size="10.00" fill="blue">ASSIGN(WSPRITE,happy)</text>
<polygon fill="none" stroke="black" points="716,-611.75 716,-656 884,-656 884,-611.75 716,-611.75"/>
<text text-anchor="start" x="719" y="-643.5" font-family="Courier New" font-size="10.00" fill="blue"> &#160;&#160;&#160;&#160;&#160;&#160;&#160;MAP(WSPRITE,WPARM);</text>
<text text-anchor="start" x="719" y="-630.75" font-family="Courier New" font-size="10.00" fill="blue"> &#160;&#160;&#160;&#160;&#160;&#160;&#160;ASSIGN(BFRAME,0);</text>
<text text-anchor="start" x="719" y="-618" font-family="Courier New" font-size="10.00" fill="blue"> &#160;&#160;&#160;&#160;&#160;&#160;&#160;SHOW(WSPRITE);</text>
<polygon fill="none" stroke="black" points="713,-608.75 713,-679.75 887,-679.75 887,-608.75 713,-608.75"/>
</g>
<!-- status -->
<g id="node22" class="node">
<title>status</title>
<polygon fill="none" stroke="black" points="1555,-1351.25 1555,-1430.25 2027,-1430.25 2027,-1351.25 1555,-1351.25"/>
<polygon fill="none" stroke="black" points="1566,-1404.5 1566,-1423.25 2016,-1423.25 2016,-1404.5 1566,-1404.5"/>
<text text-anchor="start" x="1773" y="-1411.75" font-family="Courier New" font-weight="bold" font-size="10.00">SOD_ID</text>
<polygon fill="none" stroke="black" points="1566,-1358.25 1566,-1402.5 2016,-1402.5 2016,-1358.25 1566,-1358.25"/>
<text text-anchor="start" x="1569" y="-1390" font-family="Courier New" font-size="10.00" fill="green">VIEW::IDV_OTHERID @pos(x:0, y:0, w:171, h:101)</text>
<text text-anchor="start" x="1569" y="-1377.25" font-family="Courier New" font-size="10.00" fill="green">SOD_ID::M_OID(&#39;OWISDOM&#39;,&#39;OSEX&#39;,&#39;SOD_HALO&#39;,&#39;SOD_AURA&#39;,&#39;&#39;,&#39;&#39;)</text>
<text text-anchor="start" x="1569" y="-1364.5" font-family="Courier New" font-size="10.00" fill="green">{state:&#39;sitting&#39;: wParm:M3 wSprite:IDS_MID3HAPPY bFrame:0 Top:0 Left:0 Z:2</text>
<polygon fill="none" stroke="black" points="1563,-1355.25 1563,-1426.25 2019,-1426.25 2019,-1355.25 1563,-1355.25"/>
</g>
</g>
</svg>
