<?xml version="1.0" encoding="UTF-8" standalone="no"?>
<!DOCTYPE svg PUBLIC "-//W3C//DTD SVG 1.1//EN"
 "http://www.w3.org/Graphics/SVG/1.1/DTD/svg11.dtd">
<!-- Generated by graphviz version 10.0.1 (20240210.2158)
 -->
<!-- Title: Automaton Pages: 1 -->
<svg width="2071pt" height="932pt"
 viewBox="0.00 0.00 2070.86 932.25" xmlns="http://www.w3.org/2000/svg" xmlns:xlink="http://www.w3.org/1999/xlink">
<g id="graph0" class="graph" transform="scale(1 1) rotate(0) translate(4 928.25)">
<title>Automaton</title>
<polygon fill="white" stroke="none" points="-4,4 -4,-928.25 2066.86,-928.25 2066.86,4 -4,4"/>
<!-- filename -->
<g id="node1" class="node">
<title>filename</title>
<polygon fill="none" stroke="black" points="891.86,-857.5 891.86,-911 1051.86,-911 1051.86,-857.5 891.86,-857.5"/>
<polygon fill="none" stroke="black" points="902.86,-885.25 902.86,-904 1040.86,-904 1040.86,-885.25 902.86,-885.25"/>
<text text-anchor="start" x="905.86" y="-892.5" font-family="Courier New" font-weight="bold" font-size="10.00">SOD_SPELL::M_O_IDSPELL</text>
<polygon fill="none" stroke="black" points="902.86,-864.5 902.86,-883.25 1040.86,-883.25 1040.86,-864.5 902.86,-864.5"/>
<text text-anchor="start" x="926.86" y="-870.75" font-family="Courier New" font-size="10.00" fill="brown">start state = 0</text>
<polygon fill="none" stroke="black" points="899.86,-861.5 899.86,-907 1043.86,-907 1043.86,-861.5 899.86,-861.5"/>
</g>
<!-- 0 -->
<g id="node2" class="node">
<title>0</title>
<polyline fill="none" stroke="darkred" stroke-width="3" points="1089.24,-872.5 1104.49,-872.5"/>
<text text-anchor="start" x="1092.74" y="-880.2" font-family="Courier New" font-weight="bold" font-size="14.00">0</text>
<path fill="none" stroke="darkred" stroke-width="3" d="M1092.65,-867.5C1092.65,-867.5 1101.07,-867.5 1101.07,-867.5 1105.28,-867.5 1109.49,-871.71 1109.49,-875.92 1109.49,-875.92 1109.49,-892.58 1109.49,-892.58 1109.49,-896.79 1105.28,-901 1101.07,-901 1101.07,-901 1092.65,-901 1092.65,-901 1088.45,-901 1084.24,-896.79 1084.24,-892.58 1084.24,-892.58 1084.24,-875.92 1084.24,-875.92 1084.24,-871.71 1088.45,-867.5 1092.65,-867.5"/>
</g>
<!-- checkObject -->
<g id="node3" class="node">
<title>checkObject</title>
<polyline fill="none" stroke="darkred" points="972.49,-314.38 1069.24,-314.38"/>
<text text-anchor="start" x="975.49" y="-321.57" font-family="Courier New" font-weight="bold" font-size="14.00">checkObject</text>
<path fill="none" stroke="darkred" d="M978.99,-311.38C978.99,-311.38 1062.74,-311.38 1062.74,-311.38 1067.49,-311.38 1072.24,-316.12 1072.24,-320.88 1072.24,-320.88 1072.24,-330.38 1072.24,-330.38 1072.24,-335.12 1067.49,-339.88 1062.74,-339.88 1062.74,-339.88 978.99,-339.88 978.99,-339.88 974.24,-339.88 969.49,-335.12 969.49,-330.38 969.49,-330.38 969.49,-320.88 969.49,-320.88 969.49,-316.12 974.24,-311.38 978.99,-311.38"/>
</g>
<!-- 0&#45;&gt;checkObject -->
<g id="edge1" class="edge">
<title>0&#45;&gt;checkObject</title>
<path fill="none" stroke="black" d="M1082.13,-862.24C1076.29,-855.44 1069.01,-848.55 1060.86,-844.25 1011.99,-818.48 973.99,-868.05 937.86,-826.25 843.12,-716.63 901.52,-640.51 937.86,-500.25 940.16,-491.39 943.69,-490.4 947.86,-482.25 970.6,-437.81 994.79,-385 1008.83,-353.73"/>
<polygon fill="black" stroke="black" points="1011.84,-355.56 1012.73,-345 1005.45,-352.7 1011.84,-355.56"/>
<polygon fill="none" stroke="black" points="940.86,-670.62 940.86,-689.38 1240.86,-689.38 1240.86,-670.62 940.86,-670.62"/>
<text text-anchor="start" x="1069.86" y="-677.88" font-family="Courier New" font-weight="bold" font-size="10.00" fill="orange">DROP(,)</text>
<polygon fill="none" stroke="black" points="940.86,-637.12 940.86,-668.62 1240.86,-668.62 1240.86,-637.12 940.86,-637.12"/>
<text text-anchor="start" x="943.86" y="-656.12" font-family="Courier New" font-size="10.00" fill="blue"> &#160;&#160;&#160;CLEAR(WVIEWID);</text>
<text text-anchor="start" x="943.86" y="-643.38" font-family="Courier New" font-size="10.00" fill="blue"> &#160;&#160;&#160;WRITE(&quot;I dropped an item on another player&quot;);</text>
<polygon fill="none" stroke="black" points="937.86,-634.12 937.86,-692.38 1243.86,-692.38 1243.86,-634.12 937.86,-634.12"/>
</g>
<!-- postProcessObject -->
<g id="node4" class="node">
<title>postProcessObject</title>
<polyline fill="none" stroke="darkred" points="1635.74,-314.38 1781.99,-314.38"/>
<text text-anchor="start" x="1638.74" y="-321.57" font-family="Courier New" font-weight="bold" font-size="14.00">postProcessObject</text>
<path fill="none" stroke="darkred" d="M1642.24,-311.38C1642.24,-311.38 1775.49,-311.38 1775.49,-311.38 1780.24,-311.38 1784.99,-316.12 1784.99,-320.88 1784.99,-320.88 1784.99,-330.38 1784.99,-330.38 1784.99,-335.12 1780.24,-339.88 1775.49,-339.88 1775.49,-339.88 1642.24,-339.88 1642.24,-339.88 1637.49,-339.88 1632.74,-335.12 1632.74,-330.38 1632.74,-330.38 1632.74,-320.88 1632.74,-320.88 1632.74,-316.12 1637.49,-311.38 1642.24,-311.38"/>
</g>
<!-- 0&#45;&gt;postProcessObject -->
<g id="edge2" class="edge">
<title>0&#45;&gt;postProcessObject</title>
<path fill="none" stroke="black" d="M1111.56,-862.18C1117.4,-855.37 1124.68,-848.49 1132.86,-844.25 1159.92,-830.21 1247.97,-848.46 1268.86,-826.25 1318.62,-773.35 1243.54,-554.47 1291.86,-500.25 1320.74,-467.84 1346.63,-495.84 1387.86,-482.25 1494.9,-446.97 1611.96,-383.21 1670.71,-349.29"/>
<polygon fill="black" stroke="black" points="1672.11,-352.52 1679,-344.47 1668.6,-346.47 1672.11,-352.52"/>
<polygon fill="none" stroke="black" points="1294.86,-804.5 1294.86,-823.25 1906.86,-823.25 1906.86,-804.5 1294.86,-804.5"/>
<text text-anchor="start" x="1555.86" y="-811.75" font-family="Courier New" font-weight="bold" font-size="10.00" fill="orange">WAIT(,SIG_DROP)</text>
<polygon fill="none" stroke="black" points="1294.86,-503.25 1294.86,-802.5 1906.86,-802.5 1906.86,-503.25 1294.86,-503.25"/>
<text text-anchor="start" x="1297.86" y="-790" font-family="Courier New" font-size="10.00" fill="blue"> &#160;&#160;&#160;WRITE(&quot;M_O_IDSPELL says an item dropped... check if there is a meflin&quot;);</text>
<text text-anchor="start" x="1297.86" y="-777.25" font-family="Courier New" font-size="10.00" fill="blue"> &#160;&#160;&#160;REF_MACHINE(MEFPAN_VIEWCAP);</text>
<text text-anchor="start" x="1297.86" y="-764.5" font-family="Courier New" font-size="10.00" fill="blue"> &#160;&#160;&#160;MOV(BPARM,R_BPARM);</text>
<text text-anchor="start" x="1297.86" y="-751.75" font-family="Courier New" font-size="10.00" fill="blue"> &#160;&#160;&#160;if(R_BPARM == 1){ &#160;//Theres a meflin up</text>
<text text-anchor="start" x="1297.86" y="-739" font-family="Courier New" font-size="10.00" fill="blue"> &#160;&#160;&#160;&#160;&#160;&#160;&#160;REF_MACHINE(MEFCURRENT); //Who is it?</text>
<text text-anchor="start" x="1297.86" y="-726.25" font-family="Courier New" font-size="10.00" fill="blue"> &#160;&#160;&#160;&#160;&#160;&#160;&#160;MOV(WPARM,R_WPARM);</text>
<text text-anchor="start" x="1297.86" y="-713.5" font-family="Courier New" font-size="10.00" fill="blue"> &#160;&#160;&#160;&#160;&#160;&#160;&#160;SIGNAL(WPARM,SIG_DROP); //so the meflin mef_talk can look at the wobject</text>
<text text-anchor="start" x="1297.86" y="-700.75" font-family="Courier New" font-size="10.00" fill="blue"> &#160;&#160;&#160;&#160;&#160;&#160;&#160;SHOW();</text>
<text text-anchor="start" x="1297.86" y="-688" font-family="Courier New" font-size="10.00" fill="blue"> &#160;&#160;&#160;}</text>
<text text-anchor="start" x="1297.86" y="-675.25" font-family="Courier New" font-size="10.00" fill="blue"> &#160;&#160;if(R_BPARM == 0){</text>
<text text-anchor="start" x="1297.86" y="-662.5" font-family="Courier New" font-size="10.00" fill="blue"> &#160;&#160;&#160;&#160;&#160;&#160;&#160;REF_MACHINE(CHAR_DROPTARGET); //written in case machines overlap meflin machine is in the way</text>
<text text-anchor="start" x="1297.86" y="-649.75" font-family="Courier New" font-size="10.00" fill="blue"> &#160;&#160;&#160;&#160;&#160;&#160;&#160;MOV(WOBJECT,R_WOBJECT);</text>
<text text-anchor="start" x="1297.86" y="-637" font-family="Courier New" font-size="10.00" fill="blue"> &#160;&#160;&#160;&#160;&#160;&#160;&#160;&#160;&#160;&#160;&#160;//Deduct for all the bad or good things local player can drop </text>
<text text-anchor="start" x="1297.86" y="-624.25" font-family="Courier New" font-size="10.00" fill="blue"> &#160;&#160;&#160;&#160;&#160;&#160;&#160;&#160;&#160;&#160;&#160;&#160;&#160;&#160;&#160;ADDI(LKARMA,1); </text>
<text text-anchor="start" x="1297.86" y="-611.5" font-family="Courier New" font-size="10.00" fill="blue"> &#160;&#160;&#160;&#160;&#160;&#160;&#160;&#160;&#160;&#160;&#160;&#160;&#160;&#160;&#160;SIGNAL(SID_HALO,SIG_ADD);</text>
<text text-anchor="start" x="1297.86" y="-598.75" font-family="Courier New" font-size="10.00" fill="blue"> &#160;&#160;&#160;&#160;&#160;&#160;&#160;//Assuming this would create the spell over on the other player</text>
<text text-anchor="start" x="1297.86" y="-586" font-family="Courier New" font-size="10.00" fill="blue"> &#160;&#160;&#160;&#160;&#160;&#160;&#160;//SPELL_YOU(WOBJECT);</text>
<text text-anchor="start" x="1297.86" y="-573.25" font-family="Courier New" font-size="10.00" fill="blue"> &#160;&#160;&#160;&#160;&#160;&#160;&#160;predicate dropitem(object,id);</text>
<text text-anchor="start" x="1297.86" y="-560.5" font-family="Courier New" font-size="10.00" fill="blue"> &#160;&#160;&#160;&#160;&#160;&#160;&#160;dropitem(&quot;%&quot;)~</text>
<text text-anchor="start" x="1297.86" y="-547.75" font-family="Courier New" font-size="10.00" fill="blue"> &#160;&#160;&#160;&#160;&#160;&#160;&#160;dropitem(WOBJECT,&quot;id&quot;).</text>
<text text-anchor="start" x="1297.86" y="-535" font-family="Courier New" font-size="10.00" fill="blue"> &#160;&#160;&#160;&#160;&#160;&#160;&#160;replay(&quot;system/send_item&quot;);</text>
<text text-anchor="start" x="1297.86" y="-522.25" font-family="Courier New" font-size="10.00" fill="blue"> &#160;&#160;&#160;&#160;&#160;&#160;&#160;SHOW();</text>
<text text-anchor="start" x="1297.86" y="-509.5" font-family="Courier New" font-size="10.00" fill="blue"> &#160;&#160;&#160;} </text>
<polygon fill="none" stroke="black" points="1291.86,-500.25 1291.86,-826.25 1909.86,-826.25 1909.86,-500.25 1291.86,-500.25"/>
</g>
<!-- itsAbomb -->
<g id="node5" class="node">
<title>itsAbomb</title>
<polyline fill="none" stroke="darkred" points="165.86,-7 237.86,-7"/>
<text text-anchor="start" x="168.86" y="-14.2" font-family="Courier New" font-weight="bold" font-size="14.00">itsAbomb</text>
<path fill="none" stroke="darkred" d="M172.36,-4C172.36,-4 231.36,-4 231.36,-4 236.11,-4 240.86,-8.75 240.86,-13.5 240.86,-13.5 240.86,-23 240.86,-23 240.86,-27.75 236.11,-32.5 231.36,-32.5 231.36,-32.5 172.36,-32.5 172.36,-32.5 167.61,-32.5 162.86,-27.75 162.86,-23 162.86,-23 162.86,-13.5 162.86,-13.5 162.86,-8.75 167.61,-4 172.36,-4"/>
</g>
<!-- checkObject&#45;&gt;itsAbomb -->
<g id="edge3" class="edge">
<title>checkObject&#45;&gt;itsAbomb</title>
<path fill="none" stroke="black" d="M1018.61,-307.56C1013.22,-274.29 996.18,-201.16 947.86,-169 908.42,-142.75 568.13,-161.17 521.86,-151 416.96,-127.94 302.53,-72.84 243.02,-41.69"/>
<polygon fill="black" stroke="black" points="244.73,-38.64 234.25,-37.06 241.46,-44.83 244.73,-38.64"/>
<text text-anchor="start" x="525.86" y="-100.62" font-family="Courier New" font-weight="bold" font-size="10.00" fill="blue">IS_A(WOBJECT,IDC_BOMB)</text>
</g>
<!-- itsAspell -->
<g id="node6" class="node">
<title>itsAspell</title>
<polyline fill="none" stroke="darkred" points="642.74,-7 722.99,-7"/>
<text text-anchor="start" x="645.74" y="-14.2" font-family="Courier New" font-weight="bold" font-size="14.00">itsAspell</text>
<path fill="none" stroke="darkred" d="M649.24,-4C649.24,-4 716.49,-4 716.49,-4 721.24,-4 725.99,-8.75 725.99,-13.5 725.99,-13.5 725.99,-23 725.99,-23 725.99,-27.75 721.24,-32.5 716.49,-32.5 716.49,-32.5 649.24,-32.5 649.24,-32.5 644.49,-32.5 639.74,-27.75 639.74,-23 639.74,-23 639.74,-13.5 639.74,-13.5 639.74,-8.75 644.49,-4 649.24,-4"/>
</g>
<!-- checkObject&#45;&gt;itsAspell -->
<g id="edge4" class="edge">
<title>checkObject&#45;&gt;itsAspell</title>
<path fill="none" stroke="black" d="M1018.5,-307.42C1012.93,-274.21 995.64,-201.7 947.86,-169 899.33,-135.79 724.17,-193.82 683.86,-151 658.12,-123.65 664.99,-77.18 673.23,-47.37"/>
<polygon fill="black" stroke="black" points="676.54,-48.5 676.07,-37.92 669.84,-46.48 676.54,-48.5"/>
<text text-anchor="start" x="687.86" y="-100.62" font-family="Courier New" font-weight="bold" font-size="10.00" fill="blue">IS_A(WOBJECT,IDC_SPELL)</text>
</g>
<!-- checkObject&#45;&gt;itsAspell -->
<g id="edge5" class="edge">
<title>checkObject&#45;&gt;itsAspell</title>
<path fill="none" stroke="black" d="M1018.02,-307.43C1011.7,-274.89 993.27,-204.44 947.86,-169 915.02,-143.37 886.34,-179.41 855.86,-151 823.37,-120.71 861.7,-85.47 829.86,-54.5 817.51,-42.49 779.16,-33.53 744.74,-27.64"/>
<polygon fill="black" stroke="black" points="745.66,-24.25 735.23,-26.09 744.53,-31.16 745.66,-24.25"/>
<text text-anchor="start" x="859.86" y="-100.62" font-family="Courier New" font-weight="bold" font-size="10.00" fill="blue">IS_A(WOBJECT,IDD_GVIAL)</text>
</g>
<!-- regularObject -->
<g id="node7" class="node">
<title>regularObject</title>
<polyline fill="none" stroke="darkred" points="1082.24,-7 1195.49,-7"/>
<text text-anchor="start" x="1085.24" y="-14.2" font-family="Courier New" font-weight="bold" font-size="14.00">regularObject</text>
<path fill="none" stroke="darkred" d="M1088.74,-4C1088.74,-4 1188.99,-4 1188.99,-4 1193.74,-4 1198.49,-8.75 1198.49,-13.5 1198.49,-13.5 1198.49,-23 1198.49,-23 1198.49,-27.75 1193.74,-32.5 1188.99,-32.5 1188.99,-32.5 1088.74,-32.5 1088.74,-32.5 1083.99,-32.5 1079.24,-27.75 1079.24,-23 1079.24,-23 1079.24,-13.5 1079.24,-13.5 1079.24,-8.75 1083.99,-4 1088.74,-4"/>
</g>
<!-- checkObject&#45;&gt;regularObject -->
<g id="edge6" class="edge">
<title>checkObject&#45;&gt;regularObject</title>
<path fill="none" stroke="black" d="M1018.41,-307.71C1011.14,-254.95 992,-94.53 1021.86,-54.5 1031.45,-41.65 1045.57,-33.32 1060.71,-27.95"/>
<polygon fill="black" stroke="black" points="1061.34,-31.42 1069.87,-25.14 1059.28,-24.73 1061.34,-31.42"/>
<polygon fill="none" stroke="black" points="1024.86,-129.25 1024.86,-148 1240.86,-148 1240.86,-129.25 1024.86,-129.25"/>
<text text-anchor="start" x="1090.86" y="-136.5" font-family="Courier New" font-weight="bold" font-size="10.00" fill="blue">Z_EPSILON(0,0)</text>
<polygon fill="none" stroke="black" points="1024.86,-57.5 1024.86,-127.25 1240.86,-127.25 1240.86,-57.5 1024.86,-57.5"/>
<text text-anchor="start" x="1027.86" y="-114.75" font-family="Courier New" font-size="10.00" fill="blue"> &#160;&#160;&#160;SHOW(WOBJECT);</text>
<text text-anchor="start" x="1027.86" y="-102" font-family="Courier New" font-size="10.00" fill="blue"> &#160;&#160;&#160;&#160;predicate dropitem(object,id);</text>
<text text-anchor="start" x="1027.86" y="-89.25" font-family="Courier New" font-size="10.00" fill="blue"> &#160;&#160;&#160;&#160;&#160;&#160;&#160;dropitem(&quot;%&quot;)~</text>
<text text-anchor="start" x="1027.86" y="-76.5" font-family="Courier New" font-size="10.00" fill="blue"> &#160;&#160;&#160;&#160;&#160;&#160;&#160;dropitem(WOBJECT,&quot;id&quot;).</text>
<text text-anchor="start" x="1027.86" y="-63.75" font-family="Courier New" font-size="10.00" fill="blue"> &#160;&#160;&#160;&#160;&#160;&#160;&#160;replay(&quot;system/send_item&quot;);</text>
<polygon fill="none" stroke="black" points="1021.86,-54.5 1021.86,-151 1243.86,-151 1243.86,-54.5 1021.86,-54.5"/>
</g>
<!-- postProcessObject&#45;&gt;0 -->
<g id="edge9" class="edge">
<title>postProcessObject&#45;&gt;0</title>
<path fill="none" stroke="black" d="M1742.75,-343.71C1790.46,-369.91 1875.42,-424.99 1909.86,-500.25 1970.15,-632 2011.12,-722.62 1909.86,-826.25 1879.69,-857.13 1172.21,-826.48 1132.86,-844.25 1127.78,-846.55 1123.08,-849.94 1118.88,-853.78"/>
<polygon fill="black" stroke="black" points="1116.37,-851.34 1112.02,-860.99 1121.44,-856.16 1116.37,-851.34"/>
<text text-anchor="start" x="1974.86" y="-661.12" font-family="Courier New" font-weight="bold" font-size="10.00" fill="blue">Z_EPSILON(0,0)</text>
</g>
<!-- itsAbomb&#45;&gt;0 -->
<g id="edge7" class="edge">
<title>itsAbomb&#45;&gt;0</title>
<path fill="none" stroke="black" d="M171.54,-36.3C132.56,-60.16 66.72,-107.59 39.86,-169 -15.93,-296.55 -10.16,-352.33 39.86,-482.25 113.92,-674.59 163.56,-740.23 350.86,-826.25 422.57,-859.19 988.98,-811.69 1060.86,-844.25 1065.95,-846.55 1070.64,-849.95 1074.84,-853.79"/>
<polygon fill="black" stroke="black" points="1072.27,-856.17 1081.7,-861 1077.35,-851.35 1072.27,-856.17"/>
<polygon fill="none" stroke="black" points="42.86,-371.25 42.86,-390 294.86,-390 294.86,-371.25 42.86,-371.25"/>
<text text-anchor="start" x="132.86" y="-378.5" font-family="Courier New" font-weight="bold" font-size="10.00" fill="blue">Z_EPSILON(,)</text>
<polygon fill="none" stroke="black" points="42.86,-261.25 42.86,-369.25 294.86,-369.25 294.86,-261.25 42.86,-261.25"/>
<text text-anchor="start" x="45.86" y="-356.75" font-family="Courier New" font-size="10.00" fill="blue"> &#160;&#160;&#160;WRITE(&quot;M_O_IDSPELL says ITS A BOMB&quot;);</text>
<text text-anchor="start" x="45.86" y="-344" font-family="Courier New" font-size="10.00" fill="blue"> &#160;&#160;&#160;SIGNALi(SOD_ID,SIG_BOMB);</text>
<text text-anchor="start" x="45.86" y="-331.25" font-family="Courier New" font-size="10.00" fill="blue"> &#160;&#160;&#160;&#160;predicate dropitem(object,id);</text>
<text text-anchor="start" x="45.86" y="-318.5" font-family="Courier New" font-size="10.00" fill="blue"> &#160;&#160;&#160;&#160;&#160;&#160;&#160;dropitem(&quot;%&quot;)~</text>
<text text-anchor="start" x="45.86" y="-305.75" font-family="Courier New" font-size="10.00" fill="blue"> &#160;&#160;&#160;&#160;&#160;&#160;&#160;dropitem(WOBJECT,&quot;id&quot;).</text>
<text text-anchor="start" x="45.86" y="-293" font-family="Courier New" font-size="10.00" fill="blue"> &#160;&#160;&#160;&#160;&#160;&#160;&#160;replay(&quot;system/send_item&quot;);</text>
<text text-anchor="start" x="45.86" y="-280.25" font-family="Courier New" font-size="10.00" fill="blue"> &#160;&#160;&#160;&#160;&#160;&#160;&#160;SHOW();</text>
<text text-anchor="start" x="45.86" y="-267.5" font-family="Courier New" font-size="10.00" fill="blue"> &#160;&#160;&#160;</text>
<polygon fill="none" stroke="black" points="39.86,-258.25 39.86,-393 297.86,-393 297.86,-258.25 39.86,-258.25"/>
</g>
<!-- itsAspell&#45;&gt;0 -->
<g id="edge8" class="edge">
<title>itsAspell&#45;&gt;0</title>
<path fill="none" stroke="black" d="M631.74,-20.99C542.3,-24.54 365.06,-34.1 345.86,-54.5 280.71,-123.72 295.07,-398.95 340.86,-482.25 478.31,-732.27 613.24,-732.95 882.86,-826.25 958,-852.25 989.72,-808.73 1060.86,-844.25 1065.76,-846.69 1070.32,-850.1 1074.44,-853.9"/>
<polygon fill="black" stroke="black" points="1071.74,-856.14 1081.19,-860.95 1076.8,-851.3 1071.74,-856.14"/>
<polygon fill="none" stroke="black" points="343.86,-460.5 343.86,-479.25 949.86,-479.25 949.86,-460.5 343.86,-460.5"/>
<text text-anchor="start" x="610.86" y="-467.75" font-family="Courier New" font-weight="bold" font-size="10.00" fill="blue">Z_EPSILON(,)</text>
<polygon fill="none" stroke="black" points="343.86,-172 343.86,-458.5 949.86,-458.5 949.86,-172 343.86,-172"/>
<text text-anchor="start" x="346.86" y="-446" font-family="Courier New" font-size="10.00" fill="blue"> &#160;&#160;&#160;predicate dropitem(object,id);</text>
<text text-anchor="start" x="346.86" y="-433.25" font-family="Courier New" font-size="10.00" fill="blue"> &#160;&#160;&#160;&#160;&#160;&#160;&#160;dropitem(&quot;%&quot;)~</text>
<text text-anchor="start" x="346.86" y="-420.5" font-family="Courier New" font-size="10.00" fill="blue"> &#160;&#160;&#160;&#160;&#160;&#160;&#160;dropitem(WOBJECT,&quot;id&quot;).</text>
<text text-anchor="start" x="346.86" y="-407.75" font-family="Courier New" font-size="10.00" fill="blue"> &#160;&#160;&#160;&#160;&#160;&#160;&#160;replay(&quot;system/send_item&quot;);</text>
<text text-anchor="start" x="346.86" y="-395" font-family="Courier New" font-size="10.00" fill="blue"> &#160;&#160;&#160;&#160;&#160;&#160;&#160;SHOW();</text>
<text text-anchor="start" x="346.86" y="-382.25" font-family="Courier New" font-size="10.00" fill="blue"> &#160;&#160;&#160;&#160;&#160;&#160;&#160;if(WOBJECT == IDD_ENCHANT){</text>
<text text-anchor="start" x="346.86" y="-369.5" font-family="Courier New" font-size="10.00" fill="blue"> &#160;&#160;&#160;&#160;&#160;&#160;&#160;&#160;&#160;&#160;&#160;predicate otherplayer(pid,status);</text>
<text text-anchor="start" x="346.86" y="-356.75" font-family="Courier New" font-size="10.00" fill="blue"> &#160;&#160;&#160;&#160;&#160;&#160;&#160;&#160;&#160;&#160;&#160;otherplayer(?to,&quot;ACTIVE&quot;)?</text>
<text text-anchor="start" x="346.86" y="-344" font-family="Courier New" font-size="10.00" fill="blue"> &#160;&#160;&#160;&#160;&#160;&#160;&#160;&#160;&#160;&#160;&#160;marker = get_theta(); </text>
<text text-anchor="start" x="346.86" y="-331.25" font-family="Courier New" font-size="10.00" fill="blue"> &#160;&#160;&#160;&#160;&#160;&#160;&#160;&#160;&#160;&#160;&#160;predicate spellinfo(status,caster,victim,object,caster_view,victim_view,leader_heading);</text>
<text text-anchor="start" x="346.86" y="-318.5" font-family="Courier New" font-size="10.00" fill="blue"> &#160;&#160;&#160;&#160;&#160;&#160;&#160;&#160;&#160;&#160;&#160;spellinfo()~</text>
<text text-anchor="start" x="346.86" y="-305.75" font-family="Courier New" font-size="10.00" fill="blue"> &#160;&#160;&#160;&#160;&#160;&#160;&#160;&#160;&#160;&#160;&#160;spellinfo(&quot;ACTIVE&quot;,,to,WOBJECT,LVIEW,&quot;EMPTY&quot;,marker).</text>
<text text-anchor="start" x="346.86" y="-293" font-family="Courier New" font-size="10.00" fill="blue"> &#160;&#160;&#160;&#160;&#160;&#160;&#160;&#160;&#160;&#160;&#160;SIGNAL(ENCHANT_POSTER,SIG_SPELLME);</text>
<text text-anchor="start" x="346.86" y="-280.25" font-family="Courier New" font-size="10.00" fill="blue"> &#160;&#160;&#160;&#160;&#160;&#160;&#160;}</text>
<text text-anchor="start" x="346.86" y="-267.5" font-family="Courier New" font-size="10.00" fill="blue"> &#160;&#160;&#160;&#160;&#160;&#160;&#160;if(WOBJECT == IDD_STALKER){</text>
<text text-anchor="start" x="346.86" y="-254.75" font-family="Courier New" font-size="10.00" fill="blue"> &#160;&#160;&#160;&#160;&#160;&#160;&#160;&#160;&#160;&#160;&#160;predicate otherplayer(pid,status);</text>
<text text-anchor="start" x="346.86" y="-242" font-family="Courier New" font-size="10.00" fill="blue"> &#160;&#160;&#160;&#160;&#160;&#160;&#160;&#160;&#160;&#160;&#160;otherplayer(?to,&quot;ACTIVE&quot;)?</text>
<text text-anchor="start" x="346.86" y="-229.25" font-family="Courier New" font-size="10.00" fill="blue"> &#160;&#160;&#160;&#160;&#160;&#160;&#160;&#160;&#160;&#160;&#160;predicate spellinfo(status,caster,victim,object,caster_view,victim_view,leader_heading);</text>
<text text-anchor="start" x="346.86" y="-216.5" font-family="Courier New" font-size="10.00" fill="blue"> &#160;&#160;&#160;&#160;&#160;&#160;&#160;&#160;&#160;&#160;&#160;spellinfo()~</text>
<text text-anchor="start" x="346.86" y="-203.75" font-family="Courier New" font-size="10.00" fill="blue"> &#160;&#160;&#160;&#160;&#160;&#160;&#160;&#160;&#160;&#160;&#160;spellinfo(&quot;ACTIVE&quot;,,to,WOBJECT,&quot;EMPTY&quot;,OVIEW,0).</text>
<text text-anchor="start" x="346.86" y="-191" font-family="Courier New" font-size="10.00" fill="blue"> &#160;&#160;&#160;&#160;&#160;&#160;&#160;&#160;&#160;&#160;&#160;SIGNAL(STALKING_READER,SIG_SPELLME);</text>
<text text-anchor="start" x="346.86" y="-178.25" font-family="Courier New" font-size="10.00" fill="blue"> &#160;&#160;&#160;&#160;&#160;&#160;&#160;}</text>
<polygon fill="none" stroke="black" points="340.86,-169 340.86,-482.25 952.86,-482.25 952.86,-169 340.86,-169"/>
</g>
<!-- regularObject&#45;&gt;0 -->
<g id="edge10" class="edge">
<title>regularObject&#45;&gt;0</title>
<path fill="none" stroke="black" d="M1206.23,-28.42C1220.92,-33.68 1234.77,-41.85 1243.86,-54.5 1268.89,-89.31 1271.65,-793.6 1243.86,-826.25 1211.47,-864.31 1176.89,-820.59 1132.86,-844.25 1128.04,-846.84 1123.52,-850.33 1119.42,-854.15"/>
<polygon fill="black" stroke="black" points="1117.05,-851.57 1112.68,-861.22 1122.11,-856.4 1117.05,-851.57"/>
<polygon fill="none" stroke="black" points="1265.86,-333 1265.86,-351.75 1385.86,-351.75 1385.86,-333 1265.86,-333"/>
<text text-anchor="start" x="1292.86" y="-340.25" font-family="Courier New" font-weight="bold" font-size="10.00" fill="blue">ZEPSILON(,)</text>
<polygon fill="none" stroke="black" points="1265.86,-299.5 1265.86,-331 1385.86,-331 1385.86,-299.5 1265.86,-299.5"/>
<text text-anchor="start" x="1268.86" y="-318.5" font-family="Courier New" font-size="10.00" fill="blue"> &#160;&#160;&#160;CLEAR(WOBJECT);</text>
<text text-anchor="start" x="1268.86" y="-305.75" font-family="Courier New" font-size="10.00" fill="blue"> &#160;&#160;&#160;SHOW();</text>
<polygon fill="none" stroke="black" points="1262.86,-296.5 1262.86,-354.75 1388.86,-354.75 1388.86,-296.5 1262.86,-296.5"/>
</g>
<!-- status -->
<g id="node8" class="node">
<title>status</title>
<polygon fill="none" stroke="black" points="1141.86,-844.75 1141.86,-923.75 1451.86,-923.75 1451.86,-844.75 1141.86,-844.75"/>
<polygon fill="none" stroke="black" points="1152.86,-898 1152.86,-916.75 1440.86,-916.75 1440.86,-898 1152.86,-898"/>
<text text-anchor="start" x="1269.86" y="-905.25" font-family="Courier New" font-weight="bold" font-size="10.00">SOD_SPELL</text>
<polygon fill="none" stroke="black" points="1152.86,-851.75 1152.86,-896 1440.86,-896 1440.86,-851.75 1152.86,-851.75"/>
<text text-anchor="start" x="1155.86" y="-883.5" font-family="Courier New" font-size="10.00" fill="green">VIEW::IDV_OTHERID @pos(x:10, y:50, w:100, h:70)</text>
<text text-anchor="start" x="1155.86" y="-870.75" font-family="Courier New" font-size="10.00" fill="green">SOD_SPELL::M_O_IDSPELL(&#39;&#39;,&#39;&#39;,&#39;&#39;,&#39;&#39;,&#39;&#39;,&#39;&#39;)</text>
<text text-anchor="start" x="1155.86" y="-858" font-family="Courier New" font-size="10.00" fill="green">{state:&#39;0&#39;: Top:50 Left:10 Z:0</text>
<polygon fill="none" stroke="black" points="1149.86,-848.75 1149.86,-919.75 1443.86,-919.75 1443.86,-848.75 1149.86,-848.75"/>
</g>
</g>
</svg>
