<?xml version="1.0" encoding="UTF-8" standalone="no"?>
<!DOCTYPE svg PUBLIC "-//W3C//DTD SVG 1.1//EN"
 "http://www.w3.org/Graphics/SVG/1.1/DTD/svg11.dtd">
<!-- Generated by graphviz version 10.0.1 (20240210.2158)
 -->
<!-- Title: Automaton Pages: 1 -->
<svg width="556pt" height="438pt"
 viewBox="0.00 0.00 556.00 438.00" xmlns="http://www.w3.org/2000/svg" xmlns:xlink="http://www.w3.org/1999/xlink">
<g id="graph0" class="graph" transform="scale(1 1) rotate(0) translate(4 434)">
<title>Automaton</title>
<polygon fill="white" stroke="none" points="-4,4 -4,-434 552,-434 552,4 -4,4"/>
<!-- filename -->
<g id="node1" class="node">
<title>filename</title>
<polygon fill="none" stroke="black" points="0,-363.25 0,-416.75 136,-416.75 136,-363.25 0,-363.25"/>
<polygon fill="none" stroke="black" points="11,-391 11,-409.75 125,-409.75 125,-391 11,-391"/>
<text text-anchor="start" x="14" y="-398.25" font-family="Courier New" font-weight="bold" font-size="10.00">sq_0_b::M19_HOLDER</text>
<polygon fill="none" stroke="black" points="11,-370.25 11,-389 125,-389 125,-370.25 11,-370.25"/>
<text text-anchor="start" x="23" y="-376.5" font-family="Courier New" font-size="10.00" fill="brown">start state = 0</text>
<polygon fill="none" stroke="black" points="8,-367.25 8,-412.75 128,-412.75 128,-367.25 8,-367.25"/>
</g>
<!-- 0 -->
<g id="node2" class="node">
<title>0</title>
<polyline fill="none" stroke="darkred" points="173.88,-378.75 188.12,-378.75"/>
<text text-anchor="start" x="176.88" y="-385.95" font-family="Courier New" font-weight="bold" font-size="14.00">0</text>
<path fill="none" stroke="darkred" d="M177.62,-375.75C177.62,-375.75 184.38,-375.75 184.38,-375.75 187.75,-375.75 191.12,-379.12 191.12,-382.5 191.12,-382.5 191.12,-397.5 191.12,-397.5 191.12,-400.88 187.75,-404.25 184.38,-404.25 184.38,-404.25 177.62,-404.25 177.62,-404.25 174.25,-404.25 170.88,-400.88 170.88,-397.5 170.88,-397.5 170.88,-382.5 170.88,-382.5 170.88,-379.12 174.25,-375.75 177.62,-375.75"/>
</g>
<!-- present -->
<g id="node3" class="node">
<title>present</title>
<polyline fill="none" stroke="darkred" points="70.12,-226.25 133.88,-226.25"/>
<text text-anchor="start" x="73.12" y="-233.45" font-family="Courier New" font-weight="bold" font-size="14.00">present</text>
<path fill="none" stroke="darkred" d="M76.62,-223.25C76.62,-223.25 127.38,-223.25 127.38,-223.25 132.12,-223.25 136.88,-228 136.88,-232.75 136.88,-232.75 136.88,-242.25 136.88,-242.25 136.88,-247 132.12,-251.75 127.38,-251.75 127.38,-251.75 76.62,-251.75 76.62,-251.75 71.88,-251.75 67.12,-247 67.12,-242.25 67.12,-242.25 67.12,-232.75 67.12,-232.75 67.12,-228 71.88,-223.25 76.62,-223.25"/>
</g>
<!-- 0&#45;&gt;present -->
<g id="edge1" class="edge">
<title>0&#45;&gt;present</title>
<path fill="none" stroke="black" d="M167.98,-371.91C161.66,-364.46 153.58,-356.06 145,-350 128.41,-338.28 114.27,-348.89 103,-332 90.33,-313.01 91.28,-286.67 94.71,-266.79"/>
<polygon fill="black" stroke="black" points="98.11,-267.63 96.69,-257.13 91.25,-266.22 98.11,-267.63"/>
<polygon fill="none" stroke="black" points="106,-310.25 106,-329 244,-329 244,-310.25 106,-310.25"/>
<text text-anchor="start" x="127" y="-317.5" font-family="Courier New" font-weight="bold" font-size="10.00" fill="orange">WAIT(,SIG_RESET)</text>
<polygon fill="none" stroke="black" points="106,-276.75 106,-308.25 244,-308.25 244,-276.75 106,-276.75"/>
<text text-anchor="start" x="109" y="-295.75" font-family="Courier New" font-size="10.00" fill="blue"> &#160;&#160;&#160;MOV(WOBJECT,WIP2);</text>
<text text-anchor="start" x="109" y="-283" font-family="Courier New" font-size="10.00" fill="blue"> &#160;&#160;&#160;SHOW(WOBJECT);</text>
<polygon fill="none" stroke="black" points="103,-273.75 103,-332 247,-332 247,-273.75 103,-273.75"/>
</g>
<!-- empty -->
<g id="node4" class="node">
<title>empty</title>
<polyline fill="none" stroke="darkred" stroke-width="3" points="93.88,-103.75 142.12,-103.75"/>
<text text-anchor="start" x="97.38" y="-111.45" font-family="Courier New" font-weight="bold" font-size="14.00">empty</text>
<path fill="none" stroke="darkred" stroke-width="3" d="M100.04,-98.75C100.04,-98.75 135.96,-98.75 135.96,-98.75 141.54,-98.75 147.12,-104.33 147.12,-109.92 147.12,-109.92 147.12,-121.08 147.12,-121.08 147.12,-126.67 141.54,-132.25 135.96,-132.25 135.96,-132.25 100.04,-132.25 100.04,-132.25 94.46,-132.25 88.88,-126.67 88.88,-121.08 88.88,-121.08 88.88,-109.92 88.88,-109.92 88.88,-104.33 94.46,-98.75 100.04,-98.75"/>
</g>
<!-- present&#45;&gt;empty -->
<g id="edge4" class="edge">
<title>present&#45;&gt;empty</title>
<path fill="none" stroke="black" d="M65.58,-219.31C58.92,-214.44 52.86,-208.46 49,-201.25 39.45,-183.43 38.83,-173.23 49,-155.75 53.93,-147.27 61.45,-140.48 69.74,-135.08"/>
<polygon fill="black" stroke="black" points="71.46,-138.13 78.4,-130.12 67.98,-132.05 71.46,-138.13"/>
<polygon fill="none" stroke="black" points="52,-179.5 52,-198.25 100,-198.25 100,-179.5 52,-179.5"/>
<text text-anchor="start" x="55" y="-186.75" font-family="Courier New" font-weight="bold" font-size="10.00" fill="orange">GRAB(,)</text>
<polygon fill="none" stroke="black" points="52,-158.75 52,-177.5 100,-177.5 100,-158.75 52,-158.75"/>
<text text-anchor="start" x="55" y="-165" font-family="Courier New" font-size="10.00" fill="blue">SHOW();</text>
<polygon fill="none" stroke="black" points="49,-155.75 49,-201.25 103,-201.25 103,-155.75 49,-155.75"/>
</g>
<!-- empty&#45;&gt;present -->
<g id="edge2" class="edge">
<title>empty&#45;&gt;present</title>
<path fill="none" stroke="black" d="M115.17,-137.71C112.57,-157.23 108.69,-186.34 105.81,-207.91"/>
<polygon fill="black" stroke="black" points="102.34,-207.43 104.49,-217.81 109.28,-208.36 102.34,-207.43"/>
<polygon fill="none" stroke="black" points="116,-179.5 116,-198.25 230,-198.25 230,-179.5 116,-179.5"/>
<text text-anchor="start" x="152" y="-186.75" font-family="Courier New" font-weight="bold" font-size="10.00" fill="orange">DROP(,)</text>
<polygon fill="none" stroke="black" points="116,-158.75 116,-177.5 230,-177.5 230,-158.75 116,-158.75"/>
<text text-anchor="start" x="119" y="-165" font-family="Courier New" font-size="10.00" fill="blue"> &#160;&#160;&#160;SHOW(WOBJECT);</text>
<polygon fill="none" stroke="black" points="113,-155.75 113,-201.25 233,-201.25 233,-155.75 113,-155.75"/>
</g>
<!-- resetting -->
<g id="node5" class="node">
<title>resetting</title>
<polyline fill="none" stroke="darkred" points="148.88,-7 229.12,-7"/>
<text text-anchor="start" x="151.88" y="-14.2" font-family="Courier New" font-weight="bold" font-size="14.00">resetting</text>
<path fill="none" stroke="darkred" d="M155.38,-4C155.38,-4 222.62,-4 222.62,-4 227.38,-4 232.12,-8.75 232.12,-13.5 232.12,-13.5 232.12,-23 232.12,-23 232.12,-27.75 227.38,-32.5 222.62,-32.5 222.62,-32.5 155.38,-32.5 155.38,-32.5 150.62,-32.5 145.88,-27.75 145.88,-23 145.88,-23 145.88,-13.5 145.88,-13.5 145.88,-8.75 150.62,-4 155.38,-4"/>
</g>
<!-- empty&#45;&gt;resetting -->
<g id="edge3" class="edge">
<title>empty&#45;&gt;resetting</title>
<path fill="none" stroke="black" d="M123.8,-93.37C127.84,-81.18 134.12,-66.04 143,-54.5 146.05,-50.54 149.65,-46.78 153.47,-43.31"/>
<polygon fill="black" stroke="black" points="155.45,-46.22 160.9,-37.13 150.97,-40.83 155.45,-46.22"/>
<text text-anchor="start" x="147" y="-62.75" font-family="Courier New" font-weight="bold" font-size="10.00" fill="orange">WAIT(,SIG_RESET)</text>
</g>
<!-- resetting&#45;&gt;0 -->
<g id="edge5" class="edge">
<title>resetting&#45;&gt;0</title>
<path fill="none" stroke="black" d="M229.67,-36.45C236.61,-41.25 242.9,-47.21 247,-54.5 307.46,-162 307.77,-224.68 247,-332 239.34,-345.53 229.06,-340.19 217,-350 212,-354.07 207.04,-358.83 202.47,-363.6"/>
<polygon fill="black" stroke="black" points="199.94,-361.18 195.78,-370.93 205.11,-365.9 199.94,-361.18"/>
<text text-anchor="start" x="296" y="-176.38" font-family="Courier New" font-weight="bold" font-size="10.00" fill="blue">Z_EPSILON(,)</text>
</g>
<!-- status -->
<g id="node6" class="node">
<title>status</title>
<polygon fill="none" stroke="black" points="226,-350.5 226,-429.5 548,-429.5 548,-350.5 226,-350.5"/>
<polygon fill="none" stroke="black" points="237,-403.75 237,-422.5 537,-422.5 537,-403.75 237,-403.75"/>
<text text-anchor="start" x="369" y="-411" font-family="Courier New" font-weight="bold" font-size="10.00">sq_0_b</text>
<polygon fill="none" stroke="black" points="237,-357.5 237,-401.75 537,-401.75 537,-357.5 237,-357.5"/>
<text text-anchor="start" x="240" y="-389.25" font-family="Courier New" font-size="10.00" fill="green">VIEW::IDV_RACEPAN @pos(x:264, y:237, w:19, h:17)</text>
<text text-anchor="start" x="240" y="-376.5" font-family="Courier New" font-size="10.00" fill="green">sq_0_b::M19_HOLDER(&#39;&#39;,&#39;IDD_PLAYER_B&#39;,&#39;&#39;,&#39;&#39;,&#39;&#39;,&#39;&#39;)</text>
<text text-anchor="start" x="240" y="-363.75" font-family="Courier New" font-size="10.00" fill="green">{state:&#39;empty&#39;: Top:237 Left:264</text>
<polygon fill="none" stroke="black" points="234,-354.5 234,-425.5 540,-425.5 540,-354.5 234,-354.5"/>
</g>
</g>
</svg>
