<?xml version="1.0" encoding="UTF-8" standalone="no"?>
<!DOCTYPE svg PUBLIC "-//W3C//DTD SVG 1.1//EN"
 "http://www.w3.org/Graphics/SVG/1.1/DTD/svg11.dtd">
<!-- Generated by graphviz version 10.0.1 (20240210.2158)
 -->
<!-- Title: Automaton Pages: 1 -->
<svg width="694pt" height="438pt"
 viewBox="0.00 0.00 694.00 438.00" xmlns="http://www.w3.org/2000/svg" xmlns:xlink="http://www.w3.org/1999/xlink">
<g id="graph0" class="graph" transform="scale(1 1) rotate(0) translate(4 434)">
<title>Automaton</title>
<polygon fill="white" stroke="none" points="-4,4 -4,-434 690,-434 690,4 -4,4"/>
<!-- filename -->
<g id="node1" class="node">
<title>filename</title>
<polygon fill="none" stroke="black" points="0,-363.25 0,-416.75 136,-416.75 136,-363.25 0,-363.25"/>
<polygon fill="none" stroke="black" points="11,-391 11,-409.75 125,-409.75 125,-391 11,-391"/>
<text text-anchor="start" x="14" y="-398.25" font-family="Courier New" font-weight="bold" font-size="10.00">sq_0_t::M19_HOLDER</text>
<polygon fill="none" stroke="black" points="11,-370.25 11,-389 125,-389 125,-370.25 11,-370.25"/>
<text text-anchor="start" x="23" y="-376.5" font-family="Courier New" font-size="10.00" fill="brown">start state = 0</text>
<polygon fill="none" stroke="black" points="8,-367.25 8,-412.75 128,-412.75 128,-367.25 8,-367.25"/>
</g>
<!-- 0 -->
<g id="node2" class="node">
<title>0</title>
<polyline fill="none" stroke="darkred" points="173.88,-378.75 188.12,-378.75"/>
<text text-anchor="start" x="176.88" y="-385.95" font-family="Courier New" font-weight="bold" font-size="14.00">0</text>
<path fill="none" stroke="darkred" d="M177.62,-375.75C177.62,-375.75 184.38,-375.75 184.38,-375.75 187.75,-375.75 191.12,-379.12 191.12,-382.5 191.12,-382.5 191.12,-397.5 191.12,-397.5 191.12,-400.88 187.75,-404.25 184.38,-404.25 184.38,-404.25 177.62,-404.25 177.62,-404.25 174.25,-404.25 170.88,-400.88 170.88,-397.5 170.88,-397.5 170.88,-382.5 170.88,-382.5 170.88,-379.12 174.25,-375.75 177.62,-375.75"/>
</g>
<!-- present -->
<g id="node3" class="node">
<title>present</title>
<polyline fill="none" stroke="darkred" stroke-width="3" points="69.62,-221.75 134.38,-221.75"/>
<text text-anchor="start" x="73.12" y="-229.45" font-family="Courier New" font-weight="bold" font-size="14.00">present</text>
<path fill="none" stroke="darkred" stroke-width="3" d="M75.79,-216.75C75.79,-216.75 128.21,-216.75 128.21,-216.75 133.79,-216.75 139.38,-222.33 139.38,-227.92 139.38,-227.92 139.38,-239.08 139.38,-239.08 139.38,-244.67 133.79,-250.25 128.21,-250.25 128.21,-250.25 75.79,-250.25 75.79,-250.25 70.21,-250.25 64.62,-244.67 64.62,-239.08 64.62,-239.08 64.62,-227.92 64.62,-227.92 64.62,-222.33 70.21,-216.75 75.79,-216.75"/>
</g>
<!-- 0&#45;&gt;present -->
<g id="edge1" class="edge">
<title>0&#45;&gt;present</title>
<path fill="none" stroke="black" d="M167.98,-371.91C161.66,-364.46 153.58,-356.06 145,-350 128.41,-338.28 114.27,-348.9 103,-332 90.36,-313.04 90.73,-287.07 93.93,-266.7"/>
<polygon fill="black" stroke="black" points="97.36,-267.41 95.78,-256.93 90.48,-266.11 97.36,-267.41"/>
<polygon fill="none" stroke="black" points="106,-310.25 106,-329 244,-329 244,-310.25 106,-310.25"/>
<text text-anchor="start" x="127" y="-317.5" font-family="Courier New" font-weight="bold" font-size="10.00" fill="orange">WAIT(,SIG_RESET)</text>
<polygon fill="none" stroke="black" points="106,-276.75 106,-308.25 244,-308.25 244,-276.75 106,-276.75"/>
<text text-anchor="start" x="109" y="-295.75" font-family="Courier New" font-size="10.00" fill="blue"> &#160;&#160;&#160;MOV(WOBJECT,WIP2);</text>
<text text-anchor="start" x="109" y="-283" font-family="Courier New" font-size="10.00" fill="blue"> &#160;&#160;&#160;SHOW(WOBJECT);</text>
<polygon fill="none" stroke="black" points="103,-273.75 103,-332 247,-332 247,-273.75 103,-273.75"/>
</g>
<!-- empty -->
<g id="node4" class="node">
<title>empty</title>
<polyline fill="none" stroke="darkred" points="94.38,-100.25 141.62,-100.25"/>
<text text-anchor="start" x="97.38" y="-107.45" font-family="Courier New" font-weight="bold" font-size="14.00">empty</text>
<path fill="none" stroke="darkred" d="M100.88,-97.25C100.88,-97.25 135.12,-97.25 135.12,-97.25 139.88,-97.25 144.62,-102 144.62,-106.75 144.62,-106.75 144.62,-116.25 144.62,-116.25 144.62,-121 139.88,-125.75 135.12,-125.75 135.12,-125.75 100.88,-125.75 100.88,-125.75 96.12,-125.75 91.38,-121 91.38,-116.25 91.38,-116.25 91.38,-106.75 91.38,-106.75 91.38,-102 96.12,-97.25 100.88,-97.25"/>
</g>
<!-- present&#45;&gt;empty -->
<g id="edge4" class="edge">
<title>present&#45;&gt;empty</title>
<path fill="none" stroke="black" d="M64.87,-211.45C58.86,-206.31 53.48,-200.24 50,-193.25 40.98,-175.15 39.49,-165.03 50,-147.75 55.48,-138.74 64.09,-131.93 73.37,-126.82"/>
<polygon fill="black" stroke="black" points="74.71,-130.05 82.21,-122.57 71.68,-123.74 74.71,-130.05"/>
<polygon fill="none" stroke="black" points="53,-171.5 53,-190.25 101,-190.25 101,-171.5 53,-171.5"/>
<text text-anchor="start" x="56" y="-178.75" font-family="Courier New" font-weight="bold" font-size="10.00" fill="orange">GRAB(,)</text>
<polygon fill="none" stroke="black" points="53,-150.75 53,-169.5 101,-169.5 101,-150.75 53,-150.75"/>
<text text-anchor="start" x="56" y="-157" font-family="Courier New" font-size="10.00" fill="blue">SHOW();</text>
<polygon fill="none" stroke="black" points="50,-147.75 50,-193.25 104,-193.25 104,-147.75 50,-147.75"/>
</g>
<!-- empty&#45;&gt;present -->
<g id="edge2" class="edge">
<title>empty&#45;&gt;present</title>
<path fill="none" stroke="black" d="M115.72,-129.59C113.28,-147.9 109.34,-177.41 106.31,-200.15"/>
<polygon fill="black" stroke="black" points="102.88,-199.45 105.02,-209.82 109.81,-200.37 102.88,-199.45"/>
<polygon fill="none" stroke="black" points="117,-171.5 117,-190.25 231,-190.25 231,-171.5 117,-171.5"/>
<text text-anchor="start" x="153" y="-178.75" font-family="Courier New" font-weight="bold" font-size="10.00" fill="orange">DROP(,)</text>
<polygon fill="none" stroke="black" points="117,-150.75 117,-169.5 231,-169.5 231,-150.75 117,-150.75"/>
<text text-anchor="start" x="120" y="-157" font-family="Courier New" font-size="10.00" fill="blue"> &#160;&#160;&#160;SHOW(WOBJECT);</text>
<polygon fill="none" stroke="black" points="114,-147.75 114,-193.25 234,-193.25 234,-147.75 114,-147.75"/>
</g>
<!-- resetting -->
<g id="node5" class="node">
<title>resetting</title>
<polyline fill="none" stroke="darkred" points="148.88,-7 229.12,-7"/>
<text text-anchor="start" x="151.88" y="-14.2" font-family="Courier New" font-weight="bold" font-size="14.00">resetting</text>
<path fill="none" stroke="darkred" d="M155.38,-4C155.38,-4 222.62,-4 222.62,-4 227.38,-4 232.12,-8.75 232.12,-13.5 232.12,-13.5 232.12,-23 232.12,-23 232.12,-27.75 227.38,-32.5 222.62,-32.5 222.62,-32.5 155.38,-32.5 155.38,-32.5 150.62,-32.5 145.88,-27.75 145.88,-23 145.88,-23 145.88,-13.5 145.88,-13.5 145.88,-8.75 150.62,-4 155.38,-4"/>
</g>
<!-- empty&#45;&gt;resetting -->
<g id="edge3" class="edge">
<title>empty&#45;&gt;resetting</title>
<path fill="none" stroke="black" d="M123.15,-93.38C127.25,-81.63 133.83,-66.11 143,-54.5 146.1,-50.57 149.73,-46.84 153.57,-43.38"/>
<polygon fill="black" stroke="black" points="155.54,-46.29 161.01,-37.22 151.08,-40.9 155.54,-46.29"/>
<text text-anchor="start" x="147" y="-62.75" font-family="Courier New" font-weight="bold" font-size="10.00" fill="orange">WAIT(,SIG_RESET)</text>
</g>
<!-- resetting&#45;&gt;0 -->
<g id="edge5" class="edge">
<title>resetting&#45;&gt;0</title>
<path fill="none" stroke="black" d="M229.67,-36.45C236.61,-41.25 242.9,-47.21 247,-54.5 307.46,-162 307.77,-224.68 247,-332 239.34,-345.53 229.06,-340.19 217,-350 212,-354.07 207.04,-358.83 202.47,-363.6"/>
<polygon fill="black" stroke="black" points="199.94,-361.18 195.78,-370.93 205.11,-365.9 199.94,-361.18"/>
<text text-anchor="start" x="296" y="-168.38" font-family="Courier New" font-weight="bold" font-size="10.00" fill="blue">Z_EPSILON(,)</text>
</g>
<!-- status -->
<g id="node6" class="node">
<title>status</title>
<polygon fill="none" stroke="black" points="226,-350.5 226,-429.5 686,-429.5 686,-350.5 226,-350.5"/>
<polygon fill="none" stroke="black" points="237,-403.75 237,-422.5 675,-422.5 675,-403.75 237,-403.75"/>
<text text-anchor="start" x="438" y="-411" font-family="Courier New" font-weight="bold" font-size="10.00">sq_0_t</text>
<polygon fill="none" stroke="black" points="237,-357.5 237,-401.75 675,-401.75 675,-357.5 237,-357.5"/>
<text text-anchor="start" x="240" y="-389.25" font-family="Courier New" font-size="10.00" fill="green">VIEW::IDV_RACEPAN @pos(x:264, y:221, w:15, h:17)</text>
<text text-anchor="start" x="240" y="-376.5" font-family="Courier New" font-size="10.00" fill="green">sq_0_t::M19_HOLDER(&#39;&#39;,&#39;IDD_PLAYER_W&#39;,&#39;&#39;,&#39;&#39;,&#39;&#39;,&#39;&#39;)</text>
<text text-anchor="start" x="240" y="-363.75" font-family="Courier New" font-size="10.00" fill="green">{state:&#39;present&#39;: wObject:IDD_PLAYER_W wSprite:player_w Top:221 Left:264</text>
<polygon fill="none" stroke="black" points="234,-354.5 234,-425.5 678,-425.5 678,-354.5 234,-354.5"/>
</g>
</g>
</svg>
