<?xml version="1.0" encoding="UTF-8" standalone="no"?>
<!DOCTYPE svg PUBLIC "-//W3C//DTD SVG 1.1//EN"
 "http://www.w3.org/Graphics/SVG/1.1/DTD/svg11.dtd">
<!-- Generated by graphviz version 10.0.1 (20240210.2158)
 -->
<!-- Title: Automaton Pages: 1 -->
<svg width="807pt" height="358pt"
 viewBox="0.00 0.00 807.26 357.50" xmlns="http://www.w3.org/2000/svg" xmlns:xlink="http://www.w3.org/1999/xlink">
<g id="graph0" class="graph" transform="scale(1 1) rotate(0) translate(4 353.5)">
<title>Automaton</title>
<polygon fill="white" stroke="none" points="-4,4 -4,-353.5 803.26,-353.5 803.26,4 -4,4"/>
<!-- filename -->
<g id="node1" class="node">
<title>filename</title>
<polygon fill="none" stroke="black" points="197.26,-282.75 197.26,-336.25 339.26,-336.25 339.26,-282.75 197.26,-282.75"/>
<polygon fill="none" stroke="black" points="208.26,-310.5 208.26,-329.25 328.26,-329.25 328.26,-310.5 208.26,-310.5"/>
<text text-anchor="start" x="211.26" y="-317.75" font-family="Courier New" font-weight="bold" font-size="10.00">sq_39_t::M19_SQUARE</text>
<polygon fill="none" stroke="black" points="208.26,-289.75 208.26,-308.5 328.26,-308.5 328.26,-289.75 208.26,-289.75"/>
<text text-anchor="start" x="223.26" y="-296" font-family="Courier New" font-size="10.00" fill="brown">start state = 0</text>
<polygon fill="none" stroke="black" points="205.26,-286.75 205.26,-332.25 331.26,-332.25 331.26,-286.75 205.26,-286.75"/>
</g>
<!-- 0 -->
<g id="node2" class="node">
<title>0</title>
<polyline fill="none" stroke="darkred" points="377.13,-298.25 391.38,-298.25"/>
<text text-anchor="start" x="380.13" y="-305.45" font-family="Courier New" font-weight="bold" font-size="14.00">0</text>
<path fill="none" stroke="darkred" d="M380.88,-295.25C380.88,-295.25 387.63,-295.25 387.63,-295.25 391.01,-295.25 394.38,-298.62 394.38,-302 394.38,-302 394.38,-317 394.38,-317 394.38,-320.38 391.01,-323.75 387.63,-323.75 387.63,-323.75 380.88,-323.75 380.88,-323.75 377.51,-323.75 374.13,-320.38 374.13,-317 374.13,-317 374.13,-302 374.13,-302 374.13,-298.62 377.51,-295.25 380.88,-295.25"/>
</g>
<!-- squareempty -->
<g id="node3" class="node">
<title>squareempty</title>
<polyline fill="none" stroke="darkred" stroke-width="3" points="237.38,-154 335.13,-154"/>
<text text-anchor="start" x="240.88" y="-161.7" font-family="Courier New" font-weight="bold" font-size="14.00">squareempty</text>
<path fill="none" stroke="darkred" stroke-width="3" d="M243.55,-149C243.55,-149 328.96,-149 328.96,-149 334.55,-149 340.13,-154.58 340.13,-160.17 340.13,-160.17 340.13,-171.33 340.13,-171.33 340.13,-176.92 334.55,-182.5 328.96,-182.5 328.96,-182.5 243.55,-182.5 243.55,-182.5 237.96,-182.5 232.38,-176.92 232.38,-171.33 232.38,-171.33 232.38,-160.17 232.38,-160.17 232.38,-154.58 237.96,-149 243.55,-149"/>
</g>
<!-- 0&#45;&gt;squareempty -->
<g id="edge1" class="edge">
<title>0&#45;&gt;squareempty</title>
<path fill="none" stroke="black" d="M372.28,-291.6C365.96,-283.82 357.58,-275.09 348.26,-269.5 321.08,-253.2 298.63,-276.58 279.26,-251.5 267.85,-236.74 269.41,-215.91 273.91,-198.59"/>
<polygon fill="black" stroke="black" points="277.18,-199.86 276.75,-189.27 270.49,-197.82 277.18,-199.86"/>
<polygon fill="none" stroke="black" points="282.26,-229.75 282.26,-248.5 474.26,-248.5 474.26,-229.75 282.26,-229.75"/>
<text text-anchor="start" x="342.26" y="-237" font-family="Courier New" font-weight="bold" font-size="10.00" fill="blue">Z_EPSILON(,)</text>
<polygon fill="none" stroke="black" points="282.26,-209 282.26,-227.75 474.26,-227.75 474.26,-209 282.26,-209"/>
<text text-anchor="start" x="285.26" y="-215.25" font-family="Courier New" font-size="10.00" fill="blue">ASSIGN(BPARM,0);CLEAR(WOBJECT);</text>
<polygon fill="none" stroke="black" points="279.26,-206 279.26,-251.5 477.26,-251.5 477.26,-206 279.26,-206"/>
</g>
<!-- resetting -->
<g id="node4" class="node">
<title>resetting</title>
<polyline fill="none" stroke="darkred" points="390.13,-7 470.38,-7"/>
<text text-anchor="start" x="393.13" y="-14.2" font-family="Courier New" font-weight="bold" font-size="14.00">resetting</text>
<path fill="none" stroke="darkred" d="M396.63,-4C396.63,-4 463.88,-4 463.88,-4 468.63,-4 473.38,-8.75 473.38,-13.5 473.38,-13.5 473.38,-23 473.38,-23 473.38,-27.75 468.63,-32.5 463.88,-32.5 463.88,-32.5 396.63,-32.5 396.63,-32.5 391.88,-32.5 387.13,-27.75 387.13,-23 387.13,-23 387.13,-13.5 387.13,-13.5 387.13,-8.75 391.88,-4 396.63,-4"/>
</g>
<!-- squareempty&#45;&gt;resetting -->
<g id="edge4" class="edge">
<title>squareempty&#45;&gt;resetting</title>
<path fill="none" stroke="black" d="M326.29,-143.67C333.63,-138.47 340.72,-132.39 346.26,-125.5 367.42,-99.19 351.76,-80.53 373.26,-54.5 376.73,-50.29 380.85,-46.44 385.25,-42.96"/>
<polygon fill="black" stroke="black" points="387.22,-45.85 393.35,-37.21 383.17,-40.15 387.22,-45.85"/>
<text text-anchor="start" x="377.26" y="-87.88" font-family="Courier New" font-weight="bold" font-size="10.00" fill="orange">WAIT(,SIG_RESET)</text>
</g>
<!-- squareholding -->
<g id="node5" class="node">
<title>squareholding</title>
<polyline fill="none" stroke="darkred" points="127.63,-7 240.88,-7"/>
<text text-anchor="start" x="130.63" y="-14.2" font-family="Courier New" font-weight="bold" font-size="14.00">squareholding</text>
<path fill="none" stroke="darkred" d="M134.13,-4C134.13,-4 234.38,-4 234.38,-4 239.13,-4 243.88,-8.75 243.88,-13.5 243.88,-13.5 243.88,-23 243.88,-23 243.88,-27.75 239.13,-32.5 234.38,-32.5 234.38,-32.5 134.13,-32.5 134.13,-32.5 129.38,-32.5 124.63,-27.75 124.63,-23 124.63,-23 124.63,-13.5 124.63,-13.5 124.63,-8.75 129.38,-4 134.13,-4"/>
</g>
<!-- squareempty&#45;&gt;squareholding -->
<g id="edge3" class="edge">
<title>squareempty&#45;&gt;squareholding</title>
<path fill="none" stroke="black" d="M223.06,-164.76C151.55,-163.27 41.59,-155.92 15.26,-125.5 -5.4,-101.64 -4.65,-78.99 15.26,-54.5 27.04,-40 67.44,-31.26 105.78,-26.11"/>
<polygon fill="black" stroke="black" points="106.06,-29.61 115.55,-24.88 105.19,-22.66 106.06,-29.61"/>
<polygon fill="none" stroke="black" points="18.26,-103.75 18.26,-122.5 264.26,-122.5 264.26,-103.75 18.26,-103.75"/>
<text text-anchor="start" x="81.26" y="-111" font-family="Courier New" font-weight="bold" font-size="10.00" fill="orange">DROP(ISA_PLAYTOKEN,)</text>
<polygon fill="none" stroke="black" points="18.26,-57.5 18.26,-101.75 264.26,-101.75 264.26,-57.5 18.26,-57.5"/>
<text text-anchor="start" x="21.26" y="-89.25" font-family="Courier New" font-size="10.00" fill="blue"> &#160;&#160;&#160;SHOW(WOBJECT);</text>
<text text-anchor="start" x="21.26" y="-76.5" font-family="Courier New" font-size="10.00" fill="blue"> &#160;&#160;&#160;MOV(BPARM,WOBJECT); //IDD_PLAYER_W..</text>
<text text-anchor="start" x="21.26" y="-63.75" font-family="Courier New" font-size="10.00" fill="blue"> &#160;&#160;&#160;SIGNALi(WIP2,S19_PLAYERWATCHER); </text>
<polygon fill="none" stroke="black" points="15.26,-54.5 15.26,-125.5 267.26,-125.5 267.26,-54.5 15.26,-54.5"/>
</g>
<!-- resetting&#45;&gt;0 -->
<g id="edge2" class="edge">
<title>resetting&#45;&gt;0</title>
<path fill="none" stroke="black" d="M461.66,-36.36C467.94,-41.33 473.7,-47.38 477.26,-54.5 516.41,-132.81 529.01,-180.88 477.26,-251.5 461.55,-272.93 442.68,-255.26 420.26,-269.5 414.47,-273.17 409.02,-278 404.18,-283"/>
<polygon fill="black" stroke="black" points="401.73,-280.48 397.69,-290.28 406.96,-285.14 401.73,-280.48"/>
<text text-anchor="start" x="515.26" y="-163.62" font-family="Courier New" font-weight="bold" font-size="10.00" fill="blue">Z_EPSILON(,)</text>
</g>
<!-- squareholding&#45;&gt;squareempty -->
<g id="edge5" class="edge">
<title>squareholding&#45;&gt;squareempty</title>
<path fill="none" stroke="black" d="M245.04,-36.42C253.51,-41.09 261.33,-47.01 267.26,-54.5 284.59,-76.38 288.45,-108.44 288.5,-132.36"/>
<polygon fill="black" stroke="black" points="285,-132.1 288.28,-142.18 292,-132.26 285,-132.1"/>
<polygon fill="none" stroke="black" points="291.26,-91 291.26,-109.75 339.26,-109.75 339.26,-91 291.26,-91"/>
<text text-anchor="start" x="294.26" y="-98.25" font-family="Courier New" font-weight="bold" font-size="10.00" fill="orange">GRAB(,)</text>
<polygon fill="none" stroke="black" points="291.26,-70.25 291.26,-89 339.26,-89 339.26,-70.25 291.26,-70.25"/>
<text text-anchor="start" x="294.26" y="-76.5" font-family="Courier New" font-size="10.00" fill="blue">SHOW();</text>
<polygon fill="none" stroke="black" points="288.26,-67.25 288.26,-112.75 342.26,-112.75 342.26,-67.25 288.26,-67.25"/>
</g>
<!-- status -->
<g id="node6" class="node">
<title>status</title>
<polygon fill="none" stroke="black" points="429.26,-270 429.26,-349 799.26,-349 799.26,-270 429.26,-270"/>
<polygon fill="none" stroke="black" points="440.26,-323.25 440.26,-342 788.26,-342 788.26,-323.25 440.26,-323.25"/>
<text text-anchor="start" x="593.26" y="-330.5" font-family="Courier New" font-weight="bold" font-size="10.00">sq_39_t</text>
<polygon fill="none" stroke="black" points="440.26,-277 440.26,-321.25 788.26,-321.25 788.26,-277 440.26,-277"/>
<text text-anchor="start" x="443.26" y="-308.75" font-family="Courier New" font-size="10.00" fill="green">VIEW::IDV_RACEPAN @pos(x:291, y:74, w:18, h:14)</text>
<text text-anchor="start" x="443.26" y="-296" font-family="Courier New" font-size="10.00" fill="green">sq_39_t::M19_SQUARE(&#39;BROWN_SQUARE&#39;,&#39;SIG_39T&#39;,&#39;&#39;,&#39;&#39;,&#39;&#39;,&#39;&#39;)</text>
<text text-anchor="start" x="443.26" y="-283.25" font-family="Courier New" font-size="10.00" fill="green">{state:&#39;squareempty&#39;: bParm:IDD_PLAYER_B Top:74 Left:291</text>
<polygon fill="none" stroke="black" points="437.26,-274 437.26,-345 791.26,-345 791.26,-274 437.26,-274"/>
</g>
</g>
</svg>
