<?xml version="1.0" encoding="UTF-8" standalone="no"?>
<!DOCTYPE svg PUBLIC "-//W3C//DTD SVG 1.1//EN"
 "http://www.w3.org/Graphics/SVG/1.1/DTD/svg11.dtd">
<!-- Generated by graphviz version 10.0.1 (20240210.2158)
 -->
<!-- Title: Automaton Pages: 1 -->
<svg width="1032pt" height="731pt"
 viewBox="0.00 0.00 1032.41 730.50" xmlns="http://www.w3.org/2000/svg" xmlns:xlink="http://www.w3.org/1999/xlink">
<g id="graph0" class="graph" transform="scale(1 1) rotate(0) translate(4 726.5)">
<title>Automaton</title>
<polygon fill="white" stroke="none" points="-4,4 -4,-726.5 1028.41,-726.5 1028.41,4 -4,4"/>
<!-- filename -->
<g id="node1" class="node">
<title>filename</title>
<polygon fill="none" stroke="black" points="152.41,-655.75 152.41,-709.25 348.41,-709.25 348.41,-655.75 152.41,-655.75"/>
<polygon fill="none" stroke="black" points="163.41,-683.5 163.41,-702.25 337.41,-702.25 337.41,-683.5 163.41,-683.5"/>
<text text-anchor="start" x="166.41" y="-690.75" font-family="Courier New" font-weight="bold" font-size="10.00">STALKING_ACTIVE::M_VIEWSPELL</text>
<polygon fill="none" stroke="black" points="163.41,-662.75 163.41,-681.5 337.41,-681.5 337.41,-662.75 163.41,-662.75"/>
<text text-anchor="start" x="205.41" y="-669" font-family="Courier New" font-size="10.00" fill="brown">start state = 0</text>
<polygon fill="none" stroke="black" points="160.41,-659.75 160.41,-705.25 340.41,-705.25 340.41,-659.75 160.41,-659.75"/>
</g>
<!-- 0 -->
<g id="node2" class="node">
<title>0</title>
<polyline fill="none" stroke="darkred" points="386.28,-671.25 400.53,-671.25"/>
<text text-anchor="start" x="389.28" y="-678.45" font-family="Courier New" font-weight="bold" font-size="14.00">0</text>
<path fill="none" stroke="darkred" d="M390.03,-668.25C390.03,-668.25 396.78,-668.25 396.78,-668.25 400.16,-668.25 403.53,-671.62 403.53,-675 403.53,-675 403.53,-690 403.53,-690 403.53,-693.38 400.16,-696.75 396.78,-696.75 396.78,-696.75 390.03,-696.75 390.03,-696.75 386.66,-696.75 383.28,-693.38 383.28,-690 383.28,-690 383.28,-675 383.28,-675 383.28,-671.62 386.66,-668.25 390.03,-668.25"/>
</g>
<!-- turntOn -->
<g id="node3" class="node">
<title>turntOn</title>
<polyline fill="none" stroke="darkred" points="189.53,-467.75 253.28,-467.75"/>
<text text-anchor="start" x="192.53" y="-474.95" font-family="Courier New" font-weight="bold" font-size="14.00">turntOn</text>
<path fill="none" stroke="darkred" d="M196.03,-464.75C196.03,-464.75 246.78,-464.75 246.78,-464.75 251.53,-464.75 256.28,-469.5 256.28,-474.25 256.28,-474.25 256.28,-483.75 256.28,-483.75 256.28,-488.5 251.53,-493.25 246.78,-493.25 246.78,-493.25 196.03,-493.25 196.03,-493.25 191.28,-493.25 186.53,-488.5 186.53,-483.75 186.53,-483.75 186.53,-474.25 186.53,-474.25 186.53,-469.5 191.28,-464.75 196.03,-464.75"/>
</g>
<!-- 0&#45;&gt;turntOn -->
<g id="edge1" class="edge">
<title>0&#45;&gt;turntOn</title>
<path fill="none" stroke="black" d="M382.03,-664.49C375.74,-656.48 367.22,-647.6 357.41,-642.5 330.55,-628.55 242.42,-647.2 222.41,-624.5 194.48,-592.82 202.85,-540.33 211.85,-508.09"/>
<polygon fill="black" stroke="black" points="215.16,-509.24 214.7,-498.65 208.46,-507.22 215.16,-509.24"/>
<polygon fill="none" stroke="black" points="225.41,-602.75 225.41,-621.5 549.41,-621.5 549.41,-602.75 225.41,-602.75"/>
<text text-anchor="start" x="330.41" y="-610" font-family="Courier New" font-weight="bold" font-size="10.00" fill="orange">WAIT(0,SIG_SPELLME)</text>
<polygon fill="none" stroke="black" points="225.41,-518.25 225.41,-600.75 549.41,-600.75 549.41,-518.25 225.41,-518.25"/>
<text text-anchor="start" x="228.41" y="-588.25" font-family="Courier New" font-size="10.00" fill="blue"> &#160;&#160;&#160;//start the timer</text>
<text text-anchor="start" x="228.41" y="-575.5" font-family="Courier New" font-size="10.00" fill="blue"> &#160;&#160;&#160;&#160;WRITE(&quot;A VIEW SPELL ACTIVATED&quot;);</text>
<text text-anchor="start" x="228.41" y="-562.75" font-family="Courier New" font-size="10.00" fill="blue"> &#160;&#160;&#160;&#160;SIGNAL(WIP2,SIG_START);</text>
<text text-anchor="start" x="228.41" y="-550" font-family="Courier New" font-size="10.00" fill="blue"> &#160;&#160;&#160;&#160;MOV(WPARM,LVIEW); //THE VIEW OF THE VICTIM</text>
<text text-anchor="start" x="228.41" y="-537.25" font-family="Courier New" font-size="10.00" fill="blue"> &#160;&#160;&#160;&#160;MOV(BPARM,OVIEW); //THE VIEW OF THE SPELL CASTER</text>
<text text-anchor="start" x="228.41" y="-524.5" font-family="Courier New" font-size="10.00" fill="blue"> &#160;&#160;&#160;&#160;SHOW(WIP3);</text>
<polygon fill="none" stroke="black" points="222.41,-515.25 222.41,-624.5 552.41,-624.5 552.41,-515.25 222.41,-515.25"/>
</g>
<!-- caughtInLoop -->
<g id="node4" class="node">
<title>caughtInLoop</title>
<polyline fill="none" stroke="darkred" stroke-width="3" points="260.41,-141.25 366.41,-141.25"/>
<text text-anchor="start" x="263.91" y="-148.95" font-family="Courier New" font-weight="bold" font-size="14.00">caughtInLoop</text>
<path fill="none" stroke="darkred" stroke-width="3" d="M266.57,-136.25C266.57,-136.25 360.24,-136.25 360.24,-136.25 365.82,-136.25 371.41,-141.83 371.41,-147.42 371.41,-147.42 371.41,-158.58 371.41,-158.58 371.41,-164.17 365.82,-169.75 360.24,-169.75 360.24,-169.75 266.57,-169.75 266.57,-169.75 260.99,-169.75 255.41,-164.17 255.41,-158.58 255.41,-158.58 255.41,-147.42 255.41,-147.42 255.41,-141.83 260.99,-136.25 266.57,-136.25"/>
</g>
<!-- turntOn&#45;&gt;caughtInLoop -->
<g id="edge5" class="edge">
<title>turntOn&#45;&gt;caughtInLoop</title>
<path fill="none" stroke="black" d="M178.69,-475.04C134.22,-470.96 68.91,-461.84 53.41,-442.75 -16.49,-356.66 -18.91,-277.31 53.41,-193.25 76.5,-166.41 167.06,-157.69 234.86,-154.98"/>
<polygon fill="black" stroke="black" points="234.57,-158.49 244.44,-154.63 234.32,-151.5 234.57,-158.49"/>
<polygon fill="none" stroke="black" points="56.41,-421 56.41,-439.75 284.41,-439.75 284.41,-421 56.41,-421"/>
<text text-anchor="start" x="134.41" y="-428.25" font-family="Courier New" font-weight="bold" font-size="10.00" fill="blue">Z_EPSILON(,)</text>
<polygon fill="none" stroke="black" points="56.41,-196.25 56.41,-419 284.41,-419 284.41,-196.25 56.41,-196.25"/>
<text text-anchor="start" x="59.41" y="-406.5" font-family="Courier New" font-size="10.00" fill="blue"> &#160;&#160;&#160;&#160;&#160;&#160;&#160;if(WIP1==ENCHANT){</text>
<text text-anchor="start" x="59.41" y="-393.75" font-family="Courier New" font-size="10.00" fill="blue"> &#160;&#160;&#160;&#160;&#160;&#160;&#160;&#160;&#160;&#160;&#160;LOADVIEW(OVIEW);</text>
<text text-anchor="start" x="59.41" y="-381" font-family="Courier New" font-size="10.00" fill="blue"> &#160;&#160;&#160;&#160;&#160;&#160;&#160;}</text>
<text text-anchor="start" x="59.41" y="-368.25" font-family="Courier New" font-size="10.00" fill="blue"> &#160;&#160;&#160;&#160;&#160;&#160;&#160;if(WIP1==HOLDING){ </text>
<text text-anchor="start" x="59.41" y="-355.5" font-family="Courier New" font-size="10.00" fill="blue"> &#160;&#160;&#160;&#160;&#160;&#160;&#160;&#160;&#160;&#160;&#160;LOADVIEW(WPARM);</text>
<text text-anchor="start" x="59.41" y="-342.75" font-family="Courier New" font-size="10.00" fill="blue"> &#160;&#160;&#160;&#160;&#160;&#160;&#160;}</text>
<text text-anchor="start" x="59.41" y="-330" font-family="Courier New" font-size="10.00" fill="blue"> &#160;&#160;&#160;&#160;&#160;&#160;&#160;&#160;if(WIP1==STALKING){</text>
<text text-anchor="start" x="59.41" y="-317.25" font-family="Courier New" font-size="10.00" fill="blue"> &#160;&#160;&#160;&#160;&#160;&#160;&#160;&#160;&#160;&#160;&#160;LOADVIEW(LVIEW);</text>
<text text-anchor="start" x="59.41" y="-304.5" font-family="Courier New" font-size="10.00" fill="blue"> &#160;&#160;&#160;&#160;&#160;&#160;&#160;}</text>
<text text-anchor="start" x="59.41" y="-291.75" font-family="Courier New" font-size="10.00" fill="blue"> &#160;&#160;&#160;&#160;&#160;&#160;&#160;if(WIP1==BLINDNESS){</text>
<text text-anchor="start" x="59.41" y="-279" font-family="Courier New" font-size="10.00" fill="blue"> &#160;&#160;&#160;&#160;&#160;&#160;&#160;&#160;&#160;&#160;&#160;MOV(WPARM,IDV_BLINDVIEW);</text>
<text text-anchor="start" x="59.41" y="-266.25" font-family="Courier New" font-size="10.00" fill="blue"> &#160;&#160;&#160;&#160;&#160;&#160;&#160;&#160;&#160;&#160;&#160;LOADVIEW(WPARM);</text>
<text text-anchor="start" x="59.41" y="-253.5" font-family="Courier New" font-size="10.00" fill="blue"> &#160;&#160;&#160;&#160;&#160;&#160;&#160;}</text>
<text text-anchor="start" x="59.41" y="-240.75" font-family="Courier New" font-size="10.00" fill="blue"> &#160;&#160;&#160;&#160;&#160;&#160;&#160;if(WIP1==HALLUCINATE){ </text>
<text text-anchor="start" x="59.41" y="-228" font-family="Courier New" font-size="10.00" fill="blue"> &#160;&#160;&#160;&#160;&#160;&#160;&#160;&#160;&#160;&#160;&#160;MOV(WPARM,IDV_VIL_HAL);</text>
<text text-anchor="start" x="59.41" y="-215.25" font-family="Courier New" font-size="10.00" fill="blue"> &#160;&#160;&#160;&#160;&#160;&#160;&#160;&#160;&#160;&#160;&#160;LOADVIEW(WPARM);</text>
<text text-anchor="start" x="59.41" y="-202.5" font-family="Courier New" font-size="10.00" fill="blue"> &#160;&#160;&#160;&#160;&#160;&#160;&#160;}</text>
<polygon fill="none" stroke="black" points="53.41,-193.25 53.41,-442.75 287.41,-442.75 287.41,-193.25 53.41,-193.25"/>
</g>
<!-- caughtInLoop&#45;&gt;turntOn -->
<g id="edge2" class="edge">
<title>caughtInLoop&#45;&gt;turntOn</title>
<path fill="none" stroke="black" d="M312.99,-175.14C311.57,-237.98 306.2,-420.66 291.41,-442.75 286.88,-449.51 280.64,-455.04 273.75,-459.54"/>
<polygon fill="black" stroke="black" points="272.32,-456.33 265.35,-464.31 275.78,-462.41 272.32,-456.33"/>
<text text-anchor="start" x="397.41" y="-325.25" font-family="Courier New" font-weight="bold" font-size="10.00" fill="blue">ESTIME(1,)</text>
<text text-anchor="start" x="316.41" y="-305.5" font-family="Courier New" font-size="10.00" fill="green"> &#160;&#160;&#160;&#160;&#160;WRITE(&quot;IN LOOP of view spell&quot;);</text>
</g>
<!-- ended -->
<g id="node5" class="node">
<title>ended</title>
<polyline fill="none" stroke="darkred" points="415.78,-7 463.03,-7"/>
<text text-anchor="start" x="418.78" y="-14.2" font-family="Courier New" font-weight="bold" font-size="14.00">ended</text>
<path fill="none" stroke="darkred" d="M422.28,-4C422.28,-4 456.53,-4 456.53,-4 461.28,-4 466.03,-8.75 466.03,-13.5 466.03,-13.5 466.03,-23 466.03,-23 466.03,-27.75 461.28,-32.5 456.53,-32.5 456.53,-32.5 422.28,-32.5 422.28,-32.5 417.53,-32.5 412.78,-27.75 412.78,-23 412.78,-23 412.78,-13.5 412.78,-13.5 412.78,-8.75 417.53,-4 422.28,-4"/>
</g>
<!-- caughtInLoop&#45;&gt;ended -->
<g id="edge3" class="edge">
<title>caughtInLoop&#45;&gt;ended</title>
<path fill="none" stroke="black" d="M314.29,-131.04C316.31,-109.25 322.67,-75.45 342.41,-54.5 355.94,-40.14 375.78,-31.61 394,-26.55"/>
<polygon fill="black" stroke="black" points="394.72,-29.98 403.6,-24.19 393.05,-23.18 394.72,-29.98"/>
<polygon fill="none" stroke="black" points="345.41,-91 345.41,-109.75 549.41,-109.75 549.41,-91 345.41,-91"/>
<text text-anchor="start" x="399.41" y="-98.25" font-family="Courier New" font-weight="bold" font-size="10.00" fill="orange">WAIT(0,SIG_STOP)</text>
<polygon fill="none" stroke="black" points="345.41,-57.5 345.41,-89 549.41,-89 549.41,-57.5 345.41,-57.5"/>
<text text-anchor="start" x="348.41" y="-76.5" font-family="Courier New" font-size="10.00" fill="blue"> &#160;&#160;&#160;SIGNAL(SID_SPELL,SIG_CLEAR); </text>
<text text-anchor="start" x="348.41" y="-63.75" font-family="Courier New" font-size="10.00" fill="blue"> &#160;&#160;&#160;SHOW();</text>
<polygon fill="none" stroke="black" points="342.41,-54.5 342.41,-112.75 552.41,-112.75 552.41,-54.5 342.41,-54.5"/>
</g>
<!-- ended&#45;&gt;0 -->
<g id="edge4" class="edge">
<title>ended&#45;&gt;0</title>
<path fill="none" stroke="black" d="M473.95,-19.77C500.14,-22.21 534.57,-30.25 552.41,-54.5 702.52,-258.57 718.07,-432.84 552.41,-624.5 516.28,-666.3 478.28,-616.73 429.41,-642.5 422.99,-645.89 417.11,-650.88 412.05,-656.17"/>
<polygon fill="black" stroke="black" points="409.7,-653.54 405.8,-663.4 414.99,-658.12 409.7,-653.54"/>
<text text-anchor="start" x="674.41" y="-315.88" font-family="Courier New" font-weight="bold" font-size="10.00" fill="blue">Z_EPSILON(,)</text>
</g>
<!-- status -->
<g id="node6" class="node">
<title>status</title>
<polygon fill="none" stroke="black" points="438.41,-643 438.41,-722 1024.41,-722 1024.41,-643 438.41,-643"/>
<polygon fill="none" stroke="black" points="449.41,-696.25 449.41,-715 1013.41,-715 1013.41,-696.25 449.41,-696.25"/>
<text text-anchor="start" x="686.41" y="-703.5" font-family="Courier New" font-weight="bold" font-size="10.00">STALKING_ACTIVE</text>
<polygon fill="none" stroke="black" points="449.41,-650 449.41,-694.25 1013.41,-694.25 1013.41,-650 449.41,-650"/>
<text text-anchor="start" x="452.41" y="-681.75" font-family="Courier New" font-size="10.00" fill="green">VIEW::IDV_MAIN_PANEL @pos(x:71, y:275, h:20, w:20)</text>
<text text-anchor="start" x="452.41" y="-669" font-family="Courier New" font-size="10.00" fill="green">STALKING_ACTIVE::M_VIEWSPELL(&#39;STALKING&#39;,&#39;STALKING_TIMER&#39;,&#39;IDS_STALK_TINY&#39;,&#39;&#39;,&#39;&#39;,&#39;&#39;)</text>
<text text-anchor="start" x="452.41" y="-656.25" font-family="Courier New" font-size="10.00" fill="green">{state:&#39;caughtInLoop&#39;: wParm:IDV_FA1PAN wSprite:IDS_STALK_TINY dEtime:561 Top:275 Left:71 Z:0</text>
<polygon fill="none" stroke="black" points="446.41,-647 446.41,-718 1016.41,-718 1016.41,-647 446.41,-647"/>
</g>
</g>
</svg>
